<?xml version="1.0" encoding="UTF-8" standalone="no"?>
<!DOCTYPE svg PUBLIC "-//W3C//DTD SVG 1.1//EN"
 "http://www.w3.org/Graphics/SVG/1.1/DTD/svg11.dtd">
<!-- Generated by graphviz version 2.43.0 (0)
 -->
<!-- Title: orphans Pages: 1 -->
<svg width="672pt" height="329pt"
 viewBox="0.00 0.00 672.00 329.00" xmlns="http://www.w3.org/2000/svg" xmlns:xlink="http://www.w3.org/1999/xlink">
<g id="graph0" class="graph" transform="scale(1 1) rotate(0) translate(4 325)">
<title>orphans</title>
<polygon fill="#ffffff" stroke="transparent" points="-4,4 -4,-325 668,-325 668,4 -4,4"/>
<!-- lookup_template -->
<g id="node1" class="node">
<title>lookup_template</title>
<g id="a_node1"><a xlink:href="../../tables/lookup_template.html" xlink:title="lookup_template" target="_top">
<polygon fill="#ffffff" stroke="transparent" points="240,-207 240,-317 465,-317 465,-207 240,-207"/>
<polygon fill="#f5f5f5" stroke="transparent" points="242.5,-293 242.5,-315 463.5,-315 463.5,-293 242.5,-293"/>
<polygon fill="none" stroke="black" points="242.5,-293 242.5,-315 463.5,-315 463.5,-293 242.5,-293"/>
<text text-anchor="start" x="247.5" y="-302.2" font-family="Helvetica,sans-Serif" font-weight="bold" font-size="11.00">lookup_template</text>
<text text-anchor="start" x="421.5" y="-301.2" font-family="Helvetica,sans-Serif" font-size="11.00">[table]</text>
<polygon fill="none" stroke="black" points="242.5,-271 242.5,-293 385.5,-293 385.5,-271 242.5,-271"/>
<text text-anchor="start" x="262.5" y="-279.2" font-family="Helvetica,sans-Serif" font-size="11.00">name_de</text>
<polygon fill="none" stroke="black" points="385.5,-271 385.5,-293 463.5,-293 463.5,-271 385.5,-271"/>
<text text-anchor="start" x="388.5" y="-279.2" font-family="Helvetica,sans-Serif" font-size="11.00">varchar[150]</text>
<polygon fill="none" stroke="black" points="242.5,-249 242.5,-271 385.5,-271 385.5,-249 242.5,-249"/>
<text text-anchor="start" x="262.5" y="-257.2" font-family="Helvetica,sans-Serif" font-size="11.00">name_en</text>
<polygon fill="none" stroke="black" points="385.5,-249 385.5,-271 463.5,-271 463.5,-249 385.5,-249"/>
<text text-anchor="start" x="388.5" y="-257.2" font-family="Helvetica,sans-Serif" font-size="11.00">varchar[150]</text>
<polygon fill="none" stroke="black" points="242.5,-227 242.5,-249 385.5,-249 385.5,-227 242.5,-227"/>
<text text-anchor="start" x="262.5" y="-235.2" font-family="Helvetica,sans-Serif" font-size="11.00">sort</text>
<polygon fill="none" stroke="black" points="385.5,-227 385.5,-249 463.5,-249 463.5,-227 385.5,-227"/>
<text text-anchor="start" x="388.5" y="-235.2" font-family="Helvetica,sans-Serif" font-size="11.00">int4[10]</text>
<polygon fill="#ffffff" stroke="transparent" points="242.5,-209 242.5,-227 463.5,-227 463.5,-209 242.5,-209"/>
<polygon fill="none" stroke="black" points="242.5,-209 242.5,-227 463.5,-227 463.5,-209 242.5,-209"/>
<polygon fill="#ffffff" stroke="transparent" points="243.5,-210 243.5,-226 311.5,-226 311.5,-210 243.5,-210"/>
<text text-anchor="start" x="245.5" y="-215.2" font-family="Helvetica,sans-Serif" font-size="11.00">&lt; 0</text>
<polygon fill="#ffffff" stroke="transparent" points="311.5,-210 311.5,-226 395.5,-226 395.5,-210 311.5,-210"/>
<text text-anchor="start" x="335" y="-215.2" font-family="Helvetica,sans-Serif" font-size="11.00">0 rows</text>
<polygon fill="#ffffff" stroke="transparent" points="395.5,-210 395.5,-226 462.5,-226 462.5,-210 395.5,-210"/>
<text text-anchor="start" x="440.5" y="-215.2" font-family="Helvetica,sans-Serif" font-size="11.00">0 &gt;</text>
<polygon fill="black" stroke="black" points="311.5,-210 311.5,-226 311.5,-226 311.5,-210 311.5,-210"/>
<polygon fill="black" stroke="black" points="395.5,-210 395.5,-226 395.5,-226 395.5,-210 395.5,-210"/>
<polygon fill="none" stroke="black" stroke-width="2" points="241,-208 241,-316 464,-316 464,-208 241,-208"/>
</a>
</g>
</g>
<!-- lookup_trees_less_4meter_origin -->
<g id="node2" class="node">
<title>lookup_trees_less_4meter_origin</title>
<g id="a_node2"><a xlink:href="../../tables/lookup_trees_less_4meter_origin.html" xlink:title="lookup_trees_less_4meter_origin" target="_top">
<polygon fill="#ffffff" stroke="transparent" points="8,-4 8,-136 656,-136 656,-4 8,-4"/>
<polygon fill="#f5f5f5" stroke="transparent" points="10,-112 10,-134 654,-134 654,-112 10,-112"/>
<polygon fill="none" stroke="black" points="10,-112 10,-134 654,-134 654,-112 10,-112"/>
<text text-anchor="start" x="15" y="-121.2" font-family="Helvetica,sans-Serif" font-weight="bold" font-size="11.00">lookup_trees_less_4meter_origin</text>
<text text-anchor="start" x="612" y="-120.2" font-family="Helvetica,sans-Serif" font-size="11.00">[table]</text>
<polygon fill="none" stroke="black" points="10,-90 10,-112 268,-112 268,-90 10,-90"/>
<text text-anchor="start" x="30" y="-98.2" font-family="Helvetica,sans-Serif" font-size="11.00">name_de</text>
<polygon fill="none" stroke="black" points="268,-90 268,-112 654,-112 654,-90 268,-90"/>
<text text-anchor="start" x="271" y="-98.2" font-family="Helvetica,sans-Serif" font-size="11.00">varchar[150]</text>
<polygon fill="none" stroke="black" points="10,-68 10,-90 268,-90 268,-68 10,-68"/>
<text text-anchor="start" x="30" y="-76.2" font-family="Helvetica,sans-Serif" font-size="11.00">name_en</text>
<polygon fill="none" stroke="black" points="268,-68 268,-90 654,-90 654,-68 268,-68"/>
<text text-anchor="start" x="271" y="-76.2" font-family="Helvetica,sans-Serif" font-size="11.00">varchar[150]</text>
<polygon fill="none" stroke="black" points="10,-46 10,-68 268,-68 268,-46 10,-46"/>
<text text-anchor="start" x="30" y="-54.2" font-family="Helvetica,sans-Serif" font-size="11.00">sort</text>
<polygon fill="none" stroke="black" points="268,-46 268,-68 654,-68 654,-46 268,-46"/>
<text text-anchor="start" x="271" y="-54.2" font-family="Helvetica,sans-Serif" font-size="11.00">int4[10]</text>
<polygon fill="#ffffff" stroke="transparent" points="10,-24 10,-46 268,-46 268,-24 10,-24"/>
<polygon fill="none" stroke="black" points="10,-24 10,-46 268,-46 268,-24 10,-24"/>
<text text-anchor="start" x="30" y="-32.2" font-family="Helvetica,sans-Serif" font-size="11.00">abbreviation</text>
<polygon fill="none" stroke="black" points="268,-24 268,-46 654,-46 654,-24 268,-24"/>
<text text-anchor="start" x="271" y="-32.2" font-family="Helvetica,sans-Serif" font-size="11.00">&quot;private_ci2027_001&quot;.&quot;enum_trees_less_4meter_origin&quot;[2147483647]</text>
<polygon fill="#ffffff" stroke="transparent" points="10,-6 10,-24 654,-24 654,-6 10,-6"/>
<polygon fill="none" stroke="black" points="10,-6 10,-24 654,-24 654,-6 10,-6"/>
<polygon fill="#ffffff" stroke="transparent" points="11,-7 11,-23 220,-23 220,-7 11,-7"/>
<text text-anchor="start" x="13" y="-12.2" font-family="Helvetica,sans-Serif" font-size="11.00">&lt; 0</text>
<polygon fill="#ffffff" stroke="transparent" points="220,-7 220,-23 445,-23 445,-7 220,-7"/>
<text text-anchor="start" x="314" y="-12.2" font-family="Helvetica,sans-Serif" font-size="11.00">0 rows</text>
<polygon fill="#ffffff" stroke="transparent" points="445,-7 445,-23 653,-23 653,-7 445,-7"/>
<text text-anchor="start" x="631" y="-12.2" font-family="Helvetica,sans-Serif" font-size="11.00">0 &gt;</text>
<polygon fill="black" stroke="black" points="220,-7 220,-23 220,-23 220,-7 220,-7"/>
<polygon fill="black" stroke="black" points="445,-7 445,-23 445,-23 445,-7 445,-7"/>
<polygon fill="none" stroke="black" stroke-width="2" points="9,-5 9,-135 655,-135 655,-5 9,-5"/>
</a>
</g>
</g>
</g>
</svg>
