<?xml version="1.0" encoding="UTF-8" standalone="no"?>
<!DOCTYPE svg PUBLIC "-//W3C//DTD SVG 1.1//EN"
 "http://www.w3.org/Graphics/SVG/1.1/DTD/svg11.dtd">
<!-- Generated by graphviz version 2.43.0 (0)
 -->
<!-- Title: orphans Pages: 1 -->
<svg width="1675pt" height="1132pt"
 viewBox="0.00 0.00 1675.00 1132.00" xmlns="http://www.w3.org/2000/svg" xmlns:xlink="http://www.w3.org/1999/xlink">
<g id="graph0" class="graph" transform="scale(1 1) rotate(0) translate(4 1128)">
<title>orphans</title>
<polygon fill="#ffffff" stroke="transparent" points="-4,4 -4,-1128 1671,-1128 1671,4 -4,4"/>
<!-- lookup_cluster_situation -->
<g id="node1" class="node">
<title>lookup_cluster_situation</title>
<g id="a_node1"><a xlink:href="../../tables/lookup_cluster_situation.html" xlink:title="lookup_cluster_situation" target="_top">
<polygon fill="#ffffff" stroke="transparent" points="1044,-522 1044,-676 1587,-676 1587,-522 1044,-522"/>
<polygon fill="#f5f5f5" stroke="transparent" points="1046.5,-652 1046.5,-674 1585.5,-674 1585.5,-652 1046.5,-652"/>
<polygon fill="none" stroke="black" points="1046.5,-652 1046.5,-674 1585.5,-674 1585.5,-652 1046.5,-652"/>
<text text-anchor="start" x="1051.5" y="-661.2" font-family="Helvetica,sans-Serif" font-weight="bold" font-size="11.00">lookup_cluster_situation</text>
<text text-anchor="start" x="1543.5" y="-660.2" font-family="Helvetica,sans-Serif" font-size="11.00">[table]</text>
<polygon fill="none" stroke="black" points="1046.5,-630 1046.5,-652 1245.5,-652 1245.5,-630 1046.5,-630"/>
<text text-anchor="start" x="1066.5" y="-638.2" font-family="Helvetica,sans-Serif" font-size="11.00">name_de</text>
<polygon fill="none" stroke="black" points="1245.5,-630 1245.5,-652 1585.5,-652 1585.5,-630 1245.5,-630"/>
<text text-anchor="start" x="1248.5" y="-638.2" font-family="Helvetica,sans-Serif" font-size="11.00">varchar[150]</text>
<polygon fill="none" stroke="black" points="1046.5,-608 1046.5,-630 1245.5,-630 1245.5,-608 1046.5,-608"/>
<text text-anchor="start" x="1066.5" y="-616.2" font-family="Helvetica,sans-Serif" font-size="11.00">name_en</text>
<polygon fill="none" stroke="black" points="1245.5,-608 1245.5,-630 1585.5,-630 1585.5,-608 1245.5,-608"/>
<text text-anchor="start" x="1248.5" y="-616.2" font-family="Helvetica,sans-Serif" font-size="11.00">varchar[150]</text>
<polygon fill="none" stroke="black" points="1046.5,-586 1046.5,-608 1245.5,-608 1245.5,-586 1046.5,-586"/>
<text text-anchor="start" x="1066.5" y="-594.2" font-family="Helvetica,sans-Serif" font-size="11.00">interval</text>
<polygon fill="none" stroke="black" points="1245.5,-586 1245.5,-608 1585.5,-608 1585.5,-586 1245.5,-586"/>
<text text-anchor="start" x="1248.5" y="-594.2" font-family="Helvetica,sans-Serif" font-size="11.00">&quot;private_ci2027_001&quot;.&quot;_enum_interval_name&quot;[2147483647]</text>
<polygon fill="none" stroke="black" points="1046.5,-564 1046.5,-586 1245.5,-586 1245.5,-564 1046.5,-564"/>
<text text-anchor="start" x="1066.5" y="-572.2" font-family="Helvetica,sans-Serif" font-size="11.00">sort</text>
<polygon fill="none" stroke="black" points="1245.5,-564 1245.5,-586 1585.5,-586 1585.5,-564 1245.5,-564"/>
<text text-anchor="start" x="1248.5" y="-572.2" font-family="Helvetica,sans-Serif" font-size="11.00">int4[10]</text>
<polygon fill="#ffffff" stroke="transparent" points="1046.5,-542 1046.5,-564 1245.5,-564 1245.5,-542 1046.5,-542"/>
<polygon fill="none" stroke="black" points="1046.5,-542 1046.5,-564 1245.5,-564 1245.5,-542 1046.5,-542"/>
<text text-anchor="start" x="1066.5" y="-550.2" font-family="Helvetica,sans-Serif" font-size="11.00">abbreviation</text>
<polygon fill="none" stroke="black" points="1245.5,-542 1245.5,-564 1585.5,-564 1585.5,-542 1245.5,-542"/>
<text text-anchor="start" x="1248.5" y="-550.2" font-family="Helvetica,sans-Serif" font-size="11.00">&quot;private_ci2027_001&quot;.&quot;enum_cluster_situation&quot;[2147483647]</text>
<polygon fill="#ffffff" stroke="transparent" points="1046.5,-524 1046.5,-542 1585.5,-542 1585.5,-524 1046.5,-524"/>
<polygon fill="none" stroke="black" points="1046.5,-524 1046.5,-542 1585.5,-542 1585.5,-524 1046.5,-524"/>
<polygon fill="#ffffff" stroke="transparent" points="1047.5,-525 1047.5,-541 1221.5,-541 1221.5,-525 1047.5,-525"/>
<text text-anchor="start" x="1049.5" y="-530.2" font-family="Helvetica,sans-Serif" font-size="11.00">&lt; 0</text>
<polygon fill="#ffffff" stroke="transparent" points="1221.5,-525 1221.5,-541 1411.5,-541 1411.5,-525 1221.5,-525"/>
<text text-anchor="start" x="1298" y="-530.2" font-family="Helvetica,sans-Serif" font-size="11.00">0 rows</text>
<polygon fill="#ffffff" stroke="transparent" points="1411.5,-525 1411.5,-541 1584.5,-541 1584.5,-525 1411.5,-525"/>
<text text-anchor="start" x="1562.5" y="-530.2" font-family="Helvetica,sans-Serif" font-size="11.00">0 &gt;</text>
<polygon fill="black" stroke="black" points="1221.5,-525 1221.5,-541 1221.5,-541 1221.5,-525 1221.5,-525"/>
<polygon fill="black" stroke="black" points="1411.5,-525 1411.5,-541 1411.5,-541 1411.5,-525 1411.5,-525"/>
<polygon fill="none" stroke="black" stroke-width="2" points="1045,-523 1045,-675 1586,-675 1586,-523 1045,-523"/>
</a>
</g>
</g>
<!-- lookup_ffh_forest_type_field -->
<g id="node2" class="node">
<title>lookup_ffh_forest_type_field</title>
<g id="a_node2"><a xlink:href="../../tables/lookup_ffh_forest_type_field.html" xlink:title="lookup_ffh_forest_type_field" target="_top">
<polygon fill="#ffffff" stroke="transparent" points="933,-966 933,-1120 1523,-1120 1523,-966 933,-966"/>
<polygon fill="#f5f5f5" stroke="transparent" points="935,-1096 935,-1118 1521,-1118 1521,-1096 935,-1096"/>
<polygon fill="none" stroke="black" points="935,-1096 935,-1118 1521,-1118 1521,-1096 935,-1096"/>
<text text-anchor="start" x="940" y="-1105.2" font-family="Helvetica,sans-Serif" font-weight="bold" font-size="11.00">lookup_ffh_forest_type_field</text>
<text text-anchor="start" x="1479" y="-1104.2" font-family="Helvetica,sans-Serif" font-size="11.00">[table]</text>
<polygon fill="none" stroke="black" points="935,-1074 935,-1096 1161,-1096 1161,-1074 935,-1074"/>
<text text-anchor="start" x="955" y="-1082.2" font-family="Helvetica,sans-Serif" font-size="11.00">name_de</text>
<polygon fill="none" stroke="black" points="1161,-1074 1161,-1096 1521,-1096 1521,-1074 1161,-1074"/>
<text text-anchor="start" x="1164" y="-1082.2" font-family="Helvetica,sans-Serif" font-size="11.00">varchar[150]</text>
<polygon fill="none" stroke="black" points="935,-1052 935,-1074 1161,-1074 1161,-1052 935,-1052"/>
<text text-anchor="start" x="955" y="-1060.2" font-family="Helvetica,sans-Serif" font-size="11.00">name_en</text>
<polygon fill="none" stroke="black" points="1161,-1052 1161,-1074 1521,-1074 1521,-1052 1161,-1052"/>
<text text-anchor="start" x="1164" y="-1060.2" font-family="Helvetica,sans-Serif" font-size="11.00">varchar[150]</text>
<polygon fill="none" stroke="black" points="935,-1030 935,-1052 1161,-1052 1161,-1030 935,-1030"/>
<text text-anchor="start" x="955" y="-1038.2" font-family="Helvetica,sans-Serif" font-size="11.00">interval</text>
<polygon fill="none" stroke="black" points="1161,-1030 1161,-1052 1521,-1052 1521,-1030 1161,-1030"/>
<text text-anchor="start" x="1164" y="-1038.2" font-family="Helvetica,sans-Serif" font-size="11.00">&quot;private_ci2027_001&quot;.&quot;_enum_interval_name&quot;[2147483647]</text>
<polygon fill="none" stroke="black" points="935,-1008 935,-1030 1161,-1030 1161,-1008 935,-1008"/>
<text text-anchor="start" x="955" y="-1016.2" font-family="Helvetica,sans-Serif" font-size="11.00">sort</text>
<polygon fill="none" stroke="black" points="1161,-1008 1161,-1030 1521,-1030 1521,-1008 1161,-1008"/>
<text text-anchor="start" x="1164" y="-1016.2" font-family="Helvetica,sans-Serif" font-size="11.00">int4[10]</text>
<polygon fill="#ffffff" stroke="transparent" points="935,-986 935,-1008 1161,-1008 1161,-986 935,-986"/>
<polygon fill="none" stroke="black" points="935,-986 935,-1008 1161,-1008 1161,-986 935,-986"/>
<text text-anchor="start" x="955" y="-994.2" font-family="Helvetica,sans-Serif" font-size="11.00">abbreviation</text>
<polygon fill="none" stroke="black" points="1161,-986 1161,-1008 1521,-1008 1521,-986 1161,-986"/>
<text text-anchor="start" x="1164" y="-994.2" font-family="Helvetica,sans-Serif" font-size="11.00">&quot;private_ci2027_001&quot;.&quot;enum_ffh_forest_type_field&quot;[2147483647]</text>
<polygon fill="#ffffff" stroke="transparent" points="935,-968 935,-986 1521,-986 1521,-968 935,-968"/>
<polygon fill="none" stroke="black" points="935,-968 935,-986 1521,-986 1521,-968 935,-968"/>
<polygon fill="#ffffff" stroke="transparent" points="936,-969 936,-985 1125,-985 1125,-969 936,-969"/>
<text text-anchor="start" x="938" y="-974.2" font-family="Helvetica,sans-Serif" font-size="11.00">&lt; 0</text>
<polygon fill="#ffffff" stroke="transparent" points="1125,-969 1125,-985 1331,-985 1331,-969 1125,-969"/>
<text text-anchor="start" x="1209.5" y="-974.2" font-family="Helvetica,sans-Serif" font-size="11.00">0 rows</text>
<polygon fill="#ffffff" stroke="transparent" points="1331,-969 1331,-985 1520,-985 1520,-969 1331,-969"/>
<text text-anchor="start" x="1498" y="-974.2" font-family="Helvetica,sans-Serif" font-size="11.00">0 &gt;</text>
<polygon fill="black" stroke="black" points="1125,-969 1125,-985 1125,-985 1125,-969 1125,-969"/>
<polygon fill="black" stroke="black" points="1331,-969 1331,-985 1331,-985 1331,-969 1331,-969"/>
<polygon fill="none" stroke="black" stroke-width="2" points="934,-967 934,-1119 1522,-1119 1522,-967 934,-967"/>
</a>
</g>
</g>
<!-- lookup_forest_community_field -->
<g id="node3" class="node">
<title>lookup_forest_community_field</title>
<g id="a_node3"><a xlink:href="../../tables/lookup_forest_community_field.html" xlink:title="lookup_forest_community_field" target="_top">
<polygon fill="#ffffff" stroke="transparent" points="230,-966 230,-1120 858,-1120 858,-966 230,-966"/>
<polygon fill="#f5f5f5" stroke="transparent" points="232,-1096 232,-1118 856,-1118 856,-1096 232,-1096"/>
<polygon fill="none" stroke="black" points="232,-1096 232,-1118 856,-1118 856,-1096 232,-1096"/>
<text text-anchor="start" x="237" y="-1105.2" font-family="Helvetica,sans-Serif" font-weight="bold" font-size="11.00">lookup_forest_community_field</text>
<text text-anchor="start" x="814" y="-1104.2" font-family="Helvetica,sans-Serif" font-size="11.00">[table]</text>
<polygon fill="none" stroke="black" points="232,-1074 232,-1096 479,-1096 479,-1074 232,-1074"/>
<text text-anchor="start" x="252" y="-1082.2" font-family="Helvetica,sans-Serif" font-size="11.00">name_de</text>
<polygon fill="none" stroke="black" points="479,-1074 479,-1096 856,-1096 856,-1074 479,-1074"/>
<text text-anchor="start" x="482" y="-1082.2" font-family="Helvetica,sans-Serif" font-size="11.00">varchar[150]</text>
<polygon fill="none" stroke="black" points="232,-1052 232,-1074 479,-1074 479,-1052 232,-1052"/>
<text text-anchor="start" x="252" y="-1060.2" font-family="Helvetica,sans-Serif" font-size="11.00">name_en</text>
<polygon fill="none" stroke="black" points="479,-1052 479,-1074 856,-1074 856,-1052 479,-1052"/>
<text text-anchor="start" x="482" y="-1060.2" font-family="Helvetica,sans-Serif" font-size="11.00">varchar[150]</text>
<polygon fill="none" stroke="black" points="232,-1030 232,-1052 479,-1052 479,-1030 232,-1030"/>
<text text-anchor="start" x="252" y="-1038.2" font-family="Helvetica,sans-Serif" font-size="11.00">interval</text>
<polygon fill="none" stroke="black" points="479,-1030 479,-1052 856,-1052 856,-1030 479,-1030"/>
<text text-anchor="start" x="482" y="-1038.2" font-family="Helvetica,sans-Serif" font-size="11.00">&quot;private_ci2027_001&quot;.&quot;_enum_interval_name&quot;[2147483647]</text>
<polygon fill="none" stroke="black" points="232,-1008 232,-1030 479,-1030 479,-1008 232,-1008"/>
<text text-anchor="start" x="252" y="-1016.2" font-family="Helvetica,sans-Serif" font-size="11.00">sort</text>
<polygon fill="none" stroke="black" points="479,-1008 479,-1030 856,-1030 856,-1008 479,-1008"/>
<text text-anchor="start" x="482" y="-1016.2" font-family="Helvetica,sans-Serif" font-size="11.00">int4[10]</text>
<polygon fill="#ffffff" stroke="transparent" points="232,-986 232,-1008 479,-1008 479,-986 232,-986"/>
<polygon fill="none" stroke="black" points="232,-986 232,-1008 479,-1008 479,-986 232,-986"/>
<text text-anchor="start" x="252" y="-994.2" font-family="Helvetica,sans-Serif" font-size="11.00">abbreviation</text>
<polygon fill="none" stroke="black" points="479,-986 479,-1008 856,-1008 856,-986 479,-986"/>
<text text-anchor="start" x="482" y="-994.2" font-family="Helvetica,sans-Serif" font-size="11.00">&quot;private_ci2027_001&quot;.&quot;enum_forest_community_field&quot;[2147483647]</text>
<polygon fill="#ffffff" stroke="transparent" points="232,-968 232,-986 856,-986 856,-968 232,-968"/>
<polygon fill="none" stroke="black" points="232,-968 232,-986 856,-986 856,-968 232,-968"/>
<polygon fill="#ffffff" stroke="transparent" points="233,-969 233,-985 435,-985 435,-969 233,-969"/>
<text text-anchor="start" x="235" y="-974.2" font-family="Helvetica,sans-Serif" font-size="11.00">&lt; 0</text>
<polygon fill="#ffffff" stroke="transparent" points="435,-969 435,-985 654,-985 654,-969 435,-969"/>
<text text-anchor="start" x="526" y="-974.2" font-family="Helvetica,sans-Serif" font-size="11.00">0 rows</text>
<polygon fill="#ffffff" stroke="transparent" points="654,-969 654,-985 855,-985 855,-969 654,-969"/>
<text text-anchor="start" x="833" y="-974.2" font-family="Helvetica,sans-Serif" font-size="11.00">0 &gt;</text>
<polygon fill="black" stroke="black" points="435,-969 435,-985 435,-985 435,-969 435,-969"/>
<polygon fill="black" stroke="black" points="654,-969 654,-985 654,-985 654,-969 654,-969"/>
<polygon fill="none" stroke="black" stroke-width="2" points="231,-967 231,-1119 857,-1119 857,-967 231,-967"/>
</a>
</g>
</g>
<!-- lookup_forest_office -->
<g id="node4" class="node">
<title>lookup_forest_office</title>
<g id="a_node4"><a xlink:href="../../tables/lookup_forest_office.html" xlink:title="lookup_forest_office" target="_top">
<polygon fill="#ffffff" stroke="transparent" points="600,-41 600,-217 1105,-217 1105,-41 600,-41"/>
<polygon fill="#f5f5f5" stroke="transparent" points="602.5,-193 602.5,-215 1103.5,-215 1103.5,-193 602.5,-193"/>
<polygon fill="none" stroke="black" points="602.5,-193 602.5,-215 1103.5,-215 1103.5,-193 602.5,-193"/>
<text text-anchor="start" x="607.5" y="-202.2" font-family="Helvetica,sans-Serif" font-weight="bold" font-size="11.00">lookup_forest_office</text>
<text text-anchor="start" x="1061.5" y="-201.2" font-family="Helvetica,sans-Serif" font-size="11.00">[table]</text>
<polygon fill="none" stroke="black" points="602.5,-171 602.5,-193 770.5,-193 770.5,-171 602.5,-171"/>
<text text-anchor="start" x="622.5" y="-179.2" font-family="Helvetica,sans-Serif" font-size="11.00">name_de</text>
<polygon fill="none" stroke="black" points="770.5,-171 770.5,-193 1103.5,-193 1103.5,-171 770.5,-171"/>
<text text-anchor="start" x="773.5" y="-179.2" font-family="Helvetica,sans-Serif" font-size="11.00">varchar[150]</text>
<polygon fill="none" stroke="black" points="602.5,-149 602.5,-171 770.5,-171 770.5,-149 602.5,-149"/>
<text text-anchor="start" x="622.5" y="-157.2" font-family="Helvetica,sans-Serif" font-size="11.00">name_en</text>
<polygon fill="none" stroke="black" points="770.5,-149 770.5,-171 1103.5,-171 1103.5,-149 770.5,-149"/>
<text text-anchor="start" x="773.5" y="-157.2" font-family="Helvetica,sans-Serif" font-size="11.00">varchar[150]</text>
<polygon fill="none" stroke="black" points="602.5,-127 602.5,-149 770.5,-149 770.5,-127 602.5,-127"/>
<text text-anchor="start" x="622.5" y="-135.2" font-family="Helvetica,sans-Serif" font-size="11.00">interval</text>
<polygon fill="none" stroke="black" points="770.5,-127 770.5,-149 1103.5,-149 1103.5,-127 770.5,-127"/>
<text text-anchor="start" x="773.5" y="-135.2" font-family="Helvetica,sans-Serif" font-size="11.00">&quot;private_ci2027_001&quot;.&quot;_enum_interval_name&quot;[2147483647]</text>
<polygon fill="none" stroke="black" points="602.5,-105 602.5,-127 770.5,-127 770.5,-105 602.5,-105"/>
<text text-anchor="start" x="622.5" y="-113.2" font-family="Helvetica,sans-Serif" font-size="11.00">sort</text>
<polygon fill="none" stroke="black" points="770.5,-105 770.5,-127 1103.5,-127 1103.5,-105 770.5,-105"/>
<text text-anchor="start" x="773.5" y="-113.2" font-family="Helvetica,sans-Serif" font-size="11.00">int4[10]</text>
<polygon fill="#ffffff" stroke="transparent" points="602.5,-83 602.5,-105 770.5,-105 770.5,-83 602.5,-83"/>
<polygon fill="none" stroke="black" points="602.5,-83 602.5,-105 770.5,-105 770.5,-83 602.5,-83"/>
<text text-anchor="start" x="622.5" y="-91.2" font-family="Helvetica,sans-Serif" font-size="11.00">abbreviation</text>
<polygon fill="none" stroke="black" points="770.5,-83 770.5,-105 1103.5,-105 1103.5,-83 770.5,-83"/>
<text text-anchor="start" x="773.5" y="-91.2" font-family="Helvetica,sans-Serif" font-size="11.00">int2[5]</text>
<polygon fill="none" stroke="black" points="602.5,-61 602.5,-83 770.5,-83 770.5,-61 602.5,-61"/>
<text text-anchor="start" x="622.5" y="-69.2" font-family="Helvetica,sans-Serif" font-size="11.00">phone</text>
<polygon fill="none" stroke="black" points="770.5,-61 770.5,-83 1103.5,-83 1103.5,-61 770.5,-61"/>
<text text-anchor="start" x="773.5" y="-69.2" font-family="Helvetica,sans-Serif" font-size="11.00">varchar[20]</text>
<polygon fill="#ffffff" stroke="transparent" points="602.5,-43 602.5,-61 1103.5,-61 1103.5,-43 602.5,-43"/>
<polygon fill="none" stroke="black" points="602.5,-43 602.5,-61 1103.5,-61 1103.5,-43 602.5,-43"/>
<polygon fill="#ffffff" stroke="transparent" points="603.5,-44 603.5,-60 759.5,-60 759.5,-44 603.5,-44"/>
<text text-anchor="start" x="605.5" y="-49.2" font-family="Helvetica,sans-Serif" font-size="11.00">&lt; 0</text>
<polygon fill="#ffffff" stroke="transparent" points="759.5,-44 759.5,-60 946.5,-60 946.5,-44 759.5,-44"/>
<text text-anchor="start" x="827.5" y="-49.2" font-family="Helvetica,sans-Serif" font-size="11.00">814 rows</text>
<polygon fill="#ffffff" stroke="transparent" points="946.5,-44 946.5,-60 1102.5,-60 1102.5,-44 946.5,-44"/>
<text text-anchor="start" x="1080.5" y="-49.2" font-family="Helvetica,sans-Serif" font-size="11.00">0 &gt;</text>
<polygon fill="black" stroke="black" points="759.5,-44 759.5,-60 759.5,-60 759.5,-44 759.5,-44"/>
<polygon fill="black" stroke="black" points="946.5,-44 946.5,-60 946.5,-60 946.5,-44 946.5,-44"/>
<polygon fill="none" stroke="black" stroke-width="2" points="601,-42 601,-216 1104,-216 1104,-42 601,-42"/>
</a>
</g>
</g>
<!-- lookup_grid_density -->
<g id="node5" class="node">
<title>lookup_grid_density</title>
<g id="a_node5"><a xlink:href="../../tables/lookup_grid_density.html" xlink:title="lookup_grid_density" target="_top">
<polygon fill="#ffffff" stroke="transparent" points="1155,-744 1155,-898 1659,-898 1659,-744 1155,-744"/>
<polygon fill="#f5f5f5" stroke="transparent" points="1157,-874 1157,-896 1657,-896 1657,-874 1157,-874"/>
<polygon fill="none" stroke="black" points="1157,-874 1157,-896 1657,-896 1657,-874 1157,-874"/>
<text text-anchor="start" x="1162" y="-883.2" font-family="Helvetica,sans-Serif" font-weight="bold" font-size="11.00">lookup_grid_density</text>
<text text-anchor="start" x="1615" y="-882.2" font-family="Helvetica,sans-Serif" font-size="11.00">[table]</text>
<polygon fill="none" stroke="black" points="1157,-852 1157,-874 1324,-874 1324,-852 1157,-852"/>
<text text-anchor="start" x="1177" y="-860.2" font-family="Helvetica,sans-Serif" font-size="11.00">name_de</text>
<polygon fill="none" stroke="black" points="1324,-852 1324,-874 1657,-874 1657,-852 1324,-852"/>
<text text-anchor="start" x="1327" y="-860.2" font-family="Helvetica,sans-Serif" font-size="11.00">varchar[150]</text>
<polygon fill="none" stroke="black" points="1157,-830 1157,-852 1324,-852 1324,-830 1157,-830"/>
<text text-anchor="start" x="1177" y="-838.2" font-family="Helvetica,sans-Serif" font-size="11.00">name_en</text>
<polygon fill="none" stroke="black" points="1324,-830 1324,-852 1657,-852 1657,-830 1324,-830"/>
<text text-anchor="start" x="1327" y="-838.2" font-family="Helvetica,sans-Serif" font-size="11.00">varchar[150]</text>
<polygon fill="none" stroke="black" points="1157,-808 1157,-830 1324,-830 1324,-808 1157,-808"/>
<text text-anchor="start" x="1177" y="-816.2" font-family="Helvetica,sans-Serif" font-size="11.00">interval</text>
<polygon fill="none" stroke="black" points="1324,-808 1324,-830 1657,-830 1657,-808 1324,-808"/>
<text text-anchor="start" x="1327" y="-816.2" font-family="Helvetica,sans-Serif" font-size="11.00">&quot;private_ci2027_001&quot;.&quot;_enum_interval_name&quot;[2147483647]</text>
<polygon fill="none" stroke="black" points="1157,-786 1157,-808 1324,-808 1324,-786 1157,-786"/>
<text text-anchor="start" x="1177" y="-794.2" font-family="Helvetica,sans-Serif" font-size="11.00">sort</text>
<polygon fill="none" stroke="black" points="1324,-786 1324,-808 1657,-808 1657,-786 1324,-786"/>
<text text-anchor="start" x="1327" y="-794.2" font-family="Helvetica,sans-Serif" font-size="11.00">int4[10]</text>
<polygon fill="#ffffff" stroke="transparent" points="1157,-764 1157,-786 1324,-786 1324,-764 1157,-764"/>
<polygon fill="none" stroke="black" points="1157,-764 1157,-786 1324,-786 1324,-764 1157,-764"/>
<text text-anchor="start" x="1177" y="-772.2" font-family="Helvetica,sans-Serif" font-size="11.00">abbreviation</text>
<polygon fill="none" stroke="black" points="1324,-764 1324,-786 1657,-786 1657,-764 1324,-764"/>
<text text-anchor="start" x="1327" y="-772.2" font-family="Helvetica,sans-Serif" font-size="11.00">&quot;private_ci2027_001&quot;.&quot;enum_grid_density&quot;[2147483647]</text>
<polygon fill="#ffffff" stroke="transparent" points="1157,-746 1157,-764 1657,-764 1657,-746 1157,-746"/>
<polygon fill="none" stroke="black" points="1157,-746 1157,-764 1657,-764 1657,-746 1157,-746"/>
<polygon fill="#ffffff" stroke="transparent" points="1158,-747 1158,-763 1319,-763 1319,-747 1158,-747"/>
<text text-anchor="start" x="1160" y="-752.2" font-family="Helvetica,sans-Serif" font-size="11.00">&lt; 0</text>
<polygon fill="#ffffff" stroke="transparent" points="1319,-747 1319,-763 1496,-763 1496,-747 1319,-747"/>
<text text-anchor="start" x="1389" y="-752.2" font-family="Helvetica,sans-Serif" font-size="11.00">0 rows</text>
<polygon fill="#ffffff" stroke="transparent" points="1496,-747 1496,-763 1656,-763 1656,-747 1496,-747"/>
<text text-anchor="start" x="1634" y="-752.2" font-family="Helvetica,sans-Serif" font-size="11.00">0 &gt;</text>
<polygon fill="black" stroke="black" points="1319,-747 1319,-763 1319,-763 1319,-747 1319,-747"/>
<polygon fill="black" stroke="black" points="1496,-747 1496,-763 1496,-763 1496,-747 1496,-747"/>
<polygon fill="none" stroke="black" stroke-width="2" points="1156,-745 1156,-897 1658,-897 1658,-745 1156,-745"/>
</a>
</g>
</g>
<!-- lookup_template -->
<g id="node6" class="node">
<title>lookup_template</title>
<g id="a_node6"><a xlink:href="../../tables/lookup_template.html" xlink:title="lookup_template" target="_top">
<polygon fill="#ffffff" stroke="transparent" points="45,-226 45,-358 525,-358 525,-226 45,-226"/>
<polygon fill="#f5f5f5" stroke="transparent" points="47,-334 47,-356 523,-356 523,-334 47,-334"/>
<polygon fill="none" stroke="black" points="47,-334 47,-356 523,-356 523,-334 47,-334"/>
<text text-anchor="start" x="52" y="-343.2" font-family="Helvetica,sans-Serif" font-weight="bold" font-size="11.00">lookup_template</text>
<text text-anchor="start" x="481" y="-342.2" font-family="Helvetica,sans-Serif" font-size="11.00">[table]</text>
<polygon fill="none" stroke="black" points="47,-312 47,-334 190,-334 190,-312 47,-312"/>
<text text-anchor="start" x="67" y="-320.2" font-family="Helvetica,sans-Serif" font-size="11.00">name_de</text>
<polygon fill="none" stroke="black" points="190,-312 190,-334 523,-334 523,-312 190,-312"/>
<text text-anchor="start" x="193" y="-320.2" font-family="Helvetica,sans-Serif" font-size="11.00">varchar[150]</text>
<polygon fill="none" stroke="black" points="47,-290 47,-312 190,-312 190,-290 47,-290"/>
<text text-anchor="start" x="67" y="-298.2" font-family="Helvetica,sans-Serif" font-size="11.00">name_en</text>
<polygon fill="none" stroke="black" points="190,-290 190,-312 523,-312 523,-290 190,-290"/>
<text text-anchor="start" x="193" y="-298.2" font-family="Helvetica,sans-Serif" font-size="11.00">varchar[150]</text>
<polygon fill="none" stroke="black" points="47,-268 47,-290 190,-290 190,-268 47,-268"/>
<text text-anchor="start" x="67" y="-276.2" font-family="Helvetica,sans-Serif" font-size="11.00">interval</text>
<polygon fill="none" stroke="black" points="190,-268 190,-290 523,-290 523,-268 190,-268"/>
<text text-anchor="start" x="193" y="-276.2" font-family="Helvetica,sans-Serif" font-size="11.00">&quot;private_ci2027_001&quot;.&quot;_enum_interval_name&quot;[2147483647]</text>
<polygon fill="none" stroke="black" points="47,-246 47,-268 190,-268 190,-246 47,-246"/>
<text text-anchor="start" x="67" y="-254.2" font-family="Helvetica,sans-Serif" font-size="11.00">sort</text>
<polygon fill="none" stroke="black" points="190,-246 190,-268 523,-268 523,-246 190,-246"/>
<text text-anchor="start" x="193" y="-254.2" font-family="Helvetica,sans-Serif" font-size="11.00">int4[10]</text>
<polygon fill="#ffffff" stroke="transparent" points="47,-228 47,-246 523,-246 523,-228 47,-228"/>
<polygon fill="none" stroke="black" points="47,-228 47,-246 523,-246 523,-228 47,-228"/>
<polygon fill="#ffffff" stroke="transparent" points="48,-229 48,-245 201,-245 201,-229 48,-229"/>
<text text-anchor="start" x="50" y="-234.2" font-family="Helvetica,sans-Serif" font-size="11.00">&lt; 0</text>
<polygon fill="#ffffff" stroke="transparent" points="201,-229 201,-245 370,-245 370,-229 201,-229"/>
<text text-anchor="start" x="267" y="-234.2" font-family="Helvetica,sans-Serif" font-size="11.00">0 rows</text>
<polygon fill="#ffffff" stroke="transparent" points="370,-229 370,-245 522,-245 522,-229 370,-229"/>
<text text-anchor="start" x="500" y="-234.2" font-family="Helvetica,sans-Serif" font-size="11.00">0 &gt;</text>
<polygon fill="black" stroke="black" points="201,-229 201,-245 201,-245 201,-229 201,-229"/>
<polygon fill="black" stroke="black" points="370,-229 370,-245 370,-245 370,-229 370,-229"/>
<polygon fill="none" stroke="black" stroke-width="2" points="46,-227 46,-357 524,-357 524,-227 46,-227"/>
</a>
</g>
</g>
<!-- lookup_trees_less_4meter_count_factor -->
<g id="node7" class="node">
<title>lookup_trees_less_4meter_count_factor</title>
<g id="a_node7"><a xlink:href="../../tables/lookup_trees_less_4meter_count_factor.html" xlink:title="lookup_trees_less_4meter_count_factor" target="_top">
<polygon fill="#ffffff" stroke="transparent" points="230,-522 230,-676 965,-676 965,-522 230,-522"/>
<polygon fill="#f5f5f5" stroke="transparent" points="232.5,-652 232.5,-674 963.5,-674 963.5,-652 232.5,-652"/>
<polygon fill="none" stroke="black" points="232.5,-652 232.5,-674 963.5,-674 963.5,-652 232.5,-652"/>
<text text-anchor="start" x="237.5" y="-661.2" font-family="Helvetica,sans-Serif" font-weight="bold" font-size="11.00">lookup_trees_less_4meter_count_factor</text>
<text text-anchor="start" x="921.5" y="-660.2" font-family="Helvetica,sans-Serif" font-size="11.00">[table]</text>
<polygon fill="none" stroke="black" points="232.5,-630 232.5,-652 539.5,-652 539.5,-630 232.5,-630"/>
<text text-anchor="start" x="252.5" y="-638.2" font-family="Helvetica,sans-Serif" font-size="11.00">name_de</text>
<polygon fill="none" stroke="black" points="539.5,-630 539.5,-652 963.5,-652 963.5,-630 539.5,-630"/>
<text text-anchor="start" x="542.5" y="-638.2" font-family="Helvetica,sans-Serif" font-size="11.00">varchar[150]</text>
<polygon fill="none" stroke="black" points="232.5,-608 232.5,-630 539.5,-630 539.5,-608 232.5,-608"/>
<text text-anchor="start" x="252.5" y="-616.2" font-family="Helvetica,sans-Serif" font-size="11.00">name_en</text>
<polygon fill="none" stroke="black" points="539.5,-608 539.5,-630 963.5,-630 963.5,-608 539.5,-608"/>
<text text-anchor="start" x="542.5" y="-616.2" font-family="Helvetica,sans-Serif" font-size="11.00">varchar[150]</text>
<polygon fill="none" stroke="black" points="232.5,-586 232.5,-608 539.5,-608 539.5,-586 232.5,-586"/>
<text text-anchor="start" x="252.5" y="-594.2" font-family="Helvetica,sans-Serif" font-size="11.00">interval</text>
<polygon fill="none" stroke="black" points="539.5,-586 539.5,-608 963.5,-608 963.5,-586 539.5,-586"/>
<text text-anchor="start" x="542.5" y="-594.2" font-family="Helvetica,sans-Serif" font-size="11.00">&quot;private_ci2027_001&quot;.&quot;_enum_interval_name&quot;[2147483647]</text>
<polygon fill="none" stroke="black" points="232.5,-564 232.5,-586 539.5,-586 539.5,-564 232.5,-564"/>
<text text-anchor="start" x="252.5" y="-572.2" font-family="Helvetica,sans-Serif" font-size="11.00">sort</text>
<polygon fill="none" stroke="black" points="539.5,-564 539.5,-586 963.5,-586 963.5,-564 539.5,-564"/>
<text text-anchor="start" x="542.5" y="-572.2" font-family="Helvetica,sans-Serif" font-size="11.00">int4[10]</text>
<polygon fill="#ffffff" stroke="transparent" points="232.5,-542 232.5,-564 539.5,-564 539.5,-542 232.5,-542"/>
<polygon fill="none" stroke="black" points="232.5,-542 232.5,-564 539.5,-564 539.5,-542 232.5,-542"/>
<text text-anchor="start" x="252.5" y="-550.2" font-family="Helvetica,sans-Serif" font-size="11.00">abbreviation</text>
<polygon fill="none" stroke="black" points="539.5,-542 539.5,-564 963.5,-564 963.5,-542 539.5,-542"/>
<text text-anchor="start" x="542.5" y="-550.2" font-family="Helvetica,sans-Serif" font-size="11.00">&quot;private_ci2027_001&quot;.&quot;enum_trees_less_4meter_count_factor&quot;[2147483647]</text>
<polygon fill="#ffffff" stroke="transparent" points="232.5,-524 232.5,-542 963.5,-542 963.5,-524 232.5,-524"/>
<polygon fill="none" stroke="black" points="232.5,-524 232.5,-542 963.5,-542 963.5,-524 232.5,-524"/>
<polygon fill="#ffffff" stroke="transparent" points="233.5,-525 233.5,-541 471.5,-541 471.5,-525 233.5,-525"/>
<text text-anchor="start" x="235.5" y="-530.2" font-family="Helvetica,sans-Serif" font-size="11.00">&lt; 0</text>
<polygon fill="#ffffff" stroke="transparent" points="471.5,-525 471.5,-541 725.5,-541 725.5,-525 471.5,-525"/>
<text text-anchor="start" x="580" y="-530.2" font-family="Helvetica,sans-Serif" font-size="11.00">0 rows</text>
<polygon fill="#ffffff" stroke="transparent" points="725.5,-525 725.5,-541 962.5,-541 962.5,-525 725.5,-525"/>
<text text-anchor="start" x="940.5" y="-530.2" font-family="Helvetica,sans-Serif" font-size="11.00">0 &gt;</text>
<polygon fill="black" stroke="black" points="471.5,-525 471.5,-541 471.5,-541 471.5,-525 471.5,-525"/>
<polygon fill="black" stroke="black" points="725.5,-525 725.5,-541 725.5,-541 725.5,-525 725.5,-525"/>
<polygon fill="none" stroke="black" stroke-width="2" points="231,-523 231,-675 964,-675 964,-523 231,-523"/>
</a>
</g>
</g>
<!-- lookup_trees_less_4meter_layer -->
<g id="node8" class="node">
<title>lookup_trees_less_4meter_layer</title>
<g id="a_node8"><a xlink:href="../../tables/lookup_trees_less_4meter_layer.html" xlink:title="lookup_trees_less_4meter_layer" target="_top">
<polygon fill="#ffffff" stroke="transparent" points="452,-744 452,-898 1092,-898 1092,-744 452,-744"/>
<polygon fill="#f5f5f5" stroke="transparent" points="454,-874 454,-896 1090,-896 1090,-874 454,-874"/>
<polygon fill="none" stroke="black" points="454,-874 454,-896 1090,-896 1090,-874 454,-874"/>
<text text-anchor="start" x="459" y="-883.2" font-family="Helvetica,sans-Serif" font-weight="bold" font-size="11.00">lookup_trees_less_4meter_layer</text>
<text text-anchor="start" x="1048" y="-882.2" font-family="Helvetica,sans-Serif" font-size="11.00">[table]</text>
<polygon fill="none" stroke="black" points="454,-852 454,-874 707,-874 707,-852 454,-852"/>
<text text-anchor="start" x="474" y="-860.2" font-family="Helvetica,sans-Serif" font-size="11.00">name_de</text>
<polygon fill="none" stroke="black" points="707,-852 707,-874 1090,-874 1090,-852 707,-852"/>
<text text-anchor="start" x="710" y="-860.2" font-family="Helvetica,sans-Serif" font-size="11.00">varchar[150]</text>
<polygon fill="none" stroke="black" points="454,-830 454,-852 707,-852 707,-830 454,-830"/>
<text text-anchor="start" x="474" y="-838.2" font-family="Helvetica,sans-Serif" font-size="11.00">name_en</text>
<polygon fill="none" stroke="black" points="707,-830 707,-852 1090,-852 1090,-830 707,-830"/>
<text text-anchor="start" x="710" y="-838.2" font-family="Helvetica,sans-Serif" font-size="11.00">varchar[150]</text>
<polygon fill="none" stroke="black" points="454,-808 454,-830 707,-830 707,-808 454,-808"/>
<text text-anchor="start" x="474" y="-816.2" font-family="Helvetica,sans-Serif" font-size="11.00">interval</text>
<polygon fill="none" stroke="black" points="707,-808 707,-830 1090,-830 1090,-808 707,-808"/>
<text text-anchor="start" x="710" y="-816.2" font-family="Helvetica,sans-Serif" font-size="11.00">&quot;private_ci2027_001&quot;.&quot;_enum_interval_name&quot;[2147483647]</text>
<polygon fill="none" stroke="black" points="454,-786 454,-808 707,-808 707,-786 454,-786"/>
<text text-anchor="start" x="474" y="-794.2" font-family="Helvetica,sans-Serif" font-size="11.00">sort</text>
<polygon fill="none" stroke="black" points="707,-786 707,-808 1090,-808 1090,-786 707,-786"/>
<text text-anchor="start" x="710" y="-794.2" font-family="Helvetica,sans-Serif" font-size="11.00">int4[10]</text>
<polygon fill="#ffffff" stroke="transparent" points="454,-764 454,-786 707,-786 707,-764 454,-764"/>
<polygon fill="none" stroke="black" points="454,-764 454,-786 707,-786 707,-764 454,-764"/>
<text text-anchor="start" x="474" y="-772.2" font-family="Helvetica,sans-Serif" font-size="11.00">abbreviation</text>
<polygon fill="none" stroke="black" points="707,-764 707,-786 1090,-786 1090,-764 707,-764"/>
<text text-anchor="start" x="710" y="-772.2" font-family="Helvetica,sans-Serif" font-size="11.00">&quot;private_ci2027_001&quot;.&quot;enum_trees_less_4meter_layer&quot;[2147483647]</text>
<polygon fill="#ffffff" stroke="transparent" points="454,-746 454,-764 1090,-764 1090,-746 454,-746"/>
<polygon fill="none" stroke="black" points="454,-746 454,-764 1090,-764 1090,-746 454,-746"/>
<polygon fill="#ffffff" stroke="transparent" points="455,-747 455,-763 661,-763 661,-747 455,-747"/>
<text text-anchor="start" x="457" y="-752.2" font-family="Helvetica,sans-Serif" font-size="11.00">&lt; 0</text>
<polygon fill="#ffffff" stroke="transparent" points="661,-747 661,-763 884,-763 884,-747 661,-747"/>
<text text-anchor="start" x="754" y="-752.2" font-family="Helvetica,sans-Serif" font-size="11.00">0 rows</text>
<polygon fill="#ffffff" stroke="transparent" points="884,-747 884,-763 1089,-763 1089,-747 884,-747"/>
<text text-anchor="start" x="1067" y="-752.2" font-family="Helvetica,sans-Serif" font-size="11.00">0 &gt;</text>
<polygon fill="black" stroke="black" points="661,-747 661,-763 661,-763 661,-747 661,-747"/>
<polygon fill="black" stroke="black" points="884,-747 884,-763 884,-763 884,-747 884,-747"/>
<polygon fill="none" stroke="black" stroke-width="2" points="453,-745 453,-897 1091,-897 1091,-745 453,-745"/>
</a>
</g>
</g>
<!-- lookup_trees_less_4meter_origin -->
<g id="node9" class="node">
<title>lookup_trees_less_4meter_origin</title>
<g id="a_node9"><a xlink:href="../../tables/lookup_trees_less_4meter_origin.html" xlink:title="lookup_trees_less_4meter_origin" target="_top">
<polygon fill="#ffffff" stroke="transparent" points="600,-300 600,-454 1248,-454 1248,-300 600,-300"/>
<polygon fill="#f5f5f5" stroke="transparent" points="602,-430 602,-452 1246,-452 1246,-430 602,-430"/>
<polygon fill="none" stroke="black" points="602,-430 602,-452 1246,-452 1246,-430 602,-430"/>
<text text-anchor="start" x="607" y="-439.2" font-family="Helvetica,sans-Serif" font-weight="bold" font-size="11.00">lookup_trees_less_4meter_origin</text>
<text text-anchor="start" x="1204" y="-438.2" font-family="Helvetica,sans-Serif" font-size="11.00">[table]</text>
<polygon fill="none" stroke="black" points="602,-408 602,-430 860,-430 860,-408 602,-408"/>
<text text-anchor="start" x="622" y="-416.2" font-family="Helvetica,sans-Serif" font-size="11.00">name_de</text>
<polygon fill="none" stroke="black" points="860,-408 860,-430 1246,-430 1246,-408 860,-408"/>
<text text-anchor="start" x="863" y="-416.2" font-family="Helvetica,sans-Serif" font-size="11.00">varchar[150]</text>
<polygon fill="none" stroke="black" points="602,-386 602,-408 860,-408 860,-386 602,-386"/>
<text text-anchor="start" x="622" y="-394.2" font-family="Helvetica,sans-Serif" font-size="11.00">name_en</text>
<polygon fill="none" stroke="black" points="860,-386 860,-408 1246,-408 1246,-386 860,-386"/>
<text text-anchor="start" x="863" y="-394.2" font-family="Helvetica,sans-Serif" font-size="11.00">varchar[150]</text>
<polygon fill="none" stroke="black" points="602,-364 602,-386 860,-386 860,-364 602,-364"/>
<text text-anchor="start" x="622" y="-372.2" font-family="Helvetica,sans-Serif" font-size="11.00">interval</text>
<polygon fill="none" stroke="black" points="860,-364 860,-386 1246,-386 1246,-364 860,-364"/>
<text text-anchor="start" x="863" y="-372.2" font-family="Helvetica,sans-Serif" font-size="11.00">&quot;private_ci2027_001&quot;.&quot;_enum_interval_name&quot;[2147483647]</text>
<polygon fill="none" stroke="black" points="602,-342 602,-364 860,-364 860,-342 602,-342"/>
<text text-anchor="start" x="622" y="-350.2" font-family="Helvetica,sans-Serif" font-size="11.00">sort</text>
<polygon fill="none" stroke="black" points="860,-342 860,-364 1246,-364 1246,-342 860,-342"/>
<text text-anchor="start" x="863" y="-350.2" font-family="Helvetica,sans-Serif" font-size="11.00">int4[10]</text>
<polygon fill="#ffffff" stroke="transparent" points="602,-320 602,-342 860,-342 860,-320 602,-320"/>
<polygon fill="none" stroke="black" points="602,-320 602,-342 860,-342 860,-320 602,-320"/>
<text text-anchor="start" x="622" y="-328.2" font-family="Helvetica,sans-Serif" font-size="11.00">abbreviation</text>
<polygon fill="none" stroke="black" points="860,-320 860,-342 1246,-342 1246,-320 860,-320"/>
<text text-anchor="start" x="863" y="-328.2" font-family="Helvetica,sans-Serif" font-size="11.00">&quot;private_ci2027_001&quot;.&quot;enum_trees_less_4meter_origin&quot;[2147483647]</text>
<polygon fill="#ffffff" stroke="transparent" points="602,-302 602,-320 1246,-320 1246,-302 602,-302"/>
<polygon fill="none" stroke="black" points="602,-302 602,-320 1246,-320 1246,-302 602,-302"/>
<polygon fill="#ffffff" stroke="transparent" points="603,-303 603,-319 812,-319 812,-303 603,-303"/>
<text text-anchor="start" x="605" y="-308.2" font-family="Helvetica,sans-Serif" font-size="11.00">&lt; 0</text>
<polygon fill="#ffffff" stroke="transparent" points="812,-303 812,-319 1037,-319 1037,-303 812,-303"/>
<text text-anchor="start" x="906" y="-308.2" font-family="Helvetica,sans-Serif" font-size="11.00">0 rows</text>
<polygon fill="#ffffff" stroke="transparent" points="1037,-303 1037,-319 1245,-319 1245,-303 1037,-303"/>
<text text-anchor="start" x="1223" y="-308.2" font-family="Helvetica,sans-Serif" font-size="11.00">0 &gt;</text>
<polygon fill="black" stroke="black" points="812,-303 812,-319 812,-319 812,-303 812,-303"/>
<polygon fill="black" stroke="black" points="1037,-303 1037,-319 1037,-319 1037,-303 1037,-303"/>
<polygon fill="none" stroke="black" stroke-width="2" points="601,-301 601,-453 1247,-453 1247,-301 601,-301"/>
</a>
</g>
</g>
<!-- lookup_use_restriction -->
<g id="node10" class="node">
<title>lookup_use_restriction</title>
<g id="a_node10"><a xlink:href="../../tables/lookup_use_restriction.html" xlink:title="lookup_use_restriction" target="_top">
<polygon fill="#ffffff" stroke="transparent" points="8,-4 8,-158 530,-158 530,-4 8,-4"/>
<polygon fill="#f5f5f5" stroke="transparent" points="10,-134 10,-156 528,-156 528,-134 10,-134"/>
<polygon fill="none" stroke="black" points="10,-134 10,-156 528,-156 528,-134 10,-134"/>
<text text-anchor="start" x="15" y="-143.2" font-family="Helvetica,sans-Serif" font-weight="bold" font-size="11.00">lookup_use_restriction</text>
<text text-anchor="start" x="486" y="-142.2" font-family="Helvetica,sans-Serif" font-size="11.00">[table]</text>
<polygon fill="none" stroke="black" points="10,-112 10,-134 195,-134 195,-112 10,-112"/>
<text text-anchor="start" x="30" y="-120.2" font-family="Helvetica,sans-Serif" font-size="11.00">name_de</text>
<polygon fill="none" stroke="black" points="195,-112 195,-134 528,-134 528,-112 195,-112"/>
<text text-anchor="start" x="198" y="-120.2" font-family="Helvetica,sans-Serif" font-size="11.00">varchar[150]</text>
<polygon fill="none" stroke="black" points="10,-90 10,-112 195,-112 195,-90 10,-90"/>
<text text-anchor="start" x="30" y="-98.2" font-family="Helvetica,sans-Serif" font-size="11.00">name_en</text>
<polygon fill="none" stroke="black" points="195,-90 195,-112 528,-112 528,-90 195,-90"/>
<text text-anchor="start" x="198" y="-98.2" font-family="Helvetica,sans-Serif" font-size="11.00">varchar[150]</text>
<polygon fill="none" stroke="black" points="10,-68 10,-90 195,-90 195,-68 10,-68"/>
<text text-anchor="start" x="30" y="-76.2" font-family="Helvetica,sans-Serif" font-size="11.00">interval</text>
<polygon fill="none" stroke="black" points="195,-68 195,-90 528,-90 528,-68 195,-68"/>
<text text-anchor="start" x="198" y="-76.2" font-family="Helvetica,sans-Serif" font-size="11.00">&quot;private_ci2027_001&quot;.&quot;_enum_interval_name&quot;[2147483647]</text>
<polygon fill="none" stroke="black" points="10,-46 10,-68 195,-68 195,-46 10,-46"/>
<text text-anchor="start" x="30" y="-54.2" font-family="Helvetica,sans-Serif" font-size="11.00">sort</text>
<polygon fill="none" stroke="black" points="195,-46 195,-68 528,-68 528,-46 195,-46"/>
<text text-anchor="start" x="198" y="-54.2" font-family="Helvetica,sans-Serif" font-size="11.00">int4[10]</text>
<polygon fill="#ffffff" stroke="transparent" points="10,-24 10,-46 195,-46 195,-24 10,-24"/>
<polygon fill="none" stroke="black" points="10,-24 10,-46 195,-46 195,-24 10,-24"/>
<text text-anchor="start" x="30" y="-32.2" font-family="Helvetica,sans-Serif" font-size="11.00">abbreviation</text>
<polygon fill="none" stroke="black" points="195,-24 195,-46 528,-46 528,-24 195,-24"/>
<text text-anchor="start" x="198" y="-32.2" font-family="Helvetica,sans-Serif" font-size="11.00">&quot;private_ci2027_001&quot;.&quot;enum_use_restriction&quot;[2147483647]</text>
<polygon fill="#ffffff" stroke="transparent" points="10,-6 10,-24 528,-24 528,-6 10,-6"/>
<polygon fill="none" stroke="black" points="10,-6 10,-24 528,-24 528,-6 10,-6"/>
<polygon fill="#ffffff" stroke="transparent" points="11,-7 11,-23 178,-23 178,-7 11,-7"/>
<text text-anchor="start" x="13" y="-12.2" font-family="Helvetica,sans-Serif" font-size="11.00">&lt; 0</text>
<polygon fill="#ffffff" stroke="transparent" points="178,-7 178,-23 361,-23 361,-7 178,-7"/>
<text text-anchor="start" x="251" y="-12.2" font-family="Helvetica,sans-Serif" font-size="11.00">0 rows</text>
<polygon fill="#ffffff" stroke="transparent" points="361,-7 361,-23 527,-23 527,-7 361,-7"/>
<text text-anchor="start" x="505" y="-12.2" font-family="Helvetica,sans-Serif" font-size="11.00">0 &gt;</text>
<polygon fill="black" stroke="black" points="178,-7 178,-23 178,-23 178,-7 178,-7"/>
<polygon fill="black" stroke="black" points="361,-7 361,-23 361,-23 361,-7 361,-7"/>
<polygon fill="none" stroke="black" stroke-width="2" points="9,-5 9,-157 529,-157 529,-5 9,-5"/>
</a>
</g>
</g>
</g>
</svg>
