<?xml version="1.0" encoding="UTF-8" standalone="no"?>
<!DOCTYPE svg PUBLIC "-//W3C//DTD SVG 1.1//EN"
 "http://www.w3.org/Graphics/SVG/1.1/DTD/svg11.dtd">
<!-- Generated by graphviz version 2.43.0 (0)
 -->
<!-- Title: oneDegreeRelationshipsDiagram Pages: 1 -->
<svg width="1097pt" height="679pt"
 viewBox="0.00 0.00 1097.00 679.00" xmlns="http://www.w3.org/2000/svg" xmlns:xlink="http://www.w3.org/1999/xlink">
<g id="graph0" class="graph" transform="scale(1 1) rotate(0) translate(4 675)">
<title>oneDegreeRelationshipsDiagram</title>
<polygon fill="#ffffff" stroke="transparent" points="-4,4 -4,-675 1093,-675 1093,4 -4,4"/>
<text text-anchor="middle" x="79.5" y="-7.2" font-family="Helvetica,sans-Serif" font-size="11.00">Generated by SchemaSpy</text>
<!-- cluster -->
<g id="node1" class="node">
<title>cluster</title>
<g id="a_node1"><a xlink:href="../../tables/cluster.html" xlink:title="cluster" target="_top">
<polygon fill="#ffffff" stroke="transparent" points="226,-295 226,-647 781,-647 781,-295 226,-295"/>
<polygon fill="#f5f5f5" stroke="transparent" points="228.5,-623 228.5,-645 779.5,-645 779.5,-623 228.5,-623"/>
<polygon fill="none" stroke="black" points="228.5,-623 228.5,-645 779.5,-645 779.5,-623 228.5,-623"/>
<text text-anchor="start" x="233.5" y="-632.2" font-family="Helvetica,sans-Serif" font-weight="bold" font-size="11.00">cluster</text>
<text text-anchor="start" x="737.5" y="-631.2" font-family="Helvetica,sans-Serif" font-size="11.00">[table]</text>
<polygon fill="none" stroke="black" points="228.5,-601 228.5,-623 438.5,-623 438.5,-601 228.5,-601"/>
<image xlink:href="../../images/primaryKeys.png" width="11px" height="12px" preserveAspectRatio="xMinYMin meet" x="233.5" y="-618"/>
<text text-anchor="start" x="248.5" y="-609.2" font-family="Helvetica,sans-Serif" font-size="11.00">id</text>
<polygon fill="none" stroke="black" points="438.5,-601 438.5,-623 779.5,-623 779.5,-601 438.5,-601"/>
<text text-anchor="start" x="441.5" y="-609.2" font-family="Helvetica,sans-Serif" font-size="11.00">serial[10]</text>
<polygon fill="none" stroke="black" points="228.5,-579 228.5,-601 438.5,-601 438.5,-579 228.5,-579"/>
<text text-anchor="start" x="248.5" y="-587.2" font-family="Helvetica,sans-Serif" font-size="11.00">created_at</text>
<polygon fill="none" stroke="black" points="438.5,-579 438.5,-601 779.5,-601 779.5,-579 438.5,-579"/>
<text text-anchor="start" x="441.5" y="-587.2" font-family="Helvetica,sans-Serif" font-size="11.00">timestamp[29,6]</text>
<polygon fill="none" stroke="black" points="228.5,-557 228.5,-579 438.5,-579 438.5,-557 228.5,-557"/>
<text text-anchor="start" x="248.5" y="-565.2" font-family="Helvetica,sans-Serif" font-size="11.00">modified_at</text>
<polygon fill="none" stroke="black" points="438.5,-557 438.5,-579 779.5,-579 779.5,-557 438.5,-557"/>
<text text-anchor="start" x="441.5" y="-565.2" font-family="Helvetica,sans-Serif" font-size="11.00">timestamp[29,6]</text>
<polygon fill="none" stroke="black" points="228.5,-535 228.5,-557 438.5,-557 438.5,-535 228.5,-535"/>
<text text-anchor="start" x="248.5" y="-543.2" font-family="Helvetica,sans-Serif" font-size="11.00">modified_by</text>
<polygon fill="none" stroke="black" points="438.5,-535 438.5,-557 779.5,-557 779.5,-535 438.5,-535"/>
<text text-anchor="start" x="441.5" y="-543.2" font-family="Helvetica,sans-Serif" font-size="11.00">regrole[2147483647]</text>
<polygon fill="#ffffff" stroke="transparent" points="228.5,-513 228.5,-535 438.5,-535 438.5,-513 228.5,-513"/>
<polygon fill="none" stroke="black" points="228.5,-513 228.5,-535 438.5,-535 438.5,-513 228.5,-513"/>
<text text-anchor="start" x="248.5" y="-521.2" font-family="Helvetica,sans-Serif" font-size="11.00">cluster_name</text>
<polygon fill="none" stroke="black" points="438.5,-513 438.5,-535 779.5,-535 779.5,-513 438.5,-513"/>
<text text-anchor="start" x="441.5" y="-521.2" font-family="Helvetica,sans-Serif" font-size="11.00">int4[10]</text>
<polygon fill="none" stroke="black" points="228.5,-491 228.5,-513 438.5,-513 438.5,-491 228.5,-491"/>
<text text-anchor="start" x="248.5" y="-499.2" font-family="Helvetica,sans-Serif" font-size="11.00">select_access_by</text>
<polygon fill="none" stroke="black" points="438.5,-491 438.5,-513 779.5,-513 779.5,-491 438.5,-491"/>
<text text-anchor="start" x="441.5" y="-499.2" font-family="Helvetica,sans-Serif" font-size="11.00">_text[2147483647]</text>
<polygon fill="none" stroke="black" points="228.5,-469 228.5,-491 438.5,-491 438.5,-469 228.5,-469"/>
<image xlink:href="../../images/foreignKeys.png" width="11px" height="12px" preserveAspectRatio="xMinYMin meet" x="233.5" y="-486"/>
<text text-anchor="start" x="248.5" y="-477.2" font-family="Helvetica,sans-Serif" font-size="11.00">supervisor_id</text>
<polygon fill="none" stroke="black" points="438.5,-469 438.5,-491 779.5,-491 779.5,-469 438.5,-469"/>
<text text-anchor="start" x="441.5" y="-477.2" font-family="Helvetica,sans-Serif" font-size="11.00">int4[10]</text>
<polygon fill="none" stroke="black" points="228.5,-447 228.5,-469 438.5,-469 438.5,-447 228.5,-447"/>
<text text-anchor="start" x="248.5" y="-455.2" font-family="Helvetica,sans-Serif" font-size="11.00">topographic_map_number</text>
<polygon fill="none" stroke="black" points="438.5,-447 438.5,-469 779.5,-469 779.5,-447 438.5,-447"/>
<text text-anchor="start" x="441.5" y="-455.2" font-family="Helvetica,sans-Serif" font-size="11.00">&quot;private_ci2027_001&quot;.&quot;ck_topographicmapnumber&quot;[10]</text>
<polygon fill="none" stroke="black" points="228.5,-425 228.5,-447 438.5,-447 438.5,-425 228.5,-425"/>
<image xlink:href="../../images/foreignKeys.png" width="11px" height="12px" preserveAspectRatio="xMinYMin meet" x="233.5" y="-442"/>
<text text-anchor="start" x="248.5" y="-433.2" font-family="Helvetica,sans-Serif" font-size="11.00">state_administration</text>
<polygon fill="none" stroke="black" points="438.5,-425 438.5,-447 779.5,-447 779.5,-425 438.5,-425"/>
<text text-anchor="start" x="441.5" y="-433.2" font-family="Helvetica,sans-Serif" font-size="11.00">&quot;private_ci2027_001&quot;.&quot;enum_state&quot;[2147483647]</text>
<polygon fill="none" stroke="black" points="228.5,-403 228.5,-425 438.5,-425 438.5,-403 228.5,-403"/>
<image xlink:href="../../images/foreignKeys.png" width="11px" height="12px" preserveAspectRatio="xMinYMin meet" x="233.5" y="-420"/>
<text text-anchor="start" x="248.5" y="-411.2" font-family="Helvetica,sans-Serif" font-size="11.00">state_location</text>
<polygon fill="none" stroke="black" points="438.5,-403 438.5,-425 779.5,-425 779.5,-403 438.5,-403"/>
<text text-anchor="start" x="441.5" y="-411.2" font-family="Helvetica,sans-Serif" font-size="11.00">&quot;private_ci2027_001&quot;.&quot;enum_state&quot;[2147483647]</text>
<polygon fill="none" stroke="black" points="228.5,-381 228.5,-403 438.5,-403 438.5,-381 228.5,-381"/>
<text text-anchor="start" x="248.5" y="-389.2" font-family="Helvetica,sans-Serif" font-size="11.00">states</text>
<polygon fill="none" stroke="black" points="438.5,-381 438.5,-403 779.5,-403 779.5,-381 438.5,-381"/>
<text text-anchor="start" x="441.5" y="-389.2" font-family="Helvetica,sans-Serif" font-size="11.00">&quot;private_ci2027_001&quot;.&quot;_enum_state&quot;[2147483647]</text>
<polygon fill="none" stroke="black" points="228.5,-359 228.5,-381 438.5,-381 438.5,-359 228.5,-359"/>
<text text-anchor="start" x="248.5" y="-367.2" font-family="Helvetica,sans-Serif" font-size="11.00">sampling_strata</text>
<polygon fill="none" stroke="black" points="438.5,-359 438.5,-381 779.5,-381 779.5,-359 438.5,-359"/>
<text text-anchor="start" x="441.5" y="-367.2" font-family="Helvetica,sans-Serif" font-size="11.00">&quot;private_ci2027_001&quot;.&quot;enum_sampling_strata&quot;[2147483647]</text>
<polygon fill="none" stroke="black" points="228.5,-337 228.5,-359 438.5,-359 438.5,-337 228.5,-337"/>
<text text-anchor="start" x="248.5" y="-345.2" font-family="Helvetica,sans-Serif" font-size="11.00">cluster_identifier</text>
<polygon fill="none" stroke="black" points="438.5,-337 438.5,-359 779.5,-359 779.5,-337 438.5,-337"/>
<text text-anchor="start" x="441.5" y="-345.2" font-family="Helvetica,sans-Serif" font-size="11.00">&quot;private_ci2027_001&quot;.&quot;enum_cluster_identifier&quot;[2147483647]</text>
<polygon fill="none" stroke="black" points="228.5,-315 228.5,-337 438.5,-337 438.5,-315 228.5,-315"/>
<text text-anchor="start" x="248.5" y="-323.2" font-family="Helvetica,sans-Serif" font-size="11.00">is_locked</text>
<polygon fill="none" stroke="black" points="438.5,-315 438.5,-337 779.5,-337 779.5,-315 438.5,-315"/>
<text text-anchor="start" x="441.5" y="-323.2" font-family="Helvetica,sans-Serif" font-size="11.00">bool[1]</text>
<polygon fill="#ffffff" stroke="transparent" points="228.5,-297 228.5,-315 779.5,-315 779.5,-297 228.5,-297"/>
<polygon fill="none" stroke="black" points="228.5,-297 228.5,-315 779.5,-315 779.5,-297 228.5,-297"/>
<polygon fill="#ffffff" stroke="transparent" points="229.5,-298 229.5,-314 407.5,-314 407.5,-298 229.5,-298"/>
<text text-anchor="start" x="231.5" y="-303.2" font-family="Helvetica,sans-Serif" font-size="11.00">&lt; 3</text>
<polygon fill="#ffffff" stroke="transparent" points="407.5,-298 407.5,-314 601.5,-314 601.5,-298 407.5,-298"/>
<text text-anchor="start" x="486" y="-303.2" font-family="Helvetica,sans-Serif" font-size="11.00">0 rows</text>
<polygon fill="#ffffff" stroke="transparent" points="601.5,-298 601.5,-314 778.5,-314 778.5,-298 601.5,-298"/>
<text text-anchor="start" x="756.5" y="-303.2" font-family="Helvetica,sans-Serif" font-size="11.00">1 &gt;</text>
<polygon fill="black" stroke="black" points="407.5,-298 407.5,-314 407.5,-314 407.5,-298 407.5,-298"/>
<polygon fill="black" stroke="black" points="601.5,-298 601.5,-314 601.5,-314 601.5,-298 601.5,-298"/>
<polygon fill="none" stroke="black" stroke-width="2" points="227,-296 227,-646 780,-646 780,-296 227,-296"/>
</a>
</g>
</g>
<!-- lookup_state -->
<g id="node2" class="node">
<title>lookup_state</title>
<g id="a_node2"><a xlink:href="../../tables/lookup_state.html" xlink:title="lookup_state" target="_top">
<polygon fill="#ffffff" stroke="transparent" points="22.5,-367 22.5,-447 162.5,-447 162.5,-367 22.5,-367"/>
<polygon fill="#f5f5f5" stroke="transparent" points="22.5,-425 22.5,-447 162.5,-447 162.5,-425 22.5,-425"/>
<polygon fill="none" stroke="black" points="22.5,-425 22.5,-447 162.5,-447 162.5,-425 22.5,-425"/>
<text text-anchor="start" x="27.5" y="-434.2" font-family="Helvetica,sans-Serif" font-weight="bold" font-size="11.00">lookup_state</text>
<text text-anchor="start" x="120.5" y="-433.2" font-family="Helvetica,sans-Serif" font-size="11.00">[table]</text>
<polygon fill="#ffffff" stroke="transparent" points="22.5,-403 22.5,-425 162.5,-425 162.5,-403 22.5,-403"/>
<polygon fill="none" stroke="black" points="22.5,-403 22.5,-425 162.5,-425 162.5,-403 22.5,-403"/>
<text text-anchor="start" x="55.5" y="-411.2" font-family="Helvetica,sans-Serif" font-size="11.00">abbreviation</text>
<polygon fill="none" stroke="black" points="22.5,-385 22.5,-403 162.5,-403 162.5,-385 22.5,-385"/>
<text text-anchor="start" x="25.5" y="-391.2" font-family="Helvetica,sans-Serif" font-size="11.00">...</text>
<polygon fill="#ffffff" stroke="transparent" points="22.5,-367 22.5,-385 162.5,-385 162.5,-367 22.5,-367"/>
<polygon fill="none" stroke="black" points="22.5,-367 22.5,-385 162.5,-385 162.5,-367 22.5,-367"/>
<polygon fill="#ffffff" stroke="transparent" points="23.5,-368 23.5,-384 56.5,-384 56.5,-368 23.5,-368"/>
<text text-anchor="start" x="25.5" y="-373.2" font-family="Helvetica,sans-Serif" font-size="11.00"> &#160;</text>
<polygon fill="#ffffff" stroke="transparent" points="56.5,-368 56.5,-384 117.5,-384 117.5,-368 56.5,-368"/>
<text text-anchor="start" x="68.5" y="-373.2" font-family="Helvetica,sans-Serif" font-size="11.00">0 rows</text>
<polygon fill="#ffffff" stroke="transparent" points="117.5,-368 117.5,-384 161.5,-384 161.5,-368 117.5,-368"/>
<text text-anchor="start" x="139.5" y="-373.2" font-family="Helvetica,sans-Serif" font-size="11.00">2 &gt;</text>
<polygon fill="black" stroke="black" points="56.5,-368 56.5,-384 56.5,-384 56.5,-368 56.5,-368"/>
<polygon fill="black" stroke="black" points="117.5,-368 117.5,-384 117.5,-384 117.5,-368 117.5,-368"/>
</a>
</g>
</g>
<!-- cluster&#45;&gt;lookup_state -->
<g id="edge1" class="edge">
<title>cluster:w&#45;&gt;lookup_state:e</title>
<path fill="none" stroke="black" d="M213,-433.97C195.06,-428.52 187.94,-414 163.5,-414"/>
<polygon fill="black" stroke="black" points="219.58,-434.89 227,-439.57 223.54,-435.45 227.5,-436 227.5,-436 227.5,-436 223.54,-435.45 228,-432.43 219.58,-434.89 219.58,-434.89"/>
<ellipse fill="none" stroke="black" cx="216.41" cy="-434.45" rx="3.2" ry="3.2"/>
</g>
<!-- cluster&#45;&gt;lookup_state -->
<g id="edge2" class="edge">
<title>cluster:w&#45;&gt;lookup_state:e</title>
<path fill="none" stroke="black" d="M212.96,-414C195.46,-414 186.39,-414 163.5,-414"/>
<polygon fill="black" stroke="black" points="219.5,-414 227.5,-417.6 223.5,-414 227.5,-414 227.5,-414 227.5,-414 223.5,-414 227.5,-410.4 219.5,-414 219.5,-414"/>
<ellipse fill="none" stroke="black" cx="216.3" cy="-414" rx="3.2" ry="3.2"/>
</g>
<!-- basic_auth.users -->
<g id="node3" class="node">
<title>basic_auth.users</title>
<g id="a_node3"><a xlink:title="basic_auth.users">
<polygon fill="#ffffff" stroke="transparent" points="8,-468 8,-526 177,-526 177,-468 8,-468"/>
<polygon fill="#f5f5f5" stroke="transparent" points="8.5,-504 8.5,-526 177.5,-526 177.5,-504 8.5,-504"/>
<polygon fill="none" stroke="black" points="8.5,-504 8.5,-526 177.5,-526 177.5,-504 8.5,-504"/>
<text text-anchor="start" x="13.5" y="-513.2" font-family="Helvetica,sans-Serif" font-weight="bold" font-size="11.00">basic_auth.users</text>
<text text-anchor="start" x="135.5" y="-512.2" font-family="Helvetica,sans-Serif" font-size="11.00">[table]</text>
<polygon fill="none" stroke="black" points="8.5,-486 8.5,-504 177.5,-504 177.5,-486 8.5,-486"/>
<text text-anchor="start" x="11.5" y="-492.2" font-family="Helvetica,sans-Serif" font-size="11.00">...</text>
<polygon fill="#ffffff" stroke="transparent" points="8.5,-468 8.5,-486 177.5,-486 177.5,-468 8.5,-468"/>
<polygon fill="none" stroke="black" points="8.5,-468 8.5,-486 177.5,-486 177.5,-468 8.5,-468"/>
<polygon fill="#ffffff" stroke="transparent" points="9.5,-469 9.5,-485 51.5,-485 51.5,-469 9.5,-469"/>
<text text-anchor="start" x="11.5" y="-474.2" font-family="Helvetica,sans-Serif" font-size="11.00"> &#160;</text>
<polygon fill="#ffffff" stroke="transparent" points="51.5,-469 51.5,-485 122.5,-485 122.5,-469 51.5,-469"/>
<text text-anchor="start" x="68.5" y="-474.2" font-family="Helvetica,sans-Serif" font-size="11.00">0 rows</text>
<polygon fill="#ffffff" stroke="transparent" points="122.5,-469 122.5,-485 176.5,-485 176.5,-469 122.5,-469"/>
<text text-anchor="start" x="154.5" y="-474.2" font-family="Helvetica,sans-Serif" font-size="11.00">1 &gt;</text>
<polygon fill="black" stroke="black" points="51.5,-469 51.5,-485 51.5,-485 51.5,-469 51.5,-469"/>
<polygon fill="black" stroke="black" points="122.5,-469 122.5,-485 122.5,-485 122.5,-469 122.5,-469"/>
</a>
</g>
</g>
<!-- cluster&#45;&gt;basic_auth.users -->
<g id="edge3" class="edge">
<title>cluster:w&#45;&gt;basic_auth.users:e</title>
<path fill="none" stroke="black" d="M212.81,-480.31C203.66,-480.68 194.37,-481.37 185.21,-482.26"/>
<polygon fill="black" stroke="black" points="219.5,-480.17 227.58,-483.6 223.5,-480.08 227.5,-480 227.5,-480 227.5,-480 223.5,-480.08 227.42,-476.4 219.5,-480.17 219.5,-480.17"/>
<ellipse fill="none" stroke="black" cx="216.3" cy="-480.24" rx="3.2" ry="3.2"/>
</g>
<!-- plot -->
<g id="node4" class="node">
<title>plot</title>
<g id="a_node4"><a xlink:href="../../tables/plot.html" xlink:title="plot" target="_top">
<polygon fill="#ffffff" stroke="transparent" points="830,-37 830,-667 1081,-667 1081,-37 830,-37"/>
<polygon fill="#f5f5f5" stroke="transparent" points="830.5,-645 830.5,-667 1081.5,-667 1081.5,-645 830.5,-645"/>
<polygon fill="none" stroke="black" points="830.5,-645 830.5,-667 1081.5,-667 1081.5,-645 830.5,-645"/>
<text text-anchor="start" x="835" y="-654.2" font-family="Helvetica,sans-Serif" font-weight="bold" font-size="11.00">plot</text>
<text text-anchor="start" x="1039.5" y="-653.2" font-family="Helvetica,sans-Serif" font-size="11.00">[table]</text>
<polygon fill="none" stroke="black" points="830.5,-623 830.5,-645 1081.5,-645 1081.5,-623 830.5,-623"/>
<image xlink:href="../../images/primaryKeys.png" width="11px" height="12px" preserveAspectRatio="xMinYMin meet" x="835.5" y="-640"/>
<text text-anchor="start" x="850.5" y="-631.2" font-family="Helvetica,sans-Serif" font-size="11.00">id</text>
<polygon fill="#ffffff" stroke="transparent" points="830.5,-601 830.5,-623 1081.5,-623 1081.5,-601 830.5,-601"/>
<polygon fill="none" stroke="black" points="830.5,-601 830.5,-623 1081.5,-623 1081.5,-601 830.5,-601"/>
<image xlink:href="../../images/foreignKeys.png" width="11px" height="12px" preserveAspectRatio="xMinYMin meet" x="835.5" y="-618"/>
<text text-anchor="start" x="850.5" y="-609.2" font-family="Helvetica,sans-Serif" font-size="11.00">cluster_id</text>
<polygon fill="#ffffff" stroke="transparent" points="830.5,-579 830.5,-601 1081.5,-601 1081.5,-579 830.5,-579"/>
<polygon fill="none" stroke="black" points="830.5,-579 830.5,-601 1081.5,-601 1081.5,-579 830.5,-579"/>
<text text-anchor="start" x="850.5" y="-587.2" font-family="Helvetica,sans-Serif" font-size="11.00">plot_name</text>
<polygon fill="none" stroke="black" points="830.5,-557 830.5,-579 1081.5,-579 1081.5,-557 830.5,-557"/>
<image xlink:href="../../images/foreignKeys.png" width="11px" height="12px" preserveAspectRatio="xMinYMin meet" x="835.5" y="-574"/>
<text text-anchor="start" x="850.5" y="-565.2" font-family="Helvetica,sans-Serif" font-size="11.00">sampling_strata</text>
<polygon fill="none" stroke="black" points="830.5,-535 830.5,-557 1081.5,-557 1081.5,-535 830.5,-535"/>
<image xlink:href="../../images/foreignKeys.png" width="11px" height="12px" preserveAspectRatio="xMinYMin meet" x="835.5" y="-552"/>
<text text-anchor="start" x="850.5" y="-543.2" font-family="Helvetica,sans-Serif" font-size="11.00">growth_district</text>
<polygon fill="none" stroke="black" points="830.5,-513 830.5,-535 1081.5,-535 1081.5,-513 830.5,-513"/>
<image xlink:href="../../images/foreignKeys.png" width="11px" height="12px" preserveAspectRatio="xMinYMin meet" x="835.5" y="-530"/>
<text text-anchor="start" x="850.5" y="-521.2" font-family="Helvetica,sans-Serif" font-size="11.00">forest_decision</text>
<polygon fill="none" stroke="black" points="830.5,-491 830.5,-513 1081.5,-513 1081.5,-491 830.5,-491"/>
<image xlink:href="../../images/foreignKeys.png" width="11px" height="12px" preserveAspectRatio="xMinYMin meet" x="835.5" y="-508"/>
<text text-anchor="start" x="850.5" y="-499.2" font-family="Helvetica,sans-Serif" font-size="11.00">forestry_department</text>
<polygon fill="none" stroke="black" points="830.5,-469 830.5,-491 1081.5,-491 1081.5,-469 830.5,-469"/>
<image xlink:href="../../images/foreignKeys.png" width="11px" height="12px" preserveAspectRatio="xMinYMin meet" x="835.5" y="-486"/>
<text text-anchor="start" x="850.5" y="-477.2" font-family="Helvetica,sans-Serif" font-size="11.00">height_layer_class</text>
<polygon fill="none" stroke="black" points="830.5,-447 830.5,-469 1081.5,-469 1081.5,-447 830.5,-447"/>
<image xlink:href="../../images/foreignKeys.png" width="11px" height="12px" preserveAspectRatio="xMinYMin meet" x="835.5" y="-464"/>
<text text-anchor="start" x="850.5" y="-455.2" font-family="Helvetica,sans-Serif" font-size="11.00">property_type</text>
<polygon fill="none" stroke="black" points="830.5,-425 830.5,-447 1081.5,-447 1081.5,-425 830.5,-425"/>
<image xlink:href="../../images/foreignKeys.png" width="11px" height="12px" preserveAspectRatio="xMinYMin meet" x="835.5" y="-442"/>
<text text-anchor="start" x="850.5" y="-433.2" font-family="Helvetica,sans-Serif" font-size="11.00">property_size_class</text>
<polygon fill="none" stroke="black" points="830.5,-403 830.5,-425 1081.5,-425 1081.5,-403 830.5,-403"/>
<image xlink:href="../../images/foreignKeys.png" width="11px" height="12px" preserveAspectRatio="xMinYMin meet" x="835.5" y="-420"/>
<text text-anchor="start" x="850.5" y="-411.2" font-family="Helvetica,sans-Serif" font-size="11.00">forest_type</text>
<polygon fill="none" stroke="black" points="830.5,-381 830.5,-403 1081.5,-403 1081.5,-381 830.5,-381"/>
<image xlink:href="../../images/foreignKeys.png" width="11px" height="12px" preserveAspectRatio="xMinYMin meet" x="835.5" y="-398"/>
<text text-anchor="start" x="850.5" y="-389.2" font-family="Helvetica,sans-Serif" font-size="11.00">habitat_type</text>
<polygon fill="none" stroke="black" points="830.5,-359 830.5,-381 1081.5,-381 1081.5,-359 830.5,-359"/>
<image xlink:href="../../images/foreignKeys.png" width="11px" height="12px" preserveAspectRatio="xMinYMin meet" x="835.5" y="-376"/>
<text text-anchor="start" x="850.5" y="-367.2" font-family="Helvetica,sans-Serif" font-size="11.00">habitat_type_source</text>
<polygon fill="none" stroke="black" points="830.5,-337 830.5,-359 1081.5,-359 1081.5,-337 830.5,-337"/>
<image xlink:href="../../images/foreignKeys.png" width="11px" height="12px" preserveAspectRatio="xMinYMin meet" x="835.5" y="-354"/>
<text text-anchor="start" x="850.5" y="-345.2" font-family="Helvetica,sans-Serif" font-size="11.00">use_restriction</text>
<polygon fill="none" stroke="black" points="830.5,-315 830.5,-337 1081.5,-337 1081.5,-315 830.5,-315"/>
<image xlink:href="../../images/foreignKeys.png" width="11px" height="12px" preserveAspectRatio="xMinYMin meet" x="835.5" y="-332"/>
<text text-anchor="start" x="850.5" y="-323.2" font-family="Helvetica,sans-Serif" font-size="11.00">land_use</text>
<polygon fill="none" stroke="black" points="830.5,-293 830.5,-315 1081.5,-315 1081.5,-293 830.5,-293"/>
<image xlink:href="../../images/foreignKeys.png" width="11px" height="12px" preserveAspectRatio="xMinYMin meet" x="835.5" y="-310"/>
<text text-anchor="start" x="850.5" y="-301.2" font-family="Helvetica,sans-Serif" font-size="11.00">marking_state</text>
<polygon fill="none" stroke="black" points="830.5,-271 830.5,-293 1081.5,-293 1081.5,-271 830.5,-271"/>
<image xlink:href="../../images/foreignKeys.png" width="11px" height="12px" preserveAspectRatio="xMinYMin meet" x="835.5" y="-288"/>
<text text-anchor="start" x="850.5" y="-279.2" font-family="Helvetica,sans-Serif" font-size="11.00">marking_profile</text>
<polygon fill="none" stroke="black" points="830.5,-249 830.5,-271 1081.5,-271 1081.5,-249 830.5,-249"/>
<image xlink:href="../../images/foreignKeys.png" width="11px" height="12px" preserveAspectRatio="xMinYMin meet" x="835.5" y="-266"/>
<text text-anchor="start" x="850.5" y="-257.2" font-family="Helvetica,sans-Serif" font-size="11.00">terrain_form</text>
<polygon fill="none" stroke="black" points="830.5,-227 830.5,-249 1081.5,-249 1081.5,-227 830.5,-227"/>
<image xlink:href="../../images/foreignKeys.png" width="11px" height="12px" preserveAspectRatio="xMinYMin meet" x="835.5" y="-244"/>
<text text-anchor="start" x="850.5" y="-235.2" font-family="Helvetica,sans-Serif" font-size="11.00">management_type</text>
<polygon fill="none" stroke="black" points="830.5,-205 830.5,-227 1081.5,-227 1081.5,-205 830.5,-205"/>
<image xlink:href="../../images/foreignKeys.png" width="11px" height="12px" preserveAspectRatio="xMinYMin meet" x="835.5" y="-222"/>
<text text-anchor="start" x="850.5" y="-213.2" font-family="Helvetica,sans-Serif" font-size="11.00">harvesting_method</text>
<polygon fill="none" stroke="black" points="830.5,-183 830.5,-205 1081.5,-205 1081.5,-183 830.5,-183"/>
<image xlink:href="../../images/foreignKeys.png" width="11px" height="12px" preserveAspectRatio="xMinYMin meet" x="835.5" y="-200"/>
<text text-anchor="start" x="850.5" y="-191.2" font-family="Helvetica,sans-Serif" font-size="11.00">layer_type</text>
<polygon fill="none" stroke="black" points="830.5,-161 830.5,-183 1081.5,-183 1081.5,-161 830.5,-161"/>
<image xlink:href="../../images/foreignKeys.png" width="11px" height="12px" preserveAspectRatio="xMinYMin meet" x="835.5" y="-178"/>
<text text-anchor="start" x="850.5" y="-169.2" font-family="Helvetica,sans-Serif" font-size="11.00">stand_phase</text>
<polygon fill="none" stroke="black" points="830.5,-139 830.5,-161 1081.5,-161 1081.5,-139 830.5,-139"/>
<image xlink:href="../../images/foreignKeys.png" width="11px" height="12px" preserveAspectRatio="xMinYMin meet" x="835.5" y="-156"/>
<text text-anchor="start" x="850.5" y="-147.2" font-family="Helvetica,sans-Serif" font-size="11.00">sablings_layer</text>
<polygon fill="none" stroke="black" points="830.5,-117 830.5,-139 1081.5,-139 1081.5,-117 830.5,-117"/>
<image xlink:href="../../images/foreignKeys.png" width="11px" height="12px" preserveAspectRatio="xMinYMin meet" x="835.5" y="-134"/>
<text text-anchor="start" x="850.5" y="-125.2" font-family="Helvetica,sans-Serif" font-size="11.00">trees_less_4meter_mirrored</text>
<polygon fill="none" stroke="black" points="830.5,-95 830.5,-117 1081.5,-117 1081.5,-95 830.5,-95"/>
<image xlink:href="../../images/foreignKeys.png" width="11px" height="12px" preserveAspectRatio="xMinYMin meet" x="835.5" y="-112"/>
<text text-anchor="start" x="850.5" y="-103.2" font-family="Helvetica,sans-Serif" font-size="11.00">trees_less_4meter_count_factor</text>
<polygon fill="none" stroke="black" points="830.5,-73 830.5,-95 1081.5,-95 1081.5,-73 830.5,-73"/>
<image xlink:href="../../images/foreignKeys.png" width="11px" height="12px" preserveAspectRatio="xMinYMin meet" x="835.5" y="-90"/>
<text text-anchor="start" x="850.5" y="-81.2" font-family="Helvetica,sans-Serif" font-size="11.00">trees_less_4meter_layer</text>
<polygon fill="none" stroke="black" points="830.5,-55 830.5,-73 1081.5,-73 1081.5,-55 830.5,-55"/>
<text text-anchor="start" x="833.5" y="-61.2" font-family="Helvetica,sans-Serif" font-size="11.00">...</text>
<polygon fill="#ffffff" stroke="transparent" points="830.5,-37 830.5,-55 1081.5,-55 1081.5,-37 830.5,-37"/>
<polygon fill="none" stroke="black" points="830.5,-37 830.5,-55 1081.5,-55 1081.5,-37 830.5,-37"/>
<polygon fill="#ffffff" stroke="transparent" points="831.5,-38 831.5,-54 913.5,-54 913.5,-38 831.5,-38"/>
<text text-anchor="start" x="833.5" y="-43.2" font-family="Helvetica,sans-Serif" font-size="11.00">&lt; 24</text>
<polygon fill="#ffffff" stroke="transparent" points="913.5,-38 913.5,-54 1005.5,-54 1005.5,-38 913.5,-38"/>
<text text-anchor="start" x="941" y="-43.2" font-family="Helvetica,sans-Serif" font-size="11.00">0 rows</text>
<polygon fill="#ffffff" stroke="transparent" points="1005.5,-38 1005.5,-54 1080.5,-54 1080.5,-38 1005.5,-38"/>
<text text-anchor="start" x="1058.5" y="-43.2" font-family="Helvetica,sans-Serif" font-size="11.00">7 &gt;</text>
<polygon fill="black" stroke="black" points="913.5,-38 913.5,-54 913.5,-54 913.5,-38 913.5,-38"/>
<polygon fill="black" stroke="black" points="1005.5,-38 1005.5,-54 1005.5,-54 1005.5,-38 1005.5,-38"/>
</a>
</g>
</g>
<!-- plot&#45;&gt;cluster -->
<g id="edge4" class="edge">
<title>plot:w&#45;&gt;cluster:e</title>
<path fill="none" stroke="black" d="M814.99,-612C803.68,-612 796.49,-612 780.5,-612"/>
<polygon fill="black" stroke="black" points="821.5,-612 829.5,-615.6 825.5,-612 829.5,-612 829.5,-612 829.5,-612 825.5,-612 829.5,-608.4 821.5,-612 821.5,-612"/>
<ellipse fill="none" stroke="black" cx="818.3" cy="-612" rx="3.2" ry="3.2"/>
</g>
</g>
</svg>
