<?xml version="1.0" encoding="UTF-8" standalone="no"?>
<!DOCTYPE svg PUBLIC "-//W3C//DTD SVG 1.1//EN"
 "http://www.w3.org/Graphics/SVG/1.1/DTD/svg11.dtd">
<!-- Generated by graphviz version 2.43.0 (0)
 -->
<!-- Title: oneDegreeRelationshipsDiagram Pages: 1 -->
<svg width="1074pt" height="503pt"
 viewBox="0.00 0.00 1074.00 503.00" xmlns="http://www.w3.org/2000/svg" xmlns:xlink="http://www.w3.org/1999/xlink">
<g id="graph0" class="graph" transform="scale(1 1) rotate(0) translate(4 499)">
<title>oneDegreeRelationshipsDiagram</title>
<polygon fill="#ffffff" stroke="transparent" points="-4,4 -4,-499 1070,-499 1070,4 -4,4"/>
<text text-anchor="middle" x="79.5" y="-7.2" font-family="Helvetica,sans-Serif" font-size="11.00">Generated by SchemaSpy</text>
<!-- cluster -->
<g id="node1" class="node">
<title>cluster</title>
<g id="a_node1"><a xlink:href="../../tables/cluster.html" xlink:title="cluster" target="_top">
<polygon fill="#ffffff" stroke="transparent" points="226,-97 226,-471 721,-471 721,-97 226,-97"/>
<polygon fill="#f5f5f5" stroke="transparent" points="228.5,-447 228.5,-469 719.5,-469 719.5,-447 228.5,-447"/>
<polygon fill="none" stroke="black" points="228.5,-447 228.5,-469 719.5,-469 719.5,-447 228.5,-447"/>
<text text-anchor="start" x="233.5" y="-456.2" font-family="Helvetica,sans-Serif" font-weight="bold" font-size="11.00">cluster</text>
<text text-anchor="start" x="677.5" y="-455.2" font-family="Helvetica,sans-Serif" font-size="11.00">[table]</text>
<polygon fill="none" stroke="black" points="228.5,-425 228.5,-447 379.5,-447 379.5,-425 228.5,-425"/>
<image xlink:href="../../images/primaryKeys.png" width="11px" height="12px" preserveAspectRatio="xMinYMin meet" x="233.5" y="-442"/>
<text text-anchor="start" x="248.5" y="-433.2" font-family="Helvetica,sans-Serif" font-size="11.00">id</text>
<polygon fill="none" stroke="black" points="379.5,-425 379.5,-447 719.5,-447 719.5,-425 379.5,-425"/>
<text text-anchor="start" x="382.5" y="-433.2" font-family="Helvetica,sans-Serif" font-size="11.00">int4[10]</text>
<polygon fill="none" stroke="black" points="228.5,-403 228.5,-425 379.5,-425 379.5,-403 228.5,-403"/>
<text text-anchor="start" x="248.5" y="-411.2" font-family="Helvetica,sans-Serif" font-size="11.00">created_at</text>
<polygon fill="none" stroke="black" points="379.5,-403 379.5,-425 719.5,-425 719.5,-403 379.5,-403"/>
<text text-anchor="start" x="382.5" y="-411.2" font-family="Helvetica,sans-Serif" font-size="11.00">timestamp[29,6]</text>
<polygon fill="none" stroke="black" points="228.5,-381 228.5,-403 379.5,-403 379.5,-381 228.5,-381"/>
<text text-anchor="start" x="248.5" y="-389.2" font-family="Helvetica,sans-Serif" font-size="11.00">modified_at</text>
<polygon fill="none" stroke="black" points="379.5,-381 379.5,-403 719.5,-403 719.5,-381 379.5,-381"/>
<text text-anchor="start" x="382.5" y="-389.2" font-family="Helvetica,sans-Serif" font-size="11.00">timestamp[29,6]</text>
<polygon fill="none" stroke="black" points="228.5,-359 228.5,-381 379.5,-381 379.5,-359 228.5,-359"/>
<text text-anchor="start" x="248.5" y="-367.2" font-family="Helvetica,sans-Serif" font-size="11.00">modified_by</text>
<polygon fill="none" stroke="black" points="379.5,-359 379.5,-381 719.5,-381 719.5,-359 379.5,-359"/>
<text text-anchor="start" x="382.5" y="-367.2" font-family="Helvetica,sans-Serif" font-size="11.00">regrole[2147483647]</text>
<polygon fill="none" stroke="black" points="228.5,-337 228.5,-359 379.5,-359 379.5,-337 228.5,-337"/>
<text text-anchor="start" x="248.5" y="-345.2" font-family="Helvetica,sans-Serif" font-size="11.00">select_access_by</text>
<polygon fill="none" stroke="black" points="379.5,-337 379.5,-359 719.5,-359 719.5,-337 379.5,-337"/>
<text text-anchor="start" x="382.5" y="-345.2" font-family="Helvetica,sans-Serif" font-size="11.00">_text[2147483647]</text>
<polygon fill="none" stroke="black" points="228.5,-315 228.5,-337 379.5,-337 379.5,-315 228.5,-315"/>
<text text-anchor="start" x="248.5" y="-323.2" font-family="Helvetica,sans-Serif" font-size="11.00">update_access_by</text>
<polygon fill="none" stroke="black" points="379.5,-315 379.5,-337 719.5,-337 719.5,-315 379.5,-315"/>
<text text-anchor="start" x="382.5" y="-323.2" font-family="Helvetica,sans-Serif" font-size="11.00">_text[2147483647]</text>
<polygon fill="none" stroke="black" points="228.5,-293 228.5,-315 379.5,-315 379.5,-293 228.5,-293"/>
<image xlink:href="../../images/foreignKeys.png" width="11px" height="12px" preserveAspectRatio="xMinYMin meet" x="233.5" y="-310"/>
<text text-anchor="start" x="248.5" y="-301.2" font-family="Helvetica,sans-Serif" font-size="11.00">supervisor_id</text>
<polygon fill="none" stroke="black" points="379.5,-293 379.5,-315 719.5,-315 719.5,-293 379.5,-293"/>
<text text-anchor="start" x="382.5" y="-301.2" font-family="Helvetica,sans-Serif" font-size="11.00">int4[10]</text>
<polygon fill="none" stroke="black" points="228.5,-271 228.5,-293 379.5,-293 379.5,-271 228.5,-271"/>
<text text-anchor="start" x="248.5" y="-279.2" font-family="Helvetica,sans-Serif" font-size="11.00">topo_map_sheet</text>
<polygon fill="none" stroke="black" points="379.5,-271 379.5,-293 719.5,-293 719.5,-271 379.5,-271"/>
<text text-anchor="start" x="382.5" y="-279.2" font-family="Helvetica,sans-Serif" font-size="11.00">&quot;private_ci2027_001&quot;.&quot;ck_topographicmapsheet&quot;[10]</text>
<polygon fill="none" stroke="black" points="228.5,-249 228.5,-271 379.5,-271 379.5,-249 228.5,-249"/>
<image xlink:href="../../images/foreignKeys.png" width="11px" height="12px" preserveAspectRatio="xMinYMin meet" x="233.5" y="-266"/>
<text text-anchor="start" x="248.5" y="-257.2" font-family="Helvetica,sans-Serif" font-size="11.00">state_responsible</text>
<polygon fill="none" stroke="black" points="379.5,-249 379.5,-271 719.5,-271 719.5,-249 379.5,-249"/>
<text text-anchor="start" x="382.5" y="-257.2" font-family="Helvetica,sans-Serif" font-size="11.00">&quot;private_ci2027_001&quot;.&quot;enum_state&quot;[2147483647]</text>
<polygon fill="none" stroke="black" points="228.5,-227 228.5,-249 379.5,-249 379.5,-227 228.5,-227"/>
<image xlink:href="../../images/foreignKeys.png" width="11px" height="12px" preserveAspectRatio="xMinYMin meet" x="233.5" y="-244"/>
<text text-anchor="start" x="248.5" y="-235.2" font-family="Helvetica,sans-Serif" font-size="11.00">state</text>
<polygon fill="none" stroke="black" points="379.5,-227 379.5,-249 719.5,-249 719.5,-227 379.5,-227"/>
<text text-anchor="start" x="382.5" y="-235.2" font-family="Helvetica,sans-Serif" font-size="11.00">&quot;private_ci2027_001&quot;.&quot;enum_state&quot;[2147483647]</text>
<polygon fill="none" stroke="black" points="228.5,-205 228.5,-227 379.5,-227 379.5,-205 228.5,-205"/>
<text text-anchor="start" x="248.5" y="-213.2" font-family="Helvetica,sans-Serif" font-size="11.00">states_affected</text>
<polygon fill="none" stroke="black" points="379.5,-205 379.5,-227 719.5,-227 719.5,-205 379.5,-205"/>
<text text-anchor="start" x="382.5" y="-213.2" font-family="Helvetica,sans-Serif" font-size="11.00">&quot;private_ci2027_001&quot;.&quot;_enum_state&quot;[2147483647]</text>
<polygon fill="none" stroke="black" points="228.5,-183 228.5,-205 379.5,-205 379.5,-183 228.5,-183"/>
<text text-anchor="start" x="248.5" y="-191.2" font-family="Helvetica,sans-Serif" font-size="11.00">grid_density</text>
<polygon fill="none" stroke="black" points="379.5,-183 379.5,-205 719.5,-205 719.5,-183 379.5,-183"/>
<text text-anchor="start" x="382.5" y="-191.2" font-family="Helvetica,sans-Serif" font-size="11.00">&quot;private_ci2027_001&quot;.&quot;enum_grid_density&quot;[2147483647]</text>
<polygon fill="none" stroke="black" points="228.5,-161 228.5,-183 379.5,-183 379.5,-161 228.5,-161"/>
<text text-anchor="start" x="248.5" y="-169.2" font-family="Helvetica,sans-Serif" font-size="11.00">cluster_status</text>
<polygon fill="none" stroke="black" points="379.5,-161 379.5,-183 719.5,-183 719.5,-161 379.5,-161"/>
<text text-anchor="start" x="382.5" y="-169.2" font-family="Helvetica,sans-Serif" font-size="11.00">&quot;private_ci2027_001&quot;.&quot;enum_cluster_status&quot;[2147483647]</text>
<polygon fill="none" stroke="black" points="228.5,-139 228.5,-161 379.5,-161 379.5,-139 228.5,-139"/>
<text text-anchor="start" x="248.5" y="-147.2" font-family="Helvetica,sans-Serif" font-size="11.00">cluster_situation</text>
<polygon fill="none" stroke="black" points="379.5,-139 379.5,-161 719.5,-161 719.5,-139 379.5,-139"/>
<text text-anchor="start" x="382.5" y="-147.2" font-family="Helvetica,sans-Serif" font-size="11.00">&quot;private_ci2027_001&quot;.&quot;enum_cluster_situation&quot;[2147483647]</text>
<polygon fill="none" stroke="black" points="228.5,-117 228.5,-139 379.5,-139 379.5,-117 228.5,-117"/>
<text text-anchor="start" x="248.5" y="-125.2" font-family="Helvetica,sans-Serif" font-size="11.00">is_locked</text>
<polygon fill="none" stroke="black" points="379.5,-117 379.5,-139 719.5,-139 719.5,-117 379.5,-117"/>
<text text-anchor="start" x="382.5" y="-125.2" font-family="Helvetica,sans-Serif" font-size="11.00">bool[1]</text>
<polygon fill="#ffffff" stroke="transparent" points="228.5,-99 228.5,-117 719.5,-117 719.5,-99 228.5,-99"/>
<polygon fill="none" stroke="black" points="228.5,-99 228.5,-117 719.5,-117 719.5,-99 228.5,-99"/>
<polygon fill="#ffffff" stroke="transparent" points="229.5,-100 229.5,-116 387.5,-116 387.5,-100 229.5,-100"/>
<text text-anchor="start" x="231.5" y="-105.2" font-family="Helvetica,sans-Serif" font-size="11.00">&lt; 3</text>
<polygon fill="#ffffff" stroke="transparent" points="387.5,-100 387.5,-116 561.5,-116 561.5,-100 387.5,-100"/>
<text text-anchor="start" x="456" y="-105.2" font-family="Helvetica,sans-Serif" font-size="11.00">0 rows</text>
<polygon fill="#ffffff" stroke="transparent" points="561.5,-100 561.5,-116 718.5,-116 718.5,-100 561.5,-100"/>
<text text-anchor="start" x="696.5" y="-105.2" font-family="Helvetica,sans-Serif" font-size="11.00">1 &gt;</text>
<polygon fill="black" stroke="black" points="387.5,-100 387.5,-116 387.5,-116 387.5,-100 387.5,-100"/>
<polygon fill="black" stroke="black" points="561.5,-100 561.5,-116 561.5,-116 561.5,-100 561.5,-100"/>
<polygon fill="none" stroke="black" stroke-width="2" points="227,-98 227,-470 720,-470 720,-98 227,-98"/>
</a>
</g>
</g>
<!-- lookup_state -->
<g id="node2" class="node">
<title>lookup_state</title>
<g id="a_node2"><a xlink:href="../../tables/lookup_state.html" xlink:title="lookup_state" target="_top">
<polygon fill="#ffffff" stroke="transparent" points="22.5,-191 22.5,-271 162.5,-271 162.5,-191 22.5,-191"/>
<polygon fill="#f5f5f5" stroke="transparent" points="22.5,-249 22.5,-271 162.5,-271 162.5,-249 22.5,-249"/>
<polygon fill="none" stroke="black" points="22.5,-249 22.5,-271 162.5,-271 162.5,-249 22.5,-249"/>
<text text-anchor="start" x="27.5" y="-258.2" font-family="Helvetica,sans-Serif" font-weight="bold" font-size="11.00">lookup_state</text>
<text text-anchor="start" x="120.5" y="-257.2" font-family="Helvetica,sans-Serif" font-size="11.00">[table]</text>
<polygon fill="#ffffff" stroke="transparent" points="22.5,-227 22.5,-249 162.5,-249 162.5,-227 22.5,-227"/>
<polygon fill="none" stroke="black" points="22.5,-227 22.5,-249 162.5,-249 162.5,-227 22.5,-227"/>
<text text-anchor="start" x="55.5" y="-235.2" font-family="Helvetica,sans-Serif" font-size="11.00">abbreviation</text>
<polygon fill="none" stroke="black" points="22.5,-209 22.5,-227 162.5,-227 162.5,-209 22.5,-209"/>
<text text-anchor="start" x="25.5" y="-215.2" font-family="Helvetica,sans-Serif" font-size="11.00">...</text>
<polygon fill="#ffffff" stroke="transparent" points="22.5,-191 22.5,-209 162.5,-209 162.5,-191 22.5,-191"/>
<polygon fill="none" stroke="black" points="22.5,-191 22.5,-209 162.5,-209 162.5,-191 22.5,-191"/>
<polygon fill="#ffffff" stroke="transparent" points="23.5,-192 23.5,-208 56.5,-208 56.5,-192 23.5,-192"/>
<text text-anchor="start" x="25.5" y="-197.2" font-family="Helvetica,sans-Serif" font-size="11.00"> &#160;</text>
<polygon fill="#ffffff" stroke="transparent" points="56.5,-192 56.5,-208 117.5,-208 117.5,-192 56.5,-192"/>
<text text-anchor="start" x="68.5" y="-197.2" font-family="Helvetica,sans-Serif" font-size="11.00">0 rows</text>
<polygon fill="#ffffff" stroke="transparent" points="117.5,-192 117.5,-208 161.5,-208 161.5,-192 117.5,-192"/>
<text text-anchor="start" x="139.5" y="-197.2" font-family="Helvetica,sans-Serif" font-size="11.00">2 &gt;</text>
<polygon fill="black" stroke="black" points="56.5,-192 56.5,-208 56.5,-208 56.5,-192 56.5,-192"/>
<polygon fill="black" stroke="black" points="117.5,-192 117.5,-208 117.5,-208 117.5,-192 117.5,-192"/>
</a>
</g>
</g>
<!-- cluster&#45;&gt;lookup_state -->
<g id="edge1" class="edge">
<title>cluster:w&#45;&gt;lookup_state:e</title>
<path fill="none" stroke="black" d="M212.96,-238C195.46,-238 186.39,-238 163.5,-238"/>
<polygon fill="black" stroke="black" points="219.5,-238 227.5,-241.6 223.5,-238 227.5,-238 227.5,-238 227.5,-238 223.5,-238 227.5,-234.4 219.5,-238 219.5,-238"/>
<ellipse fill="none" stroke="black" cx="216.3" cy="-238" rx="3.2" ry="3.2"/>
</g>
<!-- cluster&#45;&gt;lookup_state -->
<g id="edge2" class="edge">
<title>cluster:w&#45;&gt;lookup_state:e</title>
<path fill="none" stroke="black" d="M213,-257.97C195.06,-252.52 187.94,-238 163.5,-238"/>
<polygon fill="black" stroke="black" points="219.58,-258.89 227,-263.57 223.54,-259.45 227.5,-260 227.5,-260 227.5,-260 223.54,-259.45 228,-256.43 219.58,-258.89 219.58,-258.89"/>
<ellipse fill="none" stroke="black" cx="216.41" cy="-258.45" rx="3.2" ry="3.2"/>
</g>
<!-- basic_auth.users -->
<g id="node3" class="node">
<title>basic_auth.users</title>
<g id="a_node3"><a xlink:title="basic_auth.users">
<polygon fill="#ffffff" stroke="transparent" points="8,-292 8,-350 177,-350 177,-292 8,-292"/>
<polygon fill="#f5f5f5" stroke="transparent" points="8.5,-328 8.5,-350 177.5,-350 177.5,-328 8.5,-328"/>
<polygon fill="none" stroke="black" points="8.5,-328 8.5,-350 177.5,-350 177.5,-328 8.5,-328"/>
<text text-anchor="start" x="13.5" y="-337.2" font-family="Helvetica,sans-Serif" font-weight="bold" font-size="11.00">basic_auth.users</text>
<text text-anchor="start" x="135.5" y="-336.2" font-family="Helvetica,sans-Serif" font-size="11.00">[table]</text>
<polygon fill="none" stroke="black" points="8.5,-310 8.5,-328 177.5,-328 177.5,-310 8.5,-310"/>
<text text-anchor="start" x="11.5" y="-316.2" font-family="Helvetica,sans-Serif" font-size="11.00">...</text>
<polygon fill="#ffffff" stroke="transparent" points="8.5,-292 8.5,-310 177.5,-310 177.5,-292 8.5,-292"/>
<polygon fill="none" stroke="black" points="8.5,-292 8.5,-310 177.5,-310 177.5,-292 8.5,-292"/>
<polygon fill="#ffffff" stroke="transparent" points="9.5,-293 9.5,-309 51.5,-309 51.5,-293 9.5,-293"/>
<text text-anchor="start" x="11.5" y="-298.2" font-family="Helvetica,sans-Serif" font-size="11.00"> &#160;</text>
<polygon fill="#ffffff" stroke="transparent" points="51.5,-293 51.5,-309 122.5,-309 122.5,-293 51.5,-293"/>
<text text-anchor="start" x="68.5" y="-298.2" font-family="Helvetica,sans-Serif" font-size="11.00">0 rows</text>
<polygon fill="#ffffff" stroke="transparent" points="122.5,-293 122.5,-309 176.5,-309 176.5,-293 122.5,-293"/>
<text text-anchor="start" x="154.5" y="-298.2" font-family="Helvetica,sans-Serif" font-size="11.00">1 &gt;</text>
<polygon fill="black" stroke="black" points="51.5,-293 51.5,-309 51.5,-309 51.5,-293 51.5,-293"/>
<polygon fill="black" stroke="black" points="122.5,-293 122.5,-309 122.5,-309 122.5,-293 122.5,-293"/>
</a>
</g>
</g>
<!-- cluster&#45;&gt;basic_auth.users -->
<g id="edge3" class="edge">
<title>cluster:w&#45;&gt;basic_auth.users:e</title>
<path fill="none" stroke="black" d="M212.81,-304.31C203.66,-304.68 194.37,-305.37 185.21,-306.26"/>
<polygon fill="black" stroke="black" points="219.5,-304.17 227.58,-307.6 223.5,-304.08 227.5,-304 227.5,-304 227.5,-304 223.5,-304.08 227.42,-300.4 219.5,-304.17 219.5,-304.17"/>
<ellipse fill="none" stroke="black" cx="216.3" cy="-304.24" rx="3.2" ry="3.2"/>
</g>
<!-- plot -->
<g id="node4" class="node">
<title>plot</title>
<g id="a_node4"><a xlink:href="../../tables/plot.html" xlink:title="plot" target="_top">
<polygon fill="#ffffff" stroke="transparent" points="770,-37 770,-491 1058,-491 1058,-37 770,-37"/>
<polygon fill="#f5f5f5" stroke="transparent" points="770,-469 770,-491 1058,-491 1058,-469 770,-469"/>
<polygon fill="none" stroke="black" points="770,-469 770,-491 1058,-491 1058,-469 770,-469"/>
<text text-anchor="start" x="774.5" y="-478.2" font-family="Helvetica,sans-Serif" font-weight="bold" font-size="11.00">plot</text>
<text text-anchor="start" x="1016" y="-477.2" font-family="Helvetica,sans-Serif" font-size="11.00">[table]</text>
<polygon fill="none" stroke="black" points="770,-447 770,-469 1058,-469 1058,-447 770,-447"/>
<image xlink:href="../../images/primaryKeys.png" width="11px" height="12px" preserveAspectRatio="xMinYMin meet" x="775" y="-464"/>
<text text-anchor="start" x="790" y="-455.2" font-family="Helvetica,sans-Serif" font-size="11.00">id</text>
<polygon fill="#ffffff" stroke="transparent" points="770,-425 770,-447 1058,-447 1058,-425 770,-425"/>
<polygon fill="none" stroke="black" points="770,-425 770,-447 1058,-447 1058,-425 770,-425"/>
<image xlink:href="../../images/foreignKeys.png" width="11px" height="12px" preserveAspectRatio="xMinYMin meet" x="775" y="-442"/>
<text text-anchor="start" x="790" y="-433.2" font-family="Helvetica,sans-Serif" font-size="11.00">cluster_id</text>
<polygon fill="#ffffff" stroke="transparent" points="770,-403 770,-425 1058,-425 1058,-403 770,-403"/>
<polygon fill="none" stroke="black" points="770,-403 770,-425 1058,-425 1058,-403 770,-403"/>
<text text-anchor="start" x="790" y="-411.2" font-family="Helvetica,sans-Serif" font-size="11.00">plot_name</text>
<polygon fill="none" stroke="black" points="770,-381 770,-403 1058,-403 1058,-381 770,-381"/>
<image xlink:href="../../images/foreignKeys.png" width="11px" height="12px" preserveAspectRatio="xMinYMin meet" x="775" y="-398"/>
<text text-anchor="start" x="790" y="-389.2" font-family="Helvetica,sans-Serif" font-size="11.00">growth_district</text>
<polygon fill="none" stroke="black" points="770,-359 770,-381 1058,-381 1058,-359 770,-359"/>
<image xlink:href="../../images/foreignKeys.png" width="11px" height="12px" preserveAspectRatio="xMinYMin meet" x="775" y="-376"/>
<text text-anchor="start" x="790" y="-367.2" font-family="Helvetica,sans-Serif" font-size="11.00">forest_status</text>
<polygon fill="none" stroke="black" points="770,-337 770,-359 1058,-359 1058,-337 770,-337"/>
<image xlink:href="../../images/foreignKeys.png" width="11px" height="12px" preserveAspectRatio="xMinYMin meet" x="775" y="-354"/>
<text text-anchor="start" x="790" y="-345.2" font-family="Helvetica,sans-Serif" font-size="11.00">elevation_level</text>
<polygon fill="none" stroke="black" points="770,-315 770,-337 1058,-337 1058,-315 770,-315"/>
<image xlink:href="../../images/foreignKeys.png" width="11px" height="12px" preserveAspectRatio="xMinYMin meet" x="775" y="-332"/>
<text text-anchor="start" x="790" y="-323.2" font-family="Helvetica,sans-Serif" font-size="11.00">property_type</text>
<polygon fill="none" stroke="black" points="770,-293 770,-315 1058,-315 1058,-293 770,-293"/>
<image xlink:href="../../images/foreignKeys.png" width="11px" height="12px" preserveAspectRatio="xMinYMin meet" x="775" y="-310"/>
<text text-anchor="start" x="790" y="-301.2" font-family="Helvetica,sans-Serif" font-size="11.00">property_size_class</text>
<polygon fill="none" stroke="black" points="770,-271 770,-293 1058,-293 1058,-271 770,-271"/>
<image xlink:href="../../images/foreignKeys.png" width="11px" height="12px" preserveAspectRatio="xMinYMin meet" x="775" y="-288"/>
<text text-anchor="start" x="790" y="-279.2" font-family="Helvetica,sans-Serif" font-size="11.00">land_use_after</text>
<polygon fill="none" stroke="black" points="770,-249 770,-271 1058,-271 1058,-249 770,-249"/>
<image xlink:href="../../images/foreignKeys.png" width="11px" height="12px" preserveAspectRatio="xMinYMin meet" x="775" y="-266"/>
<text text-anchor="start" x="790" y="-257.2" font-family="Helvetica,sans-Serif" font-size="11.00">marker_status</text>
<polygon fill="none" stroke="black" points="770,-227 770,-249 1058,-249 1058,-227 770,-227"/>
<image xlink:href="../../images/foreignKeys.png" width="11px" height="12px" preserveAspectRatio="xMinYMin meet" x="775" y="-244"/>
<text text-anchor="start" x="790" y="-235.2" font-family="Helvetica,sans-Serif" font-size="11.00">marker_profile</text>
<polygon fill="none" stroke="black" points="770,-205 770,-227 1058,-227 1058,-205 770,-205"/>
<image xlink:href="../../images/foreignKeys.png" width="11px" height="12px" preserveAspectRatio="xMinYMin meet" x="775" y="-222"/>
<text text-anchor="start" x="790" y="-213.2" font-family="Helvetica,sans-Serif" font-size="11.00">terrain_form</text>
<polygon fill="none" stroke="black" points="770,-183 770,-205 1058,-205 1058,-183 770,-183"/>
<image xlink:href="../../images/foreignKeys.png" width="11px" height="12px" preserveAspectRatio="xMinYMin meet" x="775" y="-200"/>
<text text-anchor="start" x="790" y="-191.2" font-family="Helvetica,sans-Serif" font-size="11.00">management_type</text>
<polygon fill="none" stroke="black" points="770,-161 770,-183 1058,-183 1058,-161 770,-161"/>
<image xlink:href="../../images/foreignKeys.png" width="11px" height="12px" preserveAspectRatio="xMinYMin meet" x="775" y="-178"/>
<text text-anchor="start" x="790" y="-169.2" font-family="Helvetica,sans-Serif" font-size="11.00">harvesting_method</text>
<polygon fill="none" stroke="black" points="770,-139 770,-161 1058,-161 1058,-139 770,-139"/>
<image xlink:href="../../images/foreignKeys.png" width="11px" height="12px" preserveAspectRatio="xMinYMin meet" x="775" y="-156"/>
<text text-anchor="start" x="790" y="-147.2" font-family="Helvetica,sans-Serif" font-size="11.00">stand_structure</text>
<polygon fill="none" stroke="black" points="770,-117 770,-139 1058,-139 1058,-117 770,-117"/>
<image xlink:href="../../images/foreignKeys.png" width="11px" height="12px" preserveAspectRatio="xMinYMin meet" x="775" y="-134"/>
<text text-anchor="start" x="790" y="-125.2" font-family="Helvetica,sans-Serif" font-size="11.00">stand_dev_phase</text>
<polygon fill="none" stroke="black" points="770,-95 770,-117 1058,-117 1058,-95 770,-95"/>
<image xlink:href="../../images/foreignKeys.png" width="11px" height="12px" preserveAspectRatio="xMinYMin meet" x="775" y="-112"/>
<text text-anchor="start" x="790" y="-103.2" font-family="Helvetica,sans-Serif" font-size="11.00">stand_layer_reg</text>
<polygon fill="none" stroke="black" points="770,-73 770,-95 1058,-95 1058,-73 770,-73"/>
<image xlink:href="../../images/foreignKeys.png" width="11px" height="12px" preserveAspectRatio="xMinYMin meet" x="775" y="-90"/>
<text text-anchor="start" x="790" y="-81.2" font-family="Helvetica,sans-Serif" font-size="11.00">trees_less_4meter_mirrored</text>
<polygon fill="none" stroke="black" points="770,-55 770,-73 1058,-73 1058,-55 770,-55"/>
<text text-anchor="start" x="773" y="-61.2" font-family="Helvetica,sans-Serif" font-size="11.00">...</text>
<polygon fill="#ffffff" stroke="transparent" points="770,-37 770,-55 1058,-55 1058,-37 770,-37"/>
<polygon fill="none" stroke="black" points="770,-37 770,-55 1058,-55 1058,-37 770,-37"/>
<polygon fill="#ffffff" stroke="transparent" points="771,-38 771,-54 866,-54 866,-38 771,-38"/>
<text text-anchor="start" x="773" y="-43.2" font-family="Helvetica,sans-Serif" font-size="11.00">&lt; 16</text>
<polygon fill="#ffffff" stroke="transparent" points="866,-38 866,-54 970,-54 970,-38 866,-38"/>
<text text-anchor="start" x="899.5" y="-43.2" font-family="Helvetica,sans-Serif" font-size="11.00">0 rows</text>
<polygon fill="#ffffff" stroke="transparent" points="970,-38 970,-54 1057,-54 1057,-38 970,-38"/>
<text text-anchor="start" x="1035" y="-43.2" font-family="Helvetica,sans-Serif" font-size="11.00">7 &gt;</text>
<polygon fill="black" stroke="black" points="866,-38 866,-54 866,-54 866,-38 866,-38"/>
<polygon fill="black" stroke="black" points="970,-38 970,-54 970,-54 970,-38 970,-38"/>
</a>
</g>
</g>
<!-- plot&#45;&gt;cluster -->
<g id="edge4" class="edge">
<title>plot:w&#45;&gt;cluster:e</title>
<path fill="none" stroke="black" d="M754.28,-436C743.29,-436 736.16,-436 720.5,-436"/>
<polygon fill="black" stroke="black" points="761,-436 769,-439.6 765,-436 769,-436 769,-436 769,-436 765,-436 769,-432.4 761,-436 761,-436"/>
<ellipse fill="none" stroke="black" cx="757.8" cy="-436" rx="3.2" ry="3.2"/>
</g>
</g>
</svg>
