<?xml version="1.0" encoding="UTF-8" standalone="no"?>
<!DOCTYPE svg PUBLIC "-//W3C//DTD SVG 1.1//EN"
 "http://www.w3.org/Graphics/SVG/1.1/DTD/svg11.dtd">
<!-- Generated by graphviz version 2.43.0 (0)
 -->
<!-- Title: oneDegreeRelationshipsDiagram Pages: 1 -->
<svg width="845pt" height="982pt"
 viewBox="0.00 0.00 845.00 982.00" xmlns="http://www.w3.org/2000/svg" xmlns:xlink="http://www.w3.org/1999/xlink">
<g id="graph0" class="graph" transform="scale(1 1) rotate(0) translate(4 978)">
<title>oneDegreeRelationshipsDiagram</title>
<polygon fill="#ffffff" stroke="transparent" points="-4,4 -4,-978 841,-978 841,4 -4,4"/>
<text text-anchor="middle" x="79.5" y="-7.2" font-family="Helvetica,sans-Serif" font-size="11.00">Generated by SchemaSpy</text>
<!-- deadwood -->
<g id="node1" class="node">
<title>deadwood</title>
<g id="a_node1"><a xlink:href="../../tables/deadwood.html" xlink:title="deadwood" target="_top">
<polygon fill="#ffffff" stroke="transparent" points="308,-62 308,-392 829,-392 829,-62 308,-62"/>
<polygon fill="#f5f5f5" stroke="transparent" points="310.5,-368 310.5,-390 827.5,-390 827.5,-368 310.5,-368"/>
<polygon fill="none" stroke="black" points="310.5,-368 310.5,-390 827.5,-390 827.5,-368 310.5,-368"/>
<text text-anchor="start" x="315.5" y="-377.2" font-family="Helvetica,sans-Serif" font-weight="bold" font-size="11.00">deadwood</text>
<text text-anchor="start" x="785.5" y="-376.2" font-family="Helvetica,sans-Serif" font-size="11.00">[table]</text>
<polygon fill="none" stroke="black" points="310.5,-346 310.5,-368 472.5,-368 472.5,-346 310.5,-346"/>
<image xlink:href="../../images/primaryKeys.png" width="11px" height="12px" preserveAspectRatio="xMinYMin meet" x="315.5" y="-363"/>
<text text-anchor="start" x="330.5" y="-354.2" font-family="Helvetica,sans-Serif" font-size="11.00">id</text>
<polygon fill="none" stroke="black" points="472.5,-346 472.5,-368 827.5,-368 827.5,-346 472.5,-346"/>
<text text-anchor="start" x="475.5" y="-354.2" font-family="Helvetica,sans-Serif" font-size="11.00">serial[10]</text>
<polygon fill="none" stroke="black" points="310.5,-324 310.5,-346 472.5,-346 472.5,-324 310.5,-324"/>
<image xlink:href="../../images/foreignKeys.png" width="11px" height="12px" preserveAspectRatio="xMinYMin meet" x="315.5" y="-341"/>
<text text-anchor="start" x="330.5" y="-332.2" font-family="Helvetica,sans-Serif" font-size="11.00">plot_id</text>
<polygon fill="none" stroke="black" points="472.5,-324 472.5,-346 827.5,-346 827.5,-324 472.5,-324"/>
<text text-anchor="start" x="475.5" y="-332.2" font-family="Helvetica,sans-Serif" font-size="11.00">int4[10]</text>
<polygon fill="none" stroke="black" points="310.5,-302 310.5,-324 472.5,-324 472.5,-302 310.5,-302"/>
<text text-anchor="start" x="330.5" y="-310.2" font-family="Helvetica,sans-Serif" font-size="11.00">created_at</text>
<polygon fill="none" stroke="black" points="472.5,-302 472.5,-324 827.5,-324 827.5,-302 472.5,-302"/>
<text text-anchor="start" x="475.5" y="-310.2" font-family="Helvetica,sans-Serif" font-size="11.00">timestamp[29,6]</text>
<polygon fill="none" stroke="black" points="310.5,-280 310.5,-302 472.5,-302 472.5,-280 310.5,-280"/>
<text text-anchor="start" x="330.5" y="-288.2" font-family="Helvetica,sans-Serif" font-size="11.00">modified_at</text>
<polygon fill="none" stroke="black" points="472.5,-280 472.5,-302 827.5,-302 827.5,-280 472.5,-280"/>
<text text-anchor="start" x="475.5" y="-288.2" font-family="Helvetica,sans-Serif" font-size="11.00">timestamp[29,6]</text>
<polygon fill="none" stroke="black" points="310.5,-258 310.5,-280 472.5,-280 472.5,-258 310.5,-258"/>
<text text-anchor="start" x="330.5" y="-266.2" font-family="Helvetica,sans-Serif" font-size="11.00">modified_by</text>
<polygon fill="none" stroke="black" points="472.5,-258 472.5,-280 827.5,-280 827.5,-258 472.5,-258"/>
<text text-anchor="start" x="475.5" y="-266.2" font-family="Helvetica,sans-Serif" font-size="11.00">regrole[2147483647]</text>
<polygon fill="none" stroke="black" points="310.5,-236 310.5,-258 472.5,-258 472.5,-236 310.5,-236"/>
<image xlink:href="../../images/foreignKeys.png" width="11px" height="12px" preserveAspectRatio="xMinYMin meet" x="315.5" y="-253"/>
<text text-anchor="start" x="330.5" y="-244.2" font-family="Helvetica,sans-Serif" font-size="11.00">tree_species_group</text>
<polygon fill="none" stroke="black" points="472.5,-236 472.5,-258 827.5,-258 827.5,-236 472.5,-236"/>
<text text-anchor="start" x="475.5" y="-244.2" font-family="Helvetica,sans-Serif" font-size="11.00">&quot;private_ci2027_001&quot;.&quot;enum_tree_species_group&quot;[2147483647]</text>
<polygon fill="none" stroke="black" points="310.5,-214 310.5,-236 472.5,-236 472.5,-214 310.5,-214"/>
<image xlink:href="../../images/foreignKeys.png" width="11px" height="12px" preserveAspectRatio="xMinYMin meet" x="315.5" y="-231"/>
<text text-anchor="start" x="330.5" y="-222.2" font-family="Helvetica,sans-Serif" font-size="11.00">dead_wood_type</text>
<polygon fill="none" stroke="black" points="472.5,-214 472.5,-236 827.5,-236 827.5,-214 472.5,-214"/>
<text text-anchor="start" x="475.5" y="-222.2" font-family="Helvetica,sans-Serif" font-size="11.00">&quot;private_ci2027_001&quot;.&quot;enum_dead_wood_type&quot;[2147483647]</text>
<polygon fill="none" stroke="black" points="310.5,-192 310.5,-214 472.5,-214 472.5,-192 310.5,-192"/>
<image xlink:href="../../images/foreignKeys.png" width="11px" height="12px" preserveAspectRatio="xMinYMin meet" x="315.5" y="-209"/>
<text text-anchor="start" x="330.5" y="-200.2" font-family="Helvetica,sans-Serif" font-size="11.00">decomposition</text>
<polygon fill="none" stroke="black" points="472.5,-192 472.5,-214 827.5,-214 827.5,-192 472.5,-192"/>
<text text-anchor="start" x="475.5" y="-200.2" font-family="Helvetica,sans-Serif" font-size="11.00">&quot;private_ci2027_001&quot;.&quot;enum_decomposition&quot;[2147483647]</text>
<polygon fill="none" stroke="black" points="310.5,-170 310.5,-192 472.5,-192 472.5,-170 310.5,-170"/>
<text text-anchor="start" x="330.5" y="-178.2" font-family="Helvetica,sans-Serif" font-size="11.00">length_height</text>
<polygon fill="none" stroke="black" points="472.5,-170 472.5,-192 827.5,-192 827.5,-170 472.5,-170"/>
<text text-anchor="start" x="475.5" y="-178.2" font-family="Helvetica,sans-Serif" font-size="11.00">int2[5]</text>
<polygon fill="none" stroke="black" points="310.5,-148 310.5,-170 472.5,-170 472.5,-148 310.5,-148"/>
<text text-anchor="start" x="330.5" y="-156.2" font-family="Helvetica,sans-Serif" font-size="11.00">diameter_butt</text>
<polygon fill="none" stroke="black" points="472.5,-148 472.5,-170 827.5,-170 827.5,-148 472.5,-148"/>
<text text-anchor="start" x="475.5" y="-156.2" font-family="Helvetica,sans-Serif" font-size="11.00">&quot;private_ci2027_001&quot;.&quot;ck_bhd&quot;[10]</text>
<polygon fill="none" stroke="black" points="310.5,-126 310.5,-148 472.5,-148 472.5,-126 310.5,-126"/>
<text text-anchor="start" x="330.5" y="-134.2" font-family="Helvetica,sans-Serif" font-size="11.00">diameter_top</text>
<polygon fill="none" stroke="black" points="472.5,-126 472.5,-148 827.5,-148 827.5,-126 472.5,-126"/>
<text text-anchor="start" x="475.5" y="-134.2" font-family="Helvetica,sans-Serif" font-size="11.00">&quot;private_ci2027_001&quot;.&quot;ck_bhd&quot;[10]</text>
<polygon fill="none" stroke="black" points="310.5,-104 310.5,-126 472.5,-126 472.5,-104 310.5,-104"/>
<text text-anchor="start" x="330.5" y="-112.2" font-family="Helvetica,sans-Serif" font-size="11.00">count</text>
<polygon fill="none" stroke="black" points="472.5,-104 472.5,-126 827.5,-126 827.5,-104 472.5,-104"/>
<text text-anchor="start" x="475.5" y="-112.2" font-family="Helvetica,sans-Serif" font-size="11.00">int2[5]</text>
<polygon fill="none" stroke="black" points="310.5,-82 310.5,-104 472.5,-104 472.5,-82 310.5,-82"/>
<text text-anchor="start" x="330.5" y="-90.2" font-family="Helvetica,sans-Serif" font-size="11.00">bark_pocket</text>
<polygon fill="none" stroke="black" points="472.5,-82 472.5,-104 827.5,-104 827.5,-82 472.5,-82"/>
<text text-anchor="start" x="475.5" y="-90.2" font-family="Helvetica,sans-Serif" font-size="11.00">int2[5]</text>
<polygon fill="#ffffff" stroke="transparent" points="310.5,-64 310.5,-82 827.5,-82 827.5,-64 310.5,-64"/>
<polygon fill="none" stroke="black" points="310.5,-64 310.5,-82 827.5,-82 827.5,-64 310.5,-64"/>
<polygon fill="#ffffff" stroke="transparent" points="311.5,-65 311.5,-81 475.5,-81 475.5,-65 311.5,-65"/>
<text text-anchor="start" x="313.5" y="-70.2" font-family="Helvetica,sans-Serif" font-size="11.00">&lt; 4</text>
<polygon fill="#ffffff" stroke="transparent" points="475.5,-65 475.5,-81 663.5,-81 663.5,-65 475.5,-65"/>
<text text-anchor="start" x="547.5" y="-70.2" font-family="Helvetica,sans-Serif" font-size="11.00">81 rows</text>
<polygon fill="#ffffff" stroke="transparent" points="663.5,-65 663.5,-81 826.5,-81 826.5,-65 663.5,-65"/>
<text text-anchor="start" x="804.5" y="-70.2" font-family="Helvetica,sans-Serif" font-size="11.00">0 &gt;</text>
<polygon fill="black" stroke="black" points="475.5,-65 475.5,-81 475.5,-81 475.5,-65 475.5,-65"/>
<polygon fill="black" stroke="black" points="663.5,-65 663.5,-81 663.5,-81 663.5,-65 663.5,-65"/>
<polygon fill="none" stroke="black" stroke-width="2" points="309,-63 309,-391 828,-391 828,-63 309,-63"/>
</a>
</g>
</g>
<!-- lookup_dead_wood_type -->
<g id="node2" class="node">
<title>lookup_dead_wood_type</title>
<g id="a_node2"><a xlink:href="../../tables/lookup_dead_wood_type.html" xlink:title="lookup_dead_wood_type" target="_top">
<polygon fill="#ffffff" stroke="transparent" points="21.5,-138 21.5,-218 245.5,-218 245.5,-138 21.5,-138"/>
<polygon fill="#f5f5f5" stroke="transparent" points="21.5,-196 21.5,-218 245.5,-218 245.5,-196 21.5,-196"/>
<polygon fill="none" stroke="black" points="21.5,-196 21.5,-218 245.5,-218 245.5,-196 21.5,-196"/>
<text text-anchor="start" x="26.5" y="-205.2" font-family="Helvetica,sans-Serif" font-weight="bold" font-size="11.00">lookup_dead_wood_type</text>
<text text-anchor="start" x="203.5" y="-204.2" font-family="Helvetica,sans-Serif" font-size="11.00">[table]</text>
<polygon fill="#ffffff" stroke="transparent" points="21.5,-174 21.5,-196 245.5,-196 245.5,-174 21.5,-174"/>
<polygon fill="none" stroke="black" points="21.5,-174 21.5,-196 245.5,-196 245.5,-174 21.5,-174"/>
<text text-anchor="start" x="54.5" y="-182.2" font-family="Helvetica,sans-Serif" font-size="11.00">abbreviation</text>
<polygon fill="none" stroke="black" points="21.5,-156 21.5,-174 245.5,-174 245.5,-156 21.5,-156"/>
<text text-anchor="start" x="24.5" y="-162.2" font-family="Helvetica,sans-Serif" font-size="11.00">...</text>
<polygon fill="#ffffff" stroke="transparent" points="21.5,-138 21.5,-156 245.5,-156 245.5,-138 21.5,-138"/>
<polygon fill="none" stroke="black" points="21.5,-138 21.5,-156 245.5,-156 245.5,-138 21.5,-138"/>
<polygon fill="#ffffff" stroke="transparent" points="22.5,-139 22.5,-155 83.5,-155 83.5,-139 22.5,-139"/>
<text text-anchor="start" x="24.5" y="-144.2" font-family="Helvetica,sans-Serif" font-size="11.00"> &#160;</text>
<polygon fill="#ffffff" stroke="transparent" points="83.5,-139 83.5,-155 172.5,-155 172.5,-139 83.5,-139"/>
<text text-anchor="start" x="109.5" y="-144.2" font-family="Helvetica,sans-Serif" font-size="11.00">0 rows</text>
<polygon fill="#ffffff" stroke="transparent" points="172.5,-139 172.5,-155 244.5,-155 244.5,-139 172.5,-139"/>
<text text-anchor="start" x="222.5" y="-144.2" font-family="Helvetica,sans-Serif" font-size="11.00">1 &gt;</text>
<polygon fill="black" stroke="black" points="83.5,-139 83.5,-155 83.5,-155 83.5,-139 83.5,-139"/>
<polygon fill="black" stroke="black" points="172.5,-139 172.5,-155 172.5,-155 172.5,-139 172.5,-139"/>
</a>
</g>
</g>
<!-- deadwood&#45;&gt;lookup_dead_wood_type -->
<g id="edge1" class="edge">
<title>deadwood:w&#45;&gt;lookup_dead_wood_type:e</title>
<path fill="none" stroke="black" d="M295.26,-221.86C276.4,-212.43 273.97,-185 246.5,-185"/>
<polygon fill="black" stroke="black" points="301.69,-223.28 308.72,-228.52 305.59,-224.14 309.5,-225 309.5,-225 309.5,-225 305.59,-224.14 310.28,-221.48 301.69,-223.28 301.69,-223.28"/>
<ellipse fill="none" stroke="black" cx="298.56" cy="-222.59" rx="3.2" ry="3.2"/>
</g>
<!-- lookup_decomposition -->
<g id="node3" class="node">
<title>lookup_decomposition</title>
<g id="a_node3"><a xlink:href="../../tables/lookup_decomposition.html" xlink:title="lookup_decomposition" target="_top">
<polygon fill="#ffffff" stroke="transparent" points="28.5,-37 28.5,-117 238.5,-117 238.5,-37 28.5,-37"/>
<polygon fill="#f5f5f5" stroke="transparent" points="28.5,-95 28.5,-117 238.5,-117 238.5,-95 28.5,-95"/>
<polygon fill="none" stroke="black" points="28.5,-95 28.5,-117 238.5,-117 238.5,-95 28.5,-95"/>
<text text-anchor="start" x="33.5" y="-104.2" font-family="Helvetica,sans-Serif" font-weight="bold" font-size="11.00">lookup_decomposition</text>
<text text-anchor="start" x="196.5" y="-103.2" font-family="Helvetica,sans-Serif" font-size="11.00">[table]</text>
<polygon fill="#ffffff" stroke="transparent" points="28.5,-73 28.5,-95 238.5,-95 238.5,-73 28.5,-73"/>
<polygon fill="none" stroke="black" points="28.5,-73 28.5,-95 238.5,-95 238.5,-73 28.5,-73"/>
<text text-anchor="start" x="61.5" y="-81.2" font-family="Helvetica,sans-Serif" font-size="11.00">abbreviation</text>
<polygon fill="none" stroke="black" points="28.5,-55 28.5,-73 238.5,-73 238.5,-55 28.5,-55"/>
<text text-anchor="start" x="31.5" y="-61.2" font-family="Helvetica,sans-Serif" font-size="11.00">...</text>
<polygon fill="#ffffff" stroke="transparent" points="28.5,-37 28.5,-55 238.5,-55 238.5,-37 28.5,-37"/>
<polygon fill="none" stroke="black" points="28.5,-37 28.5,-55 238.5,-55 238.5,-37 28.5,-37"/>
<polygon fill="#ffffff" stroke="transparent" points="29.5,-38 29.5,-54 85.5,-54 85.5,-38 29.5,-38"/>
<text text-anchor="start" x="31.5" y="-43.2" font-family="Helvetica,sans-Serif" font-size="11.00"> &#160;</text>
<polygon fill="#ffffff" stroke="transparent" points="85.5,-38 85.5,-54 170.5,-54 170.5,-38 85.5,-38"/>
<text text-anchor="start" x="109.5" y="-43.2" font-family="Helvetica,sans-Serif" font-size="11.00">0 rows</text>
<polygon fill="#ffffff" stroke="transparent" points="170.5,-38 170.5,-54 237.5,-54 237.5,-38 170.5,-38"/>
<text text-anchor="start" x="215.5" y="-43.2" font-family="Helvetica,sans-Serif" font-size="11.00">1 &gt;</text>
<polygon fill="black" stroke="black" points="85.5,-38 85.5,-54 85.5,-54 85.5,-38 85.5,-38"/>
<polygon fill="black" stroke="black" points="170.5,-38 170.5,-54 170.5,-54 170.5,-38 170.5,-38"/>
</a>
</g>
</g>
<!-- deadwood&#45;&gt;lookup_decomposition -->
<g id="edge2" class="edge">
<title>deadwood:w&#45;&gt;lookup_decomposition:e</title>
<path fill="none" stroke="black" d="M295.31,-200.18C256.86,-182.16 295.23,-84 239.5,-84"/>
<polygon fill="black" stroke="black" points="301.65,-201.44 308.8,-206.53 305.58,-202.22 309.5,-203 309.5,-203 309.5,-203 305.58,-202.22 310.2,-199.47 301.65,-201.44 301.65,-201.44"/>
<ellipse fill="none" stroke="black" cx="298.52" cy="-200.81" rx="3.2" ry="3.2"/>
</g>
<!-- plot -->
<g id="node4" class="node">
<title>plot</title>
<g id="a_node4"><a xlink:href="../../tables/plot.html" xlink:title="plot" target="_top">
<polygon fill="#ffffff" stroke="transparent" points="8,-340 8,-970 259,-970 259,-340 8,-340"/>
<polygon fill="#f5f5f5" stroke="transparent" points="8.5,-948 8.5,-970 259.5,-970 259.5,-948 8.5,-948"/>
<polygon fill="none" stroke="black" points="8.5,-948 8.5,-970 259.5,-970 259.5,-948 8.5,-948"/>
<text text-anchor="start" x="13" y="-957.2" font-family="Helvetica,sans-Serif" font-weight="bold" font-size="11.00">plot</text>
<text text-anchor="start" x="217.5" y="-956.2" font-family="Helvetica,sans-Serif" font-size="11.00">[table]</text>
<polygon fill="none" stroke="black" points="8.5,-926 8.5,-948 259.5,-948 259.5,-926 8.5,-926"/>
<image xlink:href="../../images/primaryKeys.png" width="11px" height="12px" preserveAspectRatio="xMinYMin meet" x="13.5" y="-943"/>
<text text-anchor="start" x="28.5" y="-934.2" font-family="Helvetica,sans-Serif" font-size="11.00">id</text>
<polygon fill="#ffffff" stroke="transparent" points="8.5,-904 8.5,-926 259.5,-926 259.5,-904 8.5,-904"/>
<polygon fill="none" stroke="black" points="8.5,-904 8.5,-926 259.5,-926 259.5,-904 8.5,-904"/>
<image xlink:href="../../images/foreignKeys.png" width="11px" height="12px" preserveAspectRatio="xMinYMin meet" x="13.5" y="-921"/>
<text text-anchor="start" x="28.5" y="-912.2" font-family="Helvetica,sans-Serif" font-size="11.00">cluster_id</text>
<polygon fill="#ffffff" stroke="transparent" points="8.5,-882 8.5,-904 259.5,-904 259.5,-882 8.5,-882"/>
<polygon fill="none" stroke="black" points="8.5,-882 8.5,-904 259.5,-904 259.5,-882 8.5,-882"/>
<text text-anchor="start" x="28.5" y="-890.2" font-family="Helvetica,sans-Serif" font-size="11.00">plot_name</text>
<polygon fill="none" stroke="black" points="8.5,-860 8.5,-882 259.5,-882 259.5,-860 8.5,-860"/>
<image xlink:href="../../images/foreignKeys.png" width="11px" height="12px" preserveAspectRatio="xMinYMin meet" x="13.5" y="-877"/>
<text text-anchor="start" x="28.5" y="-868.2" font-family="Helvetica,sans-Serif" font-size="11.00">sampling_strata</text>
<polygon fill="none" stroke="black" points="8.5,-838 8.5,-860 259.5,-860 259.5,-838 8.5,-838"/>
<image xlink:href="../../images/foreignKeys.png" width="11px" height="12px" preserveAspectRatio="xMinYMin meet" x="13.5" y="-855"/>
<text text-anchor="start" x="28.5" y="-846.2" font-family="Helvetica,sans-Serif" font-size="11.00">growth_district</text>
<polygon fill="none" stroke="black" points="8.5,-816 8.5,-838 259.5,-838 259.5,-816 8.5,-816"/>
<image xlink:href="../../images/foreignKeys.png" width="11px" height="12px" preserveAspectRatio="xMinYMin meet" x="13.5" y="-833"/>
<text text-anchor="start" x="28.5" y="-824.2" font-family="Helvetica,sans-Serif" font-size="11.00">forest_decision</text>
<polygon fill="none" stroke="black" points="8.5,-794 8.5,-816 259.5,-816 259.5,-794 8.5,-794"/>
<image xlink:href="../../images/foreignKeys.png" width="11px" height="12px" preserveAspectRatio="xMinYMin meet" x="13.5" y="-811"/>
<text text-anchor="start" x="28.5" y="-802.2" font-family="Helvetica,sans-Serif" font-size="11.00">forestry_department</text>
<polygon fill="none" stroke="black" points="8.5,-772 8.5,-794 259.5,-794 259.5,-772 8.5,-772"/>
<image xlink:href="../../images/foreignKeys.png" width="11px" height="12px" preserveAspectRatio="xMinYMin meet" x="13.5" y="-789"/>
<text text-anchor="start" x="28.5" y="-780.2" font-family="Helvetica,sans-Serif" font-size="11.00">height_layer_class</text>
<polygon fill="none" stroke="black" points="8.5,-750 8.5,-772 259.5,-772 259.5,-750 8.5,-750"/>
<image xlink:href="../../images/foreignKeys.png" width="11px" height="12px" preserveAspectRatio="xMinYMin meet" x="13.5" y="-767"/>
<text text-anchor="start" x="28.5" y="-758.2" font-family="Helvetica,sans-Serif" font-size="11.00">property_type</text>
<polygon fill="none" stroke="black" points="8.5,-728 8.5,-750 259.5,-750 259.5,-728 8.5,-728"/>
<image xlink:href="../../images/foreignKeys.png" width="11px" height="12px" preserveAspectRatio="xMinYMin meet" x="13.5" y="-745"/>
<text text-anchor="start" x="28.5" y="-736.2" font-family="Helvetica,sans-Serif" font-size="11.00">property_size_class</text>
<polygon fill="none" stroke="black" points="8.5,-706 8.5,-728 259.5,-728 259.5,-706 8.5,-706"/>
<image xlink:href="../../images/foreignKeys.png" width="11px" height="12px" preserveAspectRatio="xMinYMin meet" x="13.5" y="-723"/>
<text text-anchor="start" x="28.5" y="-714.2" font-family="Helvetica,sans-Serif" font-size="11.00">forest_type</text>
<polygon fill="none" stroke="black" points="8.5,-684 8.5,-706 259.5,-706 259.5,-684 8.5,-684"/>
<image xlink:href="../../images/foreignKeys.png" width="11px" height="12px" preserveAspectRatio="xMinYMin meet" x="13.5" y="-701"/>
<text text-anchor="start" x="28.5" y="-692.2" font-family="Helvetica,sans-Serif" font-size="11.00">habitat_type</text>
<polygon fill="none" stroke="black" points="8.5,-662 8.5,-684 259.5,-684 259.5,-662 8.5,-662"/>
<image xlink:href="../../images/foreignKeys.png" width="11px" height="12px" preserveAspectRatio="xMinYMin meet" x="13.5" y="-679"/>
<text text-anchor="start" x="28.5" y="-670.2" font-family="Helvetica,sans-Serif" font-size="11.00">habitat_type_source</text>
<polygon fill="none" stroke="black" points="8.5,-640 8.5,-662 259.5,-662 259.5,-640 8.5,-640"/>
<image xlink:href="../../images/foreignKeys.png" width="11px" height="12px" preserveAspectRatio="xMinYMin meet" x="13.5" y="-657"/>
<text text-anchor="start" x="28.5" y="-648.2" font-family="Helvetica,sans-Serif" font-size="11.00">use_restriction</text>
<polygon fill="none" stroke="black" points="8.5,-618 8.5,-640 259.5,-640 259.5,-618 8.5,-618"/>
<image xlink:href="../../images/foreignKeys.png" width="11px" height="12px" preserveAspectRatio="xMinYMin meet" x="13.5" y="-635"/>
<text text-anchor="start" x="28.5" y="-626.2" font-family="Helvetica,sans-Serif" font-size="11.00">land_use</text>
<polygon fill="none" stroke="black" points="8.5,-596 8.5,-618 259.5,-618 259.5,-596 8.5,-596"/>
<image xlink:href="../../images/foreignKeys.png" width="11px" height="12px" preserveAspectRatio="xMinYMin meet" x="13.5" y="-613"/>
<text text-anchor="start" x="28.5" y="-604.2" font-family="Helvetica,sans-Serif" font-size="11.00">marking_state</text>
<polygon fill="none" stroke="black" points="8.5,-574 8.5,-596 259.5,-596 259.5,-574 8.5,-574"/>
<image xlink:href="../../images/foreignKeys.png" width="11px" height="12px" preserveAspectRatio="xMinYMin meet" x="13.5" y="-591"/>
<text text-anchor="start" x="28.5" y="-582.2" font-family="Helvetica,sans-Serif" font-size="11.00">marking_profile</text>
<polygon fill="none" stroke="black" points="8.5,-552 8.5,-574 259.5,-574 259.5,-552 8.5,-552"/>
<image xlink:href="../../images/foreignKeys.png" width="11px" height="12px" preserveAspectRatio="xMinYMin meet" x="13.5" y="-569"/>
<text text-anchor="start" x="28.5" y="-560.2" font-family="Helvetica,sans-Serif" font-size="11.00">terrain_form</text>
<polygon fill="none" stroke="black" points="8.5,-530 8.5,-552 259.5,-552 259.5,-530 8.5,-530"/>
<image xlink:href="../../images/foreignKeys.png" width="11px" height="12px" preserveAspectRatio="xMinYMin meet" x="13.5" y="-547"/>
<text text-anchor="start" x="28.5" y="-538.2" font-family="Helvetica,sans-Serif" font-size="11.00">management_type</text>
<polygon fill="none" stroke="black" points="8.5,-508 8.5,-530 259.5,-530 259.5,-508 8.5,-508"/>
<image xlink:href="../../images/foreignKeys.png" width="11px" height="12px" preserveAspectRatio="xMinYMin meet" x="13.5" y="-525"/>
<text text-anchor="start" x="28.5" y="-516.2" font-family="Helvetica,sans-Serif" font-size="11.00">harvesting_method</text>
<polygon fill="none" stroke="black" points="8.5,-486 8.5,-508 259.5,-508 259.5,-486 8.5,-486"/>
<image xlink:href="../../images/foreignKeys.png" width="11px" height="12px" preserveAspectRatio="xMinYMin meet" x="13.5" y="-503"/>
<text text-anchor="start" x="28.5" y="-494.2" font-family="Helvetica,sans-Serif" font-size="11.00">layer_type</text>
<polygon fill="none" stroke="black" points="8.5,-464 8.5,-486 259.5,-486 259.5,-464 8.5,-464"/>
<image xlink:href="../../images/foreignKeys.png" width="11px" height="12px" preserveAspectRatio="xMinYMin meet" x="13.5" y="-481"/>
<text text-anchor="start" x="28.5" y="-472.2" font-family="Helvetica,sans-Serif" font-size="11.00">stand_phase</text>
<polygon fill="none" stroke="black" points="8.5,-442 8.5,-464 259.5,-464 259.5,-442 8.5,-442"/>
<image xlink:href="../../images/foreignKeys.png" width="11px" height="12px" preserveAspectRatio="xMinYMin meet" x="13.5" y="-459"/>
<text text-anchor="start" x="28.5" y="-450.2" font-family="Helvetica,sans-Serif" font-size="11.00">sablings_layer</text>
<polygon fill="none" stroke="black" points="8.5,-420 8.5,-442 259.5,-442 259.5,-420 8.5,-420"/>
<image xlink:href="../../images/foreignKeys.png" width="11px" height="12px" preserveAspectRatio="xMinYMin meet" x="13.5" y="-437"/>
<text text-anchor="start" x="28.5" y="-428.2" font-family="Helvetica,sans-Serif" font-size="11.00">trees_less_4meter_mirrored</text>
<polygon fill="none" stroke="black" points="8.5,-398 8.5,-420 259.5,-420 259.5,-398 8.5,-398"/>
<image xlink:href="../../images/foreignKeys.png" width="11px" height="12px" preserveAspectRatio="xMinYMin meet" x="13.5" y="-415"/>
<text text-anchor="start" x="28.5" y="-406.2" font-family="Helvetica,sans-Serif" font-size="11.00">trees_less_4meter_count_factor</text>
<polygon fill="none" stroke="black" points="8.5,-376 8.5,-398 259.5,-398 259.5,-376 8.5,-376"/>
<image xlink:href="../../images/foreignKeys.png" width="11px" height="12px" preserveAspectRatio="xMinYMin meet" x="13.5" y="-393"/>
<text text-anchor="start" x="28.5" y="-384.2" font-family="Helvetica,sans-Serif" font-size="11.00">trees_less_4meter_layer</text>
<polygon fill="none" stroke="black" points="8.5,-358 8.5,-376 259.5,-376 259.5,-358 8.5,-358"/>
<text text-anchor="start" x="11.5" y="-364.2" font-family="Helvetica,sans-Serif" font-size="11.00">...</text>
<polygon fill="#ffffff" stroke="transparent" points="8.5,-340 8.5,-358 259.5,-358 259.5,-340 8.5,-340"/>
<polygon fill="none" stroke="black" points="8.5,-340 8.5,-358 259.5,-358 259.5,-340 8.5,-340"/>
<polygon fill="#ffffff" stroke="transparent" points="9.5,-341 9.5,-357 89.5,-357 89.5,-341 9.5,-341"/>
<text text-anchor="start" x="11.5" y="-346.2" font-family="Helvetica,sans-Serif" font-size="11.00">&lt; 24</text>
<polygon fill="#ffffff" stroke="transparent" points="89.5,-341 89.5,-357 186.5,-357 186.5,-341 89.5,-341"/>
<text text-anchor="start" x="116" y="-346.2" font-family="Helvetica,sans-Serif" font-size="11.00">82 rows</text>
<polygon fill="#ffffff" stroke="transparent" points="186.5,-341 186.5,-357 258.5,-357 258.5,-341 186.5,-341"/>
<text text-anchor="start" x="236.5" y="-346.2" font-family="Helvetica,sans-Serif" font-size="11.00">7 &gt;</text>
<polygon fill="black" stroke="black" points="89.5,-341 89.5,-357 89.5,-357 89.5,-341 89.5,-341"/>
<polygon fill="black" stroke="black" points="186.5,-341 186.5,-357 186.5,-357 186.5,-341 186.5,-341"/>
</a>
</g>
</g>
<!-- deadwood&#45;&gt;plot -->
<g id="edge3" class="edge">
<title>deadwood:w&#45;&gt;plot:e</title>
<path fill="none" stroke="black" d="M294.98,-335.65C59.37,-357.71 523.83,-937 260.5,-937"/>
<polygon fill="black" stroke="black" points="301.51,-335.36 309.66,-338.6 305.5,-335.18 309.5,-335 309.5,-335 309.5,-335 305.5,-335.18 309.34,-331.4 301.51,-335.36 301.51,-335.36"/>
<ellipse fill="none" stroke="black" cx="298.31" cy="-335.5" rx="3.2" ry="3.2"/>
</g>
<!-- lookup_tree_species_group -->
<g id="node5" class="node">
<title>lookup_tree_species_group</title>
<g id="a_node5"><a xlink:href="../../tables/lookup_tree_species_group.html" xlink:title="lookup_tree_species_group" target="_top">
<polygon fill="#ffffff" stroke="transparent" points="11.5,-239 11.5,-319 255.5,-319 255.5,-239 11.5,-239"/>
<polygon fill="#f5f5f5" stroke="transparent" points="11.5,-297 11.5,-319 255.5,-319 255.5,-297 11.5,-297"/>
<polygon fill="none" stroke="black" points="11.5,-297 11.5,-319 255.5,-319 255.5,-297 11.5,-297"/>
<text text-anchor="start" x="16.5" y="-306.2" font-family="Helvetica,sans-Serif" font-weight="bold" font-size="11.00">lookup_tree_species_group</text>
<text text-anchor="start" x="213.5" y="-305.2" font-family="Helvetica,sans-Serif" font-size="11.00">[table]</text>
<polygon fill="#ffffff" stroke="transparent" points="11.5,-275 11.5,-297 255.5,-297 255.5,-275 11.5,-275"/>
<polygon fill="none" stroke="black" points="11.5,-275 11.5,-297 255.5,-297 255.5,-275 11.5,-275"/>
<text text-anchor="start" x="44.5" y="-283.2" font-family="Helvetica,sans-Serif" font-size="11.00">abbreviation</text>
<polygon fill="none" stroke="black" points="11.5,-257 11.5,-275 255.5,-275 255.5,-257 11.5,-257"/>
<text text-anchor="start" x="14.5" y="-263.2" font-family="Helvetica,sans-Serif" font-size="11.00">...</text>
<polygon fill="#ffffff" stroke="transparent" points="11.5,-239 11.5,-257 255.5,-257 255.5,-239 11.5,-239"/>
<polygon fill="none" stroke="black" points="11.5,-239 11.5,-257 255.5,-257 255.5,-239 11.5,-239"/>
<polygon fill="#ffffff" stroke="transparent" points="12.5,-240 12.5,-256 79.5,-256 79.5,-240 12.5,-240"/>
<text text-anchor="start" x="14.5" y="-245.2" font-family="Helvetica,sans-Serif" font-size="11.00"> &#160;</text>
<polygon fill="#ffffff" stroke="transparent" points="79.5,-240 79.5,-256 175.5,-256 175.5,-240 79.5,-240"/>
<text text-anchor="start" x="109" y="-245.2" font-family="Helvetica,sans-Serif" font-size="11.00">0 rows</text>
<polygon fill="#ffffff" stroke="transparent" points="175.5,-240 175.5,-256 254.5,-256 254.5,-240 175.5,-240"/>
<text text-anchor="start" x="232.5" y="-245.2" font-family="Helvetica,sans-Serif" font-size="11.00">1 &gt;</text>
<polygon fill="black" stroke="black" points="79.5,-240 79.5,-256 79.5,-256 79.5,-240 79.5,-240"/>
<polygon fill="black" stroke="black" points="175.5,-240 175.5,-256 175.5,-256 175.5,-240 175.5,-240"/>
</a>
</g>
</g>
<!-- deadwood&#45;&gt;lookup_tree_species_group -->
<g id="edge4" class="edge">
<title>deadwood:w&#45;&gt;lookup_tree_species_group:e</title>
<path fill="none" stroke="black" d="M295.4,-251.17C281.05,-261.23 279.81,-286 256.5,-286"/>
<polygon fill="black" stroke="black" points="301.83,-249.27 310.52,-250.45 305.66,-248.14 309.5,-247 309.5,-247 309.5,-247 305.66,-248.14 308.48,-243.55 301.83,-249.27 301.83,-249.27"/>
<ellipse fill="none" stroke="black" cx="298.76" cy="-250.18" rx="3.2" ry="3.2"/>
</g>
</g>
</svg>
