<?xml version="1.0" encoding="UTF-8" standalone="no"?>
<!DOCTYPE svg PUBLIC "-//W3C//DTD SVG 1.1//EN"
 "http://www.w3.org/Graphics/SVG/1.1/DTD/svg11.dtd">
<!-- Generated by graphviz version 2.43.0 (0)
 -->
<!-- Title: oneDegreeRelationshipsDiagram Pages: 1 -->
<svg width="882pt" height="806pt"
 viewBox="0.00 0.00 882.00 806.00" xmlns="http://www.w3.org/2000/svg" xmlns:xlink="http://www.w3.org/1999/xlink">
<g id="graph0" class="graph" transform="scale(1 1) rotate(0) translate(4 802)">
<title>oneDegreeRelationshipsDiagram</title>
<polygon fill="#ffffff" stroke="transparent" points="-4,4 -4,-802 878,-802 878,4 -4,4"/>
<text text-anchor="middle" x="79.5" y="-7.2" font-family="Helvetica,sans-Serif" font-size="11.00">Generated by SchemaSpy</text>
<!-- deadwood -->
<g id="node1" class="node">
<title>deadwood</title>
<g id="a_node1"><a xlink:href="../../tables/deadwood.html" xlink:title="deadwood" target="_top">
<polygon fill="#ffffff" stroke="transparent" points="345,-61 345,-391 866,-391 866,-61 345,-61"/>
<polygon fill="#f5f5f5" stroke="transparent" points="347.5,-367 347.5,-389 864.5,-389 864.5,-367 347.5,-367"/>
<polygon fill="none" stroke="black" points="347.5,-367 347.5,-389 864.5,-389 864.5,-367 347.5,-367"/>
<text text-anchor="start" x="352.5" y="-376.2" font-family="Helvetica,sans-Serif" font-weight="bold" font-size="11.00">deadwood</text>
<text text-anchor="start" x="822.5" y="-375.2" font-family="Helvetica,sans-Serif" font-size="11.00">[table]</text>
<polygon fill="none" stroke="black" points="347.5,-345 347.5,-367 509.5,-367 509.5,-345 347.5,-345"/>
<image xlink:href="../../images/primaryKeys.png" width="11px" height="12px" preserveAspectRatio="xMinYMin meet" x="352.5" y="-362"/>
<text text-anchor="start" x="367.5" y="-353.2" font-family="Helvetica,sans-Serif" font-size="11.00">id</text>
<polygon fill="none" stroke="black" points="509.5,-345 509.5,-367 864.5,-367 864.5,-345 509.5,-345"/>
<text text-anchor="start" x="512.5" y="-353.2" font-family="Helvetica,sans-Serif" font-size="11.00">serial[10]</text>
<polygon fill="none" stroke="black" points="347.5,-323 347.5,-345 509.5,-345 509.5,-323 347.5,-323"/>
<image xlink:href="../../images/foreignKeys.png" width="11px" height="12px" preserveAspectRatio="xMinYMin meet" x="352.5" y="-340"/>
<text text-anchor="start" x="367.5" y="-331.2" font-family="Helvetica,sans-Serif" font-size="11.00">plot_id</text>
<polygon fill="none" stroke="black" points="509.5,-323 509.5,-345 864.5,-345 864.5,-323 509.5,-323"/>
<text text-anchor="start" x="512.5" y="-331.2" font-family="Helvetica,sans-Serif" font-size="11.00">int4[10]</text>
<polygon fill="none" stroke="black" points="347.5,-301 347.5,-323 509.5,-323 509.5,-301 347.5,-301"/>
<text text-anchor="start" x="367.5" y="-309.2" font-family="Helvetica,sans-Serif" font-size="11.00">created_at</text>
<polygon fill="none" stroke="black" points="509.5,-301 509.5,-323 864.5,-323 864.5,-301 509.5,-301"/>
<text text-anchor="start" x="512.5" y="-309.2" font-family="Helvetica,sans-Serif" font-size="11.00">timestamp[29,6]</text>
<polygon fill="none" stroke="black" points="347.5,-279 347.5,-301 509.5,-301 509.5,-279 347.5,-279"/>
<text text-anchor="start" x="367.5" y="-287.2" font-family="Helvetica,sans-Serif" font-size="11.00">modified_at</text>
<polygon fill="none" stroke="black" points="509.5,-279 509.5,-301 864.5,-301 864.5,-279 509.5,-279"/>
<text text-anchor="start" x="512.5" y="-287.2" font-family="Helvetica,sans-Serif" font-size="11.00">timestamp[29,6]</text>
<polygon fill="none" stroke="black" points="347.5,-257 347.5,-279 509.5,-279 509.5,-257 347.5,-257"/>
<text text-anchor="start" x="367.5" y="-265.2" font-family="Helvetica,sans-Serif" font-size="11.00">modified_by</text>
<polygon fill="none" stroke="black" points="509.5,-257 509.5,-279 864.5,-279 864.5,-257 509.5,-257"/>
<text text-anchor="start" x="512.5" y="-265.2" font-family="Helvetica,sans-Serif" font-size="11.00">regrole[2147483647]</text>
<polygon fill="none" stroke="black" points="347.5,-235 347.5,-257 509.5,-257 509.5,-235 347.5,-235"/>
<image xlink:href="../../images/foreignKeys.png" width="11px" height="12px" preserveAspectRatio="xMinYMin meet" x="352.5" y="-252"/>
<text text-anchor="start" x="367.5" y="-243.2" font-family="Helvetica,sans-Serif" font-size="11.00">tree_species_group</text>
<polygon fill="none" stroke="black" points="509.5,-235 509.5,-257 864.5,-257 864.5,-235 509.5,-235"/>
<text text-anchor="start" x="512.5" y="-243.2" font-family="Helvetica,sans-Serif" font-size="11.00">&quot;private_ci2027_001&quot;.&quot;enum_tree_species_group&quot;[2147483647]</text>
<polygon fill="none" stroke="black" points="347.5,-213 347.5,-235 509.5,-235 509.5,-213 347.5,-213"/>
<image xlink:href="../../images/foreignKeys.png" width="11px" height="12px" preserveAspectRatio="xMinYMin meet" x="352.5" y="-230"/>
<text text-anchor="start" x="367.5" y="-221.2" font-family="Helvetica,sans-Serif" font-size="11.00">dead_wood_type</text>
<polygon fill="none" stroke="black" points="509.5,-213 509.5,-235 864.5,-235 864.5,-213 509.5,-213"/>
<text text-anchor="start" x="512.5" y="-221.2" font-family="Helvetica,sans-Serif" font-size="11.00">&quot;private_ci2027_001&quot;.&quot;enum_dead_wood_type&quot;[2147483647]</text>
<polygon fill="none" stroke="black" points="347.5,-191 347.5,-213 509.5,-213 509.5,-191 347.5,-191"/>
<image xlink:href="../../images/foreignKeys.png" width="11px" height="12px" preserveAspectRatio="xMinYMin meet" x="352.5" y="-208"/>
<text text-anchor="start" x="367.5" y="-199.2" font-family="Helvetica,sans-Serif" font-size="11.00">decomposition</text>
<polygon fill="none" stroke="black" points="509.5,-191 509.5,-213 864.5,-213 864.5,-191 509.5,-191"/>
<text text-anchor="start" x="512.5" y="-199.2" font-family="Helvetica,sans-Serif" font-size="11.00">&quot;private_ci2027_001&quot;.&quot;enum_decomposition&quot;[2147483647]</text>
<polygon fill="none" stroke="black" points="347.5,-169 347.5,-191 509.5,-191 509.5,-169 347.5,-169"/>
<text text-anchor="start" x="367.5" y="-177.2" font-family="Helvetica,sans-Serif" font-size="11.00">length_height</text>
<polygon fill="none" stroke="black" points="509.5,-169 509.5,-191 864.5,-191 864.5,-169 509.5,-169"/>
<text text-anchor="start" x="512.5" y="-177.2" font-family="Helvetica,sans-Serif" font-size="11.00">int2[5]</text>
<polygon fill="none" stroke="black" points="347.5,-147 347.5,-169 509.5,-169 509.5,-147 347.5,-147"/>
<text text-anchor="start" x="367.5" y="-155.2" font-family="Helvetica,sans-Serif" font-size="11.00">diameter_butt</text>
<polygon fill="none" stroke="black" points="509.5,-147 509.5,-169 864.5,-169 864.5,-147 509.5,-147"/>
<text text-anchor="start" x="512.5" y="-155.2" font-family="Helvetica,sans-Serif" font-size="11.00">&quot;private_ci2027_001&quot;.&quot;ck_bhd&quot;[10]</text>
<polygon fill="none" stroke="black" points="347.5,-125 347.5,-147 509.5,-147 509.5,-125 347.5,-125"/>
<text text-anchor="start" x="367.5" y="-133.2" font-family="Helvetica,sans-Serif" font-size="11.00">diameter_top</text>
<polygon fill="none" stroke="black" points="509.5,-125 509.5,-147 864.5,-147 864.5,-125 509.5,-125"/>
<text text-anchor="start" x="512.5" y="-133.2" font-family="Helvetica,sans-Serif" font-size="11.00">&quot;private_ci2027_001&quot;.&quot;ck_bhd&quot;[10]</text>
<polygon fill="none" stroke="black" points="347.5,-103 347.5,-125 509.5,-125 509.5,-103 347.5,-103"/>
<text text-anchor="start" x="367.5" y="-111.2" font-family="Helvetica,sans-Serif" font-size="11.00">count</text>
<polygon fill="none" stroke="black" points="509.5,-103 509.5,-125 864.5,-125 864.5,-103 509.5,-103"/>
<text text-anchor="start" x="512.5" y="-111.2" font-family="Helvetica,sans-Serif" font-size="11.00">int2[5]</text>
<polygon fill="none" stroke="black" points="347.5,-81 347.5,-103 509.5,-103 509.5,-81 347.5,-81"/>
<text text-anchor="start" x="367.5" y="-89.2" font-family="Helvetica,sans-Serif" font-size="11.00">bark_pocket</text>
<polygon fill="none" stroke="black" points="509.5,-81 509.5,-103 864.5,-103 864.5,-81 509.5,-81"/>
<text text-anchor="start" x="512.5" y="-89.2" font-family="Helvetica,sans-Serif" font-size="11.00">int2[5]</text>
<polygon fill="#ffffff" stroke="transparent" points="347.5,-63 347.5,-81 864.5,-81 864.5,-63 347.5,-63"/>
<polygon fill="none" stroke="black" points="347.5,-63 347.5,-81 864.5,-81 864.5,-63 347.5,-63"/>
<polygon fill="#ffffff" stroke="transparent" points="348.5,-64 348.5,-80 514.5,-80 514.5,-64 348.5,-64"/>
<text text-anchor="start" x="350.5" y="-69.2" font-family="Helvetica,sans-Serif" font-size="11.00">&lt; 4</text>
<polygon fill="#ffffff" stroke="transparent" points="514.5,-64 514.5,-80 697.5,-80 697.5,-64 514.5,-64"/>
<text text-anchor="start" x="587.5" y="-69.2" font-family="Helvetica,sans-Serif" font-size="11.00">0 rows</text>
<polygon fill="#ffffff" stroke="transparent" points="697.5,-64 697.5,-80 863.5,-80 863.5,-64 697.5,-64"/>
<text text-anchor="start" x="841.5" y="-69.2" font-family="Helvetica,sans-Serif" font-size="11.00">0 &gt;</text>
<polygon fill="black" stroke="black" points="514.5,-64 514.5,-80 514.5,-80 514.5,-64 514.5,-64"/>
<polygon fill="black" stroke="black" points="697.5,-64 697.5,-80 697.5,-80 697.5,-64 697.5,-64"/>
<polygon fill="none" stroke="black" stroke-width="2" points="346,-62 346,-390 865,-390 865,-62 346,-62"/>
</a>
</g>
</g>
<!-- lookup_dead_wood_type -->
<g id="node2" class="node">
<title>lookup_dead_wood_type</title>
<g id="a_node2"><a xlink:href="../../tables/lookup_dead_wood_type.html" xlink:title="lookup_dead_wood_type" target="_top">
<polygon fill="#ffffff" stroke="transparent" points="40,-138 40,-218 264,-218 264,-138 40,-138"/>
<polygon fill="#f5f5f5" stroke="transparent" points="40,-196 40,-218 264,-218 264,-196 40,-196"/>
<polygon fill="none" stroke="black" points="40,-196 40,-218 264,-218 264,-196 40,-196"/>
<text text-anchor="start" x="45" y="-205.2" font-family="Helvetica,sans-Serif" font-weight="bold" font-size="11.00">lookup_dead_wood_type</text>
<text text-anchor="start" x="222" y="-204.2" font-family="Helvetica,sans-Serif" font-size="11.00">[table]</text>
<polygon fill="#ffffff" stroke="transparent" points="40,-174 40,-196 264,-196 264,-174 40,-174"/>
<polygon fill="none" stroke="black" points="40,-174 40,-196 264,-196 264,-174 40,-174"/>
<text text-anchor="start" x="73" y="-182.2" font-family="Helvetica,sans-Serif" font-size="11.00">abbreviation</text>
<polygon fill="none" stroke="black" points="40,-156 40,-174 264,-174 264,-156 40,-156"/>
<text text-anchor="start" x="43" y="-162.2" font-family="Helvetica,sans-Serif" font-size="11.00">...</text>
<polygon fill="#ffffff" stroke="transparent" points="40,-138 40,-156 264,-156 264,-138 40,-138"/>
<polygon fill="none" stroke="black" points="40,-138 40,-156 264,-156 264,-138 40,-138"/>
<polygon fill="#ffffff" stroke="transparent" points="41,-139 41,-155 102,-155 102,-139 41,-139"/>
<text text-anchor="start" x="43" y="-144.2" font-family="Helvetica,sans-Serif" font-size="11.00"> &#160;</text>
<polygon fill="#ffffff" stroke="transparent" points="102,-139 102,-155 191,-155 191,-139 102,-139"/>
<text text-anchor="start" x="128" y="-144.2" font-family="Helvetica,sans-Serif" font-size="11.00">0 rows</text>
<polygon fill="#ffffff" stroke="transparent" points="191,-139 191,-155 263,-155 263,-139 191,-139"/>
<text text-anchor="start" x="241" y="-144.2" font-family="Helvetica,sans-Serif" font-size="11.00">1 &gt;</text>
<polygon fill="black" stroke="black" points="102,-139 102,-155 102,-155 102,-139 102,-139"/>
<polygon fill="black" stroke="black" points="191,-139 191,-155 191,-155 191,-139 191,-139"/>
</a>
</g>
</g>
<!-- deadwood&#45;&gt;lookup_dead_wood_type -->
<g id="edge1" class="edge">
<title>deadwood:w&#45;&gt;lookup_dead_wood_type:e</title>
<path fill="none" stroke="black" d="M332.02,-222.01C305.29,-214.06 299.67,-185 265,-185"/>
<polygon fill="black" stroke="black" points="338.57,-222.91 346.01,-227.57 342.54,-223.46 346.5,-224 346.5,-224 346.5,-224 342.54,-223.46 346.99,-220.43 338.57,-222.91 338.57,-222.91"/>
<ellipse fill="none" stroke="black" cx="335.4" cy="-222.48" rx="3.2" ry="3.2"/>
</g>
<!-- lookup_decomposition -->
<g id="node3" class="node">
<title>lookup_decomposition</title>
<g id="a_node3"><a xlink:href="../../tables/lookup_decomposition.html" xlink:title="lookup_decomposition" target="_top">
<polygon fill="#ffffff" stroke="transparent" points="47,-37 47,-117 257,-117 257,-37 47,-37"/>
<polygon fill="#f5f5f5" stroke="transparent" points="47,-95 47,-117 257,-117 257,-95 47,-95"/>
<polygon fill="none" stroke="black" points="47,-95 47,-117 257,-117 257,-95 47,-95"/>
<text text-anchor="start" x="52" y="-104.2" font-family="Helvetica,sans-Serif" font-weight="bold" font-size="11.00">lookup_decomposition</text>
<text text-anchor="start" x="215" y="-103.2" font-family="Helvetica,sans-Serif" font-size="11.00">[table]</text>
<polygon fill="#ffffff" stroke="transparent" points="47,-73 47,-95 257,-95 257,-73 47,-73"/>
<polygon fill="none" stroke="black" points="47,-73 47,-95 257,-95 257,-73 47,-73"/>
<text text-anchor="start" x="80" y="-81.2" font-family="Helvetica,sans-Serif" font-size="11.00">abbreviation</text>
<polygon fill="none" stroke="black" points="47,-55 47,-73 257,-73 257,-55 47,-55"/>
<text text-anchor="start" x="50" y="-61.2" font-family="Helvetica,sans-Serif" font-size="11.00">...</text>
<polygon fill="#ffffff" stroke="transparent" points="47,-37 47,-55 257,-55 257,-37 47,-37"/>
<polygon fill="none" stroke="black" points="47,-37 47,-55 257,-55 257,-37 47,-37"/>
<polygon fill="#ffffff" stroke="transparent" points="48,-38 48,-54 104,-54 104,-38 48,-38"/>
<text text-anchor="start" x="50" y="-43.2" font-family="Helvetica,sans-Serif" font-size="11.00"> &#160;</text>
<polygon fill="#ffffff" stroke="transparent" points="104,-38 104,-54 189,-54 189,-38 104,-38"/>
<text text-anchor="start" x="128" y="-43.2" font-family="Helvetica,sans-Serif" font-size="11.00">0 rows</text>
<polygon fill="#ffffff" stroke="transparent" points="189,-38 189,-54 256,-54 256,-38 189,-38"/>
<text text-anchor="start" x="234" y="-43.2" font-family="Helvetica,sans-Serif" font-size="11.00">1 &gt;</text>
<polygon fill="black" stroke="black" points="104,-38 104,-54 104,-54 104,-38 104,-38"/>
<polygon fill="black" stroke="black" points="189,-38 189,-54 189,-54 189,-38 189,-38"/>
</a>
</g>
</g>
<!-- deadwood&#45;&gt;lookup_decomposition -->
<g id="edge2" class="edge">
<title>deadwood:w&#45;&gt;lookup_decomposition:e</title>
<path fill="none" stroke="black" d="M332.24,-198.84C313.52,-188.23 323.64,-153.08 304,-128 286.55,-105.73 286.29,-84 258,-84"/>
<polygon fill="black" stroke="black" points="338.69,-200.27 345.72,-205.51 342.59,-201.14 346.5,-202 346.5,-202 346.5,-202 342.59,-201.14 347.28,-198.49 338.69,-200.27 338.69,-200.27"/>
<ellipse fill="none" stroke="black" cx="335.56" cy="-199.58" rx="3.2" ry="3.2"/>
</g>
<!-- plot -->
<g id="node4" class="node">
<title>plot</title>
<g id="a_node4"><a xlink:href="../../tables/plot.html" xlink:title="plot" target="_top">
<polygon fill="#ffffff" stroke="transparent" points="8,-340 8,-794 296,-794 296,-340 8,-340"/>
<polygon fill="#f5f5f5" stroke="transparent" points="8,-772 8,-794 296,-794 296,-772 8,-772"/>
<polygon fill="none" stroke="black" points="8,-772 8,-794 296,-794 296,-772 8,-772"/>
<text text-anchor="start" x="12.5" y="-781.2" font-family="Helvetica,sans-Serif" font-weight="bold" font-size="11.00">plot</text>
<text text-anchor="start" x="254" y="-780.2" font-family="Helvetica,sans-Serif" font-size="11.00">[table]</text>
<polygon fill="none" stroke="black" points="8,-750 8,-772 296,-772 296,-750 8,-750"/>
<image xlink:href="../../images/primaryKeys.png" width="11px" height="12px" preserveAspectRatio="xMinYMin meet" x="13" y="-767"/>
<text text-anchor="start" x="28" y="-758.2" font-family="Helvetica,sans-Serif" font-size="11.00">id</text>
<polygon fill="#ffffff" stroke="transparent" points="8,-728 8,-750 296,-750 296,-728 8,-728"/>
<polygon fill="none" stroke="black" points="8,-728 8,-750 296,-750 296,-728 8,-728"/>
<image xlink:href="../../images/foreignKeys.png" width="11px" height="12px" preserveAspectRatio="xMinYMin meet" x="13" y="-745"/>
<text text-anchor="start" x="28" y="-736.2" font-family="Helvetica,sans-Serif" font-size="11.00">cluster_id</text>
<polygon fill="#ffffff" stroke="transparent" points="8,-706 8,-728 296,-728 296,-706 8,-706"/>
<polygon fill="none" stroke="black" points="8,-706 8,-728 296,-728 296,-706 8,-706"/>
<text text-anchor="start" x="28" y="-714.2" font-family="Helvetica,sans-Serif" font-size="11.00">plot_name</text>
<polygon fill="none" stroke="black" points="8,-684 8,-706 296,-706 296,-684 8,-684"/>
<image xlink:href="../../images/foreignKeys.png" width="11px" height="12px" preserveAspectRatio="xMinYMin meet" x="13" y="-701"/>
<text text-anchor="start" x="28" y="-692.2" font-family="Helvetica,sans-Serif" font-size="11.00">growth_district</text>
<polygon fill="none" stroke="black" points="8,-662 8,-684 296,-684 296,-662 8,-662"/>
<image xlink:href="../../images/foreignKeys.png" width="11px" height="12px" preserveAspectRatio="xMinYMin meet" x="13" y="-679"/>
<text text-anchor="start" x="28" y="-670.2" font-family="Helvetica,sans-Serif" font-size="11.00">forest_status</text>
<polygon fill="none" stroke="black" points="8,-640 8,-662 296,-662 296,-640 8,-640"/>
<image xlink:href="../../images/foreignKeys.png" width="11px" height="12px" preserveAspectRatio="xMinYMin meet" x="13" y="-657"/>
<text text-anchor="start" x="28" y="-648.2" font-family="Helvetica,sans-Serif" font-size="11.00">elevation_level</text>
<polygon fill="none" stroke="black" points="8,-618 8,-640 296,-640 296,-618 8,-618"/>
<image xlink:href="../../images/foreignKeys.png" width="11px" height="12px" preserveAspectRatio="xMinYMin meet" x="13" y="-635"/>
<text text-anchor="start" x="28" y="-626.2" font-family="Helvetica,sans-Serif" font-size="11.00">property_type</text>
<polygon fill="none" stroke="black" points="8,-596 8,-618 296,-618 296,-596 8,-596"/>
<image xlink:href="../../images/foreignKeys.png" width="11px" height="12px" preserveAspectRatio="xMinYMin meet" x="13" y="-613"/>
<text text-anchor="start" x="28" y="-604.2" font-family="Helvetica,sans-Serif" font-size="11.00">property_size_class</text>
<polygon fill="none" stroke="black" points="8,-574 8,-596 296,-596 296,-574 8,-574"/>
<image xlink:href="../../images/foreignKeys.png" width="11px" height="12px" preserveAspectRatio="xMinYMin meet" x="13" y="-591"/>
<text text-anchor="start" x="28" y="-582.2" font-family="Helvetica,sans-Serif" font-size="11.00">land_use_after</text>
<polygon fill="none" stroke="black" points="8,-552 8,-574 296,-574 296,-552 8,-552"/>
<image xlink:href="../../images/foreignKeys.png" width="11px" height="12px" preserveAspectRatio="xMinYMin meet" x="13" y="-569"/>
<text text-anchor="start" x="28" y="-560.2" font-family="Helvetica,sans-Serif" font-size="11.00">marker_status</text>
<polygon fill="none" stroke="black" points="8,-530 8,-552 296,-552 296,-530 8,-530"/>
<image xlink:href="../../images/foreignKeys.png" width="11px" height="12px" preserveAspectRatio="xMinYMin meet" x="13" y="-547"/>
<text text-anchor="start" x="28" y="-538.2" font-family="Helvetica,sans-Serif" font-size="11.00">marker_profile</text>
<polygon fill="none" stroke="black" points="8,-508 8,-530 296,-530 296,-508 8,-508"/>
<image xlink:href="../../images/foreignKeys.png" width="11px" height="12px" preserveAspectRatio="xMinYMin meet" x="13" y="-525"/>
<text text-anchor="start" x="28" y="-516.2" font-family="Helvetica,sans-Serif" font-size="11.00">terrain_form</text>
<polygon fill="none" stroke="black" points="8,-486 8,-508 296,-508 296,-486 8,-486"/>
<image xlink:href="../../images/foreignKeys.png" width="11px" height="12px" preserveAspectRatio="xMinYMin meet" x="13" y="-503"/>
<text text-anchor="start" x="28" y="-494.2" font-family="Helvetica,sans-Serif" font-size="11.00">management_type</text>
<polygon fill="none" stroke="black" points="8,-464 8,-486 296,-486 296,-464 8,-464"/>
<image xlink:href="../../images/foreignKeys.png" width="11px" height="12px" preserveAspectRatio="xMinYMin meet" x="13" y="-481"/>
<text text-anchor="start" x="28" y="-472.2" font-family="Helvetica,sans-Serif" font-size="11.00">harvesting_method</text>
<polygon fill="none" stroke="black" points="8,-442 8,-464 296,-464 296,-442 8,-442"/>
<image xlink:href="../../images/foreignKeys.png" width="11px" height="12px" preserveAspectRatio="xMinYMin meet" x="13" y="-459"/>
<text text-anchor="start" x="28" y="-450.2" font-family="Helvetica,sans-Serif" font-size="11.00">stand_structure</text>
<polygon fill="none" stroke="black" points="8,-420 8,-442 296,-442 296,-420 8,-420"/>
<image xlink:href="../../images/foreignKeys.png" width="11px" height="12px" preserveAspectRatio="xMinYMin meet" x="13" y="-437"/>
<text text-anchor="start" x="28" y="-428.2" font-family="Helvetica,sans-Serif" font-size="11.00">stand_dev_phase</text>
<polygon fill="none" stroke="black" points="8,-398 8,-420 296,-420 296,-398 8,-398"/>
<image xlink:href="../../images/foreignKeys.png" width="11px" height="12px" preserveAspectRatio="xMinYMin meet" x="13" y="-415"/>
<text text-anchor="start" x="28" y="-406.2" font-family="Helvetica,sans-Serif" font-size="11.00">stand_layer_reg</text>
<polygon fill="none" stroke="black" points="8,-376 8,-398 296,-398 296,-376 8,-376"/>
<image xlink:href="../../images/foreignKeys.png" width="11px" height="12px" preserveAspectRatio="xMinYMin meet" x="13" y="-393"/>
<text text-anchor="start" x="28" y="-384.2" font-family="Helvetica,sans-Serif" font-size="11.00">trees_less_4meter_mirrored</text>
<polygon fill="none" stroke="black" points="8,-358 8,-376 296,-376 296,-358 8,-358"/>
<text text-anchor="start" x="11" y="-364.2" font-family="Helvetica,sans-Serif" font-size="11.00">...</text>
<polygon fill="#ffffff" stroke="transparent" points="8,-340 8,-358 296,-358 296,-340 8,-340"/>
<polygon fill="none" stroke="black" points="8,-340 8,-358 296,-358 296,-340 8,-340"/>
<polygon fill="#ffffff" stroke="transparent" points="9,-341 9,-357 104,-357 104,-341 9,-341"/>
<text text-anchor="start" x="11" y="-346.2" font-family="Helvetica,sans-Serif" font-size="11.00">&lt; 16</text>
<polygon fill="#ffffff" stroke="transparent" points="104,-341 104,-357 208,-357 208,-341 104,-341"/>
<text text-anchor="start" x="137.5" y="-346.2" font-family="Helvetica,sans-Serif" font-size="11.00">0 rows</text>
<polygon fill="#ffffff" stroke="transparent" points="208,-341 208,-357 295,-357 295,-341 208,-341"/>
<text text-anchor="start" x="273" y="-346.2" font-family="Helvetica,sans-Serif" font-size="11.00">7 &gt;</text>
<polygon fill="black" stroke="black" points="104,-341 104,-357 104,-357 104,-341 104,-341"/>
<polygon fill="black" stroke="black" points="208,-341 208,-357 208,-357 208,-341 208,-341"/>
</a>
</g>
</g>
<!-- deadwood&#45;&gt;plot -->
<g id="edge3" class="edge">
<title>deadwood:w&#45;&gt;plot:e</title>
<path fill="none" stroke="black" d="M331.98,-334.94C173.25,-357.03 482.82,-761 297,-761"/>
<polygon fill="black" stroke="black" points="338.52,-334.52 346.73,-337.59 342.51,-334.26 346.5,-334 346.5,-334 346.5,-334 342.51,-334.26 346.27,-330.41 338.52,-334.52 338.52,-334.52"/>
<ellipse fill="none" stroke="black" cx="335.32" cy="-334.72" rx="3.2" ry="3.2"/>
</g>
<!-- lookup_tree_species_group -->
<g id="node5" class="node">
<title>lookup_tree_species_group</title>
<g id="a_node5"><a xlink:href="../../tables/lookup_tree_species_group.html" xlink:title="lookup_tree_species_group" target="_top">
<polygon fill="#ffffff" stroke="transparent" points="30,-239 30,-319 274,-319 274,-239 30,-239"/>
<polygon fill="#f5f5f5" stroke="transparent" points="30,-297 30,-319 274,-319 274,-297 30,-297"/>
<polygon fill="none" stroke="black" points="30,-297 30,-319 274,-319 274,-297 30,-297"/>
<text text-anchor="start" x="35" y="-306.2" font-family="Helvetica,sans-Serif" font-weight="bold" font-size="11.00">lookup_tree_species_group</text>
<text text-anchor="start" x="232" y="-305.2" font-family="Helvetica,sans-Serif" font-size="11.00">[table]</text>
<polygon fill="#ffffff" stroke="transparent" points="30,-275 30,-297 274,-297 274,-275 30,-275"/>
<polygon fill="none" stroke="black" points="30,-275 30,-297 274,-297 274,-275 30,-275"/>
<text text-anchor="start" x="63" y="-283.2" font-family="Helvetica,sans-Serif" font-size="11.00">abbreviation</text>
<polygon fill="none" stroke="black" points="30,-257 30,-275 274,-275 274,-257 30,-257"/>
<text text-anchor="start" x="33" y="-263.2" font-family="Helvetica,sans-Serif" font-size="11.00">...</text>
<polygon fill="#ffffff" stroke="transparent" points="30,-239 30,-257 274,-257 274,-239 30,-239"/>
<polygon fill="none" stroke="black" points="30,-239 30,-257 274,-257 274,-239 30,-239"/>
<polygon fill="#ffffff" stroke="transparent" points="31,-240 31,-256 98,-256 98,-240 31,-240"/>
<text text-anchor="start" x="33" y="-245.2" font-family="Helvetica,sans-Serif" font-size="11.00"> &#160;</text>
<polygon fill="#ffffff" stroke="transparent" points="98,-240 98,-256 194,-256 194,-240 98,-240"/>
<text text-anchor="start" x="127.5" y="-245.2" font-family="Helvetica,sans-Serif" font-size="11.00">0 rows</text>
<polygon fill="#ffffff" stroke="transparent" points="194,-240 194,-256 273,-256 273,-240 194,-240"/>
<text text-anchor="start" x="251" y="-245.2" font-family="Helvetica,sans-Serif" font-size="11.00">1 &gt;</text>
<polygon fill="black" stroke="black" points="98,-240 98,-256 98,-256 98,-240 98,-240"/>
<polygon fill="black" stroke="black" points="194,-240 194,-256 194,-256 194,-240 194,-240"/>
</a>
</g>
</g>
<!-- deadwood&#45;&gt;lookup_tree_species_group -->
<g id="edge4" class="edge">
<title>deadwood:w&#45;&gt;lookup_tree_species_group:e</title>
<path fill="none" stroke="black" d="M332.22,-248.5C309.62,-257.26 305.87,-286 275,-286"/>
<polygon fill="black" stroke="black" points="338.62,-247.38 347.12,-249.55 342.56,-246.69 346.5,-246 346.5,-246 346.5,-246 342.56,-246.69 345.88,-242.45 338.62,-247.38 338.62,-247.38"/>
<ellipse fill="none" stroke="black" cx="335.47" cy="-247.93" rx="3.2" ry="3.2"/>
</g>
</g>
</svg>
