<?xml version="1.0" encoding="UTF-8" standalone="no"?>
<!DOCTYPE svg PUBLIC "-//W3C//DTD SVG 1.1//EN"
 "http://www.w3.org/Graphics/SVG/1.1/DTD/svg11.dtd">
<!-- Generated by graphviz version 2.43.0 (0)
 -->
<!-- Title: oneDegreeRelationshipsDiagram Pages: 1 -->
<svg width="747pt" height="982pt"
 viewBox="0.00 0.00 747.00 982.00" xmlns="http://www.w3.org/2000/svg" xmlns:xlink="http://www.w3.org/1999/xlink">
<g id="graph0" class="graph" transform="scale(1 1) rotate(0) translate(4 978)">
<title>oneDegreeRelationshipsDiagram</title>
<polygon fill="#ffffff" stroke="transparent" points="-4,4 -4,-978 743,-978 743,4 -4,4"/>
<text text-anchor="middle" x="79.5" y="-7.2" font-family="Helvetica,sans-Serif" font-size="11.00">Generated by SchemaSpy</text>
<!-- edges -->
<g id="node1" class="node">
<title>edges</title>
<g id="a_node1"><a xlink:href="../../tables/edges.html" xlink:title="edges" target="_top">
<polygon fill="#ffffff" stroke="transparent" points="308,-150 308,-392 731,-392 731,-150 308,-150"/>
<polygon fill="#f5f5f5" stroke="transparent" points="310.5,-368 310.5,-390 729.5,-390 729.5,-368 310.5,-368"/>
<polygon fill="none" stroke="black" points="310.5,-368 310.5,-390 729.5,-390 729.5,-368 310.5,-368"/>
<text text-anchor="start" x="315.5" y="-377.2" font-family="Helvetica,sans-Serif" font-weight="bold" font-size="11.00">edges</text>
<text text-anchor="start" x="687.5" y="-376.2" font-family="Helvetica,sans-Serif" font-size="11.00">[table]</text>
<polygon fill="none" stroke="black" points="310.5,-346 310.5,-368 419.5,-368 419.5,-346 310.5,-346"/>
<image xlink:href="../../images/primaryKeys.png" width="11px" height="12px" preserveAspectRatio="xMinYMin meet" x="315.5" y="-363"/>
<text text-anchor="start" x="330.5" y="-354.2" font-family="Helvetica,sans-Serif" font-size="11.00">id</text>
<polygon fill="none" stroke="black" points="419.5,-346 419.5,-368 729.5,-368 729.5,-346 419.5,-346"/>
<text text-anchor="start" x="422.5" y="-354.2" font-family="Helvetica,sans-Serif" font-size="11.00">serial[10]</text>
<polygon fill="none" stroke="black" points="310.5,-324 310.5,-346 419.5,-346 419.5,-324 310.5,-324"/>
<image xlink:href="../../images/foreignKeys.png" width="11px" height="12px" preserveAspectRatio="xMinYMin meet" x="315.5" y="-341"/>
<text text-anchor="start" x="330.5" y="-332.2" font-family="Helvetica,sans-Serif" font-size="11.00">plot_id</text>
<polygon fill="none" stroke="black" points="419.5,-324 419.5,-346 729.5,-346 729.5,-324 419.5,-324"/>
<text text-anchor="start" x="422.5" y="-332.2" font-family="Helvetica,sans-Serif" font-size="11.00">int4[10]</text>
<polygon fill="none" stroke="black" points="310.5,-302 310.5,-324 419.5,-324 419.5,-302 310.5,-302"/>
<text text-anchor="start" x="330.5" y="-310.2" font-family="Helvetica,sans-Serif" font-size="11.00">created_at</text>
<polygon fill="none" stroke="black" points="419.5,-302 419.5,-324 729.5,-324 729.5,-302 419.5,-302"/>
<text text-anchor="start" x="422.5" y="-310.2" font-family="Helvetica,sans-Serif" font-size="11.00">timestamp[29,6]</text>
<polygon fill="none" stroke="black" points="310.5,-280 310.5,-302 419.5,-302 419.5,-280 310.5,-280"/>
<text text-anchor="start" x="330.5" y="-288.2" font-family="Helvetica,sans-Serif" font-size="11.00">modified_at</text>
<polygon fill="none" stroke="black" points="419.5,-280 419.5,-302 729.5,-302 729.5,-280 419.5,-280"/>
<text text-anchor="start" x="422.5" y="-288.2" font-family="Helvetica,sans-Serif" font-size="11.00">timestamp[29,6]</text>
<polygon fill="none" stroke="black" points="310.5,-258 310.5,-280 419.5,-280 419.5,-258 310.5,-258"/>
<text text-anchor="start" x="330.5" y="-266.2" font-family="Helvetica,sans-Serif" font-size="11.00">modified_by</text>
<polygon fill="none" stroke="black" points="419.5,-258 419.5,-280 729.5,-280 729.5,-258 419.5,-258"/>
<text text-anchor="start" x="422.5" y="-266.2" font-family="Helvetica,sans-Serif" font-size="11.00">regrole[2147483647]</text>
<polygon fill="none" stroke="black" points="310.5,-236 310.5,-258 419.5,-258 419.5,-236 310.5,-236"/>
<image xlink:href="../../images/foreignKeys.png" width="11px" height="12px" preserveAspectRatio="xMinYMin meet" x="315.5" y="-253"/>
<text text-anchor="start" x="330.5" y="-244.2" font-family="Helvetica,sans-Serif" font-size="11.00">edge_state</text>
<polygon fill="none" stroke="black" points="419.5,-236 419.5,-258 729.5,-258 729.5,-236 419.5,-236"/>
<text text-anchor="start" x="422.5" y="-244.2" font-family="Helvetica,sans-Serif" font-size="11.00">&quot;private_ci2027_001&quot;.&quot;enum_edge_state&quot;[2147483647]</text>
<polygon fill="none" stroke="black" points="310.5,-214 310.5,-236 419.5,-236 419.5,-214 310.5,-214"/>
<image xlink:href="../../images/foreignKeys.png" width="11px" height="12px" preserveAspectRatio="xMinYMin meet" x="315.5" y="-231"/>
<text text-anchor="start" x="330.5" y="-222.2" font-family="Helvetica,sans-Serif" font-size="11.00">edge_type</text>
<polygon fill="none" stroke="black" points="419.5,-214 419.5,-236 729.5,-236 729.5,-214 419.5,-214"/>
<text text-anchor="start" x="422.5" y="-222.2" font-family="Helvetica,sans-Serif" font-size="11.00">&quot;private_ci2027_001&quot;.&quot;enum_edge_type&quot;[2147483647]</text>
<polygon fill="none" stroke="black" points="310.5,-192 310.5,-214 419.5,-214 419.5,-192 310.5,-192"/>
<image xlink:href="../../images/foreignKeys.png" width="11px" height="12px" preserveAspectRatio="xMinYMin meet" x="315.5" y="-209"/>
<text text-anchor="start" x="330.5" y="-200.2" font-family="Helvetica,sans-Serif" font-size="11.00">terrain</text>
<polygon fill="none" stroke="black" points="419.5,-192 419.5,-214 729.5,-214 729.5,-192 419.5,-192"/>
<text text-anchor="start" x="422.5" y="-200.2" font-family="Helvetica,sans-Serif" font-size="11.00">&quot;private_ci2027_001&quot;.&quot;enum_terrain&quot;[2147483647]</text>
<polygon fill="none" stroke="black" points="310.5,-170 310.5,-192 419.5,-192 419.5,-170 310.5,-170"/>
<text text-anchor="start" x="330.5" y="-178.2" font-family="Helvetica,sans-Serif" font-size="11.00">geometry</text>
<polygon fill="none" stroke="black" points="419.5,-170 419.5,-192 729.5,-192 729.5,-170 419.5,-170"/>
<text text-anchor="start" x="422.5" y="-178.2" font-family="Helvetica,sans-Serif" font-size="11.00">geometry[2147483647]</text>
<polygon fill="#ffffff" stroke="transparent" points="310.5,-152 310.5,-170 729.5,-170 729.5,-152 310.5,-152"/>
<polygon fill="none" stroke="black" points="310.5,-152 310.5,-170 729.5,-170 729.5,-152 310.5,-152"/>
<polygon fill="#ffffff" stroke="transparent" points="311.5,-153 311.5,-169 442.5,-169 442.5,-153 311.5,-153"/>
<text text-anchor="start" x="313.5" y="-158.2" font-family="Helvetica,sans-Serif" font-size="11.00">&lt; 4</text>
<polygon fill="#ffffff" stroke="transparent" points="442.5,-153 442.5,-169 597.5,-169 597.5,-153 442.5,-153"/>
<text text-anchor="start" x="498" y="-158.2" font-family="Helvetica,sans-Serif" font-size="11.00">81 rows</text>
<polygon fill="#ffffff" stroke="transparent" points="597.5,-153 597.5,-169 728.5,-169 728.5,-153 597.5,-153"/>
<text text-anchor="start" x="706.5" y="-158.2" font-family="Helvetica,sans-Serif" font-size="11.00">0 &gt;</text>
<polygon fill="black" stroke="black" points="442.5,-153 442.5,-169 442.5,-169 442.5,-153 442.5,-153"/>
<polygon fill="black" stroke="black" points="597.5,-153 597.5,-169 597.5,-169 597.5,-153 597.5,-153"/>
<polygon fill="none" stroke="black" stroke-width="2" points="309,-151 309,-391 730,-391 730,-151 309,-151"/>
</a>
</g>
</g>
<!-- lookup_edge_state -->
<g id="node2" class="node">
<title>lookup_edge_state</title>
<g id="a_node2"><a xlink:href="../../tables/lookup_edge_state.html" xlink:title="lookup_edge_state" target="_top">
<polygon fill="#ffffff" stroke="transparent" points="42,-239 42,-319 225,-319 225,-239 42,-239"/>
<polygon fill="#f5f5f5" stroke="transparent" points="42.5,-297 42.5,-319 225.5,-319 225.5,-297 42.5,-297"/>
<polygon fill="none" stroke="black" points="42.5,-297 42.5,-319 225.5,-319 225.5,-297 42.5,-297"/>
<text text-anchor="start" x="47.5" y="-306.2" font-family="Helvetica,sans-Serif" font-weight="bold" font-size="11.00">lookup_edge_state</text>
<text text-anchor="start" x="183.5" y="-305.2" font-family="Helvetica,sans-Serif" font-size="11.00">[table]</text>
<polygon fill="#ffffff" stroke="transparent" points="42.5,-275 42.5,-297 225.5,-297 225.5,-275 42.5,-275"/>
<polygon fill="none" stroke="black" points="42.5,-275 42.5,-297 225.5,-297 225.5,-275 42.5,-275"/>
<text text-anchor="start" x="75.5" y="-283.2" font-family="Helvetica,sans-Serif" font-size="11.00">abbreviation</text>
<polygon fill="none" stroke="black" points="42.5,-257 42.5,-275 225.5,-275 225.5,-257 42.5,-257"/>
<text text-anchor="start" x="45.5" y="-263.2" font-family="Helvetica,sans-Serif" font-size="11.00">...</text>
<polygon fill="#ffffff" stroke="transparent" points="42.5,-239 42.5,-257 225.5,-257 225.5,-239 42.5,-239"/>
<polygon fill="none" stroke="black" points="42.5,-239 42.5,-257 225.5,-257 225.5,-239 42.5,-239"/>
<polygon fill="#ffffff" stroke="transparent" points="43.5,-240 43.5,-256 90.5,-256 90.5,-240 43.5,-240"/>
<text text-anchor="start" x="45.5" y="-245.2" font-family="Helvetica,sans-Serif" font-size="11.00"> &#160;</text>
<polygon fill="#ffffff" stroke="transparent" points="90.5,-240 90.5,-256 166.5,-256 166.5,-240 90.5,-240"/>
<text text-anchor="start" x="110" y="-245.2" font-family="Helvetica,sans-Serif" font-size="11.00">0 rows</text>
<polygon fill="#ffffff" stroke="transparent" points="166.5,-240 166.5,-256 224.5,-256 224.5,-240 166.5,-240"/>
<text text-anchor="start" x="202.5" y="-245.2" font-family="Helvetica,sans-Serif" font-size="11.00">1 &gt;</text>
<polygon fill="black" stroke="black" points="90.5,-240 90.5,-256 90.5,-256 90.5,-240 90.5,-240"/>
<polygon fill="black" stroke="black" points="166.5,-240 166.5,-256 166.5,-256 166.5,-240 166.5,-240"/>
</a>
</g>
</g>
<!-- edges&#45;&gt;lookup_edge_state -->
<g id="edge1" class="edge">
<title>edges:w&#45;&gt;lookup_edge_state:e</title>
<path fill="none" stroke="black" d="M295.15,-248.88C267.65,-256.67 261.85,-286 226.5,-286"/>
<polygon fill="black" stroke="black" points="301.57,-248.04 309.97,-250.57 305.53,-247.52 309.5,-247 309.5,-247 309.5,-247 305.53,-247.52 309.03,-243.43 301.57,-248.04 301.57,-248.04"/>
<ellipse fill="none" stroke="black" cx="298.4" cy="-248.46" rx="3.2" ry="3.2"/>
</g>
<!-- lookup_edge_type -->
<g id="node3" class="node">
<title>lookup_edge_type</title>
<g id="a_node3"><a xlink:href="../../tables/lookup_edge_type.html" xlink:title="lookup_edge_type" target="_top">
<polygon fill="#ffffff" stroke="transparent" points="44.5,-138 44.5,-218 222.5,-218 222.5,-138 44.5,-138"/>
<polygon fill="#f5f5f5" stroke="transparent" points="44.5,-196 44.5,-218 222.5,-218 222.5,-196 44.5,-196"/>
<polygon fill="none" stroke="black" points="44.5,-196 44.5,-218 222.5,-218 222.5,-196 44.5,-196"/>
<text text-anchor="start" x="49.5" y="-205.2" font-family="Helvetica,sans-Serif" font-weight="bold" font-size="11.00">lookup_edge_type</text>
<text text-anchor="start" x="180.5" y="-204.2" font-family="Helvetica,sans-Serif" font-size="11.00">[table]</text>
<polygon fill="#ffffff" stroke="transparent" points="44.5,-174 44.5,-196 222.5,-196 222.5,-174 44.5,-174"/>
<polygon fill="none" stroke="black" points="44.5,-174 44.5,-196 222.5,-196 222.5,-174 44.5,-174"/>
<text text-anchor="start" x="77.5" y="-182.2" font-family="Helvetica,sans-Serif" font-size="11.00">abbreviation</text>
<polygon fill="none" stroke="black" points="44.5,-156 44.5,-174 222.5,-174 222.5,-156 44.5,-156"/>
<text text-anchor="start" x="47.5" y="-162.2" font-family="Helvetica,sans-Serif" font-size="11.00">...</text>
<polygon fill="#ffffff" stroke="transparent" points="44.5,-138 44.5,-156 222.5,-156 222.5,-138 44.5,-138"/>
<polygon fill="none" stroke="black" points="44.5,-138 44.5,-156 222.5,-156 222.5,-138 44.5,-138"/>
<polygon fill="#ffffff" stroke="transparent" points="45.5,-139 45.5,-155 90.5,-155 90.5,-139 45.5,-139"/>
<text text-anchor="start" x="47.5" y="-144.2" font-family="Helvetica,sans-Serif" font-size="11.00"> &#160;</text>
<polygon fill="#ffffff" stroke="transparent" points="90.5,-139 90.5,-155 164.5,-155 164.5,-139 90.5,-139"/>
<text text-anchor="start" x="109" y="-144.2" font-family="Helvetica,sans-Serif" font-size="11.00">0 rows</text>
<polygon fill="#ffffff" stroke="transparent" points="164.5,-139 164.5,-155 221.5,-155 221.5,-139 164.5,-139"/>
<text text-anchor="start" x="199.5" y="-144.2" font-family="Helvetica,sans-Serif" font-size="11.00">1 &gt;</text>
<polygon fill="black" stroke="black" points="90.5,-139 90.5,-155 90.5,-155 90.5,-139 90.5,-139"/>
<polygon fill="black" stroke="black" points="164.5,-139 164.5,-155 164.5,-155 164.5,-139 164.5,-139"/>
</a>
</g>
</g>
<!-- edges&#45;&gt;lookup_edge_type -->
<g id="edge2" class="edge">
<title>edges:w&#45;&gt;lookup_edge_type:e</title>
<path fill="none" stroke="black" d="M295.04,-223.18C266.24,-215.35 260.22,-185 223.5,-185"/>
<polygon fill="black" stroke="black" points="301.56,-224 309.05,-228.57 305.53,-224.5 309.5,-225 309.5,-225 309.5,-225 305.53,-224.5 309.95,-221.43 301.56,-224 301.56,-224"/>
<ellipse fill="none" stroke="black" cx="298.39" cy="-223.6" rx="3.2" ry="3.2"/>
</g>
<!-- plot -->
<g id="node4" class="node">
<title>plot</title>
<g id="a_node4"><a xlink:href="../../tables/plot.html" xlink:title="plot" target="_top">
<polygon fill="#ffffff" stroke="transparent" points="8,-340 8,-970 259,-970 259,-340 8,-340"/>
<polygon fill="#f5f5f5" stroke="transparent" points="8.5,-948 8.5,-970 259.5,-970 259.5,-948 8.5,-948"/>
<polygon fill="none" stroke="black" points="8.5,-948 8.5,-970 259.5,-970 259.5,-948 8.5,-948"/>
<text text-anchor="start" x="13" y="-957.2" font-family="Helvetica,sans-Serif" font-weight="bold" font-size="11.00">plot</text>
<text text-anchor="start" x="217.5" y="-956.2" font-family="Helvetica,sans-Serif" font-size="11.00">[table]</text>
<polygon fill="none" stroke="black" points="8.5,-926 8.5,-948 259.5,-948 259.5,-926 8.5,-926"/>
<image xlink:href="../../images/primaryKeys.png" width="11px" height="12px" preserveAspectRatio="xMinYMin meet" x="13.5" y="-943"/>
<text text-anchor="start" x="28.5" y="-934.2" font-family="Helvetica,sans-Serif" font-size="11.00">id</text>
<polygon fill="#ffffff" stroke="transparent" points="8.5,-904 8.5,-926 259.5,-926 259.5,-904 8.5,-904"/>
<polygon fill="none" stroke="black" points="8.5,-904 8.5,-926 259.5,-926 259.5,-904 8.5,-904"/>
<image xlink:href="../../images/foreignKeys.png" width="11px" height="12px" preserveAspectRatio="xMinYMin meet" x="13.5" y="-921"/>
<text text-anchor="start" x="28.5" y="-912.2" font-family="Helvetica,sans-Serif" font-size="11.00">cluster_id</text>
<polygon fill="#ffffff" stroke="transparent" points="8.5,-882 8.5,-904 259.5,-904 259.5,-882 8.5,-882"/>
<polygon fill="none" stroke="black" points="8.5,-882 8.5,-904 259.5,-904 259.5,-882 8.5,-882"/>
<text text-anchor="start" x="28.5" y="-890.2" font-family="Helvetica,sans-Serif" font-size="11.00">plot_name</text>
<polygon fill="none" stroke="black" points="8.5,-860 8.5,-882 259.5,-882 259.5,-860 8.5,-860"/>
<image xlink:href="../../images/foreignKeys.png" width="11px" height="12px" preserveAspectRatio="xMinYMin meet" x="13.5" y="-877"/>
<text text-anchor="start" x="28.5" y="-868.2" font-family="Helvetica,sans-Serif" font-size="11.00">sampling_strata</text>
<polygon fill="none" stroke="black" points="8.5,-838 8.5,-860 259.5,-860 259.5,-838 8.5,-838"/>
<image xlink:href="../../images/foreignKeys.png" width="11px" height="12px" preserveAspectRatio="xMinYMin meet" x="13.5" y="-855"/>
<text text-anchor="start" x="28.5" y="-846.2" font-family="Helvetica,sans-Serif" font-size="11.00">growth_district</text>
<polygon fill="none" stroke="black" points="8.5,-816 8.5,-838 259.5,-838 259.5,-816 8.5,-816"/>
<image xlink:href="../../images/foreignKeys.png" width="11px" height="12px" preserveAspectRatio="xMinYMin meet" x="13.5" y="-833"/>
<text text-anchor="start" x="28.5" y="-824.2" font-family="Helvetica,sans-Serif" font-size="11.00">forest_decision</text>
<polygon fill="none" stroke="black" points="8.5,-794 8.5,-816 259.5,-816 259.5,-794 8.5,-794"/>
<image xlink:href="../../images/foreignKeys.png" width="11px" height="12px" preserveAspectRatio="xMinYMin meet" x="13.5" y="-811"/>
<text text-anchor="start" x="28.5" y="-802.2" font-family="Helvetica,sans-Serif" font-size="11.00">forestry_department</text>
<polygon fill="none" stroke="black" points="8.5,-772 8.5,-794 259.5,-794 259.5,-772 8.5,-772"/>
<image xlink:href="../../images/foreignKeys.png" width="11px" height="12px" preserveAspectRatio="xMinYMin meet" x="13.5" y="-789"/>
<text text-anchor="start" x="28.5" y="-780.2" font-family="Helvetica,sans-Serif" font-size="11.00">height_layer_class</text>
<polygon fill="none" stroke="black" points="8.5,-750 8.5,-772 259.5,-772 259.5,-750 8.5,-750"/>
<image xlink:href="../../images/foreignKeys.png" width="11px" height="12px" preserveAspectRatio="xMinYMin meet" x="13.5" y="-767"/>
<text text-anchor="start" x="28.5" y="-758.2" font-family="Helvetica,sans-Serif" font-size="11.00">property_type</text>
<polygon fill="none" stroke="black" points="8.5,-728 8.5,-750 259.5,-750 259.5,-728 8.5,-728"/>
<image xlink:href="../../images/foreignKeys.png" width="11px" height="12px" preserveAspectRatio="xMinYMin meet" x="13.5" y="-745"/>
<text text-anchor="start" x="28.5" y="-736.2" font-family="Helvetica,sans-Serif" font-size="11.00">property_size_class</text>
<polygon fill="none" stroke="black" points="8.5,-706 8.5,-728 259.5,-728 259.5,-706 8.5,-706"/>
<image xlink:href="../../images/foreignKeys.png" width="11px" height="12px" preserveAspectRatio="xMinYMin meet" x="13.5" y="-723"/>
<text text-anchor="start" x="28.5" y="-714.2" font-family="Helvetica,sans-Serif" font-size="11.00">forest_type</text>
<polygon fill="none" stroke="black" points="8.5,-684 8.5,-706 259.5,-706 259.5,-684 8.5,-684"/>
<image xlink:href="../../images/foreignKeys.png" width="11px" height="12px" preserveAspectRatio="xMinYMin meet" x="13.5" y="-701"/>
<text text-anchor="start" x="28.5" y="-692.2" font-family="Helvetica,sans-Serif" font-size="11.00">habitat_type</text>
<polygon fill="none" stroke="black" points="8.5,-662 8.5,-684 259.5,-684 259.5,-662 8.5,-662"/>
<image xlink:href="../../images/foreignKeys.png" width="11px" height="12px" preserveAspectRatio="xMinYMin meet" x="13.5" y="-679"/>
<text text-anchor="start" x="28.5" y="-670.2" font-family="Helvetica,sans-Serif" font-size="11.00">habitat_type_source</text>
<polygon fill="none" stroke="black" points="8.5,-640 8.5,-662 259.5,-662 259.5,-640 8.5,-640"/>
<image xlink:href="../../images/foreignKeys.png" width="11px" height="12px" preserveAspectRatio="xMinYMin meet" x="13.5" y="-657"/>
<text text-anchor="start" x="28.5" y="-648.2" font-family="Helvetica,sans-Serif" font-size="11.00">use_restriction</text>
<polygon fill="none" stroke="black" points="8.5,-618 8.5,-640 259.5,-640 259.5,-618 8.5,-618"/>
<image xlink:href="../../images/foreignKeys.png" width="11px" height="12px" preserveAspectRatio="xMinYMin meet" x="13.5" y="-635"/>
<text text-anchor="start" x="28.5" y="-626.2" font-family="Helvetica,sans-Serif" font-size="11.00">land_use</text>
<polygon fill="none" stroke="black" points="8.5,-596 8.5,-618 259.5,-618 259.5,-596 8.5,-596"/>
<image xlink:href="../../images/foreignKeys.png" width="11px" height="12px" preserveAspectRatio="xMinYMin meet" x="13.5" y="-613"/>
<text text-anchor="start" x="28.5" y="-604.2" font-family="Helvetica,sans-Serif" font-size="11.00">marking_state</text>
<polygon fill="none" stroke="black" points="8.5,-574 8.5,-596 259.5,-596 259.5,-574 8.5,-574"/>
<image xlink:href="../../images/foreignKeys.png" width="11px" height="12px" preserveAspectRatio="xMinYMin meet" x="13.5" y="-591"/>
<text text-anchor="start" x="28.5" y="-582.2" font-family="Helvetica,sans-Serif" font-size="11.00">marking_profile</text>
<polygon fill="none" stroke="black" points="8.5,-552 8.5,-574 259.5,-574 259.5,-552 8.5,-552"/>
<image xlink:href="../../images/foreignKeys.png" width="11px" height="12px" preserveAspectRatio="xMinYMin meet" x="13.5" y="-569"/>
<text text-anchor="start" x="28.5" y="-560.2" font-family="Helvetica,sans-Serif" font-size="11.00">terrain_form</text>
<polygon fill="none" stroke="black" points="8.5,-530 8.5,-552 259.5,-552 259.5,-530 8.5,-530"/>
<image xlink:href="../../images/foreignKeys.png" width="11px" height="12px" preserveAspectRatio="xMinYMin meet" x="13.5" y="-547"/>
<text text-anchor="start" x="28.5" y="-538.2" font-family="Helvetica,sans-Serif" font-size="11.00">management_type</text>
<polygon fill="none" stroke="black" points="8.5,-508 8.5,-530 259.5,-530 259.5,-508 8.5,-508"/>
<image xlink:href="../../images/foreignKeys.png" width="11px" height="12px" preserveAspectRatio="xMinYMin meet" x="13.5" y="-525"/>
<text text-anchor="start" x="28.5" y="-516.2" font-family="Helvetica,sans-Serif" font-size="11.00">harvesting_method</text>
<polygon fill="none" stroke="black" points="8.5,-486 8.5,-508 259.5,-508 259.5,-486 8.5,-486"/>
<image xlink:href="../../images/foreignKeys.png" width="11px" height="12px" preserveAspectRatio="xMinYMin meet" x="13.5" y="-503"/>
<text text-anchor="start" x="28.5" y="-494.2" font-family="Helvetica,sans-Serif" font-size="11.00">layer_type</text>
<polygon fill="none" stroke="black" points="8.5,-464 8.5,-486 259.5,-486 259.5,-464 8.5,-464"/>
<image xlink:href="../../images/foreignKeys.png" width="11px" height="12px" preserveAspectRatio="xMinYMin meet" x="13.5" y="-481"/>
<text text-anchor="start" x="28.5" y="-472.2" font-family="Helvetica,sans-Serif" font-size="11.00">stand_phase</text>
<polygon fill="none" stroke="black" points="8.5,-442 8.5,-464 259.5,-464 259.5,-442 8.5,-442"/>
<image xlink:href="../../images/foreignKeys.png" width="11px" height="12px" preserveAspectRatio="xMinYMin meet" x="13.5" y="-459"/>
<text text-anchor="start" x="28.5" y="-450.2" font-family="Helvetica,sans-Serif" font-size="11.00">sablings_layer</text>
<polygon fill="none" stroke="black" points="8.5,-420 8.5,-442 259.5,-442 259.5,-420 8.5,-420"/>
<image xlink:href="../../images/foreignKeys.png" width="11px" height="12px" preserveAspectRatio="xMinYMin meet" x="13.5" y="-437"/>
<text text-anchor="start" x="28.5" y="-428.2" font-family="Helvetica,sans-Serif" font-size="11.00">trees_less_4meter_mirrored</text>
<polygon fill="none" stroke="black" points="8.5,-398 8.5,-420 259.5,-420 259.5,-398 8.5,-398"/>
<image xlink:href="../../images/foreignKeys.png" width="11px" height="12px" preserveAspectRatio="xMinYMin meet" x="13.5" y="-415"/>
<text text-anchor="start" x="28.5" y="-406.2" font-family="Helvetica,sans-Serif" font-size="11.00">trees_less_4meter_count_factor</text>
<polygon fill="none" stroke="black" points="8.5,-376 8.5,-398 259.5,-398 259.5,-376 8.5,-376"/>
<image xlink:href="../../images/foreignKeys.png" width="11px" height="12px" preserveAspectRatio="xMinYMin meet" x="13.5" y="-393"/>
<text text-anchor="start" x="28.5" y="-384.2" font-family="Helvetica,sans-Serif" font-size="11.00">trees_less_4meter_layer</text>
<polygon fill="none" stroke="black" points="8.5,-358 8.5,-376 259.5,-376 259.5,-358 8.5,-358"/>
<text text-anchor="start" x="11.5" y="-364.2" font-family="Helvetica,sans-Serif" font-size="11.00">...</text>
<polygon fill="#ffffff" stroke="transparent" points="8.5,-340 8.5,-358 259.5,-358 259.5,-340 8.5,-340"/>
<polygon fill="none" stroke="black" points="8.5,-340 8.5,-358 259.5,-358 259.5,-340 8.5,-340"/>
<polygon fill="#ffffff" stroke="transparent" points="9.5,-341 9.5,-357 89.5,-357 89.5,-341 9.5,-341"/>
<text text-anchor="start" x="11.5" y="-346.2" font-family="Helvetica,sans-Serif" font-size="11.00">&lt; 24</text>
<polygon fill="#ffffff" stroke="transparent" points="89.5,-341 89.5,-357 186.5,-357 186.5,-341 89.5,-341"/>
<text text-anchor="start" x="116" y="-346.2" font-family="Helvetica,sans-Serif" font-size="11.00">82 rows</text>
<polygon fill="#ffffff" stroke="transparent" points="186.5,-341 186.5,-357 258.5,-357 258.5,-341 186.5,-341"/>
<text text-anchor="start" x="236.5" y="-346.2" font-family="Helvetica,sans-Serif" font-size="11.00">7 &gt;</text>
<polygon fill="black" stroke="black" points="89.5,-341 89.5,-357 89.5,-357 89.5,-341 89.5,-341"/>
<polygon fill="black" stroke="black" points="186.5,-341 186.5,-357 186.5,-357 186.5,-341 186.5,-341"/>
</a>
</g>
</g>
<!-- edges&#45;&gt;plot -->
<g id="edge3" class="edge">
<title>edges:w&#45;&gt;plot:e</title>
<path fill="none" stroke="black" d="M294.98,-335.65C59.37,-357.71 523.83,-937 260.5,-937"/>
<polygon fill="black" stroke="black" points="301.51,-335.36 309.66,-338.6 305.5,-335.18 309.5,-335 309.5,-335 309.5,-335 305.5,-335.18 309.34,-331.4 301.51,-335.36 301.51,-335.36"/>
<ellipse fill="none" stroke="black" cx="298.31" cy="-335.5" rx="3.2" ry="3.2"/>
</g>
<!-- lookup_terrain -->
<g id="node5" class="node">
<title>lookup_terrain</title>
<g id="a_node5"><a xlink:href="../../tables/lookup_terrain.html" xlink:title="lookup_terrain" target="_top">
<polygon fill="#ffffff" stroke="transparent" points="57,-37 57,-117 210,-117 210,-37 57,-37"/>
<polygon fill="#f5f5f5" stroke="transparent" points="57.5,-95 57.5,-117 210.5,-117 210.5,-95 57.5,-95"/>
<polygon fill="none" stroke="black" points="57.5,-95 57.5,-117 210.5,-117 210.5,-95 57.5,-95"/>
<text text-anchor="start" x="62.5" y="-104.2" font-family="Helvetica,sans-Serif" font-weight="bold" font-size="11.00">lookup_terrain</text>
<text text-anchor="start" x="168.5" y="-103.2" font-family="Helvetica,sans-Serif" font-size="11.00">[table]</text>
<polygon fill="#ffffff" stroke="transparent" points="57.5,-73 57.5,-95 210.5,-95 210.5,-73 57.5,-73"/>
<polygon fill="none" stroke="black" points="57.5,-73 57.5,-95 210.5,-95 210.5,-73 57.5,-73"/>
<text text-anchor="start" x="90.5" y="-81.2" font-family="Helvetica,sans-Serif" font-size="11.00">abbreviation</text>
<polygon fill="none" stroke="black" points="57.5,-55 57.5,-73 210.5,-73 210.5,-55 57.5,-55"/>
<text text-anchor="start" x="60.5" y="-61.2" font-family="Helvetica,sans-Serif" font-size="11.00">...</text>
<polygon fill="#ffffff" stroke="transparent" points="57.5,-37 57.5,-55 210.5,-55 210.5,-37 57.5,-37"/>
<polygon fill="none" stroke="black" points="57.5,-37 57.5,-55 210.5,-55 210.5,-37 57.5,-37"/>
<polygon fill="#ffffff" stroke="transparent" points="58.5,-38 58.5,-54 95.5,-54 95.5,-38 58.5,-38"/>
<text text-anchor="start" x="60.5" y="-43.2" font-family="Helvetica,sans-Serif" font-size="11.00"> &#160;</text>
<polygon fill="#ffffff" stroke="transparent" points="95.5,-38 95.5,-54 161.5,-54 161.5,-38 95.5,-38"/>
<text text-anchor="start" x="110" y="-43.2" font-family="Helvetica,sans-Serif" font-size="11.00">0 rows</text>
<polygon fill="#ffffff" stroke="transparent" points="161.5,-38 161.5,-54 209.5,-54 209.5,-38 161.5,-38"/>
<text text-anchor="start" x="187.5" y="-43.2" font-family="Helvetica,sans-Serif" font-size="11.00">1 &gt;</text>
<polygon fill="black" stroke="black" points="95.5,-38 95.5,-54 95.5,-54 95.5,-38 95.5,-38"/>
<polygon fill="black" stroke="black" points="161.5,-38 161.5,-54 161.5,-54 161.5,-38 161.5,-38"/>
</a>
</g>
</g>
<!-- edges&#45;&gt;lookup_terrain -->
<g id="edge4" class="edge">
<title>edges:w&#45;&gt;lookup_terrain:e</title>
<path fill="none" stroke="black" d="M295.2,-199.73C276.66,-188.73 287.93,-152.44 267,-128 246.53,-104.09 242.98,-84 211.5,-84"/>
<polygon fill="black" stroke="black" points="301.7,-201.21 308.7,-206.51 305.6,-202.11 309.5,-203 309.5,-203 309.5,-203 305.6,-202.11 310.3,-199.49 301.7,-201.21 301.7,-201.21"/>
<ellipse fill="none" stroke="black" cx="298.58" cy="-200.5" rx="3.2" ry="3.2"/>
</g>
</g>
</svg>
