<?xml version="1.0" encoding="UTF-8" standalone="no"?>
<!DOCTYPE svg PUBLIC "-//W3C//DTD SVG 1.1//EN"
 "http://www.w3.org/Graphics/SVG/1.1/DTD/svg11.dtd">
<!-- Generated by graphviz version 2.43.0 (0)
 -->
<!-- Title: oneDegreeRelationshipsDiagram Pages: 1 -->
<svg width="790pt" height="806pt"
 viewBox="0.00 0.00 790.00 806.00" xmlns="http://www.w3.org/2000/svg" xmlns:xlink="http://www.w3.org/1999/xlink">
<g id="graph0" class="graph" transform="scale(1 1) rotate(0) translate(4 802)">
<title>oneDegreeRelationshipsDiagram</title>
<polygon fill="#ffffff" stroke="transparent" points="-4,4 -4,-802 786,-802 786,4 -4,4"/>
<text text-anchor="middle" x="79.5" y="-7.2" font-family="Helvetica,sans-Serif" font-size="11.00">Generated by SchemaSpy</text>
<!-- edges -->
<g id="node1" class="node">
<title>edges</title>
<g id="a_node1"><a xlink:href="../../tables/edges.html" xlink:title="edges" target="_top">
<polygon fill="#ffffff" stroke="transparent" points="345,-149 345,-391 774,-391 774,-149 345,-149"/>
<polygon fill="#f5f5f5" stroke="transparent" points="347.5,-367 347.5,-389 772.5,-389 772.5,-367 347.5,-367"/>
<polygon fill="none" stroke="black" points="347.5,-367 347.5,-389 772.5,-389 772.5,-367 347.5,-367"/>
<text text-anchor="start" x="352.5" y="-376.2" font-family="Helvetica,sans-Serif" font-weight="bold" font-size="11.00">edges</text>
<text text-anchor="start" x="730.5" y="-375.2" font-family="Helvetica,sans-Serif" font-size="11.00">[table]</text>
<polygon fill="none" stroke="black" points="347.5,-345 347.5,-367 456.5,-367 456.5,-345 347.5,-345"/>
<image xlink:href="../../images/primaryKeys.png" width="11px" height="12px" preserveAspectRatio="xMinYMin meet" x="352.5" y="-362"/>
<text text-anchor="start" x="367.5" y="-353.2" font-family="Helvetica,sans-Serif" font-size="11.00">id</text>
<polygon fill="none" stroke="black" points="456.5,-345 456.5,-367 772.5,-367 772.5,-345 456.5,-345"/>
<text text-anchor="start" x="459.5" y="-353.2" font-family="Helvetica,sans-Serif" font-size="11.00">serial[10]</text>
<polygon fill="none" stroke="black" points="347.5,-323 347.5,-345 456.5,-345 456.5,-323 347.5,-323"/>
<image xlink:href="../../images/foreignKeys.png" width="11px" height="12px" preserveAspectRatio="xMinYMin meet" x="352.5" y="-340"/>
<text text-anchor="start" x="367.5" y="-331.2" font-family="Helvetica,sans-Serif" font-size="11.00">plot_id</text>
<polygon fill="none" stroke="black" points="456.5,-323 456.5,-345 772.5,-345 772.5,-323 456.5,-323"/>
<text text-anchor="start" x="459.5" y="-331.2" font-family="Helvetica,sans-Serif" font-size="11.00">int4[10]</text>
<polygon fill="none" stroke="black" points="347.5,-301 347.5,-323 456.5,-323 456.5,-301 347.5,-301"/>
<text text-anchor="start" x="367.5" y="-309.2" font-family="Helvetica,sans-Serif" font-size="11.00">created_at</text>
<polygon fill="none" stroke="black" points="456.5,-301 456.5,-323 772.5,-323 772.5,-301 456.5,-301"/>
<text text-anchor="start" x="459.5" y="-309.2" font-family="Helvetica,sans-Serif" font-size="11.00">timestamp[29,6]</text>
<polygon fill="none" stroke="black" points="347.5,-279 347.5,-301 456.5,-301 456.5,-279 347.5,-279"/>
<text text-anchor="start" x="367.5" y="-287.2" font-family="Helvetica,sans-Serif" font-size="11.00">modified_at</text>
<polygon fill="none" stroke="black" points="456.5,-279 456.5,-301 772.5,-301 772.5,-279 456.5,-279"/>
<text text-anchor="start" x="459.5" y="-287.2" font-family="Helvetica,sans-Serif" font-size="11.00">timestamp[29,6]</text>
<polygon fill="none" stroke="black" points="347.5,-257 347.5,-279 456.5,-279 456.5,-257 347.5,-257"/>
<text text-anchor="start" x="367.5" y="-265.2" font-family="Helvetica,sans-Serif" font-size="11.00">modified_by</text>
<polygon fill="none" stroke="black" points="456.5,-257 456.5,-279 772.5,-279 772.5,-257 456.5,-257"/>
<text text-anchor="start" x="459.5" y="-265.2" font-family="Helvetica,sans-Serif" font-size="11.00">regrole[2147483647]</text>
<polygon fill="none" stroke="black" points="347.5,-235 347.5,-257 456.5,-257 456.5,-235 347.5,-235"/>
<image xlink:href="../../images/foreignKeys.png" width="11px" height="12px" preserveAspectRatio="xMinYMin meet" x="352.5" y="-252"/>
<text text-anchor="start" x="367.5" y="-243.2" font-family="Helvetica,sans-Serif" font-size="11.00">edge_status</text>
<polygon fill="none" stroke="black" points="456.5,-235 456.5,-257 772.5,-257 772.5,-235 456.5,-235"/>
<text text-anchor="start" x="459.5" y="-243.2" font-family="Helvetica,sans-Serif" font-size="11.00">&quot;private_ci2027_001&quot;.&quot;enum_edge_status&quot;[2147483647]</text>
<polygon fill="none" stroke="black" points="347.5,-213 347.5,-235 456.5,-235 456.5,-213 347.5,-213"/>
<image xlink:href="../../images/foreignKeys.png" width="11px" height="12px" preserveAspectRatio="xMinYMin meet" x="352.5" y="-230"/>
<text text-anchor="start" x="367.5" y="-221.2" font-family="Helvetica,sans-Serif" font-size="11.00">edge_type</text>
<polygon fill="none" stroke="black" points="456.5,-213 456.5,-235 772.5,-235 772.5,-213 456.5,-213"/>
<text text-anchor="start" x="459.5" y="-221.2" font-family="Helvetica,sans-Serif" font-size="11.00">&quot;private_ci2027_001&quot;.&quot;enum_edge_type&quot;[2147483647]</text>
<polygon fill="none" stroke="black" points="347.5,-191 347.5,-213 456.5,-213 456.5,-191 347.5,-191"/>
<image xlink:href="../../images/foreignKeys.png" width="11px" height="12px" preserveAspectRatio="xMinYMin meet" x="352.5" y="-208"/>
<text text-anchor="start" x="367.5" y="-199.2" font-family="Helvetica,sans-Serif" font-size="11.00">terrain</text>
<polygon fill="none" stroke="black" points="456.5,-191 456.5,-213 772.5,-213 772.5,-191 456.5,-191"/>
<text text-anchor="start" x="459.5" y="-199.2" font-family="Helvetica,sans-Serif" font-size="11.00">&quot;private_ci2027_001&quot;.&quot;enum_terrain&quot;[2147483647]</text>
<polygon fill="none" stroke="black" points="347.5,-169 347.5,-191 456.5,-191 456.5,-169 347.5,-169"/>
<text text-anchor="start" x="367.5" y="-177.2" font-family="Helvetica,sans-Serif" font-size="11.00">geometry</text>
<polygon fill="none" stroke="black" points="456.5,-169 456.5,-191 772.5,-191 772.5,-169 456.5,-169"/>
<text text-anchor="start" x="459.5" y="-177.2" font-family="Helvetica,sans-Serif" font-size="11.00">geometry[2147483647]</text>
<polygon fill="#ffffff" stroke="transparent" points="347.5,-151 347.5,-169 772.5,-169 772.5,-151 347.5,-151"/>
<polygon fill="none" stroke="black" points="347.5,-151 347.5,-169 772.5,-169 772.5,-151 347.5,-151"/>
<polygon fill="#ffffff" stroke="transparent" points="348.5,-152 348.5,-168 484.5,-168 484.5,-152 348.5,-152"/>
<text text-anchor="start" x="350.5" y="-157.2" font-family="Helvetica,sans-Serif" font-size="11.00">&lt; 4</text>
<polygon fill="#ffffff" stroke="transparent" points="484.5,-152 484.5,-168 636.5,-168 636.5,-152 484.5,-152"/>
<text text-anchor="start" x="542" y="-157.2" font-family="Helvetica,sans-Serif" font-size="11.00">0 rows</text>
<polygon fill="#ffffff" stroke="transparent" points="636.5,-152 636.5,-168 771.5,-168 771.5,-152 636.5,-152"/>
<text text-anchor="start" x="749.5" y="-157.2" font-family="Helvetica,sans-Serif" font-size="11.00">0 &gt;</text>
<polygon fill="black" stroke="black" points="484.5,-152 484.5,-168 484.5,-168 484.5,-152 484.5,-152"/>
<polygon fill="black" stroke="black" points="636.5,-152 636.5,-168 636.5,-168 636.5,-152 636.5,-152"/>
<polygon fill="none" stroke="black" stroke-width="2" points="346,-150 346,-390 773,-390 773,-150 346,-150"/>
</a>
</g>
</g>
<!-- lookup_edge_status -->
<g id="node2" class="node">
<title>lookup_edge_status</title>
<g id="a_node2"><a xlink:href="../../tables/lookup_edge_status.html" xlink:title="lookup_edge_status" target="_top">
<polygon fill="#ffffff" stroke="transparent" points="56.5,-239 56.5,-319 247.5,-319 247.5,-239 56.5,-239"/>
<polygon fill="#f5f5f5" stroke="transparent" points="57,-297 57,-319 248,-319 248,-297 57,-297"/>
<polygon fill="none" stroke="black" points="57,-297 57,-319 248,-319 248,-297 57,-297"/>
<text text-anchor="start" x="62" y="-306.2" font-family="Helvetica,sans-Serif" font-weight="bold" font-size="11.00">lookup_edge_status</text>
<text text-anchor="start" x="206" y="-305.2" font-family="Helvetica,sans-Serif" font-size="11.00">[table]</text>
<polygon fill="#ffffff" stroke="transparent" points="57,-275 57,-297 248,-297 248,-275 57,-275"/>
<polygon fill="none" stroke="black" points="57,-275 57,-297 248,-297 248,-275 57,-275"/>
<text text-anchor="start" x="90" y="-283.2" font-family="Helvetica,sans-Serif" font-size="11.00">abbreviation</text>
<polygon fill="none" stroke="black" points="57,-257 57,-275 248,-275 248,-257 57,-257"/>
<text text-anchor="start" x="60" y="-263.2" font-family="Helvetica,sans-Serif" font-size="11.00">...</text>
<polygon fill="#ffffff" stroke="transparent" points="57,-239 57,-257 248,-257 248,-239 57,-239"/>
<polygon fill="none" stroke="black" points="57,-239 57,-257 248,-257 248,-239 57,-239"/>
<polygon fill="#ffffff" stroke="transparent" points="58,-240 58,-256 108,-256 108,-240 58,-240"/>
<text text-anchor="start" x="60" y="-245.2" font-family="Helvetica,sans-Serif" font-size="11.00"> &#160;</text>
<polygon fill="#ffffff" stroke="transparent" points="108,-240 108,-256 186,-256 186,-240 108,-240"/>
<text text-anchor="start" x="128.5" y="-245.2" font-family="Helvetica,sans-Serif" font-size="11.00">0 rows</text>
<polygon fill="#ffffff" stroke="transparent" points="186,-240 186,-256 247,-256 247,-240 186,-240"/>
<text text-anchor="start" x="225" y="-245.2" font-family="Helvetica,sans-Serif" font-size="11.00">1 &gt;</text>
<polygon fill="black" stroke="black" points="108,-240 108,-256 108,-256 108,-240 108,-240"/>
<polygon fill="black" stroke="black" points="186,-240 186,-256 186,-256 186,-240 186,-240"/>
</a>
</g>
</g>
<!-- edges&#45;&gt;lookup_edge_status -->
<g id="edge1" class="edge">
<title>edges:w&#45;&gt;lookup_edge_status:e</title>
<path fill="none" stroke="black" d="M332.11,-247.42C298.24,-254.55 290.53,-286 249,-286"/>
<polygon fill="black" stroke="black" points="338.54,-246.79 346.85,-249.58 342.52,-246.39 346.5,-246 346.5,-246 346.5,-246 342.52,-246.39 346.15,-242.42 338.54,-246.79 338.54,-246.79"/>
<ellipse fill="none" stroke="black" cx="335.35" cy="-247.1" rx="3.2" ry="3.2"/>
</g>
<!-- lookup_edge_type -->
<g id="node3" class="node">
<title>lookup_edge_type</title>
<g id="a_node3"><a xlink:href="../../tables/lookup_edge_type.html" xlink:title="lookup_edge_type" target="_top">
<polygon fill="#ffffff" stroke="transparent" points="63,-138 63,-218 241,-218 241,-138 63,-138"/>
<polygon fill="#f5f5f5" stroke="transparent" points="63,-196 63,-218 241,-218 241,-196 63,-196"/>
<polygon fill="none" stroke="black" points="63,-196 63,-218 241,-218 241,-196 63,-196"/>
<text text-anchor="start" x="68" y="-205.2" font-family="Helvetica,sans-Serif" font-weight="bold" font-size="11.00">lookup_edge_type</text>
<text text-anchor="start" x="199" y="-204.2" font-family="Helvetica,sans-Serif" font-size="11.00">[table]</text>
<polygon fill="#ffffff" stroke="transparent" points="63,-174 63,-196 241,-196 241,-174 63,-174"/>
<polygon fill="none" stroke="black" points="63,-174 63,-196 241,-196 241,-174 63,-174"/>
<text text-anchor="start" x="96" y="-182.2" font-family="Helvetica,sans-Serif" font-size="11.00">abbreviation</text>
<polygon fill="none" stroke="black" points="63,-156 63,-174 241,-174 241,-156 63,-156"/>
<text text-anchor="start" x="66" y="-162.2" font-family="Helvetica,sans-Serif" font-size="11.00">...</text>
<polygon fill="#ffffff" stroke="transparent" points="63,-138 63,-156 241,-156 241,-138 63,-138"/>
<polygon fill="none" stroke="black" points="63,-138 63,-156 241,-156 241,-138 63,-138"/>
<polygon fill="#ffffff" stroke="transparent" points="64,-139 64,-155 109,-155 109,-139 64,-139"/>
<text text-anchor="start" x="66" y="-144.2" font-family="Helvetica,sans-Serif" font-size="11.00"> &#160;</text>
<polygon fill="#ffffff" stroke="transparent" points="109,-139 109,-155 183,-155 183,-139 109,-139"/>
<text text-anchor="start" x="127.5" y="-144.2" font-family="Helvetica,sans-Serif" font-size="11.00">0 rows</text>
<polygon fill="#ffffff" stroke="transparent" points="183,-139 183,-155 240,-155 240,-139 183,-139"/>
<text text-anchor="start" x="218" y="-144.2" font-family="Helvetica,sans-Serif" font-size="11.00">1 &gt;</text>
<polygon fill="black" stroke="black" points="109,-139 109,-155 109,-155 109,-139 109,-139"/>
<polygon fill="black" stroke="black" points="183,-139 183,-155 183,-155 183,-139 183,-139"/>
</a>
</g>
</g>
<!-- edges&#45;&gt;lookup_edge_type -->
<g id="edge2" class="edge">
<title>edges:w&#45;&gt;lookup_edge_type:e</title>
<path fill="none" stroke="black" d="M331.7,-222.7C295.23,-215.94 286.15,-185 242,-185"/>
<polygon fill="black" stroke="black" points="338.53,-223.3 346.19,-227.59 342.52,-223.65 346.5,-224 346.5,-224 346.5,-224 342.52,-223.65 346.81,-220.41 338.53,-223.3 338.53,-223.3"/>
<ellipse fill="none" stroke="black" cx="335.34" cy="-223.02" rx="3.2" ry="3.2"/>
</g>
<!-- plot -->
<g id="node4" class="node">
<title>plot</title>
<g id="a_node4"><a xlink:href="../../tables/plot.html" xlink:title="plot" target="_top">
<polygon fill="#ffffff" stroke="transparent" points="8,-340 8,-794 296,-794 296,-340 8,-340"/>
<polygon fill="#f5f5f5" stroke="transparent" points="8,-772 8,-794 296,-794 296,-772 8,-772"/>
<polygon fill="none" stroke="black" points="8,-772 8,-794 296,-794 296,-772 8,-772"/>
<text text-anchor="start" x="12.5" y="-781.2" font-family="Helvetica,sans-Serif" font-weight="bold" font-size="11.00">plot</text>
<text text-anchor="start" x="254" y="-780.2" font-family="Helvetica,sans-Serif" font-size="11.00">[table]</text>
<polygon fill="none" stroke="black" points="8,-750 8,-772 296,-772 296,-750 8,-750"/>
<image xlink:href="../../images/primaryKeys.png" width="11px" height="12px" preserveAspectRatio="xMinYMin meet" x="13" y="-767"/>
<text text-anchor="start" x="28" y="-758.2" font-family="Helvetica,sans-Serif" font-size="11.00">id</text>
<polygon fill="#ffffff" stroke="transparent" points="8,-728 8,-750 296,-750 296,-728 8,-728"/>
<polygon fill="none" stroke="black" points="8,-728 8,-750 296,-750 296,-728 8,-728"/>
<image xlink:href="../../images/foreignKeys.png" width="11px" height="12px" preserveAspectRatio="xMinYMin meet" x="13" y="-745"/>
<text text-anchor="start" x="28" y="-736.2" font-family="Helvetica,sans-Serif" font-size="11.00">cluster_id</text>
<polygon fill="#ffffff" stroke="transparent" points="8,-706 8,-728 296,-728 296,-706 8,-706"/>
<polygon fill="none" stroke="black" points="8,-706 8,-728 296,-728 296,-706 8,-706"/>
<text text-anchor="start" x="28" y="-714.2" font-family="Helvetica,sans-Serif" font-size="11.00">plot_name</text>
<polygon fill="none" stroke="black" points="8,-684 8,-706 296,-706 296,-684 8,-684"/>
<image xlink:href="../../images/foreignKeys.png" width="11px" height="12px" preserveAspectRatio="xMinYMin meet" x="13" y="-701"/>
<text text-anchor="start" x="28" y="-692.2" font-family="Helvetica,sans-Serif" font-size="11.00">growth_district</text>
<polygon fill="none" stroke="black" points="8,-662 8,-684 296,-684 296,-662 8,-662"/>
<image xlink:href="../../images/foreignKeys.png" width="11px" height="12px" preserveAspectRatio="xMinYMin meet" x="13" y="-679"/>
<text text-anchor="start" x="28" y="-670.2" font-family="Helvetica,sans-Serif" font-size="11.00">forest_status</text>
<polygon fill="none" stroke="black" points="8,-640 8,-662 296,-662 296,-640 8,-640"/>
<image xlink:href="../../images/foreignKeys.png" width="11px" height="12px" preserveAspectRatio="xMinYMin meet" x="13" y="-657"/>
<text text-anchor="start" x="28" y="-648.2" font-family="Helvetica,sans-Serif" font-size="11.00">elevation_level</text>
<polygon fill="none" stroke="black" points="8,-618 8,-640 296,-640 296,-618 8,-618"/>
<image xlink:href="../../images/foreignKeys.png" width="11px" height="12px" preserveAspectRatio="xMinYMin meet" x="13" y="-635"/>
<text text-anchor="start" x="28" y="-626.2" font-family="Helvetica,sans-Serif" font-size="11.00">property_type</text>
<polygon fill="none" stroke="black" points="8,-596 8,-618 296,-618 296,-596 8,-596"/>
<image xlink:href="../../images/foreignKeys.png" width="11px" height="12px" preserveAspectRatio="xMinYMin meet" x="13" y="-613"/>
<text text-anchor="start" x="28" y="-604.2" font-family="Helvetica,sans-Serif" font-size="11.00">property_size_class</text>
<polygon fill="none" stroke="black" points="8,-574 8,-596 296,-596 296,-574 8,-574"/>
<image xlink:href="../../images/foreignKeys.png" width="11px" height="12px" preserveAspectRatio="xMinYMin meet" x="13" y="-591"/>
<text text-anchor="start" x="28" y="-582.2" font-family="Helvetica,sans-Serif" font-size="11.00">land_use_after</text>
<polygon fill="none" stroke="black" points="8,-552 8,-574 296,-574 296,-552 8,-552"/>
<image xlink:href="../../images/foreignKeys.png" width="11px" height="12px" preserveAspectRatio="xMinYMin meet" x="13" y="-569"/>
<text text-anchor="start" x="28" y="-560.2" font-family="Helvetica,sans-Serif" font-size="11.00">marker_status</text>
<polygon fill="none" stroke="black" points="8,-530 8,-552 296,-552 296,-530 8,-530"/>
<image xlink:href="../../images/foreignKeys.png" width="11px" height="12px" preserveAspectRatio="xMinYMin meet" x="13" y="-547"/>
<text text-anchor="start" x="28" y="-538.2" font-family="Helvetica,sans-Serif" font-size="11.00">marker_profile</text>
<polygon fill="none" stroke="black" points="8,-508 8,-530 296,-530 296,-508 8,-508"/>
<image xlink:href="../../images/foreignKeys.png" width="11px" height="12px" preserveAspectRatio="xMinYMin meet" x="13" y="-525"/>
<text text-anchor="start" x="28" y="-516.2" font-family="Helvetica,sans-Serif" font-size="11.00">terrain_form</text>
<polygon fill="none" stroke="black" points="8,-486 8,-508 296,-508 296,-486 8,-486"/>
<image xlink:href="../../images/foreignKeys.png" width="11px" height="12px" preserveAspectRatio="xMinYMin meet" x="13" y="-503"/>
<text text-anchor="start" x="28" y="-494.2" font-family="Helvetica,sans-Serif" font-size="11.00">management_type</text>
<polygon fill="none" stroke="black" points="8,-464 8,-486 296,-486 296,-464 8,-464"/>
<image xlink:href="../../images/foreignKeys.png" width="11px" height="12px" preserveAspectRatio="xMinYMin meet" x="13" y="-481"/>
<text text-anchor="start" x="28" y="-472.2" font-family="Helvetica,sans-Serif" font-size="11.00">harvesting_method</text>
<polygon fill="none" stroke="black" points="8,-442 8,-464 296,-464 296,-442 8,-442"/>
<image xlink:href="../../images/foreignKeys.png" width="11px" height="12px" preserveAspectRatio="xMinYMin meet" x="13" y="-459"/>
<text text-anchor="start" x="28" y="-450.2" font-family="Helvetica,sans-Serif" font-size="11.00">stand_structure</text>
<polygon fill="none" stroke="black" points="8,-420 8,-442 296,-442 296,-420 8,-420"/>
<image xlink:href="../../images/foreignKeys.png" width="11px" height="12px" preserveAspectRatio="xMinYMin meet" x="13" y="-437"/>
<text text-anchor="start" x="28" y="-428.2" font-family="Helvetica,sans-Serif" font-size="11.00">stand_dev_phase</text>
<polygon fill="none" stroke="black" points="8,-398 8,-420 296,-420 296,-398 8,-398"/>
<image xlink:href="../../images/foreignKeys.png" width="11px" height="12px" preserveAspectRatio="xMinYMin meet" x="13" y="-415"/>
<text text-anchor="start" x="28" y="-406.2" font-family="Helvetica,sans-Serif" font-size="11.00">stand_layer_reg</text>
<polygon fill="none" stroke="black" points="8,-376 8,-398 296,-398 296,-376 8,-376"/>
<image xlink:href="../../images/foreignKeys.png" width="11px" height="12px" preserveAspectRatio="xMinYMin meet" x="13" y="-393"/>
<text text-anchor="start" x="28" y="-384.2" font-family="Helvetica,sans-Serif" font-size="11.00">trees_less_4meter_mirrored</text>
<polygon fill="none" stroke="black" points="8,-358 8,-376 296,-376 296,-358 8,-358"/>
<text text-anchor="start" x="11" y="-364.2" font-family="Helvetica,sans-Serif" font-size="11.00">...</text>
<polygon fill="#ffffff" stroke="transparent" points="8,-340 8,-358 296,-358 296,-340 8,-340"/>
<polygon fill="none" stroke="black" points="8,-340 8,-358 296,-358 296,-340 8,-340"/>
<polygon fill="#ffffff" stroke="transparent" points="9,-341 9,-357 104,-357 104,-341 9,-341"/>
<text text-anchor="start" x="11" y="-346.2" font-family="Helvetica,sans-Serif" font-size="11.00">&lt; 16</text>
<polygon fill="#ffffff" stroke="transparent" points="104,-341 104,-357 208,-357 208,-341 104,-341"/>
<text text-anchor="start" x="137.5" y="-346.2" font-family="Helvetica,sans-Serif" font-size="11.00">0 rows</text>
<polygon fill="#ffffff" stroke="transparent" points="208,-341 208,-357 295,-357 295,-341 208,-341"/>
<text text-anchor="start" x="273" y="-346.2" font-family="Helvetica,sans-Serif" font-size="11.00">7 &gt;</text>
<polygon fill="black" stroke="black" points="104,-341 104,-357 104,-357 104,-341 104,-341"/>
<polygon fill="black" stroke="black" points="208,-341 208,-357 208,-357 208,-341 208,-341"/>
</a>
</g>
</g>
<!-- edges&#45;&gt;plot -->
<g id="edge3" class="edge">
<title>edges:w&#45;&gt;plot:e</title>
<path fill="none" stroke="black" d="M331.98,-334.94C173.25,-357.03 482.82,-761 297,-761"/>
<polygon fill="black" stroke="black" points="338.52,-334.52 346.73,-337.59 342.51,-334.26 346.5,-334 346.5,-334 346.5,-334 342.51,-334.26 346.27,-330.41 338.52,-334.52 338.52,-334.52"/>
<ellipse fill="none" stroke="black" cx="335.32" cy="-334.72" rx="3.2" ry="3.2"/>
</g>
<!-- lookup_terrain -->
<g id="node5" class="node">
<title>lookup_terrain</title>
<g id="a_node5"><a xlink:href="../../tables/lookup_terrain.html" xlink:title="lookup_terrain" target="_top">
<polygon fill="#ffffff" stroke="transparent" points="75.5,-37 75.5,-117 228.5,-117 228.5,-37 75.5,-37"/>
<polygon fill="#f5f5f5" stroke="transparent" points="76,-95 76,-117 229,-117 229,-95 76,-95"/>
<polygon fill="none" stroke="black" points="76,-95 76,-117 229,-117 229,-95 76,-95"/>
<text text-anchor="start" x="81" y="-104.2" font-family="Helvetica,sans-Serif" font-weight="bold" font-size="11.00">lookup_terrain</text>
<text text-anchor="start" x="187" y="-103.2" font-family="Helvetica,sans-Serif" font-size="11.00">[table]</text>
<polygon fill="#ffffff" stroke="transparent" points="76,-73 76,-95 229,-95 229,-73 76,-73"/>
<polygon fill="none" stroke="black" points="76,-73 76,-95 229,-95 229,-73 76,-73"/>
<text text-anchor="start" x="109" y="-81.2" font-family="Helvetica,sans-Serif" font-size="11.00">abbreviation</text>
<polygon fill="none" stroke="black" points="76,-55 76,-73 229,-73 229,-55 76,-55"/>
<text text-anchor="start" x="79" y="-61.2" font-family="Helvetica,sans-Serif" font-size="11.00">...</text>
<polygon fill="#ffffff" stroke="transparent" points="76,-37 76,-55 229,-55 229,-37 76,-37"/>
<polygon fill="none" stroke="black" points="76,-37 76,-55 229,-55 229,-37 76,-37"/>
<polygon fill="#ffffff" stroke="transparent" points="77,-38 77,-54 114,-54 114,-38 77,-38"/>
<text text-anchor="start" x="79" y="-43.2" font-family="Helvetica,sans-Serif" font-size="11.00"> &#160;</text>
<polygon fill="#ffffff" stroke="transparent" points="114,-38 114,-54 180,-54 180,-38 114,-38"/>
<text text-anchor="start" x="128.5" y="-43.2" font-family="Helvetica,sans-Serif" font-size="11.00">0 rows</text>
<polygon fill="#ffffff" stroke="transparent" points="180,-38 180,-54 228,-54 228,-38 180,-38"/>
<text text-anchor="start" x="206" y="-43.2" font-family="Helvetica,sans-Serif" font-size="11.00">1 &gt;</text>
<polygon fill="black" stroke="black" points="114,-38 114,-54 114,-54 114,-38 114,-38"/>
<polygon fill="black" stroke="black" points="180,-38 180,-54 180,-54 180,-38 180,-38"/>
</a>
</g>
</g>
<!-- edges&#45;&gt;lookup_terrain -->
<g id="edge4" class="edge">
<title>edges:w&#45;&gt;lookup_terrain:e</title>
<path fill="none" stroke="black" d="M332.2,-198.5C314.5,-187.12 326.25,-150.59 304,-128 277.15,-100.74 268.26,-84 230,-84"/>
<polygon fill="black" stroke="black" points="338.73,-200.1 345.64,-205.5 342.61,-201.05 346.5,-202 346.5,-202 346.5,-202 342.61,-201.05 347.36,-198.5 338.73,-200.1 338.73,-200.1"/>
<ellipse fill="none" stroke="black" cx="335.62" cy="-199.34" rx="3.2" ry="3.2"/>
</g>
</g>
</svg>
