<?xml version="1.0" encoding="UTF-8" standalone="no"?>
<!DOCTYPE svg PUBLIC "-//W3C//DTD SVG 1.1//EN"
 "http://www.w3.org/Graphics/SVG/1.1/DTD/svg11.dtd">
<!-- Generated by graphviz version 2.43.0 (0)
 -->
<!-- Title: oneDegreeRelationshipsDiagram Pages: 1 -->
<svg width="812pt" height="241pt"
 viewBox="0.00 0.00 812.00 241.00" xmlns="http://www.w3.org/2000/svg" xmlns:xlink="http://www.w3.org/1999/xlink">
<g id="graph0" class="graph" transform="scale(1 1) rotate(0) translate(4 237)">
<title>oneDegreeRelationshipsDiagram</title>
<polygon fill="#ffffff" stroke="transparent" points="-4,4 -4,-237 808,-237 808,4 -4,4"/>
<text text-anchor="middle" x="79.5" y="-7.2" font-family="Helvetica,sans-Serif" font-size="11.00">Generated by SchemaSpy</text>
<!-- deadwood -->
<g id="node1" class="node">
<title>deadwood</title>
<g id="a_node1"><a xlink:href="../../tables/deadwood.html" xlink:title="deadwood" target="_top">
<polygon fill="#ffffff" stroke="transparent" points="634,-37 634,-205 796,-205 796,-37 634,-37"/>
<polygon fill="#f5f5f5" stroke="transparent" points="634,-183 634,-205 796,-205 796,-183 634,-183"/>
<polygon fill="none" stroke="black" points="634,-183 634,-205 796,-205 796,-183 634,-183"/>
<text text-anchor="start" x="639" y="-192.2" font-family="Helvetica,sans-Serif" font-weight="bold" font-size="11.00">deadwood</text>
<text text-anchor="start" x="754" y="-191.2" font-family="Helvetica,sans-Serif" font-size="11.00">[table]</text>
<polygon fill="none" stroke="black" points="634,-161 634,-183 796,-183 796,-161 634,-161"/>
<image xlink:href="../../images/primaryKeys.png" width="11px" height="12px" preserveAspectRatio="xMinYMin meet" x="639" y="-178"/>
<text text-anchor="start" x="654" y="-169.2" font-family="Helvetica,sans-Serif" font-size="11.00">id</text>
<polygon fill="none" stroke="black" points="634,-139 634,-161 796,-161 796,-139 634,-139"/>
<image xlink:href="../../images/foreignKeys.png" width="11px" height="12px" preserveAspectRatio="xMinYMin meet" x="639" y="-156"/>
<text text-anchor="start" x="654" y="-147.2" font-family="Helvetica,sans-Serif" font-size="11.00">plot_id</text>
<polygon fill="none" stroke="black" points="634,-117 634,-139 796,-139 796,-117 634,-117"/>
<image xlink:href="../../images/foreignKeys.png" width="11px" height="12px" preserveAspectRatio="xMinYMin meet" x="639" y="-134"/>
<text text-anchor="start" x="654" y="-125.2" font-family="Helvetica,sans-Serif" font-size="11.00">tree_species_group</text>
<polygon fill="none" stroke="black" points="634,-95 634,-117 796,-117 796,-95 634,-95"/>
<image xlink:href="../../images/foreignKeys.png" width="11px" height="12px" preserveAspectRatio="xMinYMin meet" x="639" y="-112"/>
<text text-anchor="start" x="654" y="-103.2" font-family="Helvetica,sans-Serif" font-size="11.00">dead_wood_type</text>
<polygon fill="none" stroke="black" points="634,-73 634,-95 796,-95 796,-73 634,-73"/>
<image xlink:href="../../images/foreignKeys.png" width="11px" height="12px" preserveAspectRatio="xMinYMin meet" x="639" y="-90"/>
<text text-anchor="start" x="654" y="-81.2" font-family="Helvetica,sans-Serif" font-size="11.00">decomposition</text>
<polygon fill="none" stroke="black" points="634,-55 634,-73 796,-73 796,-55 634,-55"/>
<text text-anchor="start" x="637" y="-61.2" font-family="Helvetica,sans-Serif" font-size="11.00">...</text>
<polygon fill="#ffffff" stroke="transparent" points="634,-37 634,-55 796,-55 796,-37 634,-37"/>
<polygon fill="none" stroke="black" points="634,-37 634,-55 796,-55 796,-37 634,-37"/>
<polygon fill="#ffffff" stroke="transparent" points="635,-38 635,-54 687,-54 687,-38 635,-38"/>
<text text-anchor="start" x="637" y="-43.2" font-family="Helvetica,sans-Serif" font-size="11.00">&lt; 4</text>
<polygon fill="#ffffff" stroke="transparent" points="687,-38 687,-54 756,-54 756,-38 687,-38"/>
<text text-anchor="start" x="703" y="-43.2" font-family="Helvetica,sans-Serif" font-size="11.00">0 rows</text>
<polygon fill="#ffffff" stroke="transparent" points="756,-38 756,-54 795,-54 795,-38 756,-38"/>
<text text-anchor="start" x="785" y="-43.2" font-family="Helvetica,sans-Serif" font-size="11.00"> &#160;</text>
<polygon fill="black" stroke="black" points="687,-38 687,-54 687,-54 687,-38 687,-38"/>
<polygon fill="black" stroke="black" points="756,-38 756,-54 756,-54 756,-38 756,-38"/>
</a>
</g>
</g>
<!-- lookup_tree_species_group -->
<g id="node2" class="node">
<title>lookup_tree_species_group</title>
<g id="a_node2"><a xlink:href="../../tables/lookup_tree_species_group.html" xlink:title="lookup_tree_species_group" target="_top">
<polygon fill="#ffffff" stroke="transparent" points="8,-97 8,-229 585,-229 585,-97 8,-97"/>
<polygon fill="#f5f5f5" stroke="transparent" points="10.5,-205 10.5,-227 583.5,-227 583.5,-205 10.5,-205"/>
<polygon fill="none" stroke="black" points="10.5,-205 10.5,-227 583.5,-227 583.5,-205 10.5,-205"/>
<text text-anchor="start" x="15.5" y="-214.2" font-family="Helvetica,sans-Serif" font-weight="bold" font-size="11.00">lookup_tree_species_group</text>
<text text-anchor="start" x="541.5" y="-213.2" font-family="Helvetica,sans-Serif" font-size="11.00">[table]</text>
<polygon fill="none" stroke="black" points="10.5,-183 10.5,-205 228.5,-205 228.5,-183 10.5,-183"/>
<text text-anchor="start" x="30.5" y="-191.2" font-family="Helvetica,sans-Serif" font-size="11.00">name_de</text>
<polygon fill="none" stroke="black" points="228.5,-183 228.5,-205 583.5,-205 583.5,-183 228.5,-183"/>
<text text-anchor="start" x="231.5" y="-191.2" font-family="Helvetica,sans-Serif" font-size="11.00">varchar[150]</text>
<polygon fill="none" stroke="black" points="10.5,-161 10.5,-183 228.5,-183 228.5,-161 10.5,-161"/>
<text text-anchor="start" x="30.5" y="-169.2" font-family="Helvetica,sans-Serif" font-size="11.00">name_en</text>
<polygon fill="none" stroke="black" points="228.5,-161 228.5,-183 583.5,-183 583.5,-161 228.5,-161"/>
<text text-anchor="start" x="231.5" y="-169.2" font-family="Helvetica,sans-Serif" font-size="11.00">varchar[150]</text>
<polygon fill="none" stroke="black" points="10.5,-139 10.5,-161 228.5,-161 228.5,-139 10.5,-139"/>
<text text-anchor="start" x="30.5" y="-147.2" font-family="Helvetica,sans-Serif" font-size="11.00">sort</text>
<polygon fill="none" stroke="black" points="228.5,-139 228.5,-161 583.5,-161 583.5,-139 228.5,-139"/>
<text text-anchor="start" x="231.5" y="-147.2" font-family="Helvetica,sans-Serif" font-size="11.00">int4[10]</text>
<polygon fill="#ffffff" stroke="transparent" points="10.5,-117 10.5,-139 228.5,-139 228.5,-117 10.5,-117"/>
<polygon fill="none" stroke="black" points="10.5,-117 10.5,-139 228.5,-139 228.5,-117 10.5,-117"/>
<text text-anchor="start" x="30.5" y="-125.2" font-family="Helvetica,sans-Serif" font-size="11.00">abbreviation</text>
<polygon fill="none" stroke="black" points="228.5,-117 228.5,-139 583.5,-139 583.5,-117 228.5,-117"/>
<text text-anchor="start" x="231.5" y="-125.2" font-family="Helvetica,sans-Serif" font-size="11.00">&quot;private_ci2027_001&quot;.&quot;enum_tree_species_group&quot;[2147483647]</text>
<polygon fill="#ffffff" stroke="transparent" points="10.5,-99 10.5,-117 583.5,-117 583.5,-99 10.5,-99"/>
<polygon fill="none" stroke="black" points="10.5,-99 10.5,-117 583.5,-117 583.5,-99 10.5,-99"/>
<polygon fill="#ffffff" stroke="transparent" points="11.5,-100 11.5,-116 196.5,-116 196.5,-100 11.5,-100"/>
<text text-anchor="start" x="13.5" y="-105.2" font-family="Helvetica,sans-Serif" font-size="11.00">&lt; 0</text>
<polygon fill="#ffffff" stroke="transparent" points="196.5,-100 196.5,-116 398.5,-116 398.5,-100 196.5,-100"/>
<text text-anchor="start" x="279" y="-105.2" font-family="Helvetica,sans-Serif" font-size="11.00">0 rows</text>
<polygon fill="#ffffff" stroke="transparent" points="398.5,-100 398.5,-116 582.5,-116 582.5,-100 398.5,-100"/>
<text text-anchor="start" x="560.5" y="-105.2" font-family="Helvetica,sans-Serif" font-size="11.00">1 &gt;</text>
<polygon fill="black" stroke="black" points="196.5,-100 196.5,-116 196.5,-116 196.5,-100 196.5,-100"/>
<polygon fill="black" stroke="black" points="398.5,-100 398.5,-116 398.5,-116 398.5,-100 398.5,-100"/>
<polygon fill="none" stroke="black" stroke-width="2" points="9,-98 9,-228 584,-228 584,-98 9,-98"/>
</a>
</g>
</g>
<!-- deadwood&#45;&gt;lookup_tree_species_group -->
<g id="edge1" class="edge">
<title>deadwood:w&#45;&gt;lookup_tree_species_group:e</title>
<path fill="none" stroke="black" d="M618.28,-128C607.29,-128 600.16,-128 584.5,-128"/>
<polygon fill="black" stroke="black" points="625,-128 633,-131.6 629,-128 633,-128 633,-128 633,-128 629,-128 633,-124.4 625,-128 625,-128"/>
<ellipse fill="none" stroke="black" cx="621.8" cy="-128" rx="3.2" ry="3.2"/>
</g>
</g>
</svg>
