<?xml version="1.0" encoding="UTF-8" standalone="no"?>
<!DOCTYPE svg PUBLIC "-//W3C//DTD SVG 1.1//EN"
 "http://www.w3.org/Graphics/SVG/1.1/DTD/svg11.dtd">
<!-- Generated by graphviz version 2.43.0 (0)
 -->
<!-- Title: oneDegreeRelationshipsDiagram Pages: 1 -->
<svg width="880pt" height="503pt"
 viewBox="0.00 0.00 880.00 503.00" xmlns="http://www.w3.org/2000/svg" xmlns:xlink="http://www.w3.org/1999/xlink">
<g id="graph0" class="graph" transform="scale(1 1) rotate(0) translate(4 499)">
<title>oneDegreeRelationshipsDiagram</title>
<polygon fill="#ffffff" stroke="transparent" points="-4,4 -4,-499 876,-499 876,4 -4,4"/>
<text text-anchor="middle" x="79.5" y="-7.2" font-family="Helvetica,sans-Serif" font-size="11.00">Generated by SchemaSpy</text>
<!-- plot -->
<g id="node1" class="node">
<title>plot</title>
<g id="a_node1"><a xlink:href="../../tables/plot.html" xlink:title="plot" target="_top">
<polygon fill="#ffffff" stroke="transparent" points="576,-37 576,-491 864,-491 864,-37 576,-37"/>
<polygon fill="#f5f5f5" stroke="transparent" points="576,-469 576,-491 864,-491 864,-469 576,-469"/>
<polygon fill="none" stroke="black" points="576,-469 576,-491 864,-491 864,-469 576,-469"/>
<text text-anchor="start" x="580.5" y="-478.2" font-family="Helvetica,sans-Serif" font-weight="bold" font-size="11.00">plot</text>
<text text-anchor="start" x="822" y="-477.2" font-family="Helvetica,sans-Serif" font-size="11.00">[table]</text>
<polygon fill="none" stroke="black" points="576,-447 576,-469 864,-469 864,-447 576,-447"/>
<image xlink:href="../../images/primaryKeys.png" width="11px" height="12px" preserveAspectRatio="xMinYMin meet" x="581" y="-464"/>
<text text-anchor="start" x="596" y="-455.2" font-family="Helvetica,sans-Serif" font-size="11.00">id</text>
<polygon fill="#ffffff" stroke="transparent" points="576,-425 576,-447 864,-447 864,-425 576,-425"/>
<polygon fill="none" stroke="black" points="576,-425 576,-447 864,-447 864,-425 576,-425"/>
<image xlink:href="../../images/foreignKeys.png" width="11px" height="12px" preserveAspectRatio="xMinYMin meet" x="581" y="-442"/>
<text text-anchor="start" x="596" y="-433.2" font-family="Helvetica,sans-Serif" font-size="11.00">cluster_id</text>
<polygon fill="#ffffff" stroke="transparent" points="576,-403 576,-425 864,-425 864,-403 576,-403"/>
<polygon fill="none" stroke="black" points="576,-403 576,-425 864,-425 864,-403 576,-403"/>
<text text-anchor="start" x="596" y="-411.2" font-family="Helvetica,sans-Serif" font-size="11.00">plot_name</text>
<polygon fill="none" stroke="black" points="576,-381 576,-403 864,-403 864,-381 576,-381"/>
<image xlink:href="../../images/foreignKeys.png" width="11px" height="12px" preserveAspectRatio="xMinYMin meet" x="581" y="-398"/>
<text text-anchor="start" x="596" y="-389.2" font-family="Helvetica,sans-Serif" font-size="11.00">growth_district</text>
<polygon fill="none" stroke="black" points="576,-359 576,-381 864,-381 864,-359 576,-359"/>
<image xlink:href="../../images/foreignKeys.png" width="11px" height="12px" preserveAspectRatio="xMinYMin meet" x="581" y="-376"/>
<text text-anchor="start" x="596" y="-367.2" font-family="Helvetica,sans-Serif" font-size="11.00">forest_status</text>
<polygon fill="none" stroke="black" points="576,-337 576,-359 864,-359 864,-337 576,-337"/>
<image xlink:href="../../images/foreignKeys.png" width="11px" height="12px" preserveAspectRatio="xMinYMin meet" x="581" y="-354"/>
<text text-anchor="start" x="596" y="-345.2" font-family="Helvetica,sans-Serif" font-size="11.00">elevation_level</text>
<polygon fill="none" stroke="black" points="576,-315 576,-337 864,-337 864,-315 576,-315"/>
<image xlink:href="../../images/foreignKeys.png" width="11px" height="12px" preserveAspectRatio="xMinYMin meet" x="581" y="-332"/>
<text text-anchor="start" x="596" y="-323.2" font-family="Helvetica,sans-Serif" font-size="11.00">property_type</text>
<polygon fill="none" stroke="black" points="576,-293 576,-315 864,-315 864,-293 576,-293"/>
<image xlink:href="../../images/foreignKeys.png" width="11px" height="12px" preserveAspectRatio="xMinYMin meet" x="581" y="-310"/>
<text text-anchor="start" x="596" y="-301.2" font-family="Helvetica,sans-Serif" font-size="11.00">property_size_class</text>
<polygon fill="none" stroke="black" points="576,-271 576,-293 864,-293 864,-271 576,-271"/>
<image xlink:href="../../images/foreignKeys.png" width="11px" height="12px" preserveAspectRatio="xMinYMin meet" x="581" y="-288"/>
<text text-anchor="start" x="596" y="-279.2" font-family="Helvetica,sans-Serif" font-size="11.00">land_use_after</text>
<polygon fill="none" stroke="black" points="576,-249 576,-271 864,-271 864,-249 576,-249"/>
<image xlink:href="../../images/foreignKeys.png" width="11px" height="12px" preserveAspectRatio="xMinYMin meet" x="581" y="-266"/>
<text text-anchor="start" x="596" y="-257.2" font-family="Helvetica,sans-Serif" font-size="11.00">marker_status</text>
<polygon fill="none" stroke="black" points="576,-227 576,-249 864,-249 864,-227 576,-227"/>
<image xlink:href="../../images/foreignKeys.png" width="11px" height="12px" preserveAspectRatio="xMinYMin meet" x="581" y="-244"/>
<text text-anchor="start" x="596" y="-235.2" font-family="Helvetica,sans-Serif" font-size="11.00">marker_profile</text>
<polygon fill="none" stroke="black" points="576,-205 576,-227 864,-227 864,-205 576,-205"/>
<image xlink:href="../../images/foreignKeys.png" width="11px" height="12px" preserveAspectRatio="xMinYMin meet" x="581" y="-222"/>
<text text-anchor="start" x="596" y="-213.2" font-family="Helvetica,sans-Serif" font-size="11.00">terrain_form</text>
<polygon fill="none" stroke="black" points="576,-183 576,-205 864,-205 864,-183 576,-183"/>
<image xlink:href="../../images/foreignKeys.png" width="11px" height="12px" preserveAspectRatio="xMinYMin meet" x="581" y="-200"/>
<text text-anchor="start" x="596" y="-191.2" font-family="Helvetica,sans-Serif" font-size="11.00">management_type</text>
<polygon fill="none" stroke="black" points="576,-161 576,-183 864,-183 864,-161 576,-161"/>
<image xlink:href="../../images/foreignKeys.png" width="11px" height="12px" preserveAspectRatio="xMinYMin meet" x="581" y="-178"/>
<text text-anchor="start" x="596" y="-169.2" font-family="Helvetica,sans-Serif" font-size="11.00">harvesting_method</text>
<polygon fill="none" stroke="black" points="576,-139 576,-161 864,-161 864,-139 576,-139"/>
<image xlink:href="../../images/foreignKeys.png" width="11px" height="12px" preserveAspectRatio="xMinYMin meet" x="581" y="-156"/>
<text text-anchor="start" x="596" y="-147.2" font-family="Helvetica,sans-Serif" font-size="11.00">stand_structure</text>
<polygon fill="none" stroke="black" points="576,-117 576,-139 864,-139 864,-117 576,-117"/>
<image xlink:href="../../images/foreignKeys.png" width="11px" height="12px" preserveAspectRatio="xMinYMin meet" x="581" y="-134"/>
<text text-anchor="start" x="596" y="-125.2" font-family="Helvetica,sans-Serif" font-size="11.00">stand_dev_phase</text>
<polygon fill="none" stroke="black" points="576,-95 576,-117 864,-117 864,-95 576,-95"/>
<image xlink:href="../../images/foreignKeys.png" width="11px" height="12px" preserveAspectRatio="xMinYMin meet" x="581" y="-112"/>
<text text-anchor="start" x="596" y="-103.2" font-family="Helvetica,sans-Serif" font-size="11.00">stand_layer_reg</text>
<polygon fill="none" stroke="black" points="576,-73 576,-95 864,-95 864,-73 576,-73"/>
<image xlink:href="../../images/foreignKeys.png" width="11px" height="12px" preserveAspectRatio="xMinYMin meet" x="581" y="-90"/>
<text text-anchor="start" x="596" y="-81.2" font-family="Helvetica,sans-Serif" font-size="11.00">trees_less_4meter_mirrored</text>
<polygon fill="none" stroke="black" points="576,-55 576,-73 864,-73 864,-55 576,-55"/>
<text text-anchor="start" x="579" y="-61.2" font-family="Helvetica,sans-Serif" font-size="11.00">...</text>
<polygon fill="#ffffff" stroke="transparent" points="576,-37 576,-55 864,-55 864,-37 576,-37"/>
<polygon fill="none" stroke="black" points="576,-37 576,-55 864,-55 864,-37 576,-37"/>
<polygon fill="#ffffff" stroke="transparent" points="577,-38 577,-54 672,-54 672,-38 577,-38"/>
<text text-anchor="start" x="579" y="-43.2" font-family="Helvetica,sans-Serif" font-size="11.00">&lt; 16</text>
<polygon fill="#ffffff" stroke="transparent" points="672,-38 672,-54 776,-54 776,-38 672,-38"/>
<text text-anchor="start" x="705.5" y="-43.2" font-family="Helvetica,sans-Serif" font-size="11.00">0 rows</text>
<polygon fill="#ffffff" stroke="transparent" points="776,-38 776,-54 863,-54 863,-38 776,-38"/>
<text text-anchor="start" x="841" y="-43.2" font-family="Helvetica,sans-Serif" font-size="11.00">7 &gt;</text>
<polygon fill="black" stroke="black" points="672,-38 672,-54 672,-54 672,-38 672,-38"/>
<polygon fill="black" stroke="black" points="776,-38 776,-54 776,-54 776,-38 776,-38"/>
</a>
</g>
</g>
<!-- lookup_marker_status -->
<g id="node2" class="node">
<title>lookup_marker_status</title>
<g id="a_node2"><a xlink:href="../../tables/lookup_marker_status.html" xlink:title="lookup_marker_status" target="_top">
<polygon fill="#ffffff" stroke="transparent" points="8,-229 8,-383 527,-383 527,-229 8,-229"/>
<polygon fill="#f5f5f5" stroke="transparent" points="10.5,-359 10.5,-381 525.5,-381 525.5,-359 10.5,-359"/>
<polygon fill="none" stroke="black" points="10.5,-359 10.5,-381 525.5,-381 525.5,-359 10.5,-359"/>
<text text-anchor="start" x="15.5" y="-368.2" font-family="Helvetica,sans-Serif" font-weight="bold" font-size="11.00">lookup_marker_status</text>
<text text-anchor="start" x="483.5" y="-367.2" font-family="Helvetica,sans-Serif" font-size="11.00">[table]</text>
<polygon fill="none" stroke="black" points="10.5,-337 10.5,-359 192.5,-359 192.5,-337 10.5,-337"/>
<text text-anchor="start" x="30.5" y="-345.2" font-family="Helvetica,sans-Serif" font-size="11.00">name_de</text>
<polygon fill="none" stroke="black" points="192.5,-337 192.5,-359 525.5,-359 525.5,-337 192.5,-337"/>
<text text-anchor="start" x="195.5" y="-345.2" font-family="Helvetica,sans-Serif" font-size="11.00">varchar[150]</text>
<polygon fill="none" stroke="black" points="10.5,-315 10.5,-337 192.5,-337 192.5,-315 10.5,-315"/>
<text text-anchor="start" x="30.5" y="-323.2" font-family="Helvetica,sans-Serif" font-size="11.00">name_en</text>
<polygon fill="none" stroke="black" points="192.5,-315 192.5,-337 525.5,-337 525.5,-315 192.5,-315"/>
<text text-anchor="start" x="195.5" y="-323.2" font-family="Helvetica,sans-Serif" font-size="11.00">varchar[150]</text>
<polygon fill="none" stroke="black" points="10.5,-293 10.5,-315 192.5,-315 192.5,-293 10.5,-293"/>
<text text-anchor="start" x="30.5" y="-301.2" font-family="Helvetica,sans-Serif" font-size="11.00">interval</text>
<polygon fill="none" stroke="black" points="192.5,-293 192.5,-315 525.5,-315 525.5,-293 192.5,-293"/>
<text text-anchor="start" x="195.5" y="-301.2" font-family="Helvetica,sans-Serif" font-size="11.00">&quot;private_ci2027_001&quot;.&quot;_enum_interval_name&quot;[2147483647]</text>
<polygon fill="none" stroke="black" points="10.5,-271 10.5,-293 192.5,-293 192.5,-271 10.5,-271"/>
<text text-anchor="start" x="30.5" y="-279.2" font-family="Helvetica,sans-Serif" font-size="11.00">sort</text>
<polygon fill="none" stroke="black" points="192.5,-271 192.5,-293 525.5,-293 525.5,-271 192.5,-271"/>
<text text-anchor="start" x="195.5" y="-279.2" font-family="Helvetica,sans-Serif" font-size="11.00">int4[10]</text>
<polygon fill="#ffffff" stroke="transparent" points="10.5,-249 10.5,-271 192.5,-271 192.5,-249 10.5,-249"/>
<polygon fill="none" stroke="black" points="10.5,-249 10.5,-271 192.5,-271 192.5,-249 10.5,-249"/>
<text text-anchor="start" x="30.5" y="-257.2" font-family="Helvetica,sans-Serif" font-size="11.00">abbreviation</text>
<polygon fill="none" stroke="black" points="192.5,-249 192.5,-271 525.5,-271 525.5,-249 192.5,-249"/>
<text text-anchor="start" x="195.5" y="-257.2" font-family="Helvetica,sans-Serif" font-size="11.00">&quot;private_ci2027_001&quot;.&quot;enum_marker_status&quot;[2147483647]</text>
<polygon fill="#ffffff" stroke="transparent" points="10.5,-231 10.5,-249 525.5,-249 525.5,-231 10.5,-231"/>
<polygon fill="none" stroke="black" points="10.5,-231 10.5,-249 525.5,-249 525.5,-231 10.5,-231"/>
<polygon fill="#ffffff" stroke="transparent" points="11.5,-232 11.5,-248 177.5,-248 177.5,-232 11.5,-232"/>
<text text-anchor="start" x="13.5" y="-237.2" font-family="Helvetica,sans-Serif" font-size="11.00">&lt; 0</text>
<polygon fill="#ffffff" stroke="transparent" points="177.5,-232 177.5,-248 359.5,-248 359.5,-232 177.5,-232"/>
<text text-anchor="start" x="250" y="-237.2" font-family="Helvetica,sans-Serif" font-size="11.00">0 rows</text>
<polygon fill="#ffffff" stroke="transparent" points="359.5,-232 359.5,-248 524.5,-248 524.5,-232 359.5,-232"/>
<text text-anchor="start" x="502.5" y="-237.2" font-family="Helvetica,sans-Serif" font-size="11.00">1 &gt;</text>
<polygon fill="black" stroke="black" points="177.5,-232 177.5,-248 177.5,-248 177.5,-232 177.5,-232"/>
<polygon fill="black" stroke="black" points="359.5,-232 359.5,-248 359.5,-248 359.5,-232 359.5,-232"/>
<polygon fill="none" stroke="black" stroke-width="2" points="9,-230 9,-382 526,-382 526,-230 9,-230"/>
</a>
</g>
</g>
<!-- plot&#45;&gt;lookup_marker_status -->
<g id="edge1" class="edge">
<title>plot:w&#45;&gt;lookup_marker_status:e</title>
<path fill="none" stroke="black" d="M560.28,-260C549.29,-260 542.16,-260 526.5,-260"/>
<polygon fill="black" stroke="black" points="567,-260 575,-263.6 571,-260 575,-260 575,-260 575,-260 571,-260 575,-256.4 567,-260 567,-260"/>
<ellipse fill="none" stroke="black" cx="563.8" cy="-260" rx="3.2" ry="3.2"/>
</g>
</g>
</svg>
