<?xml version="1.0" encoding="UTF-8" standalone="no"?>
<!DOCTYPE svg PUBLIC "-//W3C//DTD SVG 1.1//EN"
 "http://www.w3.org/Graphics/SVG/1.1/DTD/svg11.dtd">
<!-- Generated by graphviz version 2.43.0 (0)
 -->
<!-- Title: oneDegreeRelationshipsDiagram Pages: 1 -->
<svg width="871pt" height="505pt"
 viewBox="0.00 0.00 871.00 505.00" xmlns="http://www.w3.org/2000/svg" xmlns:xlink="http://www.w3.org/1999/xlink">
<g id="graph0" class="graph" transform="scale(1 1) rotate(0) translate(4 501)">
<title>oneDegreeRelationshipsDiagram</title>
<polygon fill="#ffffff" stroke="transparent" points="-4,4 -4,-501 867,-501 867,4 -4,4"/>
<text text-anchor="middle" x="79.5" y="-7.2" font-family="Helvetica,sans-Serif" font-size="11.00">Generated by SchemaSpy</text>
<!-- plot -->
<g id="node1" class="node">
<title>plot</title>
<g id="a_node1"><a xlink:href="../../tables/plot.html" xlink:title="plot" target="_top">
<polygon fill="#ffffff" stroke="transparent" points="567,-37 567,-491 855,-491 855,-37 567,-37"/>
<polygon fill="#f5f5f5" stroke="transparent" points="567,-469 567,-491 855,-491 855,-469 567,-469"/>
<polygon fill="none" stroke="black" points="567,-469 567,-491 855,-491 855,-469 567,-469"/>
<text text-anchor="start" x="571.5" y="-478.2" font-family="Helvetica,sans-Serif" font-weight="bold" font-size="11.00">plot</text>
<text text-anchor="start" x="813" y="-477.2" font-family="Helvetica,sans-Serif" font-size="11.00">[table]</text>
<polygon fill="none" stroke="black" points="567,-447 567,-469 855,-469 855,-447 567,-447"/>
<image xlink:href="../../images/primaryKeys.png" width="11px" height="12px" preserveAspectRatio="xMinYMin meet" x="572" y="-464"/>
<text text-anchor="start" x="587" y="-455.2" font-family="Helvetica,sans-Serif" font-size="11.00">id</text>
<polygon fill="#ffffff" stroke="transparent" points="567,-425 567,-447 855,-447 855,-425 567,-425"/>
<polygon fill="none" stroke="black" points="567,-425 567,-447 855,-447 855,-425 567,-425"/>
<image xlink:href="../../images/foreignKeys.png" width="11px" height="12px" preserveAspectRatio="xMinYMin meet" x="572" y="-442"/>
<text text-anchor="start" x="587" y="-433.2" font-family="Helvetica,sans-Serif" font-size="11.00">cluster_id</text>
<polygon fill="#ffffff" stroke="transparent" points="567,-403 567,-425 855,-425 855,-403 567,-403"/>
<polygon fill="none" stroke="black" points="567,-403 567,-425 855,-425 855,-403 567,-403"/>
<text text-anchor="start" x="587" y="-411.2" font-family="Helvetica,sans-Serif" font-size="11.00">plot_name</text>
<polygon fill="none" stroke="black" points="567,-381 567,-403 855,-403 855,-381 567,-381"/>
<image xlink:href="../../images/foreignKeys.png" width="11px" height="12px" preserveAspectRatio="xMinYMin meet" x="572" y="-398"/>
<text text-anchor="start" x="587" y="-389.2" font-family="Helvetica,sans-Serif" font-size="11.00">growth_district</text>
<polygon fill="none" stroke="black" points="567,-359 567,-381 855,-381 855,-359 567,-359"/>
<image xlink:href="../../images/foreignKeys.png" width="11px" height="12px" preserveAspectRatio="xMinYMin meet" x="572" y="-376"/>
<text text-anchor="start" x="587" y="-367.2" font-family="Helvetica,sans-Serif" font-size="11.00">forest_status</text>
<polygon fill="none" stroke="black" points="567,-337 567,-359 855,-359 855,-337 567,-337"/>
<image xlink:href="../../images/foreignKeys.png" width="11px" height="12px" preserveAspectRatio="xMinYMin meet" x="572" y="-354"/>
<text text-anchor="start" x="587" y="-345.2" font-family="Helvetica,sans-Serif" font-size="11.00">elevation_level</text>
<polygon fill="none" stroke="black" points="567,-315 567,-337 855,-337 855,-315 567,-315"/>
<image xlink:href="../../images/foreignKeys.png" width="11px" height="12px" preserveAspectRatio="xMinYMin meet" x="572" y="-332"/>
<text text-anchor="start" x="587" y="-323.2" font-family="Helvetica,sans-Serif" font-size="11.00">property_type</text>
<polygon fill="none" stroke="black" points="567,-293 567,-315 855,-315 855,-293 567,-293"/>
<image xlink:href="../../images/foreignKeys.png" width="11px" height="12px" preserveAspectRatio="xMinYMin meet" x="572" y="-310"/>
<text text-anchor="start" x="587" y="-301.2" font-family="Helvetica,sans-Serif" font-size="11.00">property_size_class</text>
<polygon fill="none" stroke="black" points="567,-271 567,-293 855,-293 855,-271 567,-271"/>
<image xlink:href="../../images/foreignKeys.png" width="11px" height="12px" preserveAspectRatio="xMinYMin meet" x="572" y="-288"/>
<text text-anchor="start" x="587" y="-279.2" font-family="Helvetica,sans-Serif" font-size="11.00">land_use_after</text>
<polygon fill="none" stroke="black" points="567,-249 567,-271 855,-271 855,-249 567,-249"/>
<image xlink:href="../../images/foreignKeys.png" width="11px" height="12px" preserveAspectRatio="xMinYMin meet" x="572" y="-266"/>
<text text-anchor="start" x="587" y="-257.2" font-family="Helvetica,sans-Serif" font-size="11.00">marker_status</text>
<polygon fill="none" stroke="black" points="567,-227 567,-249 855,-249 855,-227 567,-227"/>
<image xlink:href="../../images/foreignKeys.png" width="11px" height="12px" preserveAspectRatio="xMinYMin meet" x="572" y="-244"/>
<text text-anchor="start" x="587" y="-235.2" font-family="Helvetica,sans-Serif" font-size="11.00">marker_profile</text>
<polygon fill="none" stroke="black" points="567,-205 567,-227 855,-227 855,-205 567,-205"/>
<image xlink:href="../../images/foreignKeys.png" width="11px" height="12px" preserveAspectRatio="xMinYMin meet" x="572" y="-222"/>
<text text-anchor="start" x="587" y="-213.2" font-family="Helvetica,sans-Serif" font-size="11.00">terrain_form</text>
<polygon fill="none" stroke="black" points="567,-183 567,-205 855,-205 855,-183 567,-183"/>
<image xlink:href="../../images/foreignKeys.png" width="11px" height="12px" preserveAspectRatio="xMinYMin meet" x="572" y="-200"/>
<text text-anchor="start" x="587" y="-191.2" font-family="Helvetica,sans-Serif" font-size="11.00">management_type</text>
<polygon fill="none" stroke="black" points="567,-161 567,-183 855,-183 855,-161 567,-161"/>
<image xlink:href="../../images/foreignKeys.png" width="11px" height="12px" preserveAspectRatio="xMinYMin meet" x="572" y="-178"/>
<text text-anchor="start" x="587" y="-169.2" font-family="Helvetica,sans-Serif" font-size="11.00">harvesting_method</text>
<polygon fill="none" stroke="black" points="567,-139 567,-161 855,-161 855,-139 567,-139"/>
<image xlink:href="../../images/foreignKeys.png" width="11px" height="12px" preserveAspectRatio="xMinYMin meet" x="572" y="-156"/>
<text text-anchor="start" x="587" y="-147.2" font-family="Helvetica,sans-Serif" font-size="11.00">stand_structure</text>
<polygon fill="none" stroke="black" points="567,-117 567,-139 855,-139 855,-117 567,-117"/>
<image xlink:href="../../images/foreignKeys.png" width="11px" height="12px" preserveAspectRatio="xMinYMin meet" x="572" y="-134"/>
<text text-anchor="start" x="587" y="-125.2" font-family="Helvetica,sans-Serif" font-size="11.00">stand_dev_phase</text>
<polygon fill="none" stroke="black" points="567,-95 567,-117 855,-117 855,-95 567,-95"/>
<image xlink:href="../../images/foreignKeys.png" width="11px" height="12px" preserveAspectRatio="xMinYMin meet" x="572" y="-112"/>
<text text-anchor="start" x="587" y="-103.2" font-family="Helvetica,sans-Serif" font-size="11.00">stand_layer_reg</text>
<polygon fill="none" stroke="black" points="567,-73 567,-95 855,-95 855,-73 567,-73"/>
<image xlink:href="../../images/foreignKeys.png" width="11px" height="12px" preserveAspectRatio="xMinYMin meet" x="572" y="-90"/>
<text text-anchor="start" x="587" y="-81.2" font-family="Helvetica,sans-Serif" font-size="11.00">trees_less_4meter_mirrored</text>
<polygon fill="none" stroke="black" points="567,-55 567,-73 855,-73 855,-55 567,-55"/>
<text text-anchor="start" x="570" y="-61.2" font-family="Helvetica,sans-Serif" font-size="11.00">...</text>
<polygon fill="#ffffff" stroke="transparent" points="567,-37 567,-55 855,-55 855,-37 567,-37"/>
<polygon fill="none" stroke="black" points="567,-37 567,-55 855,-55 855,-37 567,-37"/>
<polygon fill="#ffffff" stroke="transparent" points="568,-38 568,-54 663,-54 663,-38 568,-38"/>
<text text-anchor="start" x="570" y="-43.2" font-family="Helvetica,sans-Serif" font-size="11.00">&lt; 16</text>
<polygon fill="#ffffff" stroke="transparent" points="663,-38 663,-54 767,-54 767,-38 663,-38"/>
<text text-anchor="start" x="696.5" y="-43.2" font-family="Helvetica,sans-Serif" font-size="11.00">0 rows</text>
<polygon fill="#ffffff" stroke="transparent" points="767,-38 767,-54 854,-54 854,-38 767,-38"/>
<text text-anchor="start" x="832" y="-43.2" font-family="Helvetica,sans-Serif" font-size="11.00">7 &gt;</text>
<polygon fill="black" stroke="black" points="663,-38 663,-54 663,-54 663,-38 663,-38"/>
<polygon fill="black" stroke="black" points="767,-38 767,-54 767,-54 767,-38 767,-38"/>
</a>
</g>
</g>
<!-- lookup_forest_status -->
<g id="node2" class="node">
<title>lookup_forest_status</title>
<g id="a_node2"><a xlink:href="../../tables/lookup_forest_status.html" xlink:title="lookup_forest_status" target="_top">
<polygon fill="#ffffff" stroke="transparent" points="8,-339 8,-493 518,-493 518,-339 8,-339"/>
<polygon fill="#f5f5f5" stroke="transparent" points="10,-469 10,-491 516,-491 516,-469 10,-469"/>
<polygon fill="none" stroke="black" points="10,-469 10,-491 516,-491 516,-469 10,-469"/>
<text text-anchor="start" x="15" y="-478.2" font-family="Helvetica,sans-Serif" font-weight="bold" font-size="11.00">lookup_forest_status</text>
<text text-anchor="start" x="474" y="-477.2" font-family="Helvetica,sans-Serif" font-size="11.00">[table]</text>
<polygon fill="none" stroke="black" points="10,-447 10,-469 183,-469 183,-447 10,-447"/>
<text text-anchor="start" x="30" y="-455.2" font-family="Helvetica,sans-Serif" font-size="11.00">name_de</text>
<polygon fill="none" stroke="black" points="183,-447 183,-469 516,-469 516,-447 183,-447"/>
<text text-anchor="start" x="186" y="-455.2" font-family="Helvetica,sans-Serif" font-size="11.00">varchar[150]</text>
<polygon fill="none" stroke="black" points="10,-425 10,-447 183,-447 183,-425 10,-425"/>
<text text-anchor="start" x="30" y="-433.2" font-family="Helvetica,sans-Serif" font-size="11.00">name_en</text>
<polygon fill="none" stroke="black" points="183,-425 183,-447 516,-447 516,-425 183,-425"/>
<text text-anchor="start" x="186" y="-433.2" font-family="Helvetica,sans-Serif" font-size="11.00">varchar[150]</text>
<polygon fill="none" stroke="black" points="10,-403 10,-425 183,-425 183,-403 10,-403"/>
<text text-anchor="start" x="30" y="-411.2" font-family="Helvetica,sans-Serif" font-size="11.00">interval</text>
<polygon fill="none" stroke="black" points="183,-403 183,-425 516,-425 516,-403 183,-403"/>
<text text-anchor="start" x="186" y="-411.2" font-family="Helvetica,sans-Serif" font-size="11.00">&quot;private_ci2027_001&quot;.&quot;_enum_interval_name&quot;[2147483647]</text>
<polygon fill="none" stroke="black" points="10,-381 10,-403 183,-403 183,-381 10,-381"/>
<text text-anchor="start" x="30" y="-389.2" font-family="Helvetica,sans-Serif" font-size="11.00">sort</text>
<polygon fill="none" stroke="black" points="183,-381 183,-403 516,-403 516,-381 183,-381"/>
<text text-anchor="start" x="186" y="-389.2" font-family="Helvetica,sans-Serif" font-size="11.00">int4[10]</text>
<polygon fill="#ffffff" stroke="transparent" points="10,-359 10,-381 183,-381 183,-359 10,-359"/>
<polygon fill="none" stroke="black" points="10,-359 10,-381 183,-381 183,-359 10,-359"/>
<text text-anchor="start" x="30" y="-367.2" font-family="Helvetica,sans-Serif" font-size="11.00">abbreviation</text>
<polygon fill="none" stroke="black" points="183,-359 183,-381 516,-381 516,-359 183,-359"/>
<text text-anchor="start" x="186" y="-367.2" font-family="Helvetica,sans-Serif" font-size="11.00">&quot;private_ci2027_001&quot;.&quot;enum_forest_status&quot;[2147483647]</text>
<polygon fill="#ffffff" stroke="transparent" points="10,-341 10,-359 516,-359 516,-341 10,-341"/>
<polygon fill="none" stroke="black" points="10,-341 10,-359 516,-359 516,-341 10,-341"/>
<polygon fill="#ffffff" stroke="transparent" points="11,-342 11,-358 174,-358 174,-342 11,-342"/>
<text text-anchor="start" x="13" y="-347.2" font-family="Helvetica,sans-Serif" font-size="11.00">&lt; 0</text>
<polygon fill="#ffffff" stroke="transparent" points="174,-342 174,-358 353,-358 353,-342 174,-342"/>
<text text-anchor="start" x="245" y="-347.2" font-family="Helvetica,sans-Serif" font-size="11.00">0 rows</text>
<polygon fill="#ffffff" stroke="transparent" points="353,-342 353,-358 515,-358 515,-342 353,-342"/>
<text text-anchor="start" x="493" y="-347.2" font-family="Helvetica,sans-Serif" font-size="11.00">1 &gt;</text>
<polygon fill="black" stroke="black" points="174,-342 174,-358 174,-358 174,-342 174,-342"/>
<polygon fill="black" stroke="black" points="353,-342 353,-358 353,-358 353,-342 353,-342"/>
<polygon fill="none" stroke="black" stroke-width="2" points="9,-340 9,-492 517,-492 517,-340 9,-340"/>
</a>
</g>
</g>
<!-- plot&#45;&gt;lookup_forest_status -->
<g id="edge1" class="edge">
<title>plot:w&#45;&gt;lookup_forest_status:e</title>
<path fill="none" stroke="black" d="M551.49,-370C540.18,-370 532.99,-370 517,-370"/>
<polygon fill="black" stroke="black" points="558,-370 566,-373.6 562,-370 566,-370 566,-370 566,-370 562,-370 566,-366.4 558,-370 558,-370"/>
<ellipse fill="none" stroke="black" cx="554.8" cy="-370" rx="3.2" ry="3.2"/>
</g>
</g>
</svg>
