<?xml version="1.0" encoding="UTF-8" standalone="no"?>
<!DOCTYPE svg PUBLIC "-//W3C//DTD SVG 1.1//EN"
 "http://www.w3.org/Graphics/SVG/1.1/DTD/svg11.dtd">
<!-- Generated by graphviz version 2.43.0 (0)
 -->
<!-- Title: oneDegreeRelationshipsDiagram Pages: 1 -->
<svg width="929pt" height="503pt"
 viewBox="0.00 0.00 929.00 503.00" xmlns="http://www.w3.org/2000/svg" xmlns:xlink="http://www.w3.org/1999/xlink">
<g id="graph0" class="graph" transform="scale(1 1) rotate(0) translate(4 499)">
<title>oneDegreeRelationshipsDiagram</title>
<polygon fill="#ffffff" stroke="transparent" points="-4,4 -4,-499 925,-499 925,4 -4,4"/>
<text text-anchor="middle" x="79.5" y="-7.2" font-family="Helvetica,sans-Serif" font-size="11.00">Generated by SchemaSpy</text>
<!-- plot -->
<g id="node1" class="node">
<title>plot</title>
<g id="a_node1"><a xlink:href="../../tables/plot.html" xlink:title="plot" target="_top">
<polygon fill="#ffffff" stroke="transparent" points="625,-37 625,-491 913,-491 913,-37 625,-37"/>
<polygon fill="#f5f5f5" stroke="transparent" points="625,-469 625,-491 913,-491 913,-469 625,-469"/>
<polygon fill="none" stroke="black" points="625,-469 625,-491 913,-491 913,-469 625,-469"/>
<text text-anchor="start" x="629.5" y="-478.2" font-family="Helvetica,sans-Serif" font-weight="bold" font-size="11.00">plot</text>
<text text-anchor="start" x="871" y="-477.2" font-family="Helvetica,sans-Serif" font-size="11.00">[table]</text>
<polygon fill="none" stroke="black" points="625,-447 625,-469 913,-469 913,-447 625,-447"/>
<image xlink:href="../../images/primaryKeys.png" width="11px" height="12px" preserveAspectRatio="xMinYMin meet" x="630" y="-464"/>
<text text-anchor="start" x="645" y="-455.2" font-family="Helvetica,sans-Serif" font-size="11.00">id</text>
<polygon fill="#ffffff" stroke="transparent" points="625,-425 625,-447 913,-447 913,-425 625,-425"/>
<polygon fill="none" stroke="black" points="625,-425 625,-447 913,-447 913,-425 625,-425"/>
<image xlink:href="../../images/foreignKeys.png" width="11px" height="12px" preserveAspectRatio="xMinYMin meet" x="630" y="-442"/>
<text text-anchor="start" x="645" y="-433.2" font-family="Helvetica,sans-Serif" font-size="11.00">cluster_id</text>
<polygon fill="#ffffff" stroke="transparent" points="625,-403 625,-425 913,-425 913,-403 625,-403"/>
<polygon fill="none" stroke="black" points="625,-403 625,-425 913,-425 913,-403 625,-403"/>
<text text-anchor="start" x="645" y="-411.2" font-family="Helvetica,sans-Serif" font-size="11.00">plot_name</text>
<polygon fill="none" stroke="black" points="625,-381 625,-403 913,-403 913,-381 625,-381"/>
<image xlink:href="../../images/foreignKeys.png" width="11px" height="12px" preserveAspectRatio="xMinYMin meet" x="630" y="-398"/>
<text text-anchor="start" x="645" y="-389.2" font-family="Helvetica,sans-Serif" font-size="11.00">growth_district</text>
<polygon fill="none" stroke="black" points="625,-359 625,-381 913,-381 913,-359 625,-359"/>
<image xlink:href="../../images/foreignKeys.png" width="11px" height="12px" preserveAspectRatio="xMinYMin meet" x="630" y="-376"/>
<text text-anchor="start" x="645" y="-367.2" font-family="Helvetica,sans-Serif" font-size="11.00">forest_status</text>
<polygon fill="none" stroke="black" points="625,-337 625,-359 913,-359 913,-337 625,-337"/>
<image xlink:href="../../images/foreignKeys.png" width="11px" height="12px" preserveAspectRatio="xMinYMin meet" x="630" y="-354"/>
<text text-anchor="start" x="645" y="-345.2" font-family="Helvetica,sans-Serif" font-size="11.00">elevation_level</text>
<polygon fill="none" stroke="black" points="625,-315 625,-337 913,-337 913,-315 625,-315"/>
<image xlink:href="../../images/foreignKeys.png" width="11px" height="12px" preserveAspectRatio="xMinYMin meet" x="630" y="-332"/>
<text text-anchor="start" x="645" y="-323.2" font-family="Helvetica,sans-Serif" font-size="11.00">property_type</text>
<polygon fill="none" stroke="black" points="625,-293 625,-315 913,-315 913,-293 625,-293"/>
<image xlink:href="../../images/foreignKeys.png" width="11px" height="12px" preserveAspectRatio="xMinYMin meet" x="630" y="-310"/>
<text text-anchor="start" x="645" y="-301.2" font-family="Helvetica,sans-Serif" font-size="11.00">property_size_class</text>
<polygon fill="none" stroke="black" points="625,-271 625,-293 913,-293 913,-271 625,-271"/>
<image xlink:href="../../images/foreignKeys.png" width="11px" height="12px" preserveAspectRatio="xMinYMin meet" x="630" y="-288"/>
<text text-anchor="start" x="645" y="-279.2" font-family="Helvetica,sans-Serif" font-size="11.00">land_use_after</text>
<polygon fill="none" stroke="black" points="625,-249 625,-271 913,-271 913,-249 625,-249"/>
<image xlink:href="../../images/foreignKeys.png" width="11px" height="12px" preserveAspectRatio="xMinYMin meet" x="630" y="-266"/>
<text text-anchor="start" x="645" y="-257.2" font-family="Helvetica,sans-Serif" font-size="11.00">marker_status</text>
<polygon fill="none" stroke="black" points="625,-227 625,-249 913,-249 913,-227 625,-227"/>
<image xlink:href="../../images/foreignKeys.png" width="11px" height="12px" preserveAspectRatio="xMinYMin meet" x="630" y="-244"/>
<text text-anchor="start" x="645" y="-235.2" font-family="Helvetica,sans-Serif" font-size="11.00">marker_profile</text>
<polygon fill="none" stroke="black" points="625,-205 625,-227 913,-227 913,-205 625,-205"/>
<image xlink:href="../../images/foreignKeys.png" width="11px" height="12px" preserveAspectRatio="xMinYMin meet" x="630" y="-222"/>
<text text-anchor="start" x="645" y="-213.2" font-family="Helvetica,sans-Serif" font-size="11.00">terrain_form</text>
<polygon fill="none" stroke="black" points="625,-183 625,-205 913,-205 913,-183 625,-183"/>
<image xlink:href="../../images/foreignKeys.png" width="11px" height="12px" preserveAspectRatio="xMinYMin meet" x="630" y="-200"/>
<text text-anchor="start" x="645" y="-191.2" font-family="Helvetica,sans-Serif" font-size="11.00">management_type</text>
<polygon fill="none" stroke="black" points="625,-161 625,-183 913,-183 913,-161 625,-161"/>
<image xlink:href="../../images/foreignKeys.png" width="11px" height="12px" preserveAspectRatio="xMinYMin meet" x="630" y="-178"/>
<text text-anchor="start" x="645" y="-169.2" font-family="Helvetica,sans-Serif" font-size="11.00">harvesting_method</text>
<polygon fill="none" stroke="black" points="625,-139 625,-161 913,-161 913,-139 625,-139"/>
<image xlink:href="../../images/foreignKeys.png" width="11px" height="12px" preserveAspectRatio="xMinYMin meet" x="630" y="-156"/>
<text text-anchor="start" x="645" y="-147.2" font-family="Helvetica,sans-Serif" font-size="11.00">stand_structure</text>
<polygon fill="none" stroke="black" points="625,-117 625,-139 913,-139 913,-117 625,-117"/>
<image xlink:href="../../images/foreignKeys.png" width="11px" height="12px" preserveAspectRatio="xMinYMin meet" x="630" y="-134"/>
<text text-anchor="start" x="645" y="-125.2" font-family="Helvetica,sans-Serif" font-size="11.00">stand_dev_phase</text>
<polygon fill="none" stroke="black" points="625,-95 625,-117 913,-117 913,-95 625,-95"/>
<image xlink:href="../../images/foreignKeys.png" width="11px" height="12px" preserveAspectRatio="xMinYMin meet" x="630" y="-112"/>
<text text-anchor="start" x="645" y="-103.2" font-family="Helvetica,sans-Serif" font-size="11.00">stand_layer_reg</text>
<polygon fill="none" stroke="black" points="625,-73 625,-95 913,-95 913,-73 625,-73"/>
<image xlink:href="../../images/foreignKeys.png" width="11px" height="12px" preserveAspectRatio="xMinYMin meet" x="630" y="-90"/>
<text text-anchor="start" x="645" y="-81.2" font-family="Helvetica,sans-Serif" font-size="11.00">trees_less_4meter_mirrored</text>
<polygon fill="none" stroke="black" points="625,-55 625,-73 913,-73 913,-55 625,-55"/>
<text text-anchor="start" x="628" y="-61.2" font-family="Helvetica,sans-Serif" font-size="11.00">...</text>
<polygon fill="#ffffff" stroke="transparent" points="625,-37 625,-55 913,-55 913,-37 625,-37"/>
<polygon fill="none" stroke="black" points="625,-37 625,-55 913,-55 913,-37 625,-37"/>
<polygon fill="#ffffff" stroke="transparent" points="626,-38 626,-54 721,-54 721,-38 626,-38"/>
<text text-anchor="start" x="628" y="-43.2" font-family="Helvetica,sans-Serif" font-size="11.00">&lt; 16</text>
<polygon fill="#ffffff" stroke="transparent" points="721,-38 721,-54 825,-54 825,-38 721,-38"/>
<text text-anchor="start" x="754.5" y="-43.2" font-family="Helvetica,sans-Serif" font-size="11.00">0 rows</text>
<polygon fill="#ffffff" stroke="transparent" points="825,-38 825,-54 912,-54 912,-38 825,-38"/>
<text text-anchor="start" x="890" y="-43.2" font-family="Helvetica,sans-Serif" font-size="11.00">7 &gt;</text>
<polygon fill="black" stroke="black" points="721,-38 721,-54 721,-54 721,-38 721,-38"/>
<polygon fill="black" stroke="black" points="825,-38 825,-54 825,-54 825,-38 825,-38"/>
</a>
</g>
</g>
<!-- lookup_management_type -->
<g id="node2" class="node">
<title>lookup_management_type</title>
<g id="a_node2"><a xlink:href="../../tables/lookup_management_type.html" xlink:title="lookup_management_type" target="_top">
<polygon fill="#ffffff" stroke="transparent" points="8,-163 8,-317 576,-317 576,-163 8,-163"/>
<polygon fill="#f5f5f5" stroke="transparent" points="10,-293 10,-315 574,-315 574,-293 10,-293"/>
<polygon fill="none" stroke="black" points="10,-293 10,-315 574,-315 574,-293 10,-293"/>
<text text-anchor="start" x="15" y="-302.2" font-family="Helvetica,sans-Serif" font-weight="bold" font-size="11.00">lookup_management_type</text>
<text text-anchor="start" x="532" y="-301.2" font-family="Helvetica,sans-Serif" font-size="11.00">[table]</text>
<polygon fill="none" stroke="black" points="10,-271 10,-293 222,-293 222,-271 10,-271"/>
<text text-anchor="start" x="30" y="-279.2" font-family="Helvetica,sans-Serif" font-size="11.00">name_de</text>
<polygon fill="none" stroke="black" points="222,-271 222,-293 574,-293 574,-271 222,-271"/>
<text text-anchor="start" x="225" y="-279.2" font-family="Helvetica,sans-Serif" font-size="11.00">varchar[150]</text>
<polygon fill="none" stroke="black" points="10,-249 10,-271 222,-271 222,-249 10,-249"/>
<text text-anchor="start" x="30" y="-257.2" font-family="Helvetica,sans-Serif" font-size="11.00">name_en</text>
<polygon fill="none" stroke="black" points="222,-249 222,-271 574,-271 574,-249 222,-249"/>
<text text-anchor="start" x="225" y="-257.2" font-family="Helvetica,sans-Serif" font-size="11.00">varchar[150]</text>
<polygon fill="none" stroke="black" points="10,-227 10,-249 222,-249 222,-227 10,-227"/>
<text text-anchor="start" x="30" y="-235.2" font-family="Helvetica,sans-Serif" font-size="11.00">interval</text>
<polygon fill="none" stroke="black" points="222,-227 222,-249 574,-249 574,-227 222,-227"/>
<text text-anchor="start" x="225" y="-235.2" font-family="Helvetica,sans-Serif" font-size="11.00">&quot;private_ci2027_001&quot;.&quot;_enum_interval_name&quot;[2147483647]</text>
<polygon fill="none" stroke="black" points="10,-205 10,-227 222,-227 222,-205 10,-205"/>
<text text-anchor="start" x="30" y="-213.2" font-family="Helvetica,sans-Serif" font-size="11.00">sort</text>
<polygon fill="none" stroke="black" points="222,-205 222,-227 574,-227 574,-205 222,-205"/>
<text text-anchor="start" x="225" y="-213.2" font-family="Helvetica,sans-Serif" font-size="11.00">int4[10]</text>
<polygon fill="#ffffff" stroke="transparent" points="10,-183 10,-205 222,-205 222,-183 10,-183"/>
<polygon fill="none" stroke="black" points="10,-183 10,-205 222,-205 222,-183 10,-183"/>
<text text-anchor="start" x="30" y="-191.2" font-family="Helvetica,sans-Serif" font-size="11.00">abbreviation</text>
<polygon fill="none" stroke="black" points="222,-183 222,-205 574,-205 574,-183 222,-183"/>
<text text-anchor="start" x="225" y="-191.2" font-family="Helvetica,sans-Serif" font-size="11.00">&quot;private_ci2027_001&quot;.&quot;enum_management_type&quot;[2147483647]</text>
<polygon fill="#ffffff" stroke="transparent" points="10,-165 10,-183 574,-183 574,-165 10,-165"/>
<polygon fill="none" stroke="black" points="10,-165 10,-183 574,-183 574,-165 10,-165"/>
<polygon fill="#ffffff" stroke="transparent" points="11,-166 11,-182 193,-182 193,-166 11,-166"/>
<text text-anchor="start" x="13" y="-171.2" font-family="Helvetica,sans-Serif" font-size="11.00">&lt; 0</text>
<polygon fill="#ffffff" stroke="transparent" points="193,-166 193,-182 392,-182 392,-166 193,-166"/>
<text text-anchor="start" x="274" y="-171.2" font-family="Helvetica,sans-Serif" font-size="11.00">0 rows</text>
<polygon fill="#ffffff" stroke="transparent" points="392,-166 392,-182 573,-182 573,-166 392,-166"/>
<text text-anchor="start" x="551" y="-171.2" font-family="Helvetica,sans-Serif" font-size="11.00">1 &gt;</text>
<polygon fill="black" stroke="black" points="193,-166 193,-182 193,-182 193,-166 193,-166"/>
<polygon fill="black" stroke="black" points="392,-166 392,-182 392,-182 392,-166 392,-166"/>
<polygon fill="none" stroke="black" stroke-width="2" points="9,-164 9,-316 575,-316 575,-164 9,-164"/>
</a>
</g>
</g>
<!-- plot&#45;&gt;lookup_management_type -->
<g id="edge1" class="edge">
<title>plot:w&#45;&gt;lookup_management_type:e</title>
<path fill="none" stroke="black" d="M609.49,-194C598.18,-194 590.99,-194 575,-194"/>
<polygon fill="black" stroke="black" points="616,-194 624,-197.6 620,-194 624,-194 624,-194 624,-194 620,-194 624,-190.4 616,-194 616,-194"/>
<ellipse fill="none" stroke="black" cx="612.8" cy="-194" rx="3.2" ry="3.2"/>
</g>
</g>
</svg>
