<?xml version="1.0" encoding="UTF-8" standalone="no"?>
<!DOCTYPE svg PUBLIC "-//W3C//DTD SVG 1.1//EN"
 "http://www.w3.org/Graphics/SVG/1.1/DTD/svg11.dtd">
<!-- Generated by graphviz version 2.43.0 (0)
 -->
<!-- Title: oneDegreeRelationshipsDiagram Pages: 1 -->
<svg width="679pt" height="217pt"
 viewBox="0.00 0.00 679.00 217.00" xmlns="http://www.w3.org/2000/svg" xmlns:xlink="http://www.w3.org/1999/xlink">
<g id="graph0" class="graph" transform="scale(1 1) rotate(0) translate(4 213)">
<title>oneDegreeRelationshipsDiagram</title>
<polygon fill="#ffffff" stroke="transparent" points="-4,4 -4,-213 675,-213 675,4 -4,4"/>
<text text-anchor="middle" x="79.5" y="-7.2" font-family="Helvetica,sans-Serif" font-size="11.00">Generated by SchemaSpy</text>
<!-- cluster -->
<g id="node1" class="node">
<title>cluster</title>
<g id="a_node1"><a xlink:href="../../tables/cluster.html" xlink:title="cluster" target="_top">
<polygon fill="#ffffff" stroke="transparent" points="453,-37 453,-205 663,-205 663,-37 453,-37"/>
<polygon fill="#f5f5f5" stroke="transparent" points="453,-183 453,-205 663,-205 663,-183 453,-183"/>
<polygon fill="none" stroke="black" points="453,-183 453,-205 663,-205 663,-183 453,-183"/>
<text text-anchor="start" x="458" y="-192.2" font-family="Helvetica,sans-Serif" font-weight="bold" font-size="11.00">cluster</text>
<text text-anchor="start" x="621" y="-191.2" font-family="Helvetica,sans-Serif" font-size="11.00">[table]</text>
<polygon fill="none" stroke="black" points="453,-161 453,-183 663,-183 663,-161 453,-161"/>
<image xlink:href="../../images/primaryKeys.png" width="11px" height="12px" preserveAspectRatio="xMinYMin meet" x="458" y="-178"/>
<text text-anchor="start" x="473" y="-169.2" font-family="Helvetica,sans-Serif" font-size="11.00">id</text>
<polygon fill="#ffffff" stroke="transparent" points="453,-139 453,-161 663,-161 663,-139 453,-139"/>
<polygon fill="none" stroke="black" points="453,-139 453,-161 663,-161 663,-139 453,-139"/>
<text text-anchor="start" x="473" y="-147.2" font-family="Helvetica,sans-Serif" font-size="11.00">cluster_name</text>
<polygon fill="none" stroke="black" points="453,-117 453,-139 663,-139 663,-117 453,-117"/>
<image xlink:href="../../images/foreignKeys.png" width="11px" height="12px" preserveAspectRatio="xMinYMin meet" x="458" y="-134"/>
<text text-anchor="start" x="473" y="-125.2" font-family="Helvetica,sans-Serif" font-size="11.00">supervisor_id</text>
<polygon fill="none" stroke="black" points="453,-95 453,-117 663,-117 663,-95 453,-95"/>
<image xlink:href="../../images/foreignKeys.png" width="11px" height="12px" preserveAspectRatio="xMinYMin meet" x="458" y="-112"/>
<text text-anchor="start" x="473" y="-103.2" font-family="Helvetica,sans-Serif" font-size="11.00">state_administration</text>
<polygon fill="none" stroke="black" points="453,-73 453,-95 663,-95 663,-73 453,-73"/>
<image xlink:href="../../images/foreignKeys.png" width="11px" height="12px" preserveAspectRatio="xMinYMin meet" x="458" y="-90"/>
<text text-anchor="start" x="473" y="-81.2" font-family="Helvetica,sans-Serif" font-size="11.00">state_location</text>
<polygon fill="none" stroke="black" points="453,-55 453,-73 663,-73 663,-55 453,-55"/>
<text text-anchor="start" x="456" y="-61.2" font-family="Helvetica,sans-Serif" font-size="11.00">...</text>
<polygon fill="#ffffff" stroke="transparent" points="453,-37 453,-55 663,-55 663,-37 453,-37"/>
<polygon fill="none" stroke="black" points="453,-37 453,-55 663,-55 663,-37 453,-37"/>
<polygon fill="#ffffff" stroke="transparent" points="454,-38 454,-54 518,-54 518,-38 454,-38"/>
<text text-anchor="start" x="456" y="-43.2" font-family="Helvetica,sans-Serif" font-size="11.00">&lt; 3</text>
<polygon fill="#ffffff" stroke="transparent" points="518,-38 518,-54 599,-54 599,-38 518,-38"/>
<text text-anchor="start" x="540" y="-43.2" font-family="Helvetica,sans-Serif" font-size="11.00">0 rows</text>
<polygon fill="#ffffff" stroke="transparent" points="599,-38 599,-54 662,-54 662,-38 599,-38"/>
<text text-anchor="start" x="640" y="-43.2" font-family="Helvetica,sans-Serif" font-size="11.00">1 &gt;</text>
<polygon fill="black" stroke="black" points="518,-38 518,-54 518,-54 518,-38 518,-38"/>
<polygon fill="black" stroke="black" points="599,-38 599,-54 599,-54 599,-38 599,-38"/>
</a>
</g>
</g>
<!-- lookup_state -->
<g id="node2" class="node">
<title>lookup_state</title>
<g id="a_node2"><a xlink:href="../../tables/lookup_state.html" xlink:title="lookup_state" target="_top">
<polygon fill="#ffffff" stroke="transparent" points="8,-64 8,-196 404,-196 404,-64 8,-64"/>
<polygon fill="#f5f5f5" stroke="transparent" points="10,-172 10,-194 402,-194 402,-172 10,-172"/>
<polygon fill="none" stroke="black" points="10,-172 10,-194 402,-194 402,-172 10,-172"/>
<text text-anchor="start" x="15" y="-181.2" font-family="Helvetica,sans-Serif" font-weight="bold" font-size="11.00">lookup_state</text>
<text text-anchor="start" x="360" y="-180.2" font-family="Helvetica,sans-Serif" font-size="11.00">[table]</text>
<polygon fill="none" stroke="black" points="10,-150 10,-172 124,-172 124,-150 10,-150"/>
<text text-anchor="start" x="30" y="-158.2" font-family="Helvetica,sans-Serif" font-size="11.00">name_de</text>
<polygon fill="none" stroke="black" points="124,-150 124,-172 402,-172 402,-150 124,-150"/>
<text text-anchor="start" x="127" y="-158.2" font-family="Helvetica,sans-Serif" font-size="11.00">varchar[150]</text>
<polygon fill="none" stroke="black" points="10,-128 10,-150 124,-150 124,-128 10,-128"/>
<text text-anchor="start" x="30" y="-136.2" font-family="Helvetica,sans-Serif" font-size="11.00">name_en</text>
<polygon fill="none" stroke="black" points="124,-128 124,-150 402,-150 402,-128 124,-128"/>
<text text-anchor="start" x="127" y="-136.2" font-family="Helvetica,sans-Serif" font-size="11.00">varchar[150]</text>
<polygon fill="none" stroke="black" points="10,-106 10,-128 124,-128 124,-106 10,-106"/>
<text text-anchor="start" x="30" y="-114.2" font-family="Helvetica,sans-Serif" font-size="11.00">sort</text>
<polygon fill="none" stroke="black" points="124,-106 124,-128 402,-128 402,-106 124,-106"/>
<text text-anchor="start" x="127" y="-114.2" font-family="Helvetica,sans-Serif" font-size="11.00">int4[10]</text>
<polygon fill="#ffffff" stroke="transparent" points="10,-84 10,-106 124,-106 124,-84 10,-84"/>
<polygon fill="none" stroke="black" points="10,-84 10,-106 124,-106 124,-84 10,-84"/>
<text text-anchor="start" x="30" y="-92.2" font-family="Helvetica,sans-Serif" font-size="11.00">abbreviation</text>
<polygon fill="none" stroke="black" points="124,-84 124,-106 402,-106 402,-84 124,-84"/>
<text text-anchor="start" x="127" y="-92.2" font-family="Helvetica,sans-Serif" font-size="11.00">&quot;private_ci2027_001&quot;.&quot;enum_state&quot;[2147483647]</text>
<polygon fill="#ffffff" stroke="transparent" points="10,-66 10,-84 402,-84 402,-66 10,-66"/>
<polygon fill="none" stroke="black" points="10,-66 10,-84 402,-84 402,-66 10,-66"/>
<polygon fill="#ffffff" stroke="transparent" points="11,-67 11,-83 136,-83 136,-67 11,-67"/>
<text text-anchor="start" x="13" y="-72.2" font-family="Helvetica,sans-Serif" font-size="11.00">&lt; 0</text>
<polygon fill="#ffffff" stroke="transparent" points="136,-67 136,-83 277,-83 277,-67 136,-67"/>
<text text-anchor="start" x="188" y="-72.2" font-family="Helvetica,sans-Serif" font-size="11.00">0 rows</text>
<polygon fill="#ffffff" stroke="transparent" points="277,-67 277,-83 401,-83 401,-67 277,-67"/>
<text text-anchor="start" x="379" y="-72.2" font-family="Helvetica,sans-Serif" font-size="11.00">2 &gt;</text>
<polygon fill="black" stroke="black" points="136,-67 136,-83 136,-83 136,-67 136,-67"/>
<polygon fill="black" stroke="black" points="277,-67 277,-83 277,-83 277,-67 277,-67"/>
<polygon fill="none" stroke="black" stroke-width="2" points="9,-65 9,-195 403,-195 403,-65 9,-65"/>
</a>
</g>
</g>
<!-- cluster&#45;&gt;lookup_state -->
<g id="edge1" class="edge">
<title>cluster:w&#45;&gt;lookup_state:e</title>
<path fill="none" stroke="black" d="M437.7,-104.18C426.24,-101.06 419.57,-95 403,-95"/>
<polygon fill="black" stroke="black" points="444.06,-104.99 451.55,-109.57 448.03,-105.5 452,-106 452,-106 452,-106 448.03,-105.5 452.45,-102.43 444.06,-104.99 444.06,-104.99"/>
<ellipse fill="none" stroke="black" cx="440.89" cy="-104.59" rx="3.2" ry="3.2"/>
</g>
<!-- cluster&#45;&gt;lookup_state -->
<g id="edge2" class="edge">
<title>cluster:w&#45;&gt;lookup_state:e</title>
<path fill="none" stroke="black" d="M437.7,-85.82C426.24,-88.94 419.57,-95 403,-95"/>
<polygon fill="black" stroke="black" points="444.06,-85.01 452.45,-87.57 448.03,-84.5 452,-84 452,-84 452,-84 448.03,-84.5 451.55,-80.43 444.06,-85.01 444.06,-85.01"/>
<ellipse fill="none" stroke="black" cx="440.89" cy="-85.41" rx="3.2" ry="3.2"/>
</g>
</g>
</svg>
