<?xml version="1.0" encoding="UTF-8" standalone="no"?>
<!DOCTYPE svg PUBLIC "-//W3C//DTD SVG 1.1//EN"
 "http://www.w3.org/Graphics/SVG/1.1/DTD/svg11.dtd">
<!-- Generated by graphviz version 2.43.0 (0)
 -->
<!-- Title: twoDegreesRelationshipsDiagram Pages: 1 -->
<svg width="978pt" height="632pt"
 viewBox="0.00 0.00 978.00 631.65" xmlns="http://www.w3.org/2000/svg" xmlns:xlink="http://www.w3.org/1999/xlink">
<g id="graph0" class="graph" transform="scale(1 1) rotate(0) translate(4 627.65)">
<title>twoDegreesRelationshipsDiagram</title>
<polygon fill="#ffffff" stroke="transparent" points="-4,4 -4,-627.65 974,-627.65 974,4 -4,4"/>
<text text-anchor="middle" x="79.5" y="-7.2" font-family="Helvetica,sans-Serif" font-size="11.00">Generated by SchemaSpy</text>
<!-- plot -->
<g id="node1" class="node">
<title>plot</title>
<g id="a_node1"><a xlink:href="../../tables/plot.html" xlink:title="plot" target="_top">
<polygon fill="#ffffff" stroke="transparent" points="443,-561.65 443,-619.65 541,-619.65 541,-561.65 443,-561.65"/>
<polygon fill="#f5f5f5" stroke="transparent" points="443,-597.65 443,-619.65 541,-619.65 541,-597.65 443,-597.65"/>
<polygon fill="none" stroke="black" points="443,-597.65 443,-619.65 541,-619.65 541,-597.65 443,-597.65"/>
<text text-anchor="start" x="447.5" y="-606.85" font-family="Helvetica,sans-Serif" font-weight="bold" font-size="11.00">plot</text>
<text text-anchor="start" x="499" y="-605.85" font-family="Helvetica,sans-Serif" font-size="11.00">[table]</text>
<polygon fill="none" stroke="black" points="443,-579.65 443,-597.65 541,-597.65 541,-579.65 443,-579.65"/>
<text text-anchor="start" x="446" y="-585.85" font-family="Helvetica,sans-Serif" font-size="11.00">...</text>
<polygon fill="#ffffff" stroke="transparent" points="443,-561.65 443,-579.65 541,-579.65 541,-561.65 443,-561.65"/>
<polygon fill="none" stroke="black" points="443,-561.65 443,-579.65 541,-579.65 541,-561.65 443,-561.65"/>
<polygon fill="#ffffff" stroke="transparent" points="444,-562.65 444,-578.65 475,-578.65 475,-562.65 444,-562.65"/>
<text text-anchor="start" x="446" y="-567.85" font-family="Helvetica,sans-Serif" font-size="11.00">&lt; 16</text>
<polygon fill="#ffffff" stroke="transparent" points="475,-562.65 475,-578.65 516,-578.65 516,-562.65 475,-562.65"/>
<text text-anchor="start" x="477" y="-567.85" font-family="Helvetica,sans-Serif" font-size="11.00">0 rows</text>
<polygon fill="#ffffff" stroke="transparent" points="516,-562.65 516,-578.65 540,-578.65 540,-562.65 516,-562.65"/>
<text text-anchor="start" x="518" y="-567.85" font-family="Helvetica,sans-Serif" font-size="11.00">7 &gt;</text>
<polygon fill="black" stroke="black" points="475,-562.65 475,-578.65 475,-578.65 475,-562.65 475,-562.65"/>
<polygon fill="black" stroke="black" points="516,-562.65 516,-578.65 516,-578.65 516,-562.65 516,-562.65"/>
</a>
</g>
</g>
<!-- lookup_stand_layer -->
<g id="node2" class="node">
<title>lookup_stand_layer</title>
<g id="a_node2"><a xlink:href="../../tables/lookup_stand_layer.html" xlink:title="lookup_stand_layer" target="_top">
<polygon fill="#ffffff" stroke="transparent" points="8,-290.65 8,-348.65 195,-348.65 195,-290.65 8,-290.65"/>
<polygon fill="#f5f5f5" stroke="transparent" points="8.5,-326.65 8.5,-348.65 195.5,-348.65 195.5,-326.65 8.5,-326.65"/>
<polygon fill="none" stroke="black" points="8.5,-326.65 8.5,-348.65 195.5,-348.65 195.5,-326.65 8.5,-326.65"/>
<text text-anchor="start" x="13.5" y="-335.85" font-family="Helvetica,sans-Serif" font-weight="bold" font-size="11.00">lookup_stand_layer</text>
<text text-anchor="start" x="153.5" y="-334.85" font-family="Helvetica,sans-Serif" font-size="11.00">[table]</text>
<polygon fill="none" stroke="black" points="8.5,-308.65 8.5,-326.65 195.5,-326.65 195.5,-308.65 8.5,-308.65"/>
<text text-anchor="start" x="11.5" y="-314.85" font-family="Helvetica,sans-Serif" font-size="11.00">...</text>
<polygon fill="#ffffff" stroke="transparent" points="8.5,-290.65 8.5,-308.65 195.5,-308.65 195.5,-290.65 8.5,-290.65"/>
<polygon fill="none" stroke="black" points="8.5,-290.65 8.5,-308.65 195.5,-308.65 195.5,-290.65 8.5,-290.65"/>
<polygon fill="#ffffff" stroke="transparent" points="9.5,-291.65 9.5,-307.65 57.5,-307.65 57.5,-291.65 9.5,-291.65"/>
<text text-anchor="start" x="11.5" y="-296.85" font-family="Helvetica,sans-Serif" font-size="11.00"> &#160;</text>
<polygon fill="#ffffff" stroke="transparent" points="57.5,-291.65 57.5,-307.65 134.5,-307.65 134.5,-291.65 57.5,-291.65"/>
<text text-anchor="start" x="77.5" y="-296.85" font-family="Helvetica,sans-Serif" font-size="11.00">0 rows</text>
<polygon fill="#ffffff" stroke="transparent" points="134.5,-291.65 134.5,-307.65 194.5,-307.65 194.5,-291.65 134.5,-291.65"/>
<text text-anchor="start" x="172.5" y="-296.85" font-family="Helvetica,sans-Serif" font-size="11.00">2 &gt;</text>
<polygon fill="black" stroke="black" points="57.5,-291.65 57.5,-307.65 57.5,-307.65 57.5,-291.65 57.5,-291.65"/>
<polygon fill="black" stroke="black" points="134.5,-291.65 134.5,-307.65 134.5,-307.65 134.5,-291.65 134.5,-291.65"/>
</a>
</g>
</g>
<!-- plot&#45;&gt;lookup_stand_layer -->
<g id="edge1" class="edge">
<title>plot:w&#45;&gt;lookup_stand_layer:e</title>
<path fill="none" stroke="black" d="M427.4,-588.88C343.82,-591.5 297.92,-614.21 236,-551.65 198.91,-514.16 249.24,-317.65 196.5,-317.65"/>
<polygon fill="black" stroke="black" points="434,-588.77 442.06,-592.24 438,-588.71 442,-588.65 442,-588.65 442,-588.65 438,-588.71 441.94,-585.05 434,-588.77 434,-588.77"/>
<ellipse fill="none" stroke="black" cx="430.8" cy="-588.82" rx="3.2" ry="3.2"/>
</g>
<!-- wzp_tree -->
<g id="node3" class="node">
<title>wzp_tree</title>
<g id="a_node3"><a xlink:href="../../tables/wzp_tree.html" xlink:title="wzp_tree" target="_top">
<polygon fill="#ffffff" stroke="transparent" points="789,-142.65 789,-376.65 962,-376.65 962,-142.65 789,-142.65"/>
<polygon fill="#f5f5f5" stroke="transparent" points="789.5,-354.65 789.5,-376.65 962.5,-376.65 962.5,-354.65 789.5,-354.65"/>
<polygon fill="none" stroke="black" points="789.5,-354.65 789.5,-376.65 962.5,-376.65 962.5,-354.65 789.5,-354.65"/>
<text text-anchor="start" x="794.5" y="-363.85" font-family="Helvetica,sans-Serif" font-weight="bold" font-size="11.00">wzp_tree</text>
<text text-anchor="start" x="920.5" y="-362.85" font-family="Helvetica,sans-Serif" font-size="11.00">[table]</text>
<polygon fill="none" stroke="black" points="789.5,-332.65 789.5,-354.65 962.5,-354.65 962.5,-332.65 789.5,-332.65"/>
<image xlink:href="../../images/primaryKeys.png" width="11px" height="12px" preserveAspectRatio="xMinYMin meet" x="794.5" y="-349.645"/>
<text text-anchor="start" x="809.5" y="-340.85" font-family="Helvetica,sans-Serif" font-size="11.00">id</text>
<polygon fill="none" stroke="black" points="789.5,-310.65 789.5,-332.65 962.5,-332.65 962.5,-310.65 789.5,-310.65"/>
<image xlink:href="../../images/foreignKeys.png" width="11px" height="12px" preserveAspectRatio="xMinYMin meet" x="794.5" y="-327.645"/>
<text text-anchor="start" x="809.5" y="-318.85" font-family="Helvetica,sans-Serif" font-size="11.00">plot_id</text>
<polygon fill="none" stroke="black" points="789.5,-288.65 789.5,-310.65 962.5,-310.65 962.5,-288.65 789.5,-288.65"/>
<image xlink:href="../../images/foreignKeys.png" width="11px" height="12px" preserveAspectRatio="xMinYMin meet" x="794.5" y="-305.645"/>
<text text-anchor="start" x="809.5" y="-296.85" font-family="Helvetica,sans-Serif" font-size="11.00">tree_status</text>
<polygon fill="none" stroke="black" points="789.5,-266.65 789.5,-288.65 962.5,-288.65 962.5,-266.65 789.5,-266.65"/>
<image xlink:href="../../images/foreignKeys.png" width="11px" height="12px" preserveAspectRatio="xMinYMin meet" x="794.5" y="-283.645"/>
<text text-anchor="start" x="809.5" y="-274.85" font-family="Helvetica,sans-Serif" font-size="11.00">tree_species</text>
<polygon fill="none" stroke="black" points="789.5,-244.65 789.5,-266.65 962.5,-266.65 962.5,-244.65 789.5,-244.65"/>
<image xlink:href="../../images/foreignKeys.png" width="11px" height="12px" preserveAspectRatio="xMinYMin meet" x="794.5" y="-261.645"/>
<text text-anchor="start" x="809.5" y="-252.85" font-family="Helvetica,sans-Serif" font-size="11.00">stem_breakage</text>
<polygon fill="none" stroke="black" points="789.5,-222.65 789.5,-244.65 962.5,-244.65 962.5,-222.65 789.5,-222.65"/>
<image xlink:href="../../images/foreignKeys.png" width="11px" height="12px" preserveAspectRatio="xMinYMin meet" x="794.5" y="-239.645"/>
<text text-anchor="start" x="809.5" y="-230.85" font-family="Helvetica,sans-Serif" font-size="11.00">stem_form</text>
<polygon fill="none" stroke="black" points="789.5,-200.65 789.5,-222.65 962.5,-222.65 962.5,-200.65 789.5,-200.65"/>
<image xlink:href="../../images/foreignKeys.png" width="11px" height="12px" preserveAspectRatio="xMinYMin meet" x="794.5" y="-217.645"/>
<text text-anchor="start" x="809.5" y="-208.85" font-family="Helvetica,sans-Serif" font-size="11.00">pruning</text>
<polygon fill="none" stroke="black" points="789.5,-178.65 789.5,-200.65 962.5,-200.65 962.5,-178.65 789.5,-178.65"/>
<image xlink:href="../../images/foreignKeys.png" width="11px" height="12px" preserveAspectRatio="xMinYMin meet" x="794.5" y="-195.645"/>
<text text-anchor="start" x="809.5" y="-186.85" font-family="Helvetica,sans-Serif" font-size="11.00">stand_layer</text>
<polygon fill="none" stroke="black" points="789.5,-160.65 789.5,-178.65 962.5,-178.65 962.5,-160.65 789.5,-160.65"/>
<text text-anchor="start" x="792.5" y="-166.85" font-family="Helvetica,sans-Serif" font-size="11.00">...</text>
<polygon fill="#ffffff" stroke="transparent" points="789.5,-142.65 789.5,-160.65 962.5,-160.65 962.5,-142.65 789.5,-142.65"/>
<polygon fill="none" stroke="black" points="789.5,-142.65 789.5,-160.65 962.5,-160.65 962.5,-142.65 789.5,-142.65"/>
<polygon fill="#ffffff" stroke="transparent" points="790.5,-143.65 790.5,-159.65 846.5,-159.65 846.5,-143.65 790.5,-143.65"/>
<text text-anchor="start" x="792.5" y="-148.85" font-family="Helvetica,sans-Serif" font-size="11.00">&lt; 7</text>
<polygon fill="#ffffff" stroke="transparent" points="846.5,-143.65 846.5,-159.65 918.5,-159.65 918.5,-143.65 846.5,-143.65"/>
<text text-anchor="start" x="864" y="-148.85" font-family="Helvetica,sans-Serif" font-size="11.00">0 rows</text>
<polygon fill="#ffffff" stroke="transparent" points="918.5,-143.65 918.5,-159.65 961.5,-159.65 961.5,-143.65 918.5,-143.65"/>
<text text-anchor="start" x="951.5" y="-148.85" font-family="Helvetica,sans-Serif" font-size="11.00"> &#160;</text>
<polygon fill="black" stroke="black" points="846.5,-143.65 846.5,-159.65 846.5,-159.65 846.5,-143.65 846.5,-143.65"/>
<polygon fill="black" stroke="black" points="918.5,-143.65 918.5,-159.65 918.5,-159.65 918.5,-143.65 918.5,-143.65"/>
</a>
</g>
</g>
<!-- wzp_tree&#45;&gt;plot -->
<g id="edge2" class="edge">
<title>wzp_tree:w&#45;&gt;plot:e</title>
<path fill="none" stroke="black" d="M775.2,-327.68C745.79,-360.67 780.77,-518.76 748,-551.65 682.34,-617.53 635.02,-588.65 542,-588.65"/>
<polygon fill="black" stroke="black" points="781.22,-324.95 789.99,-324.92 784.86,-323.3 788.5,-321.65 788.5,-321.65 788.5,-321.65 784.86,-323.3 787.01,-318.37 781.22,-324.95 781.22,-324.95"/>
<ellipse fill="none" stroke="black" cx="778.3" cy="-326.27" rx="3.2" ry="3.2"/>
</g>
<!-- wzp_tree&#45;&gt;lookup_stand_layer -->
<g id="edge4" class="edge">
<title>wzp_tree:w&#45;&gt;lookup_stand_layer:e</title>
<path fill="none" stroke="black" d="M774.24,-187.09C740.29,-171.82 791.98,-92.01 748,-59.65 702.18,-25.93 279.16,-22.59 236,-59.65 191.99,-97.43 254.5,-317.65 196.5,-317.65"/>
<polygon fill="black" stroke="black" points="780.63,-188.24 787.87,-193.19 784.56,-188.94 788.5,-189.65 788.5,-189.65 788.5,-189.65 784.56,-188.94 789.13,-186.1 780.63,-188.24 780.63,-188.24"/>
<ellipse fill="none" stroke="black" cx="777.48" cy="-187.67" rx="3.2" ry="3.2"/>
</g>
<!-- lookup_pruning -->
<g id="node4" class="node">
<title>lookup_pruning</title>
<g id="a_node4"><a xlink:href="../../tables/lookup_pruning.html" xlink:title="lookup_pruning" target="_top">
<polygon fill="#ffffff" stroke="transparent" points="412,-70.65 412,-128.65 572,-128.65 572,-70.65 412,-70.65"/>
<polygon fill="#f5f5f5" stroke="transparent" points="412,-106.65 412,-128.65 572,-128.65 572,-106.65 412,-106.65"/>
<polygon fill="none" stroke="black" points="412,-106.65 412,-128.65 572,-128.65 572,-106.65 412,-106.65"/>
<text text-anchor="start" x="417" y="-115.85" font-family="Helvetica,sans-Serif" font-weight="bold" font-size="11.00">lookup_pruning</text>
<text text-anchor="start" x="530" y="-114.85" font-family="Helvetica,sans-Serif" font-size="11.00">[table]</text>
<polygon fill="none" stroke="black" points="412,-88.65 412,-106.65 572,-106.65 572,-88.65 412,-88.65"/>
<text text-anchor="start" x="415" y="-94.85" font-family="Helvetica,sans-Serif" font-size="11.00">...</text>
<polygon fill="#ffffff" stroke="transparent" points="412,-70.65 412,-88.65 572,-88.65 572,-70.65 412,-70.65"/>
<polygon fill="none" stroke="black" points="412,-70.65 412,-88.65 572,-88.65 572,-70.65 412,-70.65"/>
<polygon fill="#ffffff" stroke="transparent" points="413,-71.65 413,-87.65 452,-87.65 452,-71.65 413,-71.65"/>
<text text-anchor="start" x="415" y="-76.85" font-family="Helvetica,sans-Serif" font-size="11.00"> &#160;</text>
<polygon fill="#ffffff" stroke="transparent" points="452,-71.65 452,-87.65 520,-87.65 520,-71.65 452,-71.65"/>
<text text-anchor="start" x="467.5" y="-76.85" font-family="Helvetica,sans-Serif" font-size="11.00">0 rows</text>
<polygon fill="#ffffff" stroke="transparent" points="520,-71.65 520,-87.65 571,-87.65 571,-71.65 520,-71.65"/>
<text text-anchor="start" x="549" y="-76.85" font-family="Helvetica,sans-Serif" font-size="11.00">1 &gt;</text>
<polygon fill="black" stroke="black" points="452,-71.65 452,-87.65 452,-87.65 452,-71.65 452,-71.65"/>
<polygon fill="black" stroke="black" points="520,-71.65 520,-87.65 520,-87.65 520,-71.65 520,-71.65"/>
</a>
</g>
</g>
<!-- wzp_tree&#45;&gt;lookup_pruning -->
<g id="edge3" class="edge">
<title>wzp_tree:w&#45;&gt;lookup_pruning:e</title>
<path fill="none" stroke="black" d="M774.37,-207.56C758.76,-195.08 772.51,-157.17 748,-138.65 684.27,-90.48 652.88,-97.65 573,-97.65"/>
<polygon fill="black" stroke="black" points="780.82,-209.42 787.5,-215.1 784.66,-210.53 788.5,-211.65 788.5,-211.65 788.5,-211.65 784.66,-210.53 789.5,-208.19 780.82,-209.42 780.82,-209.42"/>
<ellipse fill="none" stroke="black" cx="777.74" cy="-208.53" rx="3.2" ry="3.2"/>
</g>
<!-- lookup_stem_breakage -->
<g id="node5" class="node">
<title>lookup_stem_breakage</title>
<g id="a_node5"><a xlink:href="../../tables/lookup_stem_breakage.html" xlink:title="lookup_stem_breakage" target="_top">
<polygon fill="#ffffff" stroke="transparent" points="385,-228.65 385,-286.65 599,-286.65 599,-228.65 385,-228.65"/>
<polygon fill="#f5f5f5" stroke="transparent" points="385,-264.65 385,-286.65 599,-286.65 599,-264.65 385,-264.65"/>
<polygon fill="none" stroke="black" points="385,-264.65 385,-286.65 599,-286.65 599,-264.65 385,-264.65"/>
<text text-anchor="start" x="390" y="-273.85" font-family="Helvetica,sans-Serif" font-weight="bold" font-size="11.00">lookup_stem_breakage</text>
<text text-anchor="start" x="557" y="-272.85" font-family="Helvetica,sans-Serif" font-size="11.00">[table]</text>
<polygon fill="none" stroke="black" points="385,-246.65 385,-264.65 599,-264.65 599,-246.65 385,-246.65"/>
<text text-anchor="start" x="388" y="-252.85" font-family="Helvetica,sans-Serif" font-size="11.00">...</text>
<polygon fill="#ffffff" stroke="transparent" points="385,-228.65 385,-246.65 599,-246.65 599,-228.65 385,-228.65"/>
<polygon fill="none" stroke="black" points="385,-228.65 385,-246.65 599,-246.65 599,-228.65 385,-228.65"/>
<polygon fill="#ffffff" stroke="transparent" points="386,-229.65 386,-245.65 443,-245.65 443,-229.65 386,-229.65"/>
<text text-anchor="start" x="388" y="-234.85" font-family="Helvetica,sans-Serif" font-size="11.00"> &#160;</text>
<polygon fill="#ffffff" stroke="transparent" points="443,-229.65 443,-245.65 529,-245.65 529,-229.65 443,-229.65"/>
<text text-anchor="start" x="467.5" y="-234.85" font-family="Helvetica,sans-Serif" font-size="11.00">0 rows</text>
<polygon fill="#ffffff" stroke="transparent" points="529,-229.65 529,-245.65 598,-245.65 598,-229.65 529,-229.65"/>
<text text-anchor="start" x="576" y="-234.85" font-family="Helvetica,sans-Serif" font-size="11.00">1 &gt;</text>
<polygon fill="black" stroke="black" points="443,-229.65 443,-245.65 443,-245.65 443,-229.65 443,-229.65"/>
<polygon fill="black" stroke="black" points="529,-229.65 529,-245.65 529,-245.65 529,-229.65 529,-229.65"/>
</a>
</g>
</g>
<!-- wzp_tree&#45;&gt;lookup_stem_breakage -->
<g id="edge5" class="edge">
<title>wzp_tree:w&#45;&gt;lookup_stem_breakage:e</title>
<path fill="none" stroke="black" d="M773.95,-255.65C701.96,-255.65 678.71,-255.65 600,-255.65"/>
<polygon fill="black" stroke="black" points="780.5,-255.65 788.5,-259.25 784.5,-255.65 788.5,-255.65 788.5,-255.65 788.5,-255.65 784.5,-255.65 788.5,-252.05 780.5,-255.65 780.5,-255.65"/>
<ellipse fill="none" stroke="black" cx="777.3" cy="-255.65" rx="3.2" ry="3.2"/>
</g>
<!-- lookup_stem_form -->
<g id="node6" class="node">
<title>lookup_stem_form</title>
<g id="a_node6"><a xlink:href="../../tables/lookup_stem_form.html" xlink:title="lookup_stem_form" target="_top">
<polygon fill="#ffffff" stroke="transparent" points="402,-149.65 402,-207.65 582,-207.65 582,-149.65 402,-149.65"/>
<polygon fill="#f5f5f5" stroke="transparent" points="402,-185.65 402,-207.65 582,-207.65 582,-185.65 402,-185.65"/>
<polygon fill="none" stroke="black" points="402,-185.65 402,-207.65 582,-207.65 582,-185.65 402,-185.65"/>
<text text-anchor="start" x="407" y="-194.85" font-family="Helvetica,sans-Serif" font-weight="bold" font-size="11.00">lookup_stem_form</text>
<text text-anchor="start" x="540" y="-193.85" font-family="Helvetica,sans-Serif" font-size="11.00">[table]</text>
<polygon fill="none" stroke="black" points="402,-167.65 402,-185.65 582,-185.65 582,-167.65 402,-167.65"/>
<text text-anchor="start" x="405" y="-173.85" font-family="Helvetica,sans-Serif" font-size="11.00">...</text>
<polygon fill="#ffffff" stroke="transparent" points="402,-149.65 402,-167.65 582,-167.65 582,-149.65 402,-149.65"/>
<polygon fill="none" stroke="black" points="402,-149.65 402,-167.65 582,-167.65 582,-149.65 402,-149.65"/>
<polygon fill="#ffffff" stroke="transparent" points="403,-150.65 403,-166.65 449,-166.65 449,-150.65 403,-150.65"/>
<text text-anchor="start" x="405" y="-155.85" font-family="Helvetica,sans-Serif" font-size="11.00"> &#160;</text>
<polygon fill="#ffffff" stroke="transparent" points="449,-150.65 449,-166.65 524,-166.65 524,-150.65 449,-150.65"/>
<text text-anchor="start" x="468" y="-155.85" font-family="Helvetica,sans-Serif" font-size="11.00">0 rows</text>
<polygon fill="#ffffff" stroke="transparent" points="524,-150.65 524,-166.65 581,-166.65 581,-150.65 524,-150.65"/>
<text text-anchor="start" x="559" y="-155.85" font-family="Helvetica,sans-Serif" font-size="11.00">1 &gt;</text>
<polygon fill="black" stroke="black" points="449,-150.65 449,-166.65 449,-166.65 449,-150.65 449,-150.65"/>
<polygon fill="black" stroke="black" points="524,-150.65 524,-166.65 524,-166.65 524,-150.65 524,-150.65"/>
</a>
</g>
</g>
<!-- wzp_tree&#45;&gt;lookup_stem_form -->
<g id="edge6" class="edge">
<title>wzp_tree:w&#45;&gt;lookup_stem_form:e</title>
<path fill="none" stroke="black" d="M774.01,-231.21C765.82,-228.06 760.46,-222.53 748,-218.65 675.75,-196.14 658.67,-176.65 583,-176.65"/>
<polygon fill="black" stroke="black" points="780.61,-232.32 787.9,-237.2 784.56,-232.98 788.5,-233.65 788.5,-233.65 788.5,-233.65 784.56,-232.98 789.1,-230.09 780.61,-232.32 780.61,-232.32"/>
<ellipse fill="none" stroke="black" cx="777.46" cy="-231.79" rx="3.2" ry="3.2"/>
</g>
<!-- lookup_tree_species -->
<g id="node7" class="node">
<title>lookup_tree_species</title>
<g id="a_node7"><a xlink:href="../../tables/lookup_tree_species.html" xlink:title="lookup_tree_species" target="_top">
<polygon fill="#ffffff" stroke="transparent" points="395,-307.65 395,-365.65 589,-365.65 589,-307.65 395,-307.65"/>
<polygon fill="#f5f5f5" stroke="transparent" points="395,-343.65 395,-365.65 589,-365.65 589,-343.65 395,-343.65"/>
<polygon fill="none" stroke="black" points="395,-343.65 395,-365.65 589,-365.65 589,-343.65 395,-343.65"/>
<text text-anchor="start" x="400" y="-352.85" font-family="Helvetica,sans-Serif" font-weight="bold" font-size="11.00">lookup_tree_species</text>
<text text-anchor="start" x="547" y="-351.85" font-family="Helvetica,sans-Serif" font-size="11.00">[table]</text>
<polygon fill="none" stroke="black" points="395,-325.65 395,-343.65 589,-343.65 589,-325.65 395,-325.65"/>
<text text-anchor="start" x="398" y="-331.85" font-family="Helvetica,sans-Serif" font-size="11.00">...</text>
<polygon fill="#ffffff" stroke="transparent" points="395,-307.65 395,-325.65 589,-325.65 589,-307.65 395,-307.65"/>
<polygon fill="none" stroke="black" points="395,-307.65 395,-325.65 589,-325.65 589,-307.65 395,-307.65"/>
<polygon fill="#ffffff" stroke="transparent" points="396,-308.65 396,-324.65 442,-324.65 442,-308.65 396,-308.65"/>
<text text-anchor="start" x="398" y="-313.85" font-family="Helvetica,sans-Serif" font-size="11.00"> &#160;</text>
<polygon fill="#ffffff" stroke="transparent" points="442,-308.65 442,-324.65 531,-324.65 531,-308.65 442,-308.65"/>
<text text-anchor="start" x="461" y="-313.85" font-family="Helvetica,sans-Serif" font-size="11.00">125 rows</text>
<polygon fill="#ffffff" stroke="transparent" points="531,-308.65 531,-324.65 588,-324.65 588,-308.65 531,-308.65"/>
<text text-anchor="start" x="566" y="-313.85" font-family="Helvetica,sans-Serif" font-size="11.00">3 &gt;</text>
<polygon fill="black" stroke="black" points="442,-308.65 442,-324.65 442,-324.65 442,-308.65 442,-308.65"/>
<polygon fill="black" stroke="black" points="531,-308.65 531,-324.65 531,-324.65 531,-308.65 531,-308.65"/>
</a>
</g>
</g>
<!-- wzp_tree&#45;&gt;lookup_tree_species -->
<g id="edge7" class="edge">
<title>wzp_tree:w&#45;&gt;lookup_tree_species:e</title>
<path fill="none" stroke="black" d="M774.3,-280.77C765.88,-285.1 761.14,-292.93 748,-297.65 680.11,-321.99 662.12,-334.65 590,-334.65"/>
<polygon fill="black" stroke="black" points="780.69,-279.37 789.27,-281.16 784.59,-278.51 788.5,-277.65 788.5,-277.65 788.5,-277.65 784.59,-278.51 787.73,-274.13 780.69,-279.37 780.69,-279.37"/>
<ellipse fill="none" stroke="black" cx="777.56" cy="-280.05" rx="3.2" ry="3.2"/>
</g>
<!-- lookup_tree_status -->
<g id="node8" class="node">
<title>lookup_tree_status</title>
<g id="a_node8"><a xlink:href="../../tables/lookup_tree_status.html" xlink:title="lookup_tree_status" target="_top">
<polygon fill="#ffffff" stroke="transparent" points="244,-386.65 244,-540.65 740,-540.65 740,-386.65 244,-386.65"/>
<polygon fill="#f5f5f5" stroke="transparent" points="246,-516.65 246,-538.65 738,-538.65 738,-516.65 246,-516.65"/>
<polygon fill="none" stroke="black" points="246,-516.65 246,-538.65 738,-538.65 738,-516.65 246,-516.65"/>
<text text-anchor="start" x="251" y="-525.85" font-family="Helvetica,sans-Serif" font-weight="bold" font-size="11.00">lookup_tree_status</text>
<text text-anchor="start" x="696" y="-524.85" font-family="Helvetica,sans-Serif" font-size="11.00">[table]</text>
<polygon fill="none" stroke="black" points="246,-494.65 246,-516.65 405,-516.65 405,-494.65 246,-494.65"/>
<text text-anchor="start" x="266" y="-502.85" font-family="Helvetica,sans-Serif" font-size="11.00">name_de</text>
<polygon fill="none" stroke="black" points="405,-494.65 405,-516.65 738,-516.65 738,-494.65 405,-494.65"/>
<text text-anchor="start" x="408" y="-502.85" font-family="Helvetica,sans-Serif" font-size="11.00">varchar[150]</text>
<polygon fill="none" stroke="black" points="246,-472.65 246,-494.65 405,-494.65 405,-472.65 246,-472.65"/>
<text text-anchor="start" x="266" y="-480.85" font-family="Helvetica,sans-Serif" font-size="11.00">name_en</text>
<polygon fill="none" stroke="black" points="405,-472.65 405,-494.65 738,-494.65 738,-472.65 405,-472.65"/>
<text text-anchor="start" x="408" y="-480.85" font-family="Helvetica,sans-Serif" font-size="11.00">varchar[150]</text>
<polygon fill="none" stroke="black" points="246,-450.65 246,-472.65 405,-472.65 405,-450.65 246,-450.65"/>
<text text-anchor="start" x="266" y="-458.85" font-family="Helvetica,sans-Serif" font-size="11.00">interval</text>
<polygon fill="none" stroke="black" points="405,-450.65 405,-472.65 738,-472.65 738,-450.65 405,-450.65"/>
<text text-anchor="start" x="408" y="-458.85" font-family="Helvetica,sans-Serif" font-size="11.00">&quot;private_ci2027_001&quot;.&quot;_enum_interval_name&quot;[2147483647]</text>
<polygon fill="none" stroke="black" points="246,-428.65 246,-450.65 405,-450.65 405,-428.65 246,-428.65"/>
<text text-anchor="start" x="266" y="-436.85" font-family="Helvetica,sans-Serif" font-size="11.00">sort</text>
<polygon fill="none" stroke="black" points="405,-428.65 405,-450.65 738,-450.65 738,-428.65 405,-428.65"/>
<text text-anchor="start" x="408" y="-436.85" font-family="Helvetica,sans-Serif" font-size="11.00">int4[10]</text>
<polygon fill="#ffffff" stroke="transparent" points="246,-406.65 246,-428.65 405,-428.65 405,-406.65 246,-406.65"/>
<polygon fill="none" stroke="black" points="246,-406.65 246,-428.65 405,-428.65 405,-406.65 246,-406.65"/>
<text text-anchor="start" x="266" y="-414.85" font-family="Helvetica,sans-Serif" font-size="11.00">abbreviation</text>
<polygon fill="none" stroke="black" points="405,-406.65 405,-428.65 738,-428.65 738,-406.65 405,-406.65"/>
<text text-anchor="start" x="408" y="-414.85" font-family="Helvetica,sans-Serif" font-size="11.00">&quot;private_ci2027_001&quot;.&quot;enum_tree_status&quot;[2147483647]</text>
<polygon fill="#ffffff" stroke="transparent" points="246,-388.65 246,-406.65 738,-406.65 738,-388.65 246,-388.65"/>
<polygon fill="none" stroke="black" points="246,-388.65 246,-406.65 738,-406.65 738,-388.65 246,-388.65"/>
<polygon fill="#ffffff" stroke="transparent" points="247,-389.65 247,-405.65 405,-405.65 405,-389.65 247,-389.65"/>
<text text-anchor="start" x="249" y="-394.85" font-family="Helvetica,sans-Serif" font-size="11.00">&lt; 0</text>
<polygon fill="#ffffff" stroke="transparent" points="405,-389.65 405,-405.65 580,-405.65 580,-389.65 405,-389.65"/>
<text text-anchor="start" x="474" y="-394.85" font-family="Helvetica,sans-Serif" font-size="11.00">0 rows</text>
<polygon fill="#ffffff" stroke="transparent" points="580,-389.65 580,-405.65 737,-405.65 737,-389.65 580,-389.65"/>
<text text-anchor="start" x="715" y="-394.85" font-family="Helvetica,sans-Serif" font-size="11.00">1 &gt;</text>
<polygon fill="black" stroke="black" points="405,-389.65 405,-405.65 405,-405.65 405,-389.65 405,-389.65"/>
<polygon fill="black" stroke="black" points="580,-389.65 580,-405.65 580,-405.65 580,-389.65 580,-389.65"/>
<polygon fill="none" stroke="black" stroke-width="2" points="245,-387.65 245,-539.65 739,-539.65 739,-387.65 245,-387.65"/>
</a>
</g>
</g>
<!-- wzp_tree&#45;&gt;lookup_tree_status -->
<g id="edge8" class="edge">
<title>wzp_tree:w&#45;&gt;lookup_tree_status:e</title>
<path fill="none" stroke="black" d="M774.26,-303.31C743.83,-323.22 789.87,-417.65 739,-417.65"/>
<polygon fill="black" stroke="black" points="780.75,-301.64 789.4,-303.13 784.63,-300.64 788.5,-299.65 788.5,-299.65 788.5,-299.65 784.63,-300.64 787.6,-296.16 780.75,-301.64 780.75,-301.64"/>
<ellipse fill="none" stroke="black" cx="777.65" cy="-302.43" rx="3.2" ry="3.2"/>
</g>
</g>
</svg>
