<?xml version="1.0" encoding="UTF-8" standalone="no"?>
<!DOCTYPE svg PUBLIC "-//W3C//DTD SVG 1.1//EN"
 "http://www.w3.org/Graphics/SVG/1.1/DTD/svg11.dtd">
<!-- Generated by graphviz version 2.43.0 (0)
 -->
<!-- Title: oneDegreeRelationshipsDiagram Pages: 1 -->
<svg width="893pt" height="503pt"
 viewBox="0.00 0.00 893.00 503.00" xmlns="http://www.w3.org/2000/svg" xmlns:xlink="http://www.w3.org/1999/xlink">
<g id="graph0" class="graph" transform="scale(1 1) rotate(0) translate(4 499)">
<title>oneDegreeRelationshipsDiagram</title>
<polygon fill="#ffffff" stroke="transparent" points="-4,4 -4,-499 889,-499 889,4 -4,4"/>
<text text-anchor="middle" x="79.5" y="-7.2" font-family="Helvetica,sans-Serif" font-size="11.00">Generated by SchemaSpy</text>
<!-- plot -->
<g id="node1" class="node">
<title>plot</title>
<g id="a_node1"><a xlink:href="../../tables/plot.html" xlink:title="plot" target="_top">
<polygon fill="#ffffff" stroke="transparent" points="589,-37 589,-491 877,-491 877,-37 589,-37"/>
<polygon fill="#f5f5f5" stroke="transparent" points="589,-469 589,-491 877,-491 877,-469 589,-469"/>
<polygon fill="none" stroke="black" points="589,-469 589,-491 877,-491 877,-469 589,-469"/>
<text text-anchor="start" x="593.5" y="-478.2" font-family="Helvetica,sans-Serif" font-weight="bold" font-size="11.00">plot</text>
<text text-anchor="start" x="835" y="-477.2" font-family="Helvetica,sans-Serif" font-size="11.00">[table]</text>
<polygon fill="none" stroke="black" points="589,-447 589,-469 877,-469 877,-447 589,-447"/>
<image xlink:href="../../images/primaryKeys.png" width="11px" height="12px" preserveAspectRatio="xMinYMin meet" x="594" y="-464"/>
<text text-anchor="start" x="609" y="-455.2" font-family="Helvetica,sans-Serif" font-size="11.00">id</text>
<polygon fill="#ffffff" stroke="transparent" points="589,-425 589,-447 877,-447 877,-425 589,-425"/>
<polygon fill="none" stroke="black" points="589,-425 589,-447 877,-447 877,-425 589,-425"/>
<image xlink:href="../../images/foreignKeys.png" width="11px" height="12px" preserveAspectRatio="xMinYMin meet" x="594" y="-442"/>
<text text-anchor="start" x="609" y="-433.2" font-family="Helvetica,sans-Serif" font-size="11.00">cluster_id</text>
<polygon fill="#ffffff" stroke="transparent" points="589,-403 589,-425 877,-425 877,-403 589,-403"/>
<polygon fill="none" stroke="black" points="589,-403 589,-425 877,-425 877,-403 589,-403"/>
<text text-anchor="start" x="609" y="-411.2" font-family="Helvetica,sans-Serif" font-size="11.00">plot_name</text>
<polygon fill="none" stroke="black" points="589,-381 589,-403 877,-403 877,-381 589,-381"/>
<image xlink:href="../../images/foreignKeys.png" width="11px" height="12px" preserveAspectRatio="xMinYMin meet" x="594" y="-398"/>
<text text-anchor="start" x="609" y="-389.2" font-family="Helvetica,sans-Serif" font-size="11.00">growth_district</text>
<polygon fill="none" stroke="black" points="589,-359 589,-381 877,-381 877,-359 589,-359"/>
<image xlink:href="../../images/foreignKeys.png" width="11px" height="12px" preserveAspectRatio="xMinYMin meet" x="594" y="-376"/>
<text text-anchor="start" x="609" y="-367.2" font-family="Helvetica,sans-Serif" font-size="11.00">forest_status</text>
<polygon fill="none" stroke="black" points="589,-337 589,-359 877,-359 877,-337 589,-337"/>
<image xlink:href="../../images/foreignKeys.png" width="11px" height="12px" preserveAspectRatio="xMinYMin meet" x="594" y="-354"/>
<text text-anchor="start" x="609" y="-345.2" font-family="Helvetica,sans-Serif" font-size="11.00">elevation_level</text>
<polygon fill="none" stroke="black" points="589,-315 589,-337 877,-337 877,-315 589,-315"/>
<image xlink:href="../../images/foreignKeys.png" width="11px" height="12px" preserveAspectRatio="xMinYMin meet" x="594" y="-332"/>
<text text-anchor="start" x="609" y="-323.2" font-family="Helvetica,sans-Serif" font-size="11.00">property_type</text>
<polygon fill="none" stroke="black" points="589,-293 589,-315 877,-315 877,-293 589,-293"/>
<image xlink:href="../../images/foreignKeys.png" width="11px" height="12px" preserveAspectRatio="xMinYMin meet" x="594" y="-310"/>
<text text-anchor="start" x="609" y="-301.2" font-family="Helvetica,sans-Serif" font-size="11.00">property_size_class</text>
<polygon fill="none" stroke="black" points="589,-271 589,-293 877,-293 877,-271 589,-271"/>
<image xlink:href="../../images/foreignKeys.png" width="11px" height="12px" preserveAspectRatio="xMinYMin meet" x="594" y="-288"/>
<text text-anchor="start" x="609" y="-279.2" font-family="Helvetica,sans-Serif" font-size="11.00">land_use_after</text>
<polygon fill="none" stroke="black" points="589,-249 589,-271 877,-271 877,-249 589,-249"/>
<image xlink:href="../../images/foreignKeys.png" width="11px" height="12px" preserveAspectRatio="xMinYMin meet" x="594" y="-266"/>
<text text-anchor="start" x="609" y="-257.2" font-family="Helvetica,sans-Serif" font-size="11.00">marker_status</text>
<polygon fill="none" stroke="black" points="589,-227 589,-249 877,-249 877,-227 589,-227"/>
<image xlink:href="../../images/foreignKeys.png" width="11px" height="12px" preserveAspectRatio="xMinYMin meet" x="594" y="-244"/>
<text text-anchor="start" x="609" y="-235.2" font-family="Helvetica,sans-Serif" font-size="11.00">marker_profile</text>
<polygon fill="none" stroke="black" points="589,-205 589,-227 877,-227 877,-205 589,-205"/>
<image xlink:href="../../images/foreignKeys.png" width="11px" height="12px" preserveAspectRatio="xMinYMin meet" x="594" y="-222"/>
<text text-anchor="start" x="609" y="-213.2" font-family="Helvetica,sans-Serif" font-size="11.00">terrain_form</text>
<polygon fill="none" stroke="black" points="589,-183 589,-205 877,-205 877,-183 589,-183"/>
<image xlink:href="../../images/foreignKeys.png" width="11px" height="12px" preserveAspectRatio="xMinYMin meet" x="594" y="-200"/>
<text text-anchor="start" x="609" y="-191.2" font-family="Helvetica,sans-Serif" font-size="11.00">management_type</text>
<polygon fill="none" stroke="black" points="589,-161 589,-183 877,-183 877,-161 589,-161"/>
<image xlink:href="../../images/foreignKeys.png" width="11px" height="12px" preserveAspectRatio="xMinYMin meet" x="594" y="-178"/>
<text text-anchor="start" x="609" y="-169.2" font-family="Helvetica,sans-Serif" font-size="11.00">harvesting_method</text>
<polygon fill="none" stroke="black" points="589,-139 589,-161 877,-161 877,-139 589,-139"/>
<image xlink:href="../../images/foreignKeys.png" width="11px" height="12px" preserveAspectRatio="xMinYMin meet" x="594" y="-156"/>
<text text-anchor="start" x="609" y="-147.2" font-family="Helvetica,sans-Serif" font-size="11.00">stand_structure</text>
<polygon fill="none" stroke="black" points="589,-117 589,-139 877,-139 877,-117 589,-117"/>
<image xlink:href="../../images/foreignKeys.png" width="11px" height="12px" preserveAspectRatio="xMinYMin meet" x="594" y="-134"/>
<text text-anchor="start" x="609" y="-125.2" font-family="Helvetica,sans-Serif" font-size="11.00">stand_dev_phase</text>
<polygon fill="none" stroke="black" points="589,-95 589,-117 877,-117 877,-95 589,-95"/>
<image xlink:href="../../images/foreignKeys.png" width="11px" height="12px" preserveAspectRatio="xMinYMin meet" x="594" y="-112"/>
<text text-anchor="start" x="609" y="-103.2" font-family="Helvetica,sans-Serif" font-size="11.00">stand_layer_reg</text>
<polygon fill="none" stroke="black" points="589,-73 589,-95 877,-95 877,-73 589,-73"/>
<image xlink:href="../../images/foreignKeys.png" width="11px" height="12px" preserveAspectRatio="xMinYMin meet" x="594" y="-90"/>
<text text-anchor="start" x="609" y="-81.2" font-family="Helvetica,sans-Serif" font-size="11.00">trees_less_4meter_mirrored</text>
<polygon fill="none" stroke="black" points="589,-55 589,-73 877,-73 877,-55 589,-55"/>
<text text-anchor="start" x="592" y="-61.2" font-family="Helvetica,sans-Serif" font-size="11.00">...</text>
<polygon fill="#ffffff" stroke="transparent" points="589,-37 589,-55 877,-55 877,-37 589,-37"/>
<polygon fill="none" stroke="black" points="589,-37 589,-55 877,-55 877,-37 589,-37"/>
<polygon fill="#ffffff" stroke="transparent" points="590,-38 590,-54 685,-54 685,-38 590,-38"/>
<text text-anchor="start" x="592" y="-43.2" font-family="Helvetica,sans-Serif" font-size="11.00">&lt; 16</text>
<polygon fill="#ffffff" stroke="transparent" points="685,-38 685,-54 789,-54 789,-38 685,-38"/>
<text text-anchor="start" x="718.5" y="-43.2" font-family="Helvetica,sans-Serif" font-size="11.00">0 rows</text>
<polygon fill="#ffffff" stroke="transparent" points="789,-38 789,-54 876,-54 876,-38 789,-38"/>
<text text-anchor="start" x="854" y="-43.2" font-family="Helvetica,sans-Serif" font-size="11.00">7 &gt;</text>
<polygon fill="black" stroke="black" points="685,-38 685,-54 685,-54 685,-38 685,-38"/>
<polygon fill="black" stroke="black" points="789,-38 789,-54 789,-54 789,-38 789,-38"/>
</a>
</g>
</g>
<!-- lookup_stand_structure -->
<g id="node2" class="node">
<title>lookup_stand_structure</title>
<g id="a_node2"><a xlink:href="../../tables/lookup_stand_structure.html" xlink:title="lookup_stand_structure" target="_top">
<polygon fill="#ffffff" stroke="transparent" points="8,-119 8,-273 540,-273 540,-119 8,-119"/>
<polygon fill="#f5f5f5" stroke="transparent" points="10,-249 10,-271 538,-271 538,-249 10,-249"/>
<polygon fill="none" stroke="black" points="10,-249 10,-271 538,-271 538,-249 10,-249"/>
<text text-anchor="start" x="15" y="-258.2" font-family="Helvetica,sans-Serif" font-weight="bold" font-size="11.00">lookup_stand_structure</text>
<text text-anchor="start" x="496" y="-257.2" font-family="Helvetica,sans-Serif" font-size="11.00">[table]</text>
<polygon fill="none" stroke="black" points="10,-227 10,-249 202,-249 202,-227 10,-227"/>
<text text-anchor="start" x="30" y="-235.2" font-family="Helvetica,sans-Serif" font-size="11.00">name_de</text>
<polygon fill="none" stroke="black" points="202,-227 202,-249 538,-249 538,-227 202,-227"/>
<text text-anchor="start" x="205" y="-235.2" font-family="Helvetica,sans-Serif" font-size="11.00">varchar[150]</text>
<polygon fill="none" stroke="black" points="10,-205 10,-227 202,-227 202,-205 10,-205"/>
<text text-anchor="start" x="30" y="-213.2" font-family="Helvetica,sans-Serif" font-size="11.00">name_en</text>
<polygon fill="none" stroke="black" points="202,-205 202,-227 538,-227 538,-205 202,-205"/>
<text text-anchor="start" x="205" y="-213.2" font-family="Helvetica,sans-Serif" font-size="11.00">varchar[150]</text>
<polygon fill="none" stroke="black" points="10,-183 10,-205 202,-205 202,-183 10,-183"/>
<text text-anchor="start" x="30" y="-191.2" font-family="Helvetica,sans-Serif" font-size="11.00">interval</text>
<polygon fill="none" stroke="black" points="202,-183 202,-205 538,-205 538,-183 202,-183"/>
<text text-anchor="start" x="205" y="-191.2" font-family="Helvetica,sans-Serif" font-size="11.00">&quot;private_ci2027_001&quot;.&quot;_enum_interval_name&quot;[2147483647]</text>
<polygon fill="none" stroke="black" points="10,-161 10,-183 202,-183 202,-161 10,-161"/>
<text text-anchor="start" x="30" y="-169.2" font-family="Helvetica,sans-Serif" font-size="11.00">sort</text>
<polygon fill="none" stroke="black" points="202,-161 202,-183 538,-183 538,-161 202,-161"/>
<text text-anchor="start" x="205" y="-169.2" font-family="Helvetica,sans-Serif" font-size="11.00">int4[10]</text>
<polygon fill="#ffffff" stroke="transparent" points="10,-139 10,-161 202,-161 202,-139 10,-139"/>
<polygon fill="none" stroke="black" points="10,-139 10,-161 202,-161 202,-139 10,-139"/>
<text text-anchor="start" x="30" y="-147.2" font-family="Helvetica,sans-Serif" font-size="11.00">abbreviation</text>
<polygon fill="none" stroke="black" points="202,-139 202,-161 538,-161 538,-139 202,-139"/>
<text text-anchor="start" x="205" y="-147.2" font-family="Helvetica,sans-Serif" font-size="11.00">&quot;private_ci2027_001&quot;.&quot;enum_stand_structure&quot;[2147483647]</text>
<polygon fill="#ffffff" stroke="transparent" points="10,-121 10,-139 538,-139 538,-121 10,-121"/>
<polygon fill="none" stroke="black" points="10,-121 10,-139 538,-139 538,-121 10,-121"/>
<polygon fill="#ffffff" stroke="transparent" points="11,-122 11,-138 181,-138 181,-122 11,-122"/>
<text text-anchor="start" x="13" y="-127.2" font-family="Helvetica,sans-Serif" font-size="11.00">&lt; 0</text>
<polygon fill="#ffffff" stroke="transparent" points="181,-122 181,-138 368,-138 368,-122 181,-122"/>
<text text-anchor="start" x="256" y="-127.2" font-family="Helvetica,sans-Serif" font-size="11.00">0 rows</text>
<polygon fill="#ffffff" stroke="transparent" points="368,-122 368,-138 537,-138 537,-122 368,-122"/>
<text text-anchor="start" x="515" y="-127.2" font-family="Helvetica,sans-Serif" font-size="11.00">1 &gt;</text>
<polygon fill="black" stroke="black" points="181,-122 181,-138 181,-138 181,-122 181,-122"/>
<polygon fill="black" stroke="black" points="368,-122 368,-138 368,-138 368,-122 368,-122"/>
<polygon fill="none" stroke="black" stroke-width="2" points="9,-120 9,-272 539,-272 539,-120 9,-120"/>
</a>
</g>
</g>
<!-- plot&#45;&gt;lookup_stand_structure -->
<g id="edge1" class="edge">
<title>plot:w&#45;&gt;lookup_stand_structure:e</title>
<path fill="none" stroke="black" d="M573.49,-150C562.18,-150 554.99,-150 539,-150"/>
<polygon fill="black" stroke="black" points="580,-150 588,-153.6 584,-150 588,-150 588,-150 588,-150 584,-150 588,-146.4 580,-150 580,-150"/>
<ellipse fill="none" stroke="black" cx="576.8" cy="-150" rx="3.2" ry="3.2"/>
</g>
</g>
</svg>
