<?xml version="1.0" encoding="UTF-8" standalone="no"?>
<!DOCTYPE svg PUBLIC "-//W3C//DTD SVG 1.1//EN"
 "http://www.w3.org/Graphics/SVG/1.1/DTD/svg11.dtd">
<!-- Generated by graphviz version 2.43.0 (0)
 -->
<!-- Title: oneDegreeRelationshipsDiagram Pages: 1 -->
<svg width="769pt" height="239pt"
 viewBox="0.00 0.00 769.00 239.00" xmlns="http://www.w3.org/2000/svg" xmlns:xlink="http://www.w3.org/1999/xlink">
<g id="graph0" class="graph" transform="scale(1 1) rotate(0) translate(4 235)">
<title>oneDegreeRelationshipsDiagram</title>
<polygon fill="#ffffff" stroke="transparent" points="-4,4 -4,-235 765,-235 765,4 -4,4"/>
<text text-anchor="middle" x="79.5" y="-7.2" font-family="Helvetica,sans-Serif" font-size="11.00">Generated by SchemaSpy</text>
<!-- sapling_2m -->
<g id="node1" class="node">
<title>sapling_2m</title>
<g id="a_node1"><a xlink:href="../../tables/sapling_2m.html" xlink:title="sapling_2m" target="_top">
<polygon fill="#ffffff" stroke="transparent" points="578,-37 578,-227 753,-227 753,-37 578,-37"/>
<polygon fill="#f5f5f5" stroke="transparent" points="578.5,-205 578.5,-227 753.5,-227 753.5,-205 578.5,-205"/>
<polygon fill="none" stroke="black" points="578.5,-205 578.5,-227 753.5,-227 753.5,-205 578.5,-205"/>
<text text-anchor="start" x="583.5" y="-214.2" font-family="Helvetica,sans-Serif" font-weight="bold" font-size="11.00">sapling_2m</text>
<text text-anchor="start" x="711.5" y="-213.2" font-family="Helvetica,sans-Serif" font-size="11.00">[table]</text>
<polygon fill="none" stroke="black" points="578.5,-183 578.5,-205 753.5,-205 753.5,-183 578.5,-183"/>
<image xlink:href="../../images/primaryKeys.png" width="11px" height="12px" preserveAspectRatio="xMinYMin meet" x="583.5" y="-200"/>
<text text-anchor="start" x="598.5" y="-191.2" font-family="Helvetica,sans-Serif" font-size="11.00">id</text>
<polygon fill="none" stroke="black" points="578.5,-161 578.5,-183 753.5,-183 753.5,-161 578.5,-161"/>
<image xlink:href="../../images/foreignKeys.png" width="11px" height="12px" preserveAspectRatio="xMinYMin meet" x="583.5" y="-178"/>
<text text-anchor="start" x="598.5" y="-169.2" font-family="Helvetica,sans-Serif" font-size="11.00">plot_id</text>
<polygon fill="none" stroke="black" points="578.5,-139 578.5,-161 753.5,-161 753.5,-139 578.5,-139"/>
<image xlink:href="../../images/foreignKeys.png" width="11px" height="12px" preserveAspectRatio="xMinYMin meet" x="583.5" y="-156"/>
<text text-anchor="start" x="598.5" y="-147.2" font-family="Helvetica,sans-Serif" font-size="11.00">plot_location_id</text>
<polygon fill="none" stroke="black" points="578.5,-117 578.5,-139 753.5,-139 753.5,-117 578.5,-117"/>
<image xlink:href="../../images/foreignKeys.png" width="11px" height="12px" preserveAspectRatio="xMinYMin meet" x="583.5" y="-134"/>
<text text-anchor="start" x="598.5" y="-125.2" font-family="Helvetica,sans-Serif" font-size="11.00">tree_species</text>
<polygon fill="none" stroke="black" points="578.5,-95 578.5,-117 753.5,-117 753.5,-95 578.5,-95"/>
<image xlink:href="../../images/foreignKeys.png" width="11px" height="12px" preserveAspectRatio="xMinYMin meet" x="583.5" y="-112"/>
<text text-anchor="start" x="598.5" y="-103.2" font-family="Helvetica,sans-Serif" font-size="11.00">bitten</text>
<polygon fill="none" stroke="black" points="578.5,-73 578.5,-95 753.5,-95 753.5,-73 578.5,-73"/>
<image xlink:href="../../images/foreignKeys.png" width="11px" height="12px" preserveAspectRatio="xMinYMin meet" x="583.5" y="-90"/>
<text text-anchor="start" x="598.5" y="-81.2" font-family="Helvetica,sans-Serif" font-size="11.00">tree_size_class</text>
<polygon fill="none" stroke="black" points="578.5,-55 578.5,-73 753.5,-73 753.5,-55 578.5,-55"/>
<text text-anchor="start" x="581.5" y="-61.2" font-family="Helvetica,sans-Serif" font-size="11.00">...</text>
<polygon fill="#ffffff" stroke="transparent" points="578.5,-37 578.5,-55 753.5,-55 753.5,-37 578.5,-37"/>
<polygon fill="none" stroke="black" points="578.5,-37 578.5,-55 753.5,-55 753.5,-37 578.5,-37"/>
<polygon fill="#ffffff" stroke="transparent" points="579.5,-38 579.5,-54 635.5,-54 635.5,-38 579.5,-38"/>
<text text-anchor="start" x="581.5" y="-43.2" font-family="Helvetica,sans-Serif" font-size="11.00">&lt; 5</text>
<polygon fill="#ffffff" stroke="transparent" points="635.5,-38 635.5,-54 708.5,-54 708.5,-38 635.5,-38"/>
<text text-anchor="start" x="653.5" y="-43.2" font-family="Helvetica,sans-Serif" font-size="11.00">0 rows</text>
<polygon fill="#ffffff" stroke="transparent" points="708.5,-38 708.5,-54 752.5,-54 752.5,-38 708.5,-38"/>
<text text-anchor="start" x="742.5" y="-43.2" font-family="Helvetica,sans-Serif" font-size="11.00"> &#160;</text>
<polygon fill="black" stroke="black" points="635.5,-38 635.5,-54 635.5,-54 635.5,-38 635.5,-38"/>
<polygon fill="black" stroke="black" points="708.5,-38 708.5,-54 708.5,-54 708.5,-38 708.5,-38"/>
</a>
</g>
</g>
<!-- lookup_tree_size_class -->
<g id="node2" class="node">
<title>lookup_tree_size_class</title>
<g id="a_node2"><a xlink:href="../../tables/lookup_tree_size_class.html" xlink:title="lookup_tree_size_class" target="_top">
<polygon fill="#ffffff" stroke="transparent" points="8,-53 8,-185 529,-185 529,-53 8,-53"/>
<polygon fill="#f5f5f5" stroke="transparent" points="10.5,-161 10.5,-183 527.5,-183 527.5,-161 10.5,-161"/>
<polygon fill="none" stroke="black" points="10.5,-161 10.5,-183 527.5,-183 527.5,-161 10.5,-161"/>
<text text-anchor="start" x="15.5" y="-170.2" font-family="Helvetica,sans-Serif" font-weight="bold" font-size="11.00">lookup_tree_size_class</text>
<text text-anchor="start" x="485.5" y="-169.2" font-family="Helvetica,sans-Serif" font-size="11.00">[table]</text>
<polygon fill="none" stroke="black" points="10.5,-139 10.5,-161 195.5,-161 195.5,-139 10.5,-139"/>
<text text-anchor="start" x="30.5" y="-147.2" font-family="Helvetica,sans-Serif" font-size="11.00">name_de</text>
<polygon fill="none" stroke="black" points="195.5,-139 195.5,-161 527.5,-161 527.5,-139 195.5,-139"/>
<text text-anchor="start" x="198.5" y="-147.2" font-family="Helvetica,sans-Serif" font-size="11.00">varchar[150]</text>
<polygon fill="none" stroke="black" points="10.5,-117 10.5,-139 195.5,-139 195.5,-117 10.5,-117"/>
<text text-anchor="start" x="30.5" y="-125.2" font-family="Helvetica,sans-Serif" font-size="11.00">name_en</text>
<polygon fill="none" stroke="black" points="195.5,-117 195.5,-139 527.5,-139 527.5,-117 195.5,-117"/>
<text text-anchor="start" x="198.5" y="-125.2" font-family="Helvetica,sans-Serif" font-size="11.00">varchar[150]</text>
<polygon fill="none" stroke="black" points="10.5,-95 10.5,-117 195.5,-117 195.5,-95 10.5,-95"/>
<text text-anchor="start" x="30.5" y="-103.2" font-family="Helvetica,sans-Serif" font-size="11.00">sort</text>
<polygon fill="none" stroke="black" points="195.5,-95 195.5,-117 527.5,-117 527.5,-95 195.5,-95"/>
<text text-anchor="start" x="198.5" y="-103.2" font-family="Helvetica,sans-Serif" font-size="11.00">int4[10]</text>
<polygon fill="#ffffff" stroke="transparent" points="10.5,-73 10.5,-95 195.5,-95 195.5,-73 10.5,-73"/>
<polygon fill="none" stroke="black" points="10.5,-73 10.5,-95 195.5,-95 195.5,-73 10.5,-73"/>
<text text-anchor="start" x="30.5" y="-81.2" font-family="Helvetica,sans-Serif" font-size="11.00">abbreviation</text>
<polygon fill="none" stroke="black" points="195.5,-73 195.5,-95 527.5,-95 527.5,-73 195.5,-73"/>
<text text-anchor="start" x="198.5" y="-81.2" font-family="Helvetica,sans-Serif" font-size="11.00">&quot;private_ci2027_001&quot;.&quot;enum_tree_size_class&quot;[2147483647]</text>
<polygon fill="#ffffff" stroke="transparent" points="10.5,-55 10.5,-73 527.5,-73 527.5,-55 10.5,-55"/>
<polygon fill="none" stroke="black" points="10.5,-55 10.5,-73 527.5,-73 527.5,-55 10.5,-55"/>
<polygon fill="#ffffff" stroke="transparent" points="11.5,-56 11.5,-72 177.5,-72 177.5,-56 11.5,-56"/>
<text text-anchor="start" x="13.5" y="-61.2" font-family="Helvetica,sans-Serif" font-size="11.00">&lt; 0</text>
<polygon fill="#ffffff" stroke="transparent" points="177.5,-56 177.5,-72 360.5,-72 360.5,-56 177.5,-56"/>
<text text-anchor="start" x="250.5" y="-61.2" font-family="Helvetica,sans-Serif" font-size="11.00">0 rows</text>
<polygon fill="#ffffff" stroke="transparent" points="360.5,-56 360.5,-72 526.5,-72 526.5,-56 360.5,-56"/>
<text text-anchor="start" x="504.5" y="-61.2" font-family="Helvetica,sans-Serif" font-size="11.00">1 &gt;</text>
<polygon fill="black" stroke="black" points="177.5,-56 177.5,-72 177.5,-72 177.5,-56 177.5,-56"/>
<polygon fill="black" stroke="black" points="360.5,-56 360.5,-72 360.5,-72 360.5,-56 360.5,-56"/>
<polygon fill="none" stroke="black" stroke-width="2" points="9,-54 9,-184 528,-184 528,-54 9,-54"/>
</a>
</g>
</g>
<!-- sapling_2m&#45;&gt;lookup_tree_size_class -->
<g id="edge1" class="edge">
<title>sapling_2m:w&#45;&gt;lookup_tree_size_class:e</title>
<path fill="none" stroke="black" d="M562.99,-84C551.68,-84 544.49,-84 528.5,-84"/>
<polygon fill="black" stroke="black" points="569.5,-84 577.5,-87.6 573.5,-84 577.5,-84 577.5,-84 577.5,-84 573.5,-84 577.5,-80.4 569.5,-84 569.5,-84"/>
<ellipse fill="none" stroke="black" cx="566.3" cy="-84" rx="3.2" ry="3.2"/>
</g>
</g>
</svg>
