<?xml version="1.0" encoding="UTF-8" standalone="no"?>
<!DOCTYPE svg PUBLIC "-//W3C//DTD SVG 1.1//EN"
 "http://www.w3.org/Graphics/SVG/1.1/DTD/svg11.dtd">
<!-- Generated by graphviz version 2.43.0 (0)
 -->
<!-- Title: twoDegreesRelationshipsDiagram Pages: 1 -->
<svg width="822pt" height="298pt"
 viewBox="0.00 0.00 822.00 298.00" xmlns="http://www.w3.org/2000/svg" xmlns:xlink="http://www.w3.org/1999/xlink">
<g id="graph0" class="graph" transform="scale(1 1) rotate(0) translate(4 294)">
<title>twoDegreesRelationshipsDiagram</title>
<polygon fill="#ffffff" stroke="transparent" points="-4,4 -4,-294 818,-294 818,4 -4,4"/>
<text text-anchor="middle" x="79.5" y="-7.2" font-family="Helvetica,sans-Serif" font-size="11.00">Generated by SchemaSpy</text>
<!-- cluster -->
<g id="node1" class="node">
<title>cluster</title>
<g id="a_node1"><a xlink:href="../../tables/cluster.html" xlink:title="cluster" target="_top">
<polygon fill="#ffffff" stroke="transparent" points="508,-37 508,-183 659,-183 659,-37 508,-37"/>
<polygon fill="#f5f5f5" stroke="transparent" points="508.5,-161 508.5,-183 659.5,-183 659.5,-161 508.5,-161"/>
<polygon fill="none" stroke="black" points="508.5,-161 508.5,-183 659.5,-183 659.5,-161 508.5,-161"/>
<text text-anchor="start" x="513.5" y="-170.2" font-family="Helvetica,sans-Serif" font-weight="bold" font-size="11.00">cluster</text>
<text text-anchor="start" x="617.5" y="-169.2" font-family="Helvetica,sans-Serif" font-size="11.00">[table]</text>
<polygon fill="none" stroke="black" points="508.5,-139 508.5,-161 659.5,-161 659.5,-139 508.5,-139"/>
<image xlink:href="../../images/primaryKeys.png" width="11px" height="12px" preserveAspectRatio="xMinYMin meet" x="513.5" y="-156"/>
<text text-anchor="start" x="528.5" y="-147.2" font-family="Helvetica,sans-Serif" font-size="11.00">id</text>
<polygon fill="none" stroke="black" points="508.5,-117 508.5,-139 659.5,-139 659.5,-117 508.5,-117"/>
<image xlink:href="../../images/foreignKeys.png" width="11px" height="12px" preserveAspectRatio="xMinYMin meet" x="513.5" y="-134"/>
<text text-anchor="start" x="528.5" y="-125.2" font-family="Helvetica,sans-Serif" font-size="11.00">supervisor_id</text>
<polygon fill="none" stroke="black" points="508.5,-95 508.5,-117 659.5,-117 659.5,-95 508.5,-95"/>
<image xlink:href="../../images/foreignKeys.png" width="11px" height="12px" preserveAspectRatio="xMinYMin meet" x="513.5" y="-112"/>
<text text-anchor="start" x="528.5" y="-103.2" font-family="Helvetica,sans-Serif" font-size="11.00">state_responsible</text>
<polygon fill="none" stroke="black" points="508.5,-73 508.5,-95 659.5,-95 659.5,-73 508.5,-73"/>
<image xlink:href="../../images/foreignKeys.png" width="11px" height="12px" preserveAspectRatio="xMinYMin meet" x="513.5" y="-90"/>
<text text-anchor="start" x="528.5" y="-81.2" font-family="Helvetica,sans-Serif" font-size="11.00">state</text>
<polygon fill="none" stroke="black" points="508.5,-55 508.5,-73 659.5,-73 659.5,-55 508.5,-55"/>
<text text-anchor="start" x="511.5" y="-61.2" font-family="Helvetica,sans-Serif" font-size="11.00">...</text>
<polygon fill="#ffffff" stroke="transparent" points="508.5,-37 508.5,-55 659.5,-55 659.5,-37 508.5,-37"/>
<polygon fill="none" stroke="black" points="508.5,-37 508.5,-55 659.5,-55 659.5,-37 508.5,-37"/>
<polygon fill="#ffffff" stroke="transparent" points="509.5,-38 509.5,-54 553.5,-54 553.5,-38 509.5,-38"/>
<text text-anchor="start" x="511.5" y="-43.2" font-family="Helvetica,sans-Serif" font-size="11.00">&lt; 3</text>
<polygon fill="#ffffff" stroke="transparent" points="553.5,-38 553.5,-54 614.5,-54 614.5,-38 553.5,-38"/>
<text text-anchor="start" x="565.5" y="-43.2" font-family="Helvetica,sans-Serif" font-size="11.00">0 rows</text>
<polygon fill="#ffffff" stroke="transparent" points="614.5,-38 614.5,-54 658.5,-54 658.5,-38 614.5,-38"/>
<text text-anchor="start" x="636.5" y="-43.2" font-family="Helvetica,sans-Serif" font-size="11.00">1 &gt;</text>
<polygon fill="black" stroke="black" points="553.5,-38 553.5,-54 553.5,-54 553.5,-38 553.5,-38"/>
<polygon fill="black" stroke="black" points="614.5,-38 614.5,-54 614.5,-54 614.5,-38 614.5,-38"/>
</a>
</g>
</g>
<!-- lookup_state -->
<g id="node2" class="node">
<title>lookup_state</title>
<g id="a_node2"><a xlink:href="../../tables/lookup_state.html" xlink:title="lookup_state" target="_top">
<polygon fill="#ffffff" stroke="transparent" points="8,-53 8,-207 459,-207 459,-53 8,-53"/>
<polygon fill="#f5f5f5" stroke="transparent" points="10.5,-183 10.5,-205 457.5,-205 457.5,-183 10.5,-183"/>
<polygon fill="none" stroke="black" points="10.5,-183 10.5,-205 457.5,-205 457.5,-183 10.5,-183"/>
<text text-anchor="start" x="15.5" y="-192.2" font-family="Helvetica,sans-Serif" font-weight="bold" font-size="11.00">lookup_state</text>
<text text-anchor="start" x="415.5" y="-191.2" font-family="Helvetica,sans-Serif" font-size="11.00">[table]</text>
<polygon fill="none" stroke="black" points="10.5,-161 10.5,-183 124.5,-183 124.5,-161 10.5,-161"/>
<text text-anchor="start" x="30.5" y="-169.2" font-family="Helvetica,sans-Serif" font-size="11.00">name_de</text>
<polygon fill="none" stroke="black" points="124.5,-161 124.5,-183 457.5,-183 457.5,-161 124.5,-161"/>
<text text-anchor="start" x="127.5" y="-169.2" font-family="Helvetica,sans-Serif" font-size="11.00">varchar[150]</text>
<polygon fill="none" stroke="black" points="10.5,-139 10.5,-161 124.5,-161 124.5,-139 10.5,-139"/>
<text text-anchor="start" x="30.5" y="-147.2" font-family="Helvetica,sans-Serif" font-size="11.00">name_en</text>
<polygon fill="none" stroke="black" points="124.5,-139 124.5,-161 457.5,-161 457.5,-139 124.5,-139"/>
<text text-anchor="start" x="127.5" y="-147.2" font-family="Helvetica,sans-Serif" font-size="11.00">varchar[150]</text>
<polygon fill="none" stroke="black" points="10.5,-117 10.5,-139 124.5,-139 124.5,-117 10.5,-117"/>
<text text-anchor="start" x="30.5" y="-125.2" font-family="Helvetica,sans-Serif" font-size="11.00">interval</text>
<polygon fill="none" stroke="black" points="124.5,-117 124.5,-139 457.5,-139 457.5,-117 124.5,-117"/>
<text text-anchor="start" x="127.5" y="-125.2" font-family="Helvetica,sans-Serif" font-size="11.00">&quot;private_ci2027_001&quot;.&quot;_enum_interval_name&quot;[2147483647]</text>
<polygon fill="none" stroke="black" points="10.5,-95 10.5,-117 124.5,-117 124.5,-95 10.5,-95"/>
<text text-anchor="start" x="30.5" y="-103.2" font-family="Helvetica,sans-Serif" font-size="11.00">sort</text>
<polygon fill="none" stroke="black" points="124.5,-95 124.5,-117 457.5,-117 457.5,-95 124.5,-95"/>
<text text-anchor="start" x="127.5" y="-103.2" font-family="Helvetica,sans-Serif" font-size="11.00">int4[10]</text>
<polygon fill="#ffffff" stroke="transparent" points="10.5,-73 10.5,-95 124.5,-95 124.5,-73 10.5,-73"/>
<polygon fill="none" stroke="black" points="10.5,-73 10.5,-95 124.5,-95 124.5,-73 10.5,-73"/>
<text text-anchor="start" x="30.5" y="-81.2" font-family="Helvetica,sans-Serif" font-size="11.00">abbreviation</text>
<polygon fill="none" stroke="black" points="124.5,-73 124.5,-95 457.5,-95 457.5,-73 124.5,-73"/>
<text text-anchor="start" x="127.5" y="-81.2" font-family="Helvetica,sans-Serif" font-size="11.00">&quot;private_ci2027_001&quot;.&quot;enum_state&quot;[2147483647]</text>
<polygon fill="#ffffff" stroke="transparent" points="10.5,-55 10.5,-73 457.5,-73 457.5,-55 10.5,-55"/>
<polygon fill="none" stroke="black" points="10.5,-55 10.5,-73 457.5,-73 457.5,-55 10.5,-55"/>
<polygon fill="#ffffff" stroke="transparent" points="11.5,-56 11.5,-72 154.5,-72 154.5,-56 11.5,-56"/>
<text text-anchor="start" x="13.5" y="-61.2" font-family="Helvetica,sans-Serif" font-size="11.00">&lt; 0</text>
<polygon fill="#ffffff" stroke="transparent" points="154.5,-56 154.5,-72 314.5,-72 314.5,-56 154.5,-56"/>
<text text-anchor="start" x="216" y="-61.2" font-family="Helvetica,sans-Serif" font-size="11.00">0 rows</text>
<polygon fill="#ffffff" stroke="transparent" points="314.5,-56 314.5,-72 456.5,-72 456.5,-56 314.5,-56"/>
<text text-anchor="start" x="434.5" y="-61.2" font-family="Helvetica,sans-Serif" font-size="11.00">2 &gt;</text>
<polygon fill="black" stroke="black" points="154.5,-56 154.5,-72 154.5,-72 154.5,-56 154.5,-56"/>
<polygon fill="black" stroke="black" points="314.5,-56 314.5,-72 314.5,-72 314.5,-56 314.5,-56"/>
<polygon fill="none" stroke="black" stroke-width="2" points="9,-54 9,-206 458,-206 458,-54 9,-54"/>
</a>
</g>
</g>
<!-- cluster&#45;&gt;lookup_state -->
<g id="edge1" class="edge">
<title>cluster:w&#45;&gt;lookup_state:e</title>
<path fill="none" stroke="black" d="M492.99,-84C481.68,-84 474.49,-84 458.5,-84"/>
<polygon fill="black" stroke="black" points="499.5,-84 507.5,-87.6 503.5,-84 507.5,-84 507.5,-84 507.5,-84 503.5,-84 507.5,-80.4 499.5,-84 499.5,-84"/>
<ellipse fill="none" stroke="black" cx="496.3" cy="-84" rx="3.2" ry="3.2"/>
</g>
<!-- cluster&#45;&gt;lookup_state -->
<g id="edge2" class="edge">
<title>cluster:w&#45;&gt;lookup_state:e</title>
<path fill="none" stroke="black" d="M493.13,-102.56C481.59,-96.38 476.4,-84 458.5,-84"/>
<polygon fill="black" stroke="black" points="499.72,-104.14 506.66,-109.5 503.61,-105.07 507.5,-106 507.5,-106 507.5,-106 503.61,-105.07 508.34,-102.5 499.72,-104.14 499.72,-104.14"/>
<ellipse fill="none" stroke="black" cx="496.61" cy="-103.39" rx="3.2" ry="3.2"/>
</g>
<!-- basic_auth.users -->
<g id="node3" class="node">
<title>basic_auth.users</title>
<g id="a_node3"><a xlink:title="basic_auth.users">
<polygon fill="#ffffff" stroke="transparent" points="149,-228 149,-286 318,-286 318,-228 149,-228"/>
<polygon fill="#f5f5f5" stroke="transparent" points="149.5,-264 149.5,-286 318.5,-286 318.5,-264 149.5,-264"/>
<polygon fill="none" stroke="black" points="149.5,-264 149.5,-286 318.5,-286 318.5,-264 149.5,-264"/>
<text text-anchor="start" x="154.5" y="-273.2" font-family="Helvetica,sans-Serif" font-weight="bold" font-size="11.00">basic_auth.users</text>
<text text-anchor="start" x="276.5" y="-272.2" font-family="Helvetica,sans-Serif" font-size="11.00">[table]</text>
<polygon fill="none" stroke="black" points="149.5,-246 149.5,-264 318.5,-264 318.5,-246 149.5,-246"/>
<text text-anchor="start" x="152.5" y="-252.2" font-family="Helvetica,sans-Serif" font-size="11.00">...</text>
<polygon fill="#ffffff" stroke="transparent" points="149.5,-228 149.5,-246 318.5,-246 318.5,-228 149.5,-228"/>
<polygon fill="none" stroke="black" points="149.5,-228 149.5,-246 318.5,-246 318.5,-228 149.5,-228"/>
<polygon fill="#ffffff" stroke="transparent" points="150.5,-229 150.5,-245 192.5,-245 192.5,-229 150.5,-229"/>
<text text-anchor="start" x="152.5" y="-234.2" font-family="Helvetica,sans-Serif" font-size="11.00"> &#160;</text>
<polygon fill="#ffffff" stroke="transparent" points="192.5,-229 192.5,-245 263.5,-245 263.5,-229 192.5,-229"/>
<text text-anchor="start" x="209.5" y="-234.2" font-family="Helvetica,sans-Serif" font-size="11.00">0 rows</text>
<polygon fill="#ffffff" stroke="transparent" points="263.5,-229 263.5,-245 317.5,-245 317.5,-229 263.5,-229"/>
<text text-anchor="start" x="295.5" y="-234.2" font-family="Helvetica,sans-Serif" font-size="11.00">1 &gt;</text>
<polygon fill="black" stroke="black" points="192.5,-229 192.5,-245 192.5,-245 192.5,-229 192.5,-229"/>
<polygon fill="black" stroke="black" points="263.5,-229 263.5,-245 263.5,-245 263.5,-229 263.5,-229"/>
</a>
</g>
</g>
<!-- cluster&#45;&gt;basic_auth.users -->
<g id="edge3" class="edge">
<title>cluster:w&#45;&gt;basic_auth.users:e</title>
<path fill="none" stroke="black" d="M493.37,-131.4C472.65,-144.73 495.91,-193.81 467,-218 415.17,-261.38 387.09,-255 319.5,-255"/>
<polygon fill="black" stroke="black" points="499.72,-129.87 508.34,-131.5 503.61,-128.94 507.5,-128 507.5,-128 507.5,-128 503.61,-128.94 506.66,-124.5 499.72,-129.87 499.72,-129.87"/>
<ellipse fill="none" stroke="black" cx="496.61" cy="-130.62" rx="3.2" ry="3.2"/>
</g>
<!-- plot -->
<g id="node4" class="node">
<title>plot</title>
<g id="a_node4"><a xlink:href="../../tables/plot.html" xlink:title="plot" target="_top">
<polygon fill="#ffffff" stroke="transparent" points="708,-123 708,-181 806,-181 806,-123 708,-123"/>
<polygon fill="#f5f5f5" stroke="transparent" points="708,-159 708,-181 806,-181 806,-159 708,-159"/>
<polygon fill="none" stroke="black" points="708,-159 708,-181 806,-181 806,-159 708,-159"/>
<text text-anchor="start" x="712.5" y="-168.2" font-family="Helvetica,sans-Serif" font-weight="bold" font-size="11.00">plot</text>
<text text-anchor="start" x="764" y="-167.2" font-family="Helvetica,sans-Serif" font-size="11.00">[table]</text>
<polygon fill="none" stroke="black" points="708,-141 708,-159 806,-159 806,-141 708,-141"/>
<text text-anchor="start" x="711" y="-147.2" font-family="Helvetica,sans-Serif" font-size="11.00">...</text>
<polygon fill="#ffffff" stroke="transparent" points="708,-123 708,-141 806,-141 806,-123 708,-123"/>
<polygon fill="none" stroke="black" points="708,-123 708,-141 806,-141 806,-123 708,-123"/>
<polygon fill="#ffffff" stroke="transparent" points="709,-124 709,-140 740,-140 740,-124 709,-124"/>
<text text-anchor="start" x="711" y="-129.2" font-family="Helvetica,sans-Serif" font-size="11.00">&lt; 16</text>
<polygon fill="#ffffff" stroke="transparent" points="740,-124 740,-140 781,-140 781,-124 740,-124"/>
<text text-anchor="start" x="742" y="-129.2" font-family="Helvetica,sans-Serif" font-size="11.00">0 rows</text>
<polygon fill="#ffffff" stroke="transparent" points="781,-124 781,-140 805,-140 805,-124 781,-124"/>
<text text-anchor="start" x="783" y="-129.2" font-family="Helvetica,sans-Serif" font-size="11.00">7 &gt;</text>
<polygon fill="black" stroke="black" points="740,-124 740,-140 740,-140 740,-124 740,-124"/>
<polygon fill="black" stroke="black" points="781,-124 781,-140 781,-140 781,-124 781,-124"/>
</a>
</g>
</g>
<!-- plot&#45;&gt;cluster -->
<g id="edge4" class="edge">
<title>plot:w&#45;&gt;cluster:e</title>
<path fill="none" stroke="black" d="M692.55,-150C682.2,-150 675.35,-150 660.5,-150"/>
<polygon fill="black" stroke="black" points="699,-150 707,-153.6 703,-150 707,-150 707,-150 707,-150 703,-150 707,-146.4 699,-150 699,-150"/>
<ellipse fill="none" stroke="black" cx="695.8" cy="-150" rx="3.2" ry="3.2"/>
</g>
</g>
</svg>
