<?xml version="1.0" encoding="UTF-8" standalone="no"?>
<!DOCTYPE svg PUBLIC "-//W3C//DTD SVG 1.1//EN"
 "http://www.w3.org/Graphics/SVG/1.1/DTD/svg11.dtd">
<!-- Generated by graphviz version 2.43.0 (0)
 -->
<!-- Title: oneDegreeRelationshipsDiagram Pages: 1 -->
<svg width="813pt" height="679pt"
 viewBox="0.00 0.00 813.00 679.00" xmlns="http://www.w3.org/2000/svg" xmlns:xlink="http://www.w3.org/1999/xlink">
<g id="graph0" class="graph" transform="scale(1 1) rotate(0) translate(4 675)">
<title>oneDegreeRelationshipsDiagram</title>
<polygon fill="#ffffff" stroke="transparent" points="-4,4 -4,-675 809,-675 809,4 -4,4"/>
<text text-anchor="middle" x="79.5" y="-7.2" font-family="Helvetica,sans-Serif" font-size="11.00">Generated by SchemaSpy</text>
<!-- plot -->
<g id="node1" class="node">
<title>plot</title>
<g id="a_node1"><a xlink:href="../../tables/plot.html" xlink:title="plot" target="_top">
<polygon fill="#ffffff" stroke="transparent" points="546,-37 546,-667 797,-667 797,-37 546,-37"/>
<polygon fill="#f5f5f5" stroke="transparent" points="546.5,-645 546.5,-667 797.5,-667 797.5,-645 546.5,-645"/>
<polygon fill="none" stroke="black" points="546.5,-645 546.5,-667 797.5,-667 797.5,-645 546.5,-645"/>
<text text-anchor="start" x="551" y="-654.2" font-family="Helvetica,sans-Serif" font-weight="bold" font-size="11.00">plot</text>
<text text-anchor="start" x="755.5" y="-653.2" font-family="Helvetica,sans-Serif" font-size="11.00">[table]</text>
<polygon fill="none" stroke="black" points="546.5,-623 546.5,-645 797.5,-645 797.5,-623 546.5,-623"/>
<image xlink:href="../../images/primaryKeys.png" width="11px" height="12px" preserveAspectRatio="xMinYMin meet" x="551.5" y="-640"/>
<text text-anchor="start" x="566.5" y="-631.2" font-family="Helvetica,sans-Serif" font-size="11.00">id</text>
<polygon fill="#ffffff" stroke="transparent" points="546.5,-601 546.5,-623 797.5,-623 797.5,-601 546.5,-601"/>
<polygon fill="none" stroke="black" points="546.5,-601 546.5,-623 797.5,-623 797.5,-601 546.5,-601"/>
<image xlink:href="../../images/foreignKeys.png" width="11px" height="12px" preserveAspectRatio="xMinYMin meet" x="551.5" y="-618"/>
<text text-anchor="start" x="566.5" y="-609.2" font-family="Helvetica,sans-Serif" font-size="11.00">cluster_id</text>
<polygon fill="#ffffff" stroke="transparent" points="546.5,-579 546.5,-601 797.5,-601 797.5,-579 546.5,-579"/>
<polygon fill="none" stroke="black" points="546.5,-579 546.5,-601 797.5,-601 797.5,-579 546.5,-579"/>
<text text-anchor="start" x="566.5" y="-587.2" font-family="Helvetica,sans-Serif" font-size="11.00">plot_name</text>
<polygon fill="none" stroke="black" points="546.5,-557 546.5,-579 797.5,-579 797.5,-557 546.5,-557"/>
<image xlink:href="../../images/foreignKeys.png" width="11px" height="12px" preserveAspectRatio="xMinYMin meet" x="551.5" y="-574"/>
<text text-anchor="start" x="566.5" y="-565.2" font-family="Helvetica,sans-Serif" font-size="11.00">sampling_strata</text>
<polygon fill="none" stroke="black" points="546.5,-535 546.5,-557 797.5,-557 797.5,-535 546.5,-535"/>
<image xlink:href="../../images/foreignKeys.png" width="11px" height="12px" preserveAspectRatio="xMinYMin meet" x="551.5" y="-552"/>
<text text-anchor="start" x="566.5" y="-543.2" font-family="Helvetica,sans-Serif" font-size="11.00">growth_district</text>
<polygon fill="none" stroke="black" points="546.5,-513 546.5,-535 797.5,-535 797.5,-513 546.5,-513"/>
<image xlink:href="../../images/foreignKeys.png" width="11px" height="12px" preserveAspectRatio="xMinYMin meet" x="551.5" y="-530"/>
<text text-anchor="start" x="566.5" y="-521.2" font-family="Helvetica,sans-Serif" font-size="11.00">forest_decision</text>
<polygon fill="none" stroke="black" points="546.5,-491 546.5,-513 797.5,-513 797.5,-491 546.5,-491"/>
<image xlink:href="../../images/foreignKeys.png" width="11px" height="12px" preserveAspectRatio="xMinYMin meet" x="551.5" y="-508"/>
<text text-anchor="start" x="566.5" y="-499.2" font-family="Helvetica,sans-Serif" font-size="11.00">forestry_department</text>
<polygon fill="none" stroke="black" points="546.5,-469 546.5,-491 797.5,-491 797.5,-469 546.5,-469"/>
<image xlink:href="../../images/foreignKeys.png" width="11px" height="12px" preserveAspectRatio="xMinYMin meet" x="551.5" y="-486"/>
<text text-anchor="start" x="566.5" y="-477.2" font-family="Helvetica,sans-Serif" font-size="11.00">height_layer_class</text>
<polygon fill="none" stroke="black" points="546.5,-447 546.5,-469 797.5,-469 797.5,-447 546.5,-447"/>
<image xlink:href="../../images/foreignKeys.png" width="11px" height="12px" preserveAspectRatio="xMinYMin meet" x="551.5" y="-464"/>
<text text-anchor="start" x="566.5" y="-455.2" font-family="Helvetica,sans-Serif" font-size="11.00">property_type</text>
<polygon fill="none" stroke="black" points="546.5,-425 546.5,-447 797.5,-447 797.5,-425 546.5,-425"/>
<image xlink:href="../../images/foreignKeys.png" width="11px" height="12px" preserveAspectRatio="xMinYMin meet" x="551.5" y="-442"/>
<text text-anchor="start" x="566.5" y="-433.2" font-family="Helvetica,sans-Serif" font-size="11.00">property_size_class</text>
<polygon fill="none" stroke="black" points="546.5,-403 546.5,-425 797.5,-425 797.5,-403 546.5,-403"/>
<image xlink:href="../../images/foreignKeys.png" width="11px" height="12px" preserveAspectRatio="xMinYMin meet" x="551.5" y="-420"/>
<text text-anchor="start" x="566.5" y="-411.2" font-family="Helvetica,sans-Serif" font-size="11.00">forest_type</text>
<polygon fill="none" stroke="black" points="546.5,-381 546.5,-403 797.5,-403 797.5,-381 546.5,-381"/>
<image xlink:href="../../images/foreignKeys.png" width="11px" height="12px" preserveAspectRatio="xMinYMin meet" x="551.5" y="-398"/>
<text text-anchor="start" x="566.5" y="-389.2" font-family="Helvetica,sans-Serif" font-size="11.00">habitat_type</text>
<polygon fill="none" stroke="black" points="546.5,-359 546.5,-381 797.5,-381 797.5,-359 546.5,-359"/>
<image xlink:href="../../images/foreignKeys.png" width="11px" height="12px" preserveAspectRatio="xMinYMin meet" x="551.5" y="-376"/>
<text text-anchor="start" x="566.5" y="-367.2" font-family="Helvetica,sans-Serif" font-size="11.00">habitat_type_source</text>
<polygon fill="none" stroke="black" points="546.5,-337 546.5,-359 797.5,-359 797.5,-337 546.5,-337"/>
<image xlink:href="../../images/foreignKeys.png" width="11px" height="12px" preserveAspectRatio="xMinYMin meet" x="551.5" y="-354"/>
<text text-anchor="start" x="566.5" y="-345.2" font-family="Helvetica,sans-Serif" font-size="11.00">use_restriction</text>
<polygon fill="none" stroke="black" points="546.5,-315 546.5,-337 797.5,-337 797.5,-315 546.5,-315"/>
<image xlink:href="../../images/foreignKeys.png" width="11px" height="12px" preserveAspectRatio="xMinYMin meet" x="551.5" y="-332"/>
<text text-anchor="start" x="566.5" y="-323.2" font-family="Helvetica,sans-Serif" font-size="11.00">land_use</text>
<polygon fill="none" stroke="black" points="546.5,-293 546.5,-315 797.5,-315 797.5,-293 546.5,-293"/>
<image xlink:href="../../images/foreignKeys.png" width="11px" height="12px" preserveAspectRatio="xMinYMin meet" x="551.5" y="-310"/>
<text text-anchor="start" x="566.5" y="-301.2" font-family="Helvetica,sans-Serif" font-size="11.00">marking_state</text>
<polygon fill="none" stroke="black" points="546.5,-271 546.5,-293 797.5,-293 797.5,-271 546.5,-271"/>
<image xlink:href="../../images/foreignKeys.png" width="11px" height="12px" preserveAspectRatio="xMinYMin meet" x="551.5" y="-288"/>
<text text-anchor="start" x="566.5" y="-279.2" font-family="Helvetica,sans-Serif" font-size="11.00">marking_profile</text>
<polygon fill="none" stroke="black" points="546.5,-249 546.5,-271 797.5,-271 797.5,-249 546.5,-249"/>
<image xlink:href="../../images/foreignKeys.png" width="11px" height="12px" preserveAspectRatio="xMinYMin meet" x="551.5" y="-266"/>
<text text-anchor="start" x="566.5" y="-257.2" font-family="Helvetica,sans-Serif" font-size="11.00">terrain_form</text>
<polygon fill="none" stroke="black" points="546.5,-227 546.5,-249 797.5,-249 797.5,-227 546.5,-227"/>
<image xlink:href="../../images/foreignKeys.png" width="11px" height="12px" preserveAspectRatio="xMinYMin meet" x="551.5" y="-244"/>
<text text-anchor="start" x="566.5" y="-235.2" font-family="Helvetica,sans-Serif" font-size="11.00">management_type</text>
<polygon fill="none" stroke="black" points="546.5,-205 546.5,-227 797.5,-227 797.5,-205 546.5,-205"/>
<image xlink:href="../../images/foreignKeys.png" width="11px" height="12px" preserveAspectRatio="xMinYMin meet" x="551.5" y="-222"/>
<text text-anchor="start" x="566.5" y="-213.2" font-family="Helvetica,sans-Serif" font-size="11.00">harvesting_method</text>
<polygon fill="none" stroke="black" points="546.5,-183 546.5,-205 797.5,-205 797.5,-183 546.5,-183"/>
<image xlink:href="../../images/foreignKeys.png" width="11px" height="12px" preserveAspectRatio="xMinYMin meet" x="551.5" y="-200"/>
<text text-anchor="start" x="566.5" y="-191.2" font-family="Helvetica,sans-Serif" font-size="11.00">layer_type</text>
<polygon fill="none" stroke="black" points="546.5,-161 546.5,-183 797.5,-183 797.5,-161 546.5,-161"/>
<image xlink:href="../../images/foreignKeys.png" width="11px" height="12px" preserveAspectRatio="xMinYMin meet" x="551.5" y="-178"/>
<text text-anchor="start" x="566.5" y="-169.2" font-family="Helvetica,sans-Serif" font-size="11.00">stand_phase</text>
<polygon fill="none" stroke="black" points="546.5,-139 546.5,-161 797.5,-161 797.5,-139 546.5,-139"/>
<image xlink:href="../../images/foreignKeys.png" width="11px" height="12px" preserveAspectRatio="xMinYMin meet" x="551.5" y="-156"/>
<text text-anchor="start" x="566.5" y="-147.2" font-family="Helvetica,sans-Serif" font-size="11.00">sablings_layer</text>
<polygon fill="none" stroke="black" points="546.5,-117 546.5,-139 797.5,-139 797.5,-117 546.5,-117"/>
<image xlink:href="../../images/foreignKeys.png" width="11px" height="12px" preserveAspectRatio="xMinYMin meet" x="551.5" y="-134"/>
<text text-anchor="start" x="566.5" y="-125.2" font-family="Helvetica,sans-Serif" font-size="11.00">trees_less_4meter_mirrored</text>
<polygon fill="none" stroke="black" points="546.5,-95 546.5,-117 797.5,-117 797.5,-95 546.5,-95"/>
<image xlink:href="../../images/foreignKeys.png" width="11px" height="12px" preserveAspectRatio="xMinYMin meet" x="551.5" y="-112"/>
<text text-anchor="start" x="566.5" y="-103.2" font-family="Helvetica,sans-Serif" font-size="11.00">trees_less_4meter_count_factor</text>
<polygon fill="none" stroke="black" points="546.5,-73 546.5,-95 797.5,-95 797.5,-73 546.5,-73"/>
<image xlink:href="../../images/foreignKeys.png" width="11px" height="12px" preserveAspectRatio="xMinYMin meet" x="551.5" y="-90"/>
<text text-anchor="start" x="566.5" y="-81.2" font-family="Helvetica,sans-Serif" font-size="11.00">trees_less_4meter_layer</text>
<polygon fill="none" stroke="black" points="546.5,-55 546.5,-73 797.5,-73 797.5,-55 546.5,-55"/>
<text text-anchor="start" x="549.5" y="-61.2" font-family="Helvetica,sans-Serif" font-size="11.00">...</text>
<polygon fill="#ffffff" stroke="transparent" points="546.5,-37 546.5,-55 797.5,-55 797.5,-37 546.5,-37"/>
<polygon fill="none" stroke="black" points="546.5,-37 546.5,-55 797.5,-55 797.5,-37 546.5,-37"/>
<polygon fill="#ffffff" stroke="transparent" points="547.5,-38 547.5,-54 629.5,-54 629.5,-38 547.5,-38"/>
<text text-anchor="start" x="549.5" y="-43.2" font-family="Helvetica,sans-Serif" font-size="11.00">&lt; 24</text>
<polygon fill="#ffffff" stroke="transparent" points="629.5,-38 629.5,-54 721.5,-54 721.5,-38 629.5,-38"/>
<text text-anchor="start" x="657" y="-43.2" font-family="Helvetica,sans-Serif" font-size="11.00">0 rows</text>
<polygon fill="#ffffff" stroke="transparent" points="721.5,-38 721.5,-54 796.5,-54 796.5,-38 721.5,-38"/>
<text text-anchor="start" x="774.5" y="-43.2" font-family="Helvetica,sans-Serif" font-size="11.00">7 &gt;</text>
<polygon fill="black" stroke="black" points="629.5,-38 629.5,-54 629.5,-54 629.5,-38 629.5,-38"/>
<polygon fill="black" stroke="black" points="721.5,-38 721.5,-54 721.5,-54 721.5,-38 721.5,-38"/>
</a>
</g>
</g>
<!-- lookup_terrain_form -->
<g id="node2" class="node">
<title>lookup_terrain_form</title>
<g id="a_node2"><a xlink:href="../../tables/lookup_terrain_form.html" xlink:title="lookup_terrain_form" target="_top">
<polygon fill="#ffffff" stroke="transparent" points="8,-229 8,-361 497,-361 497,-229 8,-229"/>
<polygon fill="#f5f5f5" stroke="transparent" points="10.5,-337 10.5,-359 495.5,-359 495.5,-337 10.5,-337"/>
<polygon fill="none" stroke="black" points="10.5,-337 10.5,-359 495.5,-359 495.5,-337 10.5,-337"/>
<text text-anchor="start" x="15.5" y="-346.2" font-family="Helvetica,sans-Serif" font-weight="bold" font-size="11.00">lookup_terrain_form</text>
<text text-anchor="start" x="453.5" y="-345.2" font-family="Helvetica,sans-Serif" font-size="11.00">[table]</text>
<polygon fill="none" stroke="black" points="10.5,-315 10.5,-337 178.5,-337 178.5,-315 10.5,-315"/>
<text text-anchor="start" x="30.5" y="-323.2" font-family="Helvetica,sans-Serif" font-size="11.00">name_de</text>
<polygon fill="none" stroke="black" points="178.5,-315 178.5,-337 495.5,-337 495.5,-315 178.5,-315"/>
<text text-anchor="start" x="181.5" y="-323.2" font-family="Helvetica,sans-Serif" font-size="11.00">varchar[150]</text>
<polygon fill="none" stroke="black" points="10.5,-293 10.5,-315 178.5,-315 178.5,-293 10.5,-293"/>
<text text-anchor="start" x="30.5" y="-301.2" font-family="Helvetica,sans-Serif" font-size="11.00">name_en</text>
<polygon fill="none" stroke="black" points="178.5,-293 178.5,-315 495.5,-315 495.5,-293 178.5,-293"/>
<text text-anchor="start" x="181.5" y="-301.2" font-family="Helvetica,sans-Serif" font-size="11.00">varchar[150]</text>
<polygon fill="none" stroke="black" points="10.5,-271 10.5,-293 178.5,-293 178.5,-271 10.5,-271"/>
<text text-anchor="start" x="30.5" y="-279.2" font-family="Helvetica,sans-Serif" font-size="11.00">sort</text>
<polygon fill="none" stroke="black" points="178.5,-271 178.5,-293 495.5,-293 495.5,-271 178.5,-271"/>
<text text-anchor="start" x="181.5" y="-279.2" font-family="Helvetica,sans-Serif" font-size="11.00">int4[10]</text>
<polygon fill="#ffffff" stroke="transparent" points="10.5,-249 10.5,-271 178.5,-271 178.5,-249 10.5,-249"/>
<polygon fill="none" stroke="black" points="10.5,-249 10.5,-271 178.5,-271 178.5,-249 10.5,-249"/>
<text text-anchor="start" x="30.5" y="-257.2" font-family="Helvetica,sans-Serif" font-size="11.00">abbreviation</text>
<polygon fill="none" stroke="black" points="178.5,-249 178.5,-271 495.5,-271 495.5,-249 178.5,-249"/>
<text text-anchor="start" x="181.5" y="-257.2" font-family="Helvetica,sans-Serif" font-size="11.00">&quot;private_ci2027_001&quot;.&quot;enum_terrain_form&quot;[2147483647]</text>
<polygon fill="#ffffff" stroke="transparent" points="10.5,-231 10.5,-249 495.5,-249 495.5,-231 10.5,-231"/>
<polygon fill="none" stroke="black" points="10.5,-231 10.5,-249 495.5,-249 495.5,-231 10.5,-231"/>
<polygon fill="#ffffff" stroke="transparent" points="11.5,-232 11.5,-248 167.5,-248 167.5,-232 11.5,-232"/>
<text text-anchor="start" x="13.5" y="-237.2" font-family="Helvetica,sans-Serif" font-size="11.00">&lt; 0</text>
<polygon fill="#ffffff" stroke="transparent" points="167.5,-232 167.5,-248 339.5,-248 339.5,-232 167.5,-232"/>
<text text-anchor="start" x="235" y="-237.2" font-family="Helvetica,sans-Serif" font-size="11.00">0 rows</text>
<polygon fill="#ffffff" stroke="transparent" points="339.5,-232 339.5,-248 494.5,-248 494.5,-232 339.5,-232"/>
<text text-anchor="start" x="472.5" y="-237.2" font-family="Helvetica,sans-Serif" font-size="11.00">1 &gt;</text>
<polygon fill="black" stroke="black" points="167.5,-232 167.5,-248 167.5,-248 167.5,-232 167.5,-232"/>
<polygon fill="black" stroke="black" points="339.5,-232 339.5,-248 339.5,-248 339.5,-232 339.5,-232"/>
<polygon fill="none" stroke="black" stroke-width="2" points="9,-230 9,-360 496,-360 496,-230 9,-230"/>
</a>
</g>
</g>
<!-- plot&#45;&gt;lookup_terrain_form -->
<g id="edge1" class="edge">
<title>plot:w&#45;&gt;lookup_terrain_form:e</title>
<path fill="none" stroke="black" d="M530.99,-260C519.68,-260 512.49,-260 496.5,-260"/>
<polygon fill="black" stroke="black" points="537.5,-260 545.5,-263.6 541.5,-260 545.5,-260 545.5,-260 545.5,-260 541.5,-260 545.5,-256.4 537.5,-260 537.5,-260"/>
<ellipse fill="none" stroke="black" cx="534.3" cy="-260" rx="3.2" ry="3.2"/>
</g>
</g>
</svg>
