<?xml version="1.0" encoding="UTF-8" standalone="no"?>
<!DOCTYPE svg PUBLIC "-//W3C//DTD SVG 1.1//EN"
 "http://www.w3.org/Graphics/SVG/1.1/DTD/svg11.dtd">
<!-- Generated by graphviz version 2.43.0 (0)
 -->
<!-- Title: twoDegreesRelationshipsDiagram Pages: 1 -->
<svg width="802pt" height="497pt"
 viewBox="0.00 0.00 802.00 496.84" xmlns="http://www.w3.org/2000/svg" xmlns:xlink="http://www.w3.org/1999/xlink">
<g id="graph0" class="graph" transform="scale(1 1) rotate(0) translate(4 492.84)">
<title>twoDegreesRelationshipsDiagram</title>
<polygon fill="#ffffff" stroke="transparent" points="-4,4 -4,-492.84 798,-492.84 798,4 -4,4"/>
<text text-anchor="middle" x="79.5" y="-7.2" font-family="Helvetica,sans-Serif" font-size="11.00">Generated by SchemaSpy</text>
<!-- plot_location -->
<g id="node1" class="node">
<title>plot_location</title>
<g id="a_node1"><a xlink:href="../../tables/plot_location.html" xlink:title="plot_location" target="_top">
<polygon fill="#ffffff" stroke="transparent" points="288,-375 288,-433 429,-433 429,-375 288,-375"/>
<polygon fill="#f5f5f5" stroke="transparent" points="288.5,-411 288.5,-433 429.5,-433 429.5,-411 288.5,-411"/>
<polygon fill="none" stroke="black" points="288.5,-411 288.5,-433 429.5,-433 429.5,-411 288.5,-411"/>
<text text-anchor="start" x="293.5" y="-420.2" font-family="Helvetica,sans-Serif" font-weight="bold" font-size="11.00">plot_location</text>
<text text-anchor="start" x="387.5" y="-419.2" font-family="Helvetica,sans-Serif" font-size="11.00">[table]</text>
<polygon fill="none" stroke="black" points="288.5,-393 288.5,-411 429.5,-411 429.5,-393 288.5,-393"/>
<text text-anchor="start" x="291.5" y="-399.2" font-family="Helvetica,sans-Serif" font-size="11.00">...</text>
<polygon fill="#ffffff" stroke="transparent" points="288.5,-375 288.5,-393 429.5,-393 429.5,-375 288.5,-375"/>
<polygon fill="none" stroke="black" points="288.5,-375 288.5,-393 429.5,-393 429.5,-375 288.5,-375"/>
<polygon fill="#ffffff" stroke="transparent" points="289.5,-376 289.5,-392 330.5,-392 330.5,-376 289.5,-376"/>
<text text-anchor="start" x="291.5" y="-381.2" font-family="Helvetica,sans-Serif" font-size="11.00">&lt; 1</text>
<polygon fill="#ffffff" stroke="transparent" points="330.5,-376 330.5,-392 388.5,-392 388.5,-376 330.5,-376"/>
<text text-anchor="start" x="341" y="-381.2" font-family="Helvetica,sans-Serif" font-size="11.00">0 rows</text>
<polygon fill="#ffffff" stroke="transparent" points="388.5,-376 388.5,-392 428.5,-392 428.5,-376 388.5,-376"/>
<text text-anchor="start" x="406.5" y="-381.2" font-family="Helvetica,sans-Serif" font-size="11.00">3 &gt;</text>
<polygon fill="black" stroke="black" points="330.5,-376 330.5,-392 330.5,-392 330.5,-376 330.5,-376"/>
<polygon fill="black" stroke="black" points="388.5,-376 388.5,-392 388.5,-392 388.5,-376 388.5,-376"/>
</a>
</g>
</g>
<!-- plot -->
<g id="node2" class="node">
<title>plot</title>
<g id="a_node2"><a xlink:href="../../tables/plot.html" xlink:title="plot" target="_top">
<polygon fill="#ffffff" stroke="transparent" points="8,-375 8,-433 106,-433 106,-375 8,-375"/>
<polygon fill="#f5f5f5" stroke="transparent" points="8,-411 8,-433 106,-433 106,-411 8,-411"/>
<polygon fill="none" stroke="black" points="8,-411 8,-433 106,-433 106,-411 8,-411"/>
<text text-anchor="start" x="12.5" y="-420.2" font-family="Helvetica,sans-Serif" font-weight="bold" font-size="11.00">plot</text>
<text text-anchor="start" x="64" y="-419.2" font-family="Helvetica,sans-Serif" font-size="11.00">[table]</text>
<polygon fill="none" stroke="black" points="8,-393 8,-411 106,-411 106,-393 8,-393"/>
<text text-anchor="start" x="11" y="-399.2" font-family="Helvetica,sans-Serif" font-size="11.00">...</text>
<polygon fill="#ffffff" stroke="transparent" points="8,-375 8,-393 106,-393 106,-375 8,-375"/>
<polygon fill="none" stroke="black" points="8,-375 8,-393 106,-393 106,-375 8,-375"/>
<polygon fill="#ffffff" stroke="transparent" points="9,-376 9,-392 40,-392 40,-376 9,-376"/>
<text text-anchor="start" x="11" y="-381.2" font-family="Helvetica,sans-Serif" font-size="11.00">&lt; 24</text>
<polygon fill="#ffffff" stroke="transparent" points="40,-376 40,-392 81,-392 81,-376 40,-376"/>
<text text-anchor="start" x="42" y="-381.2" font-family="Helvetica,sans-Serif" font-size="11.00">0 rows</text>
<polygon fill="#ffffff" stroke="transparent" points="81,-376 81,-392 105,-392 105,-376 81,-376"/>
<text text-anchor="start" x="83" y="-381.2" font-family="Helvetica,sans-Serif" font-size="11.00">7 &gt;</text>
<polygon fill="black" stroke="black" points="40,-376 40,-392 40,-392 40,-376 40,-376"/>
<polygon fill="black" stroke="black" points="81,-376 81,-392 81,-392 81,-376 81,-376"/>
</a>
</g>
</g>
<!-- plot_location&#45;&gt;plot -->
<g id="edge1" class="edge">
<title>plot_location:w&#45;&gt;plot:e</title>
<path fill="none" stroke="black" d="M272.71,-402C204.44,-402 182.05,-402 107,-402"/>
<polygon fill="black" stroke="black" points="279.5,-402 287.5,-405.6 283.5,-402 287.5,-402 287.5,-402 287.5,-402 283.5,-402 287.5,-398.4 279.5,-402 279.5,-402"/>
<ellipse fill="none" stroke="black" cx="276.3" cy="-402" rx="3.2" ry="3.2"/>
</g>
<!-- sapling_1m -->
<g id="node3" class="node">
<title>sapling_1m</title>
<g id="a_node3"><a xlink:href="../../tables/sapling_1m.html" xlink:title="sapling_1m" target="_top">
<polygon fill="#ffffff" stroke="transparent" points="611,-311 611,-479 786,-479 786,-311 611,-311"/>
<polygon fill="#f5f5f5" stroke="transparent" points="611.5,-457 611.5,-479 786.5,-479 786.5,-457 611.5,-457"/>
<polygon fill="none" stroke="black" points="611.5,-457 611.5,-479 786.5,-479 786.5,-457 611.5,-457"/>
<text text-anchor="start" x="616.5" y="-466.2" font-family="Helvetica,sans-Serif" font-weight="bold" font-size="11.00">sapling_1m</text>
<text text-anchor="start" x="744.5" y="-465.2" font-family="Helvetica,sans-Serif" font-size="11.00">[table]</text>
<polygon fill="none" stroke="black" points="611.5,-435 611.5,-457 786.5,-457 786.5,-435 611.5,-435"/>
<image xlink:href="../../images/primaryKeys.png" width="11px" height="12px" preserveAspectRatio="xMinYMin meet" x="616.5" y="-452"/>
<text text-anchor="start" x="631.5" y="-443.2" font-family="Helvetica,sans-Serif" font-size="11.00">id</text>
<polygon fill="none" stroke="black" points="611.5,-413 611.5,-435 786.5,-435 786.5,-413 611.5,-413"/>
<image xlink:href="../../images/foreignKeys.png" width="11px" height="12px" preserveAspectRatio="xMinYMin meet" x="616.5" y="-430"/>
<text text-anchor="start" x="631.5" y="-421.2" font-family="Helvetica,sans-Serif" font-size="11.00">plot_id</text>
<polygon fill="none" stroke="black" points="611.5,-391 611.5,-413 786.5,-413 786.5,-391 611.5,-391"/>
<image xlink:href="../../images/foreignKeys.png" width="11px" height="12px" preserveAspectRatio="xMinYMin meet" x="616.5" y="-408"/>
<text text-anchor="start" x="631.5" y="-399.2" font-family="Helvetica,sans-Serif" font-size="11.00">plot_location_id</text>
<polygon fill="none" stroke="black" points="611.5,-369 611.5,-391 786.5,-391 786.5,-369 611.5,-369"/>
<image xlink:href="../../images/foreignKeys.png" width="11px" height="12px" preserveAspectRatio="xMinYMin meet" x="616.5" y="-386"/>
<text text-anchor="start" x="631.5" y="-377.2" font-family="Helvetica,sans-Serif" font-size="11.00">tree_species</text>
<polygon fill="none" stroke="black" points="611.5,-347 611.5,-369 786.5,-369 786.5,-347 611.5,-347"/>
<image xlink:href="../../images/foreignKeys.png" width="11px" height="12px" preserveAspectRatio="xMinYMin meet" x="616.5" y="-364"/>
<text text-anchor="start" x="631.5" y="-355.2" font-family="Helvetica,sans-Serif" font-size="11.00">bitten</text>
<polygon fill="none" stroke="black" points="611.5,-329 611.5,-347 786.5,-347 786.5,-329 611.5,-329"/>
<text text-anchor="start" x="614.5" y="-335.2" font-family="Helvetica,sans-Serif" font-size="11.00">...</text>
<polygon fill="#ffffff" stroke="transparent" points="611.5,-311 611.5,-329 786.5,-329 786.5,-311 611.5,-311"/>
<polygon fill="none" stroke="black" points="611.5,-311 611.5,-329 786.5,-329 786.5,-311 611.5,-311"/>
<polygon fill="#ffffff" stroke="transparent" points="612.5,-312 612.5,-328 668.5,-328 668.5,-312 612.5,-312"/>
<text text-anchor="start" x="614.5" y="-317.2" font-family="Helvetica,sans-Serif" font-size="11.00">&lt; 4</text>
<polygon fill="#ffffff" stroke="transparent" points="668.5,-312 668.5,-328 741.5,-328 741.5,-312 668.5,-312"/>
<text text-anchor="start" x="686.5" y="-317.2" font-family="Helvetica,sans-Serif" font-size="11.00">0 rows</text>
<polygon fill="#ffffff" stroke="transparent" points="741.5,-312 741.5,-328 785.5,-328 785.5,-312 741.5,-312"/>
<text text-anchor="start" x="775.5" y="-317.2" font-family="Helvetica,sans-Serif" font-size="11.00"> &#160;</text>
<polygon fill="black" stroke="black" points="668.5,-312 668.5,-328 668.5,-328 668.5,-312 668.5,-312"/>
<polygon fill="black" stroke="black" points="741.5,-312 741.5,-328 741.5,-328 741.5,-312 741.5,-312"/>
</a>
</g>
</g>
<!-- sapling_1m&#45;&gt;plot_location -->
<g id="edge4" class="edge">
<title>sapling_1m:w&#45;&gt;plot_location:e</title>
<path fill="none" stroke="black" d="M595.75,-402C527.67,-402 505.34,-402 430.5,-402"/>
<polygon fill="black" stroke="black" points="602.5,-402 610.5,-405.6 606.5,-402 610.5,-402 610.5,-402 610.5,-402 606.5,-402 610.5,-398.4 602.5,-402 602.5,-402"/>
<ellipse fill="none" stroke="black" cx="599.3" cy="-402" rx="3.2" ry="3.2"/>
</g>
<!-- sapling_1m&#45;&gt;plot -->
<g id="edge3" class="edge">
<title>sapling_1m:w&#45;&gt;plot:e</title>
<path fill="none" stroke="black" d="M596.43,-427.55C588.16,-432.4 583.59,-440.83 570,-444 386.92,-486.74 319.8,-518.06 147,-444 123.31,-433.85 132.78,-402 107,-402"/>
<polygon fill="black" stroke="black" points="602.74,-425.96 611.38,-427.49 606.62,-424.98 610.5,-424 610.5,-424 610.5,-424 606.62,-424.98 609.62,-420.51 602.74,-425.96 602.74,-425.96"/>
<ellipse fill="none" stroke="black" cx="599.64" cy="-426.74" rx="3.2" ry="3.2"/>
</g>
<!-- lookup_bitten -->
<g id="node4" class="node">
<title>lookup_bitten</title>
<g id="a_node4"><a xlink:href="../../tables/lookup_bitten.html" xlink:title="lookup_bitten" target="_top">
<polygon fill="#ffffff" stroke="transparent" points="155,-116 155,-248 562,-248 562,-116 155,-116"/>
<polygon fill="#f5f5f5" stroke="transparent" points="157.5,-224 157.5,-246 560.5,-246 560.5,-224 157.5,-224"/>
<polygon fill="none" stroke="black" points="157.5,-224 157.5,-246 560.5,-246 560.5,-224 157.5,-224"/>
<text text-anchor="start" x="162.5" y="-233.2" font-family="Helvetica,sans-Serif" font-weight="bold" font-size="11.00">lookup_bitten</text>
<text text-anchor="start" x="518.5" y="-232.2" font-family="Helvetica,sans-Serif" font-size="11.00">[table]</text>
<polygon fill="none" stroke="black" points="157.5,-202 157.5,-224 278.5,-224 278.5,-202 157.5,-202"/>
<text text-anchor="start" x="177.5" y="-210.2" font-family="Helvetica,sans-Serif" font-size="11.00">name_de</text>
<polygon fill="none" stroke="black" points="278.5,-202 278.5,-224 560.5,-224 560.5,-202 278.5,-202"/>
<text text-anchor="start" x="281.5" y="-210.2" font-family="Helvetica,sans-Serif" font-size="11.00">varchar[150]</text>
<polygon fill="none" stroke="black" points="157.5,-180 157.5,-202 278.5,-202 278.5,-180 157.5,-180"/>
<text text-anchor="start" x="177.5" y="-188.2" font-family="Helvetica,sans-Serif" font-size="11.00">name_en</text>
<polygon fill="none" stroke="black" points="278.5,-180 278.5,-202 560.5,-202 560.5,-180 278.5,-180"/>
<text text-anchor="start" x="281.5" y="-188.2" font-family="Helvetica,sans-Serif" font-size="11.00">varchar[150]</text>
<polygon fill="none" stroke="black" points="157.5,-158 157.5,-180 278.5,-180 278.5,-158 157.5,-158"/>
<text text-anchor="start" x="177.5" y="-166.2" font-family="Helvetica,sans-Serif" font-size="11.00">sort</text>
<polygon fill="none" stroke="black" points="278.5,-158 278.5,-180 560.5,-180 560.5,-158 278.5,-158"/>
<text text-anchor="start" x="281.5" y="-166.2" font-family="Helvetica,sans-Serif" font-size="11.00">int4[10]</text>
<polygon fill="#ffffff" stroke="transparent" points="157.5,-136 157.5,-158 278.5,-158 278.5,-136 157.5,-136"/>
<polygon fill="none" stroke="black" points="157.5,-136 157.5,-158 278.5,-158 278.5,-136 157.5,-136"/>
<text text-anchor="start" x="177.5" y="-144.2" font-family="Helvetica,sans-Serif" font-size="11.00">abbreviation</text>
<polygon fill="none" stroke="black" points="278.5,-136 278.5,-158 560.5,-158 560.5,-136 278.5,-136"/>
<text text-anchor="start" x="281.5" y="-144.2" font-family="Helvetica,sans-Serif" font-size="11.00">&quot;private_ci2027_001&quot;.&quot;enum_bitten&quot;[2147483647]</text>
<polygon fill="#ffffff" stroke="transparent" points="157.5,-118 157.5,-136 560.5,-136 560.5,-118 157.5,-118"/>
<polygon fill="none" stroke="black" points="157.5,-118 157.5,-136 560.5,-136 560.5,-118 157.5,-118"/>
<polygon fill="#ffffff" stroke="transparent" points="158.5,-119 158.5,-135 286.5,-135 286.5,-119 158.5,-119"/>
<text text-anchor="start" x="160.5" y="-124.2" font-family="Helvetica,sans-Serif" font-size="11.00">&lt; 0</text>
<polygon fill="#ffffff" stroke="transparent" points="286.5,-119 286.5,-135 431.5,-135 431.5,-119 286.5,-119"/>
<text text-anchor="start" x="340.5" y="-124.2" font-family="Helvetica,sans-Serif" font-size="11.00">0 rows</text>
<polygon fill="#ffffff" stroke="transparent" points="431.5,-119 431.5,-135 559.5,-135 559.5,-119 431.5,-119"/>
<text text-anchor="start" x="537.5" y="-124.2" font-family="Helvetica,sans-Serif" font-size="11.00">2 &gt;</text>
<polygon fill="black" stroke="black" points="286.5,-119 286.5,-135 286.5,-135 286.5,-119 286.5,-119"/>
<polygon fill="black" stroke="black" points="431.5,-119 431.5,-135 431.5,-135 431.5,-119 431.5,-119"/>
<polygon fill="none" stroke="black" stroke-width="2" points="156,-117 156,-247 561,-247 561,-117 156,-117"/>
</a>
</g>
</g>
<!-- sapling_1m&#45;&gt;lookup_bitten -->
<g id="edge2" class="edge">
<title>sapling_1m:w&#45;&gt;lookup_bitten:e</title>
<path fill="none" stroke="black" d="M595.95,-355.91C530.23,-334 652.13,-147 561.5,-147"/>
<polygon fill="black" stroke="black" points="602.58,-356.86 609.99,-361.56 606.54,-357.43 610.5,-358 610.5,-358 610.5,-358 606.54,-357.43 611.01,-354.44 602.58,-356.86 602.58,-356.86"/>
<ellipse fill="none" stroke="black" cx="599.41" cy="-356.41" rx="3.2" ry="3.2"/>
</g>
<!-- lookup_tree_species -->
<g id="node5" class="node">
<title>lookup_tree_species</title>
<g id="a_node5"><a xlink:href="../../tables/lookup_tree_species.html" xlink:title="lookup_tree_species" target="_top">
<polygon fill="#ffffff" stroke="transparent" points="261.5,-269 261.5,-327 455.5,-327 455.5,-269 261.5,-269"/>
<polygon fill="#f5f5f5" stroke="transparent" points="261.5,-305 261.5,-327 455.5,-327 455.5,-305 261.5,-305"/>
<polygon fill="none" stroke="black" points="261.5,-305 261.5,-327 455.5,-327 455.5,-305 261.5,-305"/>
<text text-anchor="start" x="266.5" y="-314.2" font-family="Helvetica,sans-Serif" font-weight="bold" font-size="11.00">lookup_tree_species</text>
<text text-anchor="start" x="413.5" y="-313.2" font-family="Helvetica,sans-Serif" font-size="11.00">[table]</text>
<polygon fill="none" stroke="black" points="261.5,-287 261.5,-305 455.5,-305 455.5,-287 261.5,-287"/>
<text text-anchor="start" x="264.5" y="-293.2" font-family="Helvetica,sans-Serif" font-size="11.00">...</text>
<polygon fill="#ffffff" stroke="transparent" points="261.5,-269 261.5,-287 455.5,-287 455.5,-269 261.5,-269"/>
<polygon fill="none" stroke="black" points="261.5,-269 261.5,-287 455.5,-287 455.5,-269 261.5,-269"/>
<polygon fill="#ffffff" stroke="transparent" points="262.5,-270 262.5,-286 308.5,-286 308.5,-270 262.5,-270"/>
<text text-anchor="start" x="264.5" y="-275.2" font-family="Helvetica,sans-Serif" font-size="11.00"> &#160;</text>
<polygon fill="#ffffff" stroke="transparent" points="308.5,-270 308.5,-286 397.5,-286 397.5,-270 308.5,-270"/>
<text text-anchor="start" x="327.5" y="-275.2" font-family="Helvetica,sans-Serif" font-size="11.00">125 rows</text>
<polygon fill="#ffffff" stroke="transparent" points="397.5,-270 397.5,-286 454.5,-286 454.5,-270 397.5,-270"/>
<text text-anchor="start" x="432.5" y="-275.2" font-family="Helvetica,sans-Serif" font-size="11.00">3 &gt;</text>
<polygon fill="black" stroke="black" points="308.5,-270 308.5,-286 308.5,-286 308.5,-270 308.5,-270"/>
<polygon fill="black" stroke="black" points="397.5,-270 397.5,-286 397.5,-286 397.5,-270 397.5,-270"/>
</a>
</g>
</g>
<!-- sapling_1m&#45;&gt;lookup_tree_species -->
<g id="edge5" class="edge">
<title>sapling_1m:w&#45;&gt;lookup_tree_species:e</title>
<path fill="none" stroke="black" d="M596.21,-377.11C555.05,-362.34 491.14,-296 456.5,-296"/>
<polygon fill="black" stroke="black" points="602.66,-378.41 609.79,-383.53 606.58,-379.21 610.5,-380 610.5,-380 610.5,-380 606.58,-379.21 611.21,-376.47 602.66,-378.41 602.66,-378.41"/>
<ellipse fill="none" stroke="black" cx="599.52" cy="-377.78" rx="3.2" ry="3.2"/>
</g>
<!-- sapling_2m -->
<g id="node6" class="node">
<title>sapling_2m</title>
<g id="a_node6"><a xlink:href="../../tables/sapling_2m.html" xlink:title="sapling_2m" target="_top">
<polygon fill="#ffffff" stroke="transparent" points="611,-100 611,-290 786,-290 786,-100 611,-100"/>
<polygon fill="#f5f5f5" stroke="transparent" points="611.5,-268 611.5,-290 786.5,-290 786.5,-268 611.5,-268"/>
<polygon fill="none" stroke="black" points="611.5,-268 611.5,-290 786.5,-290 786.5,-268 611.5,-268"/>
<text text-anchor="start" x="616.5" y="-277.2" font-family="Helvetica,sans-Serif" font-weight="bold" font-size="11.00">sapling_2m</text>
<text text-anchor="start" x="744.5" y="-276.2" font-family="Helvetica,sans-Serif" font-size="11.00">[table]</text>
<polygon fill="none" stroke="black" points="611.5,-246 611.5,-268 786.5,-268 786.5,-246 611.5,-246"/>
<image xlink:href="../../images/primaryKeys.png" width="11px" height="12px" preserveAspectRatio="xMinYMin meet" x="616.5" y="-263"/>
<text text-anchor="start" x="631.5" y="-254.2" font-family="Helvetica,sans-Serif" font-size="11.00">id</text>
<polygon fill="none" stroke="black" points="611.5,-224 611.5,-246 786.5,-246 786.5,-224 611.5,-224"/>
<image xlink:href="../../images/foreignKeys.png" width="11px" height="12px" preserveAspectRatio="xMinYMin meet" x="616.5" y="-241"/>
<text text-anchor="start" x="631.5" y="-232.2" font-family="Helvetica,sans-Serif" font-size="11.00">plot_id</text>
<polygon fill="none" stroke="black" points="611.5,-202 611.5,-224 786.5,-224 786.5,-202 611.5,-202"/>
<image xlink:href="../../images/foreignKeys.png" width="11px" height="12px" preserveAspectRatio="xMinYMin meet" x="616.5" y="-219"/>
<text text-anchor="start" x="631.5" y="-210.2" font-family="Helvetica,sans-Serif" font-size="11.00">plot_location_id</text>
<polygon fill="none" stroke="black" points="611.5,-180 611.5,-202 786.5,-202 786.5,-180 611.5,-180"/>
<image xlink:href="../../images/foreignKeys.png" width="11px" height="12px" preserveAspectRatio="xMinYMin meet" x="616.5" y="-197"/>
<text text-anchor="start" x="631.5" y="-188.2" font-family="Helvetica,sans-Serif" font-size="11.00">tree_species</text>
<polygon fill="none" stroke="black" points="611.5,-158 611.5,-180 786.5,-180 786.5,-158 611.5,-158"/>
<image xlink:href="../../images/foreignKeys.png" width="11px" height="12px" preserveAspectRatio="xMinYMin meet" x="616.5" y="-175"/>
<text text-anchor="start" x="631.5" y="-166.2" font-family="Helvetica,sans-Serif" font-size="11.00">bitten</text>
<polygon fill="none" stroke="black" points="611.5,-136 611.5,-158 786.5,-158 786.5,-136 611.5,-136"/>
<image xlink:href="../../images/foreignKeys.png" width="11px" height="12px" preserveAspectRatio="xMinYMin meet" x="616.5" y="-153"/>
<text text-anchor="start" x="631.5" y="-144.2" font-family="Helvetica,sans-Serif" font-size="11.00">tree_size_class</text>
<polygon fill="none" stroke="black" points="611.5,-118 611.5,-136 786.5,-136 786.5,-118 611.5,-118"/>
<text text-anchor="start" x="614.5" y="-124.2" font-family="Helvetica,sans-Serif" font-size="11.00">...</text>
<polygon fill="#ffffff" stroke="transparent" points="611.5,-100 611.5,-118 786.5,-118 786.5,-100 611.5,-100"/>
<polygon fill="none" stroke="black" points="611.5,-100 611.5,-118 786.5,-118 786.5,-100 611.5,-100"/>
<polygon fill="#ffffff" stroke="transparent" points="612.5,-101 612.5,-117 668.5,-117 668.5,-101 612.5,-101"/>
<text text-anchor="start" x="614.5" y="-106.2" font-family="Helvetica,sans-Serif" font-size="11.00">&lt; 5</text>
<polygon fill="#ffffff" stroke="transparent" points="668.5,-101 668.5,-117 741.5,-117 741.5,-101 668.5,-101"/>
<text text-anchor="start" x="686.5" y="-106.2" font-family="Helvetica,sans-Serif" font-size="11.00">0 rows</text>
<polygon fill="#ffffff" stroke="transparent" points="741.5,-101 741.5,-117 785.5,-117 785.5,-101 741.5,-101"/>
<text text-anchor="start" x="775.5" y="-106.2" font-family="Helvetica,sans-Serif" font-size="11.00"> &#160;</text>
<polygon fill="black" stroke="black" points="668.5,-101 668.5,-117 668.5,-117 668.5,-101 668.5,-101"/>
<polygon fill="black" stroke="black" points="741.5,-101 741.5,-117 741.5,-117 741.5,-101 741.5,-101"/>
</a>
</g>
</g>
<!-- sapling_2m&#45;&gt;plot_location -->
<g id="edge8" class="edge">
<title>sapling_2m:w&#45;&gt;plot_location:e</title>
<path fill="none" stroke="black" d="M596.2,-215.01C554.11,-229.33 613.76,-316.42 570,-361 524.74,-407.12 495.12,-402 430.5,-402"/>
<polygon fill="black" stroke="black" points="602.58,-214.12 611,-216.56 606.54,-213.56 610.5,-213 610.5,-213 610.5,-213 606.54,-213.56 610,-209.44 602.58,-214.12 602.58,-214.12"/>
<ellipse fill="none" stroke="black" cx="599.41" cy="-214.56" rx="3.2" ry="3.2"/>
</g>
<!-- sapling_2m&#45;&gt;plot -->
<g id="edge7" class="edge">
<title>sapling_2m:w&#45;&gt;plot:e</title>
<path fill="none" stroke="black" d="M596.27,-238.24C572.04,-252.8 604.78,-312.64 570,-338 493.89,-393.49 233.57,-327.88 147,-365 124.74,-374.54 131.22,-402 107,-402"/>
<polygon fill="black" stroke="black" points="602.7,-236.77 611.3,-238.51 606.6,-235.89 610.5,-235 610.5,-235 610.5,-235 606.6,-235.89 609.7,-231.49 602.7,-236.77 602.7,-236.77"/>
<ellipse fill="none" stroke="black" cx="599.58" cy="-237.48" rx="3.2" ry="3.2"/>
</g>
<!-- sapling_2m&#45;&gt;lookup_bitten -->
<g id="edge6" class="edge">
<title>sapling_2m:w&#45;&gt;lookup_bitten:e</title>
<path fill="none" stroke="black" d="M596.13,-165.56C584.59,-159.38 579.4,-147 561.5,-147"/>
<polygon fill="black" stroke="black" points="602.72,-167.14 609.66,-172.5 606.61,-168.07 610.5,-169 610.5,-169 610.5,-169 606.61,-168.07 611.34,-165.5 602.72,-167.14 602.72,-167.14"/>
<ellipse fill="none" stroke="black" cx="599.61" cy="-166.39" rx="3.2" ry="3.2"/>
</g>
<!-- sapling_2m&#45;&gt;lookup_tree_species -->
<g id="edge10" class="edge">
<title>sapling_2m:w&#45;&gt;lookup_tree_species:e</title>
<path fill="none" stroke="black" d="M596.47,-195.05C581.68,-206.77 592.54,-240.98 570,-259 528.56,-292.13 509.56,-296 456.5,-296"/>
<polygon fill="black" stroke="black" points="602.81,-193.22 611.5,-194.46 606.66,-192.11 610.5,-191 610.5,-191 610.5,-191 606.66,-192.11 609.5,-187.54 602.81,-193.22 602.81,-193.22"/>
<ellipse fill="none" stroke="black" cx="599.74" cy="-194.11" rx="3.2" ry="3.2"/>
</g>
<!-- lookup_tree_size_class -->
<g id="node7" class="node">
<title>lookup_tree_size_class</title>
<g id="a_node7"><a xlink:href="../../tables/lookup_tree_size_class.html" xlink:title="lookup_tree_size_class" target="_top">
<polygon fill="#ffffff" stroke="transparent" points="253,-37 253,-95 464,-95 464,-37 253,-37"/>
<polygon fill="#f5f5f5" stroke="transparent" points="253.5,-73 253.5,-95 464.5,-95 464.5,-73 253.5,-73"/>
<polygon fill="none" stroke="black" points="253.5,-73 253.5,-95 464.5,-95 464.5,-73 253.5,-73"/>
<text text-anchor="start" x="258.5" y="-82.2" font-family="Helvetica,sans-Serif" font-weight="bold" font-size="11.00">lookup_tree_size_class</text>
<text text-anchor="start" x="422.5" y="-81.2" font-family="Helvetica,sans-Serif" font-size="11.00">[table]</text>
<polygon fill="none" stroke="black" points="253.5,-55 253.5,-73 464.5,-73 464.5,-55 253.5,-55"/>
<text text-anchor="start" x="256.5" y="-61.2" font-family="Helvetica,sans-Serif" font-size="11.00">...</text>
<polygon fill="#ffffff" stroke="transparent" points="253.5,-37 253.5,-55 464.5,-55 464.5,-37 253.5,-37"/>
<polygon fill="none" stroke="black" points="253.5,-37 253.5,-55 464.5,-55 464.5,-37 253.5,-37"/>
<polygon fill="#ffffff" stroke="transparent" points="254.5,-38 254.5,-54 310.5,-54 310.5,-38 254.5,-38"/>
<text text-anchor="start" x="256.5" y="-43.2" font-family="Helvetica,sans-Serif" font-size="11.00"> &#160;</text>
<polygon fill="#ffffff" stroke="transparent" points="310.5,-38 310.5,-54 395.5,-54 395.5,-38 310.5,-38"/>
<text text-anchor="start" x="334.5" y="-43.2" font-family="Helvetica,sans-Serif" font-size="11.00">0 rows</text>
<polygon fill="#ffffff" stroke="transparent" points="395.5,-38 395.5,-54 463.5,-54 463.5,-38 395.5,-38"/>
<text text-anchor="start" x="441.5" y="-43.2" font-family="Helvetica,sans-Serif" font-size="11.00">1 &gt;</text>
<polygon fill="black" stroke="black" points="310.5,-38 310.5,-54 310.5,-54 310.5,-38 310.5,-38"/>
<polygon fill="black" stroke="black" points="395.5,-38 395.5,-54 395.5,-54 395.5,-38 395.5,-38"/>
</a>
</g>
</g>
<!-- sapling_2m&#45;&gt;lookup_tree_size_class -->
<g id="edge9" class="edge">
<title>sapling_2m:w&#45;&gt;lookup_tree_size_class:e</title>
<path fill="none" stroke="black" d="M596.58,-142.72C586.28,-134.41 586.34,-115.91 570,-105 528.51,-77.29 515.39,-64 465.5,-64"/>
<polygon fill="black" stroke="black" points="602.85,-144.65 609.44,-150.44 606.68,-145.83 610.5,-147 610.5,-147 610.5,-147 606.68,-145.83 611.56,-143.56 602.85,-144.65 602.85,-144.65"/>
<ellipse fill="none" stroke="black" cx="599.79" cy="-143.71" rx="3.2" ry="3.2"/>
</g>
</g>
</svg>
