<?xml version="1.0" encoding="UTF-8" standalone="no"?>
<!DOCTYPE svg PUBLIC "-//W3C//DTD SVG 1.1//EN"
 "http://www.w3.org/Graphics/SVG/1.1/DTD/svg11.dtd">
<!-- Generated by graphviz version 2.43.0 (0)
 -->
<!-- Title: oneDegreeRelationshipsDiagram Pages: 1 -->
<svg width="859pt" height="681pt"
 viewBox="0.00 0.00 859.00 681.00" xmlns="http://www.w3.org/2000/svg" xmlns:xlink="http://www.w3.org/1999/xlink">
<g id="graph0" class="graph" transform="scale(1 1) rotate(0) translate(4 677)">
<title>oneDegreeRelationshipsDiagram</title>
<polygon fill="#ffffff" stroke="transparent" points="-4,4 -4,-677 855,-677 855,4 -4,4"/>
<text text-anchor="middle" x="79.5" y="-7.2" font-family="Helvetica,sans-Serif" font-size="11.00">Generated by SchemaSpy</text>
<!-- plot -->
<g id="node1" class="node">
<title>plot</title>
<g id="a_node1"><a xlink:href="../../tables/plot.html" xlink:title="plot" target="_top">
<polygon fill="#ffffff" stroke="transparent" points="592,-37 592,-667 843,-667 843,-37 592,-37"/>
<polygon fill="#f5f5f5" stroke="transparent" points="592.5,-645 592.5,-667 843.5,-667 843.5,-645 592.5,-645"/>
<polygon fill="none" stroke="black" points="592.5,-645 592.5,-667 843.5,-667 843.5,-645 592.5,-645"/>
<text text-anchor="start" x="597" y="-654.2" font-family="Helvetica,sans-Serif" font-weight="bold" font-size="11.00">plot</text>
<text text-anchor="start" x="801.5" y="-653.2" font-family="Helvetica,sans-Serif" font-size="11.00">[table]</text>
<polygon fill="none" stroke="black" points="592.5,-623 592.5,-645 843.5,-645 843.5,-623 592.5,-623"/>
<image xlink:href="../../images/primaryKeys.png" width="11px" height="12px" preserveAspectRatio="xMinYMin meet" x="597.5" y="-640"/>
<text text-anchor="start" x="612.5" y="-631.2" font-family="Helvetica,sans-Serif" font-size="11.00">id</text>
<polygon fill="#ffffff" stroke="transparent" points="592.5,-601 592.5,-623 843.5,-623 843.5,-601 592.5,-601"/>
<polygon fill="none" stroke="black" points="592.5,-601 592.5,-623 843.5,-623 843.5,-601 592.5,-601"/>
<image xlink:href="../../images/foreignKeys.png" width="11px" height="12px" preserveAspectRatio="xMinYMin meet" x="597.5" y="-618"/>
<text text-anchor="start" x="612.5" y="-609.2" font-family="Helvetica,sans-Serif" font-size="11.00">cluster_id</text>
<polygon fill="#ffffff" stroke="transparent" points="592.5,-579 592.5,-601 843.5,-601 843.5,-579 592.5,-579"/>
<polygon fill="none" stroke="black" points="592.5,-579 592.5,-601 843.5,-601 843.5,-579 592.5,-579"/>
<text text-anchor="start" x="612.5" y="-587.2" font-family="Helvetica,sans-Serif" font-size="11.00">plot_name</text>
<polygon fill="none" stroke="black" points="592.5,-557 592.5,-579 843.5,-579 843.5,-557 592.5,-557"/>
<image xlink:href="../../images/foreignKeys.png" width="11px" height="12px" preserveAspectRatio="xMinYMin meet" x="597.5" y="-574"/>
<text text-anchor="start" x="612.5" y="-565.2" font-family="Helvetica,sans-Serif" font-size="11.00">sampling_strata</text>
<polygon fill="none" stroke="black" points="592.5,-535 592.5,-557 843.5,-557 843.5,-535 592.5,-535"/>
<image xlink:href="../../images/foreignKeys.png" width="11px" height="12px" preserveAspectRatio="xMinYMin meet" x="597.5" y="-552"/>
<text text-anchor="start" x="612.5" y="-543.2" font-family="Helvetica,sans-Serif" font-size="11.00">growth_district</text>
<polygon fill="none" stroke="black" points="592.5,-513 592.5,-535 843.5,-535 843.5,-513 592.5,-513"/>
<image xlink:href="../../images/foreignKeys.png" width="11px" height="12px" preserveAspectRatio="xMinYMin meet" x="597.5" y="-530"/>
<text text-anchor="start" x="612.5" y="-521.2" font-family="Helvetica,sans-Serif" font-size="11.00">forest_decision</text>
<polygon fill="none" stroke="black" points="592.5,-491 592.5,-513 843.5,-513 843.5,-491 592.5,-491"/>
<image xlink:href="../../images/foreignKeys.png" width="11px" height="12px" preserveAspectRatio="xMinYMin meet" x="597.5" y="-508"/>
<text text-anchor="start" x="612.5" y="-499.2" font-family="Helvetica,sans-Serif" font-size="11.00">forestry_department</text>
<polygon fill="none" stroke="black" points="592.5,-469 592.5,-491 843.5,-491 843.5,-469 592.5,-469"/>
<image xlink:href="../../images/foreignKeys.png" width="11px" height="12px" preserveAspectRatio="xMinYMin meet" x="597.5" y="-486"/>
<text text-anchor="start" x="612.5" y="-477.2" font-family="Helvetica,sans-Serif" font-size="11.00">height_layer_class</text>
<polygon fill="none" stroke="black" points="592.5,-447 592.5,-469 843.5,-469 843.5,-447 592.5,-447"/>
<image xlink:href="../../images/foreignKeys.png" width="11px" height="12px" preserveAspectRatio="xMinYMin meet" x="597.5" y="-464"/>
<text text-anchor="start" x="612.5" y="-455.2" font-family="Helvetica,sans-Serif" font-size="11.00">property_type</text>
<polygon fill="none" stroke="black" points="592.5,-425 592.5,-447 843.5,-447 843.5,-425 592.5,-425"/>
<image xlink:href="../../images/foreignKeys.png" width="11px" height="12px" preserveAspectRatio="xMinYMin meet" x="597.5" y="-442"/>
<text text-anchor="start" x="612.5" y="-433.2" font-family="Helvetica,sans-Serif" font-size="11.00">property_size_class</text>
<polygon fill="none" stroke="black" points="592.5,-403 592.5,-425 843.5,-425 843.5,-403 592.5,-403"/>
<image xlink:href="../../images/foreignKeys.png" width="11px" height="12px" preserveAspectRatio="xMinYMin meet" x="597.5" y="-420"/>
<text text-anchor="start" x="612.5" y="-411.2" font-family="Helvetica,sans-Serif" font-size="11.00">forest_type</text>
<polygon fill="none" stroke="black" points="592.5,-381 592.5,-403 843.5,-403 843.5,-381 592.5,-381"/>
<image xlink:href="../../images/foreignKeys.png" width="11px" height="12px" preserveAspectRatio="xMinYMin meet" x="597.5" y="-398"/>
<text text-anchor="start" x="612.5" y="-389.2" font-family="Helvetica,sans-Serif" font-size="11.00">habitat_type</text>
<polygon fill="none" stroke="black" points="592.5,-359 592.5,-381 843.5,-381 843.5,-359 592.5,-359"/>
<image xlink:href="../../images/foreignKeys.png" width="11px" height="12px" preserveAspectRatio="xMinYMin meet" x="597.5" y="-376"/>
<text text-anchor="start" x="612.5" y="-367.2" font-family="Helvetica,sans-Serif" font-size="11.00">habitat_type_source</text>
<polygon fill="none" stroke="black" points="592.5,-337 592.5,-359 843.5,-359 843.5,-337 592.5,-337"/>
<image xlink:href="../../images/foreignKeys.png" width="11px" height="12px" preserveAspectRatio="xMinYMin meet" x="597.5" y="-354"/>
<text text-anchor="start" x="612.5" y="-345.2" font-family="Helvetica,sans-Serif" font-size="11.00">use_restriction</text>
<polygon fill="none" stroke="black" points="592.5,-315 592.5,-337 843.5,-337 843.5,-315 592.5,-315"/>
<image xlink:href="../../images/foreignKeys.png" width="11px" height="12px" preserveAspectRatio="xMinYMin meet" x="597.5" y="-332"/>
<text text-anchor="start" x="612.5" y="-323.2" font-family="Helvetica,sans-Serif" font-size="11.00">land_use</text>
<polygon fill="none" stroke="black" points="592.5,-293 592.5,-315 843.5,-315 843.5,-293 592.5,-293"/>
<image xlink:href="../../images/foreignKeys.png" width="11px" height="12px" preserveAspectRatio="xMinYMin meet" x="597.5" y="-310"/>
<text text-anchor="start" x="612.5" y="-301.2" font-family="Helvetica,sans-Serif" font-size="11.00">marking_state</text>
<polygon fill="none" stroke="black" points="592.5,-271 592.5,-293 843.5,-293 843.5,-271 592.5,-271"/>
<image xlink:href="../../images/foreignKeys.png" width="11px" height="12px" preserveAspectRatio="xMinYMin meet" x="597.5" y="-288"/>
<text text-anchor="start" x="612.5" y="-279.2" font-family="Helvetica,sans-Serif" font-size="11.00">marking_profile</text>
<polygon fill="none" stroke="black" points="592.5,-249 592.5,-271 843.5,-271 843.5,-249 592.5,-249"/>
<image xlink:href="../../images/foreignKeys.png" width="11px" height="12px" preserveAspectRatio="xMinYMin meet" x="597.5" y="-266"/>
<text text-anchor="start" x="612.5" y="-257.2" font-family="Helvetica,sans-Serif" font-size="11.00">terrain_form</text>
<polygon fill="none" stroke="black" points="592.5,-227 592.5,-249 843.5,-249 843.5,-227 592.5,-227"/>
<image xlink:href="../../images/foreignKeys.png" width="11px" height="12px" preserveAspectRatio="xMinYMin meet" x="597.5" y="-244"/>
<text text-anchor="start" x="612.5" y="-235.2" font-family="Helvetica,sans-Serif" font-size="11.00">management_type</text>
<polygon fill="none" stroke="black" points="592.5,-205 592.5,-227 843.5,-227 843.5,-205 592.5,-205"/>
<image xlink:href="../../images/foreignKeys.png" width="11px" height="12px" preserveAspectRatio="xMinYMin meet" x="597.5" y="-222"/>
<text text-anchor="start" x="612.5" y="-213.2" font-family="Helvetica,sans-Serif" font-size="11.00">harvesting_method</text>
<polygon fill="none" stroke="black" points="592.5,-183 592.5,-205 843.5,-205 843.5,-183 592.5,-183"/>
<image xlink:href="../../images/foreignKeys.png" width="11px" height="12px" preserveAspectRatio="xMinYMin meet" x="597.5" y="-200"/>
<text text-anchor="start" x="612.5" y="-191.2" font-family="Helvetica,sans-Serif" font-size="11.00">layer_type</text>
<polygon fill="none" stroke="black" points="592.5,-161 592.5,-183 843.5,-183 843.5,-161 592.5,-161"/>
<image xlink:href="../../images/foreignKeys.png" width="11px" height="12px" preserveAspectRatio="xMinYMin meet" x="597.5" y="-178"/>
<text text-anchor="start" x="612.5" y="-169.2" font-family="Helvetica,sans-Serif" font-size="11.00">stand_phase</text>
<polygon fill="none" stroke="black" points="592.5,-139 592.5,-161 843.5,-161 843.5,-139 592.5,-139"/>
<image xlink:href="../../images/foreignKeys.png" width="11px" height="12px" preserveAspectRatio="xMinYMin meet" x="597.5" y="-156"/>
<text text-anchor="start" x="612.5" y="-147.2" font-family="Helvetica,sans-Serif" font-size="11.00">sablings_layer</text>
<polygon fill="none" stroke="black" points="592.5,-117 592.5,-139 843.5,-139 843.5,-117 592.5,-117"/>
<image xlink:href="../../images/foreignKeys.png" width="11px" height="12px" preserveAspectRatio="xMinYMin meet" x="597.5" y="-134"/>
<text text-anchor="start" x="612.5" y="-125.2" font-family="Helvetica,sans-Serif" font-size="11.00">trees_less_4meter_mirrored</text>
<polygon fill="none" stroke="black" points="592.5,-95 592.5,-117 843.5,-117 843.5,-95 592.5,-95"/>
<image xlink:href="../../images/foreignKeys.png" width="11px" height="12px" preserveAspectRatio="xMinYMin meet" x="597.5" y="-112"/>
<text text-anchor="start" x="612.5" y="-103.2" font-family="Helvetica,sans-Serif" font-size="11.00">trees_less_4meter_count_factor</text>
<polygon fill="none" stroke="black" points="592.5,-73 592.5,-95 843.5,-95 843.5,-73 592.5,-73"/>
<image xlink:href="../../images/foreignKeys.png" width="11px" height="12px" preserveAspectRatio="xMinYMin meet" x="597.5" y="-90"/>
<text text-anchor="start" x="612.5" y="-81.2" font-family="Helvetica,sans-Serif" font-size="11.00">trees_less_4meter_layer</text>
<polygon fill="none" stroke="black" points="592.5,-55 592.5,-73 843.5,-73 843.5,-55 592.5,-55"/>
<text text-anchor="start" x="595.5" y="-61.2" font-family="Helvetica,sans-Serif" font-size="11.00">...</text>
<polygon fill="#ffffff" stroke="transparent" points="592.5,-37 592.5,-55 843.5,-55 843.5,-37 592.5,-37"/>
<polygon fill="none" stroke="black" points="592.5,-37 592.5,-55 843.5,-55 843.5,-37 592.5,-37"/>
<polygon fill="#ffffff" stroke="transparent" points="593.5,-38 593.5,-54 675.5,-54 675.5,-38 593.5,-38"/>
<text text-anchor="start" x="595.5" y="-43.2" font-family="Helvetica,sans-Serif" font-size="11.00">&lt; 24</text>
<polygon fill="#ffffff" stroke="transparent" points="675.5,-38 675.5,-54 767.5,-54 767.5,-38 675.5,-38"/>
<text text-anchor="start" x="703" y="-43.2" font-family="Helvetica,sans-Serif" font-size="11.00">0 rows</text>
<polygon fill="#ffffff" stroke="transparent" points="767.5,-38 767.5,-54 842.5,-54 842.5,-38 767.5,-38"/>
<text text-anchor="start" x="820.5" y="-43.2" font-family="Helvetica,sans-Serif" font-size="11.00">7 &gt;</text>
<polygon fill="black" stroke="black" points="675.5,-38 675.5,-54 675.5,-54 675.5,-38 675.5,-38"/>
<polygon fill="black" stroke="black" points="767.5,-38 767.5,-54 767.5,-54 767.5,-38 767.5,-38"/>
</a>
</g>
</g>
<!-- lookup_sampling_strata -->
<g id="node2" class="node">
<title>lookup_sampling_strata</title>
<g id="a_node2"><a xlink:href="../../tables/lookup_sampling_strata.html" xlink:title="lookup_sampling_strata" target="_top">
<polygon fill="#ffffff" stroke="transparent" points="8,-537 8,-669 543,-669 543,-537 8,-537"/>
<polygon fill="#f5f5f5" stroke="transparent" points="10.5,-645 10.5,-667 541.5,-667 541.5,-645 10.5,-645"/>
<polygon fill="none" stroke="black" points="10.5,-645 10.5,-667 541.5,-667 541.5,-645 10.5,-645"/>
<text text-anchor="start" x="15.5" y="-654.2" font-family="Helvetica,sans-Serif" font-weight="bold" font-size="11.00">lookup_sampling_strata</text>
<text text-anchor="start" x="499.5" y="-653.2" font-family="Helvetica,sans-Serif" font-size="11.00">[table]</text>
<polygon fill="none" stroke="black" points="10.5,-623 10.5,-645 204.5,-645 204.5,-623 10.5,-623"/>
<text text-anchor="start" x="30.5" y="-631.2" font-family="Helvetica,sans-Serif" font-size="11.00">name_de</text>
<polygon fill="none" stroke="black" points="204.5,-623 204.5,-645 541.5,-645 541.5,-623 204.5,-623"/>
<text text-anchor="start" x="207.5" y="-631.2" font-family="Helvetica,sans-Serif" font-size="11.00">varchar[150]</text>
<polygon fill="none" stroke="black" points="10.5,-601 10.5,-623 204.5,-623 204.5,-601 10.5,-601"/>
<text text-anchor="start" x="30.5" y="-609.2" font-family="Helvetica,sans-Serif" font-size="11.00">name_en</text>
<polygon fill="none" stroke="black" points="204.5,-601 204.5,-623 541.5,-623 541.5,-601 204.5,-601"/>
<text text-anchor="start" x="207.5" y="-609.2" font-family="Helvetica,sans-Serif" font-size="11.00">varchar[150]</text>
<polygon fill="none" stroke="black" points="10.5,-579 10.5,-601 204.5,-601 204.5,-579 10.5,-579"/>
<text text-anchor="start" x="30.5" y="-587.2" font-family="Helvetica,sans-Serif" font-size="11.00">sort</text>
<polygon fill="none" stroke="black" points="204.5,-579 204.5,-601 541.5,-601 541.5,-579 204.5,-579"/>
<text text-anchor="start" x="207.5" y="-587.2" font-family="Helvetica,sans-Serif" font-size="11.00">int4[10]</text>
<polygon fill="#ffffff" stroke="transparent" points="10.5,-557 10.5,-579 204.5,-579 204.5,-557 10.5,-557"/>
<polygon fill="none" stroke="black" points="10.5,-557 10.5,-579 204.5,-579 204.5,-557 10.5,-557"/>
<text text-anchor="start" x="30.5" y="-565.2" font-family="Helvetica,sans-Serif" font-size="11.00">abbreviation</text>
<polygon fill="none" stroke="black" points="204.5,-557 204.5,-579 541.5,-579 541.5,-557 204.5,-557"/>
<text text-anchor="start" x="207.5" y="-565.2" font-family="Helvetica,sans-Serif" font-size="11.00">&quot;private_ci2027_001&quot;.&quot;enum_sampling_strata&quot;[2147483647]</text>
<polygon fill="#ffffff" stroke="transparent" points="10.5,-539 10.5,-557 541.5,-557 541.5,-539 10.5,-539"/>
<polygon fill="none" stroke="black" points="10.5,-539 10.5,-557 541.5,-557 541.5,-539 10.5,-539"/>
<polygon fill="#ffffff" stroke="transparent" points="11.5,-540 11.5,-556 182.5,-556 182.5,-540 11.5,-540"/>
<text text-anchor="start" x="13.5" y="-545.2" font-family="Helvetica,sans-Serif" font-size="11.00">&lt; 0</text>
<polygon fill="#ffffff" stroke="transparent" points="182.5,-540 182.5,-556 370.5,-556 370.5,-540 182.5,-540"/>
<text text-anchor="start" x="258" y="-545.2" font-family="Helvetica,sans-Serif" font-size="11.00">0 rows</text>
<polygon fill="#ffffff" stroke="transparent" points="370.5,-540 370.5,-556 540.5,-556 540.5,-540 370.5,-540"/>
<text text-anchor="start" x="518.5" y="-545.2" font-family="Helvetica,sans-Serif" font-size="11.00">1 &gt;</text>
<polygon fill="black" stroke="black" points="182.5,-540 182.5,-556 182.5,-556 182.5,-540 182.5,-540"/>
<polygon fill="black" stroke="black" points="370.5,-540 370.5,-556 370.5,-556 370.5,-540 370.5,-540"/>
<polygon fill="none" stroke="black" stroke-width="2" points="9,-538 9,-668 542,-668 542,-538 9,-538"/>
</a>
</g>
</g>
<!-- plot&#45;&gt;lookup_sampling_strata -->
<g id="edge1" class="edge">
<title>plot:w&#45;&gt;lookup_sampling_strata:e</title>
<path fill="none" stroke="black" d="M576.99,-568C565.68,-568 558.49,-568 542.5,-568"/>
<polygon fill="black" stroke="black" points="583.5,-568 591.5,-571.6 587.5,-568 591.5,-568 591.5,-568 591.5,-568 587.5,-568 591.5,-564.4 583.5,-568 583.5,-568"/>
<ellipse fill="none" stroke="black" cx="580.3" cy="-568" rx="3.2" ry="3.2"/>
</g>
</g>
</svg>
