<?xml version="1.0" encoding="UTF-8" standalone="no"?>
<!DOCTYPE svg PUBLIC "-//W3C//DTD SVG 1.1//EN"
 "http://www.w3.org/Graphics/SVG/1.1/DTD/svg11.dtd">
<!-- Generated by graphviz version 2.43.0 (0)
 -->
<!-- Title: oneDegreeRelationshipsDiagram Pages: 1 -->
<svg width="1048pt" height="503pt"
 viewBox="0.00 0.00 1048.00 503.00" xmlns="http://www.w3.org/2000/svg" xmlns:xlink="http://www.w3.org/1999/xlink">
<g id="graph0" class="graph" transform="scale(1 1) rotate(0) translate(4 499)">
<title>oneDegreeRelationshipsDiagram</title>
<polygon fill="#ffffff" stroke="transparent" points="-4,4 -4,-499 1044,-499 1044,4 -4,4"/>
<text text-anchor="middle" x="79.5" y="-7.2" font-family="Helvetica,sans-Serif" font-size="11.00">Generated by SchemaSpy</text>
<!-- plot -->
<g id="node1" class="node">
<title>plot</title>
<g id="a_node1"><a xlink:href="../../tables/plot.html" xlink:title="plot" target="_top">
<polygon fill="#ffffff" stroke="transparent" points="744,-37 744,-491 1032,-491 1032,-37 744,-37"/>
<polygon fill="#f5f5f5" stroke="transparent" points="744,-469 744,-491 1032,-491 1032,-469 744,-469"/>
<polygon fill="none" stroke="black" points="744,-469 744,-491 1032,-491 1032,-469 744,-469"/>
<text text-anchor="start" x="748.5" y="-478.2" font-family="Helvetica,sans-Serif" font-weight="bold" font-size="11.00">plot</text>
<text text-anchor="start" x="990" y="-477.2" font-family="Helvetica,sans-Serif" font-size="11.00">[table]</text>
<polygon fill="none" stroke="black" points="744,-447 744,-469 1032,-469 1032,-447 744,-447"/>
<image xlink:href="../../images/primaryKeys.png" width="11px" height="12px" preserveAspectRatio="xMinYMin meet" x="749" y="-464"/>
<text text-anchor="start" x="764" y="-455.2" font-family="Helvetica,sans-Serif" font-size="11.00">id</text>
<polygon fill="#ffffff" stroke="transparent" points="744,-425 744,-447 1032,-447 1032,-425 744,-425"/>
<polygon fill="none" stroke="black" points="744,-425 744,-447 1032,-447 1032,-425 744,-425"/>
<image xlink:href="../../images/foreignKeys.png" width="11px" height="12px" preserveAspectRatio="xMinYMin meet" x="749" y="-442"/>
<text text-anchor="start" x="764" y="-433.2" font-family="Helvetica,sans-Serif" font-size="11.00">cluster_id</text>
<polygon fill="#ffffff" stroke="transparent" points="744,-403 744,-425 1032,-425 1032,-403 744,-403"/>
<polygon fill="none" stroke="black" points="744,-403 744,-425 1032,-425 1032,-403 744,-403"/>
<text text-anchor="start" x="764" y="-411.2" font-family="Helvetica,sans-Serif" font-size="11.00">plot_name</text>
<polygon fill="none" stroke="black" points="744,-381 744,-403 1032,-403 1032,-381 744,-381"/>
<image xlink:href="../../images/foreignKeys.png" width="11px" height="12px" preserveAspectRatio="xMinYMin meet" x="749" y="-398"/>
<text text-anchor="start" x="764" y="-389.2" font-family="Helvetica,sans-Serif" font-size="11.00">growth_district</text>
<polygon fill="none" stroke="black" points="744,-359 744,-381 1032,-381 1032,-359 744,-359"/>
<image xlink:href="../../images/foreignKeys.png" width="11px" height="12px" preserveAspectRatio="xMinYMin meet" x="749" y="-376"/>
<text text-anchor="start" x="764" y="-367.2" font-family="Helvetica,sans-Serif" font-size="11.00">forest_status</text>
<polygon fill="none" stroke="black" points="744,-337 744,-359 1032,-359 1032,-337 744,-337"/>
<image xlink:href="../../images/foreignKeys.png" width="11px" height="12px" preserveAspectRatio="xMinYMin meet" x="749" y="-354"/>
<text text-anchor="start" x="764" y="-345.2" font-family="Helvetica,sans-Serif" font-size="11.00">elevation_level</text>
<polygon fill="none" stroke="black" points="744,-315 744,-337 1032,-337 1032,-315 744,-315"/>
<image xlink:href="../../images/foreignKeys.png" width="11px" height="12px" preserveAspectRatio="xMinYMin meet" x="749" y="-332"/>
<text text-anchor="start" x="764" y="-323.2" font-family="Helvetica,sans-Serif" font-size="11.00">property_type</text>
<polygon fill="none" stroke="black" points="744,-293 744,-315 1032,-315 1032,-293 744,-293"/>
<image xlink:href="../../images/foreignKeys.png" width="11px" height="12px" preserveAspectRatio="xMinYMin meet" x="749" y="-310"/>
<text text-anchor="start" x="764" y="-301.2" font-family="Helvetica,sans-Serif" font-size="11.00">property_size_class</text>
<polygon fill="none" stroke="black" points="744,-271 744,-293 1032,-293 1032,-271 744,-271"/>
<image xlink:href="../../images/foreignKeys.png" width="11px" height="12px" preserveAspectRatio="xMinYMin meet" x="749" y="-288"/>
<text text-anchor="start" x="764" y="-279.2" font-family="Helvetica,sans-Serif" font-size="11.00">land_use_after</text>
<polygon fill="none" stroke="black" points="744,-249 744,-271 1032,-271 1032,-249 744,-249"/>
<image xlink:href="../../images/foreignKeys.png" width="11px" height="12px" preserveAspectRatio="xMinYMin meet" x="749" y="-266"/>
<text text-anchor="start" x="764" y="-257.2" font-family="Helvetica,sans-Serif" font-size="11.00">marker_status</text>
<polygon fill="none" stroke="black" points="744,-227 744,-249 1032,-249 1032,-227 744,-227"/>
<image xlink:href="../../images/foreignKeys.png" width="11px" height="12px" preserveAspectRatio="xMinYMin meet" x="749" y="-244"/>
<text text-anchor="start" x="764" y="-235.2" font-family="Helvetica,sans-Serif" font-size="11.00">marker_profile</text>
<polygon fill="none" stroke="black" points="744,-205 744,-227 1032,-227 1032,-205 744,-205"/>
<image xlink:href="../../images/foreignKeys.png" width="11px" height="12px" preserveAspectRatio="xMinYMin meet" x="749" y="-222"/>
<text text-anchor="start" x="764" y="-213.2" font-family="Helvetica,sans-Serif" font-size="11.00">terrain_form</text>
<polygon fill="none" stroke="black" points="744,-183 744,-205 1032,-205 1032,-183 744,-183"/>
<image xlink:href="../../images/foreignKeys.png" width="11px" height="12px" preserveAspectRatio="xMinYMin meet" x="749" y="-200"/>
<text text-anchor="start" x="764" y="-191.2" font-family="Helvetica,sans-Serif" font-size="11.00">management_type</text>
<polygon fill="none" stroke="black" points="744,-161 744,-183 1032,-183 1032,-161 744,-161"/>
<image xlink:href="../../images/foreignKeys.png" width="11px" height="12px" preserveAspectRatio="xMinYMin meet" x="749" y="-178"/>
<text text-anchor="start" x="764" y="-169.2" font-family="Helvetica,sans-Serif" font-size="11.00">harvesting_method</text>
<polygon fill="none" stroke="black" points="744,-139 744,-161 1032,-161 1032,-139 744,-139"/>
<image xlink:href="../../images/foreignKeys.png" width="11px" height="12px" preserveAspectRatio="xMinYMin meet" x="749" y="-156"/>
<text text-anchor="start" x="764" y="-147.2" font-family="Helvetica,sans-Serif" font-size="11.00">stand_structure</text>
<polygon fill="none" stroke="black" points="744,-117 744,-139 1032,-139 1032,-117 744,-117"/>
<image xlink:href="../../images/foreignKeys.png" width="11px" height="12px" preserveAspectRatio="xMinYMin meet" x="749" y="-134"/>
<text text-anchor="start" x="764" y="-125.2" font-family="Helvetica,sans-Serif" font-size="11.00">stand_dev_phase</text>
<polygon fill="none" stroke="black" points="744,-95 744,-117 1032,-117 1032,-95 744,-95"/>
<image xlink:href="../../images/foreignKeys.png" width="11px" height="12px" preserveAspectRatio="xMinYMin meet" x="749" y="-112"/>
<text text-anchor="start" x="764" y="-103.2" font-family="Helvetica,sans-Serif" font-size="11.00">stand_layer_reg</text>
<polygon fill="none" stroke="black" points="744,-73 744,-95 1032,-95 1032,-73 744,-73"/>
<image xlink:href="../../images/foreignKeys.png" width="11px" height="12px" preserveAspectRatio="xMinYMin meet" x="749" y="-90"/>
<text text-anchor="start" x="764" y="-81.2" font-family="Helvetica,sans-Serif" font-size="11.00">trees_less_4meter_mirrored</text>
<polygon fill="none" stroke="black" points="744,-55 744,-73 1032,-73 1032,-55 744,-55"/>
<text text-anchor="start" x="747" y="-61.2" font-family="Helvetica,sans-Serif" font-size="11.00">...</text>
<polygon fill="#ffffff" stroke="transparent" points="744,-37 744,-55 1032,-55 1032,-37 744,-37"/>
<polygon fill="none" stroke="black" points="744,-37 744,-55 1032,-55 1032,-37 744,-37"/>
<polygon fill="#ffffff" stroke="transparent" points="745,-38 745,-54 840,-54 840,-38 745,-38"/>
<text text-anchor="start" x="747" y="-43.2" font-family="Helvetica,sans-Serif" font-size="11.00">&lt; 16</text>
<polygon fill="#ffffff" stroke="transparent" points="840,-38 840,-54 944,-54 944,-38 840,-38"/>
<text text-anchor="start" x="873.5" y="-43.2" font-family="Helvetica,sans-Serif" font-size="11.00">0 rows</text>
<polygon fill="#ffffff" stroke="transparent" points="944,-38 944,-54 1031,-54 1031,-38 944,-38"/>
<text text-anchor="start" x="1009" y="-43.2" font-family="Helvetica,sans-Serif" font-size="11.00">7 &gt;</text>
<polygon fill="black" stroke="black" points="840,-38 840,-54 840,-54 840,-38 840,-38"/>
<polygon fill="black" stroke="black" points="944,-38 944,-54 944,-54 944,-38 944,-38"/>
</a>
</g>
</g>
<!-- lookup_trees_less_4meter_mirrored -->
<g id="node2" class="node">
<title>lookup_trees_less_4meter_mirrored</title>
<g id="a_node2"><a xlink:href="../../tables/lookup_trees_less_4meter_mirrored.html" xlink:title="lookup_trees_less_4meter_mirrored" target="_top">
<polygon fill="#ffffff" stroke="transparent" points="8,-53 8,-207 695,-207 695,-53 8,-53"/>
<polygon fill="#f5f5f5" stroke="transparent" points="10.5,-183 10.5,-205 693.5,-205 693.5,-183 10.5,-183"/>
<polygon fill="none" stroke="black" points="10.5,-183 10.5,-205 693.5,-205 693.5,-183 10.5,-183"/>
<text text-anchor="start" x="15.5" y="-192.2" font-family="Helvetica,sans-Serif" font-weight="bold" font-size="11.00">lookup_trees_less_4meter_mirrored</text>
<text text-anchor="start" x="651.5" y="-191.2" font-family="Helvetica,sans-Serif" font-size="11.00">[table]</text>
<polygon fill="none" stroke="black" points="10.5,-161 10.5,-183 290.5,-183 290.5,-161 10.5,-161"/>
<text text-anchor="start" x="30.5" y="-169.2" font-family="Helvetica,sans-Serif" font-size="11.00">name_de</text>
<polygon fill="none" stroke="black" points="290.5,-161 290.5,-183 693.5,-183 693.5,-161 290.5,-161"/>
<text text-anchor="start" x="293.5" y="-169.2" font-family="Helvetica,sans-Serif" font-size="11.00">varchar[150]</text>
<polygon fill="none" stroke="black" points="10.5,-139 10.5,-161 290.5,-161 290.5,-139 10.5,-139"/>
<text text-anchor="start" x="30.5" y="-147.2" font-family="Helvetica,sans-Serif" font-size="11.00">name_en</text>
<polygon fill="none" stroke="black" points="290.5,-139 290.5,-161 693.5,-161 693.5,-139 290.5,-139"/>
<text text-anchor="start" x="293.5" y="-147.2" font-family="Helvetica,sans-Serif" font-size="11.00">varchar[150]</text>
<polygon fill="none" stroke="black" points="10.5,-117 10.5,-139 290.5,-139 290.5,-117 10.5,-117"/>
<text text-anchor="start" x="30.5" y="-125.2" font-family="Helvetica,sans-Serif" font-size="11.00">interval</text>
<polygon fill="none" stroke="black" points="290.5,-117 290.5,-139 693.5,-139 693.5,-117 290.5,-117"/>
<text text-anchor="start" x="293.5" y="-125.2" font-family="Helvetica,sans-Serif" font-size="11.00">&quot;private_ci2027_001&quot;.&quot;_enum_interval_name&quot;[2147483647]</text>
<polygon fill="none" stroke="black" points="10.5,-95 10.5,-117 290.5,-117 290.5,-95 10.5,-95"/>
<text text-anchor="start" x="30.5" y="-103.2" font-family="Helvetica,sans-Serif" font-size="11.00">sort</text>
<polygon fill="none" stroke="black" points="290.5,-95 290.5,-117 693.5,-117 693.5,-95 290.5,-95"/>
<text text-anchor="start" x="293.5" y="-103.2" font-family="Helvetica,sans-Serif" font-size="11.00">int4[10]</text>
<polygon fill="#ffffff" stroke="transparent" points="10.5,-73 10.5,-95 290.5,-95 290.5,-73 10.5,-73"/>
<polygon fill="none" stroke="black" points="10.5,-73 10.5,-95 290.5,-95 290.5,-73 10.5,-73"/>
<text text-anchor="start" x="30.5" y="-81.2" font-family="Helvetica,sans-Serif" font-size="11.00">abbreviation</text>
<polygon fill="none" stroke="black" points="290.5,-73 290.5,-95 693.5,-95 693.5,-73 290.5,-73"/>
<text text-anchor="start" x="293.5" y="-81.2" font-family="Helvetica,sans-Serif" font-size="11.00">&quot;private_ci2027_001&quot;.&quot;enum_trees_less_4meter_mirrored&quot;[2147483647]</text>
<polygon fill="#ffffff" stroke="transparent" points="10.5,-55 10.5,-73 693.5,-73 693.5,-55 10.5,-55"/>
<polygon fill="none" stroke="black" points="10.5,-55 10.5,-73 693.5,-73 693.5,-55 10.5,-55"/>
<polygon fill="#ffffff" stroke="transparent" points="11.5,-56 11.5,-72 233.5,-72 233.5,-56 11.5,-56"/>
<text text-anchor="start" x="13.5" y="-61.2" font-family="Helvetica,sans-Serif" font-size="11.00">&lt; 0</text>
<polygon fill="#ffffff" stroke="transparent" points="233.5,-56 233.5,-72 471.5,-72 471.5,-56 233.5,-56"/>
<text text-anchor="start" x="334" y="-61.2" font-family="Helvetica,sans-Serif" font-size="11.00">0 rows</text>
<polygon fill="#ffffff" stroke="transparent" points="471.5,-56 471.5,-72 692.5,-72 692.5,-56 471.5,-56"/>
<text text-anchor="start" x="670.5" y="-61.2" font-family="Helvetica,sans-Serif" font-size="11.00">1 &gt;</text>
<polygon fill="black" stroke="black" points="233.5,-56 233.5,-72 233.5,-72 233.5,-56 233.5,-56"/>
<polygon fill="black" stroke="black" points="471.5,-56 471.5,-72 471.5,-72 471.5,-56 471.5,-56"/>
<polygon fill="none" stroke="black" stroke-width="2" points="9,-54 9,-206 694,-206 694,-54 9,-54"/>
</a>
</g>
</g>
<!-- plot&#45;&gt;lookup_trees_less_4meter_mirrored -->
<g id="edge1" class="edge">
<title>plot:w&#45;&gt;lookup_trees_less_4meter_mirrored:e</title>
<path fill="none" stroke="black" d="M728.28,-84C717.29,-84 710.16,-84 694.5,-84"/>
<polygon fill="black" stroke="black" points="735,-84 743,-87.6 739,-84 743,-84 743,-84 743,-84 739,-84 743,-80.4 735,-84 735,-84"/>
<ellipse fill="none" stroke="black" cx="731.8" cy="-84" rx="3.2" ry="3.2"/>
</g>
</g>
</svg>
