<?xml version="1.0" encoding="UTF-8" standalone="no"?>
<!DOCTYPE svg PUBLIC "-//W3C//DTD SVG 1.1//EN"
 "http://www.w3.org/Graphics/SVG/1.1/DTD/svg11.dtd">
<!-- Generated by graphviz version 2.43.0 (0)
 -->
<!-- Title: oneDegreeRelationshipsDiagram Pages: 1 -->
<svg width="888pt" height="679pt"
 viewBox="0.00 0.00 888.00 679.00" xmlns="http://www.w3.org/2000/svg" xmlns:xlink="http://www.w3.org/1999/xlink">
<g id="graph0" class="graph" transform="scale(1 1) rotate(0) translate(4 675)">
<title>oneDegreeRelationshipsDiagram</title>
<polygon fill="#ffffff" stroke="transparent" points="-4,4 -4,-675 884,-675 884,4 -4,4"/>
<text text-anchor="middle" x="79.5" y="-7.2" font-family="Helvetica,sans-Serif" font-size="11.00">Generated by SchemaSpy</text>
<!-- plot -->
<g id="node1" class="node">
<title>plot</title>
<g id="a_node1"><a xlink:href="../../tables/plot.html" xlink:title="plot" target="_top">
<polygon fill="#ffffff" stroke="transparent" points="621,-37 621,-667 872,-667 872,-37 621,-37"/>
<polygon fill="#f5f5f5" stroke="transparent" points="621.5,-645 621.5,-667 872.5,-667 872.5,-645 621.5,-645"/>
<polygon fill="none" stroke="black" points="621.5,-645 621.5,-667 872.5,-667 872.5,-645 621.5,-645"/>
<text text-anchor="start" x="626" y="-654.2" font-family="Helvetica,sans-Serif" font-weight="bold" font-size="11.00">plot</text>
<text text-anchor="start" x="830.5" y="-653.2" font-family="Helvetica,sans-Serif" font-size="11.00">[table]</text>
<polygon fill="none" stroke="black" points="621.5,-623 621.5,-645 872.5,-645 872.5,-623 621.5,-623"/>
<image xlink:href="../../images/primaryKeys.png" width="11px" height="12px" preserveAspectRatio="xMinYMin meet" x="626.5" y="-640"/>
<text text-anchor="start" x="641.5" y="-631.2" font-family="Helvetica,sans-Serif" font-size="11.00">id</text>
<polygon fill="#ffffff" stroke="transparent" points="621.5,-601 621.5,-623 872.5,-623 872.5,-601 621.5,-601"/>
<polygon fill="none" stroke="black" points="621.5,-601 621.5,-623 872.5,-623 872.5,-601 621.5,-601"/>
<image xlink:href="../../images/foreignKeys.png" width="11px" height="12px" preserveAspectRatio="xMinYMin meet" x="626.5" y="-618"/>
<text text-anchor="start" x="641.5" y="-609.2" font-family="Helvetica,sans-Serif" font-size="11.00">cluster_id</text>
<polygon fill="#ffffff" stroke="transparent" points="621.5,-579 621.5,-601 872.5,-601 872.5,-579 621.5,-579"/>
<polygon fill="none" stroke="black" points="621.5,-579 621.5,-601 872.5,-601 872.5,-579 621.5,-579"/>
<text text-anchor="start" x="641.5" y="-587.2" font-family="Helvetica,sans-Serif" font-size="11.00">plot_name</text>
<polygon fill="none" stroke="black" points="621.5,-557 621.5,-579 872.5,-579 872.5,-557 621.5,-557"/>
<image xlink:href="../../images/foreignKeys.png" width="11px" height="12px" preserveAspectRatio="xMinYMin meet" x="626.5" y="-574"/>
<text text-anchor="start" x="641.5" y="-565.2" font-family="Helvetica,sans-Serif" font-size="11.00">sampling_strata</text>
<polygon fill="none" stroke="black" points="621.5,-535 621.5,-557 872.5,-557 872.5,-535 621.5,-535"/>
<image xlink:href="../../images/foreignKeys.png" width="11px" height="12px" preserveAspectRatio="xMinYMin meet" x="626.5" y="-552"/>
<text text-anchor="start" x="641.5" y="-543.2" font-family="Helvetica,sans-Serif" font-size="11.00">growth_district</text>
<polygon fill="none" stroke="black" points="621.5,-513 621.5,-535 872.5,-535 872.5,-513 621.5,-513"/>
<image xlink:href="../../images/foreignKeys.png" width="11px" height="12px" preserveAspectRatio="xMinYMin meet" x="626.5" y="-530"/>
<text text-anchor="start" x="641.5" y="-521.2" font-family="Helvetica,sans-Serif" font-size="11.00">forest_decision</text>
<polygon fill="none" stroke="black" points="621.5,-491 621.5,-513 872.5,-513 872.5,-491 621.5,-491"/>
<image xlink:href="../../images/foreignKeys.png" width="11px" height="12px" preserveAspectRatio="xMinYMin meet" x="626.5" y="-508"/>
<text text-anchor="start" x="641.5" y="-499.2" font-family="Helvetica,sans-Serif" font-size="11.00">forestry_department</text>
<polygon fill="none" stroke="black" points="621.5,-469 621.5,-491 872.5,-491 872.5,-469 621.5,-469"/>
<image xlink:href="../../images/foreignKeys.png" width="11px" height="12px" preserveAspectRatio="xMinYMin meet" x="626.5" y="-486"/>
<text text-anchor="start" x="641.5" y="-477.2" font-family="Helvetica,sans-Serif" font-size="11.00">height_layer_class</text>
<polygon fill="none" stroke="black" points="621.5,-447 621.5,-469 872.5,-469 872.5,-447 621.5,-447"/>
<image xlink:href="../../images/foreignKeys.png" width="11px" height="12px" preserveAspectRatio="xMinYMin meet" x="626.5" y="-464"/>
<text text-anchor="start" x="641.5" y="-455.2" font-family="Helvetica,sans-Serif" font-size="11.00">property_type</text>
<polygon fill="none" stroke="black" points="621.5,-425 621.5,-447 872.5,-447 872.5,-425 621.5,-425"/>
<image xlink:href="../../images/foreignKeys.png" width="11px" height="12px" preserveAspectRatio="xMinYMin meet" x="626.5" y="-442"/>
<text text-anchor="start" x="641.5" y="-433.2" font-family="Helvetica,sans-Serif" font-size="11.00">property_size_class</text>
<polygon fill="none" stroke="black" points="621.5,-403 621.5,-425 872.5,-425 872.5,-403 621.5,-403"/>
<image xlink:href="../../images/foreignKeys.png" width="11px" height="12px" preserveAspectRatio="xMinYMin meet" x="626.5" y="-420"/>
<text text-anchor="start" x="641.5" y="-411.2" font-family="Helvetica,sans-Serif" font-size="11.00">forest_type</text>
<polygon fill="none" stroke="black" points="621.5,-381 621.5,-403 872.5,-403 872.5,-381 621.5,-381"/>
<image xlink:href="../../images/foreignKeys.png" width="11px" height="12px" preserveAspectRatio="xMinYMin meet" x="626.5" y="-398"/>
<text text-anchor="start" x="641.5" y="-389.2" font-family="Helvetica,sans-Serif" font-size="11.00">habitat_type</text>
<polygon fill="none" stroke="black" points="621.5,-359 621.5,-381 872.5,-381 872.5,-359 621.5,-359"/>
<image xlink:href="../../images/foreignKeys.png" width="11px" height="12px" preserveAspectRatio="xMinYMin meet" x="626.5" y="-376"/>
<text text-anchor="start" x="641.5" y="-367.2" font-family="Helvetica,sans-Serif" font-size="11.00">habitat_type_source</text>
<polygon fill="none" stroke="black" points="621.5,-337 621.5,-359 872.5,-359 872.5,-337 621.5,-337"/>
<image xlink:href="../../images/foreignKeys.png" width="11px" height="12px" preserveAspectRatio="xMinYMin meet" x="626.5" y="-354"/>
<text text-anchor="start" x="641.5" y="-345.2" font-family="Helvetica,sans-Serif" font-size="11.00">use_restriction</text>
<polygon fill="none" stroke="black" points="621.5,-315 621.5,-337 872.5,-337 872.5,-315 621.5,-315"/>
<image xlink:href="../../images/foreignKeys.png" width="11px" height="12px" preserveAspectRatio="xMinYMin meet" x="626.5" y="-332"/>
<text text-anchor="start" x="641.5" y="-323.2" font-family="Helvetica,sans-Serif" font-size="11.00">land_use</text>
<polygon fill="none" stroke="black" points="621.5,-293 621.5,-315 872.5,-315 872.5,-293 621.5,-293"/>
<image xlink:href="../../images/foreignKeys.png" width="11px" height="12px" preserveAspectRatio="xMinYMin meet" x="626.5" y="-310"/>
<text text-anchor="start" x="641.5" y="-301.2" font-family="Helvetica,sans-Serif" font-size="11.00">marking_state</text>
<polygon fill="none" stroke="black" points="621.5,-271 621.5,-293 872.5,-293 872.5,-271 621.5,-271"/>
<image xlink:href="../../images/foreignKeys.png" width="11px" height="12px" preserveAspectRatio="xMinYMin meet" x="626.5" y="-288"/>
<text text-anchor="start" x="641.5" y="-279.2" font-family="Helvetica,sans-Serif" font-size="11.00">marking_profile</text>
<polygon fill="none" stroke="black" points="621.5,-249 621.5,-271 872.5,-271 872.5,-249 621.5,-249"/>
<image xlink:href="../../images/foreignKeys.png" width="11px" height="12px" preserveAspectRatio="xMinYMin meet" x="626.5" y="-266"/>
<text text-anchor="start" x="641.5" y="-257.2" font-family="Helvetica,sans-Serif" font-size="11.00">terrain_form</text>
<polygon fill="none" stroke="black" points="621.5,-227 621.5,-249 872.5,-249 872.5,-227 621.5,-227"/>
<image xlink:href="../../images/foreignKeys.png" width="11px" height="12px" preserveAspectRatio="xMinYMin meet" x="626.5" y="-244"/>
<text text-anchor="start" x="641.5" y="-235.2" font-family="Helvetica,sans-Serif" font-size="11.00">management_type</text>
<polygon fill="none" stroke="black" points="621.5,-205 621.5,-227 872.5,-227 872.5,-205 621.5,-205"/>
<image xlink:href="../../images/foreignKeys.png" width="11px" height="12px" preserveAspectRatio="xMinYMin meet" x="626.5" y="-222"/>
<text text-anchor="start" x="641.5" y="-213.2" font-family="Helvetica,sans-Serif" font-size="11.00">harvesting_method</text>
<polygon fill="none" stroke="black" points="621.5,-183 621.5,-205 872.5,-205 872.5,-183 621.5,-183"/>
<image xlink:href="../../images/foreignKeys.png" width="11px" height="12px" preserveAspectRatio="xMinYMin meet" x="626.5" y="-200"/>
<text text-anchor="start" x="641.5" y="-191.2" font-family="Helvetica,sans-Serif" font-size="11.00">layer_type</text>
<polygon fill="none" stroke="black" points="621.5,-161 621.5,-183 872.5,-183 872.5,-161 621.5,-161"/>
<image xlink:href="../../images/foreignKeys.png" width="11px" height="12px" preserveAspectRatio="xMinYMin meet" x="626.5" y="-178"/>
<text text-anchor="start" x="641.5" y="-169.2" font-family="Helvetica,sans-Serif" font-size="11.00">stand_phase</text>
<polygon fill="none" stroke="black" points="621.5,-139 621.5,-161 872.5,-161 872.5,-139 621.5,-139"/>
<image xlink:href="../../images/foreignKeys.png" width="11px" height="12px" preserveAspectRatio="xMinYMin meet" x="626.5" y="-156"/>
<text text-anchor="start" x="641.5" y="-147.2" font-family="Helvetica,sans-Serif" font-size="11.00">sablings_layer</text>
<polygon fill="none" stroke="black" points="621.5,-117 621.5,-139 872.5,-139 872.5,-117 621.5,-117"/>
<image xlink:href="../../images/foreignKeys.png" width="11px" height="12px" preserveAspectRatio="xMinYMin meet" x="626.5" y="-134"/>
<text text-anchor="start" x="641.5" y="-125.2" font-family="Helvetica,sans-Serif" font-size="11.00">trees_less_4meter_mirrored</text>
<polygon fill="none" stroke="black" points="621.5,-95 621.5,-117 872.5,-117 872.5,-95 621.5,-95"/>
<image xlink:href="../../images/foreignKeys.png" width="11px" height="12px" preserveAspectRatio="xMinYMin meet" x="626.5" y="-112"/>
<text text-anchor="start" x="641.5" y="-103.2" font-family="Helvetica,sans-Serif" font-size="11.00">trees_less_4meter_count_factor</text>
<polygon fill="none" stroke="black" points="621.5,-73 621.5,-95 872.5,-95 872.5,-73 621.5,-73"/>
<image xlink:href="../../images/foreignKeys.png" width="11px" height="12px" preserveAspectRatio="xMinYMin meet" x="626.5" y="-90"/>
<text text-anchor="start" x="641.5" y="-81.2" font-family="Helvetica,sans-Serif" font-size="11.00">trees_less_4meter_layer</text>
<polygon fill="none" stroke="black" points="621.5,-55 621.5,-73 872.5,-73 872.5,-55 621.5,-55"/>
<text text-anchor="start" x="624.5" y="-61.2" font-family="Helvetica,sans-Serif" font-size="11.00">...</text>
<polygon fill="#ffffff" stroke="transparent" points="621.5,-37 621.5,-55 872.5,-55 872.5,-37 621.5,-37"/>
<polygon fill="none" stroke="black" points="621.5,-37 621.5,-55 872.5,-55 872.5,-37 621.5,-37"/>
<polygon fill="#ffffff" stroke="transparent" points="622.5,-38 622.5,-54 702.5,-54 702.5,-38 622.5,-38"/>
<text text-anchor="start" x="624.5" y="-43.2" font-family="Helvetica,sans-Serif" font-size="11.00">&lt; 24</text>
<polygon fill="#ffffff" stroke="transparent" points="702.5,-38 702.5,-54 799.5,-54 799.5,-38 702.5,-38"/>
<text text-anchor="start" x="729" y="-43.2" font-family="Helvetica,sans-Serif" font-size="11.00">82 rows</text>
<polygon fill="#ffffff" stroke="transparent" points="799.5,-38 799.5,-54 871.5,-54 871.5,-38 799.5,-38"/>
<text text-anchor="start" x="849.5" y="-43.2" font-family="Helvetica,sans-Serif" font-size="11.00">7 &gt;</text>
<polygon fill="black" stroke="black" points="702.5,-38 702.5,-54 702.5,-54 702.5,-38 702.5,-38"/>
<polygon fill="black" stroke="black" points="799.5,-38 799.5,-54 799.5,-54 799.5,-38 799.5,-38"/>
</a>
</g>
</g>
<!-- lookup_height_layer_class -->
<g id="node2" class="node">
<title>lookup_height_layer_class</title>
<g id="a_node2"><a xlink:href="../../tables/lookup_height_layer_class.html" xlink:title="lookup_height_layer_class" target="_top">
<polygon fill="#ffffff" stroke="transparent" points="8,-449 8,-581 572,-581 572,-449 8,-449"/>
<polygon fill="#f5f5f5" stroke="transparent" points="10,-557 10,-579 570,-579 570,-557 10,-557"/>
<polygon fill="none" stroke="black" points="10,-557 10,-579 570,-579 570,-557 10,-557"/>
<text text-anchor="start" x="15" y="-566.2" font-family="Helvetica,sans-Serif" font-weight="bold" font-size="11.00">lookup_height_layer_class</text>
<text text-anchor="start" x="528" y="-565.2" font-family="Helvetica,sans-Serif" font-size="11.00">[table]</text>
<polygon fill="none" stroke="black" points="10,-535 10,-557 220,-557 220,-535 10,-535"/>
<text text-anchor="start" x="30" y="-543.2" font-family="Helvetica,sans-Serif" font-size="11.00">name_de</text>
<polygon fill="none" stroke="black" points="220,-535 220,-557 570,-557 570,-535 220,-535"/>
<text text-anchor="start" x="223" y="-543.2" font-family="Helvetica,sans-Serif" font-size="11.00">varchar[150]</text>
<polygon fill="none" stroke="black" points="10,-513 10,-535 220,-535 220,-513 10,-513"/>
<text text-anchor="start" x="30" y="-521.2" font-family="Helvetica,sans-Serif" font-size="11.00">name_en</text>
<polygon fill="none" stroke="black" points="220,-513 220,-535 570,-535 570,-513 220,-513"/>
<text text-anchor="start" x="223" y="-521.2" font-family="Helvetica,sans-Serif" font-size="11.00">varchar[150]</text>
<polygon fill="none" stroke="black" points="10,-491 10,-513 220,-513 220,-491 10,-491"/>
<text text-anchor="start" x="30" y="-499.2" font-family="Helvetica,sans-Serif" font-size="11.00">sort</text>
<polygon fill="none" stroke="black" points="220,-491 220,-513 570,-513 570,-491 220,-491"/>
<text text-anchor="start" x="223" y="-499.2" font-family="Helvetica,sans-Serif" font-size="11.00">int4[10]</text>
<polygon fill="#ffffff" stroke="transparent" points="10,-469 10,-491 220,-491 220,-469 10,-469"/>
<polygon fill="none" stroke="black" points="10,-469 10,-491 220,-491 220,-469 10,-469"/>
<text text-anchor="start" x="30" y="-477.2" font-family="Helvetica,sans-Serif" font-size="11.00">abbreviation</text>
<polygon fill="none" stroke="black" points="220,-469 220,-491 570,-491 570,-469 220,-469"/>
<text text-anchor="start" x="223" y="-477.2" font-family="Helvetica,sans-Serif" font-size="11.00">&quot;private_ci2027_001&quot;.&quot;enum_height_layer_class&quot;[2147483647]</text>
<polygon fill="#ffffff" stroke="transparent" points="10,-451 10,-469 570,-469 570,-451 10,-451"/>
<polygon fill="none" stroke="black" points="10,-451 10,-469 570,-469 570,-451 10,-451"/>
<polygon fill="#ffffff" stroke="transparent" points="11,-452 11,-468 192,-468 192,-452 11,-452"/>
<text text-anchor="start" x="13" y="-457.2" font-family="Helvetica,sans-Serif" font-size="11.00">&lt; 0</text>
<polygon fill="#ffffff" stroke="transparent" points="192,-452 192,-468 389,-468 389,-452 192,-452"/>
<text text-anchor="start" x="272" y="-457.2" font-family="Helvetica,sans-Serif" font-size="11.00">0 rows</text>
<polygon fill="#ffffff" stroke="transparent" points="389,-452 389,-468 569,-468 569,-452 389,-452"/>
<text text-anchor="start" x="547" y="-457.2" font-family="Helvetica,sans-Serif" font-size="11.00">1 &gt;</text>
<polygon fill="black" stroke="black" points="192,-452 192,-468 192,-468 192,-452 192,-452"/>
<polygon fill="black" stroke="black" points="389,-452 389,-468 389,-468 389,-452 389,-452"/>
<polygon fill="none" stroke="black" stroke-width="2" points="9,-450 9,-580 571,-580 571,-450 9,-450"/>
</a>
</g>
</g>
<!-- plot&#45;&gt;lookup_height_layer_class -->
<g id="edge1" class="edge">
<title>plot:w&#45;&gt;lookup_height_layer_class:e</title>
<path fill="none" stroke="black" d="M605.84,-480C594.41,-480 587.16,-480 571,-480"/>
<polygon fill="black" stroke="black" points="612.5,-480 620.5,-483.6 616.5,-480 620.5,-480 620.5,-480 620.5,-480 616.5,-480 620.5,-476.4 612.5,-480 612.5,-480"/>
<ellipse fill="none" stroke="black" cx="609.3" cy="-480" rx="3.2" ry="3.2"/>
</g>
</g>
</svg>
