<?xml version="1.0" encoding="UTF-8" standalone="no"?>
<!DOCTYPE svg PUBLIC "-//W3C//DTD SVG 1.1//EN"
 "http://www.w3.org/Graphics/SVG/1.1/DTD/svg11.dtd">
<!-- Generated by graphviz version 2.43.0 (0)
 -->
<!-- Title: twoDegreesRelationshipsDiagram Pages: 1 -->
<svg width="1136pt" height="940pt"
 viewBox="0.00 0.00 1136.00 939.92" xmlns="http://www.w3.org/2000/svg" xmlns:xlink="http://www.w3.org/1999/xlink">
<g id="graph0" class="graph" transform="scale(1 1) rotate(0) translate(4 935.92)">
<title>twoDegreesRelationshipsDiagram</title>
<polygon fill="#ffffff" stroke="transparent" points="-4,4 -4,-935.92 1132,-935.92 1132,4 -4,4"/>
<text text-anchor="middle" x="79.5" y="-7.2" font-family="Helvetica,sans-Serif" font-size="11.00">Generated by SchemaSpy</text>
<!-- plot -->
<g id="node1" class="node">
<title>plot</title>
<g id="a_node1"><a xlink:href="../../tables/plot.html" xlink:title="plot" target="_top">
<polygon fill="#ffffff" stroke="transparent" points="244,-743.98 244,-801.98 342,-801.98 342,-743.98 244,-743.98"/>
<polygon fill="#f5f5f5" stroke="transparent" points="244,-779.98 244,-801.98 342,-801.98 342,-779.98 244,-779.98"/>
<polygon fill="none" stroke="black" points="244,-779.98 244,-801.98 342,-801.98 342,-779.98 244,-779.98"/>
<text text-anchor="start" x="248.5" y="-789.18" font-family="Helvetica,sans-Serif" font-weight="bold" font-size="11.00">plot</text>
<text text-anchor="start" x="300" y="-788.18" font-family="Helvetica,sans-Serif" font-size="11.00">[table]</text>
<polygon fill="none" stroke="black" points="244,-761.98 244,-779.98 342,-779.98 342,-761.98 244,-761.98"/>
<text text-anchor="start" x="247" y="-768.18" font-family="Helvetica,sans-Serif" font-size="11.00">...</text>
<polygon fill="#ffffff" stroke="transparent" points="244,-743.98 244,-761.98 342,-761.98 342,-743.98 244,-743.98"/>
<polygon fill="none" stroke="black" points="244,-743.98 244,-761.98 342,-761.98 342,-743.98 244,-743.98"/>
<polygon fill="#ffffff" stroke="transparent" points="245,-744.98 245,-760.98 276,-760.98 276,-744.98 245,-744.98"/>
<text text-anchor="start" x="247" y="-750.18" font-family="Helvetica,sans-Serif" font-size="11.00">&lt; 16</text>
<polygon fill="#ffffff" stroke="transparent" points="276,-744.98 276,-760.98 317,-760.98 317,-744.98 276,-744.98"/>
<text text-anchor="start" x="278" y="-750.18" font-family="Helvetica,sans-Serif" font-size="11.00">0 rows</text>
<polygon fill="#ffffff" stroke="transparent" points="317,-744.98 317,-760.98 341,-760.98 341,-744.98 317,-744.98"/>
<text text-anchor="start" x="319" y="-750.18" font-family="Helvetica,sans-Serif" font-size="11.00">7 &gt;</text>
<polygon fill="black" stroke="black" points="276,-744.98 276,-760.98 276,-760.98 276,-744.98 276,-744.98"/>
<polygon fill="black" stroke="black" points="317,-744.98 317,-760.98 317,-760.98 317,-744.98 317,-744.98"/>
</a>
</g>
</g>
<!-- lookup_stand_layer -->
<g id="node2" class="node">
<title>lookup_stand_layer</title>
<g id="a_node2"><a xlink:href="../../tables/lookup_stand_layer.html" xlink:title="lookup_stand_layer" target="_top">
<polygon fill="#ffffff" stroke="transparent" points="8,-391.98 8,-449.98 195,-449.98 195,-391.98 8,-391.98"/>
<polygon fill="#f5f5f5" stroke="transparent" points="8.5,-427.98 8.5,-449.98 195.5,-449.98 195.5,-427.98 8.5,-427.98"/>
<polygon fill="none" stroke="black" points="8.5,-427.98 8.5,-449.98 195.5,-449.98 195.5,-427.98 8.5,-427.98"/>
<text text-anchor="start" x="13.5" y="-437.18" font-family="Helvetica,sans-Serif" font-weight="bold" font-size="11.00">lookup_stand_layer</text>
<text text-anchor="start" x="153.5" y="-436.18" font-family="Helvetica,sans-Serif" font-size="11.00">[table]</text>
<polygon fill="none" stroke="black" points="8.5,-409.98 8.5,-427.98 195.5,-427.98 195.5,-409.98 8.5,-409.98"/>
<text text-anchor="start" x="11.5" y="-416.18" font-family="Helvetica,sans-Serif" font-size="11.00">...</text>
<polygon fill="#ffffff" stroke="transparent" points="8.5,-391.98 8.5,-409.98 195.5,-409.98 195.5,-391.98 8.5,-391.98"/>
<polygon fill="none" stroke="black" points="8.5,-391.98 8.5,-409.98 195.5,-409.98 195.5,-391.98 8.5,-391.98"/>
<polygon fill="#ffffff" stroke="transparent" points="9.5,-392.98 9.5,-408.98 57.5,-408.98 57.5,-392.98 9.5,-392.98"/>
<text text-anchor="start" x="11.5" y="-398.18" font-family="Helvetica,sans-Serif" font-size="11.00"> &#160;</text>
<polygon fill="#ffffff" stroke="transparent" points="57.5,-392.98 57.5,-408.98 134.5,-408.98 134.5,-392.98 57.5,-392.98"/>
<text text-anchor="start" x="77.5" y="-398.18" font-family="Helvetica,sans-Serif" font-size="11.00">0 rows</text>
<polygon fill="#ffffff" stroke="transparent" points="134.5,-392.98 134.5,-408.98 194.5,-408.98 194.5,-392.98 134.5,-392.98"/>
<text text-anchor="start" x="172.5" y="-398.18" font-family="Helvetica,sans-Serif" font-size="11.00">2 &gt;</text>
<polygon fill="black" stroke="black" points="57.5,-392.98 57.5,-408.98 57.5,-408.98 57.5,-392.98 57.5,-392.98"/>
<polygon fill="black" stroke="black" points="134.5,-392.98 134.5,-408.98 134.5,-408.98 134.5,-392.98 134.5,-392.98"/>
</a>
</g>
</g>
<!-- plot&#45;&gt;lookup_stand_layer -->
<g id="edge1" class="edge">
<title>plot:w&#45;&gt;lookup_stand_layer:e</title>
<path fill="none" stroke="black" d="M228.28,-769.77C103.09,-747.33 348.91,-418.98 196.5,-418.98"/>
<polygon fill="black" stroke="black" points="235.03,-770.32 242.71,-774.56 239.01,-770.65 243,-770.98 243,-770.98 243,-770.98 239.01,-770.65 243.29,-767.39 235.03,-770.32 235.03,-770.32"/>
<ellipse fill="none" stroke="black" cx="231.84" cy="-770.06" rx="3.2" ry="3.2"/>
</g>
<!-- plot_location -->
<g id="node3" class="node">
<title>plot_location</title>
<g id="a_node3"><a xlink:href="../../tables/plot_location.html" xlink:title="plot_location" target="_top">
<polygon fill="#ffffff" stroke="transparent" points="573,-794.98 573,-852.98 714,-852.98 714,-794.98 573,-794.98"/>
<polygon fill="#f5f5f5" stroke="transparent" points="573.5,-830.98 573.5,-852.98 714.5,-852.98 714.5,-830.98 573.5,-830.98"/>
<polygon fill="none" stroke="black" points="573.5,-830.98 573.5,-852.98 714.5,-852.98 714.5,-830.98 573.5,-830.98"/>
<text text-anchor="start" x="578.5" y="-840.18" font-family="Helvetica,sans-Serif" font-weight="bold" font-size="11.00">plot_location</text>
<text text-anchor="start" x="672.5" y="-839.18" font-family="Helvetica,sans-Serif" font-size="11.00">[table]</text>
<polygon fill="none" stroke="black" points="573.5,-812.98 573.5,-830.98 714.5,-830.98 714.5,-812.98 573.5,-812.98"/>
<text text-anchor="start" x="576.5" y="-819.18" font-family="Helvetica,sans-Serif" font-size="11.00">...</text>
<polygon fill="#ffffff" stroke="transparent" points="573.5,-794.98 573.5,-812.98 714.5,-812.98 714.5,-794.98 573.5,-794.98"/>
<polygon fill="none" stroke="black" points="573.5,-794.98 573.5,-812.98 714.5,-812.98 714.5,-794.98 573.5,-794.98"/>
<polygon fill="#ffffff" stroke="transparent" points="574.5,-795.98 574.5,-811.98 615.5,-811.98 615.5,-795.98 574.5,-795.98"/>
<text text-anchor="start" x="576.5" y="-801.18" font-family="Helvetica,sans-Serif" font-size="11.00">&lt; 1</text>
<polygon fill="#ffffff" stroke="transparent" points="615.5,-795.98 615.5,-811.98 673.5,-811.98 673.5,-795.98 615.5,-795.98"/>
<text text-anchor="start" x="626" y="-801.18" font-family="Helvetica,sans-Serif" font-size="11.00">0 rows</text>
<polygon fill="#ffffff" stroke="transparent" points="673.5,-795.98 673.5,-811.98 713.5,-811.98 713.5,-795.98 673.5,-795.98"/>
<text text-anchor="start" x="691.5" y="-801.18" font-family="Helvetica,sans-Serif" font-size="11.00">3 &gt;</text>
<polygon fill="black" stroke="black" points="615.5,-795.98 615.5,-811.98 615.5,-811.98 615.5,-795.98 615.5,-795.98"/>
<polygon fill="black" stroke="black" points="673.5,-795.98 673.5,-811.98 673.5,-811.98 673.5,-795.98 673.5,-795.98"/>
</a>
</g>
</g>
<!-- plot_location&#45;&gt;plot -->
<g id="edge2" class="edge">
<title>plot_location:w&#45;&gt;plot:e</title>
<path fill="none" stroke="black" d="M558.01,-821.76C483.83,-819.47 462,-799.39 383,-780.98 365.15,-776.82 361.32,-770.98 343,-770.98"/>
<polygon fill="black" stroke="black" points="564.5,-821.86 572.45,-825.58 568.5,-821.92 572.5,-821.98 572.5,-821.98 572.5,-821.98 568.5,-821.92 572.55,-818.38 564.5,-821.86 564.5,-821.86"/>
<ellipse fill="none" stroke="black" cx="561.3" cy="-821.81" rx="3.2" ry="3.2"/>
</g>
<!-- regeneration -->
<g id="node4" class="node">
<title>regeneration</title>
<g id="a_node4"><a xlink:href="../../tables/regeneration.html" xlink:title="regeneration" target="_top">
<polygon fill="#ffffff" stroke="transparent" points="945,-532.98 945,-722.98 1120,-722.98 1120,-532.98 945,-532.98"/>
<polygon fill="#f5f5f5" stroke="transparent" points="945.5,-700.98 945.5,-722.98 1120.5,-722.98 1120.5,-700.98 945.5,-700.98"/>
<polygon fill="none" stroke="black" points="945.5,-700.98 945.5,-722.98 1120.5,-722.98 1120.5,-700.98 945.5,-700.98"/>
<text text-anchor="start" x="950.5" y="-710.18" font-family="Helvetica,sans-Serif" font-weight="bold" font-size="11.00">regeneration</text>
<text text-anchor="start" x="1078.5" y="-709.18" font-family="Helvetica,sans-Serif" font-size="11.00">[table]</text>
<polygon fill="none" stroke="black" points="945.5,-678.98 945.5,-700.98 1120.5,-700.98 1120.5,-678.98 945.5,-678.98"/>
<image xlink:href="../../images/primaryKeys.png" width="11px" height="12px" preserveAspectRatio="xMinYMin meet" x="950.5" y="-695.977"/>
<text text-anchor="start" x="965.5" y="-687.18" font-family="Helvetica,sans-Serif" font-size="11.00">id</text>
<polygon fill="none" stroke="black" points="945.5,-656.98 945.5,-678.98 1120.5,-678.98 1120.5,-656.98 945.5,-656.98"/>
<image xlink:href="../../images/foreignKeys.png" width="11px" height="12px" preserveAspectRatio="xMinYMin meet" x="950.5" y="-673.977"/>
<text text-anchor="start" x="965.5" y="-665.18" font-family="Helvetica,sans-Serif" font-size="11.00">plot_id</text>
<polygon fill="none" stroke="black" points="945.5,-634.98 945.5,-656.98 1120.5,-656.98 1120.5,-634.98 945.5,-634.98"/>
<image xlink:href="../../images/foreignKeys.png" width="11px" height="12px" preserveAspectRatio="xMinYMin meet" x="950.5" y="-651.977"/>
<text text-anchor="start" x="965.5" y="-643.18" font-family="Helvetica,sans-Serif" font-size="11.00">plot_location_id</text>
<polygon fill="none" stroke="black" points="945.5,-612.98 945.5,-634.98 1120.5,-634.98 1120.5,-612.98 945.5,-612.98"/>
<image xlink:href="../../images/foreignKeys.png" width="11px" height="12px" preserveAspectRatio="xMinYMin meet" x="950.5" y="-629.977"/>
<text text-anchor="start" x="965.5" y="-621.18" font-family="Helvetica,sans-Serif" font-size="11.00">tree_species</text>
<polygon fill="none" stroke="black" points="945.5,-590.98 945.5,-612.98 1120.5,-612.98 1120.5,-590.98 945.5,-590.98"/>
<image xlink:href="../../images/foreignKeys.png" width="11px" height="12px" preserveAspectRatio="xMinYMin meet" x="950.5" y="-607.977"/>
<text text-anchor="start" x="965.5" y="-599.18" font-family="Helvetica,sans-Serif" font-size="11.00">browsing</text>
<polygon fill="none" stroke="black" points="945.5,-568.98 945.5,-590.98 1120.5,-590.98 1120.5,-568.98 945.5,-568.98"/>
<image xlink:href="../../images/foreignKeys.png" width="11px" height="12px" preserveAspectRatio="xMinYMin meet" x="950.5" y="-585.977"/>
<text text-anchor="start" x="965.5" y="-577.18" font-family="Helvetica,sans-Serif" font-size="11.00">tree_size_class</text>
<polygon fill="none" stroke="black" points="945.5,-550.98 945.5,-568.98 1120.5,-568.98 1120.5,-550.98 945.5,-550.98"/>
<text text-anchor="start" x="948.5" y="-557.18" font-family="Helvetica,sans-Serif" font-size="11.00">...</text>
<polygon fill="#ffffff" stroke="transparent" points="945.5,-532.98 945.5,-550.98 1120.5,-550.98 1120.5,-532.98 945.5,-532.98"/>
<polygon fill="none" stroke="black" points="945.5,-532.98 945.5,-550.98 1120.5,-550.98 1120.5,-532.98 945.5,-532.98"/>
<polygon fill="#ffffff" stroke="transparent" points="946.5,-533.98 946.5,-549.98 1002.5,-549.98 1002.5,-533.98 946.5,-533.98"/>
<text text-anchor="start" x="948.5" y="-539.18" font-family="Helvetica,sans-Serif" font-size="11.00">&lt; 5</text>
<polygon fill="#ffffff" stroke="transparent" points="1002.5,-533.98 1002.5,-549.98 1075.5,-549.98 1075.5,-533.98 1002.5,-533.98"/>
<text text-anchor="start" x="1020.5" y="-539.18" font-family="Helvetica,sans-Serif" font-size="11.00">0 rows</text>
<polygon fill="#ffffff" stroke="transparent" points="1075.5,-533.98 1075.5,-549.98 1119.5,-549.98 1119.5,-533.98 1075.5,-533.98"/>
<text text-anchor="start" x="1109.5" y="-539.18" font-family="Helvetica,sans-Serif" font-size="11.00"> &#160;</text>
<polygon fill="black" stroke="black" points="1002.5,-533.98 1002.5,-549.98 1002.5,-549.98 1002.5,-533.98 1002.5,-533.98"/>
<polygon fill="black" stroke="black" points="1075.5,-533.98 1075.5,-549.98 1075.5,-549.98 1075.5,-533.98 1075.5,-533.98"/>
</a>
</g>
</g>
<!-- regeneration&#45;&gt;plot -->
<g id="edge4" class="edge">
<title>regeneration:w&#45;&gt;plot:e</title>
<path fill="none" stroke="black" d="M930.36,-671.73C910.8,-685.92 935.01,-736.47 904,-756.98 851.99,-791.37 405.35,-770.98 343,-770.98"/>
<polygon fill="black" stroke="black" points="936.77,-670.03 945.42,-671.46 940.63,-669 944.5,-667.98 944.5,-667.98 944.5,-667.98 940.63,-669 943.58,-664.5 936.77,-670.03 936.77,-670.03"/>
<ellipse fill="none" stroke="black" cx="933.68" cy="-670.85" rx="3.2" ry="3.2"/>
</g>
<!-- regeneration&#45;&gt;plot_location -->
<g id="edge5" class="edge">
<title>regeneration:w&#45;&gt;plot_location:e</title>
<path fill="none" stroke="black" d="M930.13,-648.3C893.63,-662.87 945.66,-742.42 904,-780.98 841.08,-839.21 801.24,-821.98 715.5,-821.98"/>
<polygon fill="black" stroke="black" points="936.6,-647.25 945.07,-649.53 940.55,-646.61 944.5,-645.98 944.5,-645.98 944.5,-645.98 940.55,-646.61 943.93,-642.42 936.6,-647.25 936.6,-647.25"/>
<ellipse fill="none" stroke="black" cx="933.44" cy="-647.76" rx="3.2" ry="3.2"/>
</g>
<!-- lookup_browsing -->
<g id="node5" class="node">
<title>lookup_browsing</title>
<g id="a_node5"><a xlink:href="../../tables/lookup_browsing.html" xlink:title="lookup_browsing" target="_top">
<polygon fill="#ffffff" stroke="transparent" points="558.5,-513.98 558.5,-571.98 728.5,-571.98 728.5,-513.98 558.5,-513.98"/>
<polygon fill="#f5f5f5" stroke="transparent" points="558.5,-549.98 558.5,-571.98 728.5,-571.98 728.5,-549.98 558.5,-549.98"/>
<polygon fill="none" stroke="black" points="558.5,-549.98 558.5,-571.98 728.5,-571.98 728.5,-549.98 558.5,-549.98"/>
<text text-anchor="start" x="563.5" y="-559.18" font-family="Helvetica,sans-Serif" font-weight="bold" font-size="11.00">lookup_browsing</text>
<text text-anchor="start" x="686.5" y="-558.18" font-family="Helvetica,sans-Serif" font-size="11.00">[table]</text>
<polygon fill="none" stroke="black" points="558.5,-531.98 558.5,-549.98 728.5,-549.98 728.5,-531.98 558.5,-531.98"/>
<text text-anchor="start" x="561.5" y="-538.18" font-family="Helvetica,sans-Serif" font-size="11.00">...</text>
<polygon fill="#ffffff" stroke="transparent" points="558.5,-513.98 558.5,-531.98 728.5,-531.98 728.5,-513.98 558.5,-513.98"/>
<polygon fill="none" stroke="black" points="558.5,-513.98 558.5,-531.98 728.5,-531.98 728.5,-513.98 558.5,-513.98"/>
<polygon fill="#ffffff" stroke="transparent" points="559.5,-514.98 559.5,-530.98 602.5,-530.98 602.5,-514.98 559.5,-514.98"/>
<text text-anchor="start" x="561.5" y="-520.18" font-family="Helvetica,sans-Serif" font-size="11.00"> &#160;</text>
<polygon fill="#ffffff" stroke="transparent" points="602.5,-514.98 602.5,-530.98 673.5,-530.98 673.5,-514.98 602.5,-514.98"/>
<text text-anchor="start" x="619.5" y="-520.18" font-family="Helvetica,sans-Serif" font-size="11.00">0 rows</text>
<polygon fill="#ffffff" stroke="transparent" points="673.5,-514.98 673.5,-530.98 727.5,-530.98 727.5,-514.98 673.5,-514.98"/>
<text text-anchor="start" x="705.5" y="-520.18" font-family="Helvetica,sans-Serif" font-size="11.00">1 &gt;</text>
<polygon fill="black" stroke="black" points="602.5,-514.98 602.5,-530.98 602.5,-530.98 602.5,-514.98 602.5,-514.98"/>
<polygon fill="black" stroke="black" points="673.5,-514.98 673.5,-530.98 673.5,-530.98 673.5,-514.98 673.5,-514.98"/>
</a>
</g>
</g>
<!-- regeneration&#45;&gt;lookup_browsing -->
<g id="edge3" class="edge">
<title>regeneration:w&#45;&gt;lookup_browsing:e</title>
<path fill="none" stroke="black" d="M930.3,-598.85C921.88,-594.52 917.14,-586.69 904,-581.98 829.02,-555.05 809.17,-540.98 729.5,-540.98"/>
<polygon fill="black" stroke="black" points="936.69,-600.26 943.73,-605.49 940.59,-601.12 944.5,-601.98 944.5,-601.98 944.5,-601.98 940.59,-601.12 945.27,-598.46 936.69,-600.26 936.69,-600.26"/>
<ellipse fill="none" stroke="black" cx="933.56" cy="-599.57" rx="3.2" ry="3.2"/>
</g>
<!-- lookup_tree_size_class -->
<g id="node6" class="node">
<title>lookup_tree_size_class</title>
<g id="a_node6"><a xlink:href="../../tables/lookup_tree_size_class.html" xlink:title="lookup_tree_size_class" target="_top">
<polygon fill="#ffffff" stroke="transparent" points="538,-434.98 538,-492.98 749,-492.98 749,-434.98 538,-434.98"/>
<polygon fill="#f5f5f5" stroke="transparent" points="538.5,-470.98 538.5,-492.98 749.5,-492.98 749.5,-470.98 538.5,-470.98"/>
<polygon fill="none" stroke="black" points="538.5,-470.98 538.5,-492.98 749.5,-492.98 749.5,-470.98 538.5,-470.98"/>
<text text-anchor="start" x="543.5" y="-480.18" font-family="Helvetica,sans-Serif" font-weight="bold" font-size="11.00">lookup_tree_size_class</text>
<text text-anchor="start" x="707.5" y="-479.18" font-family="Helvetica,sans-Serif" font-size="11.00">[table]</text>
<polygon fill="none" stroke="black" points="538.5,-452.98 538.5,-470.98 749.5,-470.98 749.5,-452.98 538.5,-452.98"/>
<text text-anchor="start" x="541.5" y="-459.18" font-family="Helvetica,sans-Serif" font-size="11.00">...</text>
<polygon fill="#ffffff" stroke="transparent" points="538.5,-434.98 538.5,-452.98 749.5,-452.98 749.5,-434.98 538.5,-434.98"/>
<polygon fill="none" stroke="black" points="538.5,-434.98 538.5,-452.98 749.5,-452.98 749.5,-434.98 538.5,-434.98"/>
<polygon fill="#ffffff" stroke="transparent" points="539.5,-435.98 539.5,-451.98 595.5,-451.98 595.5,-435.98 539.5,-435.98"/>
<text text-anchor="start" x="541.5" y="-441.18" font-family="Helvetica,sans-Serif" font-size="11.00"> &#160;</text>
<polygon fill="#ffffff" stroke="transparent" points="595.5,-435.98 595.5,-451.98 680.5,-451.98 680.5,-435.98 595.5,-435.98"/>
<text text-anchor="start" x="619.5" y="-441.18" font-family="Helvetica,sans-Serif" font-size="11.00">0 rows</text>
<polygon fill="#ffffff" stroke="transparent" points="680.5,-435.98 680.5,-451.98 748.5,-451.98 748.5,-435.98 680.5,-435.98"/>
<text text-anchor="start" x="726.5" y="-441.18" font-family="Helvetica,sans-Serif" font-size="11.00">1 &gt;</text>
<polygon fill="black" stroke="black" points="595.5,-435.98 595.5,-451.98 595.5,-451.98 595.5,-435.98 595.5,-435.98"/>
<polygon fill="black" stroke="black" points="680.5,-435.98 680.5,-451.98 680.5,-451.98 680.5,-435.98 680.5,-435.98"/>
</a>
</g>
</g>
<!-- regeneration&#45;&gt;lookup_tree_size_class -->
<g id="edge6" class="edge">
<title>regeneration:w&#45;&gt;lookup_tree_size_class:e</title>
<path fill="none" stroke="black" d="M930.33,-576.07C913.57,-563.4 929.26,-523.15 904,-502.98 848.82,-458.92 821.11,-461.98 750.5,-461.98"/>
<polygon fill="black" stroke="black" points="936.79,-577.85 943.54,-583.45 940.64,-578.91 944.5,-579.98 944.5,-579.98 944.5,-579.98 940.64,-578.91 945.46,-576.51 936.79,-577.85 936.79,-577.85"/>
<ellipse fill="none" stroke="black" cx="933.7" cy="-577" rx="3.2" ry="3.2"/>
</g>
<!-- lookup_tree_species -->
<g id="node7" class="node">
<title>lookup_tree_species</title>
<g id="a_node7"><a xlink:href="../../tables/lookup_tree_species.html" xlink:title="lookup_tree_species" target="_top">
<polygon fill="#ffffff" stroke="transparent" points="391,-592.98 391,-746.98 896,-746.98 896,-592.98 391,-592.98"/>
<polygon fill="#f5f5f5" stroke="transparent" points="393.5,-722.98 393.5,-744.98 894.5,-744.98 894.5,-722.98 393.5,-722.98"/>
<polygon fill="none" stroke="black" points="393.5,-722.98 393.5,-744.98 894.5,-744.98 894.5,-722.98 393.5,-722.98"/>
<text text-anchor="start" x="398.5" y="-732.18" font-family="Helvetica,sans-Serif" font-weight="bold" font-size="11.00">lookup_tree_species</text>
<text text-anchor="start" x="852.5" y="-731.18" font-family="Helvetica,sans-Serif" font-size="11.00">[table]</text>
<polygon fill="none" stroke="black" points="393.5,-700.98 393.5,-722.98 561.5,-722.98 561.5,-700.98 393.5,-700.98"/>
<text text-anchor="start" x="413.5" y="-709.18" font-family="Helvetica,sans-Serif" font-size="11.00">name_de</text>
<polygon fill="none" stroke="black" points="561.5,-700.98 561.5,-722.98 894.5,-722.98 894.5,-700.98 561.5,-700.98"/>
<text text-anchor="start" x="564.5" y="-709.18" font-family="Helvetica,sans-Serif" font-size="11.00">varchar[150]</text>
<polygon fill="none" stroke="black" points="393.5,-678.98 393.5,-700.98 561.5,-700.98 561.5,-678.98 393.5,-678.98"/>
<text text-anchor="start" x="413.5" y="-687.18" font-family="Helvetica,sans-Serif" font-size="11.00">name_en</text>
<polygon fill="none" stroke="black" points="561.5,-678.98 561.5,-700.98 894.5,-700.98 894.5,-678.98 561.5,-678.98"/>
<text text-anchor="start" x="564.5" y="-687.18" font-family="Helvetica,sans-Serif" font-size="11.00">varchar[150]</text>
<polygon fill="none" stroke="black" points="393.5,-656.98 393.5,-678.98 561.5,-678.98 561.5,-656.98 393.5,-656.98"/>
<text text-anchor="start" x="413.5" y="-665.18" font-family="Helvetica,sans-Serif" font-size="11.00">interval</text>
<polygon fill="none" stroke="black" points="561.5,-656.98 561.5,-678.98 894.5,-678.98 894.5,-656.98 561.5,-656.98"/>
<text text-anchor="start" x="564.5" y="-665.18" font-family="Helvetica,sans-Serif" font-size="11.00">&quot;private_ci2027_001&quot;.&quot;_enum_interval_name&quot;[2147483647]</text>
<polygon fill="none" stroke="black" points="393.5,-634.98 393.5,-656.98 561.5,-656.98 561.5,-634.98 393.5,-634.98"/>
<text text-anchor="start" x="413.5" y="-643.18" font-family="Helvetica,sans-Serif" font-size="11.00">sort</text>
<polygon fill="none" stroke="black" points="561.5,-634.98 561.5,-656.98 894.5,-656.98 894.5,-634.98 561.5,-634.98"/>
<text text-anchor="start" x="564.5" y="-643.18" font-family="Helvetica,sans-Serif" font-size="11.00">int4[10]</text>
<polygon fill="#ffffff" stroke="transparent" points="393.5,-612.98 393.5,-634.98 561.5,-634.98 561.5,-612.98 393.5,-612.98"/>
<polygon fill="none" stroke="black" points="393.5,-612.98 393.5,-634.98 561.5,-634.98 561.5,-612.98 393.5,-612.98"/>
<text text-anchor="start" x="413.5" y="-621.18" font-family="Helvetica,sans-Serif" font-size="11.00">abbreviation</text>
<polygon fill="none" stroke="black" points="561.5,-612.98 561.5,-634.98 894.5,-634.98 894.5,-612.98 561.5,-612.98"/>
<text text-anchor="start" x="564.5" y="-621.18" font-family="Helvetica,sans-Serif" font-size="11.00">int2[5]</text>
<polygon fill="#ffffff" stroke="transparent" points="393.5,-594.98 393.5,-612.98 894.5,-612.98 894.5,-594.98 393.5,-594.98"/>
<polygon fill="none" stroke="black" points="393.5,-594.98 393.5,-612.98 894.5,-612.98 894.5,-594.98 393.5,-594.98"/>
<polygon fill="#ffffff" stroke="transparent" points="394.5,-595.98 394.5,-611.98 550.5,-611.98 550.5,-595.98 394.5,-595.98"/>
<text text-anchor="start" x="396.5" y="-601.18" font-family="Helvetica,sans-Serif" font-size="11.00">&lt; 0</text>
<polygon fill="#ffffff" stroke="transparent" points="550.5,-595.98 550.5,-611.98 737.5,-611.98 737.5,-595.98 550.5,-595.98"/>
<text text-anchor="start" x="618.5" y="-601.18" font-family="Helvetica,sans-Serif" font-size="11.00">125 rows</text>
<polygon fill="#ffffff" stroke="transparent" points="737.5,-595.98 737.5,-611.98 893.5,-611.98 893.5,-595.98 737.5,-595.98"/>
<text text-anchor="start" x="871.5" y="-601.18" font-family="Helvetica,sans-Serif" font-size="11.00">3 &gt;</text>
<polygon fill="black" stroke="black" points="550.5,-595.98 550.5,-611.98 550.5,-611.98 550.5,-595.98 550.5,-595.98"/>
<polygon fill="black" stroke="black" points="737.5,-595.98 737.5,-611.98 737.5,-611.98 737.5,-595.98 737.5,-595.98"/>
<polygon fill="none" stroke="black" stroke-width="2" points="392,-593.98 392,-745.98 895,-745.98 895,-593.98 392,-593.98"/>
</a>
</g>
</g>
<!-- regeneration&#45;&gt;lookup_tree_species -->
<g id="edge7" class="edge">
<title>regeneration:w&#45;&gt;lookup_tree_species:e</title>
<path fill="none" stroke="black" d="M929.99,-623.98C918.68,-623.98 911.49,-623.98 895.5,-623.98"/>
<polygon fill="black" stroke="black" points="936.5,-623.98 944.5,-627.58 940.5,-623.98 944.5,-623.98 944.5,-623.98 944.5,-623.98 940.5,-623.98 944.5,-620.38 936.5,-623.98 936.5,-623.98"/>
<ellipse fill="none" stroke="black" cx="933.3" cy="-623.98" rx="3.2" ry="3.2"/>
</g>
<!-- structure_lt4m -->
<g id="node8" class="node">
<title>structure_lt4m</title>
<g id="a_node8"><a xlink:href="../../tables/structure_lt4m.html" xlink:title="structure_lt4m" target="_top">
<polygon fill="#ffffff" stroke="transparent" points="955,-752.98 955,-898.98 1110,-898.98 1110,-752.98 955,-752.98"/>
<polygon fill="#f5f5f5" stroke="transparent" points="955.5,-876.98 955.5,-898.98 1110.5,-898.98 1110.5,-876.98 955.5,-876.98"/>
<polygon fill="none" stroke="black" points="955.5,-876.98 955.5,-898.98 1110.5,-898.98 1110.5,-876.98 955.5,-876.98"/>
<text text-anchor="start" x="960.5" y="-886.18" font-family="Helvetica,sans-Serif" font-weight="bold" font-size="11.00">structure_lt4m</text>
<text text-anchor="start" x="1068.5" y="-885.18" font-family="Helvetica,sans-Serif" font-size="11.00">[table]</text>
<polygon fill="none" stroke="black" points="955.5,-854.98 955.5,-876.98 1110.5,-876.98 1110.5,-854.98 955.5,-854.98"/>
<image xlink:href="../../images/primaryKeys.png" width="11px" height="12px" preserveAspectRatio="xMinYMin meet" x="960.5" y="-871.977"/>
<text text-anchor="start" x="975.5" y="-863.18" font-family="Helvetica,sans-Serif" font-size="11.00">id</text>
<polygon fill="none" stroke="black" points="955.5,-832.98 955.5,-854.98 1110.5,-854.98 1110.5,-832.98 955.5,-832.98"/>
<image xlink:href="../../images/foreignKeys.png" width="11px" height="12px" preserveAspectRatio="xMinYMin meet" x="960.5" y="-849.977"/>
<text text-anchor="start" x="975.5" y="-841.18" font-family="Helvetica,sans-Serif" font-size="11.00">plot_id</text>
<polygon fill="none" stroke="black" points="955.5,-810.98 955.5,-832.98 1110.5,-832.98 1110.5,-810.98 955.5,-810.98"/>
<image xlink:href="../../images/foreignKeys.png" width="11px" height="12px" preserveAspectRatio="xMinYMin meet" x="960.5" y="-827.977"/>
<text text-anchor="start" x="975.5" y="-819.18" font-family="Helvetica,sans-Serif" font-size="11.00">plot_location_id</text>
<polygon fill="none" stroke="black" points="955.5,-788.98 955.5,-810.98 1110.5,-810.98 1110.5,-788.98 955.5,-788.98"/>
<image xlink:href="../../images/foreignKeys.png" width="11px" height="12px" preserveAspectRatio="xMinYMin meet" x="960.5" y="-805.977"/>
<text text-anchor="start" x="975.5" y="-797.18" font-family="Helvetica,sans-Serif" font-size="11.00">tree_species</text>
<polygon fill="none" stroke="black" points="955.5,-770.98 955.5,-788.98 1110.5,-788.98 1110.5,-770.98 955.5,-770.98"/>
<text text-anchor="start" x="958.5" y="-777.18" font-family="Helvetica,sans-Serif" font-size="11.00">...</text>
<polygon fill="#ffffff" stroke="transparent" points="955.5,-752.98 955.5,-770.98 1110.5,-770.98 1110.5,-752.98 955.5,-752.98"/>
<polygon fill="none" stroke="black" points="955.5,-752.98 955.5,-770.98 1110.5,-770.98 1110.5,-752.98 955.5,-752.98"/>
<polygon fill="#ffffff" stroke="transparent" points="956.5,-753.98 956.5,-769.98 1006.5,-769.98 1006.5,-753.98 956.5,-753.98"/>
<text text-anchor="start" x="958.5" y="-759.18" font-family="Helvetica,sans-Serif" font-size="11.00">&lt; 3</text>
<polygon fill="#ffffff" stroke="transparent" points="1006.5,-753.98 1006.5,-769.98 1072.5,-769.98 1072.5,-753.98 1006.5,-753.98"/>
<text text-anchor="start" x="1021" y="-759.18" font-family="Helvetica,sans-Serif" font-size="11.00">0 rows</text>
<polygon fill="#ffffff" stroke="transparent" points="1072.5,-753.98 1072.5,-769.98 1109.5,-769.98 1109.5,-753.98 1072.5,-753.98"/>
<text text-anchor="start" x="1099.5" y="-759.18" font-family="Helvetica,sans-Serif" font-size="11.00"> &#160;</text>
<polygon fill="black" stroke="black" points="1006.5,-753.98 1006.5,-769.98 1006.5,-769.98 1006.5,-753.98 1006.5,-753.98"/>
<polygon fill="black" stroke="black" points="1072.5,-753.98 1072.5,-769.98 1072.5,-769.98 1072.5,-753.98 1072.5,-753.98"/>
</a>
</g>
</g>
<!-- structure_lt4m&#45;&gt;plot -->
<g id="edge8" class="edge">
<title>structure_lt4m:w&#45;&gt;plot:e</title>
<path fill="none" stroke="black" d="M940.14,-846.32C927.84,-850.83 921.97,-860.55 904,-863.98 676.55,-907.38 576.39,-991.32 383,-863.98 345.42,-839.23 387.99,-770.98 343,-770.98"/>
<polygon fill="black" stroke="black" points="946.6,-845.27 955.08,-847.53 950.55,-844.62 954.5,-843.98 954.5,-843.98 954.5,-843.98 950.55,-844.62 953.92,-840.42 946.6,-845.27 946.6,-845.27"/>
<ellipse fill="none" stroke="black" cx="943.45" cy="-845.78" rx="3.2" ry="3.2"/>
</g>
<!-- structure_lt4m&#45;&gt;plot_location -->
<g id="edge9" class="edge">
<title>structure_lt4m:w&#45;&gt;plot_location:e</title>
<path fill="none" stroke="black" d="M940.07,-821.98C845.61,-821.98 816.74,-821.98 715.5,-821.98"/>
<polygon fill="black" stroke="black" points="946.5,-821.98 954.5,-825.58 950.5,-821.98 954.5,-821.98 954.5,-821.98 954.5,-821.98 950.5,-821.98 954.5,-818.38 946.5,-821.98 946.5,-821.98"/>
<ellipse fill="none" stroke="black" cx="943.3" cy="-821.98" rx="3.2" ry="3.2"/>
</g>
<!-- structure_lt4m&#45;&gt;lookup_tree_species -->
<g id="edge10" class="edge">
<title>structure_lt4m:w&#45;&gt;lookup_tree_species:e</title>
<path fill="none" stroke="black" d="M940.1,-797.62C885.61,-776.74 972.36,-623.98 895.5,-623.98"/>
<polygon fill="black" stroke="black" points="946.6,-798.69 953.92,-803.53 950.55,-799.33 954.5,-799.98 954.5,-799.98 954.5,-799.98 950.55,-799.33 955.08,-796.42 946.6,-798.69 946.6,-798.69"/>
<ellipse fill="none" stroke="black" cx="943.45" cy="-798.17" rx="3.2" ry="3.2"/>
</g>
<!-- wzp_tree -->
<g id="node9" class="node">
<title>wzp_tree</title>
<g id="a_node9"><a xlink:href="../../tables/wzp_tree.html" xlink:title="wzp_tree" target="_top">
<polygon fill="#ffffff" stroke="transparent" points="946,-163.98 946,-397.98 1119,-397.98 1119,-163.98 946,-163.98"/>
<polygon fill="#f5f5f5" stroke="transparent" points="946.5,-375.98 946.5,-397.98 1119.5,-397.98 1119.5,-375.98 946.5,-375.98"/>
<polygon fill="none" stroke="black" points="946.5,-375.98 946.5,-397.98 1119.5,-397.98 1119.5,-375.98 946.5,-375.98"/>
<text text-anchor="start" x="951.5" y="-385.18" font-family="Helvetica,sans-Serif" font-weight="bold" font-size="11.00">wzp_tree</text>
<text text-anchor="start" x="1077.5" y="-384.18" font-family="Helvetica,sans-Serif" font-size="11.00">[table]</text>
<polygon fill="none" stroke="black" points="946.5,-353.98 946.5,-375.98 1119.5,-375.98 1119.5,-353.98 946.5,-353.98"/>
<image xlink:href="../../images/primaryKeys.png" width="11px" height="12px" preserveAspectRatio="xMinYMin meet" x="951.5" y="-370.977"/>
<text text-anchor="start" x="966.5" y="-362.18" font-family="Helvetica,sans-Serif" font-size="11.00">id</text>
<polygon fill="none" stroke="black" points="946.5,-331.98 946.5,-353.98 1119.5,-353.98 1119.5,-331.98 946.5,-331.98"/>
<image xlink:href="../../images/foreignKeys.png" width="11px" height="12px" preserveAspectRatio="xMinYMin meet" x="951.5" y="-348.977"/>
<text text-anchor="start" x="966.5" y="-340.18" font-family="Helvetica,sans-Serif" font-size="11.00">plot_id</text>
<polygon fill="none" stroke="black" points="946.5,-309.98 946.5,-331.98 1119.5,-331.98 1119.5,-309.98 946.5,-309.98"/>
<image xlink:href="../../images/foreignKeys.png" width="11px" height="12px" preserveAspectRatio="xMinYMin meet" x="951.5" y="-326.977"/>
<text text-anchor="start" x="966.5" y="-318.18" font-family="Helvetica,sans-Serif" font-size="11.00">tree_status</text>
<polygon fill="none" stroke="black" points="946.5,-287.98 946.5,-309.98 1119.5,-309.98 1119.5,-287.98 946.5,-287.98"/>
<image xlink:href="../../images/foreignKeys.png" width="11px" height="12px" preserveAspectRatio="xMinYMin meet" x="951.5" y="-304.977"/>
<text text-anchor="start" x="966.5" y="-296.18" font-family="Helvetica,sans-Serif" font-size="11.00">tree_species</text>
<polygon fill="none" stroke="black" points="946.5,-265.98 946.5,-287.98 1119.5,-287.98 1119.5,-265.98 946.5,-265.98"/>
<image xlink:href="../../images/foreignKeys.png" width="11px" height="12px" preserveAspectRatio="xMinYMin meet" x="951.5" y="-282.977"/>
<text text-anchor="start" x="966.5" y="-274.18" font-family="Helvetica,sans-Serif" font-size="11.00">stem_breakage</text>
<polygon fill="none" stroke="black" points="946.5,-243.98 946.5,-265.98 1119.5,-265.98 1119.5,-243.98 946.5,-243.98"/>
<image xlink:href="../../images/foreignKeys.png" width="11px" height="12px" preserveAspectRatio="xMinYMin meet" x="951.5" y="-260.977"/>
<text text-anchor="start" x="966.5" y="-252.18" font-family="Helvetica,sans-Serif" font-size="11.00">stem_form</text>
<polygon fill="none" stroke="black" points="946.5,-221.98 946.5,-243.98 1119.5,-243.98 1119.5,-221.98 946.5,-221.98"/>
<image xlink:href="../../images/foreignKeys.png" width="11px" height="12px" preserveAspectRatio="xMinYMin meet" x="951.5" y="-238.977"/>
<text text-anchor="start" x="966.5" y="-230.18" font-family="Helvetica,sans-Serif" font-size="11.00">pruning</text>
<polygon fill="none" stroke="black" points="946.5,-199.98 946.5,-221.98 1119.5,-221.98 1119.5,-199.98 946.5,-199.98"/>
<image xlink:href="../../images/foreignKeys.png" width="11px" height="12px" preserveAspectRatio="xMinYMin meet" x="951.5" y="-216.977"/>
<text text-anchor="start" x="966.5" y="-208.18" font-family="Helvetica,sans-Serif" font-size="11.00">stand_layer</text>
<polygon fill="none" stroke="black" points="946.5,-181.98 946.5,-199.98 1119.5,-199.98 1119.5,-181.98 946.5,-181.98"/>
<text text-anchor="start" x="949.5" y="-188.18" font-family="Helvetica,sans-Serif" font-size="11.00">...</text>
<polygon fill="#ffffff" stroke="transparent" points="946.5,-163.98 946.5,-181.98 1119.5,-181.98 1119.5,-163.98 946.5,-163.98"/>
<polygon fill="none" stroke="black" points="946.5,-163.98 946.5,-181.98 1119.5,-181.98 1119.5,-163.98 946.5,-163.98"/>
<polygon fill="#ffffff" stroke="transparent" points="947.5,-164.98 947.5,-180.98 1003.5,-180.98 1003.5,-164.98 947.5,-164.98"/>
<text text-anchor="start" x="949.5" y="-170.18" font-family="Helvetica,sans-Serif" font-size="11.00">&lt; 7</text>
<polygon fill="#ffffff" stroke="transparent" points="1003.5,-164.98 1003.5,-180.98 1075.5,-180.98 1075.5,-164.98 1003.5,-164.98"/>
<text text-anchor="start" x="1021" y="-170.18" font-family="Helvetica,sans-Serif" font-size="11.00">0 rows</text>
<polygon fill="#ffffff" stroke="transparent" points="1075.5,-164.98 1075.5,-180.98 1118.5,-180.98 1118.5,-164.98 1075.5,-164.98"/>
<text text-anchor="start" x="1108.5" y="-170.18" font-family="Helvetica,sans-Serif" font-size="11.00"> &#160;</text>
<polygon fill="black" stroke="black" points="1003.5,-164.98 1003.5,-180.98 1003.5,-180.98 1003.5,-164.98 1003.5,-164.98"/>
<polygon fill="black" stroke="black" points="1075.5,-164.98 1075.5,-180.98 1075.5,-180.98 1075.5,-164.98 1075.5,-164.98"/>
</a>
</g>
</g>
<!-- wzp_tree&#45;&gt;plot -->
<g id="edge11" class="edge">
<title>wzp_tree:w&#45;&gt;plot:e</title>
<path fill="none" stroke="black" d="M931.64,-347.69C919.91,-358.67 925.14,-385.87 904,-396.98 852.68,-423.93 425.26,-384.3 383,-423.98 326.41,-477.11 420.62,-770.98 343,-770.98"/>
<polygon fill="black" stroke="black" points="937.93,-345.55 946.66,-346.39 941.71,-344.26 945.5,-342.98 945.5,-342.98 945.5,-342.98 941.71,-344.26 944.34,-339.57 937.93,-345.55 937.93,-345.55"/>
<ellipse fill="none" stroke="black" cx="934.9" cy="-346.58" rx="3.2" ry="3.2"/>
</g>
<!-- wzp_tree&#45;&gt;lookup_stand_layer -->
<g id="edge13" class="edge">
<title>wzp_tree:w&#45;&gt;lookup_stand_layer:e</title>
<path fill="none" stroke="black" d="M931.19,-208.42C897.04,-193.13 948.19,-113.26 904,-80.98 810.51,-12.68 482.7,-22.12 383,-80.98 235.25,-168.2 368.07,-418.98 196.5,-418.98"/>
<polygon fill="black" stroke="black" points="937.62,-209.57 944.87,-214.52 941.56,-210.27 945.5,-210.98 945.5,-210.98 945.5,-210.98 941.56,-210.27 946.13,-207.43 937.62,-209.57 937.62,-209.57"/>
<ellipse fill="none" stroke="black" cx="934.47" cy="-209.01" rx="3.2" ry="3.2"/>
</g>
<!-- wzp_tree&#45;&gt;lookup_tree_species -->
<g id="edge16" class="edge">
<title>wzp_tree:w&#45;&gt;lookup_tree_species:e</title>
<path fill="none" stroke="black" d="M931.89,-304.08C885.77,-345.43 963.15,-623.98 895.5,-623.98"/>
<polygon fill="black" stroke="black" points="938.01,-301.79 946.76,-302.35 941.75,-300.38 945.5,-298.98 945.5,-298.98 945.5,-298.98 941.75,-300.38 944.24,-295.61 938.01,-301.79 938.01,-301.79"/>
<ellipse fill="none" stroke="black" cx="935.01" cy="-302.91" rx="3.2" ry="3.2"/>
</g>
<!-- lookup_pruning -->
<g id="node10" class="node">
<title>lookup_pruning</title>
<g id="a_node10"><a xlink:href="../../tables/lookup_pruning.html" xlink:title="lookup_pruning" target="_top">
<polygon fill="#ffffff" stroke="transparent" points="563.5,-91.98 563.5,-149.98 723.5,-149.98 723.5,-91.98 563.5,-91.98"/>
<polygon fill="#f5f5f5" stroke="transparent" points="563.5,-127.98 563.5,-149.98 723.5,-149.98 723.5,-127.98 563.5,-127.98"/>
<polygon fill="none" stroke="black" points="563.5,-127.98 563.5,-149.98 723.5,-149.98 723.5,-127.98 563.5,-127.98"/>
<text text-anchor="start" x="568.5" y="-137.18" font-family="Helvetica,sans-Serif" font-weight="bold" font-size="11.00">lookup_pruning</text>
<text text-anchor="start" x="681.5" y="-136.18" font-family="Helvetica,sans-Serif" font-size="11.00">[table]</text>
<polygon fill="none" stroke="black" points="563.5,-109.98 563.5,-127.98 723.5,-127.98 723.5,-109.98 563.5,-109.98"/>
<text text-anchor="start" x="566.5" y="-116.18" font-family="Helvetica,sans-Serif" font-size="11.00">...</text>
<polygon fill="#ffffff" stroke="transparent" points="563.5,-91.98 563.5,-109.98 723.5,-109.98 723.5,-91.98 563.5,-91.98"/>
<polygon fill="none" stroke="black" points="563.5,-91.98 563.5,-109.98 723.5,-109.98 723.5,-91.98 563.5,-91.98"/>
<polygon fill="#ffffff" stroke="transparent" points="564.5,-92.98 564.5,-108.98 603.5,-108.98 603.5,-92.98 564.5,-92.98"/>
<text text-anchor="start" x="566.5" y="-98.18" font-family="Helvetica,sans-Serif" font-size="11.00"> &#160;</text>
<polygon fill="#ffffff" stroke="transparent" points="603.5,-92.98 603.5,-108.98 671.5,-108.98 671.5,-92.98 603.5,-92.98"/>
<text text-anchor="start" x="619" y="-98.18" font-family="Helvetica,sans-Serif" font-size="11.00">0 rows</text>
<polygon fill="#ffffff" stroke="transparent" points="671.5,-92.98 671.5,-108.98 722.5,-108.98 722.5,-92.98 671.5,-92.98"/>
<text text-anchor="start" x="700.5" y="-98.18" font-family="Helvetica,sans-Serif" font-size="11.00">1 &gt;</text>
<polygon fill="black" stroke="black" points="603.5,-92.98 603.5,-108.98 603.5,-108.98 603.5,-92.98 603.5,-92.98"/>
<polygon fill="black" stroke="black" points="671.5,-92.98 671.5,-108.98 671.5,-108.98 671.5,-92.98 671.5,-92.98"/>
</a>
</g>
</g>
<!-- wzp_tree&#45;&gt;lookup_pruning -->
<g id="edge12" class="edge">
<title>wzp_tree:w&#45;&gt;lookup_pruning:e</title>
<path fill="none" stroke="black" d="M931.24,-228.88C915.39,-216.38 928.8,-178.41 904,-159.98 838.32,-111.16 806.33,-118.98 724.5,-118.98"/>
<polygon fill="black" stroke="black" points="937.81,-230.77 944.51,-236.44 941.66,-231.87 945.5,-232.98 945.5,-232.98 945.5,-232.98 941.66,-231.87 946.49,-229.52 937.81,-230.77 937.81,-230.77"/>
<ellipse fill="none" stroke="black" cx="934.74" cy="-229.89" rx="3.2" ry="3.2"/>
</g>
<!-- lookup_stem_breakage -->
<g id="node11" class="node">
<title>lookup_stem_breakage</title>
<g id="a_node11"><a xlink:href="../../tables/lookup_stem_breakage.html" xlink:title="lookup_stem_breakage" target="_top">
<polygon fill="#ffffff" stroke="transparent" points="536.5,-249.98 536.5,-307.98 750.5,-307.98 750.5,-249.98 536.5,-249.98"/>
<polygon fill="#f5f5f5" stroke="transparent" points="536.5,-285.98 536.5,-307.98 750.5,-307.98 750.5,-285.98 536.5,-285.98"/>
<polygon fill="none" stroke="black" points="536.5,-285.98 536.5,-307.98 750.5,-307.98 750.5,-285.98 536.5,-285.98"/>
<text text-anchor="start" x="541.5" y="-295.18" font-family="Helvetica,sans-Serif" font-weight="bold" font-size="11.00">lookup_stem_breakage</text>
<text text-anchor="start" x="708.5" y="-294.18" font-family="Helvetica,sans-Serif" font-size="11.00">[table]</text>
<polygon fill="none" stroke="black" points="536.5,-267.98 536.5,-285.98 750.5,-285.98 750.5,-267.98 536.5,-267.98"/>
<text text-anchor="start" x="539.5" y="-274.18" font-family="Helvetica,sans-Serif" font-size="11.00">...</text>
<polygon fill="#ffffff" stroke="transparent" points="536.5,-249.98 536.5,-267.98 750.5,-267.98 750.5,-249.98 536.5,-249.98"/>
<polygon fill="none" stroke="black" points="536.5,-249.98 536.5,-267.98 750.5,-267.98 750.5,-249.98 536.5,-249.98"/>
<polygon fill="#ffffff" stroke="transparent" points="537.5,-250.98 537.5,-266.98 594.5,-266.98 594.5,-250.98 537.5,-250.98"/>
<text text-anchor="start" x="539.5" y="-256.18" font-family="Helvetica,sans-Serif" font-size="11.00"> &#160;</text>
<polygon fill="#ffffff" stroke="transparent" points="594.5,-250.98 594.5,-266.98 680.5,-266.98 680.5,-250.98 594.5,-250.98"/>
<text text-anchor="start" x="619" y="-256.18" font-family="Helvetica,sans-Serif" font-size="11.00">0 rows</text>
<polygon fill="#ffffff" stroke="transparent" points="680.5,-250.98 680.5,-266.98 749.5,-266.98 749.5,-250.98 680.5,-250.98"/>
<text text-anchor="start" x="727.5" y="-256.18" font-family="Helvetica,sans-Serif" font-size="11.00">1 &gt;</text>
<polygon fill="black" stroke="black" points="594.5,-250.98 594.5,-266.98 594.5,-266.98 594.5,-250.98 594.5,-250.98"/>
<polygon fill="black" stroke="black" points="680.5,-250.98 680.5,-266.98 680.5,-266.98 680.5,-250.98 680.5,-250.98"/>
</a>
</g>
</g>
<!-- wzp_tree&#45;&gt;lookup_stem_breakage -->
<g id="edge14" class="edge">
<title>wzp_tree:w&#45;&gt;lookup_stem_breakage:e</title>
<path fill="none" stroke="black" d="M930.98,-276.98C856.53,-276.98 832.67,-276.98 751.5,-276.98"/>
<polygon fill="black" stroke="black" points="937.5,-276.98 945.5,-280.58 941.5,-276.98 945.5,-276.98 945.5,-276.98 945.5,-276.98 941.5,-276.98 945.5,-273.38 937.5,-276.98 937.5,-276.98"/>
<ellipse fill="none" stroke="black" cx="934.3" cy="-276.98" rx="3.2" ry="3.2"/>
</g>
<!-- lookup_stem_form -->
<g id="node12" class="node">
<title>lookup_stem_form</title>
<g id="a_node12"><a xlink:href="../../tables/lookup_stem_form.html" xlink:title="lookup_stem_form" target="_top">
<polygon fill="#ffffff" stroke="transparent" points="553.5,-170.98 553.5,-228.98 733.5,-228.98 733.5,-170.98 553.5,-170.98"/>
<polygon fill="#f5f5f5" stroke="transparent" points="553.5,-206.98 553.5,-228.98 733.5,-228.98 733.5,-206.98 553.5,-206.98"/>
<polygon fill="none" stroke="black" points="553.5,-206.98 553.5,-228.98 733.5,-228.98 733.5,-206.98 553.5,-206.98"/>
<text text-anchor="start" x="558.5" y="-216.18" font-family="Helvetica,sans-Serif" font-weight="bold" font-size="11.00">lookup_stem_form</text>
<text text-anchor="start" x="691.5" y="-215.18" font-family="Helvetica,sans-Serif" font-size="11.00">[table]</text>
<polygon fill="none" stroke="black" points="553.5,-188.98 553.5,-206.98 733.5,-206.98 733.5,-188.98 553.5,-188.98"/>
<text text-anchor="start" x="556.5" y="-195.18" font-family="Helvetica,sans-Serif" font-size="11.00">...</text>
<polygon fill="#ffffff" stroke="transparent" points="553.5,-170.98 553.5,-188.98 733.5,-188.98 733.5,-170.98 553.5,-170.98"/>
<polygon fill="none" stroke="black" points="553.5,-170.98 553.5,-188.98 733.5,-188.98 733.5,-170.98 553.5,-170.98"/>
<polygon fill="#ffffff" stroke="transparent" points="554.5,-171.98 554.5,-187.98 600.5,-187.98 600.5,-171.98 554.5,-171.98"/>
<text text-anchor="start" x="556.5" y="-177.18" font-family="Helvetica,sans-Serif" font-size="11.00"> &#160;</text>
<polygon fill="#ffffff" stroke="transparent" points="600.5,-171.98 600.5,-187.98 675.5,-187.98 675.5,-171.98 600.5,-171.98"/>
<text text-anchor="start" x="619.5" y="-177.18" font-family="Helvetica,sans-Serif" font-size="11.00">0 rows</text>
<polygon fill="#ffffff" stroke="transparent" points="675.5,-171.98 675.5,-187.98 732.5,-187.98 732.5,-171.98 675.5,-171.98"/>
<text text-anchor="start" x="710.5" y="-177.18" font-family="Helvetica,sans-Serif" font-size="11.00">1 &gt;</text>
<polygon fill="black" stroke="black" points="600.5,-171.98 600.5,-187.98 600.5,-187.98 600.5,-171.98 600.5,-171.98"/>
<polygon fill="black" stroke="black" points="675.5,-171.98 675.5,-187.98 675.5,-187.98 675.5,-171.98 675.5,-171.98"/>
</a>
</g>
</g>
<!-- wzp_tree&#45;&gt;lookup_stem_form -->
<g id="edge15" class="edge">
<title>wzp_tree:w&#45;&gt;lookup_stem_form:e</title>
<path fill="none" stroke="black" d="M931.21,-252.57C922.5,-249.21 917.12,-243.07 904,-238.98 830.02,-215.88 812.01,-197.98 734.5,-197.98"/>
<polygon fill="black" stroke="black" points="937.61,-253.65 944.9,-258.53 941.56,-254.31 945.5,-254.98 945.5,-254.98 945.5,-254.98 941.56,-254.31 946.1,-251.43 937.61,-253.65 937.61,-253.65"/>
<ellipse fill="none" stroke="black" cx="934.46" cy="-253.11" rx="3.2" ry="3.2"/>
</g>
<!-- lookup_tree_status -->
<g id="node13" class="node">
<title>lookup_tree_status</title>
<g id="a_node13"><a xlink:href="../../tables/lookup_tree_status.html" xlink:title="lookup_tree_status" target="_top">
<polygon fill="#ffffff" stroke="transparent" points="551,-328.98 551,-386.98 736,-386.98 736,-328.98 551,-328.98"/>
<polygon fill="#f5f5f5" stroke="transparent" points="551.5,-364.98 551.5,-386.98 736.5,-386.98 736.5,-364.98 551.5,-364.98"/>
<polygon fill="none" stroke="black" points="551.5,-364.98 551.5,-386.98 736.5,-386.98 736.5,-364.98 551.5,-364.98"/>
<text text-anchor="start" x="556.5" y="-374.18" font-family="Helvetica,sans-Serif" font-weight="bold" font-size="11.00">lookup_tree_status</text>
<text text-anchor="start" x="694.5" y="-373.18" font-family="Helvetica,sans-Serif" font-size="11.00">[table]</text>
<polygon fill="none" stroke="black" points="551.5,-346.98 551.5,-364.98 736.5,-364.98 736.5,-346.98 551.5,-346.98"/>
<text text-anchor="start" x="554.5" y="-353.18" font-family="Helvetica,sans-Serif" font-size="11.00">...</text>
<polygon fill="#ffffff" stroke="transparent" points="551.5,-328.98 551.5,-346.98 736.5,-346.98 736.5,-328.98 551.5,-328.98"/>
<polygon fill="none" stroke="black" points="551.5,-328.98 551.5,-346.98 736.5,-346.98 736.5,-328.98 551.5,-328.98"/>
<polygon fill="#ffffff" stroke="transparent" points="552.5,-329.98 552.5,-345.98 600.5,-345.98 600.5,-329.98 552.5,-329.98"/>
<text text-anchor="start" x="554.5" y="-335.18" font-family="Helvetica,sans-Serif" font-size="11.00"> &#160;</text>
<polygon fill="#ffffff" stroke="transparent" points="600.5,-329.98 600.5,-345.98 676.5,-345.98 676.5,-329.98 600.5,-329.98"/>
<text text-anchor="start" x="620" y="-335.18" font-family="Helvetica,sans-Serif" font-size="11.00">0 rows</text>
<polygon fill="#ffffff" stroke="transparent" points="676.5,-329.98 676.5,-345.98 735.5,-345.98 735.5,-329.98 676.5,-329.98"/>
<text text-anchor="start" x="713.5" y="-335.18" font-family="Helvetica,sans-Serif" font-size="11.00">1 &gt;</text>
<polygon fill="black" stroke="black" points="600.5,-329.98 600.5,-345.98 600.5,-345.98 600.5,-329.98 600.5,-329.98"/>
<polygon fill="black" stroke="black" points="676.5,-329.98 676.5,-345.98 676.5,-345.98 676.5,-329.98 676.5,-329.98"/>
</a>
</g>
</g>
<!-- wzp_tree&#45;&gt;lookup_tree_status -->
<g id="edge17" class="edge">
<title>wzp_tree:w&#45;&gt;lookup_tree_status:e</title>
<path fill="none" stroke="black" d="M931.01,-321.27C849.34,-324.64 826.21,-355.98 737.5,-355.98"/>
<polygon fill="black" stroke="black" points="937.5,-321.14 945.57,-324.58 941.5,-321.06 945.5,-320.98 945.5,-320.98 945.5,-320.98 941.5,-321.06 945.43,-317.38 937.5,-321.14 937.5,-321.14"/>
<ellipse fill="none" stroke="black" cx="934.3" cy="-321.2" rx="3.2" ry="3.2"/>
</g>
</g>
</svg>
