<?xml version="1.0" encoding="UTF-8" standalone="no"?>
<!DOCTYPE svg PUBLIC "-//W3C//DTD SVG 1.1//EN"
 "http://www.w3.org/Graphics/SVG/1.1/DTD/svg11.dtd">
<!-- Generated by graphviz version 2.43.0 (0)
 -->
<!-- Title: oneDegreeRelationshipsDiagram Pages: 1 -->
<svg width="761pt" height="219pt"
 viewBox="0.00 0.00 761.00 219.00" xmlns="http://www.w3.org/2000/svg" xmlns:xlink="http://www.w3.org/1999/xlink">
<g id="graph0" class="graph" transform="scale(1 1) rotate(0) translate(4 215)">
<title>oneDegreeRelationshipsDiagram</title>
<polygon fill="#ffffff" stroke="transparent" points="-4,4 -4,-215 757,-215 757,4 -4,4"/>
<text text-anchor="middle" x="79.5" y="-7.2" font-family="Helvetica,sans-Serif" font-size="11.00">Generated by SchemaSpy</text>
<!-- position -->
<g id="node1" class="node">
<title>position</title>
<g id="a_node1"><a xlink:href="../../tables/position.html" xlink:title="position" target="_top">
<polygon fill="#ffffff" stroke="transparent" points="562,-37 562,-183 745,-183 745,-37 562,-37"/>
<polygon fill="#f5f5f5" stroke="transparent" points="562.5,-161 562.5,-183 745.5,-183 745.5,-161 562.5,-161"/>
<polygon fill="none" stroke="black" points="562.5,-161 562.5,-183 745.5,-183 745.5,-161 562.5,-161"/>
<text text-anchor="start" x="567.5" y="-170.2" font-family="Helvetica,sans-Serif" font-weight="bold" font-size="11.00">position</text>
<text text-anchor="start" x="703.5" y="-169.2" font-family="Helvetica,sans-Serif" font-size="11.00">[table]</text>
<polygon fill="none" stroke="black" points="562.5,-139 562.5,-161 745.5,-161 745.5,-139 562.5,-139"/>
<image xlink:href="../../images/primaryKeys.png" width="11px" height="12px" preserveAspectRatio="xMinYMin meet" x="567.5" y="-156"/>
<text text-anchor="start" x="582.5" y="-147.2" font-family="Helvetica,sans-Serif" font-size="11.00">id</text>
<polygon fill="none" stroke="black" points="562.5,-117 562.5,-139 745.5,-139 745.5,-117 562.5,-117"/>
<image xlink:href="../../images/foreignKeys.png" width="11px" height="12px" preserveAspectRatio="xMinYMin meet" x="567.5" y="-134"/>
<text text-anchor="start" x="582.5" y="-125.2" font-family="Helvetica,sans-Serif" font-size="11.00">plot_id</text>
<polygon fill="none" stroke="black" points="562.5,-95 562.5,-117 745.5,-117 745.5,-95 562.5,-95"/>
<image xlink:href="../../images/foreignKeys.png" width="11px" height="12px" preserveAspectRatio="xMinYMin meet" x="567.5" y="-112"/>
<text text-anchor="start" x="582.5" y="-103.2" font-family="Helvetica,sans-Serif" font-size="11.00">plot_location_id</text>
<polygon fill="none" stroke="black" points="562.5,-73 562.5,-95 745.5,-95 745.5,-73 562.5,-73"/>
<image xlink:href="../../images/foreignKeys.png" width="11px" height="12px" preserveAspectRatio="xMinYMin meet" x="567.5" y="-90"/>
<text text-anchor="start" x="582.5" y="-81.2" font-family="Helvetica,sans-Serif" font-size="11.00">quality</text>
<polygon fill="none" stroke="black" points="562.5,-55 562.5,-73 745.5,-73 745.5,-55 562.5,-55"/>
<text text-anchor="start" x="565.5" y="-61.2" font-family="Helvetica,sans-Serif" font-size="11.00">...</text>
<polygon fill="#ffffff" stroke="transparent" points="562.5,-37 562.5,-55 745.5,-55 745.5,-37 562.5,-37"/>
<polygon fill="none" stroke="black" points="562.5,-37 562.5,-55 745.5,-55 745.5,-37 562.5,-37"/>
<polygon fill="#ffffff" stroke="transparent" points="563.5,-38 563.5,-54 622.5,-54 622.5,-38 563.5,-38"/>
<text text-anchor="start" x="565.5" y="-43.2" font-family="Helvetica,sans-Serif" font-size="11.00">&lt; 3</text>
<polygon fill="#ffffff" stroke="transparent" points="622.5,-38 622.5,-54 698.5,-54 698.5,-38 622.5,-38"/>
<text text-anchor="start" x="642" y="-43.2" font-family="Helvetica,sans-Serif" font-size="11.00">0 rows</text>
<polygon fill="#ffffff" stroke="transparent" points="698.5,-38 698.5,-54 744.5,-54 744.5,-38 698.5,-38"/>
<text text-anchor="start" x="734.5" y="-43.2" font-family="Helvetica,sans-Serif" font-size="11.00"> &#160;</text>
<polygon fill="black" stroke="black" points="622.5,-38 622.5,-54 622.5,-54 622.5,-38 622.5,-38"/>
<polygon fill="black" stroke="black" points="698.5,-38 698.5,-54 698.5,-54 698.5,-38 698.5,-38"/>
</a>
</g>
</g>
<!-- lookup_gnss_quality -->
<g id="node2" class="node">
<title>lookup_gnss_quality</title>
<g id="a_node2"><a xlink:href="../../tables/lookup_gnss_quality.html" xlink:title="lookup_gnss_quality" target="_top">
<polygon fill="#ffffff" stroke="transparent" points="8,-53 8,-207 513,-207 513,-53 8,-53"/>
<polygon fill="#f5f5f5" stroke="transparent" points="10.5,-183 10.5,-205 511.5,-205 511.5,-183 10.5,-183"/>
<polygon fill="none" stroke="black" points="10.5,-183 10.5,-205 511.5,-205 511.5,-183 10.5,-183"/>
<text text-anchor="start" x="15.5" y="-192.2" font-family="Helvetica,sans-Serif" font-weight="bold" font-size="11.00">lookup_gnss_quality</text>
<text text-anchor="start" x="469.5" y="-191.2" font-family="Helvetica,sans-Serif" font-size="11.00">[table]</text>
<polygon fill="none" stroke="black" points="10.5,-161 10.5,-183 178.5,-183 178.5,-161 10.5,-161"/>
<text text-anchor="start" x="30.5" y="-169.2" font-family="Helvetica,sans-Serif" font-size="11.00">name_de</text>
<polygon fill="none" stroke="black" points="178.5,-161 178.5,-183 511.5,-183 511.5,-161 178.5,-161"/>
<text text-anchor="start" x="181.5" y="-169.2" font-family="Helvetica,sans-Serif" font-size="11.00">varchar[150]</text>
<polygon fill="none" stroke="black" points="10.5,-139 10.5,-161 178.5,-161 178.5,-139 10.5,-139"/>
<text text-anchor="start" x="30.5" y="-147.2" font-family="Helvetica,sans-Serif" font-size="11.00">name_en</text>
<polygon fill="none" stroke="black" points="178.5,-139 178.5,-161 511.5,-161 511.5,-139 178.5,-139"/>
<text text-anchor="start" x="181.5" y="-147.2" font-family="Helvetica,sans-Serif" font-size="11.00">varchar[150]</text>
<polygon fill="none" stroke="black" points="10.5,-117 10.5,-139 178.5,-139 178.5,-117 10.5,-117"/>
<text text-anchor="start" x="30.5" y="-125.2" font-family="Helvetica,sans-Serif" font-size="11.00">interval</text>
<polygon fill="none" stroke="black" points="178.5,-117 178.5,-139 511.5,-139 511.5,-117 178.5,-117"/>
<text text-anchor="start" x="181.5" y="-125.2" font-family="Helvetica,sans-Serif" font-size="11.00">&quot;private_ci2027_001&quot;.&quot;_enum_interval_name&quot;[2147483647]</text>
<polygon fill="none" stroke="black" points="10.5,-95 10.5,-117 178.5,-117 178.5,-95 10.5,-95"/>
<text text-anchor="start" x="30.5" y="-103.2" font-family="Helvetica,sans-Serif" font-size="11.00">sort</text>
<polygon fill="none" stroke="black" points="178.5,-95 178.5,-117 511.5,-117 511.5,-95 178.5,-95"/>
<text text-anchor="start" x="181.5" y="-103.2" font-family="Helvetica,sans-Serif" font-size="11.00">int4[10]</text>
<polygon fill="#ffffff" stroke="transparent" points="10.5,-73 10.5,-95 178.5,-95 178.5,-73 10.5,-73"/>
<polygon fill="none" stroke="black" points="10.5,-73 10.5,-95 178.5,-95 178.5,-73 10.5,-73"/>
<text text-anchor="start" x="30.5" y="-81.2" font-family="Helvetica,sans-Serif" font-size="11.00">abbreviation</text>
<polygon fill="none" stroke="black" points="178.5,-73 178.5,-95 511.5,-95 511.5,-73 178.5,-73"/>
<text text-anchor="start" x="181.5" y="-81.2" font-family="Helvetica,sans-Serif" font-size="11.00">&quot;private_ci2027_001&quot;.&quot;enum_gnss_quality&quot;[2147483647]</text>
<polygon fill="#ffffff" stroke="transparent" points="10.5,-55 10.5,-73 511.5,-73 511.5,-55 10.5,-55"/>
<polygon fill="none" stroke="black" points="10.5,-55 10.5,-73 511.5,-73 511.5,-55 10.5,-55"/>
<polygon fill="#ffffff" stroke="transparent" points="11.5,-56 11.5,-72 172.5,-72 172.5,-56 11.5,-56"/>
<text text-anchor="start" x="13.5" y="-61.2" font-family="Helvetica,sans-Serif" font-size="11.00">&lt; 0</text>
<polygon fill="#ffffff" stroke="transparent" points="172.5,-56 172.5,-72 350.5,-72 350.5,-56 172.5,-56"/>
<text text-anchor="start" x="243" y="-61.2" font-family="Helvetica,sans-Serif" font-size="11.00">0 rows</text>
<polygon fill="#ffffff" stroke="transparent" points="350.5,-56 350.5,-72 510.5,-72 510.5,-56 350.5,-56"/>
<text text-anchor="start" x="488.5" y="-61.2" font-family="Helvetica,sans-Serif" font-size="11.00">1 &gt;</text>
<polygon fill="black" stroke="black" points="172.5,-56 172.5,-72 172.5,-72 172.5,-56 172.5,-56"/>
<polygon fill="black" stroke="black" points="350.5,-56 350.5,-72 350.5,-72 350.5,-56 350.5,-56"/>
<polygon fill="none" stroke="black" stroke-width="2" points="9,-54 9,-206 512,-206 512,-54 9,-54"/>
</a>
</g>
</g>
<!-- position&#45;&gt;lookup_gnss_quality -->
<g id="edge1" class="edge">
<title>position:w&#45;&gt;lookup_gnss_quality:e</title>
<path fill="none" stroke="black" d="M546.99,-84C535.68,-84 528.49,-84 512.5,-84"/>
<polygon fill="black" stroke="black" points="553.5,-84 561.5,-87.6 557.5,-84 561.5,-84 561.5,-84 561.5,-84 557.5,-84 561.5,-80.4 553.5,-84 553.5,-84"/>
<ellipse fill="none" stroke="black" cx="550.3" cy="-84" rx="3.2" ry="3.2"/>
</g>
</g>
</svg>
