<?xml version="1.0" encoding="UTF-8" standalone="no"?>
<!DOCTYPE svg PUBLIC "-//W3C//DTD SVG 1.1//EN"
 "http://www.w3.org/Graphics/SVG/1.1/DTD/svg11.dtd">
<!-- Generated by graphviz version 2.43.0 (0)
 -->
<!-- Title: oneDegreeRelationshipsDiagram Pages: 1 -->
<svg width="684pt" height="263pt"
 viewBox="0.00 0.00 684.00 263.00" xmlns="http://www.w3.org/2000/svg" xmlns:xlink="http://www.w3.org/1999/xlink">
<g id="graph0" class="graph" transform="scale(1 1) rotate(0) translate(4 259)">
<title>oneDegreeRelationshipsDiagram</title>
<polygon fill="#ffffff" stroke="transparent" points="-4,4 -4,-259 680,-259 680,4 -4,4"/>
<text text-anchor="middle" x="79.5" y="-7.2" font-family="Helvetica,sans-Serif" font-size="11.00">Generated by SchemaSpy</text>
<!-- edges -->
<g id="node1" class="node">
<title>edges</title>
<g id="a_node1"><a xlink:href="../../tables/edges.html" xlink:title="edges" target="_top">
<polygon fill="#ffffff" stroke="transparent" points="559,-37 559,-205 668,-205 668,-37 559,-37"/>
<polygon fill="#f5f5f5" stroke="transparent" points="559.5,-183 559.5,-205 668.5,-205 668.5,-183 559.5,-183"/>
<polygon fill="none" stroke="black" points="559.5,-183 559.5,-205 668.5,-205 668.5,-183 559.5,-183"/>
<text text-anchor="start" x="564.5" y="-192.2" font-family="Helvetica,sans-Serif" font-weight="bold" font-size="11.00">edges</text>
<text text-anchor="start" x="626.5" y="-191.2" font-family="Helvetica,sans-Serif" font-size="11.00">[table]</text>
<polygon fill="none" stroke="black" points="559.5,-161 559.5,-183 668.5,-183 668.5,-161 559.5,-161"/>
<image xlink:href="../../images/primaryKeys.png" width="11px" height="12px" preserveAspectRatio="xMinYMin meet" x="564.5" y="-178"/>
<text text-anchor="start" x="579.5" y="-169.2" font-family="Helvetica,sans-Serif" font-size="11.00">id</text>
<polygon fill="none" stroke="black" points="559.5,-139 559.5,-161 668.5,-161 668.5,-139 559.5,-139"/>
<image xlink:href="../../images/foreignKeys.png" width="11px" height="12px" preserveAspectRatio="xMinYMin meet" x="564.5" y="-156"/>
<text text-anchor="start" x="579.5" y="-147.2" font-family="Helvetica,sans-Serif" font-size="11.00">plot_id</text>
<polygon fill="none" stroke="black" points="559.5,-117 559.5,-139 668.5,-139 668.5,-117 559.5,-117"/>
<image xlink:href="../../images/foreignKeys.png" width="11px" height="12px" preserveAspectRatio="xMinYMin meet" x="564.5" y="-134"/>
<text text-anchor="start" x="579.5" y="-125.2" font-family="Helvetica,sans-Serif" font-size="11.00">edge_status</text>
<polygon fill="none" stroke="black" points="559.5,-95 559.5,-117 668.5,-117 668.5,-95 559.5,-95"/>
<image xlink:href="../../images/foreignKeys.png" width="11px" height="12px" preserveAspectRatio="xMinYMin meet" x="564.5" y="-112"/>
<text text-anchor="start" x="579.5" y="-103.2" font-family="Helvetica,sans-Serif" font-size="11.00">edge_type</text>
<polygon fill="none" stroke="black" points="559.5,-73 559.5,-95 668.5,-95 668.5,-73 559.5,-73"/>
<image xlink:href="../../images/foreignKeys.png" width="11px" height="12px" preserveAspectRatio="xMinYMin meet" x="564.5" y="-90"/>
<text text-anchor="start" x="579.5" y="-81.2" font-family="Helvetica,sans-Serif" font-size="11.00">terrain</text>
<polygon fill="none" stroke="black" points="559.5,-55 559.5,-73 668.5,-73 668.5,-55 559.5,-55"/>
<text text-anchor="start" x="562.5" y="-61.2" font-family="Helvetica,sans-Serif" font-size="11.00">...</text>
<polygon fill="#ffffff" stroke="transparent" points="559.5,-37 559.5,-55 668.5,-55 668.5,-37 559.5,-37"/>
<polygon fill="none" stroke="black" points="559.5,-37 559.5,-55 668.5,-55 668.5,-37 559.5,-37"/>
<polygon fill="#ffffff" stroke="transparent" points="560.5,-38 560.5,-54 594.5,-54 594.5,-38 560.5,-38"/>
<text text-anchor="start" x="562.5" y="-43.2" font-family="Helvetica,sans-Serif" font-size="11.00">&lt; 4</text>
<polygon fill="#ffffff" stroke="transparent" points="594.5,-38 594.5,-54 645.5,-54 645.5,-38 594.5,-38"/>
<text text-anchor="start" x="601.5" y="-43.2" font-family="Helvetica,sans-Serif" font-size="11.00">0 rows</text>
<polygon fill="#ffffff" stroke="transparent" points="645.5,-38 645.5,-54 667.5,-54 667.5,-38 645.5,-38"/>
<text text-anchor="start" x="657.5" y="-43.2" font-family="Helvetica,sans-Serif" font-size="11.00"> &#160;</text>
<polygon fill="black" stroke="black" points="594.5,-38 594.5,-54 594.5,-54 594.5,-38 594.5,-38"/>
<polygon fill="black" stroke="black" points="645.5,-38 645.5,-54 645.5,-54 645.5,-38 645.5,-38"/>
</a>
</g>
</g>
<!-- lookup_edge_status -->
<g id="node2" class="node">
<title>lookup_edge_status</title>
<g id="a_node2"><a xlink:href="../../tables/lookup_edge_status.html" xlink:title="lookup_edge_status" target="_top">
<polygon fill="#ffffff" stroke="transparent" points="8,-97 8,-251 510,-251 510,-97 8,-97"/>
<polygon fill="#f5f5f5" stroke="transparent" points="10,-227 10,-249 508,-249 508,-227 10,-227"/>
<polygon fill="none" stroke="black" points="10,-227 10,-249 508,-249 508,-227 10,-227"/>
<text text-anchor="start" x="15" y="-236.2" font-family="Helvetica,sans-Serif" font-weight="bold" font-size="11.00">lookup_edge_status</text>
<text text-anchor="start" x="466" y="-235.2" font-family="Helvetica,sans-Serif" font-size="11.00">[table]</text>
<polygon fill="none" stroke="black" points="10,-205 10,-227 175,-227 175,-205 10,-205"/>
<text text-anchor="start" x="30" y="-213.2" font-family="Helvetica,sans-Serif" font-size="11.00">name_de</text>
<polygon fill="none" stroke="black" points="175,-205 175,-227 508,-227 508,-205 175,-205"/>
<text text-anchor="start" x="178" y="-213.2" font-family="Helvetica,sans-Serif" font-size="11.00">varchar[150]</text>
<polygon fill="none" stroke="black" points="10,-183 10,-205 175,-205 175,-183 10,-183"/>
<text text-anchor="start" x="30" y="-191.2" font-family="Helvetica,sans-Serif" font-size="11.00">name_en</text>
<polygon fill="none" stroke="black" points="175,-183 175,-205 508,-205 508,-183 175,-183"/>
<text text-anchor="start" x="178" y="-191.2" font-family="Helvetica,sans-Serif" font-size="11.00">varchar[150]</text>
<polygon fill="none" stroke="black" points="10,-161 10,-183 175,-183 175,-161 10,-161"/>
<text text-anchor="start" x="30" y="-169.2" font-family="Helvetica,sans-Serif" font-size="11.00">interval</text>
<polygon fill="none" stroke="black" points="175,-161 175,-183 508,-183 508,-161 175,-161"/>
<text text-anchor="start" x="178" y="-169.2" font-family="Helvetica,sans-Serif" font-size="11.00">&quot;private_ci2027_001&quot;.&quot;_enum_interval_name&quot;[2147483647]</text>
<polygon fill="none" stroke="black" points="10,-139 10,-161 175,-161 175,-139 10,-139"/>
<text text-anchor="start" x="30" y="-147.2" font-family="Helvetica,sans-Serif" font-size="11.00">sort</text>
<polygon fill="none" stroke="black" points="175,-139 175,-161 508,-161 508,-139 175,-139"/>
<text text-anchor="start" x="178" y="-147.2" font-family="Helvetica,sans-Serif" font-size="11.00">int4[10]</text>
<polygon fill="#ffffff" stroke="transparent" points="10,-117 10,-139 175,-139 175,-117 10,-117"/>
<polygon fill="none" stroke="black" points="10,-117 10,-139 175,-139 175,-117 10,-117"/>
<text text-anchor="start" x="30" y="-125.2" font-family="Helvetica,sans-Serif" font-size="11.00">abbreviation</text>
<polygon fill="none" stroke="black" points="175,-117 175,-139 508,-139 508,-117 175,-117"/>
<text text-anchor="start" x="178" y="-125.2" font-family="Helvetica,sans-Serif" font-size="11.00">&quot;private_ci2027_001&quot;.&quot;enum_edge_status&quot;[2147483647]</text>
<polygon fill="#ffffff" stroke="transparent" points="10,-99 10,-117 508,-117 508,-99 10,-99"/>
<polygon fill="none" stroke="black" points="10,-99 10,-117 508,-117 508,-99 10,-99"/>
<polygon fill="#ffffff" stroke="transparent" points="11,-100 11,-116 171,-116 171,-100 11,-100"/>
<text text-anchor="start" x="13" y="-105.2" font-family="Helvetica,sans-Serif" font-size="11.00">&lt; 0</text>
<polygon fill="#ffffff" stroke="transparent" points="171,-100 171,-116 348,-116 348,-100 171,-100"/>
<text text-anchor="start" x="241" y="-105.2" font-family="Helvetica,sans-Serif" font-size="11.00">0 rows</text>
<polygon fill="#ffffff" stroke="transparent" points="348,-100 348,-116 507,-116 507,-100 348,-100"/>
<text text-anchor="start" x="485" y="-105.2" font-family="Helvetica,sans-Serif" font-size="11.00">1 &gt;</text>
<polygon fill="black" stroke="black" points="171,-100 171,-116 171,-116 171,-100 171,-100"/>
<polygon fill="black" stroke="black" points="348,-100 348,-116 348,-116 348,-100 348,-100"/>
<polygon fill="none" stroke="black" stroke-width="2" points="9,-98 9,-250 509,-250 509,-98 9,-98"/>
</a>
</g>
</g>
<!-- edges&#45;&gt;lookup_edge_status -->
<g id="edge1" class="edge">
<title>edges:w&#45;&gt;lookup_edge_status:e</title>
<path fill="none" stroke="black" d="M543.84,-128C532.41,-128 525.16,-128 509,-128"/>
<polygon fill="black" stroke="black" points="550.5,-128 558.5,-131.6 554.5,-128 558.5,-128 558.5,-128 558.5,-128 554.5,-128 558.5,-124.4 550.5,-128 550.5,-128"/>
<ellipse fill="none" stroke="black" cx="547.3" cy="-128" rx="3.2" ry="3.2"/>
</g>
</g>
</svg>
