<?xml version="1.0" encoding="UTF-8" standalone="no"?>
<!DOCTYPE svg PUBLIC "-//W3C//DTD SVG 1.1//EN"
 "http://www.w3.org/Graphics/SVG/1.1/DTD/svg11.dtd">
<!-- Generated by graphviz version 2.43.0 (0)
 -->
<!-- Title: oneDegreeRelationshipsDiagram Pages: 1 -->
<svg width="742pt" height="329pt"
 viewBox="0.00 0.00 742.00 329.00" xmlns="http://www.w3.org/2000/svg" xmlns:xlink="http://www.w3.org/1999/xlink">
<g id="graph0" class="graph" transform="scale(1 1) rotate(0) translate(4 325)">
<title>oneDegreeRelationshipsDiagram</title>
<polygon fill="#ffffff" stroke="transparent" points="-4,4 -4,-325 738,-325 738,4 -4,4"/>
<text text-anchor="middle" x="79.5" y="-7.2" font-family="Helvetica,sans-Serif" font-size="11.00">Generated by SchemaSpy</text>
<!-- wzp_tree -->
<g id="node1" class="node">
<title>wzp_tree</title>
<g id="a_node1"><a xlink:href="../../tables/wzp_tree.html" xlink:title="wzp_tree" target="_top">
<polygon fill="#ffffff" stroke="transparent" points="553,-37 553,-271 726,-271 726,-37 553,-37"/>
<polygon fill="#f5f5f5" stroke="transparent" points="553.5,-249 553.5,-271 726.5,-271 726.5,-249 553.5,-249"/>
<polygon fill="none" stroke="black" points="553.5,-249 553.5,-271 726.5,-271 726.5,-249 553.5,-249"/>
<text text-anchor="start" x="558.5" y="-258.2" font-family="Helvetica,sans-Serif" font-weight="bold" font-size="11.00">wzp_tree</text>
<text text-anchor="start" x="684.5" y="-257.2" font-family="Helvetica,sans-Serif" font-size="11.00">[table]</text>
<polygon fill="none" stroke="black" points="553.5,-227 553.5,-249 726.5,-249 726.5,-227 553.5,-227"/>
<image xlink:href="../../images/primaryKeys.png" width="11px" height="12px" preserveAspectRatio="xMinYMin meet" x="558.5" y="-244"/>
<text text-anchor="start" x="573.5" y="-235.2" font-family="Helvetica,sans-Serif" font-size="11.00">id</text>
<polygon fill="none" stroke="black" points="553.5,-205 553.5,-227 726.5,-227 726.5,-205 553.5,-205"/>
<image xlink:href="../../images/foreignKeys.png" width="11px" height="12px" preserveAspectRatio="xMinYMin meet" x="558.5" y="-222"/>
<text text-anchor="start" x="573.5" y="-213.2" font-family="Helvetica,sans-Serif" font-size="11.00">plot_id</text>
<polygon fill="none" stroke="black" points="553.5,-183 553.5,-205 726.5,-205 726.5,-183 553.5,-183"/>
<image xlink:href="../../images/foreignKeys.png" width="11px" height="12px" preserveAspectRatio="xMinYMin meet" x="558.5" y="-200"/>
<text text-anchor="start" x="573.5" y="-191.2" font-family="Helvetica,sans-Serif" font-size="11.00">tree_status</text>
<polygon fill="none" stroke="black" points="553.5,-161 553.5,-183 726.5,-183 726.5,-161 553.5,-161"/>
<image xlink:href="../../images/foreignKeys.png" width="11px" height="12px" preserveAspectRatio="xMinYMin meet" x="558.5" y="-178"/>
<text text-anchor="start" x="573.5" y="-169.2" font-family="Helvetica,sans-Serif" font-size="11.00">tree_species</text>
<polygon fill="none" stroke="black" points="553.5,-139 553.5,-161 726.5,-161 726.5,-139 553.5,-139"/>
<image xlink:href="../../images/foreignKeys.png" width="11px" height="12px" preserveAspectRatio="xMinYMin meet" x="558.5" y="-156"/>
<text text-anchor="start" x="573.5" y="-147.2" font-family="Helvetica,sans-Serif" font-size="11.00">stem_breakage</text>
<polygon fill="none" stroke="black" points="553.5,-117 553.5,-139 726.5,-139 726.5,-117 553.5,-117"/>
<image xlink:href="../../images/foreignKeys.png" width="11px" height="12px" preserveAspectRatio="xMinYMin meet" x="558.5" y="-134"/>
<text text-anchor="start" x="573.5" y="-125.2" font-family="Helvetica,sans-Serif" font-size="11.00">stem_form</text>
<polygon fill="none" stroke="black" points="553.5,-95 553.5,-117 726.5,-117 726.5,-95 553.5,-95"/>
<image xlink:href="../../images/foreignKeys.png" width="11px" height="12px" preserveAspectRatio="xMinYMin meet" x="558.5" y="-112"/>
<text text-anchor="start" x="573.5" y="-103.2" font-family="Helvetica,sans-Serif" font-size="11.00">pruning</text>
<polygon fill="none" stroke="black" points="553.5,-73 553.5,-95 726.5,-95 726.5,-73 553.5,-73"/>
<image xlink:href="../../images/foreignKeys.png" width="11px" height="12px" preserveAspectRatio="xMinYMin meet" x="558.5" y="-90"/>
<text text-anchor="start" x="573.5" y="-81.2" font-family="Helvetica,sans-Serif" font-size="11.00">stand_layer</text>
<polygon fill="none" stroke="black" points="553.5,-55 553.5,-73 726.5,-73 726.5,-55 553.5,-55"/>
<text text-anchor="start" x="556.5" y="-61.2" font-family="Helvetica,sans-Serif" font-size="11.00">...</text>
<polygon fill="#ffffff" stroke="transparent" points="553.5,-37 553.5,-55 726.5,-55 726.5,-37 553.5,-37"/>
<polygon fill="none" stroke="black" points="553.5,-37 553.5,-55 726.5,-55 726.5,-37 553.5,-37"/>
<polygon fill="#ffffff" stroke="transparent" points="554.5,-38 554.5,-54 610.5,-54 610.5,-38 554.5,-38"/>
<text text-anchor="start" x="556.5" y="-43.2" font-family="Helvetica,sans-Serif" font-size="11.00">&lt; 7</text>
<polygon fill="#ffffff" stroke="transparent" points="610.5,-38 610.5,-54 682.5,-54 682.5,-38 610.5,-38"/>
<text text-anchor="start" x="628" y="-43.2" font-family="Helvetica,sans-Serif" font-size="11.00">0 rows</text>
<polygon fill="#ffffff" stroke="transparent" points="682.5,-38 682.5,-54 725.5,-54 725.5,-38 682.5,-38"/>
<text text-anchor="start" x="715.5" y="-43.2" font-family="Helvetica,sans-Serif" font-size="11.00"> &#160;</text>
<polygon fill="black" stroke="black" points="610.5,-38 610.5,-54 610.5,-54 610.5,-38 610.5,-38"/>
<polygon fill="black" stroke="black" points="682.5,-38 682.5,-54 682.5,-54 682.5,-38 682.5,-38"/>
</a>
</g>
</g>
<!-- lookup_tree_status -->
<g id="node2" class="node">
<title>lookup_tree_status</title>
<g id="a_node2"><a xlink:href="../../tables/lookup_tree_status.html" xlink:title="lookup_tree_status" target="_top">
<polygon fill="#ffffff" stroke="transparent" points="8,-163 8,-317 504,-317 504,-163 8,-163"/>
<polygon fill="#f5f5f5" stroke="transparent" points="10,-293 10,-315 502,-315 502,-293 10,-293"/>
<polygon fill="none" stroke="black" points="10,-293 10,-315 502,-315 502,-293 10,-293"/>
<text text-anchor="start" x="15" y="-302.2" font-family="Helvetica,sans-Serif" font-weight="bold" font-size="11.00">lookup_tree_status</text>
<text text-anchor="start" x="460" y="-301.2" font-family="Helvetica,sans-Serif" font-size="11.00">[table]</text>
<polygon fill="none" stroke="black" points="10,-271 10,-293 169,-293 169,-271 10,-271"/>
<text text-anchor="start" x="30" y="-279.2" font-family="Helvetica,sans-Serif" font-size="11.00">name_de</text>
<polygon fill="none" stroke="black" points="169,-271 169,-293 502,-293 502,-271 169,-271"/>
<text text-anchor="start" x="172" y="-279.2" font-family="Helvetica,sans-Serif" font-size="11.00">varchar[150]</text>
<polygon fill="none" stroke="black" points="10,-249 10,-271 169,-271 169,-249 10,-249"/>
<text text-anchor="start" x="30" y="-257.2" font-family="Helvetica,sans-Serif" font-size="11.00">name_en</text>
<polygon fill="none" stroke="black" points="169,-249 169,-271 502,-271 502,-249 169,-249"/>
<text text-anchor="start" x="172" y="-257.2" font-family="Helvetica,sans-Serif" font-size="11.00">varchar[150]</text>
<polygon fill="none" stroke="black" points="10,-227 10,-249 169,-249 169,-227 10,-227"/>
<text text-anchor="start" x="30" y="-235.2" font-family="Helvetica,sans-Serif" font-size="11.00">interval</text>
<polygon fill="none" stroke="black" points="169,-227 169,-249 502,-249 502,-227 169,-227"/>
<text text-anchor="start" x="172" y="-235.2" font-family="Helvetica,sans-Serif" font-size="11.00">&quot;private_ci2027_001&quot;.&quot;_enum_interval_name&quot;[2147483647]</text>
<polygon fill="none" stroke="black" points="10,-205 10,-227 169,-227 169,-205 10,-205"/>
<text text-anchor="start" x="30" y="-213.2" font-family="Helvetica,sans-Serif" font-size="11.00">sort</text>
<polygon fill="none" stroke="black" points="169,-205 169,-227 502,-227 502,-205 169,-205"/>
<text text-anchor="start" x="172" y="-213.2" font-family="Helvetica,sans-Serif" font-size="11.00">int4[10]</text>
<polygon fill="#ffffff" stroke="transparent" points="10,-183 10,-205 169,-205 169,-183 10,-183"/>
<polygon fill="none" stroke="black" points="10,-183 10,-205 169,-205 169,-183 10,-183"/>
<text text-anchor="start" x="30" y="-191.2" font-family="Helvetica,sans-Serif" font-size="11.00">abbreviation</text>
<polygon fill="none" stroke="black" points="169,-183 169,-205 502,-205 502,-183 169,-183"/>
<text text-anchor="start" x="172" y="-191.2" font-family="Helvetica,sans-Serif" font-size="11.00">&quot;private_ci2027_001&quot;.&quot;enum_tree_status&quot;[2147483647]</text>
<polygon fill="#ffffff" stroke="transparent" points="10,-165 10,-183 502,-183 502,-165 10,-165"/>
<polygon fill="none" stroke="black" points="10,-165 10,-183 502,-183 502,-165 10,-165"/>
<polygon fill="#ffffff" stroke="transparent" points="11,-166 11,-182 169,-182 169,-166 11,-166"/>
<text text-anchor="start" x="13" y="-171.2" font-family="Helvetica,sans-Serif" font-size="11.00">&lt; 0</text>
<polygon fill="#ffffff" stroke="transparent" points="169,-166 169,-182 344,-182 344,-166 169,-166"/>
<text text-anchor="start" x="238" y="-171.2" font-family="Helvetica,sans-Serif" font-size="11.00">0 rows</text>
<polygon fill="#ffffff" stroke="transparent" points="344,-166 344,-182 501,-182 501,-166 344,-166"/>
<text text-anchor="start" x="479" y="-171.2" font-family="Helvetica,sans-Serif" font-size="11.00">1 &gt;</text>
<polygon fill="black" stroke="black" points="169,-166 169,-182 169,-182 169,-166 169,-166"/>
<polygon fill="black" stroke="black" points="344,-166 344,-182 344,-182 344,-166 344,-166"/>
<polygon fill="none" stroke="black" stroke-width="2" points="9,-164 9,-316 503,-316 503,-164 9,-164"/>
</a>
</g>
</g>
<!-- wzp_tree&#45;&gt;lookup_tree_status -->
<g id="edge1" class="edge">
<title>wzp_tree:w&#45;&gt;lookup_tree_status:e</title>
<path fill="none" stroke="black" d="M537.84,-194C526.41,-194 519.16,-194 503,-194"/>
<polygon fill="black" stroke="black" points="544.5,-194 552.5,-197.6 548.5,-194 552.5,-194 552.5,-194 552.5,-194 548.5,-194 552.5,-190.4 544.5,-194 544.5,-194"/>
<ellipse fill="none" stroke="black" cx="541.3" cy="-194" rx="3.2" ry="3.2"/>
</g>
</g>
</svg>
