<?xml version="1.0" encoding="UTF-8" standalone="no"?>
<!DOCTYPE svg PUBLIC "-//W3C//DTD SVG 1.1//EN"
 "http://www.w3.org/Graphics/SVG/1.1/DTD/svg11.dtd">
<!-- Generated by graphviz version 2.43.0 (0)
 -->
<!-- Title: oneDegreeRelationshipsDiagram Pages: 1 -->
<svg width="599pt" height="217pt"
 viewBox="0.00 0.00 599.00 217.00" xmlns="http://www.w3.org/2000/svg" xmlns:xlink="http://www.w3.org/1999/xlink">
<g id="graph0" class="graph" transform="scale(1 1) rotate(0) translate(4 213)">
<title>oneDegreeRelationshipsDiagram</title>
<polygon fill="#ffffff" stroke="transparent" points="-4,4 -4,-213 595,-213 595,4 -4,4"/>
<text text-anchor="middle" x="79.5" y="-7.2" font-family="Helvetica,sans-Serif" font-size="11.00">Generated by SchemaSpy</text>
<!-- edges -->
<g id="node1" class="node">
<title>edges</title>
<g id="a_node1"><a xlink:href="../../tables/edges.html" xlink:title="edges" target="_top">
<polygon fill="#ffffff" stroke="transparent" points="474,-37 474,-205 583,-205 583,-37 474,-37"/>
<polygon fill="#f5f5f5" stroke="transparent" points="474.5,-183 474.5,-205 583.5,-205 583.5,-183 474.5,-183"/>
<polygon fill="none" stroke="black" points="474.5,-183 474.5,-205 583.5,-205 583.5,-183 474.5,-183"/>
<text text-anchor="start" x="479.5" y="-192.2" font-family="Helvetica,sans-Serif" font-weight="bold" font-size="11.00">edges</text>
<text text-anchor="start" x="541.5" y="-191.2" font-family="Helvetica,sans-Serif" font-size="11.00">[table]</text>
<polygon fill="none" stroke="black" points="474.5,-161 474.5,-183 583.5,-183 583.5,-161 474.5,-161"/>
<image xlink:href="../../images/primaryKeys.png" width="11px" height="12px" preserveAspectRatio="xMinYMin meet" x="479.5" y="-178"/>
<text text-anchor="start" x="494.5" y="-169.2" font-family="Helvetica,sans-Serif" font-size="11.00">id</text>
<polygon fill="none" stroke="black" points="474.5,-139 474.5,-161 583.5,-161 583.5,-139 474.5,-139"/>
<image xlink:href="../../images/foreignKeys.png" width="11px" height="12px" preserveAspectRatio="xMinYMin meet" x="479.5" y="-156"/>
<text text-anchor="start" x="494.5" y="-147.2" font-family="Helvetica,sans-Serif" font-size="11.00">plot_id</text>
<polygon fill="none" stroke="black" points="474.5,-117 474.5,-139 583.5,-139 583.5,-117 474.5,-117"/>
<image xlink:href="../../images/foreignKeys.png" width="11px" height="12px" preserveAspectRatio="xMinYMin meet" x="479.5" y="-134"/>
<text text-anchor="start" x="494.5" y="-125.2" font-family="Helvetica,sans-Serif" font-size="11.00">edge_state</text>
<polygon fill="none" stroke="black" points="474.5,-95 474.5,-117 583.5,-117 583.5,-95 474.5,-95"/>
<image xlink:href="../../images/foreignKeys.png" width="11px" height="12px" preserveAspectRatio="xMinYMin meet" x="479.5" y="-112"/>
<text text-anchor="start" x="494.5" y="-103.2" font-family="Helvetica,sans-Serif" font-size="11.00">edge_type</text>
<polygon fill="none" stroke="black" points="474.5,-73 474.5,-95 583.5,-95 583.5,-73 474.5,-73"/>
<image xlink:href="../../images/foreignKeys.png" width="11px" height="12px" preserveAspectRatio="xMinYMin meet" x="479.5" y="-90"/>
<text text-anchor="start" x="494.5" y="-81.2" font-family="Helvetica,sans-Serif" font-size="11.00">terrain</text>
<polygon fill="none" stroke="black" points="474.5,-55 474.5,-73 583.5,-73 583.5,-55 474.5,-55"/>
<text text-anchor="start" x="477.5" y="-61.2" font-family="Helvetica,sans-Serif" font-size="11.00">...</text>
<polygon fill="#ffffff" stroke="transparent" points="474.5,-37 474.5,-55 583.5,-55 583.5,-37 474.5,-37"/>
<polygon fill="none" stroke="black" points="474.5,-37 474.5,-55 583.5,-55 583.5,-37 474.5,-37"/>
<polygon fill="#ffffff" stroke="transparent" points="475.5,-38 475.5,-54 507.5,-54 507.5,-38 475.5,-38"/>
<text text-anchor="start" x="477.5" y="-43.2" font-family="Helvetica,sans-Serif" font-size="11.00">&lt; 4</text>
<polygon fill="#ffffff" stroke="transparent" points="507.5,-38 507.5,-54 563.5,-54 563.5,-38 507.5,-38"/>
<text text-anchor="start" x="513.5" y="-43.2" font-family="Helvetica,sans-Serif" font-size="11.00">81 rows</text>
<polygon fill="#ffffff" stroke="transparent" points="563.5,-38 563.5,-54 582.5,-54 582.5,-38 563.5,-38"/>
<text text-anchor="start" x="572.5" y="-43.2" font-family="Helvetica,sans-Serif" font-size="11.00"> &#160;</text>
<polygon fill="black" stroke="black" points="507.5,-38 507.5,-54 507.5,-54 507.5,-38 507.5,-38"/>
<polygon fill="black" stroke="black" points="563.5,-38 563.5,-54 563.5,-54 563.5,-38 563.5,-38"/>
</a>
</g>
</g>
<!-- lookup_terrain -->
<g id="node2" class="node">
<title>lookup_terrain</title>
<g id="a_node2"><a xlink:href="../../tables/lookup_terrain.html" xlink:title="lookup_terrain" target="_top">
<polygon fill="#ffffff" stroke="transparent" points="8,-53 8,-185 425,-185 425,-53 8,-53"/>
<polygon fill="#f5f5f5" stroke="transparent" points="10.5,-161 10.5,-183 423.5,-183 423.5,-161 10.5,-161"/>
<polygon fill="none" stroke="black" points="10.5,-161 10.5,-183 423.5,-183 423.5,-161 10.5,-161"/>
<text text-anchor="start" x="15.5" y="-170.2" font-family="Helvetica,sans-Serif" font-weight="bold" font-size="11.00">lookup_terrain</text>
<text text-anchor="start" x="381.5" y="-169.2" font-family="Helvetica,sans-Serif" font-size="11.00">[table]</text>
<polygon fill="none" stroke="black" points="10.5,-139 10.5,-161 137.5,-161 137.5,-139 10.5,-139"/>
<text text-anchor="start" x="30.5" y="-147.2" font-family="Helvetica,sans-Serif" font-size="11.00">name_de</text>
<polygon fill="none" stroke="black" points="137.5,-139 137.5,-161 423.5,-161 423.5,-139 137.5,-139"/>
<text text-anchor="start" x="140.5" y="-147.2" font-family="Helvetica,sans-Serif" font-size="11.00">varchar[150]</text>
<polygon fill="none" stroke="black" points="10.5,-117 10.5,-139 137.5,-139 137.5,-117 10.5,-117"/>
<text text-anchor="start" x="30.5" y="-125.2" font-family="Helvetica,sans-Serif" font-size="11.00">name_en</text>
<polygon fill="none" stroke="black" points="137.5,-117 137.5,-139 423.5,-139 423.5,-117 137.5,-117"/>
<text text-anchor="start" x="140.5" y="-125.2" font-family="Helvetica,sans-Serif" font-size="11.00">varchar[150]</text>
<polygon fill="none" stroke="black" points="10.5,-95 10.5,-117 137.5,-117 137.5,-95 10.5,-95"/>
<text text-anchor="start" x="30.5" y="-103.2" font-family="Helvetica,sans-Serif" font-size="11.00">sort</text>
<polygon fill="none" stroke="black" points="137.5,-95 137.5,-117 423.5,-117 423.5,-95 137.5,-95"/>
<text text-anchor="start" x="140.5" y="-103.2" font-family="Helvetica,sans-Serif" font-size="11.00">int4[10]</text>
<polygon fill="#ffffff" stroke="transparent" points="10.5,-73 10.5,-95 137.5,-95 137.5,-73 10.5,-73"/>
<polygon fill="none" stroke="black" points="10.5,-73 10.5,-95 137.5,-95 137.5,-73 10.5,-73"/>
<text text-anchor="start" x="30.5" y="-81.2" font-family="Helvetica,sans-Serif" font-size="11.00">abbreviation</text>
<polygon fill="none" stroke="black" points="137.5,-73 137.5,-95 423.5,-95 423.5,-73 137.5,-73"/>
<text text-anchor="start" x="140.5" y="-81.2" font-family="Helvetica,sans-Serif" font-size="11.00">&quot;private_ci2027_001&quot;.&quot;enum_terrain&quot;[2147483647]</text>
<polygon fill="#ffffff" stroke="transparent" points="10.5,-55 10.5,-73 423.5,-73 423.5,-55 10.5,-55"/>
<polygon fill="none" stroke="black" points="10.5,-55 10.5,-73 423.5,-73 423.5,-55 10.5,-55"/>
<polygon fill="#ffffff" stroke="transparent" points="11.5,-56 11.5,-72 143.5,-72 143.5,-56 11.5,-56"/>
<text text-anchor="start" x="13.5" y="-61.2" font-family="Helvetica,sans-Serif" font-size="11.00">&lt; 0</text>
<polygon fill="#ffffff" stroke="transparent" points="143.5,-56 143.5,-72 291.5,-72 291.5,-56 143.5,-56"/>
<text text-anchor="start" x="199" y="-61.2" font-family="Helvetica,sans-Serif" font-size="11.00">0 rows</text>
<polygon fill="#ffffff" stroke="transparent" points="291.5,-56 291.5,-72 422.5,-72 422.5,-56 291.5,-56"/>
<text text-anchor="start" x="400.5" y="-61.2" font-family="Helvetica,sans-Serif" font-size="11.00">1 &gt;</text>
<polygon fill="black" stroke="black" points="143.5,-56 143.5,-72 143.5,-72 143.5,-56 143.5,-56"/>
<polygon fill="black" stroke="black" points="291.5,-56 291.5,-72 291.5,-72 291.5,-56 291.5,-56"/>
<polygon fill="none" stroke="black" stroke-width="2" points="9,-54 9,-184 424,-184 424,-54 9,-54"/>
</a>
</g>
</g>
<!-- edges&#45;&gt;lookup_terrain -->
<g id="edge1" class="edge">
<title>edges:w&#45;&gt;lookup_terrain:e</title>
<path fill="none" stroke="black" d="M458.99,-84C447.68,-84 440.49,-84 424.5,-84"/>
<polygon fill="black" stroke="black" points="465.5,-84 473.5,-87.6 469.5,-84 473.5,-84 473.5,-84 473.5,-84 469.5,-84 473.5,-80.4 465.5,-84 465.5,-84"/>
<ellipse fill="none" stroke="black" cx="462.3" cy="-84" rx="3.2" ry="3.2"/>
</g>
</g>
</svg>
