<?xml version="1.0" encoding="UTF-8" standalone="no"?>
<!DOCTYPE svg PUBLIC "-//W3C//DTD SVG 1.1//EN"
 "http://www.w3.org/Graphics/SVG/1.1/DTD/svg11.dtd">
<!-- Generated by graphviz version 2.43.0 (0)
 -->
<!-- Title: twoDegreesRelationshipsDiagram Pages: 1 -->
<svg width="671pt" height="440pt"
 viewBox="0.00 0.00 671.00 440.00" xmlns="http://www.w3.org/2000/svg" xmlns:xlink="http://www.w3.org/1999/xlink">
<g id="graph0" class="graph" transform="scale(1 1) rotate(0) translate(4 436)">
<title>twoDegreesRelationshipsDiagram</title>
<polygon fill="#ffffff" stroke="transparent" points="-4,4 -4,-436 667,-436 667,4 -4,4"/>
<text text-anchor="middle" x="79.5" y="-7.2" font-family="Helvetica,sans-Serif" font-size="11.00">Generated by SchemaSpy</text>
<!-- edges -->
<g id="node1" class="node">
<title>edges</title>
<g id="a_node1"><a xlink:href="../../tables/edges.html" xlink:title="edges" target="_top">
<polygon fill="#ffffff" stroke="transparent" points="546,-152 546,-320 655,-320 655,-152 546,-152"/>
<polygon fill="#f5f5f5" stroke="transparent" points="546.5,-298 546.5,-320 655.5,-320 655.5,-298 546.5,-298"/>
<polygon fill="none" stroke="black" points="546.5,-298 546.5,-320 655.5,-320 655.5,-298 546.5,-298"/>
<text text-anchor="start" x="551.5" y="-307.2" font-family="Helvetica,sans-Serif" font-weight="bold" font-size="11.00">edges</text>
<text text-anchor="start" x="613.5" y="-306.2" font-family="Helvetica,sans-Serif" font-size="11.00">[table]</text>
<polygon fill="none" stroke="black" points="546.5,-276 546.5,-298 655.5,-298 655.5,-276 546.5,-276"/>
<image xlink:href="../../images/primaryKeys.png" width="11px" height="12px" preserveAspectRatio="xMinYMin meet" x="551.5" y="-293"/>
<text text-anchor="start" x="566.5" y="-284.2" font-family="Helvetica,sans-Serif" font-size="11.00">id</text>
<polygon fill="none" stroke="black" points="546.5,-254 546.5,-276 655.5,-276 655.5,-254 546.5,-254"/>
<image xlink:href="../../images/foreignKeys.png" width="11px" height="12px" preserveAspectRatio="xMinYMin meet" x="551.5" y="-271"/>
<text text-anchor="start" x="566.5" y="-262.2" font-family="Helvetica,sans-Serif" font-size="11.00">plot_id</text>
<polygon fill="none" stroke="black" points="546.5,-232 546.5,-254 655.5,-254 655.5,-232 546.5,-232"/>
<image xlink:href="../../images/foreignKeys.png" width="11px" height="12px" preserveAspectRatio="xMinYMin meet" x="551.5" y="-249"/>
<text text-anchor="start" x="566.5" y="-240.2" font-family="Helvetica,sans-Serif" font-size="11.00">edge_status</text>
<polygon fill="none" stroke="black" points="546.5,-210 546.5,-232 655.5,-232 655.5,-210 546.5,-210"/>
<image xlink:href="../../images/foreignKeys.png" width="11px" height="12px" preserveAspectRatio="xMinYMin meet" x="551.5" y="-227"/>
<text text-anchor="start" x="566.5" y="-218.2" font-family="Helvetica,sans-Serif" font-size="11.00">edge_type</text>
<polygon fill="none" stroke="black" points="546.5,-188 546.5,-210 655.5,-210 655.5,-188 546.5,-188"/>
<image xlink:href="../../images/foreignKeys.png" width="11px" height="12px" preserveAspectRatio="xMinYMin meet" x="551.5" y="-205"/>
<text text-anchor="start" x="566.5" y="-196.2" font-family="Helvetica,sans-Serif" font-size="11.00">terrain</text>
<polygon fill="none" stroke="black" points="546.5,-170 546.5,-188 655.5,-188 655.5,-170 546.5,-170"/>
<text text-anchor="start" x="549.5" y="-176.2" font-family="Helvetica,sans-Serif" font-size="11.00">...</text>
<polygon fill="#ffffff" stroke="transparent" points="546.5,-152 546.5,-170 655.5,-170 655.5,-152 546.5,-152"/>
<polygon fill="none" stroke="black" points="546.5,-152 546.5,-170 655.5,-170 655.5,-152 546.5,-152"/>
<polygon fill="#ffffff" stroke="transparent" points="547.5,-153 547.5,-169 581.5,-169 581.5,-153 547.5,-153"/>
<text text-anchor="start" x="549.5" y="-158.2" font-family="Helvetica,sans-Serif" font-size="11.00">&lt; 4</text>
<polygon fill="#ffffff" stroke="transparent" points="581.5,-153 581.5,-169 632.5,-169 632.5,-153 581.5,-153"/>
<text text-anchor="start" x="588.5" y="-158.2" font-family="Helvetica,sans-Serif" font-size="11.00">0 rows</text>
<polygon fill="#ffffff" stroke="transparent" points="632.5,-153 632.5,-169 654.5,-169 654.5,-153 632.5,-153"/>
<text text-anchor="start" x="644.5" y="-158.2" font-family="Helvetica,sans-Serif" font-size="11.00"> &#160;</text>
<polygon fill="black" stroke="black" points="581.5,-153 581.5,-169 581.5,-169 581.5,-153 581.5,-153"/>
<polygon fill="black" stroke="black" points="632.5,-153 632.5,-169 632.5,-169 632.5,-153 632.5,-153"/>
</a>
</g>
</g>
<!-- lookup_edge_status -->
<g id="node2" class="node">
<title>lookup_edge_status</title>
<g id="a_node2"><a xlink:href="../../tables/lookup_edge_status.html" xlink:title="lookup_edge_status" target="_top">
<polygon fill="#ffffff" stroke="transparent" points="157,-291 157,-349 348,-349 348,-291 157,-291"/>
<polygon fill="#f5f5f5" stroke="transparent" points="157.5,-327 157.5,-349 348.5,-349 348.5,-327 157.5,-327"/>
<polygon fill="none" stroke="black" points="157.5,-327 157.5,-349 348.5,-349 348.5,-327 157.5,-327"/>
<text text-anchor="start" x="162.5" y="-336.2" font-family="Helvetica,sans-Serif" font-weight="bold" font-size="11.00">lookup_edge_status</text>
<text text-anchor="start" x="306.5" y="-335.2" font-family="Helvetica,sans-Serif" font-size="11.00">[table]</text>
<polygon fill="none" stroke="black" points="157.5,-309 157.5,-327 348.5,-327 348.5,-309 157.5,-309"/>
<text text-anchor="start" x="160.5" y="-315.2" font-family="Helvetica,sans-Serif" font-size="11.00">...</text>
<polygon fill="#ffffff" stroke="transparent" points="157.5,-291 157.5,-309 348.5,-309 348.5,-291 157.5,-291"/>
<polygon fill="none" stroke="black" points="157.5,-291 157.5,-309 348.5,-309 348.5,-291 157.5,-291"/>
<polygon fill="#ffffff" stroke="transparent" points="158.5,-292 158.5,-308 208.5,-308 208.5,-292 158.5,-292"/>
<text text-anchor="start" x="160.5" y="-297.2" font-family="Helvetica,sans-Serif" font-size="11.00"> &#160;</text>
<polygon fill="#ffffff" stroke="transparent" points="208.5,-292 208.5,-308 286.5,-308 286.5,-292 208.5,-292"/>
<text text-anchor="start" x="229" y="-297.2" font-family="Helvetica,sans-Serif" font-size="11.00">0 rows</text>
<polygon fill="#ffffff" stroke="transparent" points="286.5,-292 286.5,-308 347.5,-308 347.5,-292 286.5,-292"/>
<text text-anchor="start" x="325.5" y="-297.2" font-family="Helvetica,sans-Serif" font-size="11.00">1 &gt;</text>
<polygon fill="black" stroke="black" points="208.5,-292 208.5,-308 208.5,-308 208.5,-292 208.5,-292"/>
<polygon fill="black" stroke="black" points="286.5,-292 286.5,-308 286.5,-308 286.5,-292 286.5,-292"/>
</a>
</g>
</g>
<!-- edges&#45;&gt;lookup_edge_status -->
<g id="edge1" class="edge">
<title>edges:w&#45;&gt;lookup_edge_status:e</title>
<path fill="none" stroke="black" d="M531.51,-247.54C522.03,-255.59 521.13,-272.32 505,-281 442.44,-314.66 420.54,-318 349.5,-318"/>
<polygon fill="black" stroke="black" points="537.89,-245.47 546.61,-246.42 541.7,-244.24 545.5,-243 545.5,-243 545.5,-243 541.7,-244.24 544.39,-239.58 537.89,-245.47 537.89,-245.47"/>
<ellipse fill="none" stroke="black" cx="534.85" cy="-246.46" rx="3.2" ry="3.2"/>
</g>
<!-- lookup_edge_type -->
<g id="node3" class="node">
<title>lookup_edge_type</title>
<g id="a_node3"><a xlink:href="../../tables/lookup_edge_type.html" xlink:title="lookup_edge_type" target="_top">
<polygon fill="#ffffff" stroke="transparent" points="8,-116 8,-270 497,-270 497,-116 8,-116"/>
<polygon fill="#f5f5f5" stroke="transparent" points="10.5,-246 10.5,-268 495.5,-268 495.5,-246 10.5,-246"/>
<polygon fill="none" stroke="black" points="10.5,-246 10.5,-268 495.5,-268 495.5,-246 10.5,-246"/>
<text text-anchor="start" x="15.5" y="-255.2" font-family="Helvetica,sans-Serif" font-weight="bold" font-size="11.00">lookup_edge_type</text>
<text text-anchor="start" x="453.5" y="-254.2" font-family="Helvetica,sans-Serif" font-size="11.00">[table]</text>
<polygon fill="none" stroke="black" points="10.5,-224 10.5,-246 162.5,-246 162.5,-224 10.5,-224"/>
<text text-anchor="start" x="30.5" y="-232.2" font-family="Helvetica,sans-Serif" font-size="11.00">name_de</text>
<polygon fill="none" stroke="black" points="162.5,-224 162.5,-246 495.5,-246 495.5,-224 162.5,-224"/>
<text text-anchor="start" x="165.5" y="-232.2" font-family="Helvetica,sans-Serif" font-size="11.00">varchar[150]</text>
<polygon fill="none" stroke="black" points="10.5,-202 10.5,-224 162.5,-224 162.5,-202 10.5,-202"/>
<text text-anchor="start" x="30.5" y="-210.2" font-family="Helvetica,sans-Serif" font-size="11.00">name_en</text>
<polygon fill="none" stroke="black" points="162.5,-202 162.5,-224 495.5,-224 495.5,-202 162.5,-202"/>
<text text-anchor="start" x="165.5" y="-210.2" font-family="Helvetica,sans-Serif" font-size="11.00">varchar[150]</text>
<polygon fill="none" stroke="black" points="10.5,-180 10.5,-202 162.5,-202 162.5,-180 10.5,-180"/>
<text text-anchor="start" x="30.5" y="-188.2" font-family="Helvetica,sans-Serif" font-size="11.00">interval</text>
<polygon fill="none" stroke="black" points="162.5,-180 162.5,-202 495.5,-202 495.5,-180 162.5,-180"/>
<text text-anchor="start" x="165.5" y="-188.2" font-family="Helvetica,sans-Serif" font-size="11.00">&quot;private_ci2027_001&quot;.&quot;_enum_interval_name&quot;[2147483647]</text>
<polygon fill="none" stroke="black" points="10.5,-158 10.5,-180 162.5,-180 162.5,-158 10.5,-158"/>
<text text-anchor="start" x="30.5" y="-166.2" font-family="Helvetica,sans-Serif" font-size="11.00">sort</text>
<polygon fill="none" stroke="black" points="162.5,-158 162.5,-180 495.5,-180 495.5,-158 162.5,-158"/>
<text text-anchor="start" x="165.5" y="-166.2" font-family="Helvetica,sans-Serif" font-size="11.00">int4[10]</text>
<polygon fill="#ffffff" stroke="transparent" points="10.5,-136 10.5,-158 162.5,-158 162.5,-136 10.5,-136"/>
<polygon fill="none" stroke="black" points="10.5,-136 10.5,-158 162.5,-158 162.5,-136 10.5,-136"/>
<text text-anchor="start" x="30.5" y="-144.2" font-family="Helvetica,sans-Serif" font-size="11.00">abbreviation</text>
<polygon fill="none" stroke="black" points="162.5,-136 162.5,-158 495.5,-158 495.5,-136 162.5,-136"/>
<text text-anchor="start" x="165.5" y="-144.2" font-family="Helvetica,sans-Serif" font-size="11.00">&quot;private_ci2027_001&quot;.&quot;enum_edge_type&quot;[2147483647]</text>
<polygon fill="#ffffff" stroke="transparent" points="10.5,-118 10.5,-136 495.5,-136 495.5,-118 10.5,-118"/>
<polygon fill="none" stroke="black" points="10.5,-118 10.5,-136 495.5,-136 495.5,-118 10.5,-118"/>
<polygon fill="#ffffff" stroke="transparent" points="11.5,-119 11.5,-135 167.5,-135 167.5,-119 11.5,-119"/>
<text text-anchor="start" x="13.5" y="-124.2" font-family="Helvetica,sans-Serif" font-size="11.00">&lt; 0</text>
<polygon fill="#ffffff" stroke="transparent" points="167.5,-119 167.5,-135 339.5,-135 339.5,-119 167.5,-119"/>
<text text-anchor="start" x="235" y="-124.2" font-family="Helvetica,sans-Serif" font-size="11.00">0 rows</text>
<polygon fill="#ffffff" stroke="transparent" points="339.5,-119 339.5,-135 494.5,-135 494.5,-119 339.5,-119"/>
<text text-anchor="start" x="472.5" y="-124.2" font-family="Helvetica,sans-Serif" font-size="11.00">1 &gt;</text>
<polygon fill="black" stroke="black" points="167.5,-119 167.5,-135 167.5,-135 167.5,-119 167.5,-119"/>
<polygon fill="black" stroke="black" points="339.5,-119 339.5,-135 339.5,-135 339.5,-119 339.5,-119"/>
<polygon fill="none" stroke="black" stroke-width="2" points="9,-117 9,-269 496,-269 496,-117 9,-117"/>
</a>
</g>
</g>
<!-- edges&#45;&gt;lookup_edge_type -->
<g id="edge2" class="edge">
<title>edges:w&#45;&gt;lookup_edge_type:e</title>
<path fill="none" stroke="black" d="M531.81,-216.37C513.55,-200.17 529.94,-147 496.5,-147"/>
<polygon fill="black" stroke="black" points="537.92,-218.44 544.35,-224.41 541.71,-219.72 545.5,-221 545.5,-221 545.5,-221 541.71,-219.72 546.65,-217.59 537.92,-218.44 537.92,-218.44"/>
<ellipse fill="none" stroke="black" cx="534.89" cy="-217.41" rx="3.2" ry="3.2"/>
</g>
<!-- plot -->
<g id="node4" class="node">
<title>plot</title>
<g id="a_node4"><a xlink:href="../../tables/plot.html" xlink:title="plot" target="_top">
<polygon fill="#ffffff" stroke="transparent" points="203.5,-370 203.5,-428 301.5,-428 301.5,-370 203.5,-370"/>
<polygon fill="#f5f5f5" stroke="transparent" points="203.5,-406 203.5,-428 301.5,-428 301.5,-406 203.5,-406"/>
<polygon fill="none" stroke="black" points="203.5,-406 203.5,-428 301.5,-428 301.5,-406 203.5,-406"/>
<text text-anchor="start" x="208" y="-415.2" font-family="Helvetica,sans-Serif" font-weight="bold" font-size="11.00">plot</text>
<text text-anchor="start" x="259.5" y="-414.2" font-family="Helvetica,sans-Serif" font-size="11.00">[table]</text>
<polygon fill="none" stroke="black" points="203.5,-388 203.5,-406 301.5,-406 301.5,-388 203.5,-388"/>
<text text-anchor="start" x="206.5" y="-394.2" font-family="Helvetica,sans-Serif" font-size="11.00">...</text>
<polygon fill="#ffffff" stroke="transparent" points="203.5,-370 203.5,-388 301.5,-388 301.5,-370 203.5,-370"/>
<polygon fill="none" stroke="black" points="203.5,-370 203.5,-388 301.5,-388 301.5,-370 203.5,-370"/>
<polygon fill="#ffffff" stroke="transparent" points="204.5,-371 204.5,-387 235.5,-387 235.5,-371 204.5,-371"/>
<text text-anchor="start" x="206.5" y="-376.2" font-family="Helvetica,sans-Serif" font-size="11.00">&lt; 16</text>
<polygon fill="#ffffff" stroke="transparent" points="235.5,-371 235.5,-387 276.5,-387 276.5,-371 235.5,-371"/>
<text text-anchor="start" x="237.5" y="-376.2" font-family="Helvetica,sans-Serif" font-size="11.00">0 rows</text>
<polygon fill="#ffffff" stroke="transparent" points="276.5,-371 276.5,-387 300.5,-387 300.5,-371 276.5,-371"/>
<text text-anchor="start" x="278.5" y="-376.2" font-family="Helvetica,sans-Serif" font-size="11.00">7 &gt;</text>
<polygon fill="black" stroke="black" points="235.5,-371 235.5,-387 235.5,-387 235.5,-371 235.5,-371"/>
<polygon fill="black" stroke="black" points="276.5,-371 276.5,-387 276.5,-387 276.5,-371 276.5,-371"/>
</a>
</g>
</g>
<!-- edges&#45;&gt;plot -->
<g id="edge3" class="edge">
<title>edges:w&#45;&gt;plot:e</title>
<path fill="none" stroke="black" d="M531.44,-268.27C509.2,-281.96 536.09,-335.15 505,-360 433.53,-417.12 393.99,-397 302.5,-397"/>
<polygon fill="black" stroke="black" points="537.71,-266.81 546.31,-268.51 541.6,-265.91 545.5,-265 545.5,-265 545.5,-265 541.6,-265.91 544.69,-261.49 537.71,-266.81 537.71,-266.81"/>
<ellipse fill="none" stroke="black" cx="534.59" cy="-267.53" rx="3.2" ry="3.2"/>
</g>
<!-- lookup_terrain -->
<g id="node5" class="node">
<title>lookup_terrain</title>
<g id="a_node5"><a xlink:href="../../tables/lookup_terrain.html" xlink:title="lookup_terrain" target="_top">
<polygon fill="#ffffff" stroke="transparent" points="176,-37 176,-95 329,-95 329,-37 176,-37"/>
<polygon fill="#f5f5f5" stroke="transparent" points="176.5,-73 176.5,-95 329.5,-95 329.5,-73 176.5,-73"/>
<polygon fill="none" stroke="black" points="176.5,-73 176.5,-95 329.5,-95 329.5,-73 176.5,-73"/>
<text text-anchor="start" x="181.5" y="-82.2" font-family="Helvetica,sans-Serif" font-weight="bold" font-size="11.00">lookup_terrain</text>
<text text-anchor="start" x="287.5" y="-81.2" font-family="Helvetica,sans-Serif" font-size="11.00">[table]</text>
<polygon fill="none" stroke="black" points="176.5,-55 176.5,-73 329.5,-73 329.5,-55 176.5,-55"/>
<text text-anchor="start" x="179.5" y="-61.2" font-family="Helvetica,sans-Serif" font-size="11.00">...</text>
<polygon fill="#ffffff" stroke="transparent" points="176.5,-37 176.5,-55 329.5,-55 329.5,-37 176.5,-37"/>
<polygon fill="none" stroke="black" points="176.5,-37 176.5,-55 329.5,-55 329.5,-37 176.5,-37"/>
<polygon fill="#ffffff" stroke="transparent" points="177.5,-38 177.5,-54 214.5,-54 214.5,-38 177.5,-38"/>
<text text-anchor="start" x="179.5" y="-43.2" font-family="Helvetica,sans-Serif" font-size="11.00"> &#160;</text>
<polygon fill="#ffffff" stroke="transparent" points="214.5,-38 214.5,-54 280.5,-54 280.5,-38 214.5,-38"/>
<text text-anchor="start" x="229" y="-43.2" font-family="Helvetica,sans-Serif" font-size="11.00">0 rows</text>
<polygon fill="#ffffff" stroke="transparent" points="280.5,-38 280.5,-54 328.5,-54 328.5,-38 280.5,-38"/>
<text text-anchor="start" x="306.5" y="-43.2" font-family="Helvetica,sans-Serif" font-size="11.00">1 &gt;</text>
<polygon fill="black" stroke="black" points="214.5,-38 214.5,-54 214.5,-54 214.5,-38 214.5,-38"/>
<polygon fill="black" stroke="black" points="280.5,-38 280.5,-54 280.5,-54 280.5,-38 280.5,-38"/>
</a>
</g>
</g>
<!-- edges&#45;&gt;lookup_terrain -->
<g id="edge4" class="edge">
<title>edges:w&#45;&gt;lookup_terrain:e</title>
<path fill="none" stroke="black" d="M531.33,-195.66C509.74,-182.15 534.81,-131.02 505,-106 443.89,-54.72 410.27,-64 330.5,-64"/>
<polygon fill="black" stroke="black" points="537.71,-197.17 544.67,-202.5 541.61,-198.08 545.5,-199 545.5,-199 545.5,-199 541.61,-198.08 546.33,-195.5 537.71,-197.17 537.71,-197.17"/>
<ellipse fill="none" stroke="black" cx="534.6" cy="-196.43" rx="3.2" ry="3.2"/>
</g>
</g>
</svg>
