<?xml version="1.0" encoding="UTF-8" standalone="no"?>
<!DOCTYPE svg PUBLIC "-//W3C//DTD SVG 1.1//EN"
 "http://www.w3.org/Graphics/SVG/1.1/DTD/svg11.dtd">
<!-- Generated by graphviz version 2.43.0 (0)
 -->
<!-- Title: oneDegreeRelationshipsDiagram Pages: 1 -->
<svg width="645pt" height="219pt"
 viewBox="0.00 0.00 645.00 219.00" xmlns="http://www.w3.org/2000/svg" xmlns:xlink="http://www.w3.org/1999/xlink">
<g id="graph0" class="graph" transform="scale(1 1) rotate(0) translate(4 215)">
<title>oneDegreeRelationshipsDiagram</title>
<polygon fill="#ffffff" stroke="transparent" points="-4,4 -4,-215 641,-215 641,4 -4,4"/>
<text text-anchor="middle" x="79.5" y="-7.2" font-family="Helvetica,sans-Serif" font-size="11.00">Generated by SchemaSpy</text>
<!-- edges -->
<g id="node1" class="node">
<title>edges</title>
<g id="a_node1"><a xlink:href="../../tables/edges.html" xlink:title="edges" target="_top">
<polygon fill="#ffffff" stroke="transparent" points="520,-37 520,-205 629,-205 629,-37 520,-37"/>
<polygon fill="#f5f5f5" stroke="transparent" points="520.5,-183 520.5,-205 629.5,-205 629.5,-183 520.5,-183"/>
<polygon fill="none" stroke="black" points="520.5,-183 520.5,-205 629.5,-205 629.5,-183 520.5,-183"/>
<text text-anchor="start" x="525.5" y="-192.2" font-family="Helvetica,sans-Serif" font-weight="bold" font-size="11.00">edges</text>
<text text-anchor="start" x="587.5" y="-191.2" font-family="Helvetica,sans-Serif" font-size="11.00">[table]</text>
<polygon fill="none" stroke="black" points="520.5,-161 520.5,-183 629.5,-183 629.5,-161 520.5,-161"/>
<image xlink:href="../../images/primaryKeys.png" width="11px" height="12px" preserveAspectRatio="xMinYMin meet" x="525.5" y="-178"/>
<text text-anchor="start" x="540.5" y="-169.2" font-family="Helvetica,sans-Serif" font-size="11.00">id</text>
<polygon fill="none" stroke="black" points="520.5,-139 520.5,-161 629.5,-161 629.5,-139 520.5,-139"/>
<image xlink:href="../../images/foreignKeys.png" width="11px" height="12px" preserveAspectRatio="xMinYMin meet" x="525.5" y="-156"/>
<text text-anchor="start" x="540.5" y="-147.2" font-family="Helvetica,sans-Serif" font-size="11.00">plot_id</text>
<polygon fill="none" stroke="black" points="520.5,-117 520.5,-139 629.5,-139 629.5,-117 520.5,-117"/>
<image xlink:href="../../images/foreignKeys.png" width="11px" height="12px" preserveAspectRatio="xMinYMin meet" x="525.5" y="-134"/>
<text text-anchor="start" x="540.5" y="-125.2" font-family="Helvetica,sans-Serif" font-size="11.00">edge_state</text>
<polygon fill="none" stroke="black" points="520.5,-95 520.5,-117 629.5,-117 629.5,-95 520.5,-95"/>
<image xlink:href="../../images/foreignKeys.png" width="11px" height="12px" preserveAspectRatio="xMinYMin meet" x="525.5" y="-112"/>
<text text-anchor="start" x="540.5" y="-103.2" font-family="Helvetica,sans-Serif" font-size="11.00">edge_type</text>
<polygon fill="none" stroke="black" points="520.5,-73 520.5,-95 629.5,-95 629.5,-73 520.5,-73"/>
<image xlink:href="../../images/foreignKeys.png" width="11px" height="12px" preserveAspectRatio="xMinYMin meet" x="525.5" y="-90"/>
<text text-anchor="start" x="540.5" y="-81.2" font-family="Helvetica,sans-Serif" font-size="11.00">terrain</text>
<polygon fill="none" stroke="black" points="520.5,-55 520.5,-73 629.5,-73 629.5,-55 520.5,-55"/>
<text text-anchor="start" x="523.5" y="-61.2" font-family="Helvetica,sans-Serif" font-size="11.00">...</text>
<polygon fill="#ffffff" stroke="transparent" points="520.5,-37 520.5,-55 629.5,-55 629.5,-37 520.5,-37"/>
<polygon fill="none" stroke="black" points="520.5,-37 520.5,-55 629.5,-55 629.5,-37 520.5,-37"/>
<polygon fill="#ffffff" stroke="transparent" points="521.5,-38 521.5,-54 553.5,-54 553.5,-38 521.5,-38"/>
<text text-anchor="start" x="523.5" y="-43.2" font-family="Helvetica,sans-Serif" font-size="11.00">&lt; 4</text>
<polygon fill="#ffffff" stroke="transparent" points="553.5,-38 553.5,-54 609.5,-54 609.5,-38 553.5,-38"/>
<text text-anchor="start" x="559.5" y="-43.2" font-family="Helvetica,sans-Serif" font-size="11.00">81 rows</text>
<polygon fill="#ffffff" stroke="transparent" points="609.5,-38 609.5,-54 628.5,-54 628.5,-38 609.5,-38"/>
<text text-anchor="start" x="618.5" y="-43.2" font-family="Helvetica,sans-Serif" font-size="11.00"> &#160;</text>
<polygon fill="black" stroke="black" points="553.5,-38 553.5,-54 553.5,-54 553.5,-38 553.5,-38"/>
<polygon fill="black" stroke="black" points="609.5,-38 609.5,-54 609.5,-54 609.5,-38 609.5,-38"/>
</a>
</g>
</g>
<!-- lookup_edge_type -->
<g id="node2" class="node">
<title>lookup_edge_type</title>
<g id="a_node2"><a xlink:href="../../tables/lookup_edge_type.html" xlink:title="lookup_edge_type" target="_top">
<polygon fill="#ffffff" stroke="transparent" points="8,-75 8,-207 471,-207 471,-75 8,-75"/>
<polygon fill="#f5f5f5" stroke="transparent" points="10.5,-183 10.5,-205 469.5,-205 469.5,-183 10.5,-183"/>
<polygon fill="none" stroke="black" points="10.5,-183 10.5,-205 469.5,-205 469.5,-183 10.5,-183"/>
<text text-anchor="start" x="15.5" y="-192.2" font-family="Helvetica,sans-Serif" font-weight="bold" font-size="11.00">lookup_edge_type</text>
<text text-anchor="start" x="427.5" y="-191.2" font-family="Helvetica,sans-Serif" font-size="11.00">[table]</text>
<polygon fill="none" stroke="black" points="10.5,-161 10.5,-183 162.5,-183 162.5,-161 10.5,-161"/>
<text text-anchor="start" x="30.5" y="-169.2" font-family="Helvetica,sans-Serif" font-size="11.00">name_de</text>
<polygon fill="none" stroke="black" points="162.5,-161 162.5,-183 469.5,-183 469.5,-161 162.5,-161"/>
<text text-anchor="start" x="165.5" y="-169.2" font-family="Helvetica,sans-Serif" font-size="11.00">varchar[150]</text>
<polygon fill="none" stroke="black" points="10.5,-139 10.5,-161 162.5,-161 162.5,-139 10.5,-139"/>
<text text-anchor="start" x="30.5" y="-147.2" font-family="Helvetica,sans-Serif" font-size="11.00">name_en</text>
<polygon fill="none" stroke="black" points="162.5,-139 162.5,-161 469.5,-161 469.5,-139 162.5,-139"/>
<text text-anchor="start" x="165.5" y="-147.2" font-family="Helvetica,sans-Serif" font-size="11.00">varchar[150]</text>
<polygon fill="none" stroke="black" points="10.5,-117 10.5,-139 162.5,-139 162.5,-117 10.5,-117"/>
<text text-anchor="start" x="30.5" y="-125.2" font-family="Helvetica,sans-Serif" font-size="11.00">sort</text>
<polygon fill="none" stroke="black" points="162.5,-117 162.5,-139 469.5,-139 469.5,-117 162.5,-117"/>
<text text-anchor="start" x="165.5" y="-125.2" font-family="Helvetica,sans-Serif" font-size="11.00">int4[10]</text>
<polygon fill="#ffffff" stroke="transparent" points="10.5,-95 10.5,-117 162.5,-117 162.5,-95 10.5,-95"/>
<polygon fill="none" stroke="black" points="10.5,-95 10.5,-117 162.5,-117 162.5,-95 10.5,-95"/>
<text text-anchor="start" x="30.5" y="-103.2" font-family="Helvetica,sans-Serif" font-size="11.00">abbreviation</text>
<polygon fill="none" stroke="black" points="162.5,-95 162.5,-117 469.5,-117 469.5,-95 162.5,-95"/>
<text text-anchor="start" x="165.5" y="-103.2" font-family="Helvetica,sans-Serif" font-size="11.00">&quot;private_ci2027_001&quot;.&quot;enum_edge_type&quot;[2147483647]</text>
<polygon fill="#ffffff" stroke="transparent" points="10.5,-77 10.5,-95 469.5,-95 469.5,-77 10.5,-77"/>
<polygon fill="none" stroke="black" points="10.5,-77 10.5,-95 469.5,-95 469.5,-77 10.5,-77"/>
<polygon fill="#ffffff" stroke="transparent" points="11.5,-78 11.5,-94 158.5,-94 158.5,-78 11.5,-78"/>
<text text-anchor="start" x="13.5" y="-83.2" font-family="Helvetica,sans-Serif" font-size="11.00">&lt; 0</text>
<polygon fill="#ffffff" stroke="transparent" points="158.5,-78 158.5,-94 322.5,-94 322.5,-78 158.5,-78"/>
<text text-anchor="start" x="222" y="-83.2" font-family="Helvetica,sans-Serif" font-size="11.00">0 rows</text>
<polygon fill="#ffffff" stroke="transparent" points="322.5,-78 322.5,-94 468.5,-94 468.5,-78 322.5,-78"/>
<text text-anchor="start" x="446.5" y="-83.2" font-family="Helvetica,sans-Serif" font-size="11.00">1 &gt;</text>
<polygon fill="black" stroke="black" points="158.5,-78 158.5,-94 158.5,-94 158.5,-78 158.5,-78"/>
<polygon fill="black" stroke="black" points="322.5,-78 322.5,-94 322.5,-94 322.5,-78 322.5,-78"/>
<polygon fill="none" stroke="black" stroke-width="2" points="9,-76 9,-206 470,-206 470,-76 9,-76"/>
</a>
</g>
</g>
<!-- edges&#45;&gt;lookup_edge_type -->
<g id="edge1" class="edge">
<title>edges:w&#45;&gt;lookup_edge_type:e</title>
<path fill="none" stroke="black" d="M504.99,-106C493.68,-106 486.49,-106 470.5,-106"/>
<polygon fill="black" stroke="black" points="511.5,-106 519.5,-109.6 515.5,-106 519.5,-106 519.5,-106 519.5,-106 515.5,-106 519.5,-102.4 511.5,-106 511.5,-106"/>
<ellipse fill="none" stroke="black" cx="508.3" cy="-106" rx="3.2" ry="3.2"/>
</g>
</g>
</svg>
