<?xml version="1.0" encoding="UTF-8" standalone="no"?>
<!DOCTYPE svg PUBLIC "-//W3C//DTD SVG 1.1//EN"
 "http://www.w3.org/Graphics/SVG/1.1/DTD/svg11.dtd">
<!-- Generated by graphviz version 2.43.0 (0)
 -->
<!-- Title: oneDegreeRelationshipsDiagram Pages: 1 -->
<svg width="778pt" height="219pt"
 viewBox="0.00 0.00 778.00 219.00" xmlns="http://www.w3.org/2000/svg" xmlns:xlink="http://www.w3.org/1999/xlink">
<g id="graph0" class="graph" transform="scale(1 1) rotate(0) translate(4 215)">
<title>oneDegreeRelationshipsDiagram</title>
<polygon fill="#ffffff" stroke="transparent" points="-4,4 -4,-215 774,-215 774,4 -4,4"/>
<text text-anchor="middle" x="79.5" y="-7.2" font-family="Helvetica,sans-Serif" font-size="11.00">Generated by SchemaSpy</text>
<!-- deadwood -->
<g id="node1" class="node">
<title>deadwood</title>
<g id="a_node1"><a xlink:href="../../tables/deadwood.html" xlink:title="deadwood" target="_top">
<polygon fill="#ffffff" stroke="transparent" points="600,-37 600,-205 762,-205 762,-37 600,-37"/>
<polygon fill="#f5f5f5" stroke="transparent" points="600,-183 600,-205 762,-205 762,-183 600,-183"/>
<polygon fill="none" stroke="black" points="600,-183 600,-205 762,-205 762,-183 600,-183"/>
<text text-anchor="start" x="605" y="-192.2" font-family="Helvetica,sans-Serif" font-weight="bold" font-size="11.00">deadwood</text>
<text text-anchor="start" x="720" y="-191.2" font-family="Helvetica,sans-Serif" font-size="11.00">[table]</text>
<polygon fill="none" stroke="black" points="600,-161 600,-183 762,-183 762,-161 600,-161"/>
<image xlink:href="../../images/primaryKeys.png" width="11px" height="12px" preserveAspectRatio="xMinYMin meet" x="605" y="-178"/>
<text text-anchor="start" x="620" y="-169.2" font-family="Helvetica,sans-Serif" font-size="11.00">id</text>
<polygon fill="none" stroke="black" points="600,-139 600,-161 762,-161 762,-139 600,-139"/>
<image xlink:href="../../images/foreignKeys.png" width="11px" height="12px" preserveAspectRatio="xMinYMin meet" x="605" y="-156"/>
<text text-anchor="start" x="620" y="-147.2" font-family="Helvetica,sans-Serif" font-size="11.00">plot_id</text>
<polygon fill="none" stroke="black" points="600,-117 600,-139 762,-139 762,-117 600,-117"/>
<image xlink:href="../../images/foreignKeys.png" width="11px" height="12px" preserveAspectRatio="xMinYMin meet" x="605" y="-134"/>
<text text-anchor="start" x="620" y="-125.2" font-family="Helvetica,sans-Serif" font-size="11.00">tree_species_group</text>
<polygon fill="none" stroke="black" points="600,-95 600,-117 762,-117 762,-95 600,-95"/>
<image xlink:href="../../images/foreignKeys.png" width="11px" height="12px" preserveAspectRatio="xMinYMin meet" x="605" y="-112"/>
<text text-anchor="start" x="620" y="-103.2" font-family="Helvetica,sans-Serif" font-size="11.00">dead_wood_type</text>
<polygon fill="none" stroke="black" points="600,-73 600,-95 762,-95 762,-73 600,-73"/>
<image xlink:href="../../images/foreignKeys.png" width="11px" height="12px" preserveAspectRatio="xMinYMin meet" x="605" y="-90"/>
<text text-anchor="start" x="620" y="-81.2" font-family="Helvetica,sans-Serif" font-size="11.00">decomposition</text>
<polygon fill="none" stroke="black" points="600,-55 600,-73 762,-73 762,-55 600,-55"/>
<text text-anchor="start" x="603" y="-61.2" font-family="Helvetica,sans-Serif" font-size="11.00">...</text>
<polygon fill="#ffffff" stroke="transparent" points="600,-37 600,-55 762,-55 762,-37 600,-37"/>
<polygon fill="none" stroke="black" points="600,-37 600,-55 762,-55 762,-37 600,-37"/>
<polygon fill="#ffffff" stroke="transparent" points="601,-38 601,-54 651,-54 651,-38 601,-38"/>
<text text-anchor="start" x="603" y="-43.2" font-family="Helvetica,sans-Serif" font-size="11.00">&lt; 4</text>
<polygon fill="#ffffff" stroke="transparent" points="651,-38 651,-54 724,-54 724,-38 651,-38"/>
<text text-anchor="start" x="665.5" y="-43.2" font-family="Helvetica,sans-Serif" font-size="11.00">81 rows</text>
<polygon fill="#ffffff" stroke="transparent" points="724,-38 724,-54 761,-54 761,-38 724,-38"/>
<text text-anchor="start" x="751" y="-43.2" font-family="Helvetica,sans-Serif" font-size="11.00"> &#160;</text>
<polygon fill="black" stroke="black" points="651,-38 651,-54 651,-54 651,-38 651,-38"/>
<polygon fill="black" stroke="black" points="724,-38 724,-54 724,-54 724,-38 724,-38"/>
</a>
</g>
</g>
<!-- lookup_dead_wood_type -->
<g id="node2" class="node">
<title>lookup_dead_wood_type</title>
<g id="a_node2"><a xlink:href="../../tables/lookup_dead_wood_type.html" xlink:title="lookup_dead_wood_type" target="_top">
<polygon fill="#ffffff" stroke="transparent" points="8,-75 8,-207 551,-207 551,-75 8,-75"/>
<polygon fill="#f5f5f5" stroke="transparent" points="10.5,-183 10.5,-205 549.5,-205 549.5,-183 10.5,-183"/>
<polygon fill="none" stroke="black" points="10.5,-183 10.5,-205 549.5,-205 549.5,-183 10.5,-183"/>
<text text-anchor="start" x="15.5" y="-192.2" font-family="Helvetica,sans-Serif" font-weight="bold" font-size="11.00">lookup_dead_wood_type</text>
<text text-anchor="start" x="507.5" y="-191.2" font-family="Helvetica,sans-Serif" font-size="11.00">[table]</text>
<polygon fill="none" stroke="black" points="10.5,-161 10.5,-183 208.5,-183 208.5,-161 10.5,-161"/>
<text text-anchor="start" x="30.5" y="-169.2" font-family="Helvetica,sans-Serif" font-size="11.00">name_de</text>
<polygon fill="none" stroke="black" points="208.5,-161 208.5,-183 549.5,-183 549.5,-161 208.5,-161"/>
<text text-anchor="start" x="211.5" y="-169.2" font-family="Helvetica,sans-Serif" font-size="11.00">varchar[150]</text>
<polygon fill="none" stroke="black" points="10.5,-139 10.5,-161 208.5,-161 208.5,-139 10.5,-139"/>
<text text-anchor="start" x="30.5" y="-147.2" font-family="Helvetica,sans-Serif" font-size="11.00">name_en</text>
<polygon fill="none" stroke="black" points="208.5,-139 208.5,-161 549.5,-161 549.5,-139 208.5,-139"/>
<text text-anchor="start" x="211.5" y="-147.2" font-family="Helvetica,sans-Serif" font-size="11.00">varchar[150]</text>
<polygon fill="none" stroke="black" points="10.5,-117 10.5,-139 208.5,-139 208.5,-117 10.5,-117"/>
<text text-anchor="start" x="30.5" y="-125.2" font-family="Helvetica,sans-Serif" font-size="11.00">sort</text>
<polygon fill="none" stroke="black" points="208.5,-117 208.5,-139 549.5,-139 549.5,-117 208.5,-117"/>
<text text-anchor="start" x="211.5" y="-125.2" font-family="Helvetica,sans-Serif" font-size="11.00">int4[10]</text>
<polygon fill="#ffffff" stroke="transparent" points="10.5,-95 10.5,-117 208.5,-117 208.5,-95 10.5,-95"/>
<polygon fill="none" stroke="black" points="10.5,-95 10.5,-117 208.5,-117 208.5,-95 10.5,-95"/>
<text text-anchor="start" x="30.5" y="-103.2" font-family="Helvetica,sans-Serif" font-size="11.00">abbreviation</text>
<polygon fill="none" stroke="black" points="208.5,-95 208.5,-117 549.5,-117 549.5,-95 208.5,-95"/>
<text text-anchor="start" x="211.5" y="-103.2" font-family="Helvetica,sans-Serif" font-size="11.00">&quot;private_ci2027_001&quot;.&quot;enum_dead_wood_type&quot;[2147483647]</text>
<polygon fill="#ffffff" stroke="transparent" points="10.5,-77 10.5,-95 549.5,-95 549.5,-77 10.5,-77"/>
<polygon fill="none" stroke="black" points="10.5,-77 10.5,-95 549.5,-95 549.5,-77 10.5,-77"/>
<polygon fill="#ffffff" stroke="transparent" points="11.5,-78 11.5,-94 185.5,-94 185.5,-78 11.5,-78"/>
<text text-anchor="start" x="13.5" y="-83.2" font-family="Helvetica,sans-Serif" font-size="11.00">&lt; 0</text>
<polygon fill="#ffffff" stroke="transparent" points="185.5,-78 185.5,-94 375.5,-94 375.5,-78 185.5,-78"/>
<text text-anchor="start" x="262" y="-83.2" font-family="Helvetica,sans-Serif" font-size="11.00">0 rows</text>
<polygon fill="#ffffff" stroke="transparent" points="375.5,-78 375.5,-94 548.5,-94 548.5,-78 375.5,-78"/>
<text text-anchor="start" x="526.5" y="-83.2" font-family="Helvetica,sans-Serif" font-size="11.00">1 &gt;</text>
<polygon fill="black" stroke="black" points="185.5,-78 185.5,-94 185.5,-94 185.5,-78 185.5,-78"/>
<polygon fill="black" stroke="black" points="375.5,-78 375.5,-94 375.5,-94 375.5,-78 375.5,-78"/>
<polygon fill="none" stroke="black" stroke-width="2" points="9,-76 9,-206 550,-206 550,-76 9,-76"/>
</a>
</g>
</g>
<!-- deadwood&#45;&gt;lookup_dead_wood_type -->
<g id="edge1" class="edge">
<title>deadwood:w&#45;&gt;lookup_dead_wood_type:e</title>
<path fill="none" stroke="black" d="M584.28,-106C573.29,-106 566.16,-106 550.5,-106"/>
<polygon fill="black" stroke="black" points="591,-106 599,-109.6 595,-106 599,-106 599,-106 599,-106 595,-106 599,-102.4 591,-106 591,-106"/>
<ellipse fill="none" stroke="black" cx="587.8" cy="-106" rx="3.2" ry="3.2"/>
</g>
</g>
</svg>
