<?xml version="1.0" encoding="UTF-8" standalone="no"?>
<!DOCTYPE svg PUBLIC "-//W3C//DTD SVG 1.1//EN"
 "http://www.w3.org/Graphics/SVG/1.1/DTD/svg11.dtd">
<!-- Generated by graphviz version 2.43.0 (0)
 -->
<!-- Title: twoDegreesRelationshipsDiagram Pages: 1 -->
<svg width="812pt" height="418pt"
 viewBox="0.00 0.00 812.00 418.00" xmlns="http://www.w3.org/2000/svg" xmlns:xlink="http://www.w3.org/1999/xlink">
<g id="graph0" class="graph" transform="scale(1 1) rotate(0) translate(4 414)">
<title>twoDegreesRelationshipsDiagram</title>
<polygon fill="#ffffff" stroke="transparent" points="-4,4 -4,-414 808,-414 808,4 -4,4"/>
<text text-anchor="middle" x="79.5" y="-7.2" font-family="Helvetica,sans-Serif" font-size="11.00">Generated by SchemaSpy</text>
<!-- deadwood -->
<g id="node1" class="node">
<title>deadwood</title>
<g id="a_node1"><a xlink:href="../../tables/deadwood.html" xlink:title="deadwood" target="_top">
<polygon fill="#ffffff" stroke="transparent" points="634,-104 634,-272 796,-272 796,-104 634,-104"/>
<polygon fill="#f5f5f5" stroke="transparent" points="634,-250 634,-272 796,-272 796,-250 634,-250"/>
<polygon fill="none" stroke="black" points="634,-250 634,-272 796,-272 796,-250 634,-250"/>
<text text-anchor="start" x="639" y="-259.2" font-family="Helvetica,sans-Serif" font-weight="bold" font-size="11.00">deadwood</text>
<text text-anchor="start" x="754" y="-258.2" font-family="Helvetica,sans-Serif" font-size="11.00">[table]</text>
<polygon fill="none" stroke="black" points="634,-228 634,-250 796,-250 796,-228 634,-228"/>
<image xlink:href="../../images/primaryKeys.png" width="11px" height="12px" preserveAspectRatio="xMinYMin meet" x="639" y="-245"/>
<text text-anchor="start" x="654" y="-236.2" font-family="Helvetica,sans-Serif" font-size="11.00">id</text>
<polygon fill="none" stroke="black" points="634,-206 634,-228 796,-228 796,-206 634,-206"/>
<image xlink:href="../../images/foreignKeys.png" width="11px" height="12px" preserveAspectRatio="xMinYMin meet" x="639" y="-223"/>
<text text-anchor="start" x="654" y="-214.2" font-family="Helvetica,sans-Serif" font-size="11.00">plot_id</text>
<polygon fill="none" stroke="black" points="634,-184 634,-206 796,-206 796,-184 634,-184"/>
<image xlink:href="../../images/foreignKeys.png" width="11px" height="12px" preserveAspectRatio="xMinYMin meet" x="639" y="-201"/>
<text text-anchor="start" x="654" y="-192.2" font-family="Helvetica,sans-Serif" font-size="11.00">tree_species_group</text>
<polygon fill="none" stroke="black" points="634,-162 634,-184 796,-184 796,-162 634,-162"/>
<image xlink:href="../../images/foreignKeys.png" width="11px" height="12px" preserveAspectRatio="xMinYMin meet" x="639" y="-179"/>
<text text-anchor="start" x="654" y="-170.2" font-family="Helvetica,sans-Serif" font-size="11.00">dead_wood_type</text>
<polygon fill="none" stroke="black" points="634,-140 634,-162 796,-162 796,-140 634,-140"/>
<image xlink:href="../../images/foreignKeys.png" width="11px" height="12px" preserveAspectRatio="xMinYMin meet" x="639" y="-157"/>
<text text-anchor="start" x="654" y="-148.2" font-family="Helvetica,sans-Serif" font-size="11.00">decomposition</text>
<polygon fill="none" stroke="black" points="634,-122 634,-140 796,-140 796,-122 634,-122"/>
<text text-anchor="start" x="637" y="-128.2" font-family="Helvetica,sans-Serif" font-size="11.00">...</text>
<polygon fill="#ffffff" stroke="transparent" points="634,-104 634,-122 796,-122 796,-104 634,-104"/>
<polygon fill="none" stroke="black" points="634,-104 634,-122 796,-122 796,-104 634,-104"/>
<polygon fill="#ffffff" stroke="transparent" points="635,-105 635,-121 685,-121 685,-105 635,-105"/>
<text text-anchor="start" x="637" y="-110.2" font-family="Helvetica,sans-Serif" font-size="11.00">&lt; 4</text>
<polygon fill="#ffffff" stroke="transparent" points="685,-105 685,-121 758,-121 758,-105 685,-105"/>
<text text-anchor="start" x="699.5" y="-110.2" font-family="Helvetica,sans-Serif" font-size="11.00">81 rows</text>
<polygon fill="#ffffff" stroke="transparent" points="758,-105 758,-121 795,-121 795,-105 758,-105"/>
<text text-anchor="start" x="785" y="-110.2" font-family="Helvetica,sans-Serif" font-size="11.00"> &#160;</text>
<polygon fill="black" stroke="black" points="685,-105 685,-121 685,-121 685,-105 685,-105"/>
<polygon fill="black" stroke="black" points="758,-105 758,-121 758,-121 758,-105 758,-105"/>
</a>
</g>
</g>
<!-- lookup_dead_wood_type -->
<g id="node2" class="node">
<title>lookup_dead_wood_type</title>
<g id="a_node2"><a xlink:href="../../tables/lookup_dead_wood_type.html" xlink:title="lookup_dead_wood_type" target="_top">
<polygon fill="#ffffff" stroke="transparent" points="184.5,-116 184.5,-174 408.5,-174 408.5,-116 184.5,-116"/>
<polygon fill="#f5f5f5" stroke="transparent" points="184.5,-152 184.5,-174 408.5,-174 408.5,-152 184.5,-152"/>
<polygon fill="none" stroke="black" points="184.5,-152 184.5,-174 408.5,-174 408.5,-152 184.5,-152"/>
<text text-anchor="start" x="189.5" y="-161.2" font-family="Helvetica,sans-Serif" font-weight="bold" font-size="11.00">lookup_dead_wood_type</text>
<text text-anchor="start" x="366.5" y="-160.2" font-family="Helvetica,sans-Serif" font-size="11.00">[table]</text>
<polygon fill="none" stroke="black" points="184.5,-134 184.5,-152 408.5,-152 408.5,-134 184.5,-134"/>
<text text-anchor="start" x="187.5" y="-140.2" font-family="Helvetica,sans-Serif" font-size="11.00">...</text>
<polygon fill="#ffffff" stroke="transparent" points="184.5,-116 184.5,-134 408.5,-134 408.5,-116 184.5,-116"/>
<polygon fill="none" stroke="black" points="184.5,-116 184.5,-134 408.5,-134 408.5,-116 184.5,-116"/>
<polygon fill="#ffffff" stroke="transparent" points="185.5,-117 185.5,-133 246.5,-133 246.5,-117 185.5,-117"/>
<text text-anchor="start" x="187.5" y="-122.2" font-family="Helvetica,sans-Serif" font-size="11.00"> &#160;</text>
<polygon fill="#ffffff" stroke="transparent" points="246.5,-117 246.5,-133 335.5,-133 335.5,-117 246.5,-117"/>
<text text-anchor="start" x="272.5" y="-122.2" font-family="Helvetica,sans-Serif" font-size="11.00">0 rows</text>
<polygon fill="#ffffff" stroke="transparent" points="335.5,-117 335.5,-133 407.5,-133 407.5,-117 335.5,-117"/>
<text text-anchor="start" x="385.5" y="-122.2" font-family="Helvetica,sans-Serif" font-size="11.00">1 &gt;</text>
<polygon fill="black" stroke="black" points="246.5,-117 246.5,-133 246.5,-133 246.5,-117 246.5,-117"/>
<polygon fill="black" stroke="black" points="335.5,-117 335.5,-133 335.5,-133 335.5,-117 335.5,-117"/>
</a>
</g>
</g>
<!-- deadwood&#45;&gt;lookup_dead_wood_type -->
<g id="edge1" class="edge">
<title>deadwood:w&#45;&gt;lookup_dead_wood_type:e</title>
<path fill="none" stroke="black" d="M618.58,-172.78C530.29,-170.09 504.73,-143 409.5,-143"/>
<polygon fill="black" stroke="black" points="625,-172.88 632.95,-176.6 629,-172.94 633,-173 633,-173 633,-173 629,-172.94 633.05,-169.4 625,-172.88 625,-172.88"/>
<ellipse fill="none" stroke="black" cx="621.8" cy="-172.83" rx="3.2" ry="3.2"/>
</g>
<!-- lookup_decomposition -->
<g id="node3" class="node">
<title>lookup_decomposition</title>
<g id="a_node3"><a xlink:href="../../tables/lookup_decomposition.html" xlink:title="lookup_decomposition" target="_top">
<polygon fill="#ffffff" stroke="transparent" points="191.5,-37 191.5,-95 401.5,-95 401.5,-37 191.5,-37"/>
<polygon fill="#f5f5f5" stroke="transparent" points="191.5,-73 191.5,-95 401.5,-95 401.5,-73 191.5,-73"/>
<polygon fill="none" stroke="black" points="191.5,-73 191.5,-95 401.5,-95 401.5,-73 191.5,-73"/>
<text text-anchor="start" x="196.5" y="-82.2" font-family="Helvetica,sans-Serif" font-weight="bold" font-size="11.00">lookup_decomposition</text>
<text text-anchor="start" x="359.5" y="-81.2" font-family="Helvetica,sans-Serif" font-size="11.00">[table]</text>
<polygon fill="none" stroke="black" points="191.5,-55 191.5,-73 401.5,-73 401.5,-55 191.5,-55"/>
<text text-anchor="start" x="194.5" y="-61.2" font-family="Helvetica,sans-Serif" font-size="11.00">...</text>
<polygon fill="#ffffff" stroke="transparent" points="191.5,-37 191.5,-55 401.5,-55 401.5,-37 191.5,-37"/>
<polygon fill="none" stroke="black" points="191.5,-37 191.5,-55 401.5,-55 401.5,-37 191.5,-37"/>
<polygon fill="#ffffff" stroke="transparent" points="192.5,-38 192.5,-54 248.5,-54 248.5,-38 192.5,-38"/>
<text text-anchor="start" x="194.5" y="-43.2" font-family="Helvetica,sans-Serif" font-size="11.00"> &#160;</text>
<polygon fill="#ffffff" stroke="transparent" points="248.5,-38 248.5,-54 333.5,-54 333.5,-38 248.5,-38"/>
<text text-anchor="start" x="272.5" y="-43.2" font-family="Helvetica,sans-Serif" font-size="11.00">0 rows</text>
<polygon fill="#ffffff" stroke="transparent" points="333.5,-38 333.5,-54 400.5,-54 400.5,-38 333.5,-38"/>
<text text-anchor="start" x="378.5" y="-43.2" font-family="Helvetica,sans-Serif" font-size="11.00">1 &gt;</text>
<polygon fill="black" stroke="black" points="248.5,-38 248.5,-54 248.5,-54 248.5,-38 248.5,-38"/>
<polygon fill="black" stroke="black" points="333.5,-38 333.5,-54 333.5,-54 333.5,-38 333.5,-38"/>
</a>
</g>
</g>
<!-- deadwood&#45;&gt;lookup_decomposition -->
<g id="edge2" class="edge">
<title>deadwood:w&#45;&gt;lookup_decomposition:e</title>
<path fill="none" stroke="black" d="M619.21,-146.34C608.94,-136.91 610.86,-115.55 593,-105 518.43,-60.96 489.11,-64 402.5,-64"/>
<polygon fill="black" stroke="black" points="625.42,-148.44 631.85,-154.41 629.21,-149.72 633,-151 633,-151 633,-151 629.21,-149.72 634.15,-147.59 625.42,-148.44 625.42,-148.44"/>
<ellipse fill="none" stroke="black" cx="622.39" cy="-147.41" rx="3.2" ry="3.2"/>
</g>
<!-- plot -->
<g id="node4" class="node">
<title>plot</title>
<g id="a_node4"><a xlink:href="../../tables/plot.html" xlink:title="plot" target="_top">
<polygon fill="#ffffff" stroke="transparent" points="244,-348 244,-406 349,-406 349,-348 244,-348"/>
<polygon fill="#f5f5f5" stroke="transparent" points="244.5,-384 244.5,-406 349.5,-406 349.5,-384 244.5,-384"/>
<polygon fill="none" stroke="black" points="244.5,-384 244.5,-406 349.5,-406 349.5,-384 244.5,-384"/>
<text text-anchor="start" x="249" y="-393.2" font-family="Helvetica,sans-Serif" font-weight="bold" font-size="11.00">plot</text>
<text text-anchor="start" x="307.5" y="-392.2" font-family="Helvetica,sans-Serif" font-size="11.00">[table]</text>
<polygon fill="none" stroke="black" points="244.5,-366 244.5,-384 349.5,-384 349.5,-366 244.5,-366"/>
<text text-anchor="start" x="247.5" y="-372.2" font-family="Helvetica,sans-Serif" font-size="11.00">...</text>
<polygon fill="#ffffff" stroke="transparent" points="244.5,-348 244.5,-366 349.5,-366 349.5,-348 244.5,-348"/>
<polygon fill="none" stroke="black" points="244.5,-348 244.5,-366 349.5,-366 349.5,-348 244.5,-348"/>
<polygon fill="#ffffff" stroke="transparent" points="245.5,-349 245.5,-365 276.5,-365 276.5,-349 245.5,-349"/>
<text text-anchor="start" x="247.5" y="-354.2" font-family="Helvetica,sans-Serif" font-size="11.00">&lt; 24</text>
<polygon fill="#ffffff" stroke="transparent" points="276.5,-349 276.5,-365 324.5,-365 324.5,-349 276.5,-349"/>
<text text-anchor="start" x="278.5" y="-354.2" font-family="Helvetica,sans-Serif" font-size="11.00">82 rows</text>
<polygon fill="#ffffff" stroke="transparent" points="324.5,-349 324.5,-365 348.5,-365 348.5,-349 324.5,-349"/>
<text text-anchor="start" x="326.5" y="-354.2" font-family="Helvetica,sans-Serif" font-size="11.00">7 &gt;</text>
<polygon fill="black" stroke="black" points="276.5,-349 276.5,-365 276.5,-365 276.5,-349 276.5,-349"/>
<polygon fill="black" stroke="black" points="324.5,-349 324.5,-365 324.5,-365 324.5,-349 324.5,-349"/>
</a>
</g>
</g>
<!-- deadwood&#45;&gt;plot -->
<g id="edge3" class="edge">
<title>deadwood:w&#45;&gt;plot:e</title>
<path fill="none" stroke="black" d="M618.71,-219.66C587.85,-234.28 631.7,-305.3 593,-338 509.72,-408.36 459.53,-375 350.5,-375"/>
<polygon fill="black" stroke="black" points="625.14,-218.47 633.66,-220.54 629.07,-217.73 633,-217 633,-217 633,-217 629.07,-217.73 632.34,-213.46 625.14,-218.47 625.14,-218.47"/>
<ellipse fill="none" stroke="black" cx="621.99" cy="-219.05" rx="3.2" ry="3.2"/>
</g>
<!-- lookup_tree_species_group -->
<g id="node5" class="node">
<title>lookup_tree_species_group</title>
<g id="a_node5"><a xlink:href="../../tables/lookup_tree_species_group.html" xlink:title="lookup_tree_species_group" target="_top">
<polygon fill="#ffffff" stroke="transparent" points="8,-195 8,-327 585,-327 585,-195 8,-195"/>
<polygon fill="#f5f5f5" stroke="transparent" points="10.5,-303 10.5,-325 583.5,-325 583.5,-303 10.5,-303"/>
<polygon fill="none" stroke="black" points="10.5,-303 10.5,-325 583.5,-325 583.5,-303 10.5,-303"/>
<text text-anchor="start" x="15.5" y="-312.2" font-family="Helvetica,sans-Serif" font-weight="bold" font-size="11.00">lookup_tree_species_group</text>
<text text-anchor="start" x="541.5" y="-311.2" font-family="Helvetica,sans-Serif" font-size="11.00">[table]</text>
<polygon fill="none" stroke="black" points="10.5,-281 10.5,-303 228.5,-303 228.5,-281 10.5,-281"/>
<text text-anchor="start" x="30.5" y="-289.2" font-family="Helvetica,sans-Serif" font-size="11.00">name_de</text>
<polygon fill="none" stroke="black" points="228.5,-281 228.5,-303 583.5,-303 583.5,-281 228.5,-281"/>
<text text-anchor="start" x="231.5" y="-289.2" font-family="Helvetica,sans-Serif" font-size="11.00">varchar[150]</text>
<polygon fill="none" stroke="black" points="10.5,-259 10.5,-281 228.5,-281 228.5,-259 10.5,-259"/>
<text text-anchor="start" x="30.5" y="-267.2" font-family="Helvetica,sans-Serif" font-size="11.00">name_en</text>
<polygon fill="none" stroke="black" points="228.5,-259 228.5,-281 583.5,-281 583.5,-259 228.5,-259"/>
<text text-anchor="start" x="231.5" y="-267.2" font-family="Helvetica,sans-Serif" font-size="11.00">varchar[150]</text>
<polygon fill="none" stroke="black" points="10.5,-237 10.5,-259 228.5,-259 228.5,-237 10.5,-237"/>
<text text-anchor="start" x="30.5" y="-245.2" font-family="Helvetica,sans-Serif" font-size="11.00">sort</text>
<polygon fill="none" stroke="black" points="228.5,-237 228.5,-259 583.5,-259 583.5,-237 228.5,-237"/>
<text text-anchor="start" x="231.5" y="-245.2" font-family="Helvetica,sans-Serif" font-size="11.00">int4[10]</text>
<polygon fill="#ffffff" stroke="transparent" points="10.5,-215 10.5,-237 228.5,-237 228.5,-215 10.5,-215"/>
<polygon fill="none" stroke="black" points="10.5,-215 10.5,-237 228.5,-237 228.5,-215 10.5,-215"/>
<text text-anchor="start" x="30.5" y="-223.2" font-family="Helvetica,sans-Serif" font-size="11.00">abbreviation</text>
<polygon fill="none" stroke="black" points="228.5,-215 228.5,-237 583.5,-237 583.5,-215 228.5,-215"/>
<text text-anchor="start" x="231.5" y="-223.2" font-family="Helvetica,sans-Serif" font-size="11.00">&quot;private_ci2027_001&quot;.&quot;enum_tree_species_group&quot;[2147483647]</text>
<polygon fill="#ffffff" stroke="transparent" points="10.5,-197 10.5,-215 583.5,-215 583.5,-197 10.5,-197"/>
<polygon fill="none" stroke="black" points="10.5,-197 10.5,-215 583.5,-215 583.5,-197 10.5,-197"/>
<polygon fill="#ffffff" stroke="transparent" points="11.5,-198 11.5,-214 196.5,-214 196.5,-198 11.5,-198"/>
<text text-anchor="start" x="13.5" y="-203.2" font-family="Helvetica,sans-Serif" font-size="11.00">&lt; 0</text>
<polygon fill="#ffffff" stroke="transparent" points="196.5,-198 196.5,-214 398.5,-214 398.5,-198 196.5,-198"/>
<text text-anchor="start" x="279" y="-203.2" font-family="Helvetica,sans-Serif" font-size="11.00">0 rows</text>
<polygon fill="#ffffff" stroke="transparent" points="398.5,-198 398.5,-214 582.5,-214 582.5,-198 398.5,-198"/>
<text text-anchor="start" x="560.5" y="-203.2" font-family="Helvetica,sans-Serif" font-size="11.00">1 &gt;</text>
<polygon fill="black" stroke="black" points="196.5,-198 196.5,-214 196.5,-214 196.5,-198 196.5,-198"/>
<polygon fill="black" stroke="black" points="398.5,-198 398.5,-214 398.5,-214 398.5,-198 398.5,-198"/>
<polygon fill="none" stroke="black" stroke-width="2" points="9,-196 9,-326 584,-326 584,-196 9,-196"/>
</a>
</g>
</g>
<!-- deadwood&#45;&gt;lookup_tree_species_group -->
<g id="edge4" class="edge">
<title>deadwood:w&#45;&gt;lookup_tree_species_group:e</title>
<path fill="none" stroke="black" d="M618.94,-199.31C607.12,-207.83 604.09,-226 584.5,-226"/>
<polygon fill="black" stroke="black" points="625.35,-197.34 634.06,-198.44 629.18,-196.17 633,-195 633,-195 633,-195 629.18,-196.17 631.94,-191.56 625.35,-197.34 625.35,-197.34"/>
<ellipse fill="none" stroke="black" cx="622.29" cy="-198.28" rx="3.2" ry="3.2"/>
</g>
</g>
</svg>
