<?xml version="1.0" encoding="UTF-8" standalone="no"?>
<!DOCTYPE svg PUBLIC "-//W3C//DTD SVG 1.1//EN"
 "http://www.w3.org/Graphics/SVG/1.1/DTD/svg11.dtd">
<!-- Generated by graphviz version 2.43.0 (0)
 -->
<!-- Title: twoDegreesRelationshipsDiagram Pages: 1 -->
<svg width="973pt" height="632pt"
 viewBox="0.00 0.00 973.00 632.33" xmlns="http://www.w3.org/2000/svg" xmlns:xlink="http://www.w3.org/1999/xlink">
<g id="graph0" class="graph" transform="scale(1 1) rotate(0) translate(4 628.33)">
<title>twoDegreesRelationshipsDiagram</title>
<polygon fill="#ffffff" stroke="transparent" points="-4,4 -4,-628.33 969,-628.33 969,4 -4,4"/>
<text text-anchor="middle" x="79.5" y="-7.2" font-family="Helvetica,sans-Serif" font-size="11.00">Generated by SchemaSpy</text>
<!-- plot -->
<g id="node1" class="node">
<title>plot</title>
<g id="a_node1"><a xlink:href="../../tables/plot.html" xlink:title="plot" target="_top">
<polygon fill="#ffffff" stroke="transparent" points="440.5,-562.33 440.5,-620.33 538.5,-620.33 538.5,-562.33 440.5,-562.33"/>
<polygon fill="#f5f5f5" stroke="transparent" points="440.5,-598.33 440.5,-620.33 538.5,-620.33 538.5,-598.33 440.5,-598.33"/>
<polygon fill="none" stroke="black" points="440.5,-598.33 440.5,-620.33 538.5,-620.33 538.5,-598.33 440.5,-598.33"/>
<text text-anchor="start" x="445" y="-607.53" font-family="Helvetica,sans-Serif" font-weight="bold" font-size="11.00">plot</text>
<text text-anchor="start" x="496.5" y="-606.53" font-family="Helvetica,sans-Serif" font-size="11.00">[table]</text>
<polygon fill="none" stroke="black" points="440.5,-580.33 440.5,-598.33 538.5,-598.33 538.5,-580.33 440.5,-580.33"/>
<text text-anchor="start" x="443.5" y="-586.53" font-family="Helvetica,sans-Serif" font-size="11.00">...</text>
<polygon fill="#ffffff" stroke="transparent" points="440.5,-562.33 440.5,-580.33 538.5,-580.33 538.5,-562.33 440.5,-562.33"/>
<polygon fill="none" stroke="black" points="440.5,-562.33 440.5,-580.33 538.5,-580.33 538.5,-562.33 440.5,-562.33"/>
<polygon fill="#ffffff" stroke="transparent" points="441.5,-563.33 441.5,-579.33 472.5,-579.33 472.5,-563.33 441.5,-563.33"/>
<text text-anchor="start" x="443.5" y="-568.53" font-family="Helvetica,sans-Serif" font-size="11.00">&lt; 16</text>
<polygon fill="#ffffff" stroke="transparent" points="472.5,-563.33 472.5,-579.33 513.5,-579.33 513.5,-563.33 472.5,-563.33"/>
<text text-anchor="start" x="474.5" y="-568.53" font-family="Helvetica,sans-Serif" font-size="11.00">0 rows</text>
<polygon fill="#ffffff" stroke="transparent" points="513.5,-563.33 513.5,-579.33 537.5,-579.33 537.5,-563.33 513.5,-563.33"/>
<text text-anchor="start" x="515.5" y="-568.53" font-family="Helvetica,sans-Serif" font-size="11.00">7 &gt;</text>
<polygon fill="black" stroke="black" points="472.5,-563.33 472.5,-579.33 472.5,-579.33 472.5,-563.33 472.5,-563.33"/>
<polygon fill="black" stroke="black" points="513.5,-563.33 513.5,-579.33 513.5,-579.33 513.5,-563.33 513.5,-563.33"/>
</a>
</g>
</g>
<!-- lookup_stand_layer -->
<g id="node2" class="node">
<title>lookup_stand_layer</title>
<g id="a_node2"><a xlink:href="../../tables/lookup_stand_layer.html" xlink:title="lookup_stand_layer" target="_top">
<polygon fill="#ffffff" stroke="transparent" points="8,-291.33 8,-349.33 195,-349.33 195,-291.33 8,-291.33"/>
<polygon fill="#f5f5f5" stroke="transparent" points="8.5,-327.33 8.5,-349.33 195.5,-349.33 195.5,-327.33 8.5,-327.33"/>
<polygon fill="none" stroke="black" points="8.5,-327.33 8.5,-349.33 195.5,-349.33 195.5,-327.33 8.5,-327.33"/>
<text text-anchor="start" x="13.5" y="-336.53" font-family="Helvetica,sans-Serif" font-weight="bold" font-size="11.00">lookup_stand_layer</text>
<text text-anchor="start" x="153.5" y="-335.53" font-family="Helvetica,sans-Serif" font-size="11.00">[table]</text>
<polygon fill="none" stroke="black" points="8.5,-309.33 8.5,-327.33 195.5,-327.33 195.5,-309.33 8.5,-309.33"/>
<text text-anchor="start" x="11.5" y="-315.53" font-family="Helvetica,sans-Serif" font-size="11.00">...</text>
<polygon fill="#ffffff" stroke="transparent" points="8.5,-291.33 8.5,-309.33 195.5,-309.33 195.5,-291.33 8.5,-291.33"/>
<polygon fill="none" stroke="black" points="8.5,-291.33 8.5,-309.33 195.5,-309.33 195.5,-291.33 8.5,-291.33"/>
<polygon fill="#ffffff" stroke="transparent" points="9.5,-292.33 9.5,-308.33 57.5,-308.33 57.5,-292.33 9.5,-292.33"/>
<text text-anchor="start" x="11.5" y="-297.53" font-family="Helvetica,sans-Serif" font-size="11.00"> &#160;</text>
<polygon fill="#ffffff" stroke="transparent" points="57.5,-292.33 57.5,-308.33 134.5,-308.33 134.5,-292.33 57.5,-292.33"/>
<text text-anchor="start" x="77.5" y="-297.53" font-family="Helvetica,sans-Serif" font-size="11.00">0 rows</text>
<polygon fill="#ffffff" stroke="transparent" points="134.5,-292.33 134.5,-308.33 194.5,-308.33 194.5,-292.33 134.5,-292.33"/>
<text text-anchor="start" x="172.5" y="-297.53" font-family="Helvetica,sans-Serif" font-size="11.00">2 &gt;</text>
<polygon fill="black" stroke="black" points="57.5,-292.33 57.5,-308.33 57.5,-308.33 57.5,-292.33 57.5,-292.33"/>
<polygon fill="black" stroke="black" points="134.5,-292.33 134.5,-308.33 134.5,-308.33 134.5,-292.33 134.5,-292.33"/>
</a>
</g>
</g>
<!-- plot&#45;&gt;lookup_stand_layer -->
<g id="edge1" class="edge">
<title>plot:w&#45;&gt;lookup_stand_layer:e</title>
<path fill="none" stroke="black" d="M425.07,-589.56C342.48,-592.12 297.12,-614.23 236,-552.33 198.95,-514.81 249.24,-318.33 196.5,-318.33"/>
<polygon fill="black" stroke="black" points="431.5,-589.46 439.56,-592.93 435.5,-589.4 439.5,-589.33 439.5,-589.33 439.5,-589.33 435.5,-589.4 439.44,-585.73 431.5,-589.46 431.5,-589.46"/>
<ellipse fill="none" stroke="black" cx="428.3" cy="-589.51" rx="3.2" ry="3.2"/>
</g>
<!-- wzp_tree -->
<g id="node3" class="node">
<title>wzp_tree</title>
<g id="a_node3"><a xlink:href="../../tables/wzp_tree.html" xlink:title="wzp_tree" target="_top">
<polygon fill="#ffffff" stroke="transparent" points="784,-239.33 784,-473.33 957,-473.33 957,-239.33 784,-239.33"/>
<polygon fill="#f5f5f5" stroke="transparent" points="784.5,-451.33 784.5,-473.33 957.5,-473.33 957.5,-451.33 784.5,-451.33"/>
<polygon fill="none" stroke="black" points="784.5,-451.33 784.5,-473.33 957.5,-473.33 957.5,-451.33 784.5,-451.33"/>
<text text-anchor="start" x="789.5" y="-460.53" font-family="Helvetica,sans-Serif" font-weight="bold" font-size="11.00">wzp_tree</text>
<text text-anchor="start" x="915.5" y="-459.53" font-family="Helvetica,sans-Serif" font-size="11.00">[table]</text>
<polygon fill="none" stroke="black" points="784.5,-429.33 784.5,-451.33 957.5,-451.33 957.5,-429.33 784.5,-429.33"/>
<image xlink:href="../../images/primaryKeys.png" width="11px" height="12px" preserveAspectRatio="xMinYMin meet" x="789.5" y="-446.334"/>
<text text-anchor="start" x="804.5" y="-437.53" font-family="Helvetica,sans-Serif" font-size="11.00">id</text>
<polygon fill="none" stroke="black" points="784.5,-407.33 784.5,-429.33 957.5,-429.33 957.5,-407.33 784.5,-407.33"/>
<image xlink:href="../../images/foreignKeys.png" width="11px" height="12px" preserveAspectRatio="xMinYMin meet" x="789.5" y="-424.334"/>
<text text-anchor="start" x="804.5" y="-415.53" font-family="Helvetica,sans-Serif" font-size="11.00">plot_id</text>
<polygon fill="none" stroke="black" points="784.5,-385.33 784.5,-407.33 957.5,-407.33 957.5,-385.33 784.5,-385.33"/>
<image xlink:href="../../images/foreignKeys.png" width="11px" height="12px" preserveAspectRatio="xMinYMin meet" x="789.5" y="-402.334"/>
<text text-anchor="start" x="804.5" y="-393.53" font-family="Helvetica,sans-Serif" font-size="11.00">tree_status</text>
<polygon fill="none" stroke="black" points="784.5,-363.33 784.5,-385.33 957.5,-385.33 957.5,-363.33 784.5,-363.33"/>
<image xlink:href="../../images/foreignKeys.png" width="11px" height="12px" preserveAspectRatio="xMinYMin meet" x="789.5" y="-380.334"/>
<text text-anchor="start" x="804.5" y="-371.53" font-family="Helvetica,sans-Serif" font-size="11.00">tree_species</text>
<polygon fill="none" stroke="black" points="784.5,-341.33 784.5,-363.33 957.5,-363.33 957.5,-341.33 784.5,-341.33"/>
<image xlink:href="../../images/foreignKeys.png" width="11px" height="12px" preserveAspectRatio="xMinYMin meet" x="789.5" y="-358.334"/>
<text text-anchor="start" x="804.5" y="-349.53" font-family="Helvetica,sans-Serif" font-size="11.00">stem_breakage</text>
<polygon fill="none" stroke="black" points="784.5,-319.33 784.5,-341.33 957.5,-341.33 957.5,-319.33 784.5,-319.33"/>
<image xlink:href="../../images/foreignKeys.png" width="11px" height="12px" preserveAspectRatio="xMinYMin meet" x="789.5" y="-336.334"/>
<text text-anchor="start" x="804.5" y="-327.53" font-family="Helvetica,sans-Serif" font-size="11.00">stem_form</text>
<polygon fill="none" stroke="black" points="784.5,-297.33 784.5,-319.33 957.5,-319.33 957.5,-297.33 784.5,-297.33"/>
<image xlink:href="../../images/foreignKeys.png" width="11px" height="12px" preserveAspectRatio="xMinYMin meet" x="789.5" y="-314.334"/>
<text text-anchor="start" x="804.5" y="-305.53" font-family="Helvetica,sans-Serif" font-size="11.00">pruning</text>
<polygon fill="none" stroke="black" points="784.5,-275.33 784.5,-297.33 957.5,-297.33 957.5,-275.33 784.5,-275.33"/>
<image xlink:href="../../images/foreignKeys.png" width="11px" height="12px" preserveAspectRatio="xMinYMin meet" x="789.5" y="-292.334"/>
<text text-anchor="start" x="804.5" y="-283.53" font-family="Helvetica,sans-Serif" font-size="11.00">stand_layer</text>
<polygon fill="none" stroke="black" points="784.5,-257.33 784.5,-275.33 957.5,-275.33 957.5,-257.33 784.5,-257.33"/>
<text text-anchor="start" x="787.5" y="-263.53" font-family="Helvetica,sans-Serif" font-size="11.00">...</text>
<polygon fill="#ffffff" stroke="transparent" points="784.5,-239.33 784.5,-257.33 957.5,-257.33 957.5,-239.33 784.5,-239.33"/>
<polygon fill="none" stroke="black" points="784.5,-239.33 784.5,-257.33 957.5,-257.33 957.5,-239.33 784.5,-239.33"/>
<polygon fill="#ffffff" stroke="transparent" points="785.5,-240.33 785.5,-256.33 841.5,-256.33 841.5,-240.33 785.5,-240.33"/>
<text text-anchor="start" x="787.5" y="-245.53" font-family="Helvetica,sans-Serif" font-size="11.00">&lt; 7</text>
<polygon fill="#ffffff" stroke="transparent" points="841.5,-240.33 841.5,-256.33 913.5,-256.33 913.5,-240.33 841.5,-240.33"/>
<text text-anchor="start" x="859" y="-245.53" font-family="Helvetica,sans-Serif" font-size="11.00">0 rows</text>
<polygon fill="#ffffff" stroke="transparent" points="913.5,-240.33 913.5,-256.33 956.5,-256.33 956.5,-240.33 913.5,-240.33"/>
<text text-anchor="start" x="946.5" y="-245.53" font-family="Helvetica,sans-Serif" font-size="11.00"> &#160;</text>
<polygon fill="black" stroke="black" points="841.5,-240.33 841.5,-256.33 841.5,-256.33 841.5,-240.33 841.5,-240.33"/>
<polygon fill="black" stroke="black" points="913.5,-240.33 913.5,-256.33 913.5,-256.33 913.5,-240.33 913.5,-240.33"/>
</a>
</g>
</g>
<!-- wzp_tree&#45;&gt;plot -->
<g id="edge2" class="edge">
<title>wzp_tree:w&#45;&gt;plot:e</title>
<path fill="none" stroke="black" d="M769.24,-420.66C733.05,-435.24 785.07,-514.79 743,-552.33 674.41,-613.54 631.43,-589.33 539.5,-589.33"/>
<polygon fill="black" stroke="black" points="775.6,-419.62 784.08,-421.89 779.55,-418.98 783.5,-418.33 783.5,-418.33 783.5,-418.33 779.55,-418.98 782.92,-414.78 775.6,-419.62 775.6,-419.62"/>
<ellipse fill="none" stroke="black" cx="772.45" cy="-420.13" rx="3.2" ry="3.2"/>
</g>
<!-- wzp_tree&#45;&gt;lookup_stand_layer -->
<g id="edge4" class="edge">
<title>wzp_tree:w&#45;&gt;lookup_stand_layer:e</title>
<path fill="none" stroke="black" d="M768.85,-284.94C696.09,-269.06 816.98,-122.24 743,-60.33 699.8,-24.18 278.74,-23.64 236,-60.33 191.99,-98.12 254.5,-318.33 196.5,-318.33"/>
<polygon fill="black" stroke="black" points="775.54,-285.57 783.16,-289.92 779.52,-285.95 783.5,-286.33 783.5,-286.33 783.5,-286.33 779.52,-285.95 783.84,-282.75 775.54,-285.57 775.54,-285.57"/>
<ellipse fill="none" stroke="black" cx="772.35" cy="-285.27" rx="3.2" ry="3.2"/>
</g>
<!-- lookup_pruning -->
<g id="node4" class="node">
<title>lookup_pruning</title>
<g id="a_node4"><a xlink:href="../../tables/lookup_pruning.html" xlink:title="lookup_pruning" target="_top">
<polygon fill="#ffffff" stroke="transparent" points="409.5,-71.33 409.5,-129.33 569.5,-129.33 569.5,-71.33 409.5,-71.33"/>
<polygon fill="#f5f5f5" stroke="transparent" points="409.5,-107.33 409.5,-129.33 569.5,-129.33 569.5,-107.33 409.5,-107.33"/>
<polygon fill="none" stroke="black" points="409.5,-107.33 409.5,-129.33 569.5,-129.33 569.5,-107.33 409.5,-107.33"/>
<text text-anchor="start" x="414.5" y="-116.53" font-family="Helvetica,sans-Serif" font-weight="bold" font-size="11.00">lookup_pruning</text>
<text text-anchor="start" x="527.5" y="-115.53" font-family="Helvetica,sans-Serif" font-size="11.00">[table]</text>
<polygon fill="none" stroke="black" points="409.5,-89.33 409.5,-107.33 569.5,-107.33 569.5,-89.33 409.5,-89.33"/>
<text text-anchor="start" x="412.5" y="-95.53" font-family="Helvetica,sans-Serif" font-size="11.00">...</text>
<polygon fill="#ffffff" stroke="transparent" points="409.5,-71.33 409.5,-89.33 569.5,-89.33 569.5,-71.33 409.5,-71.33"/>
<polygon fill="none" stroke="black" points="409.5,-71.33 409.5,-89.33 569.5,-89.33 569.5,-71.33 409.5,-71.33"/>
<polygon fill="#ffffff" stroke="transparent" points="410.5,-72.33 410.5,-88.33 449.5,-88.33 449.5,-72.33 410.5,-72.33"/>
<text text-anchor="start" x="412.5" y="-77.53" font-family="Helvetica,sans-Serif" font-size="11.00"> &#160;</text>
<polygon fill="#ffffff" stroke="transparent" points="449.5,-72.33 449.5,-88.33 517.5,-88.33 517.5,-72.33 449.5,-72.33"/>
<text text-anchor="start" x="465" y="-77.53" font-family="Helvetica,sans-Serif" font-size="11.00">0 rows</text>
<polygon fill="#ffffff" stroke="transparent" points="517.5,-72.33 517.5,-88.33 568.5,-88.33 568.5,-72.33 517.5,-72.33"/>
<text text-anchor="start" x="546.5" y="-77.53" font-family="Helvetica,sans-Serif" font-size="11.00">1 &gt;</text>
<polygon fill="black" stroke="black" points="449.5,-72.33 449.5,-88.33 449.5,-88.33 449.5,-72.33 449.5,-72.33"/>
<polygon fill="black" stroke="black" points="517.5,-72.33 517.5,-88.33 517.5,-88.33 517.5,-72.33 517.5,-72.33"/>
</a>
</g>
</g>
<!-- wzp_tree&#45;&gt;lookup_pruning -->
<g id="edge3" class="edge">
<title>wzp_tree:w&#45;&gt;lookup_pruning:e</title>
<path fill="none" stroke="black" d="M768.96,-306.51C719.03,-291.68 793.61,-189.85 743,-139.33 687.23,-83.66 649.3,-98.33 570.5,-98.33"/>
<polygon fill="black" stroke="black" points="775.56,-307.34 783.05,-311.91 779.53,-307.84 783.5,-308.33 783.5,-308.33 783.5,-308.33 779.53,-307.84 783.95,-304.76 775.56,-307.34 775.56,-307.34"/>
<ellipse fill="none" stroke="black" cx="772.39" cy="-306.94" rx="3.2" ry="3.2"/>
</g>
<!-- lookup_stem_breakage -->
<g id="node5" class="node">
<title>lookup_stem_breakage</title>
<g id="a_node5"><a xlink:href="../../tables/lookup_stem_breakage.html" xlink:title="lookup_stem_breakage" target="_top">
<polygon fill="#ffffff" stroke="transparent" points="382.5,-325.33 382.5,-383.33 596.5,-383.33 596.5,-325.33 382.5,-325.33"/>
<polygon fill="#f5f5f5" stroke="transparent" points="382.5,-361.33 382.5,-383.33 596.5,-383.33 596.5,-361.33 382.5,-361.33"/>
<polygon fill="none" stroke="black" points="382.5,-361.33 382.5,-383.33 596.5,-383.33 596.5,-361.33 382.5,-361.33"/>
<text text-anchor="start" x="387.5" y="-370.53" font-family="Helvetica,sans-Serif" font-weight="bold" font-size="11.00">lookup_stem_breakage</text>
<text text-anchor="start" x="554.5" y="-369.53" font-family="Helvetica,sans-Serif" font-size="11.00">[table]</text>
<polygon fill="none" stroke="black" points="382.5,-343.33 382.5,-361.33 596.5,-361.33 596.5,-343.33 382.5,-343.33"/>
<text text-anchor="start" x="385.5" y="-349.53" font-family="Helvetica,sans-Serif" font-size="11.00">...</text>
<polygon fill="#ffffff" stroke="transparent" points="382.5,-325.33 382.5,-343.33 596.5,-343.33 596.5,-325.33 382.5,-325.33"/>
<polygon fill="none" stroke="black" points="382.5,-325.33 382.5,-343.33 596.5,-343.33 596.5,-325.33 382.5,-325.33"/>
<polygon fill="#ffffff" stroke="transparent" points="383.5,-326.33 383.5,-342.33 440.5,-342.33 440.5,-326.33 383.5,-326.33"/>
<text text-anchor="start" x="385.5" y="-331.53" font-family="Helvetica,sans-Serif" font-size="11.00"> &#160;</text>
<polygon fill="#ffffff" stroke="transparent" points="440.5,-326.33 440.5,-342.33 526.5,-342.33 526.5,-326.33 440.5,-326.33"/>
<text text-anchor="start" x="465" y="-331.53" font-family="Helvetica,sans-Serif" font-size="11.00">0 rows</text>
<polygon fill="#ffffff" stroke="transparent" points="526.5,-326.33 526.5,-342.33 595.5,-342.33 595.5,-326.33 526.5,-326.33"/>
<text text-anchor="start" x="573.5" y="-331.53" font-family="Helvetica,sans-Serif" font-size="11.00">1 &gt;</text>
<polygon fill="black" stroke="black" points="440.5,-326.33 440.5,-342.33 440.5,-342.33 440.5,-326.33 440.5,-326.33"/>
<polygon fill="black" stroke="black" points="526.5,-326.33 526.5,-342.33 526.5,-342.33 526.5,-326.33 526.5,-326.33"/>
</a>
</g>
</g>
<!-- wzp_tree&#45;&gt;lookup_stem_breakage -->
<g id="edge5" class="edge">
<title>wzp_tree:w&#45;&gt;lookup_stem_breakage:e</title>
<path fill="none" stroke="black" d="M768.7,-352.33C698.01,-352.33 675,-352.33 597.5,-352.33"/>
<polygon fill="black" stroke="black" points="775.5,-352.33 783.5,-355.93 779.5,-352.33 783.5,-352.33 783.5,-352.33 783.5,-352.33 779.5,-352.33 783.5,-348.73 775.5,-352.33 775.5,-352.33"/>
<ellipse fill="none" stroke="black" cx="772.3" cy="-352.33" rx="3.2" ry="3.2"/>
</g>
<!-- lookup_stem_form -->
<g id="node6" class="node">
<title>lookup_stem_form</title>
<g id="a_node6"><a xlink:href="../../tables/lookup_stem_form.html" xlink:title="lookup_stem_form" target="_top">
<polygon fill="#ffffff" stroke="transparent" points="244,-150.33 244,-304.33 735,-304.33 735,-150.33 244,-150.33"/>
<polygon fill="#f5f5f5" stroke="transparent" points="246.5,-280.33 246.5,-302.33 733.5,-302.33 733.5,-280.33 246.5,-280.33"/>
<polygon fill="none" stroke="black" points="246.5,-280.33 246.5,-302.33 733.5,-302.33 733.5,-280.33 246.5,-280.33"/>
<text text-anchor="start" x="251.5" y="-289.53" font-family="Helvetica,sans-Serif" font-weight="bold" font-size="11.00">lookup_stem_form</text>
<text text-anchor="start" x="691.5" y="-288.53" font-family="Helvetica,sans-Serif" font-size="11.00">[table]</text>
<polygon fill="none" stroke="black" points="246.5,-258.33 246.5,-280.33 400.5,-280.33 400.5,-258.33 246.5,-258.33"/>
<text text-anchor="start" x="266.5" y="-266.53" font-family="Helvetica,sans-Serif" font-size="11.00">name_de</text>
<polygon fill="none" stroke="black" points="400.5,-258.33 400.5,-280.33 733.5,-280.33 733.5,-258.33 400.5,-258.33"/>
<text text-anchor="start" x="403.5" y="-266.53" font-family="Helvetica,sans-Serif" font-size="11.00">varchar[150]</text>
<polygon fill="none" stroke="black" points="246.5,-236.33 246.5,-258.33 400.5,-258.33 400.5,-236.33 246.5,-236.33"/>
<text text-anchor="start" x="266.5" y="-244.53" font-family="Helvetica,sans-Serif" font-size="11.00">name_en</text>
<polygon fill="none" stroke="black" points="400.5,-236.33 400.5,-258.33 733.5,-258.33 733.5,-236.33 400.5,-236.33"/>
<text text-anchor="start" x="403.5" y="-244.53" font-family="Helvetica,sans-Serif" font-size="11.00">varchar[150]</text>
<polygon fill="none" stroke="black" points="246.5,-214.33 246.5,-236.33 400.5,-236.33 400.5,-214.33 246.5,-214.33"/>
<text text-anchor="start" x="266.5" y="-222.53" font-family="Helvetica,sans-Serif" font-size="11.00">interval</text>
<polygon fill="none" stroke="black" points="400.5,-214.33 400.5,-236.33 733.5,-236.33 733.5,-214.33 400.5,-214.33"/>
<text text-anchor="start" x="403.5" y="-222.53" font-family="Helvetica,sans-Serif" font-size="11.00">&quot;private_ci2027_001&quot;.&quot;_enum_interval_name&quot;[2147483647]</text>
<polygon fill="none" stroke="black" points="246.5,-192.33 246.5,-214.33 400.5,-214.33 400.5,-192.33 246.5,-192.33"/>
<text text-anchor="start" x="266.5" y="-200.53" font-family="Helvetica,sans-Serif" font-size="11.00">sort</text>
<polygon fill="none" stroke="black" points="400.5,-192.33 400.5,-214.33 733.5,-214.33 733.5,-192.33 400.5,-192.33"/>
<text text-anchor="start" x="403.5" y="-200.53" font-family="Helvetica,sans-Serif" font-size="11.00">int4[10]</text>
<polygon fill="#ffffff" stroke="transparent" points="246.5,-170.33 246.5,-192.33 400.5,-192.33 400.5,-170.33 246.5,-170.33"/>
<polygon fill="none" stroke="black" points="246.5,-170.33 246.5,-192.33 400.5,-192.33 400.5,-170.33 246.5,-170.33"/>
<text text-anchor="start" x="266.5" y="-178.53" font-family="Helvetica,sans-Serif" font-size="11.00">abbreviation</text>
<polygon fill="none" stroke="black" points="400.5,-170.33 400.5,-192.33 733.5,-192.33 733.5,-170.33 400.5,-170.33"/>
<text text-anchor="start" x="403.5" y="-178.53" font-family="Helvetica,sans-Serif" font-size="11.00">&quot;private_ci2027_001&quot;.&quot;enum_stem_form&quot;[2147483647]</text>
<polygon fill="#ffffff" stroke="transparent" points="246.5,-152.33 246.5,-170.33 733.5,-170.33 733.5,-152.33 246.5,-152.33"/>
<polygon fill="none" stroke="black" points="246.5,-152.33 246.5,-170.33 733.5,-170.33 733.5,-152.33 246.5,-152.33"/>
<polygon fill="#ffffff" stroke="transparent" points="247.5,-153.33 247.5,-169.33 403.5,-169.33 403.5,-153.33 247.5,-153.33"/>
<text text-anchor="start" x="249.5" y="-158.53" font-family="Helvetica,sans-Serif" font-size="11.00">&lt; 0</text>
<polygon fill="#ffffff" stroke="transparent" points="403.5,-153.33 403.5,-169.33 576.5,-169.33 576.5,-153.33 403.5,-153.33"/>
<text text-anchor="start" x="471.5" y="-158.53" font-family="Helvetica,sans-Serif" font-size="11.00">0 rows</text>
<polygon fill="#ffffff" stroke="transparent" points="576.5,-153.33 576.5,-169.33 732.5,-169.33 732.5,-153.33 576.5,-153.33"/>
<text text-anchor="start" x="710.5" y="-158.53" font-family="Helvetica,sans-Serif" font-size="11.00">1 &gt;</text>
<polygon fill="black" stroke="black" points="403.5,-153.33 403.5,-169.33 403.5,-169.33 403.5,-153.33 403.5,-153.33"/>
<polygon fill="black" stroke="black" points="576.5,-153.33 576.5,-169.33 576.5,-169.33 576.5,-153.33 576.5,-153.33"/>
<polygon fill="none" stroke="black" stroke-width="2" points="245,-151.33 245,-303.33 734,-303.33 734,-151.33 245,-151.33"/>
</a>
</g>
</g>
<!-- wzp_tree&#45;&gt;lookup_stem_form -->
<g id="edge6" class="edge">
<title>wzp_tree:w&#45;&gt;lookup_stem_form:e</title>
<path fill="none" stroke="black" d="M769.13,-327.36C727.85,-306.36 798.36,-181.33 734.5,-181.33"/>
<polygon fill="black" stroke="black" points="775.67,-328.71 782.77,-333.86 779.58,-329.52 783.5,-330.33 783.5,-330.33 783.5,-330.33 779.58,-329.52 784.23,-326.81 775.67,-328.71 775.67,-328.71"/>
<ellipse fill="none" stroke="black" cx="772.53" cy="-328.06" rx="3.2" ry="3.2"/>
</g>
<!-- lookup_tree_species -->
<g id="node7" class="node">
<title>lookup_tree_species</title>
<g id="a_node7"><a xlink:href="../../tables/lookup_tree_species.html" xlink:title="lookup_tree_species" target="_top">
<polygon fill="#ffffff" stroke="transparent" points="392.5,-404.33 392.5,-462.33 586.5,-462.33 586.5,-404.33 392.5,-404.33"/>
<polygon fill="#f5f5f5" stroke="transparent" points="392.5,-440.33 392.5,-462.33 586.5,-462.33 586.5,-440.33 392.5,-440.33"/>
<polygon fill="none" stroke="black" points="392.5,-440.33 392.5,-462.33 586.5,-462.33 586.5,-440.33 392.5,-440.33"/>
<text text-anchor="start" x="397.5" y="-449.53" font-family="Helvetica,sans-Serif" font-weight="bold" font-size="11.00">lookup_tree_species</text>
<text text-anchor="start" x="544.5" y="-448.53" font-family="Helvetica,sans-Serif" font-size="11.00">[table]</text>
<polygon fill="none" stroke="black" points="392.5,-422.33 392.5,-440.33 586.5,-440.33 586.5,-422.33 392.5,-422.33"/>
<text text-anchor="start" x="395.5" y="-428.53" font-family="Helvetica,sans-Serif" font-size="11.00">...</text>
<polygon fill="#ffffff" stroke="transparent" points="392.5,-404.33 392.5,-422.33 586.5,-422.33 586.5,-404.33 392.5,-404.33"/>
<polygon fill="none" stroke="black" points="392.5,-404.33 392.5,-422.33 586.5,-422.33 586.5,-404.33 392.5,-404.33"/>
<polygon fill="#ffffff" stroke="transparent" points="393.5,-405.33 393.5,-421.33 439.5,-421.33 439.5,-405.33 393.5,-405.33"/>
<text text-anchor="start" x="395.5" y="-410.53" font-family="Helvetica,sans-Serif" font-size="11.00"> &#160;</text>
<polygon fill="#ffffff" stroke="transparent" points="439.5,-405.33 439.5,-421.33 528.5,-421.33 528.5,-405.33 439.5,-405.33"/>
<text text-anchor="start" x="458.5" y="-410.53" font-family="Helvetica,sans-Serif" font-size="11.00">125 rows</text>
<polygon fill="#ffffff" stroke="transparent" points="528.5,-405.33 528.5,-421.33 585.5,-421.33 585.5,-405.33 528.5,-405.33"/>
<text text-anchor="start" x="563.5" y="-410.53" font-family="Helvetica,sans-Serif" font-size="11.00">3 &gt;</text>
<polygon fill="black" stroke="black" points="439.5,-405.33 439.5,-421.33 439.5,-421.33 439.5,-405.33 439.5,-405.33"/>
<polygon fill="black" stroke="black" points="528.5,-405.33 528.5,-421.33 528.5,-421.33 528.5,-405.33 528.5,-405.33"/>
</a>
</g>
</g>
<!-- wzp_tree&#45;&gt;lookup_tree_species -->
<g id="edge7" class="edge">
<title>wzp_tree:w&#45;&gt;lookup_tree_species:e</title>
<path fill="none" stroke="black" d="M769.3,-377.45C760.88,-381.78 756.13,-389.6 743,-394.33 676.17,-418.44 658.54,-431.33 587.5,-431.33"/>
<polygon fill="black" stroke="black" points="775.69,-376.05 784.27,-377.85 779.59,-375.19 783.5,-374.33 783.5,-374.33 783.5,-374.33 779.59,-375.19 782.73,-370.82 775.69,-376.05 775.69,-376.05"/>
<ellipse fill="none" stroke="black" cx="772.56" cy="-376.74" rx="3.2" ry="3.2"/>
</g>
<!-- lookup_tree_status -->
<g id="node8" class="node">
<title>lookup_tree_status</title>
<g id="a_node8"><a xlink:href="../../tables/lookup_tree_status.html" xlink:title="lookup_tree_status" target="_top">
<polygon fill="#ffffff" stroke="transparent" points="397,-483.33 397,-541.33 582,-541.33 582,-483.33 397,-483.33"/>
<polygon fill="#f5f5f5" stroke="transparent" points="397.5,-519.33 397.5,-541.33 582.5,-541.33 582.5,-519.33 397.5,-519.33"/>
<polygon fill="none" stroke="black" points="397.5,-519.33 397.5,-541.33 582.5,-541.33 582.5,-519.33 397.5,-519.33"/>
<text text-anchor="start" x="402.5" y="-528.53" font-family="Helvetica,sans-Serif" font-weight="bold" font-size="11.00">lookup_tree_status</text>
<text text-anchor="start" x="540.5" y="-527.53" font-family="Helvetica,sans-Serif" font-size="11.00">[table]</text>
<polygon fill="none" stroke="black" points="397.5,-501.33 397.5,-519.33 582.5,-519.33 582.5,-501.33 397.5,-501.33"/>
<text text-anchor="start" x="400.5" y="-507.53" font-family="Helvetica,sans-Serif" font-size="11.00">...</text>
<polygon fill="#ffffff" stroke="transparent" points="397.5,-483.33 397.5,-501.33 582.5,-501.33 582.5,-483.33 397.5,-483.33"/>
<polygon fill="none" stroke="black" points="397.5,-483.33 397.5,-501.33 582.5,-501.33 582.5,-483.33 397.5,-483.33"/>
<polygon fill="#ffffff" stroke="transparent" points="398.5,-484.33 398.5,-500.33 446.5,-500.33 446.5,-484.33 398.5,-484.33"/>
<text text-anchor="start" x="400.5" y="-489.53" font-family="Helvetica,sans-Serif" font-size="11.00"> &#160;</text>
<polygon fill="#ffffff" stroke="transparent" points="446.5,-484.33 446.5,-500.33 522.5,-500.33 522.5,-484.33 446.5,-484.33"/>
<text text-anchor="start" x="466" y="-489.53" font-family="Helvetica,sans-Serif" font-size="11.00">0 rows</text>
<polygon fill="#ffffff" stroke="transparent" points="522.5,-484.33 522.5,-500.33 581.5,-500.33 581.5,-484.33 522.5,-484.33"/>
<text text-anchor="start" x="559.5" y="-489.53" font-family="Helvetica,sans-Serif" font-size="11.00">1 &gt;</text>
<polygon fill="black" stroke="black" points="446.5,-484.33 446.5,-500.33 446.5,-500.33 446.5,-484.33 446.5,-484.33"/>
<polygon fill="black" stroke="black" points="522.5,-484.33 522.5,-500.33 522.5,-500.33 522.5,-484.33 522.5,-484.33"/>
</a>
</g>
</g>
<!-- wzp_tree&#45;&gt;lookup_tree_status -->
<g id="edge8" class="edge">
<title>wzp_tree:w&#45;&gt;lookup_tree_status:e</title>
<path fill="none" stroke="black" d="M769.35,-400.28C752.68,-413.05 768.59,-453.59 743,-473.33 685.39,-517.79 656.27,-510.33 583.5,-510.33"/>
<polygon fill="black" stroke="black" points="775.79,-398.48 784.47,-399.8 779.65,-397.41 783.5,-396.33 783.5,-396.33 783.5,-396.33 779.65,-397.41 782.53,-392.87 775.79,-398.48 775.79,-398.48"/>
<ellipse fill="none" stroke="black" cx="772.71" cy="-399.34" rx="3.2" ry="3.2"/>
</g>
</g>
</svg>
