<?xml version="1.0" encoding="UTF-8" standalone="no"?>
<!DOCTYPE svg PUBLIC "-//W3C//DTD SVG 1.1//EN"
 "http://www.w3.org/Graphics/SVG/1.1/DTD/svg11.dtd">
<!-- Generated by graphviz version 2.43.0 (0)
 -->
<!-- Title: oneDegreeRelationshipsDiagram Pages: 1 -->
<svg width="800pt" height="679pt"
 viewBox="0.00 0.00 800.00 679.00" xmlns="http://www.w3.org/2000/svg" xmlns:xlink="http://www.w3.org/1999/xlink">
<g id="graph0" class="graph" transform="scale(1 1) rotate(0) translate(4 675)">
<title>oneDegreeRelationshipsDiagram</title>
<polygon fill="#ffffff" stroke="transparent" points="-4,4 -4,-675 796,-675 796,4 -4,4"/>
<text text-anchor="middle" x="79.5" y="-7.2" font-family="Helvetica,sans-Serif" font-size="11.00">Generated by SchemaSpy</text>
<!-- plot -->
<g id="node1" class="node">
<title>plot</title>
<g id="a_node1"><a xlink:href="../../tables/plot.html" xlink:title="plot" target="_top">
<polygon fill="#ffffff" stroke="transparent" points="533,-37 533,-667 784,-667 784,-37 533,-37"/>
<polygon fill="#f5f5f5" stroke="transparent" points="533.5,-645 533.5,-667 784.5,-667 784.5,-645 533.5,-645"/>
<polygon fill="none" stroke="black" points="533.5,-645 533.5,-667 784.5,-667 784.5,-645 533.5,-645"/>
<text text-anchor="start" x="538" y="-654.2" font-family="Helvetica,sans-Serif" font-weight="bold" font-size="11.00">plot</text>
<text text-anchor="start" x="742.5" y="-653.2" font-family="Helvetica,sans-Serif" font-size="11.00">[table]</text>
<polygon fill="none" stroke="black" points="533.5,-623 533.5,-645 784.5,-645 784.5,-623 533.5,-623"/>
<image xlink:href="../../images/primaryKeys.png" width="11px" height="12px" preserveAspectRatio="xMinYMin meet" x="538.5" y="-640"/>
<text text-anchor="start" x="553.5" y="-631.2" font-family="Helvetica,sans-Serif" font-size="11.00">id</text>
<polygon fill="#ffffff" stroke="transparent" points="533.5,-601 533.5,-623 784.5,-623 784.5,-601 533.5,-601"/>
<polygon fill="none" stroke="black" points="533.5,-601 533.5,-623 784.5,-623 784.5,-601 533.5,-601"/>
<image xlink:href="../../images/foreignKeys.png" width="11px" height="12px" preserveAspectRatio="xMinYMin meet" x="538.5" y="-618"/>
<text text-anchor="start" x="553.5" y="-609.2" font-family="Helvetica,sans-Serif" font-size="11.00">cluster_id</text>
<polygon fill="#ffffff" stroke="transparent" points="533.5,-579 533.5,-601 784.5,-601 784.5,-579 533.5,-579"/>
<polygon fill="none" stroke="black" points="533.5,-579 533.5,-601 784.5,-601 784.5,-579 533.5,-579"/>
<text text-anchor="start" x="553.5" y="-587.2" font-family="Helvetica,sans-Serif" font-size="11.00">plot_name</text>
<polygon fill="none" stroke="black" points="533.5,-557 533.5,-579 784.5,-579 784.5,-557 533.5,-557"/>
<image xlink:href="../../images/foreignKeys.png" width="11px" height="12px" preserveAspectRatio="xMinYMin meet" x="538.5" y="-574"/>
<text text-anchor="start" x="553.5" y="-565.2" font-family="Helvetica,sans-Serif" font-size="11.00">sampling_strata</text>
<polygon fill="none" stroke="black" points="533.5,-535 533.5,-557 784.5,-557 784.5,-535 533.5,-535"/>
<image xlink:href="../../images/foreignKeys.png" width="11px" height="12px" preserveAspectRatio="xMinYMin meet" x="538.5" y="-552"/>
<text text-anchor="start" x="553.5" y="-543.2" font-family="Helvetica,sans-Serif" font-size="11.00">growth_district</text>
<polygon fill="none" stroke="black" points="533.5,-513 533.5,-535 784.5,-535 784.5,-513 533.5,-513"/>
<image xlink:href="../../images/foreignKeys.png" width="11px" height="12px" preserveAspectRatio="xMinYMin meet" x="538.5" y="-530"/>
<text text-anchor="start" x="553.5" y="-521.2" font-family="Helvetica,sans-Serif" font-size="11.00">forest_decision</text>
<polygon fill="none" stroke="black" points="533.5,-491 533.5,-513 784.5,-513 784.5,-491 533.5,-491"/>
<image xlink:href="../../images/foreignKeys.png" width="11px" height="12px" preserveAspectRatio="xMinYMin meet" x="538.5" y="-508"/>
<text text-anchor="start" x="553.5" y="-499.2" font-family="Helvetica,sans-Serif" font-size="11.00">forestry_department</text>
<polygon fill="none" stroke="black" points="533.5,-469 533.5,-491 784.5,-491 784.5,-469 533.5,-469"/>
<image xlink:href="../../images/foreignKeys.png" width="11px" height="12px" preserveAspectRatio="xMinYMin meet" x="538.5" y="-486"/>
<text text-anchor="start" x="553.5" y="-477.2" font-family="Helvetica,sans-Serif" font-size="11.00">height_layer_class</text>
<polygon fill="none" stroke="black" points="533.5,-447 533.5,-469 784.5,-469 784.5,-447 533.5,-447"/>
<image xlink:href="../../images/foreignKeys.png" width="11px" height="12px" preserveAspectRatio="xMinYMin meet" x="538.5" y="-464"/>
<text text-anchor="start" x="553.5" y="-455.2" font-family="Helvetica,sans-Serif" font-size="11.00">property_type</text>
<polygon fill="none" stroke="black" points="533.5,-425 533.5,-447 784.5,-447 784.5,-425 533.5,-425"/>
<image xlink:href="../../images/foreignKeys.png" width="11px" height="12px" preserveAspectRatio="xMinYMin meet" x="538.5" y="-442"/>
<text text-anchor="start" x="553.5" y="-433.2" font-family="Helvetica,sans-Serif" font-size="11.00">property_size_class</text>
<polygon fill="none" stroke="black" points="533.5,-403 533.5,-425 784.5,-425 784.5,-403 533.5,-403"/>
<image xlink:href="../../images/foreignKeys.png" width="11px" height="12px" preserveAspectRatio="xMinYMin meet" x="538.5" y="-420"/>
<text text-anchor="start" x="553.5" y="-411.2" font-family="Helvetica,sans-Serif" font-size="11.00">forest_type</text>
<polygon fill="none" stroke="black" points="533.5,-381 533.5,-403 784.5,-403 784.5,-381 533.5,-381"/>
<image xlink:href="../../images/foreignKeys.png" width="11px" height="12px" preserveAspectRatio="xMinYMin meet" x="538.5" y="-398"/>
<text text-anchor="start" x="553.5" y="-389.2" font-family="Helvetica,sans-Serif" font-size="11.00">habitat_type</text>
<polygon fill="none" stroke="black" points="533.5,-359 533.5,-381 784.5,-381 784.5,-359 533.5,-359"/>
<image xlink:href="../../images/foreignKeys.png" width="11px" height="12px" preserveAspectRatio="xMinYMin meet" x="538.5" y="-376"/>
<text text-anchor="start" x="553.5" y="-367.2" font-family="Helvetica,sans-Serif" font-size="11.00">habitat_type_source</text>
<polygon fill="none" stroke="black" points="533.5,-337 533.5,-359 784.5,-359 784.5,-337 533.5,-337"/>
<image xlink:href="../../images/foreignKeys.png" width="11px" height="12px" preserveAspectRatio="xMinYMin meet" x="538.5" y="-354"/>
<text text-anchor="start" x="553.5" y="-345.2" font-family="Helvetica,sans-Serif" font-size="11.00">use_restriction</text>
<polygon fill="none" stroke="black" points="533.5,-315 533.5,-337 784.5,-337 784.5,-315 533.5,-315"/>
<image xlink:href="../../images/foreignKeys.png" width="11px" height="12px" preserveAspectRatio="xMinYMin meet" x="538.5" y="-332"/>
<text text-anchor="start" x="553.5" y="-323.2" font-family="Helvetica,sans-Serif" font-size="11.00">land_use</text>
<polygon fill="none" stroke="black" points="533.5,-293 533.5,-315 784.5,-315 784.5,-293 533.5,-293"/>
<image xlink:href="../../images/foreignKeys.png" width="11px" height="12px" preserveAspectRatio="xMinYMin meet" x="538.5" y="-310"/>
<text text-anchor="start" x="553.5" y="-301.2" font-family="Helvetica,sans-Serif" font-size="11.00">marking_state</text>
<polygon fill="none" stroke="black" points="533.5,-271 533.5,-293 784.5,-293 784.5,-271 533.5,-271"/>
<image xlink:href="../../images/foreignKeys.png" width="11px" height="12px" preserveAspectRatio="xMinYMin meet" x="538.5" y="-288"/>
<text text-anchor="start" x="553.5" y="-279.2" font-family="Helvetica,sans-Serif" font-size="11.00">marking_profile</text>
<polygon fill="none" stroke="black" points="533.5,-249 533.5,-271 784.5,-271 784.5,-249 533.5,-249"/>
<image xlink:href="../../images/foreignKeys.png" width="11px" height="12px" preserveAspectRatio="xMinYMin meet" x="538.5" y="-266"/>
<text text-anchor="start" x="553.5" y="-257.2" font-family="Helvetica,sans-Serif" font-size="11.00">terrain_form</text>
<polygon fill="none" stroke="black" points="533.5,-227 533.5,-249 784.5,-249 784.5,-227 533.5,-227"/>
<image xlink:href="../../images/foreignKeys.png" width="11px" height="12px" preserveAspectRatio="xMinYMin meet" x="538.5" y="-244"/>
<text text-anchor="start" x="553.5" y="-235.2" font-family="Helvetica,sans-Serif" font-size="11.00">management_type</text>
<polygon fill="none" stroke="black" points="533.5,-205 533.5,-227 784.5,-227 784.5,-205 533.5,-205"/>
<image xlink:href="../../images/foreignKeys.png" width="11px" height="12px" preserveAspectRatio="xMinYMin meet" x="538.5" y="-222"/>
<text text-anchor="start" x="553.5" y="-213.2" font-family="Helvetica,sans-Serif" font-size="11.00">harvesting_method</text>
<polygon fill="none" stroke="black" points="533.5,-183 533.5,-205 784.5,-205 784.5,-183 533.5,-183"/>
<image xlink:href="../../images/foreignKeys.png" width="11px" height="12px" preserveAspectRatio="xMinYMin meet" x="538.5" y="-200"/>
<text text-anchor="start" x="553.5" y="-191.2" font-family="Helvetica,sans-Serif" font-size="11.00">layer_type</text>
<polygon fill="none" stroke="black" points="533.5,-161 533.5,-183 784.5,-183 784.5,-161 533.5,-161"/>
<image xlink:href="../../images/foreignKeys.png" width="11px" height="12px" preserveAspectRatio="xMinYMin meet" x="538.5" y="-178"/>
<text text-anchor="start" x="553.5" y="-169.2" font-family="Helvetica,sans-Serif" font-size="11.00">stand_phase</text>
<polygon fill="none" stroke="black" points="533.5,-139 533.5,-161 784.5,-161 784.5,-139 533.5,-139"/>
<image xlink:href="../../images/foreignKeys.png" width="11px" height="12px" preserveAspectRatio="xMinYMin meet" x="538.5" y="-156"/>
<text text-anchor="start" x="553.5" y="-147.2" font-family="Helvetica,sans-Serif" font-size="11.00">sablings_layer</text>
<polygon fill="none" stroke="black" points="533.5,-117 533.5,-139 784.5,-139 784.5,-117 533.5,-117"/>
<image xlink:href="../../images/foreignKeys.png" width="11px" height="12px" preserveAspectRatio="xMinYMin meet" x="538.5" y="-134"/>
<text text-anchor="start" x="553.5" y="-125.2" font-family="Helvetica,sans-Serif" font-size="11.00">trees_less_4meter_mirrored</text>
<polygon fill="none" stroke="black" points="533.5,-95 533.5,-117 784.5,-117 784.5,-95 533.5,-95"/>
<image xlink:href="../../images/foreignKeys.png" width="11px" height="12px" preserveAspectRatio="xMinYMin meet" x="538.5" y="-112"/>
<text text-anchor="start" x="553.5" y="-103.2" font-family="Helvetica,sans-Serif" font-size="11.00">trees_less_4meter_count_factor</text>
<polygon fill="none" stroke="black" points="533.5,-73 533.5,-95 784.5,-95 784.5,-73 533.5,-73"/>
<image xlink:href="../../images/foreignKeys.png" width="11px" height="12px" preserveAspectRatio="xMinYMin meet" x="538.5" y="-90"/>
<text text-anchor="start" x="553.5" y="-81.2" font-family="Helvetica,sans-Serif" font-size="11.00">trees_less_4meter_layer</text>
<polygon fill="none" stroke="black" points="533.5,-55 533.5,-73 784.5,-73 784.5,-55 533.5,-55"/>
<text text-anchor="start" x="536.5" y="-61.2" font-family="Helvetica,sans-Serif" font-size="11.00">...</text>
<polygon fill="#ffffff" stroke="transparent" points="533.5,-37 533.5,-55 784.5,-55 784.5,-37 533.5,-37"/>
<polygon fill="none" stroke="black" points="533.5,-37 533.5,-55 784.5,-55 784.5,-37 533.5,-37"/>
<polygon fill="#ffffff" stroke="transparent" points="534.5,-38 534.5,-54 616.5,-54 616.5,-38 534.5,-38"/>
<text text-anchor="start" x="536.5" y="-43.2" font-family="Helvetica,sans-Serif" font-size="11.00">&lt; 24</text>
<polygon fill="#ffffff" stroke="transparent" points="616.5,-38 616.5,-54 708.5,-54 708.5,-38 616.5,-38"/>
<text text-anchor="start" x="644" y="-43.2" font-family="Helvetica,sans-Serif" font-size="11.00">0 rows</text>
<polygon fill="#ffffff" stroke="transparent" points="708.5,-38 708.5,-54 783.5,-54 783.5,-38 708.5,-38"/>
<text text-anchor="start" x="761.5" y="-43.2" font-family="Helvetica,sans-Serif" font-size="11.00">7 &gt;</text>
<polygon fill="black" stroke="black" points="616.5,-38 616.5,-54 616.5,-54 616.5,-38 616.5,-38"/>
<polygon fill="black" stroke="black" points="708.5,-38 708.5,-54 708.5,-54 708.5,-38 708.5,-38"/>
</a>
</g>
</g>
<!-- lookup_forest_type -->
<g id="node2" class="node">
<title>lookup_forest_type</title>
<g id="a_node2"><a xlink:href="../../tables/lookup_forest_type.html" xlink:title="lookup_forest_type" target="_top">
<polygon fill="#ffffff" stroke="transparent" points="8,-383 8,-515 484,-515 484,-383 8,-383"/>
<polygon fill="#f5f5f5" stroke="transparent" points="10,-491 10,-513 482,-513 482,-491 10,-491"/>
<polygon fill="none" stroke="black" points="10,-491 10,-513 482,-513 482,-491 10,-491"/>
<text text-anchor="start" x="15" y="-500.2" font-family="Helvetica,sans-Serif" font-weight="bold" font-size="11.00">lookup_forest_type</text>
<text text-anchor="start" x="440" y="-499.2" font-family="Helvetica,sans-Serif" font-size="11.00">[table]</text>
<polygon fill="none" stroke="black" points="10,-469 10,-491 170,-491 170,-469 10,-469"/>
<text text-anchor="start" x="30" y="-477.2" font-family="Helvetica,sans-Serif" font-size="11.00">name_de</text>
<polygon fill="none" stroke="black" points="170,-469 170,-491 482,-491 482,-469 170,-469"/>
<text text-anchor="start" x="173" y="-477.2" font-family="Helvetica,sans-Serif" font-size="11.00">varchar[150]</text>
<polygon fill="none" stroke="black" points="10,-447 10,-469 170,-469 170,-447 10,-447"/>
<text text-anchor="start" x="30" y="-455.2" font-family="Helvetica,sans-Serif" font-size="11.00">name_en</text>
<polygon fill="none" stroke="black" points="170,-447 170,-469 482,-469 482,-447 170,-447"/>
<text text-anchor="start" x="173" y="-455.2" font-family="Helvetica,sans-Serif" font-size="11.00">varchar[150]</text>
<polygon fill="none" stroke="black" points="10,-425 10,-447 170,-447 170,-425 10,-425"/>
<text text-anchor="start" x="30" y="-433.2" font-family="Helvetica,sans-Serif" font-size="11.00">sort</text>
<polygon fill="none" stroke="black" points="170,-425 170,-447 482,-447 482,-425 170,-425"/>
<text text-anchor="start" x="173" y="-433.2" font-family="Helvetica,sans-Serif" font-size="11.00">int4[10]</text>
<polygon fill="#ffffff" stroke="transparent" points="10,-403 10,-425 170,-425 170,-403 10,-403"/>
<polygon fill="none" stroke="black" points="10,-403 10,-425 170,-425 170,-403 10,-403"/>
<text text-anchor="start" x="30" y="-411.2" font-family="Helvetica,sans-Serif" font-size="11.00">abbreviation</text>
<polygon fill="none" stroke="black" points="170,-403 170,-425 482,-425 482,-403 170,-403"/>
<text text-anchor="start" x="173" y="-411.2" font-family="Helvetica,sans-Serif" font-size="11.00">&quot;private_ci2027_001&quot;.&quot;enum_forest_type&quot;[2147483647]</text>
<polygon fill="#ffffff" stroke="transparent" points="10,-385 10,-403 482,-403 482,-385 10,-385"/>
<polygon fill="none" stroke="black" points="10,-385 10,-403 482,-403 482,-385 10,-385"/>
<polygon fill="#ffffff" stroke="transparent" points="11,-386 11,-402 162,-402 162,-386 11,-386"/>
<text text-anchor="start" x="13" y="-391.2" font-family="Helvetica,sans-Serif" font-size="11.00">&lt; 0</text>
<polygon fill="#ffffff" stroke="transparent" points="162,-386 162,-402 330,-402 330,-386 162,-386"/>
<text text-anchor="start" x="227.5" y="-391.2" font-family="Helvetica,sans-Serif" font-size="11.00">0 rows</text>
<polygon fill="#ffffff" stroke="transparent" points="330,-386 330,-402 481,-402 481,-386 330,-386"/>
<text text-anchor="start" x="459" y="-391.2" font-family="Helvetica,sans-Serif" font-size="11.00">1 &gt;</text>
<polygon fill="black" stroke="black" points="162,-386 162,-402 162,-402 162,-386 162,-386"/>
<polygon fill="black" stroke="black" points="330,-386 330,-402 330,-402 330,-386 330,-386"/>
<polygon fill="none" stroke="black" stroke-width="2" points="9,-384 9,-514 483,-514 483,-384 9,-384"/>
</a>
</g>
</g>
<!-- plot&#45;&gt;lookup_forest_type -->
<g id="edge1" class="edge">
<title>plot:w&#45;&gt;lookup_forest_type:e</title>
<path fill="none" stroke="black" d="M517.84,-414C506.41,-414 499.16,-414 483,-414"/>
<polygon fill="black" stroke="black" points="524.5,-414 532.5,-417.6 528.5,-414 532.5,-414 532.5,-414 532.5,-414 528.5,-414 532.5,-410.4 524.5,-414 524.5,-414"/>
<ellipse fill="none" stroke="black" cx="521.3" cy="-414" rx="3.2" ry="3.2"/>
</g>
</g>
</svg>
