<?xml version="1.0" encoding="UTF-8" standalone="no"?>
<!DOCTYPE svg PUBLIC "-//W3C//DTD SVG 1.1//EN"
 "http://www.w3.org/Graphics/SVG/1.1/DTD/svg11.dtd">
<!-- Generated by graphviz version 2.43.0 (0)
 -->
<!-- Title: oneDegreeRelationshipsDiagram Pages: 1 -->
<svg width="646pt" height="219pt"
 viewBox="0.00 0.00 646.00 219.00" xmlns="http://www.w3.org/2000/svg" xmlns:xlink="http://www.w3.org/1999/xlink">
<g id="graph0" class="graph" transform="scale(1 1) rotate(0) translate(4 215)">
<title>oneDegreeRelationshipsDiagram</title>
<polygon fill="#ffffff" stroke="transparent" points="-4,4 -4,-215 642,-215 642,4 -4,4"/>
<text text-anchor="middle" x="79.5" y="-7.2" font-family="Helvetica,sans-Serif" font-size="11.00">Generated by SchemaSpy</text>
<!-- edges -->
<g id="node1" class="node">
<title>edges</title>
<g id="a_node1"><a xlink:href="../../tables/edges.html" xlink:title="edges" target="_top">
<polygon fill="#ffffff" stroke="transparent" points="521,-37 521,-205 630,-205 630,-37 521,-37"/>
<polygon fill="#f5f5f5" stroke="transparent" points="521.5,-183 521.5,-205 630.5,-205 630.5,-183 521.5,-183"/>
<polygon fill="none" stroke="black" points="521.5,-183 521.5,-205 630.5,-205 630.5,-183 521.5,-183"/>
<text text-anchor="start" x="526.5" y="-192.2" font-family="Helvetica,sans-Serif" font-weight="bold" font-size="11.00">edges</text>
<text text-anchor="start" x="588.5" y="-191.2" font-family="Helvetica,sans-Serif" font-size="11.00">[table]</text>
<polygon fill="none" stroke="black" points="521.5,-161 521.5,-183 630.5,-183 630.5,-161 521.5,-161"/>
<image xlink:href="../../images/primaryKeys.png" width="11px" height="12px" preserveAspectRatio="xMinYMin meet" x="526.5" y="-178"/>
<text text-anchor="start" x="541.5" y="-169.2" font-family="Helvetica,sans-Serif" font-size="11.00">id</text>
<polygon fill="none" stroke="black" points="521.5,-139 521.5,-161 630.5,-161 630.5,-139 521.5,-139"/>
<image xlink:href="../../images/foreignKeys.png" width="11px" height="12px" preserveAspectRatio="xMinYMin meet" x="526.5" y="-156"/>
<text text-anchor="start" x="541.5" y="-147.2" font-family="Helvetica,sans-Serif" font-size="11.00">plot_id</text>
<polygon fill="none" stroke="black" points="521.5,-117 521.5,-139 630.5,-139 630.5,-117 521.5,-117"/>
<image xlink:href="../../images/foreignKeys.png" width="11px" height="12px" preserveAspectRatio="xMinYMin meet" x="526.5" y="-134"/>
<text text-anchor="start" x="541.5" y="-125.2" font-family="Helvetica,sans-Serif" font-size="11.00">edge_status</text>
<polygon fill="none" stroke="black" points="521.5,-95 521.5,-117 630.5,-117 630.5,-95 521.5,-95"/>
<image xlink:href="../../images/foreignKeys.png" width="11px" height="12px" preserveAspectRatio="xMinYMin meet" x="526.5" y="-112"/>
<text text-anchor="start" x="541.5" y="-103.2" font-family="Helvetica,sans-Serif" font-size="11.00">edge_type</text>
<polygon fill="none" stroke="black" points="521.5,-73 521.5,-95 630.5,-95 630.5,-73 521.5,-73"/>
<image xlink:href="../../images/foreignKeys.png" width="11px" height="12px" preserveAspectRatio="xMinYMin meet" x="526.5" y="-90"/>
<text text-anchor="start" x="541.5" y="-81.2" font-family="Helvetica,sans-Serif" font-size="11.00">terrain</text>
<polygon fill="none" stroke="black" points="521.5,-55 521.5,-73 630.5,-73 630.5,-55 521.5,-55"/>
<text text-anchor="start" x="524.5" y="-61.2" font-family="Helvetica,sans-Serif" font-size="11.00">...</text>
<polygon fill="#ffffff" stroke="transparent" points="521.5,-37 521.5,-55 630.5,-55 630.5,-37 521.5,-37"/>
<polygon fill="none" stroke="black" points="521.5,-37 521.5,-55 630.5,-55 630.5,-37 521.5,-37"/>
<polygon fill="#ffffff" stroke="transparent" points="522.5,-38 522.5,-54 556.5,-54 556.5,-38 522.5,-38"/>
<text text-anchor="start" x="524.5" y="-43.2" font-family="Helvetica,sans-Serif" font-size="11.00">&lt; 4</text>
<polygon fill="#ffffff" stroke="transparent" points="556.5,-38 556.5,-54 607.5,-54 607.5,-38 556.5,-38"/>
<text text-anchor="start" x="563.5" y="-43.2" font-family="Helvetica,sans-Serif" font-size="11.00">0 rows</text>
<polygon fill="#ffffff" stroke="transparent" points="607.5,-38 607.5,-54 629.5,-54 629.5,-38 607.5,-38"/>
<text text-anchor="start" x="619.5" y="-43.2" font-family="Helvetica,sans-Serif" font-size="11.00"> &#160;</text>
<polygon fill="black" stroke="black" points="556.5,-38 556.5,-54 556.5,-54 556.5,-38 556.5,-38"/>
<polygon fill="black" stroke="black" points="607.5,-38 607.5,-54 607.5,-54 607.5,-38 607.5,-38"/>
</a>
</g>
</g>
<!-- lookup_terrain -->
<g id="node2" class="node">
<title>lookup_terrain</title>
<g id="a_node2"><a xlink:href="../../tables/lookup_terrain.html" xlink:title="lookup_terrain" target="_top">
<polygon fill="#ffffff" stroke="transparent" points="8,-53 8,-207 472,-207 472,-53 8,-53"/>
<polygon fill="#f5f5f5" stroke="transparent" points="10,-183 10,-205 470,-205 470,-183 10,-183"/>
<polygon fill="none" stroke="black" points="10,-183 10,-205 470,-205 470,-183 10,-183"/>
<text text-anchor="start" x="15" y="-192.2" font-family="Helvetica,sans-Serif" font-weight="bold" font-size="11.00">lookup_terrain</text>
<text text-anchor="start" x="428" y="-191.2" font-family="Helvetica,sans-Serif" font-size="11.00">[table]</text>
<polygon fill="none" stroke="black" points="10,-161 10,-183 137,-183 137,-161 10,-161"/>
<text text-anchor="start" x="30" y="-169.2" font-family="Helvetica,sans-Serif" font-size="11.00">name_de</text>
<polygon fill="none" stroke="black" points="137,-161 137,-183 470,-183 470,-161 137,-161"/>
<text text-anchor="start" x="140" y="-169.2" font-family="Helvetica,sans-Serif" font-size="11.00">varchar[150]</text>
<polygon fill="none" stroke="black" points="10,-139 10,-161 137,-161 137,-139 10,-139"/>
<text text-anchor="start" x="30" y="-147.2" font-family="Helvetica,sans-Serif" font-size="11.00">name_en</text>
<polygon fill="none" stroke="black" points="137,-139 137,-161 470,-161 470,-139 137,-139"/>
<text text-anchor="start" x="140" y="-147.2" font-family="Helvetica,sans-Serif" font-size="11.00">varchar[150]</text>
<polygon fill="none" stroke="black" points="10,-117 10,-139 137,-139 137,-117 10,-117"/>
<text text-anchor="start" x="30" y="-125.2" font-family="Helvetica,sans-Serif" font-size="11.00">interval</text>
<polygon fill="none" stroke="black" points="137,-117 137,-139 470,-139 470,-117 137,-117"/>
<text text-anchor="start" x="140" y="-125.2" font-family="Helvetica,sans-Serif" font-size="11.00">&quot;private_ci2027_001&quot;.&quot;_enum_interval_name&quot;[2147483647]</text>
<polygon fill="none" stroke="black" points="10,-95 10,-117 137,-117 137,-95 10,-95"/>
<text text-anchor="start" x="30" y="-103.2" font-family="Helvetica,sans-Serif" font-size="11.00">sort</text>
<polygon fill="none" stroke="black" points="137,-95 137,-117 470,-117 470,-95 137,-95"/>
<text text-anchor="start" x="140" y="-103.2" font-family="Helvetica,sans-Serif" font-size="11.00">int4[10]</text>
<polygon fill="#ffffff" stroke="transparent" points="10,-73 10,-95 137,-95 137,-73 10,-73"/>
<polygon fill="none" stroke="black" points="10,-73 10,-95 137,-95 137,-73 10,-73"/>
<text text-anchor="start" x="30" y="-81.2" font-family="Helvetica,sans-Serif" font-size="11.00">abbreviation</text>
<polygon fill="none" stroke="black" points="137,-73 137,-95 470,-95 470,-73 137,-73"/>
<text text-anchor="start" x="140" y="-81.2" font-family="Helvetica,sans-Serif" font-size="11.00">&quot;private_ci2027_001&quot;.&quot;enum_terrain&quot;[2147483647]</text>
<polygon fill="#ffffff" stroke="transparent" points="10,-55 10,-73 470,-73 470,-55 10,-55"/>
<polygon fill="none" stroke="black" points="10,-55 10,-73 470,-73 470,-55 10,-55"/>
<polygon fill="#ffffff" stroke="transparent" points="11,-56 11,-72 158,-72 158,-56 11,-56"/>
<text text-anchor="start" x="13" y="-61.2" font-family="Helvetica,sans-Serif" font-size="11.00">&lt; 0</text>
<polygon fill="#ffffff" stroke="transparent" points="158,-56 158,-72 322,-72 322,-56 158,-56"/>
<text text-anchor="start" x="221.5" y="-61.2" font-family="Helvetica,sans-Serif" font-size="11.00">0 rows</text>
<polygon fill="#ffffff" stroke="transparent" points="322,-56 322,-72 469,-72 469,-56 322,-56"/>
<text text-anchor="start" x="447" y="-61.2" font-family="Helvetica,sans-Serif" font-size="11.00">1 &gt;</text>
<polygon fill="black" stroke="black" points="158,-56 158,-72 158,-72 158,-56 158,-56"/>
<polygon fill="black" stroke="black" points="322,-56 322,-72 322,-72 322,-56 322,-56"/>
<polygon fill="none" stroke="black" stroke-width="2" points="9,-54 9,-206 471,-206 471,-54 9,-54"/>
</a>
</g>
</g>
<!-- edges&#45;&gt;lookup_terrain -->
<g id="edge1" class="edge">
<title>edges:w&#45;&gt;lookup_terrain:e</title>
<path fill="none" stroke="black" d="M505.84,-84C494.41,-84 487.16,-84 471,-84"/>
<polygon fill="black" stroke="black" points="512.5,-84 520.5,-87.6 516.5,-84 520.5,-84 520.5,-84 520.5,-84 516.5,-84 520.5,-80.4 512.5,-84 512.5,-84"/>
<ellipse fill="none" stroke="black" cx="509.3" cy="-84" rx="3.2" ry="3.2"/>
</g>
</g>
</svg>
