<?xml version="1.0" encoding="UTF-8" standalone="no"?>
<!DOCTYPE svg PUBLIC "-//W3C//DTD SVG 1.1//EN"
 "http://www.w3.org/Graphics/SVG/1.1/DTD/svg11.dtd">
<!-- Generated by graphviz version 2.43.0 (0)
 -->
<!-- Title: oneDegreeRelationshipsDiagram Pages: 1 -->
<svg width="249pt" height="159pt"
 viewBox="0.00 0.00 249.00 159.00" xmlns="http://www.w3.org/2000/svg" xmlns:xlink="http://www.w3.org/1999/xlink">
<g id="graph0" class="graph" transform="scale(1 1) rotate(0) translate(4 155)">
<title>oneDegreeRelationshipsDiagram</title>
<polygon fill="#ffffff" stroke="transparent" points="-4,4 -4,-155 245,-155 245,4 -4,4"/>
<text text-anchor="middle" x="79.5" y="-7.2" font-family="Helvetica,sans-Serif" font-size="11.00">Generated by SchemaSpy</text>
<!-- lookup_template -->
<g id="node1" class="node">
<title>lookup_template</title>
<g id="a_node1"><a xlink:href="../../tables/lookup_template.html" xlink:title="lookup_template" target="_top">
<polygon fill="#ffffff" stroke="transparent" points="8,-37 8,-147 233,-147 233,-37 8,-37"/>
<polygon fill="#f5f5f5" stroke="transparent" points="10.5,-123 10.5,-145 231.5,-145 231.5,-123 10.5,-123"/>
<polygon fill="none" stroke="black" points="10.5,-123 10.5,-145 231.5,-145 231.5,-123 10.5,-123"/>
<text text-anchor="start" x="15.5" y="-132.2" font-family="Helvetica,sans-Serif" font-weight="bold" font-size="11.00">lookup_template</text>
<text text-anchor="start" x="189.5" y="-131.2" font-family="Helvetica,sans-Serif" font-size="11.00">[table]</text>
<polygon fill="none" stroke="black" points="10.5,-101 10.5,-123 153.5,-123 153.5,-101 10.5,-101"/>
<text text-anchor="start" x="30.5" y="-109.2" font-family="Helvetica,sans-Serif" font-size="11.00">name_de</text>
<polygon fill="none" stroke="black" points="153.5,-101 153.5,-123 231.5,-123 231.5,-101 153.5,-101"/>
<text text-anchor="start" x="156.5" y="-109.2" font-family="Helvetica,sans-Serif" font-size="11.00">varchar[150]</text>
<polygon fill="none" stroke="black" points="10.5,-79 10.5,-101 153.5,-101 153.5,-79 10.5,-79"/>
<text text-anchor="start" x="30.5" y="-87.2" font-family="Helvetica,sans-Serif" font-size="11.00">name_en</text>
<polygon fill="none" stroke="black" points="153.5,-79 153.5,-101 231.5,-101 231.5,-79 153.5,-79"/>
<text text-anchor="start" x="156.5" y="-87.2" font-family="Helvetica,sans-Serif" font-size="11.00">varchar[150]</text>
<polygon fill="none" stroke="black" points="10.5,-57 10.5,-79 153.5,-79 153.5,-57 10.5,-57"/>
<text text-anchor="start" x="30.5" y="-65.2" font-family="Helvetica,sans-Serif" font-size="11.00">sort</text>
<polygon fill="none" stroke="black" points="153.5,-57 153.5,-79 231.5,-79 231.5,-57 153.5,-57"/>
<text text-anchor="start" x="156.5" y="-65.2" font-family="Helvetica,sans-Serif" font-size="11.00">int4[10]</text>
<polygon fill="#ffffff" stroke="transparent" points="10.5,-39 10.5,-57 231.5,-57 231.5,-39 10.5,-39"/>
<polygon fill="none" stroke="black" points="10.5,-39 10.5,-57 231.5,-57 231.5,-39 10.5,-39"/>
<polygon fill="#ffffff" stroke="transparent" points="11.5,-40 11.5,-56 79.5,-56 79.5,-40 11.5,-40"/>
<text text-anchor="start" x="13.5" y="-45.2" font-family="Helvetica,sans-Serif" font-size="11.00">&lt; 0</text>
<polygon fill="#ffffff" stroke="transparent" points="79.5,-40 79.5,-56 163.5,-56 163.5,-40 79.5,-40"/>
<text text-anchor="start" x="103" y="-45.2" font-family="Helvetica,sans-Serif" font-size="11.00">0 rows</text>
<polygon fill="#ffffff" stroke="transparent" points="163.5,-40 163.5,-56 230.5,-56 230.5,-40 163.5,-40"/>
<text text-anchor="start" x="208.5" y="-45.2" font-family="Helvetica,sans-Serif" font-size="11.00">0 &gt;</text>
<polygon fill="black" stroke="black" points="79.5,-40 79.5,-56 79.5,-56 79.5,-40 79.5,-40"/>
<polygon fill="black" stroke="black" points="163.5,-40 163.5,-56 163.5,-56 163.5,-40 163.5,-40"/>
<polygon fill="none" stroke="black" stroke-width="2" points="9,-38 9,-146 232,-146 232,-38 9,-38"/>
</a>
</g>
</g>
</g>
</svg>
