<?xml version="1.0" encoding="UTF-8" standalone="no"?>
<!DOCTYPE svg PUBLIC "-//W3C//DTD SVG 1.1//EN"
 "http://www.w3.org/Graphics/SVG/1.1/DTD/svg11.dtd">
<!-- Generated by graphviz version 2.43.0 (0)
 -->
<!-- Title: oneDegreeRelationshipsDiagram Pages: 1 -->
<svg width="892pt" height="679pt"
 viewBox="0.00 0.00 892.00 679.00" xmlns="http://www.w3.org/2000/svg" xmlns:xlink="http://www.w3.org/1999/xlink">
<g id="graph0" class="graph" transform="scale(1 1) rotate(0) translate(4 675)">
<title>oneDegreeRelationshipsDiagram</title>
<polygon fill="#ffffff" stroke="transparent" points="-4,4 -4,-675 888,-675 888,4 -4,4"/>
<text text-anchor="middle" x="79.5" y="-7.2" font-family="Helvetica,sans-Serif" font-size="11.00">Generated by SchemaSpy</text>
<!-- plot -->
<g id="node1" class="node">
<title>plot</title>
<g id="a_node1"><a xlink:href="../../tables/plot.html" xlink:title="plot" target="_top">
<polygon fill="#ffffff" stroke="transparent" points="625,-37 625,-667 876,-667 876,-37 625,-37"/>
<polygon fill="#f5f5f5" stroke="transparent" points="625.5,-645 625.5,-667 876.5,-667 876.5,-645 625.5,-645"/>
<polygon fill="none" stroke="black" points="625.5,-645 625.5,-667 876.5,-667 876.5,-645 625.5,-645"/>
<text text-anchor="start" x="630" y="-654.2" font-family="Helvetica,sans-Serif" font-weight="bold" font-size="11.00">plot</text>
<text text-anchor="start" x="834.5" y="-653.2" font-family="Helvetica,sans-Serif" font-size="11.00">[table]</text>
<polygon fill="none" stroke="black" points="625.5,-623 625.5,-645 876.5,-645 876.5,-623 625.5,-623"/>
<image xlink:href="../../images/primaryKeys.png" width="11px" height="12px" preserveAspectRatio="xMinYMin meet" x="630.5" y="-640"/>
<text text-anchor="start" x="645.5" y="-631.2" font-family="Helvetica,sans-Serif" font-size="11.00">id</text>
<polygon fill="#ffffff" stroke="transparent" points="625.5,-601 625.5,-623 876.5,-623 876.5,-601 625.5,-601"/>
<polygon fill="none" stroke="black" points="625.5,-601 625.5,-623 876.5,-623 876.5,-601 625.5,-601"/>
<image xlink:href="../../images/foreignKeys.png" width="11px" height="12px" preserveAspectRatio="xMinYMin meet" x="630.5" y="-618"/>
<text text-anchor="start" x="645.5" y="-609.2" font-family="Helvetica,sans-Serif" font-size="11.00">cluster_id</text>
<polygon fill="#ffffff" stroke="transparent" points="625.5,-579 625.5,-601 876.5,-601 876.5,-579 625.5,-579"/>
<polygon fill="none" stroke="black" points="625.5,-579 625.5,-601 876.5,-601 876.5,-579 625.5,-579"/>
<text text-anchor="start" x="645.5" y="-587.2" font-family="Helvetica,sans-Serif" font-size="11.00">plot_name</text>
<polygon fill="none" stroke="black" points="625.5,-557 625.5,-579 876.5,-579 876.5,-557 625.5,-557"/>
<image xlink:href="../../images/foreignKeys.png" width="11px" height="12px" preserveAspectRatio="xMinYMin meet" x="630.5" y="-574"/>
<text text-anchor="start" x="645.5" y="-565.2" font-family="Helvetica,sans-Serif" font-size="11.00">sampling_strata</text>
<polygon fill="none" stroke="black" points="625.5,-535 625.5,-557 876.5,-557 876.5,-535 625.5,-535"/>
<image xlink:href="../../images/foreignKeys.png" width="11px" height="12px" preserveAspectRatio="xMinYMin meet" x="630.5" y="-552"/>
<text text-anchor="start" x="645.5" y="-543.2" font-family="Helvetica,sans-Serif" font-size="11.00">growth_district</text>
<polygon fill="none" stroke="black" points="625.5,-513 625.5,-535 876.5,-535 876.5,-513 625.5,-513"/>
<image xlink:href="../../images/foreignKeys.png" width="11px" height="12px" preserveAspectRatio="xMinYMin meet" x="630.5" y="-530"/>
<text text-anchor="start" x="645.5" y="-521.2" font-family="Helvetica,sans-Serif" font-size="11.00">forest_decision</text>
<polygon fill="none" stroke="black" points="625.5,-491 625.5,-513 876.5,-513 876.5,-491 625.5,-491"/>
<image xlink:href="../../images/foreignKeys.png" width="11px" height="12px" preserveAspectRatio="xMinYMin meet" x="630.5" y="-508"/>
<text text-anchor="start" x="645.5" y="-499.2" font-family="Helvetica,sans-Serif" font-size="11.00">forestry_department</text>
<polygon fill="none" stroke="black" points="625.5,-469 625.5,-491 876.5,-491 876.5,-469 625.5,-469"/>
<image xlink:href="../../images/foreignKeys.png" width="11px" height="12px" preserveAspectRatio="xMinYMin meet" x="630.5" y="-486"/>
<text text-anchor="start" x="645.5" y="-477.2" font-family="Helvetica,sans-Serif" font-size="11.00">height_layer_class</text>
<polygon fill="none" stroke="black" points="625.5,-447 625.5,-469 876.5,-469 876.5,-447 625.5,-447"/>
<image xlink:href="../../images/foreignKeys.png" width="11px" height="12px" preserveAspectRatio="xMinYMin meet" x="630.5" y="-464"/>
<text text-anchor="start" x="645.5" y="-455.2" font-family="Helvetica,sans-Serif" font-size="11.00">property_type</text>
<polygon fill="none" stroke="black" points="625.5,-425 625.5,-447 876.5,-447 876.5,-425 625.5,-425"/>
<image xlink:href="../../images/foreignKeys.png" width="11px" height="12px" preserveAspectRatio="xMinYMin meet" x="630.5" y="-442"/>
<text text-anchor="start" x="645.5" y="-433.2" font-family="Helvetica,sans-Serif" font-size="11.00">property_size_class</text>
<polygon fill="none" stroke="black" points="625.5,-403 625.5,-425 876.5,-425 876.5,-403 625.5,-403"/>
<image xlink:href="../../images/foreignKeys.png" width="11px" height="12px" preserveAspectRatio="xMinYMin meet" x="630.5" y="-420"/>
<text text-anchor="start" x="645.5" y="-411.2" font-family="Helvetica,sans-Serif" font-size="11.00">forest_type</text>
<polygon fill="none" stroke="black" points="625.5,-381 625.5,-403 876.5,-403 876.5,-381 625.5,-381"/>
<image xlink:href="../../images/foreignKeys.png" width="11px" height="12px" preserveAspectRatio="xMinYMin meet" x="630.5" y="-398"/>
<text text-anchor="start" x="645.5" y="-389.2" font-family="Helvetica,sans-Serif" font-size="11.00">habitat_type</text>
<polygon fill="none" stroke="black" points="625.5,-359 625.5,-381 876.5,-381 876.5,-359 625.5,-359"/>
<image xlink:href="../../images/foreignKeys.png" width="11px" height="12px" preserveAspectRatio="xMinYMin meet" x="630.5" y="-376"/>
<text text-anchor="start" x="645.5" y="-367.2" font-family="Helvetica,sans-Serif" font-size="11.00">habitat_type_source</text>
<polygon fill="none" stroke="black" points="625.5,-337 625.5,-359 876.5,-359 876.5,-337 625.5,-337"/>
<image xlink:href="../../images/foreignKeys.png" width="11px" height="12px" preserveAspectRatio="xMinYMin meet" x="630.5" y="-354"/>
<text text-anchor="start" x="645.5" y="-345.2" font-family="Helvetica,sans-Serif" font-size="11.00">use_restriction</text>
<polygon fill="none" stroke="black" points="625.5,-315 625.5,-337 876.5,-337 876.5,-315 625.5,-315"/>
<image xlink:href="../../images/foreignKeys.png" width="11px" height="12px" preserveAspectRatio="xMinYMin meet" x="630.5" y="-332"/>
<text text-anchor="start" x="645.5" y="-323.2" font-family="Helvetica,sans-Serif" font-size="11.00">land_use</text>
<polygon fill="none" stroke="black" points="625.5,-293 625.5,-315 876.5,-315 876.5,-293 625.5,-293"/>
<image xlink:href="../../images/foreignKeys.png" width="11px" height="12px" preserveAspectRatio="xMinYMin meet" x="630.5" y="-310"/>
<text text-anchor="start" x="645.5" y="-301.2" font-family="Helvetica,sans-Serif" font-size="11.00">marking_state</text>
<polygon fill="none" stroke="black" points="625.5,-271 625.5,-293 876.5,-293 876.5,-271 625.5,-271"/>
<image xlink:href="../../images/foreignKeys.png" width="11px" height="12px" preserveAspectRatio="xMinYMin meet" x="630.5" y="-288"/>
<text text-anchor="start" x="645.5" y="-279.2" font-family="Helvetica,sans-Serif" font-size="11.00">marking_profile</text>
<polygon fill="none" stroke="black" points="625.5,-249 625.5,-271 876.5,-271 876.5,-249 625.5,-249"/>
<image xlink:href="../../images/foreignKeys.png" width="11px" height="12px" preserveAspectRatio="xMinYMin meet" x="630.5" y="-266"/>
<text text-anchor="start" x="645.5" y="-257.2" font-family="Helvetica,sans-Serif" font-size="11.00">terrain_form</text>
<polygon fill="none" stroke="black" points="625.5,-227 625.5,-249 876.5,-249 876.5,-227 625.5,-227"/>
<image xlink:href="../../images/foreignKeys.png" width="11px" height="12px" preserveAspectRatio="xMinYMin meet" x="630.5" y="-244"/>
<text text-anchor="start" x="645.5" y="-235.2" font-family="Helvetica,sans-Serif" font-size="11.00">management_type</text>
<polygon fill="none" stroke="black" points="625.5,-205 625.5,-227 876.5,-227 876.5,-205 625.5,-205"/>
<image xlink:href="../../images/foreignKeys.png" width="11px" height="12px" preserveAspectRatio="xMinYMin meet" x="630.5" y="-222"/>
<text text-anchor="start" x="645.5" y="-213.2" font-family="Helvetica,sans-Serif" font-size="11.00">harvesting_method</text>
<polygon fill="none" stroke="black" points="625.5,-183 625.5,-205 876.5,-205 876.5,-183 625.5,-183"/>
<image xlink:href="../../images/foreignKeys.png" width="11px" height="12px" preserveAspectRatio="xMinYMin meet" x="630.5" y="-200"/>
<text text-anchor="start" x="645.5" y="-191.2" font-family="Helvetica,sans-Serif" font-size="11.00">layer_type</text>
<polygon fill="none" stroke="black" points="625.5,-161 625.5,-183 876.5,-183 876.5,-161 625.5,-161"/>
<image xlink:href="../../images/foreignKeys.png" width="11px" height="12px" preserveAspectRatio="xMinYMin meet" x="630.5" y="-178"/>
<text text-anchor="start" x="645.5" y="-169.2" font-family="Helvetica,sans-Serif" font-size="11.00">stand_phase</text>
<polygon fill="none" stroke="black" points="625.5,-139 625.5,-161 876.5,-161 876.5,-139 625.5,-139"/>
<image xlink:href="../../images/foreignKeys.png" width="11px" height="12px" preserveAspectRatio="xMinYMin meet" x="630.5" y="-156"/>
<text text-anchor="start" x="645.5" y="-147.2" font-family="Helvetica,sans-Serif" font-size="11.00">sablings_layer</text>
<polygon fill="none" stroke="black" points="625.5,-117 625.5,-139 876.5,-139 876.5,-117 625.5,-117"/>
<image xlink:href="../../images/foreignKeys.png" width="11px" height="12px" preserveAspectRatio="xMinYMin meet" x="630.5" y="-134"/>
<text text-anchor="start" x="645.5" y="-125.2" font-family="Helvetica,sans-Serif" font-size="11.00">trees_less_4meter_mirrored</text>
<polygon fill="none" stroke="black" points="625.5,-95 625.5,-117 876.5,-117 876.5,-95 625.5,-95"/>
<image xlink:href="../../images/foreignKeys.png" width="11px" height="12px" preserveAspectRatio="xMinYMin meet" x="630.5" y="-112"/>
<text text-anchor="start" x="645.5" y="-103.2" font-family="Helvetica,sans-Serif" font-size="11.00">trees_less_4meter_count_factor</text>
<polygon fill="none" stroke="black" points="625.5,-73 625.5,-95 876.5,-95 876.5,-73 625.5,-73"/>
<image xlink:href="../../images/foreignKeys.png" width="11px" height="12px" preserveAspectRatio="xMinYMin meet" x="630.5" y="-90"/>
<text text-anchor="start" x="645.5" y="-81.2" font-family="Helvetica,sans-Serif" font-size="11.00">trees_less_4meter_layer</text>
<polygon fill="none" stroke="black" points="625.5,-55 625.5,-73 876.5,-73 876.5,-55 625.5,-55"/>
<text text-anchor="start" x="628.5" y="-61.2" font-family="Helvetica,sans-Serif" font-size="11.00">...</text>
<polygon fill="#ffffff" stroke="transparent" points="625.5,-37 625.5,-55 876.5,-55 876.5,-37 625.5,-37"/>
<polygon fill="none" stroke="black" points="625.5,-37 625.5,-55 876.5,-55 876.5,-37 625.5,-37"/>
<polygon fill="#ffffff" stroke="transparent" points="626.5,-38 626.5,-54 708.5,-54 708.5,-38 626.5,-38"/>
<text text-anchor="start" x="628.5" y="-43.2" font-family="Helvetica,sans-Serif" font-size="11.00">&lt; 24</text>
<polygon fill="#ffffff" stroke="transparent" points="708.5,-38 708.5,-54 800.5,-54 800.5,-38 708.5,-38"/>
<text text-anchor="start" x="736" y="-43.2" font-family="Helvetica,sans-Serif" font-size="11.00">0 rows</text>
<polygon fill="#ffffff" stroke="transparent" points="800.5,-38 800.5,-54 875.5,-54 875.5,-38 800.5,-38"/>
<text text-anchor="start" x="853.5" y="-43.2" font-family="Helvetica,sans-Serif" font-size="11.00">7 &gt;</text>
<polygon fill="black" stroke="black" points="708.5,-38 708.5,-54 708.5,-54 708.5,-38 708.5,-38"/>
<polygon fill="black" stroke="black" points="800.5,-38 800.5,-54 800.5,-54 800.5,-38 800.5,-38"/>
</a>
</g>
</g>
<!-- lookup_management_type -->
<g id="node2" class="node">
<title>lookup_management_type</title>
<g id="a_node2"><a xlink:href="../../tables/lookup_management_type.html" xlink:title="lookup_management_type" target="_top">
<polygon fill="#ffffff" stroke="transparent" points="8,-207 8,-339 576,-339 576,-207 8,-207"/>
<polygon fill="#f5f5f5" stroke="transparent" points="10,-315 10,-337 574,-337 574,-315 10,-315"/>
<polygon fill="none" stroke="black" points="10,-315 10,-337 574,-337 574,-315 10,-315"/>
<text text-anchor="start" x="15" y="-324.2" font-family="Helvetica,sans-Serif" font-weight="bold" font-size="11.00">lookup_management_type</text>
<text text-anchor="start" x="532" y="-323.2" font-family="Helvetica,sans-Serif" font-size="11.00">[table]</text>
<polygon fill="none" stroke="black" points="10,-293 10,-315 222,-315 222,-293 10,-293"/>
<text text-anchor="start" x="30" y="-301.2" font-family="Helvetica,sans-Serif" font-size="11.00">name_de</text>
<polygon fill="none" stroke="black" points="222,-293 222,-315 574,-315 574,-293 222,-293"/>
<text text-anchor="start" x="225" y="-301.2" font-family="Helvetica,sans-Serif" font-size="11.00">varchar[150]</text>
<polygon fill="none" stroke="black" points="10,-271 10,-293 222,-293 222,-271 10,-271"/>
<text text-anchor="start" x="30" y="-279.2" font-family="Helvetica,sans-Serif" font-size="11.00">name_en</text>
<polygon fill="none" stroke="black" points="222,-271 222,-293 574,-293 574,-271 222,-271"/>
<text text-anchor="start" x="225" y="-279.2" font-family="Helvetica,sans-Serif" font-size="11.00">varchar[150]</text>
<polygon fill="none" stroke="black" points="10,-249 10,-271 222,-271 222,-249 10,-249"/>
<text text-anchor="start" x="30" y="-257.2" font-family="Helvetica,sans-Serif" font-size="11.00">sort</text>
<polygon fill="none" stroke="black" points="222,-249 222,-271 574,-271 574,-249 222,-249"/>
<text text-anchor="start" x="225" y="-257.2" font-family="Helvetica,sans-Serif" font-size="11.00">int4[10]</text>
<polygon fill="#ffffff" stroke="transparent" points="10,-227 10,-249 222,-249 222,-227 10,-227"/>
<polygon fill="none" stroke="black" points="10,-227 10,-249 222,-249 222,-227 10,-227"/>
<text text-anchor="start" x="30" y="-235.2" font-family="Helvetica,sans-Serif" font-size="11.00">abbreviation</text>
<polygon fill="none" stroke="black" points="222,-227 222,-249 574,-249 574,-227 222,-227"/>
<text text-anchor="start" x="225" y="-235.2" font-family="Helvetica,sans-Serif" font-size="11.00">&quot;private_ci2027_001&quot;.&quot;enum_management_type&quot;[2147483647]</text>
<polygon fill="#ffffff" stroke="transparent" points="10,-209 10,-227 574,-227 574,-209 10,-209"/>
<polygon fill="none" stroke="black" points="10,-209 10,-227 574,-227 574,-209 10,-209"/>
<polygon fill="#ffffff" stroke="transparent" points="11,-210 11,-226 193,-226 193,-210 11,-210"/>
<text text-anchor="start" x="13" y="-215.2" font-family="Helvetica,sans-Serif" font-size="11.00">&lt; 0</text>
<polygon fill="#ffffff" stroke="transparent" points="193,-210 193,-226 392,-226 392,-210 193,-210"/>
<text text-anchor="start" x="274" y="-215.2" font-family="Helvetica,sans-Serif" font-size="11.00">0 rows</text>
<polygon fill="#ffffff" stroke="transparent" points="392,-210 392,-226 573,-226 573,-210 392,-210"/>
<text text-anchor="start" x="551" y="-215.2" font-family="Helvetica,sans-Serif" font-size="11.00">1 &gt;</text>
<polygon fill="black" stroke="black" points="193,-210 193,-226 193,-226 193,-210 193,-210"/>
<polygon fill="black" stroke="black" points="392,-210 392,-226 392,-226 392,-210 392,-210"/>
<polygon fill="none" stroke="black" stroke-width="2" points="9,-208 9,-338 575,-338 575,-208 9,-208"/>
</a>
</g>
</g>
<!-- plot&#45;&gt;lookup_management_type -->
<g id="edge1" class="edge">
<title>plot:w&#45;&gt;lookup_management_type:e</title>
<path fill="none" stroke="black" d="M609.84,-238C598.41,-238 591.16,-238 575,-238"/>
<polygon fill="black" stroke="black" points="616.5,-238 624.5,-241.6 620.5,-238 624.5,-238 624.5,-238 624.5,-238 620.5,-238 624.5,-234.4 616.5,-238 616.5,-238"/>
<ellipse fill="none" stroke="black" cx="613.3" cy="-238" rx="3.2" ry="3.2"/>
</g>
</g>
</svg>
