<?xml version="1.0" encoding="UTF-8" standalone="no"?>
<!DOCTYPE svg PUBLIC "-//W3C//DTD SVG 1.1//EN"
 "http://www.w3.org/Graphics/SVG/1.1/DTD/svg11.dtd">
<!-- Generated by graphviz version 2.43.0 (0)
 -->
<!-- Title: oneDegreeRelationshipsDiagram Pages: 1 -->
<svg width="567pt" height="203pt"
 viewBox="0.00 0.00 567.00 203.00" xmlns="http://www.w3.org/2000/svg" xmlns:xlink="http://www.w3.org/1999/xlink">
<g id="graph0" class="graph" transform="scale(1 1) rotate(0) translate(4 199)">
<title>oneDegreeRelationshipsDiagram</title>
<polygon fill="#ffffff" stroke="transparent" points="-4,4 -4,-199 563,-199 563,4 -4,4"/>
<text text-anchor="middle" x="79.5" y="-7.2" font-family="Helvetica,sans-Serif" font-size="11.00">Generated by SchemaSpy</text>
<!-- lookup_cluster_situation -->
<g id="node1" class="node">
<title>lookup_cluster_situation</title>
<g id="a_node1"><a xlink:href="../../tables/lookup_cluster_situation.html" xlink:title="lookup_cluster_situation" target="_top">
<polygon fill="#ffffff" stroke="transparent" points="8,-37 8,-191 551,-191 551,-37 8,-37"/>
<polygon fill="#f5f5f5" stroke="transparent" points="10.5,-167 10.5,-189 549.5,-189 549.5,-167 10.5,-167"/>
<polygon fill="none" stroke="black" points="10.5,-167 10.5,-189 549.5,-189 549.5,-167 10.5,-167"/>
<text text-anchor="start" x="15.5" y="-176.2" font-family="Helvetica,sans-Serif" font-weight="bold" font-size="11.00">lookup_cluster_situation</text>
<text text-anchor="start" x="507.5" y="-175.2" font-family="Helvetica,sans-Serif" font-size="11.00">[table]</text>
<polygon fill="none" stroke="black" points="10.5,-145 10.5,-167 209.5,-167 209.5,-145 10.5,-145"/>
<text text-anchor="start" x="30.5" y="-153.2" font-family="Helvetica,sans-Serif" font-size="11.00">name_de</text>
<polygon fill="none" stroke="black" points="209.5,-145 209.5,-167 549.5,-167 549.5,-145 209.5,-145"/>
<text text-anchor="start" x="212.5" y="-153.2" font-family="Helvetica,sans-Serif" font-size="11.00">varchar[150]</text>
<polygon fill="none" stroke="black" points="10.5,-123 10.5,-145 209.5,-145 209.5,-123 10.5,-123"/>
<text text-anchor="start" x="30.5" y="-131.2" font-family="Helvetica,sans-Serif" font-size="11.00">name_en</text>
<polygon fill="none" stroke="black" points="209.5,-123 209.5,-145 549.5,-145 549.5,-123 209.5,-123"/>
<text text-anchor="start" x="212.5" y="-131.2" font-family="Helvetica,sans-Serif" font-size="11.00">varchar[150]</text>
<polygon fill="none" stroke="black" points="10.5,-101 10.5,-123 209.5,-123 209.5,-101 10.5,-101"/>
<text text-anchor="start" x="30.5" y="-109.2" font-family="Helvetica,sans-Serif" font-size="11.00">interval</text>
<polygon fill="none" stroke="black" points="209.5,-101 209.5,-123 549.5,-123 549.5,-101 209.5,-101"/>
<text text-anchor="start" x="212.5" y="-109.2" font-family="Helvetica,sans-Serif" font-size="11.00">&quot;private_ci2027_001&quot;.&quot;_enum_interval_name&quot;[2147483647]</text>
<polygon fill="none" stroke="black" points="10.5,-79 10.5,-101 209.5,-101 209.5,-79 10.5,-79"/>
<text text-anchor="start" x="30.5" y="-87.2" font-family="Helvetica,sans-Serif" font-size="11.00">sort</text>
<polygon fill="none" stroke="black" points="209.5,-79 209.5,-101 549.5,-101 549.5,-79 209.5,-79"/>
<text text-anchor="start" x="212.5" y="-87.2" font-family="Helvetica,sans-Serif" font-size="11.00">int4[10]</text>
<polygon fill="#ffffff" stroke="transparent" points="10.5,-57 10.5,-79 209.5,-79 209.5,-57 10.5,-57"/>
<polygon fill="none" stroke="black" points="10.5,-57 10.5,-79 209.5,-79 209.5,-57 10.5,-57"/>
<text text-anchor="start" x="30.5" y="-65.2" font-family="Helvetica,sans-Serif" font-size="11.00">abbreviation</text>
<polygon fill="none" stroke="black" points="209.5,-57 209.5,-79 549.5,-79 549.5,-57 209.5,-57"/>
<text text-anchor="start" x="212.5" y="-65.2" font-family="Helvetica,sans-Serif" font-size="11.00">&quot;private_ci2027_001&quot;.&quot;enum_cluster_situation&quot;[2147483647]</text>
<polygon fill="#ffffff" stroke="transparent" points="10.5,-39 10.5,-57 549.5,-57 549.5,-39 10.5,-39"/>
<polygon fill="none" stroke="black" points="10.5,-39 10.5,-57 549.5,-57 549.5,-39 10.5,-39"/>
<polygon fill="#ffffff" stroke="transparent" points="11.5,-40 11.5,-56 185.5,-56 185.5,-40 11.5,-40"/>
<text text-anchor="start" x="13.5" y="-45.2" font-family="Helvetica,sans-Serif" font-size="11.00">&lt; 0</text>
<polygon fill="#ffffff" stroke="transparent" points="185.5,-40 185.5,-56 375.5,-56 375.5,-40 185.5,-40"/>
<text text-anchor="start" x="262" y="-45.2" font-family="Helvetica,sans-Serif" font-size="11.00">0 rows</text>
<polygon fill="#ffffff" stroke="transparent" points="375.5,-40 375.5,-56 548.5,-56 548.5,-40 375.5,-40"/>
<text text-anchor="start" x="526.5" y="-45.2" font-family="Helvetica,sans-Serif" font-size="11.00">0 &gt;</text>
<polygon fill="black" stroke="black" points="185.5,-40 185.5,-56 185.5,-56 185.5,-40 185.5,-40"/>
<polygon fill="black" stroke="black" points="375.5,-40 375.5,-56 375.5,-56 375.5,-40 375.5,-40"/>
<polygon fill="none" stroke="black" stroke-width="2" points="9,-38 9,-190 550,-190 550,-38 9,-38"/>
</a>
</g>
</g>
</g>
</svg>
