<?xml version="1.0" encoding="UTF-8" standalone="no"?>
<!DOCTYPE svg PUBLIC "-//W3C//DTD SVG 1.1//EN"
 "http://www.w3.org/Graphics/SVG/1.1/DTD/svg11.dtd">
<!-- Generated by graphviz version 2.43.0 (0)
 -->
<!-- Title: oneDegreeRelationshipsDiagram Pages: 1 -->
<svg width="546pt" height="203pt"
 viewBox="0.00 0.00 546.00 203.00" xmlns="http://www.w3.org/2000/svg" xmlns:xlink="http://www.w3.org/1999/xlink">
<g id="graph0" class="graph" transform="scale(1 1) rotate(0) translate(4 199)">
<title>oneDegreeRelationshipsDiagram</title>
<polygon fill="#ffffff" stroke="transparent" points="-4,4 -4,-199 542,-199 542,4 -4,4"/>
<text text-anchor="middle" x="79.5" y="-7.2" font-family="Helvetica,sans-Serif" font-size="11.00">Generated by SchemaSpy</text>
<!-- lookup_use_restriction -->
<g id="node1" class="node">
<title>lookup_use_restriction</title>
<g id="a_node1"><a xlink:href="../../tables/lookup_use_restriction.html" xlink:title="lookup_use_restriction" target="_top">
<polygon fill="#ffffff" stroke="transparent" points="8,-37 8,-191 530,-191 530,-37 8,-37"/>
<polygon fill="#f5f5f5" stroke="transparent" points="10,-167 10,-189 528,-189 528,-167 10,-167"/>
<polygon fill="none" stroke="black" points="10,-167 10,-189 528,-189 528,-167 10,-167"/>
<text text-anchor="start" x="15" y="-176.2" font-family="Helvetica,sans-Serif" font-weight="bold" font-size="11.00">lookup_use_restriction</text>
<text text-anchor="start" x="486" y="-175.2" font-family="Helvetica,sans-Serif" font-size="11.00">[table]</text>
<polygon fill="none" stroke="black" points="10,-145 10,-167 195,-167 195,-145 10,-145"/>
<text text-anchor="start" x="30" y="-153.2" font-family="Helvetica,sans-Serif" font-size="11.00">name_de</text>
<polygon fill="none" stroke="black" points="195,-145 195,-167 528,-167 528,-145 195,-145"/>
<text text-anchor="start" x="198" y="-153.2" font-family="Helvetica,sans-Serif" font-size="11.00">varchar[150]</text>
<polygon fill="none" stroke="black" points="10,-123 10,-145 195,-145 195,-123 10,-123"/>
<text text-anchor="start" x="30" y="-131.2" font-family="Helvetica,sans-Serif" font-size="11.00">name_en</text>
<polygon fill="none" stroke="black" points="195,-123 195,-145 528,-145 528,-123 195,-123"/>
<text text-anchor="start" x="198" y="-131.2" font-family="Helvetica,sans-Serif" font-size="11.00">varchar[150]</text>
<polygon fill="none" stroke="black" points="10,-101 10,-123 195,-123 195,-101 10,-101"/>
<text text-anchor="start" x="30" y="-109.2" font-family="Helvetica,sans-Serif" font-size="11.00">interval</text>
<polygon fill="none" stroke="black" points="195,-101 195,-123 528,-123 528,-101 195,-101"/>
<text text-anchor="start" x="198" y="-109.2" font-family="Helvetica,sans-Serif" font-size="11.00">&quot;private_ci2027_001&quot;.&quot;_enum_interval_name&quot;[2147483647]</text>
<polygon fill="none" stroke="black" points="10,-79 10,-101 195,-101 195,-79 10,-79"/>
<text text-anchor="start" x="30" y="-87.2" font-family="Helvetica,sans-Serif" font-size="11.00">sort</text>
<polygon fill="none" stroke="black" points="195,-79 195,-101 528,-101 528,-79 195,-79"/>
<text text-anchor="start" x="198" y="-87.2" font-family="Helvetica,sans-Serif" font-size="11.00">int4[10]</text>
<polygon fill="#ffffff" stroke="transparent" points="10,-57 10,-79 195,-79 195,-57 10,-57"/>
<polygon fill="none" stroke="black" points="10,-57 10,-79 195,-79 195,-57 10,-57"/>
<text text-anchor="start" x="30" y="-65.2" font-family="Helvetica,sans-Serif" font-size="11.00">abbreviation</text>
<polygon fill="none" stroke="black" points="195,-57 195,-79 528,-79 528,-57 195,-57"/>
<text text-anchor="start" x="198" y="-65.2" font-family="Helvetica,sans-Serif" font-size="11.00">&quot;private_ci2027_001&quot;.&quot;enum_use_restriction&quot;[2147483647]</text>
<polygon fill="#ffffff" stroke="transparent" points="10,-39 10,-57 528,-57 528,-39 10,-39"/>
<polygon fill="none" stroke="black" points="10,-39 10,-57 528,-57 528,-39 10,-39"/>
<polygon fill="#ffffff" stroke="transparent" points="11,-40 11,-56 178,-56 178,-40 11,-40"/>
<text text-anchor="start" x="13" y="-45.2" font-family="Helvetica,sans-Serif" font-size="11.00">&lt; 0</text>
<polygon fill="#ffffff" stroke="transparent" points="178,-40 178,-56 361,-56 361,-40 178,-40"/>
<text text-anchor="start" x="251" y="-45.2" font-family="Helvetica,sans-Serif" font-size="11.00">0 rows</text>
<polygon fill="#ffffff" stroke="transparent" points="361,-40 361,-56 527,-56 527,-40 361,-40"/>
<text text-anchor="start" x="505" y="-45.2" font-family="Helvetica,sans-Serif" font-size="11.00">0 &gt;</text>
<polygon fill="black" stroke="black" points="178,-40 178,-56 178,-56 178,-40 178,-40"/>
<polygon fill="black" stroke="black" points="361,-40 361,-56 361,-56 361,-40 361,-40"/>
<polygon fill="none" stroke="black" stroke-width="2" points="9,-38 9,-190 529,-190 529,-38 9,-38"/>
</a>
</g>
</g>
</g>
</svg>
