<?xml version="1.0" encoding="UTF-8" standalone="no"?>
<!DOCTYPE svg PUBLIC "-//W3C//DTD SVG 1.1//EN"
 "http://www.w3.org/Graphics/SVG/1.1/DTD/svg11.dtd">
<!-- Generated by graphviz version 2.43.0 (0)
 -->
<!-- Title: oneDegreeRelationshipsDiagram Pages: 1 -->
<svg width="737pt" height="283pt"
 viewBox="0.00 0.00 737.00 283.00" xmlns="http://www.w3.org/2000/svg" xmlns:xlink="http://www.w3.org/1999/xlink">
<g id="graph0" class="graph" transform="scale(1 1) rotate(0) translate(4 279)">
<title>oneDegreeRelationshipsDiagram</title>
<polygon fill="#ffffff" stroke="transparent" points="-4,4 -4,-279 733,-279 733,4 -4,4"/>
<text text-anchor="middle" x="79.5" y="-7.2" font-family="Helvetica,sans-Serif" font-size="11.00">Generated by SchemaSpy</text>
<!-- wzp_tree -->
<g id="node1" class="node">
<title>wzp_tree</title>
<g id="a_node1"><a xlink:href="../../tables/wzp_tree.html" xlink:title="wzp_tree" target="_top">
<polygon fill="#ffffff" stroke="transparent" points="548,-37 548,-271 721,-271 721,-37 548,-37"/>
<polygon fill="#f5f5f5" stroke="transparent" points="548.5,-249 548.5,-271 721.5,-271 721.5,-249 548.5,-249"/>
<polygon fill="none" stroke="black" points="548.5,-249 548.5,-271 721.5,-271 721.5,-249 548.5,-249"/>
<text text-anchor="start" x="553.5" y="-258.2" font-family="Helvetica,sans-Serif" font-weight="bold" font-size="11.00">wzp_tree</text>
<text text-anchor="start" x="679.5" y="-257.2" font-family="Helvetica,sans-Serif" font-size="11.00">[table]</text>
<polygon fill="none" stroke="black" points="548.5,-227 548.5,-249 721.5,-249 721.5,-227 548.5,-227"/>
<image xlink:href="../../images/primaryKeys.png" width="11px" height="12px" preserveAspectRatio="xMinYMin meet" x="553.5" y="-244"/>
<text text-anchor="start" x="568.5" y="-235.2" font-family="Helvetica,sans-Serif" font-size="11.00">id</text>
<polygon fill="none" stroke="black" points="548.5,-205 548.5,-227 721.5,-227 721.5,-205 548.5,-205"/>
<image xlink:href="../../images/foreignKeys.png" width="11px" height="12px" preserveAspectRatio="xMinYMin meet" x="553.5" y="-222"/>
<text text-anchor="start" x="568.5" y="-213.2" font-family="Helvetica,sans-Serif" font-size="11.00">plot_id</text>
<polygon fill="none" stroke="black" points="548.5,-183 548.5,-205 721.5,-205 721.5,-183 548.5,-183"/>
<image xlink:href="../../images/foreignKeys.png" width="11px" height="12px" preserveAspectRatio="xMinYMin meet" x="553.5" y="-200"/>
<text text-anchor="start" x="568.5" y="-191.2" font-family="Helvetica,sans-Serif" font-size="11.00">tree_status</text>
<polygon fill="none" stroke="black" points="548.5,-161 548.5,-183 721.5,-183 721.5,-161 548.5,-161"/>
<image xlink:href="../../images/foreignKeys.png" width="11px" height="12px" preserveAspectRatio="xMinYMin meet" x="553.5" y="-178"/>
<text text-anchor="start" x="568.5" y="-169.2" font-family="Helvetica,sans-Serif" font-size="11.00">tree_species</text>
<polygon fill="none" stroke="black" points="548.5,-139 548.5,-161 721.5,-161 721.5,-139 548.5,-139"/>
<image xlink:href="../../images/foreignKeys.png" width="11px" height="12px" preserveAspectRatio="xMinYMin meet" x="553.5" y="-156"/>
<text text-anchor="start" x="568.5" y="-147.2" font-family="Helvetica,sans-Serif" font-size="11.00">stem_breakage</text>
<polygon fill="none" stroke="black" points="548.5,-117 548.5,-139 721.5,-139 721.5,-117 548.5,-117"/>
<image xlink:href="../../images/foreignKeys.png" width="11px" height="12px" preserveAspectRatio="xMinYMin meet" x="553.5" y="-134"/>
<text text-anchor="start" x="568.5" y="-125.2" font-family="Helvetica,sans-Serif" font-size="11.00">stem_form</text>
<polygon fill="none" stroke="black" points="548.5,-95 548.5,-117 721.5,-117 721.5,-95 548.5,-95"/>
<image xlink:href="../../images/foreignKeys.png" width="11px" height="12px" preserveAspectRatio="xMinYMin meet" x="553.5" y="-112"/>
<text text-anchor="start" x="568.5" y="-103.2" font-family="Helvetica,sans-Serif" font-size="11.00">pruning</text>
<polygon fill="none" stroke="black" points="548.5,-73 548.5,-95 721.5,-95 721.5,-73 548.5,-73"/>
<image xlink:href="../../images/foreignKeys.png" width="11px" height="12px" preserveAspectRatio="xMinYMin meet" x="553.5" y="-90"/>
<text text-anchor="start" x="568.5" y="-81.2" font-family="Helvetica,sans-Serif" font-size="11.00">stand_layer</text>
<polygon fill="none" stroke="black" points="548.5,-55 548.5,-73 721.5,-73 721.5,-55 548.5,-55"/>
<text text-anchor="start" x="551.5" y="-61.2" font-family="Helvetica,sans-Serif" font-size="11.00">...</text>
<polygon fill="#ffffff" stroke="transparent" points="548.5,-37 548.5,-55 721.5,-55 721.5,-37 548.5,-37"/>
<polygon fill="none" stroke="black" points="548.5,-37 548.5,-55 721.5,-55 721.5,-37 548.5,-37"/>
<polygon fill="#ffffff" stroke="transparent" points="549.5,-38 549.5,-54 605.5,-54 605.5,-38 549.5,-38"/>
<text text-anchor="start" x="551.5" y="-43.2" font-family="Helvetica,sans-Serif" font-size="11.00">&lt; 7</text>
<polygon fill="#ffffff" stroke="transparent" points="605.5,-38 605.5,-54 677.5,-54 677.5,-38 605.5,-38"/>
<text text-anchor="start" x="623" y="-43.2" font-family="Helvetica,sans-Serif" font-size="11.00">0 rows</text>
<polygon fill="#ffffff" stroke="transparent" points="677.5,-38 677.5,-54 720.5,-54 720.5,-38 677.5,-38"/>
<text text-anchor="start" x="710.5" y="-43.2" font-family="Helvetica,sans-Serif" font-size="11.00"> &#160;</text>
<polygon fill="black" stroke="black" points="605.5,-38 605.5,-54 605.5,-54 605.5,-38 605.5,-38"/>
<polygon fill="black" stroke="black" points="677.5,-38 677.5,-54 677.5,-54 677.5,-38 677.5,-38"/>
</a>
</g>
</g>
<!-- lookup_stem_form -->
<g id="node2" class="node">
<title>lookup_stem_form</title>
<g id="a_node2"><a xlink:href="../../tables/lookup_stem_form.html" xlink:title="lookup_stem_form" target="_top">
<polygon fill="#ffffff" stroke="transparent" points="8,-97 8,-251 499,-251 499,-97 8,-97"/>
<polygon fill="#f5f5f5" stroke="transparent" points="10.5,-227 10.5,-249 497.5,-249 497.5,-227 10.5,-227"/>
<polygon fill="none" stroke="black" points="10.5,-227 10.5,-249 497.5,-249 497.5,-227 10.5,-227"/>
<text text-anchor="start" x="15.5" y="-236.2" font-family="Helvetica,sans-Serif" font-weight="bold" font-size="11.00">lookup_stem_form</text>
<text text-anchor="start" x="455.5" y="-235.2" font-family="Helvetica,sans-Serif" font-size="11.00">[table]</text>
<polygon fill="none" stroke="black" points="10.5,-205 10.5,-227 164.5,-227 164.5,-205 10.5,-205"/>
<text text-anchor="start" x="30.5" y="-213.2" font-family="Helvetica,sans-Serif" font-size="11.00">name_de</text>
<polygon fill="none" stroke="black" points="164.5,-205 164.5,-227 497.5,-227 497.5,-205 164.5,-205"/>
<text text-anchor="start" x="167.5" y="-213.2" font-family="Helvetica,sans-Serif" font-size="11.00">varchar[150]</text>
<polygon fill="none" stroke="black" points="10.5,-183 10.5,-205 164.5,-205 164.5,-183 10.5,-183"/>
<text text-anchor="start" x="30.5" y="-191.2" font-family="Helvetica,sans-Serif" font-size="11.00">name_en</text>
<polygon fill="none" stroke="black" points="164.5,-183 164.5,-205 497.5,-205 497.5,-183 164.5,-183"/>
<text text-anchor="start" x="167.5" y="-191.2" font-family="Helvetica,sans-Serif" font-size="11.00">varchar[150]</text>
<polygon fill="none" stroke="black" points="10.5,-161 10.5,-183 164.5,-183 164.5,-161 10.5,-161"/>
<text text-anchor="start" x="30.5" y="-169.2" font-family="Helvetica,sans-Serif" font-size="11.00">interval</text>
<polygon fill="none" stroke="black" points="164.5,-161 164.5,-183 497.5,-183 497.5,-161 164.5,-161"/>
<text text-anchor="start" x="167.5" y="-169.2" font-family="Helvetica,sans-Serif" font-size="11.00">&quot;private_ci2027_001&quot;.&quot;_enum_interval_name&quot;[2147483647]</text>
<polygon fill="none" stroke="black" points="10.5,-139 10.5,-161 164.5,-161 164.5,-139 10.5,-139"/>
<text text-anchor="start" x="30.5" y="-147.2" font-family="Helvetica,sans-Serif" font-size="11.00">sort</text>
<polygon fill="none" stroke="black" points="164.5,-139 164.5,-161 497.5,-161 497.5,-139 164.5,-139"/>
<text text-anchor="start" x="167.5" y="-147.2" font-family="Helvetica,sans-Serif" font-size="11.00">int4[10]</text>
<polygon fill="#ffffff" stroke="transparent" points="10.5,-117 10.5,-139 164.5,-139 164.5,-117 10.5,-117"/>
<polygon fill="none" stroke="black" points="10.5,-117 10.5,-139 164.5,-139 164.5,-117 10.5,-117"/>
<text text-anchor="start" x="30.5" y="-125.2" font-family="Helvetica,sans-Serif" font-size="11.00">abbreviation</text>
<polygon fill="none" stroke="black" points="164.5,-117 164.5,-139 497.5,-139 497.5,-117 164.5,-117"/>
<text text-anchor="start" x="167.5" y="-125.2" font-family="Helvetica,sans-Serif" font-size="11.00">&quot;private_ci2027_001&quot;.&quot;enum_stem_form&quot;[2147483647]</text>
<polygon fill="#ffffff" stroke="transparent" points="10.5,-99 10.5,-117 497.5,-117 497.5,-99 10.5,-99"/>
<polygon fill="none" stroke="black" points="10.5,-99 10.5,-117 497.5,-117 497.5,-99 10.5,-99"/>
<polygon fill="#ffffff" stroke="transparent" points="11.5,-100 11.5,-116 167.5,-116 167.5,-100 11.5,-100"/>
<text text-anchor="start" x="13.5" y="-105.2" font-family="Helvetica,sans-Serif" font-size="11.00">&lt; 0</text>
<polygon fill="#ffffff" stroke="transparent" points="167.5,-100 167.5,-116 340.5,-116 340.5,-100 167.5,-100"/>
<text text-anchor="start" x="235.5" y="-105.2" font-family="Helvetica,sans-Serif" font-size="11.00">0 rows</text>
<polygon fill="#ffffff" stroke="transparent" points="340.5,-100 340.5,-116 496.5,-116 496.5,-100 340.5,-100"/>
<text text-anchor="start" x="474.5" y="-105.2" font-family="Helvetica,sans-Serif" font-size="11.00">1 &gt;</text>
<polygon fill="black" stroke="black" points="167.5,-100 167.5,-116 167.5,-116 167.5,-100 167.5,-100"/>
<polygon fill="black" stroke="black" points="340.5,-100 340.5,-116 340.5,-116 340.5,-100 340.5,-100"/>
<polygon fill="none" stroke="black" stroke-width="2" points="9,-98 9,-250 498,-250 498,-98 9,-98"/>
</a>
</g>
</g>
<!-- wzp_tree&#45;&gt;lookup_stem_form -->
<g id="edge1" class="edge">
<title>wzp_tree:w&#45;&gt;lookup_stem_form:e</title>
<path fill="none" stroke="black" d="M532.99,-128C521.68,-128 514.49,-128 498.5,-128"/>
<polygon fill="black" stroke="black" points="539.5,-128 547.5,-131.6 543.5,-128 547.5,-128 547.5,-128 547.5,-128 543.5,-128 547.5,-124.4 539.5,-128 539.5,-128"/>
<ellipse fill="none" stroke="black" cx="536.3" cy="-128" rx="3.2" ry="3.2"/>
</g>
</g>
</svg>
