<?xml version="1.0" encoding="UTF-8" standalone="no"?>
<!DOCTYPE svg PUBLIC "-//W3C//DTD SVG 1.1//EN"
 "http://www.w3.org/Graphics/SVG/1.1/DTD/svg11.dtd">
<!-- Generated by graphviz version 2.43.0 (0)
 -->
<!-- Title: oneDegreeRelationshipsDiagram Pages: 1 -->
<svg width="844pt" height="679pt"
 viewBox="0.00 0.00 844.00 679.00" xmlns="http://www.w3.org/2000/svg" xmlns:xlink="http://www.w3.org/1999/xlink">
<g id="graph0" class="graph" transform="scale(1 1) rotate(0) translate(4 675)">
<title>oneDegreeRelationshipsDiagram</title>
<polygon fill="#ffffff" stroke="transparent" points="-4,4 -4,-675 840,-675 840,4 -4,4"/>
<text text-anchor="middle" x="79.5" y="-7.2" font-family="Helvetica,sans-Serif" font-size="11.00">Generated by SchemaSpy</text>
<!-- plot -->
<g id="node1" class="node">
<title>plot</title>
<g id="a_node1"><a xlink:href="../../tables/plot.html" xlink:title="plot" target="_top">
<polygon fill="#ffffff" stroke="transparent" points="577,-37 577,-667 828,-667 828,-37 577,-37"/>
<polygon fill="#f5f5f5" stroke="transparent" points="577.5,-645 577.5,-667 828.5,-667 828.5,-645 577.5,-645"/>
<polygon fill="none" stroke="black" points="577.5,-645 577.5,-667 828.5,-667 828.5,-645 577.5,-645"/>
<text text-anchor="start" x="582" y="-654.2" font-family="Helvetica,sans-Serif" font-weight="bold" font-size="11.00">plot</text>
<text text-anchor="start" x="786.5" y="-653.2" font-family="Helvetica,sans-Serif" font-size="11.00">[table]</text>
<polygon fill="none" stroke="black" points="577.5,-623 577.5,-645 828.5,-645 828.5,-623 577.5,-623"/>
<image xlink:href="../../images/primaryKeys.png" width="11px" height="12px" preserveAspectRatio="xMinYMin meet" x="582.5" y="-640"/>
<text text-anchor="start" x="597.5" y="-631.2" font-family="Helvetica,sans-Serif" font-size="11.00">id</text>
<polygon fill="#ffffff" stroke="transparent" points="577.5,-601 577.5,-623 828.5,-623 828.5,-601 577.5,-601"/>
<polygon fill="none" stroke="black" points="577.5,-601 577.5,-623 828.5,-623 828.5,-601 577.5,-601"/>
<image xlink:href="../../images/foreignKeys.png" width="11px" height="12px" preserveAspectRatio="xMinYMin meet" x="582.5" y="-618"/>
<text text-anchor="start" x="597.5" y="-609.2" font-family="Helvetica,sans-Serif" font-size="11.00">cluster_id</text>
<polygon fill="#ffffff" stroke="transparent" points="577.5,-579 577.5,-601 828.5,-601 828.5,-579 577.5,-579"/>
<polygon fill="none" stroke="black" points="577.5,-579 577.5,-601 828.5,-601 828.5,-579 577.5,-579"/>
<text text-anchor="start" x="597.5" y="-587.2" font-family="Helvetica,sans-Serif" font-size="11.00">plot_name</text>
<polygon fill="none" stroke="black" points="577.5,-557 577.5,-579 828.5,-579 828.5,-557 577.5,-557"/>
<image xlink:href="../../images/foreignKeys.png" width="11px" height="12px" preserveAspectRatio="xMinYMin meet" x="582.5" y="-574"/>
<text text-anchor="start" x="597.5" y="-565.2" font-family="Helvetica,sans-Serif" font-size="11.00">sampling_strata</text>
<polygon fill="none" stroke="black" points="577.5,-535 577.5,-557 828.5,-557 828.5,-535 577.5,-535"/>
<image xlink:href="../../images/foreignKeys.png" width="11px" height="12px" preserveAspectRatio="xMinYMin meet" x="582.5" y="-552"/>
<text text-anchor="start" x="597.5" y="-543.2" font-family="Helvetica,sans-Serif" font-size="11.00">growth_district</text>
<polygon fill="none" stroke="black" points="577.5,-513 577.5,-535 828.5,-535 828.5,-513 577.5,-513"/>
<image xlink:href="../../images/foreignKeys.png" width="11px" height="12px" preserveAspectRatio="xMinYMin meet" x="582.5" y="-530"/>
<text text-anchor="start" x="597.5" y="-521.2" font-family="Helvetica,sans-Serif" font-size="11.00">forest_decision</text>
<polygon fill="none" stroke="black" points="577.5,-491 577.5,-513 828.5,-513 828.5,-491 577.5,-491"/>
<image xlink:href="../../images/foreignKeys.png" width="11px" height="12px" preserveAspectRatio="xMinYMin meet" x="582.5" y="-508"/>
<text text-anchor="start" x="597.5" y="-499.2" font-family="Helvetica,sans-Serif" font-size="11.00">forestry_department</text>
<polygon fill="none" stroke="black" points="577.5,-469 577.5,-491 828.5,-491 828.5,-469 577.5,-469"/>
<image xlink:href="../../images/foreignKeys.png" width="11px" height="12px" preserveAspectRatio="xMinYMin meet" x="582.5" y="-486"/>
<text text-anchor="start" x="597.5" y="-477.2" font-family="Helvetica,sans-Serif" font-size="11.00">height_layer_class</text>
<polygon fill="none" stroke="black" points="577.5,-447 577.5,-469 828.5,-469 828.5,-447 577.5,-447"/>
<image xlink:href="../../images/foreignKeys.png" width="11px" height="12px" preserveAspectRatio="xMinYMin meet" x="582.5" y="-464"/>
<text text-anchor="start" x="597.5" y="-455.2" font-family="Helvetica,sans-Serif" font-size="11.00">property_type</text>
<polygon fill="none" stroke="black" points="577.5,-425 577.5,-447 828.5,-447 828.5,-425 577.5,-425"/>
<image xlink:href="../../images/foreignKeys.png" width="11px" height="12px" preserveAspectRatio="xMinYMin meet" x="582.5" y="-442"/>
<text text-anchor="start" x="597.5" y="-433.2" font-family="Helvetica,sans-Serif" font-size="11.00">property_size_class</text>
<polygon fill="none" stroke="black" points="577.5,-403 577.5,-425 828.5,-425 828.5,-403 577.5,-403"/>
<image xlink:href="../../images/foreignKeys.png" width="11px" height="12px" preserveAspectRatio="xMinYMin meet" x="582.5" y="-420"/>
<text text-anchor="start" x="597.5" y="-411.2" font-family="Helvetica,sans-Serif" font-size="11.00">forest_type</text>
<polygon fill="none" stroke="black" points="577.5,-381 577.5,-403 828.5,-403 828.5,-381 577.5,-381"/>
<image xlink:href="../../images/foreignKeys.png" width="11px" height="12px" preserveAspectRatio="xMinYMin meet" x="582.5" y="-398"/>
<text text-anchor="start" x="597.5" y="-389.2" font-family="Helvetica,sans-Serif" font-size="11.00">habitat_type</text>
<polygon fill="none" stroke="black" points="577.5,-359 577.5,-381 828.5,-381 828.5,-359 577.5,-359"/>
<image xlink:href="../../images/foreignKeys.png" width="11px" height="12px" preserveAspectRatio="xMinYMin meet" x="582.5" y="-376"/>
<text text-anchor="start" x="597.5" y="-367.2" font-family="Helvetica,sans-Serif" font-size="11.00">habitat_type_source</text>
<polygon fill="none" stroke="black" points="577.5,-337 577.5,-359 828.5,-359 828.5,-337 577.5,-337"/>
<image xlink:href="../../images/foreignKeys.png" width="11px" height="12px" preserveAspectRatio="xMinYMin meet" x="582.5" y="-354"/>
<text text-anchor="start" x="597.5" y="-345.2" font-family="Helvetica,sans-Serif" font-size="11.00">use_restriction</text>
<polygon fill="none" stroke="black" points="577.5,-315 577.5,-337 828.5,-337 828.5,-315 577.5,-315"/>
<image xlink:href="../../images/foreignKeys.png" width="11px" height="12px" preserveAspectRatio="xMinYMin meet" x="582.5" y="-332"/>
<text text-anchor="start" x="597.5" y="-323.2" font-family="Helvetica,sans-Serif" font-size="11.00">land_use</text>
<polygon fill="none" stroke="black" points="577.5,-293 577.5,-315 828.5,-315 828.5,-293 577.5,-293"/>
<image xlink:href="../../images/foreignKeys.png" width="11px" height="12px" preserveAspectRatio="xMinYMin meet" x="582.5" y="-310"/>
<text text-anchor="start" x="597.5" y="-301.2" font-family="Helvetica,sans-Serif" font-size="11.00">marking_state</text>
<polygon fill="none" stroke="black" points="577.5,-271 577.5,-293 828.5,-293 828.5,-271 577.5,-271"/>
<image xlink:href="../../images/foreignKeys.png" width="11px" height="12px" preserveAspectRatio="xMinYMin meet" x="582.5" y="-288"/>
<text text-anchor="start" x="597.5" y="-279.2" font-family="Helvetica,sans-Serif" font-size="11.00">marking_profile</text>
<polygon fill="none" stroke="black" points="577.5,-249 577.5,-271 828.5,-271 828.5,-249 577.5,-249"/>
<image xlink:href="../../images/foreignKeys.png" width="11px" height="12px" preserveAspectRatio="xMinYMin meet" x="582.5" y="-266"/>
<text text-anchor="start" x="597.5" y="-257.2" font-family="Helvetica,sans-Serif" font-size="11.00">terrain_form</text>
<polygon fill="none" stroke="black" points="577.5,-227 577.5,-249 828.5,-249 828.5,-227 577.5,-227"/>
<image xlink:href="../../images/foreignKeys.png" width="11px" height="12px" preserveAspectRatio="xMinYMin meet" x="582.5" y="-244"/>
<text text-anchor="start" x="597.5" y="-235.2" font-family="Helvetica,sans-Serif" font-size="11.00">management_type</text>
<polygon fill="none" stroke="black" points="577.5,-205 577.5,-227 828.5,-227 828.5,-205 577.5,-205"/>
<image xlink:href="../../images/foreignKeys.png" width="11px" height="12px" preserveAspectRatio="xMinYMin meet" x="582.5" y="-222"/>
<text text-anchor="start" x="597.5" y="-213.2" font-family="Helvetica,sans-Serif" font-size="11.00">harvesting_method</text>
<polygon fill="none" stroke="black" points="577.5,-183 577.5,-205 828.5,-205 828.5,-183 577.5,-183"/>
<image xlink:href="../../images/foreignKeys.png" width="11px" height="12px" preserveAspectRatio="xMinYMin meet" x="582.5" y="-200"/>
<text text-anchor="start" x="597.5" y="-191.2" font-family="Helvetica,sans-Serif" font-size="11.00">layer_type</text>
<polygon fill="none" stroke="black" points="577.5,-161 577.5,-183 828.5,-183 828.5,-161 577.5,-161"/>
<image xlink:href="../../images/foreignKeys.png" width="11px" height="12px" preserveAspectRatio="xMinYMin meet" x="582.5" y="-178"/>
<text text-anchor="start" x="597.5" y="-169.2" font-family="Helvetica,sans-Serif" font-size="11.00">stand_phase</text>
<polygon fill="none" stroke="black" points="577.5,-139 577.5,-161 828.5,-161 828.5,-139 577.5,-139"/>
<image xlink:href="../../images/foreignKeys.png" width="11px" height="12px" preserveAspectRatio="xMinYMin meet" x="582.5" y="-156"/>
<text text-anchor="start" x="597.5" y="-147.2" font-family="Helvetica,sans-Serif" font-size="11.00">sablings_layer</text>
<polygon fill="none" stroke="black" points="577.5,-117 577.5,-139 828.5,-139 828.5,-117 577.5,-117"/>
<image xlink:href="../../images/foreignKeys.png" width="11px" height="12px" preserveAspectRatio="xMinYMin meet" x="582.5" y="-134"/>
<text text-anchor="start" x="597.5" y="-125.2" font-family="Helvetica,sans-Serif" font-size="11.00">trees_less_4meter_mirrored</text>
<polygon fill="none" stroke="black" points="577.5,-95 577.5,-117 828.5,-117 828.5,-95 577.5,-95"/>
<image xlink:href="../../images/foreignKeys.png" width="11px" height="12px" preserveAspectRatio="xMinYMin meet" x="582.5" y="-112"/>
<text text-anchor="start" x="597.5" y="-103.2" font-family="Helvetica,sans-Serif" font-size="11.00">trees_less_4meter_count_factor</text>
<polygon fill="none" stroke="black" points="577.5,-73 577.5,-95 828.5,-95 828.5,-73 577.5,-73"/>
<image xlink:href="../../images/foreignKeys.png" width="11px" height="12px" preserveAspectRatio="xMinYMin meet" x="582.5" y="-90"/>
<text text-anchor="start" x="597.5" y="-81.2" font-family="Helvetica,sans-Serif" font-size="11.00">trees_less_4meter_layer</text>
<polygon fill="none" stroke="black" points="577.5,-55 577.5,-73 828.5,-73 828.5,-55 577.5,-55"/>
<text text-anchor="start" x="580.5" y="-61.2" font-family="Helvetica,sans-Serif" font-size="11.00">...</text>
<polygon fill="#ffffff" stroke="transparent" points="577.5,-37 577.5,-55 828.5,-55 828.5,-37 577.5,-37"/>
<polygon fill="none" stroke="black" points="577.5,-37 577.5,-55 828.5,-55 828.5,-37 577.5,-37"/>
<polygon fill="#ffffff" stroke="transparent" points="578.5,-38 578.5,-54 658.5,-54 658.5,-38 578.5,-38"/>
<text text-anchor="start" x="580.5" y="-43.2" font-family="Helvetica,sans-Serif" font-size="11.00">&lt; 24</text>
<polygon fill="#ffffff" stroke="transparent" points="658.5,-38 658.5,-54 755.5,-54 755.5,-38 658.5,-38"/>
<text text-anchor="start" x="685" y="-43.2" font-family="Helvetica,sans-Serif" font-size="11.00">82 rows</text>
<polygon fill="#ffffff" stroke="transparent" points="755.5,-38 755.5,-54 827.5,-54 827.5,-38 755.5,-38"/>
<text text-anchor="start" x="805.5" y="-43.2" font-family="Helvetica,sans-Serif" font-size="11.00">7 &gt;</text>
<polygon fill="black" stroke="black" points="658.5,-38 658.5,-54 658.5,-54 658.5,-38 658.5,-38"/>
<polygon fill="black" stroke="black" points="755.5,-38 755.5,-54 755.5,-54 755.5,-38 755.5,-38"/>
</a>
</g>
</g>
<!-- lookup_use_restriction -->
<g id="node2" class="node">
<title>lookup_use_restriction</title>
<g id="a_node2"><a xlink:href="../../tables/lookup_use_restriction.html" xlink:title="lookup_use_restriction" target="_top">
<polygon fill="#ffffff" stroke="transparent" points="8,-317 8,-449 528,-449 528,-317 8,-317"/>
<polygon fill="#f5f5f5" stroke="transparent" points="10,-425 10,-447 526,-447 526,-425 10,-425"/>
<polygon fill="none" stroke="black" points="10,-425 10,-447 526,-447 526,-425 10,-425"/>
<text text-anchor="start" x="15" y="-434.2" font-family="Helvetica,sans-Serif" font-weight="bold" font-size="11.00">lookup_use_restriction</text>
<text text-anchor="start" x="484" y="-433.2" font-family="Helvetica,sans-Serif" font-size="11.00">[table]</text>
<polygon fill="none" stroke="black" points="10,-403 10,-425 195,-425 195,-403 10,-403"/>
<text text-anchor="start" x="30" y="-411.2" font-family="Helvetica,sans-Serif" font-size="11.00">name_de</text>
<polygon fill="none" stroke="black" points="195,-403 195,-425 526,-425 526,-403 195,-403"/>
<text text-anchor="start" x="198" y="-411.2" font-family="Helvetica,sans-Serif" font-size="11.00">varchar[150]</text>
<polygon fill="none" stroke="black" points="10,-381 10,-403 195,-403 195,-381 10,-381"/>
<text text-anchor="start" x="30" y="-389.2" font-family="Helvetica,sans-Serif" font-size="11.00">name_en</text>
<polygon fill="none" stroke="black" points="195,-381 195,-403 526,-403 526,-381 195,-381"/>
<text text-anchor="start" x="198" y="-389.2" font-family="Helvetica,sans-Serif" font-size="11.00">varchar[150]</text>
<polygon fill="none" stroke="black" points="10,-359 10,-381 195,-381 195,-359 10,-359"/>
<text text-anchor="start" x="30" y="-367.2" font-family="Helvetica,sans-Serif" font-size="11.00">sort</text>
<polygon fill="none" stroke="black" points="195,-359 195,-381 526,-381 526,-359 195,-359"/>
<text text-anchor="start" x="198" y="-367.2" font-family="Helvetica,sans-Serif" font-size="11.00">int4[10]</text>
<polygon fill="#ffffff" stroke="transparent" points="10,-337 10,-359 195,-359 195,-337 10,-337"/>
<polygon fill="none" stroke="black" points="10,-337 10,-359 195,-359 195,-337 10,-337"/>
<text text-anchor="start" x="30" y="-345.2" font-family="Helvetica,sans-Serif" font-size="11.00">abbreviation</text>
<polygon fill="none" stroke="black" points="195,-337 195,-359 526,-359 526,-337 195,-337"/>
<text text-anchor="start" x="198" y="-345.2" font-family="Helvetica,sans-Serif" font-size="11.00">&quot;private_ci2027_001&quot;.&quot;enum_use_restriction&quot;[2147483647]</text>
<polygon fill="#ffffff" stroke="transparent" points="10,-319 10,-337 526,-337 526,-319 10,-319"/>
<polygon fill="none" stroke="black" points="10,-319 10,-337 526,-337 526,-319 10,-319"/>
<polygon fill="#ffffff" stroke="transparent" points="11,-320 11,-336 177,-336 177,-320 11,-320"/>
<text text-anchor="start" x="13" y="-325.2" font-family="Helvetica,sans-Serif" font-size="11.00">&lt; 0</text>
<polygon fill="#ffffff" stroke="transparent" points="177,-320 177,-336 360,-336 360,-320 177,-320"/>
<text text-anchor="start" x="250" y="-325.2" font-family="Helvetica,sans-Serif" font-size="11.00">0 rows</text>
<polygon fill="#ffffff" stroke="transparent" points="360,-320 360,-336 525,-336 525,-320 360,-320"/>
<text text-anchor="start" x="503" y="-325.2" font-family="Helvetica,sans-Serif" font-size="11.00">1 &gt;</text>
<polygon fill="black" stroke="black" points="177,-320 177,-336 177,-336 177,-320 177,-320"/>
<polygon fill="black" stroke="black" points="360,-320 360,-336 360,-336 360,-320 360,-320"/>
<polygon fill="none" stroke="black" stroke-width="2" points="9,-318 9,-448 527,-448 527,-318 9,-318"/>
</a>
</g>
</g>
<!-- plot&#45;&gt;lookup_use_restriction -->
<g id="edge1" class="edge">
<title>plot:w&#45;&gt;lookup_use_restriction:e</title>
<path fill="none" stroke="black" d="M561.84,-348C550.41,-348 543.16,-348 527,-348"/>
<polygon fill="black" stroke="black" points="568.5,-348 576.5,-351.6 572.5,-348 576.5,-348 576.5,-348 576.5,-348 572.5,-348 576.5,-344.4 568.5,-348 568.5,-348"/>
<ellipse fill="none" stroke="black" cx="565.3" cy="-348" rx="3.2" ry="3.2"/>
</g>
</g>
</svg>
