<?xml version="1.0" encoding="UTF-8" standalone="no"?>
<!DOCTYPE svg PUBLIC "-//W3C//DTD SVG 1.1//EN"
 "http://www.w3.org/Graphics/SVG/1.1/DTD/svg11.dtd">
<!-- Generated by graphviz version 2.43.0 (0)
 -->
<!-- Title: twoDegreesRelationshipsDiagram Pages: 1 -->
<svg width="888pt" height="889pt"
 viewBox="0.00 0.00 888.00 889.46" xmlns="http://www.w3.org/2000/svg" xmlns:xlink="http://www.w3.org/1999/xlink">
<g id="graph0" class="graph" transform="scale(1 1) rotate(0) translate(4 885.46)">
<title>twoDegreesRelationshipsDiagram</title>
<polygon fill="#ffffff" stroke="transparent" points="-4,4 -4,-885.46 884,-885.46 884,4 -4,4"/>
<text text-anchor="middle" x="79.5" y="-7.2" font-family="Helvetica,sans-Serif" font-size="11.00">Generated by SchemaSpy</text>
<!-- plot -->
<g id="node1" class="node">
<title>plot</title>
<g id="a_node1"><a xlink:href="../../tables/plot.html" xlink:title="plot" target="_top">
<polygon fill="#ffffff" stroke="transparent" points="244,-722.46 244,-780.46 349,-780.46 349,-722.46 244,-722.46"/>
<polygon fill="#f5f5f5" stroke="transparent" points="244.5,-758.46 244.5,-780.46 349.5,-780.46 349.5,-758.46 244.5,-758.46"/>
<polygon fill="none" stroke="black" points="244.5,-758.46 244.5,-780.46 349.5,-780.46 349.5,-758.46 244.5,-758.46"/>
<text text-anchor="start" x="249" y="-767.66" font-family="Helvetica,sans-Serif" font-weight="bold" font-size="11.00">plot</text>
<text text-anchor="start" x="307.5" y="-766.66" font-family="Helvetica,sans-Serif" font-size="11.00">[table]</text>
<polygon fill="none" stroke="black" points="244.5,-740.46 244.5,-758.46 349.5,-758.46 349.5,-740.46 244.5,-740.46"/>
<text text-anchor="start" x="247.5" y="-746.66" font-family="Helvetica,sans-Serif" font-size="11.00">...</text>
<polygon fill="#ffffff" stroke="transparent" points="244.5,-722.46 244.5,-740.46 349.5,-740.46 349.5,-722.46 244.5,-722.46"/>
<polygon fill="none" stroke="black" points="244.5,-722.46 244.5,-740.46 349.5,-740.46 349.5,-722.46 244.5,-722.46"/>
<polygon fill="#ffffff" stroke="transparent" points="245.5,-723.46 245.5,-739.46 276.5,-739.46 276.5,-723.46 245.5,-723.46"/>
<text text-anchor="start" x="247.5" y="-728.66" font-family="Helvetica,sans-Serif" font-size="11.00">&lt; 24</text>
<polygon fill="#ffffff" stroke="transparent" points="276.5,-723.46 276.5,-739.46 324.5,-739.46 324.5,-723.46 276.5,-723.46"/>
<text text-anchor="start" x="278.5" y="-728.66" font-family="Helvetica,sans-Serif" font-size="11.00">82 rows</text>
<polygon fill="#ffffff" stroke="transparent" points="324.5,-723.46 324.5,-739.46 348.5,-739.46 348.5,-723.46 324.5,-723.46"/>
<text text-anchor="start" x="326.5" y="-728.66" font-family="Helvetica,sans-Serif" font-size="11.00">7 &gt;</text>
<polygon fill="black" stroke="black" points="276.5,-723.46 276.5,-739.46 276.5,-739.46 276.5,-723.46 276.5,-723.46"/>
<polygon fill="black" stroke="black" points="324.5,-723.46 324.5,-739.46 324.5,-739.46 324.5,-723.46 324.5,-723.46"/>
</a>
</g>
</g>
<!-- lookup_stand_layer -->
<g id="node2" class="node">
<title>lookup_stand_layer</title>
<g id="a_node2"><a xlink:href="../../tables/lookup_stand_layer.html" xlink:title="lookup_stand_layer" target="_top">
<polygon fill="#ffffff" stroke="transparent" points="8,-381.46 8,-439.46 195,-439.46 195,-381.46 8,-381.46"/>
<polygon fill="#f5f5f5" stroke="transparent" points="8.5,-417.46 8.5,-439.46 195.5,-439.46 195.5,-417.46 8.5,-417.46"/>
<polygon fill="none" stroke="black" points="8.5,-417.46 8.5,-439.46 195.5,-439.46 195.5,-417.46 8.5,-417.46"/>
<text text-anchor="start" x="13.5" y="-426.66" font-family="Helvetica,sans-Serif" font-weight="bold" font-size="11.00">lookup_stand_layer</text>
<text text-anchor="start" x="153.5" y="-425.66" font-family="Helvetica,sans-Serif" font-size="11.00">[table]</text>
<polygon fill="none" stroke="black" points="8.5,-399.46 8.5,-417.46 195.5,-417.46 195.5,-399.46 8.5,-399.46"/>
<text text-anchor="start" x="11.5" y="-405.66" font-family="Helvetica,sans-Serif" font-size="11.00">...</text>
<polygon fill="#ffffff" stroke="transparent" points="8.5,-381.46 8.5,-399.46 195.5,-399.46 195.5,-381.46 8.5,-381.46"/>
<polygon fill="none" stroke="black" points="8.5,-381.46 8.5,-399.46 195.5,-399.46 195.5,-381.46 8.5,-381.46"/>
<polygon fill="#ffffff" stroke="transparent" points="9.5,-382.46 9.5,-398.46 57.5,-398.46 57.5,-382.46 9.5,-382.46"/>
<text text-anchor="start" x="11.5" y="-387.66" font-family="Helvetica,sans-Serif" font-size="11.00"> &#160;</text>
<polygon fill="#ffffff" stroke="transparent" points="57.5,-382.46 57.5,-398.46 134.5,-398.46 134.5,-382.46 57.5,-382.46"/>
<text text-anchor="start" x="77.5" y="-387.66" font-family="Helvetica,sans-Serif" font-size="11.00">0 rows</text>
<polygon fill="#ffffff" stroke="transparent" points="134.5,-382.46 134.5,-398.46 194.5,-398.46 194.5,-382.46 134.5,-382.46"/>
<text text-anchor="start" x="172.5" y="-387.66" font-family="Helvetica,sans-Serif" font-size="11.00">2 &gt;</text>
<polygon fill="black" stroke="black" points="57.5,-382.46 57.5,-398.46 57.5,-398.46 57.5,-382.46 57.5,-382.46"/>
<polygon fill="black" stroke="black" points="134.5,-382.46 134.5,-398.46 134.5,-398.46 134.5,-382.46 134.5,-382.46"/>
</a>
</g>
</g>
<!-- plot&#45;&gt;lookup_stand_layer -->
<g id="edge1" class="edge">
<title>plot:w&#45;&gt;lookup_stand_layer:e</title>
<path fill="none" stroke="black" d="M228.86,-748.23C108.21,-725.91 344.11,-408.46 196.5,-408.46"/>
<polygon fill="black" stroke="black" points="235.53,-748.79 243.2,-753.05 239.51,-749.12 243.5,-749.46 243.5,-749.46 243.5,-749.46 239.51,-749.12 243.8,-745.87 235.53,-748.79 235.53,-748.79"/>
<ellipse fill="none" stroke="black" cx="232.34" cy="-748.52" rx="3.2" ry="3.2"/>
</g>
<!-- plot_location -->
<g id="node3" class="node">
<title>plot_location</title>
<g id="a_node3"><a xlink:href="../../tables/plot_location.html" xlink:title="plot_location" target="_top">
<polygon fill="#ffffff" stroke="transparent" points="452.5,-773.46 452.5,-831.46 593.5,-831.46 593.5,-773.46 452.5,-773.46"/>
<polygon fill="#f5f5f5" stroke="transparent" points="453,-809.46 453,-831.46 594,-831.46 594,-809.46 453,-809.46"/>
<polygon fill="none" stroke="black" points="453,-809.46 453,-831.46 594,-831.46 594,-809.46 453,-809.46"/>
<text text-anchor="start" x="458" y="-818.66" font-family="Helvetica,sans-Serif" font-weight="bold" font-size="11.00">plot_location</text>
<text text-anchor="start" x="552" y="-817.66" font-family="Helvetica,sans-Serif" font-size="11.00">[table]</text>
<polygon fill="none" stroke="black" points="453,-791.46 453,-809.46 594,-809.46 594,-791.46 453,-791.46"/>
<text text-anchor="start" x="456" y="-797.66" font-family="Helvetica,sans-Serif" font-size="11.00">...</text>
<polygon fill="#ffffff" stroke="transparent" points="453,-773.46 453,-791.46 594,-791.46 594,-773.46 453,-773.46"/>
<polygon fill="none" stroke="black" points="453,-773.46 453,-791.46 594,-791.46 594,-773.46 453,-773.46"/>
<polygon fill="#ffffff" stroke="transparent" points="454,-774.46 454,-790.46 490,-790.46 490,-774.46 454,-774.46"/>
<text text-anchor="start" x="456" y="-779.66" font-family="Helvetica,sans-Serif" font-size="11.00">&lt; 1</text>
<polygon fill="#ffffff" stroke="transparent" points="490,-774.46 490,-790.46 557,-790.46 557,-774.46 490,-774.46"/>
<text text-anchor="start" x="498" y="-779.66" font-family="Helvetica,sans-Serif" font-size="11.00">406 rows</text>
<polygon fill="#ffffff" stroke="transparent" points="557,-774.46 557,-790.46 593,-790.46 593,-774.46 557,-774.46"/>
<text text-anchor="start" x="571" y="-779.66" font-family="Helvetica,sans-Serif" font-size="11.00">3 &gt;</text>
<polygon fill="black" stroke="black" points="490,-774.46 490,-790.46 490,-790.46 490,-774.46 490,-774.46"/>
<polygon fill="black" stroke="black" points="557,-774.46 557,-790.46 557,-790.46 557,-774.46 557,-774.46"/>
</a>
</g>
</g>
<!-- plot_location&#45;&gt;plot -->
<g id="edge2" class="edge">
<title>plot_location:w&#45;&gt;plot:e</title>
<path fill="none" stroke="black" d="M437.58,-798.88C400.85,-790.27 395.66,-749.46 350.5,-749.46"/>
<polygon fill="black" stroke="black" points="444.05,-799.59 451.61,-804.04 448.02,-800.02 452,-800.46 452,-800.46 452,-800.46 448.02,-800.02 452.39,-796.88 444.05,-799.59 444.05,-799.59"/>
<ellipse fill="none" stroke="black" cx="440.87" cy="-799.24" rx="3.2" ry="3.2"/>
</g>
<!-- sapling_1m -->
<g id="node4" class="node">
<title>sapling_1m</title>
<g id="a_node4"><a xlink:href="../../tables/sapling_1m.html" xlink:title="sapling_1m" target="_top">
<polygon fill="#ffffff" stroke="transparent" points="697,-709.46 697,-877.46 872,-877.46 872,-709.46 697,-709.46"/>
<polygon fill="#f5f5f5" stroke="transparent" points="697.5,-855.46 697.5,-877.46 872.5,-877.46 872.5,-855.46 697.5,-855.46"/>
<polygon fill="none" stroke="black" points="697.5,-855.46 697.5,-877.46 872.5,-877.46 872.5,-855.46 697.5,-855.46"/>
<text text-anchor="start" x="702.5" y="-864.66" font-family="Helvetica,sans-Serif" font-weight="bold" font-size="11.00">sapling_1m</text>
<text text-anchor="start" x="830.5" y="-863.66" font-family="Helvetica,sans-Serif" font-size="11.00">[table]</text>
<polygon fill="none" stroke="black" points="697.5,-833.46 697.5,-855.46 872.5,-855.46 872.5,-833.46 697.5,-833.46"/>
<image xlink:href="../../images/primaryKeys.png" width="11px" height="12px" preserveAspectRatio="xMinYMin meet" x="702.5" y="-850.46"/>
<text text-anchor="start" x="717.5" y="-841.66" font-family="Helvetica,sans-Serif" font-size="11.00">id</text>
<polygon fill="none" stroke="black" points="697.5,-811.46 697.5,-833.46 872.5,-833.46 872.5,-811.46 697.5,-811.46"/>
<image xlink:href="../../images/foreignKeys.png" width="11px" height="12px" preserveAspectRatio="xMinYMin meet" x="702.5" y="-828.46"/>
<text text-anchor="start" x="717.5" y="-819.66" font-family="Helvetica,sans-Serif" font-size="11.00">plot_id</text>
<polygon fill="none" stroke="black" points="697.5,-789.46 697.5,-811.46 872.5,-811.46 872.5,-789.46 697.5,-789.46"/>
<image xlink:href="../../images/foreignKeys.png" width="11px" height="12px" preserveAspectRatio="xMinYMin meet" x="702.5" y="-806.46"/>
<text text-anchor="start" x="717.5" y="-797.66" font-family="Helvetica,sans-Serif" font-size="11.00">plot_location_id</text>
<polygon fill="none" stroke="black" points="697.5,-767.46 697.5,-789.46 872.5,-789.46 872.5,-767.46 697.5,-767.46"/>
<image xlink:href="../../images/foreignKeys.png" width="11px" height="12px" preserveAspectRatio="xMinYMin meet" x="702.5" y="-784.46"/>
<text text-anchor="start" x="717.5" y="-775.66" font-family="Helvetica,sans-Serif" font-size="11.00">tree_species</text>
<polygon fill="none" stroke="black" points="697.5,-745.46 697.5,-767.46 872.5,-767.46 872.5,-745.46 697.5,-745.46"/>
<image xlink:href="../../images/foreignKeys.png" width="11px" height="12px" preserveAspectRatio="xMinYMin meet" x="702.5" y="-762.46"/>
<text text-anchor="start" x="717.5" y="-753.66" font-family="Helvetica,sans-Serif" font-size="11.00">bitten</text>
<polygon fill="none" stroke="black" points="697.5,-727.46 697.5,-745.46 872.5,-745.46 872.5,-727.46 697.5,-727.46"/>
<text text-anchor="start" x="700.5" y="-733.66" font-family="Helvetica,sans-Serif" font-size="11.00">...</text>
<polygon fill="#ffffff" stroke="transparent" points="697.5,-709.46 697.5,-727.46 872.5,-727.46 872.5,-709.46 697.5,-709.46"/>
<polygon fill="none" stroke="black" points="697.5,-709.46 697.5,-727.46 872.5,-727.46 872.5,-709.46 697.5,-709.46"/>
<polygon fill="#ffffff" stroke="transparent" points="698.5,-710.46 698.5,-726.46 754.5,-726.46 754.5,-710.46 698.5,-710.46"/>
<text text-anchor="start" x="700.5" y="-715.66" font-family="Helvetica,sans-Serif" font-size="11.00">&lt; 4</text>
<polygon fill="#ffffff" stroke="transparent" points="754.5,-710.46 754.5,-726.46 827.5,-726.46 827.5,-710.46 754.5,-710.46"/>
<text text-anchor="start" x="772.5" y="-715.66" font-family="Helvetica,sans-Serif" font-size="11.00">0 rows</text>
<polygon fill="#ffffff" stroke="transparent" points="827.5,-710.46 827.5,-726.46 871.5,-726.46 871.5,-710.46 827.5,-710.46"/>
<text text-anchor="start" x="861.5" y="-715.66" font-family="Helvetica,sans-Serif" font-size="11.00"> &#160;</text>
<polygon fill="black" stroke="black" points="754.5,-710.46 754.5,-726.46 754.5,-726.46 754.5,-710.46 754.5,-710.46"/>
<polygon fill="black" stroke="black" points="827.5,-710.46 827.5,-726.46 827.5,-726.46 827.5,-710.46 827.5,-710.46"/>
</a>
</g>
</g>
<!-- sapling_1m&#45;&gt;plot -->
<g id="edge4" class="edge">
<title>sapling_1m:w&#45;&gt;plot:e</title>
<path fill="none" stroke="black" d="M682.43,-826.02C674.16,-830.86 669.59,-839.29 656,-842.46 540.87,-869.34 488.59,-907.7 390,-842.46 352.55,-817.68 395.41,-749.46 350.5,-749.46"/>
<polygon fill="black" stroke="black" points="688.74,-824.42 697.38,-825.95 692.62,-823.44 696.5,-822.46 696.5,-822.46 696.5,-822.46 692.62,-823.44 695.62,-818.97 688.74,-824.42 688.74,-824.42"/>
<ellipse fill="none" stroke="black" cx="685.64" cy="-825.2" rx="3.2" ry="3.2"/>
</g>
<!-- sapling_1m&#45;&gt;plot_location -->
<g id="edge5" class="edge">
<title>sapling_1m:w&#45;&gt;plot_location:e</title>
<path fill="none" stroke="black" d="M681.93,-800.46C648.28,-800.46 634.82,-800.46 595,-800.46"/>
<polygon fill="black" stroke="black" points="688.5,-800.46 696.5,-804.06 692.5,-800.46 696.5,-800.46 696.5,-800.46 696.5,-800.46 692.5,-800.46 696.5,-796.86 688.5,-800.46 688.5,-800.46"/>
<ellipse fill="none" stroke="black" cx="685.3" cy="-800.46" rx="3.2" ry="3.2"/>
</g>
<!-- lookup_bitten -->
<g id="node5" class="node">
<title>lookup_bitten</title>
<g id="a_node5"><a xlink:href="../../tables/lookup_bitten.html" xlink:title="lookup_bitten" target="_top">
<polygon fill="#ffffff" stroke="transparent" points="449.5,-514.46 449.5,-572.46 596.5,-572.46 596.5,-514.46 449.5,-514.46"/>
<polygon fill="#f5f5f5" stroke="transparent" points="450,-550.46 450,-572.46 597,-572.46 597,-550.46 450,-550.46"/>
<polygon fill="none" stroke="black" points="450,-550.46 450,-572.46 597,-572.46 597,-550.46 450,-550.46"/>
<text text-anchor="start" x="455" y="-559.66" font-family="Helvetica,sans-Serif" font-weight="bold" font-size="11.00">lookup_bitten</text>
<text text-anchor="start" x="555" y="-558.66" font-family="Helvetica,sans-Serif" font-size="11.00">[table]</text>
<polygon fill="none" stroke="black" points="450,-532.46 450,-550.46 597,-550.46 597,-532.46 450,-532.46"/>
<text text-anchor="start" x="453" y="-538.66" font-family="Helvetica,sans-Serif" font-size="11.00">...</text>
<polygon fill="#ffffff" stroke="transparent" points="450,-514.46 450,-532.46 597,-532.46 597,-514.46 450,-514.46"/>
<polygon fill="none" stroke="black" points="450,-514.46 450,-532.46 597,-532.46 597,-514.46 450,-514.46"/>
<polygon fill="#ffffff" stroke="transparent" points="451,-515.46 451,-531.46 486,-531.46 486,-515.46 451,-515.46"/>
<text text-anchor="start" x="453" y="-520.66" font-family="Helvetica,sans-Serif" font-size="11.00"> &#160;</text>
<polygon fill="#ffffff" stroke="transparent" points="486,-515.46 486,-531.46 550,-531.46 550,-515.46 486,-515.46"/>
<text text-anchor="start" x="499.5" y="-520.66" font-family="Helvetica,sans-Serif" font-size="11.00">0 rows</text>
<polygon fill="#ffffff" stroke="transparent" points="550,-515.46 550,-531.46 596,-531.46 596,-515.46 550,-515.46"/>
<text text-anchor="start" x="574" y="-520.66" font-family="Helvetica,sans-Serif" font-size="11.00">2 &gt;</text>
<polygon fill="black" stroke="black" points="486,-515.46 486,-531.46 486,-531.46 486,-515.46 486,-515.46"/>
<polygon fill="black" stroke="black" points="550,-515.46 550,-531.46 550,-531.46 550,-515.46 550,-515.46"/>
</a>
</g>
</g>
<!-- sapling_1m&#45;&gt;lookup_bitten -->
<g id="edge3" class="edge">
<title>sapling_1m:w&#45;&gt;lookup_bitten:e</title>
<path fill="none" stroke="black" d="M682.06,-754.91C628.17,-741.47 697.2,-643.71 656,-582.46 638.38,-556.27 629.57,-541.46 598,-541.46"/>
<polygon fill="black" stroke="black" points="688.55,-755.61 696.12,-760.04 692.52,-756.03 696.5,-756.46 696.5,-756.46 696.5,-756.46 692.52,-756.03 696.88,-752.88 688.55,-755.61 688.55,-755.61"/>
<ellipse fill="none" stroke="black" cx="685.36" cy="-755.26" rx="3.2" ry="3.2"/>
</g>
<!-- lookup_tree_species -->
<g id="node6" class="node">
<title>lookup_tree_species</title>
<g id="a_node6"><a xlink:href="../../tables/lookup_tree_species.html" xlink:title="lookup_tree_species" target="_top">
<polygon fill="#ffffff" stroke="transparent" points="398,-593.46 398,-725.46 648,-725.46 648,-593.46 398,-593.46"/>
<polygon fill="#f5f5f5" stroke="transparent" points="400,-701.46 400,-723.46 646,-723.46 646,-701.46 400,-701.46"/>
<polygon fill="none" stroke="black" points="400,-701.46 400,-723.46 646,-723.46 646,-701.46 400,-701.46"/>
<text text-anchor="start" x="405" y="-710.66" font-family="Helvetica,sans-Serif" font-weight="bold" font-size="11.00">lookup_tree_species</text>
<text text-anchor="start" x="604" y="-709.66" font-family="Helvetica,sans-Serif" font-size="11.00">[table]</text>
<polygon fill="none" stroke="black" points="400,-679.46 400,-701.46 568,-701.46 568,-679.46 400,-679.46"/>
<text text-anchor="start" x="420" y="-687.66" font-family="Helvetica,sans-Serif" font-size="11.00">name_de</text>
<polygon fill="none" stroke="black" points="568,-679.46 568,-701.46 646,-701.46 646,-679.46 568,-679.46"/>
<text text-anchor="start" x="571" y="-687.66" font-family="Helvetica,sans-Serif" font-size="11.00">varchar[150]</text>
<polygon fill="none" stroke="black" points="400,-657.46 400,-679.46 568,-679.46 568,-657.46 400,-657.46"/>
<text text-anchor="start" x="420" y="-665.66" font-family="Helvetica,sans-Serif" font-size="11.00">name_en</text>
<polygon fill="none" stroke="black" points="568,-657.46 568,-679.46 646,-679.46 646,-657.46 568,-657.46"/>
<text text-anchor="start" x="571" y="-665.66" font-family="Helvetica,sans-Serif" font-size="11.00">varchar[150]</text>
<polygon fill="none" stroke="black" points="400,-635.46 400,-657.46 568,-657.46 568,-635.46 400,-635.46"/>
<text text-anchor="start" x="420" y="-643.66" font-family="Helvetica,sans-Serif" font-size="11.00">sort</text>
<polygon fill="none" stroke="black" points="568,-635.46 568,-657.46 646,-657.46 646,-635.46 568,-635.46"/>
<text text-anchor="start" x="571" y="-643.66" font-family="Helvetica,sans-Serif" font-size="11.00">int4[10]</text>
<polygon fill="#ffffff" stroke="transparent" points="400,-613.46 400,-635.46 568,-635.46 568,-613.46 400,-613.46"/>
<polygon fill="none" stroke="black" points="400,-613.46 400,-635.46 568,-635.46 568,-613.46 400,-613.46"/>
<text text-anchor="start" x="420" y="-621.66" font-family="Helvetica,sans-Serif" font-size="11.00">abbreviation</text>
<polygon fill="none" stroke="black" points="568,-613.46 568,-635.46 646,-635.46 646,-613.46 568,-613.46"/>
<text text-anchor="start" x="571" y="-621.66" font-family="Helvetica,sans-Serif" font-size="11.00">int2[5]</text>
<polygon fill="#ffffff" stroke="transparent" points="400,-595.46 400,-613.46 646,-613.46 646,-595.46 400,-595.46"/>
<polygon fill="none" stroke="black" points="400,-595.46 400,-613.46 646,-613.46 646,-595.46 400,-595.46"/>
<polygon fill="#ffffff" stroke="transparent" points="401,-596.46 401,-612.46 472,-612.46 472,-596.46 401,-596.46"/>
<text text-anchor="start" x="403" y="-601.66" font-family="Helvetica,sans-Serif" font-size="11.00">&lt; 0</text>
<polygon fill="#ffffff" stroke="transparent" points="472,-596.46 472,-612.46 574,-612.46 574,-596.46 472,-596.46"/>
<text text-anchor="start" x="497.5" y="-601.66" font-family="Helvetica,sans-Serif" font-size="11.00">125 rows</text>
<polygon fill="#ffffff" stroke="transparent" points="574,-596.46 574,-612.46 645,-612.46 645,-596.46 574,-596.46"/>
<text text-anchor="start" x="623" y="-601.66" font-family="Helvetica,sans-Serif" font-size="11.00">3 &gt;</text>
<polygon fill="black" stroke="black" points="472,-596.46 472,-612.46 472,-612.46 472,-596.46 472,-596.46"/>
<polygon fill="black" stroke="black" points="574,-596.46 574,-612.46 574,-612.46 574,-596.46 574,-596.46"/>
<polygon fill="none" stroke="black" stroke-width="2" points="399,-594.46 399,-724.46 647,-724.46 647,-594.46 399,-594.46"/>
</a>
</g>
</g>
<!-- sapling_1m&#45;&gt;lookup_tree_species -->
<g id="edge6" class="edge">
<title>sapling_1m:w&#45;&gt;lookup_tree_species:e</title>
<path fill="none" stroke="black" d="M682.25,-775.66C638.64,-754.78 713.14,-624.46 647,-624.46"/>
<polygon fill="black" stroke="black" points="688.65,-776.92 695.8,-781.99 692.58,-777.69 696.5,-778.46 696.5,-778.46 696.5,-778.46 692.58,-777.69 697.2,-774.93 688.65,-776.92 688.65,-776.92"/>
<ellipse fill="none" stroke="black" cx="685.51" cy="-776.3" rx="3.2" ry="3.2"/>
</g>
<!-- sapling_2m -->
<g id="node7" class="node">
<title>sapling_2m</title>
<g id="a_node7"><a xlink:href="../../tables/sapling_2m.html" xlink:title="sapling_2m" target="_top">
<polygon fill="#ffffff" stroke="transparent" points="697,-498.46 697,-688.46 872,-688.46 872,-498.46 697,-498.46"/>
<polygon fill="#f5f5f5" stroke="transparent" points="697.5,-666.46 697.5,-688.46 872.5,-688.46 872.5,-666.46 697.5,-666.46"/>
<polygon fill="none" stroke="black" points="697.5,-666.46 697.5,-688.46 872.5,-688.46 872.5,-666.46 697.5,-666.46"/>
<text text-anchor="start" x="702.5" y="-675.66" font-family="Helvetica,sans-Serif" font-weight="bold" font-size="11.00">sapling_2m</text>
<text text-anchor="start" x="830.5" y="-674.66" font-family="Helvetica,sans-Serif" font-size="11.00">[table]</text>
<polygon fill="none" stroke="black" points="697.5,-644.46 697.5,-666.46 872.5,-666.46 872.5,-644.46 697.5,-644.46"/>
<image xlink:href="../../images/primaryKeys.png" width="11px" height="12px" preserveAspectRatio="xMinYMin meet" x="702.5" y="-661.46"/>
<text text-anchor="start" x="717.5" y="-652.66" font-family="Helvetica,sans-Serif" font-size="11.00">id</text>
<polygon fill="none" stroke="black" points="697.5,-622.46 697.5,-644.46 872.5,-644.46 872.5,-622.46 697.5,-622.46"/>
<image xlink:href="../../images/foreignKeys.png" width="11px" height="12px" preserveAspectRatio="xMinYMin meet" x="702.5" y="-639.46"/>
<text text-anchor="start" x="717.5" y="-630.66" font-family="Helvetica,sans-Serif" font-size="11.00">plot_id</text>
<polygon fill="none" stroke="black" points="697.5,-600.46 697.5,-622.46 872.5,-622.46 872.5,-600.46 697.5,-600.46"/>
<image xlink:href="../../images/foreignKeys.png" width="11px" height="12px" preserveAspectRatio="xMinYMin meet" x="702.5" y="-617.46"/>
<text text-anchor="start" x="717.5" y="-608.66" font-family="Helvetica,sans-Serif" font-size="11.00">plot_location_id</text>
<polygon fill="none" stroke="black" points="697.5,-578.46 697.5,-600.46 872.5,-600.46 872.5,-578.46 697.5,-578.46"/>
<image xlink:href="../../images/foreignKeys.png" width="11px" height="12px" preserveAspectRatio="xMinYMin meet" x="702.5" y="-595.46"/>
<text text-anchor="start" x="717.5" y="-586.66" font-family="Helvetica,sans-Serif" font-size="11.00">tree_species</text>
<polygon fill="none" stroke="black" points="697.5,-556.46 697.5,-578.46 872.5,-578.46 872.5,-556.46 697.5,-556.46"/>
<image xlink:href="../../images/foreignKeys.png" width="11px" height="12px" preserveAspectRatio="xMinYMin meet" x="702.5" y="-573.46"/>
<text text-anchor="start" x="717.5" y="-564.66" font-family="Helvetica,sans-Serif" font-size="11.00">bitten</text>
<polygon fill="none" stroke="black" points="697.5,-534.46 697.5,-556.46 872.5,-556.46 872.5,-534.46 697.5,-534.46"/>
<image xlink:href="../../images/foreignKeys.png" width="11px" height="12px" preserveAspectRatio="xMinYMin meet" x="702.5" y="-551.46"/>
<text text-anchor="start" x="717.5" y="-542.66" font-family="Helvetica,sans-Serif" font-size="11.00">tree_size_class</text>
<polygon fill="none" stroke="black" points="697.5,-516.46 697.5,-534.46 872.5,-534.46 872.5,-516.46 697.5,-516.46"/>
<text text-anchor="start" x="700.5" y="-522.66" font-family="Helvetica,sans-Serif" font-size="11.00">...</text>
<polygon fill="#ffffff" stroke="transparent" points="697.5,-498.46 697.5,-516.46 872.5,-516.46 872.5,-498.46 697.5,-498.46"/>
<polygon fill="none" stroke="black" points="697.5,-498.46 697.5,-516.46 872.5,-516.46 872.5,-498.46 697.5,-498.46"/>
<polygon fill="#ffffff" stroke="transparent" points="698.5,-499.46 698.5,-515.46 754.5,-515.46 754.5,-499.46 698.5,-499.46"/>
<text text-anchor="start" x="700.5" y="-504.66" font-family="Helvetica,sans-Serif" font-size="11.00">&lt; 5</text>
<polygon fill="#ffffff" stroke="transparent" points="754.5,-499.46 754.5,-515.46 827.5,-515.46 827.5,-499.46 754.5,-499.46"/>
<text text-anchor="start" x="772.5" y="-504.66" font-family="Helvetica,sans-Serif" font-size="11.00">0 rows</text>
<polygon fill="#ffffff" stroke="transparent" points="827.5,-499.46 827.5,-515.46 871.5,-515.46 871.5,-499.46 827.5,-499.46"/>
<text text-anchor="start" x="861.5" y="-504.66" font-family="Helvetica,sans-Serif" font-size="11.00"> &#160;</text>
<polygon fill="black" stroke="black" points="754.5,-499.46 754.5,-515.46 754.5,-515.46 754.5,-499.46 754.5,-499.46"/>
<polygon fill="black" stroke="black" points="827.5,-499.46 827.5,-515.46 827.5,-515.46 827.5,-499.46 827.5,-499.46"/>
</a>
</g>
</g>
<!-- sapling_2m&#45;&gt;plot -->
<g id="edge8" class="edge">
<title>sapling_2m:w&#45;&gt;plot:e</title>
<path fill="none" stroke="black" d="M682.38,-636.68C658.35,-651.17 690.75,-710.69 656,-735.46 600.66,-774.91 418.46,-749.46 350.5,-749.46"/>
<polygon fill="black" stroke="black" points="688.7,-635.24 697.3,-636.97 692.6,-634.35 696.5,-633.46 696.5,-633.46 696.5,-633.46 692.6,-634.35 695.7,-629.95 688.7,-635.24 688.7,-635.24"/>
<ellipse fill="none" stroke="black" cx="685.58" cy="-635.95" rx="3.2" ry="3.2"/>
</g>
<!-- sapling_2m&#45;&gt;plot_location -->
<g id="edge9" class="edge">
<title>sapling_2m:w&#45;&gt;plot_location:e</title>
<path fill="none" stroke="black" d="M682.04,-613.34C638.88,-626.75 692.45,-708.73 656,-759.46 636.94,-785.99 627.67,-800.46 595,-800.46"/>
<polygon fill="black" stroke="black" points="688.57,-612.49 696.97,-615.03 692.53,-611.98 696.5,-611.46 696.5,-611.46 696.5,-611.46 692.53,-611.98 696.03,-607.89 688.57,-612.49 688.57,-612.49"/>
<ellipse fill="none" stroke="black" cx="685.39" cy="-612.91" rx="3.2" ry="3.2"/>
</g>
<!-- sapling_2m&#45;&gt;lookup_bitten -->
<g id="edge7" class="edge">
<title>sapling_2m:w&#45;&gt;lookup_bitten:e</title>
<path fill="none" stroke="black" d="M682,-566.47C648.85,-561.72 637.97,-541.46 598,-541.46"/>
<polygon fill="black" stroke="black" points="688.52,-566.92 696.26,-571.05 692.51,-567.19 696.5,-567.46 696.5,-567.46 696.5,-567.46 692.51,-567.19 696.74,-563.87 688.52,-566.92 688.52,-566.92"/>
<ellipse fill="none" stroke="black" cx="685.33" cy="-566.7" rx="3.2" ry="3.2"/>
</g>
<!-- sapling_2m&#45;&gt;lookup_tree_species -->
<g id="edge11" class="edge">
<title>sapling_2m:w&#45;&gt;lookup_tree_species:e</title>
<path fill="none" stroke="black" d="M682.66,-593.75C669.98,-603.1 668.05,-624.46 647,-624.46"/>
<polygon fill="black" stroke="black" points="688.86,-591.83 697.57,-592.9 692.68,-590.65 696.5,-589.46 696.5,-589.46 696.5,-589.46 692.68,-590.65 695.43,-586.02 688.86,-591.83 688.86,-591.83"/>
<ellipse fill="none" stroke="black" cx="685.8" cy="-592.78" rx="3.2" ry="3.2"/>
</g>
<!-- lookup_tree_size_class -->
<g id="node8" class="node">
<title>lookup_tree_size_class</title>
<g id="a_node8"><a xlink:href="../../tables/lookup_tree_size_class.html" xlink:title="lookup_tree_size_class" target="_top">
<polygon fill="#ffffff" stroke="transparent" points="417.5,-435.46 417.5,-493.46 628.5,-493.46 628.5,-435.46 417.5,-435.46"/>
<polygon fill="#f5f5f5" stroke="transparent" points="418,-471.46 418,-493.46 629,-493.46 629,-471.46 418,-471.46"/>
<polygon fill="none" stroke="black" points="418,-471.46 418,-493.46 629,-493.46 629,-471.46 418,-471.46"/>
<text text-anchor="start" x="423" y="-480.66" font-family="Helvetica,sans-Serif" font-weight="bold" font-size="11.00">lookup_tree_size_class</text>
<text text-anchor="start" x="587" y="-479.66" font-family="Helvetica,sans-Serif" font-size="11.00">[table]</text>
<polygon fill="none" stroke="black" points="418,-453.46 418,-471.46 629,-471.46 629,-453.46 418,-453.46"/>
<text text-anchor="start" x="421" y="-459.66" font-family="Helvetica,sans-Serif" font-size="11.00">...</text>
<polygon fill="#ffffff" stroke="transparent" points="418,-435.46 418,-453.46 629,-453.46 629,-435.46 418,-435.46"/>
<polygon fill="none" stroke="black" points="418,-435.46 418,-453.46 629,-453.46 629,-435.46 418,-435.46"/>
<polygon fill="#ffffff" stroke="transparent" points="419,-436.46 419,-452.46 475,-452.46 475,-436.46 419,-436.46"/>
<text text-anchor="start" x="421" y="-441.66" font-family="Helvetica,sans-Serif" font-size="11.00"> &#160;</text>
<polygon fill="#ffffff" stroke="transparent" points="475,-436.46 475,-452.46 560,-452.46 560,-436.46 475,-436.46"/>
<text text-anchor="start" x="499" y="-441.66" font-family="Helvetica,sans-Serif" font-size="11.00">0 rows</text>
<polygon fill="#ffffff" stroke="transparent" points="560,-436.46 560,-452.46 628,-452.46 628,-436.46 560,-436.46"/>
<text text-anchor="start" x="606" y="-441.66" font-family="Helvetica,sans-Serif" font-size="11.00">1 &gt;</text>
<polygon fill="black" stroke="black" points="475,-436.46 475,-452.46 475,-452.46 475,-436.46 475,-436.46"/>
<polygon fill="black" stroke="black" points="560,-436.46 560,-452.46 560,-452.46 560,-436.46 560,-436.46"/>
</a>
</g>
</g>
<!-- sapling_2m&#45;&gt;lookup_tree_size_class -->
<g id="edge10" class="edge">
<title>sapling_2m:w&#45;&gt;lookup_tree_size_class:e</title>
<path fill="none" stroke="black" d="M682.37,-542.1C654.92,-526.58 671.54,-462.46 630,-462.46"/>
<polygon fill="black" stroke="black" points="688.72,-543.61 695.67,-548.96 692.61,-544.54 696.5,-545.46 696.5,-545.46 696.5,-545.46 692.61,-544.54 697.33,-541.96 688.72,-543.61 688.72,-543.61"/>
<ellipse fill="none" stroke="black" cx="685.6" cy="-542.87" rx="3.2" ry="3.2"/>
</g>
<!-- wzp_tree -->
<g id="node9" class="node">
<title>wzp_tree</title>
<g id="a_node9"><a xlink:href="../../tables/wzp_tree.html" xlink:title="wzp_tree" target="_top">
<polygon fill="#ffffff" stroke="transparent" points="698,-164.46 698,-398.46 871,-398.46 871,-164.46 698,-164.46"/>
<polygon fill="#f5f5f5" stroke="transparent" points="698.5,-376.46 698.5,-398.46 871.5,-398.46 871.5,-376.46 698.5,-376.46"/>
<polygon fill="none" stroke="black" points="698.5,-376.46 698.5,-398.46 871.5,-398.46 871.5,-376.46 698.5,-376.46"/>
<text text-anchor="start" x="703.5" y="-385.66" font-family="Helvetica,sans-Serif" font-weight="bold" font-size="11.00">wzp_tree</text>
<text text-anchor="start" x="829.5" y="-384.66" font-family="Helvetica,sans-Serif" font-size="11.00">[table]</text>
<polygon fill="none" stroke="black" points="698.5,-354.46 698.5,-376.46 871.5,-376.46 871.5,-354.46 698.5,-354.46"/>
<image xlink:href="../../images/primaryKeys.png" width="11px" height="12px" preserveAspectRatio="xMinYMin meet" x="703.5" y="-371.46"/>
<text text-anchor="start" x="718.5" y="-362.66" font-family="Helvetica,sans-Serif" font-size="11.00">id</text>
<polygon fill="none" stroke="black" points="698.5,-332.46 698.5,-354.46 871.5,-354.46 871.5,-332.46 698.5,-332.46"/>
<image xlink:href="../../images/foreignKeys.png" width="11px" height="12px" preserveAspectRatio="xMinYMin meet" x="703.5" y="-349.46"/>
<text text-anchor="start" x="718.5" y="-340.66" font-family="Helvetica,sans-Serif" font-size="11.00">plot_id</text>
<polygon fill="none" stroke="black" points="698.5,-310.46 698.5,-332.46 871.5,-332.46 871.5,-310.46 698.5,-310.46"/>
<image xlink:href="../../images/foreignKeys.png" width="11px" height="12px" preserveAspectRatio="xMinYMin meet" x="703.5" y="-327.46"/>
<text text-anchor="start" x="718.5" y="-318.66" font-family="Helvetica,sans-Serif" font-size="11.00">tree_state</text>
<polygon fill="none" stroke="black" points="698.5,-288.46 698.5,-310.46 871.5,-310.46 871.5,-288.46 698.5,-288.46"/>
<image xlink:href="../../images/foreignKeys.png" width="11px" height="12px" preserveAspectRatio="xMinYMin meet" x="703.5" y="-305.46"/>
<text text-anchor="start" x="718.5" y="-296.66" font-family="Helvetica,sans-Serif" font-size="11.00">tree_species</text>
<polygon fill="none" stroke="black" points="698.5,-266.46 698.5,-288.46 871.5,-288.46 871.5,-266.46 698.5,-266.46"/>
<image xlink:href="../../images/foreignKeys.png" width="11px" height="12px" preserveAspectRatio="xMinYMin meet" x="703.5" y="-283.46"/>
<text text-anchor="start" x="718.5" y="-274.66" font-family="Helvetica,sans-Serif" font-size="11.00">stem_breakage</text>
<polygon fill="none" stroke="black" points="698.5,-244.46 698.5,-266.46 871.5,-266.46 871.5,-244.46 698.5,-244.46"/>
<image xlink:href="../../images/foreignKeys.png" width="11px" height="12px" preserveAspectRatio="xMinYMin meet" x="703.5" y="-261.46"/>
<text text-anchor="start" x="718.5" y="-252.66" font-family="Helvetica,sans-Serif" font-size="11.00">stem_form</text>
<polygon fill="none" stroke="black" points="698.5,-222.46 698.5,-244.46 871.5,-244.46 871.5,-222.46 698.5,-222.46"/>
<image xlink:href="../../images/foreignKeys.png" width="11px" height="12px" preserveAspectRatio="xMinYMin meet" x="703.5" y="-239.46"/>
<text text-anchor="start" x="718.5" y="-230.66" font-family="Helvetica,sans-Serif" font-size="11.00">pruning</text>
<polygon fill="none" stroke="black" points="698.5,-200.46 698.5,-222.46 871.5,-222.46 871.5,-200.46 698.5,-200.46"/>
<image xlink:href="../../images/foreignKeys.png" width="11px" height="12px" preserveAspectRatio="xMinYMin meet" x="703.5" y="-217.46"/>
<text text-anchor="start" x="718.5" y="-208.66" font-family="Helvetica,sans-Serif" font-size="11.00">inventory_layer</text>
<polygon fill="none" stroke="black" points="698.5,-182.46 698.5,-200.46 871.5,-200.46 871.5,-182.46 698.5,-182.46"/>
<text text-anchor="start" x="701.5" y="-188.66" font-family="Helvetica,sans-Serif" font-size="11.00">...</text>
<polygon fill="#ffffff" stroke="transparent" points="698.5,-164.46 698.5,-182.46 871.5,-182.46 871.5,-164.46 698.5,-164.46"/>
<polygon fill="none" stroke="black" points="698.5,-164.46 698.5,-182.46 871.5,-182.46 871.5,-164.46 698.5,-164.46"/>
<polygon fill="#ffffff" stroke="transparent" points="699.5,-165.46 699.5,-181.46 750.5,-181.46 750.5,-165.46 699.5,-165.46"/>
<text text-anchor="start" x="701.5" y="-170.66" font-family="Helvetica,sans-Serif" font-size="11.00">&lt; 7</text>
<polygon fill="#ffffff" stroke="transparent" points="750.5,-165.46 750.5,-181.46 832.5,-181.46 832.5,-165.46 750.5,-165.46"/>
<text text-anchor="start" x="766" y="-170.66" font-family="Helvetica,sans-Serif" font-size="11.00">747 rows</text>
<polygon fill="#ffffff" stroke="transparent" points="832.5,-165.46 832.5,-181.46 870.5,-181.46 870.5,-165.46 832.5,-165.46"/>
<text text-anchor="start" x="860.5" y="-170.66" font-family="Helvetica,sans-Serif" font-size="11.00"> &#160;</text>
<polygon fill="black" stroke="black" points="750.5,-165.46 750.5,-181.46 750.5,-181.46 750.5,-165.46 750.5,-165.46"/>
<polygon fill="black" stroke="black" points="832.5,-165.46 832.5,-181.46 832.5,-181.46 832.5,-165.46 832.5,-165.46"/>
</a>
</g>
</g>
<!-- wzp_tree&#45;&gt;plot -->
<g id="edge13" class="edge">
<title>wzp_tree:w&#45;&gt;plot:e</title>
<path fill="none" stroke="black" d="M683.6,-348.1C671.79,-358.93 676.86,-385.84 656,-397.46 604.1,-426.38 432.43,-382.87 390,-424.46 338.05,-475.39 423.25,-749.46 350.5,-749.46"/>
<polygon fill="black" stroke="black" points="689.91,-345.99 698.64,-346.88 693.71,-344.73 697.5,-343.46 697.5,-343.46 697.5,-343.46 693.71,-344.73 696.36,-340.05 689.91,-345.99 689.91,-345.99"/>
<ellipse fill="none" stroke="black" cx="686.88" cy="-347.01" rx="3.2" ry="3.2"/>
</g>
<!-- wzp_tree&#45;&gt;lookup_stand_layer -->
<g id="edge12" class="edge">
<title>wzp_tree:w&#45;&gt;lookup_stand_layer:e</title>
<path fill="none" stroke="black" d="M683.19,-208.91C649.04,-193.61 700.19,-113.74 656,-81.46 560.54,-11.72 492.7,-22.9 390,-81.46 243.3,-165.11 365.37,-408.46 196.5,-408.46"/>
<polygon fill="black" stroke="black" points="689.62,-210.06 696.87,-215 693.56,-210.76 697.5,-211.46 697.5,-211.46 697.5,-211.46 693.56,-210.76 698.13,-207.92 689.62,-210.06 689.62,-210.06"/>
<ellipse fill="none" stroke="black" cx="686.47" cy="-209.49" rx="3.2" ry="3.2"/>
</g>
<!-- wzp_tree&#45;&gt;lookup_tree_species -->
<g id="edge17" class="edge">
<title>wzp_tree:w&#45;&gt;lookup_tree_species:e</title>
<path fill="none" stroke="black" d="M683.88,-304.57C637.68,-345.91 714.66,-624.46 647,-624.46"/>
<polygon fill="black" stroke="black" points="690.01,-302.27 698.76,-302.83 693.75,-300.86 697.5,-299.46 697.5,-299.46 697.5,-299.46 693.75,-300.86 696.24,-296.09 690.01,-302.27 690.01,-302.27"/>
<ellipse fill="none" stroke="black" cx="687.01" cy="-303.39" rx="3.2" ry="3.2"/>
</g>
<!-- lookup_pruning -->
<g id="node10" class="node">
<title>lookup_pruning</title>
<g id="a_node10"><a xlink:href="../../tables/lookup_pruning.html" xlink:title="lookup_pruning" target="_top">
<polygon fill="#ffffff" stroke="transparent" points="443,-92.46 443,-150.46 603,-150.46 603,-92.46 443,-92.46"/>
<polygon fill="#f5f5f5" stroke="transparent" points="443,-128.46 443,-150.46 603,-150.46 603,-128.46 443,-128.46"/>
<polygon fill="none" stroke="black" points="443,-128.46 443,-150.46 603,-150.46 603,-128.46 443,-128.46"/>
<text text-anchor="start" x="448" y="-137.66" font-family="Helvetica,sans-Serif" font-weight="bold" font-size="11.00">lookup_pruning</text>
<text text-anchor="start" x="561" y="-136.66" font-family="Helvetica,sans-Serif" font-size="11.00">[table]</text>
<polygon fill="none" stroke="black" points="443,-110.46 443,-128.46 603,-128.46 603,-110.46 443,-110.46"/>
<text text-anchor="start" x="446" y="-116.66" font-family="Helvetica,sans-Serif" font-size="11.00">...</text>
<polygon fill="#ffffff" stroke="transparent" points="443,-92.46 443,-110.46 603,-110.46 603,-92.46 443,-92.46"/>
<polygon fill="none" stroke="black" points="443,-92.46 443,-110.46 603,-110.46 603,-92.46 443,-92.46"/>
<polygon fill="#ffffff" stroke="transparent" points="444,-93.46 444,-109.46 483,-109.46 483,-93.46 444,-93.46"/>
<text text-anchor="start" x="446" y="-98.66" font-family="Helvetica,sans-Serif" font-size="11.00"> &#160;</text>
<polygon fill="#ffffff" stroke="transparent" points="483,-93.46 483,-109.46 551,-109.46 551,-93.46 483,-93.46"/>
<text text-anchor="start" x="498.5" y="-98.66" font-family="Helvetica,sans-Serif" font-size="11.00">0 rows</text>
<polygon fill="#ffffff" stroke="transparent" points="551,-93.46 551,-109.46 602,-109.46 602,-93.46 551,-93.46"/>
<text text-anchor="start" x="580" y="-98.66" font-family="Helvetica,sans-Serif" font-size="11.00">1 &gt;</text>
<polygon fill="black" stroke="black" points="483,-93.46 483,-109.46 483,-109.46 483,-93.46 483,-93.46"/>
<polygon fill="black" stroke="black" points="551,-93.46 551,-109.46 551,-109.46 551,-93.46 551,-93.46"/>
</a>
</g>
</g>
<!-- wzp_tree&#45;&gt;lookup_pruning -->
<g id="edge14" class="edge">
<title>wzp_tree:w&#45;&gt;lookup_pruning:e</title>
<path fill="none" stroke="black" d="M683.32,-230.12C665.59,-219.24 676.34,-184.12 656,-160.46 636.82,-138.14 633.43,-119.46 604,-119.46"/>
<polygon fill="black" stroke="black" points="689.71,-231.63 696.67,-236.96 693.61,-232.54 697.5,-233.46 697.5,-233.46 697.5,-233.46 693.61,-232.54 698.33,-229.96 689.71,-231.63 689.71,-231.63"/>
<ellipse fill="none" stroke="black" cx="686.6" cy="-230.89" rx="3.2" ry="3.2"/>
</g>
<!-- lookup_stem_breakage -->
<g id="node11" class="node">
<title>lookup_stem_breakage</title>
<g id="a_node11"><a xlink:href="../../tables/lookup_stem_breakage.html" xlink:title="lookup_stem_breakage" target="_top">
<polygon fill="#ffffff" stroke="transparent" points="416,-250.46 416,-308.46 630,-308.46 630,-250.46 416,-250.46"/>
<polygon fill="#f5f5f5" stroke="transparent" points="416,-286.46 416,-308.46 630,-308.46 630,-286.46 416,-286.46"/>
<polygon fill="none" stroke="black" points="416,-286.46 416,-308.46 630,-308.46 630,-286.46 416,-286.46"/>
<text text-anchor="start" x="421" y="-295.66" font-family="Helvetica,sans-Serif" font-weight="bold" font-size="11.00">lookup_stem_breakage</text>
<text text-anchor="start" x="588" y="-294.66" font-family="Helvetica,sans-Serif" font-size="11.00">[table]</text>
<polygon fill="none" stroke="black" points="416,-268.46 416,-286.46 630,-286.46 630,-268.46 416,-268.46"/>
<text text-anchor="start" x="419" y="-274.66" font-family="Helvetica,sans-Serif" font-size="11.00">...</text>
<polygon fill="#ffffff" stroke="transparent" points="416,-250.46 416,-268.46 630,-268.46 630,-250.46 416,-250.46"/>
<polygon fill="none" stroke="black" points="416,-250.46 416,-268.46 630,-268.46 630,-250.46 416,-250.46"/>
<polygon fill="#ffffff" stroke="transparent" points="417,-251.46 417,-267.46 474,-267.46 474,-251.46 417,-251.46"/>
<text text-anchor="start" x="419" y="-256.66" font-family="Helvetica,sans-Serif" font-size="11.00"> &#160;</text>
<polygon fill="#ffffff" stroke="transparent" points="474,-251.46 474,-267.46 560,-267.46 560,-251.46 474,-251.46"/>
<text text-anchor="start" x="498.5" y="-256.66" font-family="Helvetica,sans-Serif" font-size="11.00">0 rows</text>
<polygon fill="#ffffff" stroke="transparent" points="560,-251.46 560,-267.46 629,-267.46 629,-251.46 560,-251.46"/>
<text text-anchor="start" x="607" y="-256.66" font-family="Helvetica,sans-Serif" font-size="11.00">1 &gt;</text>
<polygon fill="black" stroke="black" points="474,-251.46 474,-267.46 474,-267.46 474,-251.46 474,-251.46"/>
<polygon fill="black" stroke="black" points="560,-251.46 560,-267.46 560,-267.46 560,-251.46 560,-251.46"/>
</a>
</g>
</g>
<!-- wzp_tree&#45;&gt;lookup_stem_breakage -->
<g id="edge15" class="edge">
<title>wzp_tree:w&#45;&gt;lookup_stem_breakage:e</title>
<path fill="none" stroke="black" d="M682.92,-277.46C664.39,-277.46 655.01,-277.46 631,-277.46"/>
<polygon fill="black" stroke="black" points="689.5,-277.46 697.5,-281.06 693.5,-277.46 697.5,-277.46 697.5,-277.46 697.5,-277.46 693.5,-277.46 697.5,-273.86 689.5,-277.46 689.5,-277.46"/>
<ellipse fill="none" stroke="black" cx="686.3" cy="-277.46" rx="3.2" ry="3.2"/>
</g>
<!-- lookup_stem_form -->
<g id="node12" class="node">
<title>lookup_stem_form</title>
<g id="a_node12"><a xlink:href="../../tables/lookup_stem_form.html" xlink:title="lookup_stem_form" target="_top">
<polygon fill="#ffffff" stroke="transparent" points="433,-171.46 433,-229.46 613,-229.46 613,-171.46 433,-171.46"/>
<polygon fill="#f5f5f5" stroke="transparent" points="433,-207.46 433,-229.46 613,-229.46 613,-207.46 433,-207.46"/>
<polygon fill="none" stroke="black" points="433,-207.46 433,-229.46 613,-229.46 613,-207.46 433,-207.46"/>
<text text-anchor="start" x="438" y="-216.66" font-family="Helvetica,sans-Serif" font-weight="bold" font-size="11.00">lookup_stem_form</text>
<text text-anchor="start" x="571" y="-215.66" font-family="Helvetica,sans-Serif" font-size="11.00">[table]</text>
<polygon fill="none" stroke="black" points="433,-189.46 433,-207.46 613,-207.46 613,-189.46 433,-189.46"/>
<text text-anchor="start" x="436" y="-195.66" font-family="Helvetica,sans-Serif" font-size="11.00">...</text>
<polygon fill="#ffffff" stroke="transparent" points="433,-171.46 433,-189.46 613,-189.46 613,-171.46 433,-171.46"/>
<polygon fill="none" stroke="black" points="433,-171.46 433,-189.46 613,-189.46 613,-171.46 433,-171.46"/>
<polygon fill="#ffffff" stroke="transparent" points="434,-172.46 434,-188.46 480,-188.46 480,-172.46 434,-172.46"/>
<text text-anchor="start" x="436" y="-177.66" font-family="Helvetica,sans-Serif" font-size="11.00"> &#160;</text>
<polygon fill="#ffffff" stroke="transparent" points="480,-172.46 480,-188.46 555,-188.46 555,-172.46 480,-172.46"/>
<text text-anchor="start" x="499" y="-177.66" font-family="Helvetica,sans-Serif" font-size="11.00">0 rows</text>
<polygon fill="#ffffff" stroke="transparent" points="555,-172.46 555,-188.46 612,-188.46 612,-172.46 555,-172.46"/>
<text text-anchor="start" x="590" y="-177.66" font-family="Helvetica,sans-Serif" font-size="11.00">1 &gt;</text>
<polygon fill="black" stroke="black" points="480,-172.46 480,-188.46 480,-188.46 480,-172.46 480,-172.46"/>
<polygon fill="black" stroke="black" points="555,-172.46 555,-188.46 555,-188.46 555,-172.46 555,-172.46"/>
</a>
</g>
</g>
<!-- wzp_tree&#45;&gt;lookup_stem_form -->
<g id="edge16" class="edge">
<title>wzp_tree:w&#45;&gt;lookup_stem_form:e</title>
<path fill="none" stroke="black" d="M683.25,-253.16C653.36,-242.49 653.49,-198.46 614,-198.46"/>
<polygon fill="black" stroke="black" points="689.6,-254.18 696.93,-259.01 693.55,-254.82 697.5,-255.46 697.5,-255.46 697.5,-255.46 693.55,-254.82 698.07,-251.91 689.6,-254.18 689.6,-254.18"/>
<ellipse fill="none" stroke="black" cx="686.44" cy="-253.67" rx="3.2" ry="3.2"/>
</g>
<!-- lookup_tree_state -->
<g id="node13" class="node">
<title>lookup_tree_state</title>
<g id="a_node13"><a xlink:href="../../tables/lookup_tree_state.html" xlink:title="lookup_tree_state" target="_top">
<polygon fill="#ffffff" stroke="transparent" points="434.5,-329.46 434.5,-387.46 611.5,-387.46 611.5,-329.46 434.5,-329.46"/>
<polygon fill="#f5f5f5" stroke="transparent" points="435,-365.46 435,-387.46 612,-387.46 612,-365.46 435,-365.46"/>
<polygon fill="none" stroke="black" points="435,-365.46 435,-387.46 612,-387.46 612,-365.46 435,-365.46"/>
<text text-anchor="start" x="440" y="-374.66" font-family="Helvetica,sans-Serif" font-weight="bold" font-size="11.00">lookup_tree_state</text>
<text text-anchor="start" x="570" y="-373.66" font-family="Helvetica,sans-Serif" font-size="11.00">[table]</text>
<polygon fill="none" stroke="black" points="435,-347.46 435,-365.46 612,-365.46 612,-347.46 435,-347.46"/>
<text text-anchor="start" x="438" y="-353.66" font-family="Helvetica,sans-Serif" font-size="11.00">...</text>
<polygon fill="#ffffff" stroke="transparent" points="435,-329.46 435,-347.46 612,-347.46 612,-329.46 435,-329.46"/>
<polygon fill="none" stroke="black" points="435,-329.46 435,-347.46 612,-347.46 612,-329.46 435,-329.46"/>
<polygon fill="#ffffff" stroke="transparent" points="436,-330.46 436,-346.46 481,-346.46 481,-330.46 436,-330.46"/>
<text text-anchor="start" x="438" y="-335.66" font-family="Helvetica,sans-Serif" font-size="11.00"> &#160;</text>
<polygon fill="#ffffff" stroke="transparent" points="481,-330.46 481,-346.46 555,-346.46 555,-330.46 481,-330.46"/>
<text text-anchor="start" x="499.5" y="-335.66" font-family="Helvetica,sans-Serif" font-size="11.00">0 rows</text>
<polygon fill="#ffffff" stroke="transparent" points="555,-330.46 555,-346.46 611,-346.46 611,-330.46 555,-330.46"/>
<text text-anchor="start" x="589" y="-335.66" font-family="Helvetica,sans-Serif" font-size="11.00">1 &gt;</text>
<polygon fill="black" stroke="black" points="481,-330.46 481,-346.46 481,-346.46 481,-330.46 481,-330.46"/>
<polygon fill="black" stroke="black" points="555,-330.46 555,-346.46 555,-346.46 555,-330.46 555,-330.46"/>
</a>
</g>
</g>
<!-- wzp_tree&#45;&gt;lookup_tree_state -->
<g id="edge18" class="edge">
<title>wzp_tree:w&#45;&gt;lookup_tree_state:e</title>
<path fill="none" stroke="black" d="M683.11,-323.15C655.34,-330.14 648.25,-356.46 613,-356.46"/>
<polygon fill="black" stroke="black" points="689.55,-322.39 697.92,-325.04 693.53,-321.93 697.5,-321.46 697.5,-321.46 697.5,-321.46 693.53,-321.93 697.08,-317.88 689.55,-322.39 689.55,-322.39"/>
<ellipse fill="none" stroke="black" cx="686.38" cy="-322.77" rx="3.2" ry="3.2"/>
</g>
</g>
</svg>
