<?xml version="1.0" encoding="UTF-8" standalone="no"?>
<!DOCTYPE svg PUBLIC "-//W3C//DTD SVG 1.1//EN"
 "http://www.w3.org/Graphics/SVG/1.1/DTD/svg11.dtd">
<!-- Generated by graphviz version 2.43.0 (0)
 -->
<!-- Title: oneDegreeRelationshipsDiagram Pages: 1 -->
<svg width="878pt" height="503pt"
 viewBox="0.00 0.00 878.00 503.00" xmlns="http://www.w3.org/2000/svg" xmlns:xlink="http://www.w3.org/1999/xlink">
<g id="graph0" class="graph" transform="scale(1 1) rotate(0) translate(4 499)">
<title>oneDegreeRelationshipsDiagram</title>
<polygon fill="#ffffff" stroke="transparent" points="-4,4 -4,-499 874,-499 874,4 -4,4"/>
<text text-anchor="middle" x="79.5" y="-7.2" font-family="Helvetica,sans-Serif" font-size="11.00">Generated by SchemaSpy</text>
<!-- plot -->
<g id="node1" class="node">
<title>plot</title>
<g id="a_node1"><a xlink:href="../../tables/plot.html" xlink:title="plot" target="_top">
<polygon fill="#ffffff" stroke="transparent" points="574,-37 574,-491 862,-491 862,-37 574,-37"/>
<polygon fill="#f5f5f5" stroke="transparent" points="574,-469 574,-491 862,-491 862,-469 574,-469"/>
<polygon fill="none" stroke="black" points="574,-469 574,-491 862,-491 862,-469 574,-469"/>
<text text-anchor="start" x="578.5" y="-478.2" font-family="Helvetica,sans-Serif" font-weight="bold" font-size="11.00">plot</text>
<text text-anchor="start" x="820" y="-477.2" font-family="Helvetica,sans-Serif" font-size="11.00">[table]</text>
<polygon fill="none" stroke="black" points="574,-447 574,-469 862,-469 862,-447 574,-447"/>
<image xlink:href="../../images/primaryKeys.png" width="11px" height="12px" preserveAspectRatio="xMinYMin meet" x="579" y="-464"/>
<text text-anchor="start" x="594" y="-455.2" font-family="Helvetica,sans-Serif" font-size="11.00">id</text>
<polygon fill="#ffffff" stroke="transparent" points="574,-425 574,-447 862,-447 862,-425 574,-425"/>
<polygon fill="none" stroke="black" points="574,-425 574,-447 862,-447 862,-425 574,-425"/>
<image xlink:href="../../images/foreignKeys.png" width="11px" height="12px" preserveAspectRatio="xMinYMin meet" x="579" y="-442"/>
<text text-anchor="start" x="594" y="-433.2" font-family="Helvetica,sans-Serif" font-size="11.00">cluster_id</text>
<polygon fill="#ffffff" stroke="transparent" points="574,-403 574,-425 862,-425 862,-403 574,-403"/>
<polygon fill="none" stroke="black" points="574,-403 574,-425 862,-425 862,-403 574,-403"/>
<text text-anchor="start" x="594" y="-411.2" font-family="Helvetica,sans-Serif" font-size="11.00">plot_name</text>
<polygon fill="none" stroke="black" points="574,-381 574,-403 862,-403 862,-381 574,-381"/>
<image xlink:href="../../images/foreignKeys.png" width="11px" height="12px" preserveAspectRatio="xMinYMin meet" x="579" y="-398"/>
<text text-anchor="start" x="594" y="-389.2" font-family="Helvetica,sans-Serif" font-size="11.00">growth_district</text>
<polygon fill="none" stroke="black" points="574,-359 574,-381 862,-381 862,-359 574,-359"/>
<image xlink:href="../../images/foreignKeys.png" width="11px" height="12px" preserveAspectRatio="xMinYMin meet" x="579" y="-376"/>
<text text-anchor="start" x="594" y="-367.2" font-family="Helvetica,sans-Serif" font-size="11.00">forest_status</text>
<polygon fill="none" stroke="black" points="574,-337 574,-359 862,-359 862,-337 574,-337"/>
<image xlink:href="../../images/foreignKeys.png" width="11px" height="12px" preserveAspectRatio="xMinYMin meet" x="579" y="-354"/>
<text text-anchor="start" x="594" y="-345.2" font-family="Helvetica,sans-Serif" font-size="11.00">elevation_level</text>
<polygon fill="none" stroke="black" points="574,-315 574,-337 862,-337 862,-315 574,-315"/>
<image xlink:href="../../images/foreignKeys.png" width="11px" height="12px" preserveAspectRatio="xMinYMin meet" x="579" y="-332"/>
<text text-anchor="start" x="594" y="-323.2" font-family="Helvetica,sans-Serif" font-size="11.00">property_type</text>
<polygon fill="none" stroke="black" points="574,-293 574,-315 862,-315 862,-293 574,-293"/>
<image xlink:href="../../images/foreignKeys.png" width="11px" height="12px" preserveAspectRatio="xMinYMin meet" x="579" y="-310"/>
<text text-anchor="start" x="594" y="-301.2" font-family="Helvetica,sans-Serif" font-size="11.00">property_size_class</text>
<polygon fill="none" stroke="black" points="574,-271 574,-293 862,-293 862,-271 574,-271"/>
<image xlink:href="../../images/foreignKeys.png" width="11px" height="12px" preserveAspectRatio="xMinYMin meet" x="579" y="-288"/>
<text text-anchor="start" x="594" y="-279.2" font-family="Helvetica,sans-Serif" font-size="11.00">land_use_after</text>
<polygon fill="none" stroke="black" points="574,-249 574,-271 862,-271 862,-249 574,-249"/>
<image xlink:href="../../images/foreignKeys.png" width="11px" height="12px" preserveAspectRatio="xMinYMin meet" x="579" y="-266"/>
<text text-anchor="start" x="594" y="-257.2" font-family="Helvetica,sans-Serif" font-size="11.00">marker_status</text>
<polygon fill="none" stroke="black" points="574,-227 574,-249 862,-249 862,-227 574,-227"/>
<image xlink:href="../../images/foreignKeys.png" width="11px" height="12px" preserveAspectRatio="xMinYMin meet" x="579" y="-244"/>
<text text-anchor="start" x="594" y="-235.2" font-family="Helvetica,sans-Serif" font-size="11.00">marker_profile</text>
<polygon fill="none" stroke="black" points="574,-205 574,-227 862,-227 862,-205 574,-205"/>
<image xlink:href="../../images/foreignKeys.png" width="11px" height="12px" preserveAspectRatio="xMinYMin meet" x="579" y="-222"/>
<text text-anchor="start" x="594" y="-213.2" font-family="Helvetica,sans-Serif" font-size="11.00">terrain_form</text>
<polygon fill="none" stroke="black" points="574,-183 574,-205 862,-205 862,-183 574,-183"/>
<image xlink:href="../../images/foreignKeys.png" width="11px" height="12px" preserveAspectRatio="xMinYMin meet" x="579" y="-200"/>
<text text-anchor="start" x="594" y="-191.2" font-family="Helvetica,sans-Serif" font-size="11.00">management_type</text>
<polygon fill="none" stroke="black" points="574,-161 574,-183 862,-183 862,-161 574,-161"/>
<image xlink:href="../../images/foreignKeys.png" width="11px" height="12px" preserveAspectRatio="xMinYMin meet" x="579" y="-178"/>
<text text-anchor="start" x="594" y="-169.2" font-family="Helvetica,sans-Serif" font-size="11.00">harvesting_method</text>
<polygon fill="none" stroke="black" points="574,-139 574,-161 862,-161 862,-139 574,-139"/>
<image xlink:href="../../images/foreignKeys.png" width="11px" height="12px" preserveAspectRatio="xMinYMin meet" x="579" y="-156"/>
<text text-anchor="start" x="594" y="-147.2" font-family="Helvetica,sans-Serif" font-size="11.00">stand_structure</text>
<polygon fill="none" stroke="black" points="574,-117 574,-139 862,-139 862,-117 574,-117"/>
<image xlink:href="../../images/foreignKeys.png" width="11px" height="12px" preserveAspectRatio="xMinYMin meet" x="579" y="-134"/>
<text text-anchor="start" x="594" y="-125.2" font-family="Helvetica,sans-Serif" font-size="11.00">stand_dev_phase</text>
<polygon fill="none" stroke="black" points="574,-95 574,-117 862,-117 862,-95 574,-95"/>
<image xlink:href="../../images/foreignKeys.png" width="11px" height="12px" preserveAspectRatio="xMinYMin meet" x="579" y="-112"/>
<text text-anchor="start" x="594" y="-103.2" font-family="Helvetica,sans-Serif" font-size="11.00">stand_layer_reg</text>
<polygon fill="none" stroke="black" points="574,-73 574,-95 862,-95 862,-73 574,-73"/>
<image xlink:href="../../images/foreignKeys.png" width="11px" height="12px" preserveAspectRatio="xMinYMin meet" x="579" y="-90"/>
<text text-anchor="start" x="594" y="-81.2" font-family="Helvetica,sans-Serif" font-size="11.00">trees_less_4meter_mirrored</text>
<polygon fill="none" stroke="black" points="574,-55 574,-73 862,-73 862,-55 574,-55"/>
<text text-anchor="start" x="577" y="-61.2" font-family="Helvetica,sans-Serif" font-size="11.00">...</text>
<polygon fill="#ffffff" stroke="transparent" points="574,-37 574,-55 862,-55 862,-37 574,-37"/>
<polygon fill="none" stroke="black" points="574,-37 574,-55 862,-55 862,-37 574,-37"/>
<polygon fill="#ffffff" stroke="transparent" points="575,-38 575,-54 670,-54 670,-38 575,-38"/>
<text text-anchor="start" x="577" y="-43.2" font-family="Helvetica,sans-Serif" font-size="11.00">&lt; 16</text>
<polygon fill="#ffffff" stroke="transparent" points="670,-38 670,-54 774,-54 774,-38 670,-38"/>
<text text-anchor="start" x="703.5" y="-43.2" font-family="Helvetica,sans-Serif" font-size="11.00">0 rows</text>
<polygon fill="#ffffff" stroke="transparent" points="774,-38 774,-54 861,-54 861,-38 774,-38"/>
<text text-anchor="start" x="839" y="-43.2" font-family="Helvetica,sans-Serif" font-size="11.00">7 &gt;</text>
<polygon fill="black" stroke="black" points="670,-38 670,-54 670,-54 670,-38 670,-38"/>
<polygon fill="black" stroke="black" points="774,-38 774,-54 774,-54 774,-38 774,-38"/>
</a>
</g>
</g>
<!-- lookup_property_type -->
<g id="node2" class="node">
<title>lookup_property_type</title>
<g id="a_node2"><a xlink:href="../../tables/lookup_property_type.html" xlink:title="lookup_property_type" target="_top">
<polygon fill="#ffffff" stroke="transparent" points="8,-295 8,-449 525,-449 525,-295 8,-295"/>
<polygon fill="#f5f5f5" stroke="transparent" points="10.5,-425 10.5,-447 523.5,-447 523.5,-425 10.5,-425"/>
<polygon fill="none" stroke="black" points="10.5,-425 10.5,-447 523.5,-447 523.5,-425 10.5,-425"/>
<text text-anchor="start" x="15.5" y="-434.2" font-family="Helvetica,sans-Serif" font-weight="bold" font-size="11.00">lookup_property_type</text>
<text text-anchor="start" x="481.5" y="-433.2" font-family="Helvetica,sans-Serif" font-size="11.00">[table]</text>
<polygon fill="none" stroke="black" points="10.5,-403 10.5,-425 190.5,-425 190.5,-403 10.5,-403"/>
<text text-anchor="start" x="30.5" y="-411.2" font-family="Helvetica,sans-Serif" font-size="11.00">name_de</text>
<polygon fill="none" stroke="black" points="190.5,-403 190.5,-425 523.5,-425 523.5,-403 190.5,-403"/>
<text text-anchor="start" x="193.5" y="-411.2" font-family="Helvetica,sans-Serif" font-size="11.00">varchar[150]</text>
<polygon fill="none" stroke="black" points="10.5,-381 10.5,-403 190.5,-403 190.5,-381 10.5,-381"/>
<text text-anchor="start" x="30.5" y="-389.2" font-family="Helvetica,sans-Serif" font-size="11.00">name_en</text>
<polygon fill="none" stroke="black" points="190.5,-381 190.5,-403 523.5,-403 523.5,-381 190.5,-381"/>
<text text-anchor="start" x="193.5" y="-389.2" font-family="Helvetica,sans-Serif" font-size="11.00">varchar[150]</text>
<polygon fill="none" stroke="black" points="10.5,-359 10.5,-381 190.5,-381 190.5,-359 10.5,-359"/>
<text text-anchor="start" x="30.5" y="-367.2" font-family="Helvetica,sans-Serif" font-size="11.00">interval</text>
<polygon fill="none" stroke="black" points="190.5,-359 190.5,-381 523.5,-381 523.5,-359 190.5,-359"/>
<text text-anchor="start" x="193.5" y="-367.2" font-family="Helvetica,sans-Serif" font-size="11.00">&quot;private_ci2027_001&quot;.&quot;_enum_interval_name&quot;[2147483647]</text>
<polygon fill="none" stroke="black" points="10.5,-337 10.5,-359 190.5,-359 190.5,-337 10.5,-337"/>
<text text-anchor="start" x="30.5" y="-345.2" font-family="Helvetica,sans-Serif" font-size="11.00">sort</text>
<polygon fill="none" stroke="black" points="190.5,-337 190.5,-359 523.5,-359 523.5,-337 190.5,-337"/>
<text text-anchor="start" x="193.5" y="-345.2" font-family="Helvetica,sans-Serif" font-size="11.00">int4[10]</text>
<polygon fill="#ffffff" stroke="transparent" points="10.5,-315 10.5,-337 190.5,-337 190.5,-315 10.5,-315"/>
<polygon fill="none" stroke="black" points="10.5,-315 10.5,-337 190.5,-337 190.5,-315 10.5,-315"/>
<text text-anchor="start" x="30.5" y="-323.2" font-family="Helvetica,sans-Serif" font-size="11.00">abbreviation</text>
<polygon fill="none" stroke="black" points="190.5,-315 190.5,-337 523.5,-337 523.5,-315 190.5,-315"/>
<text text-anchor="start" x="193.5" y="-323.2" font-family="Helvetica,sans-Serif" font-size="11.00">&quot;private_ci2027_001&quot;.&quot;enum_property_type&quot;[2147483647]</text>
<polygon fill="#ffffff" stroke="transparent" points="10.5,-297 10.5,-315 523.5,-315 523.5,-297 10.5,-297"/>
<polygon fill="none" stroke="black" points="10.5,-297 10.5,-315 523.5,-315 523.5,-297 10.5,-297"/>
<polygon fill="#ffffff" stroke="transparent" points="11.5,-298 11.5,-314 176.5,-314 176.5,-298 11.5,-298"/>
<text text-anchor="start" x="13.5" y="-303.2" font-family="Helvetica,sans-Serif" font-size="11.00">&lt; 0</text>
<polygon fill="#ffffff" stroke="transparent" points="176.5,-298 176.5,-314 358.5,-314 358.5,-298 176.5,-298"/>
<text text-anchor="start" x="249" y="-303.2" font-family="Helvetica,sans-Serif" font-size="11.00">0 rows</text>
<polygon fill="#ffffff" stroke="transparent" points="358.5,-298 358.5,-314 522.5,-314 522.5,-298 358.5,-298"/>
<text text-anchor="start" x="500.5" y="-303.2" font-family="Helvetica,sans-Serif" font-size="11.00">1 &gt;</text>
<polygon fill="black" stroke="black" points="176.5,-298 176.5,-314 176.5,-314 176.5,-298 176.5,-298"/>
<polygon fill="black" stroke="black" points="358.5,-298 358.5,-314 358.5,-314 358.5,-298 358.5,-298"/>
<polygon fill="none" stroke="black" stroke-width="2" points="9,-296 9,-448 524,-448 524,-296 9,-296"/>
</a>
</g>
</g>
<!-- plot&#45;&gt;lookup_property_type -->
<g id="edge1" class="edge">
<title>plot:w&#45;&gt;lookup_property_type:e</title>
<path fill="none" stroke="black" d="M558.28,-326C547.29,-326 540.16,-326 524.5,-326"/>
<polygon fill="black" stroke="black" points="565,-326 573,-329.6 569,-326 573,-326 573,-326 573,-326 569,-326 573,-322.4 565,-326 565,-326"/>
<ellipse fill="none" stroke="black" cx="561.8" cy="-326" rx="3.2" ry="3.2"/>
</g>
</g>
</svg>
