<?xml version="1.0" encoding="UTF-8" standalone="no"?>
<!DOCTYPE svg PUBLIC "-//W3C//DTD SVG 1.1//EN"
 "http://www.w3.org/Graphics/SVG/1.1/DTD/svg11.dtd">
<!-- Generated by graphviz version 2.43.0 (0)
 -->
<!-- Title: twoDegreesRelationshipsDiagram Pages: 1 -->
<svg width="953pt" height="631pt"
 viewBox="0.00 0.00 953.00 631.26" xmlns="http://www.w3.org/2000/svg" xmlns:xlink="http://www.w3.org/1999/xlink">
<g id="graph0" class="graph" transform="scale(1 1) rotate(0) translate(4 627.26)">
<title>twoDegreesRelationshipsDiagram</title>
<polygon fill="#ffffff" stroke="transparent" points="-4,4 -4,-627.26 949,-627.26 949,4 -4,4"/>
<text text-anchor="middle" x="79.5" y="-7.2" font-family="Helvetica,sans-Serif" font-size="11.00">Generated by SchemaSpy</text>
<!-- plot -->
<g id="node1" class="node">
<title>plot</title>
<g id="a_node1"><a xlink:href="../../tables/plot.html" xlink:title="plot" target="_top">
<polygon fill="#ffffff" stroke="transparent" points="430.5,-561.26 430.5,-619.26 528.5,-619.26 528.5,-561.26 430.5,-561.26"/>
<polygon fill="#f5f5f5" stroke="transparent" points="430.5,-597.26 430.5,-619.26 528.5,-619.26 528.5,-597.26 430.5,-597.26"/>
<polygon fill="none" stroke="black" points="430.5,-597.26 430.5,-619.26 528.5,-619.26 528.5,-597.26 430.5,-597.26"/>
<text text-anchor="start" x="435" y="-606.46" font-family="Helvetica,sans-Serif" font-weight="bold" font-size="11.00">plot</text>
<text text-anchor="start" x="486.5" y="-605.46" font-family="Helvetica,sans-Serif" font-size="11.00">[table]</text>
<polygon fill="none" stroke="black" points="430.5,-579.26 430.5,-597.26 528.5,-597.26 528.5,-579.26 430.5,-579.26"/>
<text text-anchor="start" x="433.5" y="-585.46" font-family="Helvetica,sans-Serif" font-size="11.00">...</text>
<polygon fill="#ffffff" stroke="transparent" points="430.5,-561.26 430.5,-579.26 528.5,-579.26 528.5,-561.26 430.5,-561.26"/>
<polygon fill="none" stroke="black" points="430.5,-561.26 430.5,-579.26 528.5,-579.26 528.5,-561.26 430.5,-561.26"/>
<polygon fill="#ffffff" stroke="transparent" points="431.5,-562.26 431.5,-578.26 462.5,-578.26 462.5,-562.26 431.5,-562.26"/>
<text text-anchor="start" x="433.5" y="-567.46" font-family="Helvetica,sans-Serif" font-size="11.00">&lt; 16</text>
<polygon fill="#ffffff" stroke="transparent" points="462.5,-562.26 462.5,-578.26 503.5,-578.26 503.5,-562.26 462.5,-562.26"/>
<text text-anchor="start" x="464.5" y="-567.46" font-family="Helvetica,sans-Serif" font-size="11.00">0 rows</text>
<polygon fill="#ffffff" stroke="transparent" points="503.5,-562.26 503.5,-578.26 527.5,-578.26 527.5,-562.26 503.5,-562.26"/>
<text text-anchor="start" x="505.5" y="-567.46" font-family="Helvetica,sans-Serif" font-size="11.00">7 &gt;</text>
<polygon fill="black" stroke="black" points="462.5,-562.26 462.5,-578.26 462.5,-578.26 462.5,-562.26 462.5,-562.26"/>
<polygon fill="black" stroke="black" points="503.5,-562.26 503.5,-578.26 503.5,-578.26 503.5,-562.26 503.5,-562.26"/>
</a>
</g>
</g>
<!-- lookup_stand_layer -->
<g id="node2" class="node">
<title>lookup_stand_layer</title>
<g id="a_node2"><a xlink:href="../../tables/lookup_stand_layer.html" xlink:title="lookup_stand_layer" target="_top">
<polygon fill="#ffffff" stroke="transparent" points="8,-290.26 8,-348.26 195,-348.26 195,-290.26 8,-290.26"/>
<polygon fill="#f5f5f5" stroke="transparent" points="8.5,-326.26 8.5,-348.26 195.5,-348.26 195.5,-326.26 8.5,-326.26"/>
<polygon fill="none" stroke="black" points="8.5,-326.26 8.5,-348.26 195.5,-348.26 195.5,-326.26 8.5,-326.26"/>
<text text-anchor="start" x="13.5" y="-335.46" font-family="Helvetica,sans-Serif" font-weight="bold" font-size="11.00">lookup_stand_layer</text>
<text text-anchor="start" x="153.5" y="-334.46" font-family="Helvetica,sans-Serif" font-size="11.00">[table]</text>
<polygon fill="none" stroke="black" points="8.5,-308.26 8.5,-326.26 195.5,-326.26 195.5,-308.26 8.5,-308.26"/>
<text text-anchor="start" x="11.5" y="-314.46" font-family="Helvetica,sans-Serif" font-size="11.00">...</text>
<polygon fill="#ffffff" stroke="transparent" points="8.5,-290.26 8.5,-308.26 195.5,-308.26 195.5,-290.26 8.5,-290.26"/>
<polygon fill="none" stroke="black" points="8.5,-290.26 8.5,-308.26 195.5,-308.26 195.5,-290.26 8.5,-290.26"/>
<polygon fill="#ffffff" stroke="transparent" points="9.5,-291.26 9.5,-307.26 57.5,-307.26 57.5,-291.26 9.5,-291.26"/>
<text text-anchor="start" x="11.5" y="-296.46" font-family="Helvetica,sans-Serif" font-size="11.00"> &#160;</text>
<polygon fill="#ffffff" stroke="transparent" points="57.5,-291.26 57.5,-307.26 134.5,-307.26 134.5,-291.26 57.5,-291.26"/>
<text text-anchor="start" x="77.5" y="-296.46" font-family="Helvetica,sans-Serif" font-size="11.00">0 rows</text>
<polygon fill="#ffffff" stroke="transparent" points="134.5,-291.26 134.5,-307.26 194.5,-307.26 194.5,-291.26 134.5,-291.26"/>
<text text-anchor="start" x="172.5" y="-296.46" font-family="Helvetica,sans-Serif" font-size="11.00">2 &gt;</text>
<polygon fill="black" stroke="black" points="57.5,-291.26 57.5,-307.26 57.5,-307.26 57.5,-291.26 57.5,-291.26"/>
<polygon fill="black" stroke="black" points="134.5,-291.26 134.5,-307.26 134.5,-307.26 134.5,-291.26 134.5,-291.26"/>
</a>
</g>
</g>
<!-- plot&#45;&gt;lookup_stand_layer -->
<g id="edge1" class="edge">
<title>plot:w&#45;&gt;lookup_stand_layer:e</title>
<path fill="none" stroke="black" d="M415.02,-588.48C336.82,-590.87 293.77,-610.29 236,-551.26 199.12,-513.56 249.24,-317.26 196.5,-317.26"/>
<polygon fill="black" stroke="black" points="421.5,-588.38 429.56,-591.86 425.5,-588.32 429.5,-588.26 429.5,-588.26 429.5,-588.26 425.5,-588.32 429.44,-584.66 421.5,-588.38 421.5,-588.38"/>
<ellipse fill="none" stroke="black" cx="418.3" cy="-588.43" rx="3.2" ry="3.2"/>
</g>
<!-- wzp_tree -->
<g id="node3" class="node">
<title>wzp_tree</title>
<g id="a_node3"><a xlink:href="../../tables/wzp_tree.html" xlink:title="wzp_tree" target="_top">
<polygon fill="#ffffff" stroke="transparent" points="764,-238.26 764,-472.26 937,-472.26 937,-238.26 764,-238.26"/>
<polygon fill="#f5f5f5" stroke="transparent" points="764.5,-450.26 764.5,-472.26 937.5,-472.26 937.5,-450.26 764.5,-450.26"/>
<polygon fill="none" stroke="black" points="764.5,-450.26 764.5,-472.26 937.5,-472.26 937.5,-450.26 764.5,-450.26"/>
<text text-anchor="start" x="769.5" y="-459.46" font-family="Helvetica,sans-Serif" font-weight="bold" font-size="11.00">wzp_tree</text>
<text text-anchor="start" x="895.5" y="-458.46" font-family="Helvetica,sans-Serif" font-size="11.00">[table]</text>
<polygon fill="none" stroke="black" points="764.5,-428.26 764.5,-450.26 937.5,-450.26 937.5,-428.26 764.5,-428.26"/>
<image xlink:href="../../images/primaryKeys.png" width="11px" height="12px" preserveAspectRatio="xMinYMin meet" x="769.5" y="-445.256"/>
<text text-anchor="start" x="784.5" y="-436.46" font-family="Helvetica,sans-Serif" font-size="11.00">id</text>
<polygon fill="none" stroke="black" points="764.5,-406.26 764.5,-428.26 937.5,-428.26 937.5,-406.26 764.5,-406.26"/>
<image xlink:href="../../images/foreignKeys.png" width="11px" height="12px" preserveAspectRatio="xMinYMin meet" x="769.5" y="-423.256"/>
<text text-anchor="start" x="784.5" y="-414.46" font-family="Helvetica,sans-Serif" font-size="11.00">plot_id</text>
<polygon fill="none" stroke="black" points="764.5,-384.26 764.5,-406.26 937.5,-406.26 937.5,-384.26 764.5,-384.26"/>
<image xlink:href="../../images/foreignKeys.png" width="11px" height="12px" preserveAspectRatio="xMinYMin meet" x="769.5" y="-401.256"/>
<text text-anchor="start" x="784.5" y="-392.46" font-family="Helvetica,sans-Serif" font-size="11.00">tree_status</text>
<polygon fill="none" stroke="black" points="764.5,-362.26 764.5,-384.26 937.5,-384.26 937.5,-362.26 764.5,-362.26"/>
<image xlink:href="../../images/foreignKeys.png" width="11px" height="12px" preserveAspectRatio="xMinYMin meet" x="769.5" y="-379.256"/>
<text text-anchor="start" x="784.5" y="-370.46" font-family="Helvetica,sans-Serif" font-size="11.00">tree_species</text>
<polygon fill="none" stroke="black" points="764.5,-340.26 764.5,-362.26 937.5,-362.26 937.5,-340.26 764.5,-340.26"/>
<image xlink:href="../../images/foreignKeys.png" width="11px" height="12px" preserveAspectRatio="xMinYMin meet" x="769.5" y="-357.256"/>
<text text-anchor="start" x="784.5" y="-348.46" font-family="Helvetica,sans-Serif" font-size="11.00">stem_breakage</text>
<polygon fill="none" stroke="black" points="764.5,-318.26 764.5,-340.26 937.5,-340.26 937.5,-318.26 764.5,-318.26"/>
<image xlink:href="../../images/foreignKeys.png" width="11px" height="12px" preserveAspectRatio="xMinYMin meet" x="769.5" y="-335.256"/>
<text text-anchor="start" x="784.5" y="-326.46" font-family="Helvetica,sans-Serif" font-size="11.00">stem_form</text>
<polygon fill="none" stroke="black" points="764.5,-296.26 764.5,-318.26 937.5,-318.26 937.5,-296.26 764.5,-296.26"/>
<image xlink:href="../../images/foreignKeys.png" width="11px" height="12px" preserveAspectRatio="xMinYMin meet" x="769.5" y="-313.256"/>
<text text-anchor="start" x="784.5" y="-304.46" font-family="Helvetica,sans-Serif" font-size="11.00">pruning</text>
<polygon fill="none" stroke="black" points="764.5,-274.26 764.5,-296.26 937.5,-296.26 937.5,-274.26 764.5,-274.26"/>
<image xlink:href="../../images/foreignKeys.png" width="11px" height="12px" preserveAspectRatio="xMinYMin meet" x="769.5" y="-291.256"/>
<text text-anchor="start" x="784.5" y="-282.46" font-family="Helvetica,sans-Serif" font-size="11.00">stand_layer</text>
<polygon fill="none" stroke="black" points="764.5,-256.26 764.5,-274.26 937.5,-274.26 937.5,-256.26 764.5,-256.26"/>
<text text-anchor="start" x="767.5" y="-262.46" font-family="Helvetica,sans-Serif" font-size="11.00">...</text>
<polygon fill="#ffffff" stroke="transparent" points="764.5,-238.26 764.5,-256.26 937.5,-256.26 937.5,-238.26 764.5,-238.26"/>
<polygon fill="none" stroke="black" points="764.5,-238.26 764.5,-256.26 937.5,-256.26 937.5,-238.26 764.5,-238.26"/>
<polygon fill="#ffffff" stroke="transparent" points="765.5,-239.26 765.5,-255.26 821.5,-255.26 821.5,-239.26 765.5,-239.26"/>
<text text-anchor="start" x="767.5" y="-244.46" font-family="Helvetica,sans-Serif" font-size="11.00">&lt; 7</text>
<polygon fill="#ffffff" stroke="transparent" points="821.5,-239.26 821.5,-255.26 893.5,-255.26 893.5,-239.26 821.5,-239.26"/>
<text text-anchor="start" x="839" y="-244.46" font-family="Helvetica,sans-Serif" font-size="11.00">0 rows</text>
<polygon fill="#ffffff" stroke="transparent" points="893.5,-239.26 893.5,-255.26 936.5,-255.26 936.5,-239.26 893.5,-239.26"/>
<text text-anchor="start" x="926.5" y="-244.46" font-family="Helvetica,sans-Serif" font-size="11.00"> &#160;</text>
<polygon fill="black" stroke="black" points="821.5,-239.26 821.5,-255.26 821.5,-255.26 821.5,-239.26 821.5,-239.26"/>
<polygon fill="black" stroke="black" points="893.5,-239.26 893.5,-255.26 893.5,-255.26 893.5,-239.26 893.5,-239.26"/>
</a>
</g>
</g>
<!-- wzp_tree&#45;&gt;plot -->
<g id="edge2" class="edge">
<title>wzp_tree:w&#45;&gt;plot:e</title>
<path fill="none" stroke="black" d="M749.23,-419.57C713.02,-434.13 764.9,-513.53 723,-551.26 657.94,-609.85 617.06,-588.26 529.5,-588.26"/>
<polygon fill="black" stroke="black" points="755.6,-418.54 764.08,-420.81 759.55,-417.9 763.5,-417.26 763.5,-417.26 763.5,-417.26 759.55,-417.9 762.92,-413.7 755.6,-418.54 755.6,-418.54"/>
<ellipse fill="none" stroke="black" cx="752.44" cy="-419.05" rx="3.2" ry="3.2"/>
</g>
<!-- wzp_tree&#45;&gt;lookup_stand_layer -->
<g id="edge4" class="edge">
<title>wzp_tree:w&#45;&gt;lookup_stand_layer:e</title>
<path fill="none" stroke="black" d="M748.85,-283.86C676.09,-267.98 796.98,-121.16 723,-59.26 681.5,-24.53 277.06,-24.01 236,-59.26 191.99,-97.04 254.5,-317.26 196.5,-317.26"/>
<polygon fill="black" stroke="black" points="755.54,-284.5 763.16,-288.84 759.52,-284.88 763.5,-285.26 763.5,-285.26 763.5,-285.26 759.52,-284.88 763.84,-281.67 755.54,-284.5 755.54,-284.5"/>
<ellipse fill="none" stroke="black" cx="752.35" cy="-284.19" rx="3.2" ry="3.2"/>
</g>
<!-- lookup_pruning -->
<g id="node4" class="node">
<title>lookup_pruning</title>
<g id="a_node4"><a xlink:href="../../tables/lookup_pruning.html" xlink:title="lookup_pruning" target="_top">
<polygon fill="#ffffff" stroke="transparent" points="244,-70.26 244,-224.26 715,-224.26 715,-70.26 244,-70.26"/>
<polygon fill="#f5f5f5" stroke="transparent" points="246.5,-200.26 246.5,-222.26 713.5,-222.26 713.5,-200.26 246.5,-200.26"/>
<polygon fill="none" stroke="black" points="246.5,-200.26 246.5,-222.26 713.5,-222.26 713.5,-200.26 246.5,-200.26"/>
<text text-anchor="start" x="251.5" y="-209.46" font-family="Helvetica,sans-Serif" font-weight="bold" font-size="11.00">lookup_pruning</text>
<text text-anchor="start" x="671.5" y="-208.46" font-family="Helvetica,sans-Serif" font-size="11.00">[table]</text>
<polygon fill="none" stroke="black" points="246.5,-178.26 246.5,-200.26 380.5,-200.26 380.5,-178.26 246.5,-178.26"/>
<text text-anchor="start" x="266.5" y="-186.46" font-family="Helvetica,sans-Serif" font-size="11.00">name_de</text>
<polygon fill="none" stroke="black" points="380.5,-178.26 380.5,-200.26 713.5,-200.26 713.5,-178.26 380.5,-178.26"/>
<text text-anchor="start" x="383.5" y="-186.46" font-family="Helvetica,sans-Serif" font-size="11.00">varchar[150]</text>
<polygon fill="none" stroke="black" points="246.5,-156.26 246.5,-178.26 380.5,-178.26 380.5,-156.26 246.5,-156.26"/>
<text text-anchor="start" x="266.5" y="-164.46" font-family="Helvetica,sans-Serif" font-size="11.00">name_en</text>
<polygon fill="none" stroke="black" points="380.5,-156.26 380.5,-178.26 713.5,-178.26 713.5,-156.26 380.5,-156.26"/>
<text text-anchor="start" x="383.5" y="-164.46" font-family="Helvetica,sans-Serif" font-size="11.00">varchar[150]</text>
<polygon fill="none" stroke="black" points="246.5,-134.26 246.5,-156.26 380.5,-156.26 380.5,-134.26 246.5,-134.26"/>
<text text-anchor="start" x="266.5" y="-142.46" font-family="Helvetica,sans-Serif" font-size="11.00">interval</text>
<polygon fill="none" stroke="black" points="380.5,-134.26 380.5,-156.26 713.5,-156.26 713.5,-134.26 380.5,-134.26"/>
<text text-anchor="start" x="383.5" y="-142.46" font-family="Helvetica,sans-Serif" font-size="11.00">&quot;private_ci2027_001&quot;.&quot;_enum_interval_name&quot;[2147483647]</text>
<polygon fill="none" stroke="black" points="246.5,-112.26 246.5,-134.26 380.5,-134.26 380.5,-112.26 246.5,-112.26"/>
<text text-anchor="start" x="266.5" y="-120.46" font-family="Helvetica,sans-Serif" font-size="11.00">sort</text>
<polygon fill="none" stroke="black" points="380.5,-112.26 380.5,-134.26 713.5,-134.26 713.5,-112.26 380.5,-112.26"/>
<text text-anchor="start" x="383.5" y="-120.46" font-family="Helvetica,sans-Serif" font-size="11.00">int4[10]</text>
<polygon fill="#ffffff" stroke="transparent" points="246.5,-90.26 246.5,-112.26 380.5,-112.26 380.5,-90.26 246.5,-90.26"/>
<polygon fill="none" stroke="black" points="246.5,-90.26 246.5,-112.26 380.5,-112.26 380.5,-90.26 246.5,-90.26"/>
<text text-anchor="start" x="266.5" y="-98.46" font-family="Helvetica,sans-Serif" font-size="11.00">abbreviation</text>
<polygon fill="none" stroke="black" points="380.5,-90.26 380.5,-112.26 713.5,-112.26 713.5,-90.26 380.5,-90.26"/>
<text text-anchor="start" x="383.5" y="-98.46" font-family="Helvetica,sans-Serif" font-size="11.00">&quot;private_ci2027_001&quot;.&quot;enum_pruning&quot;[2147483647]</text>
<polygon fill="#ffffff" stroke="transparent" points="246.5,-72.26 246.5,-90.26 713.5,-90.26 713.5,-72.26 246.5,-72.26"/>
<polygon fill="none" stroke="black" points="246.5,-72.26 246.5,-90.26 713.5,-90.26 713.5,-72.26 246.5,-72.26"/>
<polygon fill="#ffffff" stroke="transparent" points="247.5,-73.26 247.5,-89.26 397.5,-89.26 397.5,-73.26 247.5,-73.26"/>
<text text-anchor="start" x="249.5" y="-78.46" font-family="Helvetica,sans-Serif" font-size="11.00">&lt; 0</text>
<polygon fill="#ffffff" stroke="transparent" points="397.5,-73.26 397.5,-89.26 563.5,-89.26 563.5,-73.26 397.5,-73.26"/>
<text text-anchor="start" x="462" y="-78.46" font-family="Helvetica,sans-Serif" font-size="11.00">0 rows</text>
<polygon fill="#ffffff" stroke="transparent" points="563.5,-73.26 563.5,-89.26 712.5,-89.26 712.5,-73.26 563.5,-73.26"/>
<text text-anchor="start" x="690.5" y="-78.46" font-family="Helvetica,sans-Serif" font-size="11.00">1 &gt;</text>
<polygon fill="black" stroke="black" points="397.5,-73.26 397.5,-89.26 397.5,-89.26 397.5,-73.26 397.5,-73.26"/>
<polygon fill="black" stroke="black" points="563.5,-73.26 563.5,-89.26 563.5,-89.26 563.5,-73.26 563.5,-73.26"/>
<polygon fill="none" stroke="black" stroke-width="2" points="245,-71.26 245,-223.26 714,-223.26 714,-71.26 245,-71.26"/>
</a>
</g>
</g>
<!-- wzp_tree&#45;&gt;lookup_pruning -->
<g id="edge3" class="edge">
<title>wzp_tree:w&#45;&gt;lookup_pruning:e</title>
<path fill="none" stroke="black" d="M748.87,-305.08C685.39,-283.07 802.91,-101.26 714.5,-101.26"/>
<polygon fill="black" stroke="black" points="755.59,-306.08 762.97,-310.82 759.54,-306.67 763.5,-307.26 763.5,-307.26 763.5,-307.26 759.54,-306.67 764.03,-303.7 755.59,-306.08 755.59,-306.08"/>
<ellipse fill="none" stroke="black" cx="752.42" cy="-305.61" rx="3.2" ry="3.2"/>
</g>
<!-- lookup_stem_breakage -->
<g id="node5" class="node">
<title>lookup_stem_breakage</title>
<g id="a_node5"><a xlink:href="../../tables/lookup_stem_breakage.html" xlink:title="lookup_stem_breakage" target="_top">
<polygon fill="#ffffff" stroke="transparent" points="372.5,-324.26 372.5,-382.26 586.5,-382.26 586.5,-324.26 372.5,-324.26"/>
<polygon fill="#f5f5f5" stroke="transparent" points="372.5,-360.26 372.5,-382.26 586.5,-382.26 586.5,-360.26 372.5,-360.26"/>
<polygon fill="none" stroke="black" points="372.5,-360.26 372.5,-382.26 586.5,-382.26 586.5,-360.26 372.5,-360.26"/>
<text text-anchor="start" x="377.5" y="-369.46" font-family="Helvetica,sans-Serif" font-weight="bold" font-size="11.00">lookup_stem_breakage</text>
<text text-anchor="start" x="544.5" y="-368.46" font-family="Helvetica,sans-Serif" font-size="11.00">[table]</text>
<polygon fill="none" stroke="black" points="372.5,-342.26 372.5,-360.26 586.5,-360.26 586.5,-342.26 372.5,-342.26"/>
<text text-anchor="start" x="375.5" y="-348.46" font-family="Helvetica,sans-Serif" font-size="11.00">...</text>
<polygon fill="#ffffff" stroke="transparent" points="372.5,-324.26 372.5,-342.26 586.5,-342.26 586.5,-324.26 372.5,-324.26"/>
<polygon fill="none" stroke="black" points="372.5,-324.26 372.5,-342.26 586.5,-342.26 586.5,-324.26 372.5,-324.26"/>
<polygon fill="#ffffff" stroke="transparent" points="373.5,-325.26 373.5,-341.26 430.5,-341.26 430.5,-325.26 373.5,-325.26"/>
<text text-anchor="start" x="375.5" y="-330.46" font-family="Helvetica,sans-Serif" font-size="11.00"> &#160;</text>
<polygon fill="#ffffff" stroke="transparent" points="430.5,-325.26 430.5,-341.26 516.5,-341.26 516.5,-325.26 430.5,-325.26"/>
<text text-anchor="start" x="455" y="-330.46" font-family="Helvetica,sans-Serif" font-size="11.00">0 rows</text>
<polygon fill="#ffffff" stroke="transparent" points="516.5,-325.26 516.5,-341.26 585.5,-341.26 585.5,-325.26 516.5,-325.26"/>
<text text-anchor="start" x="563.5" y="-330.46" font-family="Helvetica,sans-Serif" font-size="11.00">1 &gt;</text>
<polygon fill="black" stroke="black" points="430.5,-325.26 430.5,-341.26 430.5,-341.26 430.5,-325.26 430.5,-325.26"/>
<polygon fill="black" stroke="black" points="516.5,-325.26 516.5,-341.26 516.5,-341.26 516.5,-325.26 516.5,-325.26"/>
</a>
</g>
</g>
<!-- wzp_tree&#45;&gt;lookup_stem_breakage -->
<g id="edge5" class="edge">
<title>wzp_tree:w&#45;&gt;lookup_stem_breakage:e</title>
<path fill="none" stroke="black" d="M749.07,-351.26C682.51,-351.26 660.68,-351.26 587.5,-351.26"/>
<polygon fill="black" stroke="black" points="755.5,-351.26 763.5,-354.86 759.5,-351.26 763.5,-351.26 763.5,-351.26 763.5,-351.26 759.5,-351.26 763.5,-347.66 755.5,-351.26 755.5,-351.26"/>
<ellipse fill="none" stroke="black" cx="752.3" cy="-351.26" rx="3.2" ry="3.2"/>
</g>
<!-- lookup_stem_form -->
<g id="node6" class="node">
<title>lookup_stem_form</title>
<g id="a_node6"><a xlink:href="../../tables/lookup_stem_form.html" xlink:title="lookup_stem_form" target="_top">
<polygon fill="#ffffff" stroke="transparent" points="389.5,-245.26 389.5,-303.26 569.5,-303.26 569.5,-245.26 389.5,-245.26"/>
<polygon fill="#f5f5f5" stroke="transparent" points="389.5,-281.26 389.5,-303.26 569.5,-303.26 569.5,-281.26 389.5,-281.26"/>
<polygon fill="none" stroke="black" points="389.5,-281.26 389.5,-303.26 569.5,-303.26 569.5,-281.26 389.5,-281.26"/>
<text text-anchor="start" x="394.5" y="-290.46" font-family="Helvetica,sans-Serif" font-weight="bold" font-size="11.00">lookup_stem_form</text>
<text text-anchor="start" x="527.5" y="-289.46" font-family="Helvetica,sans-Serif" font-size="11.00">[table]</text>
<polygon fill="none" stroke="black" points="389.5,-263.26 389.5,-281.26 569.5,-281.26 569.5,-263.26 389.5,-263.26"/>
<text text-anchor="start" x="392.5" y="-269.46" font-family="Helvetica,sans-Serif" font-size="11.00">...</text>
<polygon fill="#ffffff" stroke="transparent" points="389.5,-245.26 389.5,-263.26 569.5,-263.26 569.5,-245.26 389.5,-245.26"/>
<polygon fill="none" stroke="black" points="389.5,-245.26 389.5,-263.26 569.5,-263.26 569.5,-245.26 389.5,-245.26"/>
<polygon fill="#ffffff" stroke="transparent" points="390.5,-246.26 390.5,-262.26 436.5,-262.26 436.5,-246.26 390.5,-246.26"/>
<text text-anchor="start" x="392.5" y="-251.46" font-family="Helvetica,sans-Serif" font-size="11.00"> &#160;</text>
<polygon fill="#ffffff" stroke="transparent" points="436.5,-246.26 436.5,-262.26 511.5,-262.26 511.5,-246.26 436.5,-246.26"/>
<text text-anchor="start" x="455.5" y="-251.46" font-family="Helvetica,sans-Serif" font-size="11.00">0 rows</text>
<polygon fill="#ffffff" stroke="transparent" points="511.5,-246.26 511.5,-262.26 568.5,-262.26 568.5,-246.26 511.5,-246.26"/>
<text text-anchor="start" x="546.5" y="-251.46" font-family="Helvetica,sans-Serif" font-size="11.00">1 &gt;</text>
<polygon fill="black" stroke="black" points="436.5,-246.26 436.5,-262.26 436.5,-262.26 436.5,-246.26 436.5,-246.26"/>
<polygon fill="black" stroke="black" points="511.5,-246.26 511.5,-262.26 511.5,-262.26 511.5,-246.26 511.5,-246.26"/>
</a>
</g>
</g>
<!-- wzp_tree&#45;&gt;lookup_stem_form -->
<g id="edge6" class="edge">
<title>wzp_tree:w&#45;&gt;lookup_stem_form:e</title>
<path fill="none" stroke="black" d="M749.28,-326.96C740.92,-323.88 735.56,-318.3 723,-314.26 656.09,-292.69 640.8,-272.26 570.5,-272.26"/>
<polygon fill="black" stroke="black" points="755.6,-327.98 762.93,-332.81 759.55,-328.62 763.5,-329.26 763.5,-329.26 763.5,-329.26 759.55,-328.62 764.07,-325.7 755.6,-327.98 755.6,-327.98"/>
<ellipse fill="none" stroke="black" cx="752.44" cy="-327.47" rx="3.2" ry="3.2"/>
</g>
<!-- lookup_tree_species -->
<g id="node7" class="node">
<title>lookup_tree_species</title>
<g id="a_node7"><a xlink:href="../../tables/lookup_tree_species.html" xlink:title="lookup_tree_species" target="_top">
<polygon fill="#ffffff" stroke="transparent" points="382.5,-403.26 382.5,-461.26 576.5,-461.26 576.5,-403.26 382.5,-403.26"/>
<polygon fill="#f5f5f5" stroke="transparent" points="382.5,-439.26 382.5,-461.26 576.5,-461.26 576.5,-439.26 382.5,-439.26"/>
<polygon fill="none" stroke="black" points="382.5,-439.26 382.5,-461.26 576.5,-461.26 576.5,-439.26 382.5,-439.26"/>
<text text-anchor="start" x="387.5" y="-448.46" font-family="Helvetica,sans-Serif" font-weight="bold" font-size="11.00">lookup_tree_species</text>
<text text-anchor="start" x="534.5" y="-447.46" font-family="Helvetica,sans-Serif" font-size="11.00">[table]</text>
<polygon fill="none" stroke="black" points="382.5,-421.26 382.5,-439.26 576.5,-439.26 576.5,-421.26 382.5,-421.26"/>
<text text-anchor="start" x="385.5" y="-427.46" font-family="Helvetica,sans-Serif" font-size="11.00">...</text>
<polygon fill="#ffffff" stroke="transparent" points="382.5,-403.26 382.5,-421.26 576.5,-421.26 576.5,-403.26 382.5,-403.26"/>
<polygon fill="none" stroke="black" points="382.5,-403.26 382.5,-421.26 576.5,-421.26 576.5,-403.26 382.5,-403.26"/>
<polygon fill="#ffffff" stroke="transparent" points="383.5,-404.26 383.5,-420.26 429.5,-420.26 429.5,-404.26 383.5,-404.26"/>
<text text-anchor="start" x="385.5" y="-409.46" font-family="Helvetica,sans-Serif" font-size="11.00"> &#160;</text>
<polygon fill="#ffffff" stroke="transparent" points="429.5,-404.26 429.5,-420.26 518.5,-420.26 518.5,-404.26 429.5,-404.26"/>
<text text-anchor="start" x="448.5" y="-409.46" font-family="Helvetica,sans-Serif" font-size="11.00">125 rows</text>
<polygon fill="#ffffff" stroke="transparent" points="518.5,-404.26 518.5,-420.26 575.5,-420.26 575.5,-404.26 518.5,-404.26"/>
<text text-anchor="start" x="553.5" y="-409.46" font-family="Helvetica,sans-Serif" font-size="11.00">3 &gt;</text>
<polygon fill="black" stroke="black" points="429.5,-404.26 429.5,-420.26 429.5,-420.26 429.5,-404.26 429.5,-404.26"/>
<polygon fill="black" stroke="black" points="518.5,-404.26 518.5,-420.26 518.5,-420.26 518.5,-404.26 518.5,-404.26"/>
</a>
</g>
</g>
<!-- wzp_tree&#45;&gt;lookup_tree_species -->
<g id="edge7" class="edge">
<title>wzp_tree:w&#45;&gt;lookup_tree_species:e</title>
<path fill="none" stroke="black" d="M749.29,-376.35C740.85,-380.64 736.09,-388.42 723,-393.26 660.41,-416.38 644.22,-430.26 577.5,-430.26"/>
<polygon fill="black" stroke="black" points="755.68,-374.96 764.27,-376.77 759.59,-374.11 763.5,-373.26 763.5,-373.26 763.5,-373.26 759.59,-374.11 762.73,-369.74 755.68,-374.96 755.68,-374.96"/>
<ellipse fill="none" stroke="black" cx="752.56" cy="-375.64" rx="3.2" ry="3.2"/>
</g>
<!-- lookup_tree_status -->
<g id="node8" class="node">
<title>lookup_tree_status</title>
<g id="a_node8"><a xlink:href="../../tables/lookup_tree_status.html" xlink:title="lookup_tree_status" target="_top">
<polygon fill="#ffffff" stroke="transparent" points="387,-482.26 387,-540.26 572,-540.26 572,-482.26 387,-482.26"/>
<polygon fill="#f5f5f5" stroke="transparent" points="387.5,-518.26 387.5,-540.26 572.5,-540.26 572.5,-518.26 387.5,-518.26"/>
<polygon fill="none" stroke="black" points="387.5,-518.26 387.5,-540.26 572.5,-540.26 572.5,-518.26 387.5,-518.26"/>
<text text-anchor="start" x="392.5" y="-527.46" font-family="Helvetica,sans-Serif" font-weight="bold" font-size="11.00">lookup_tree_status</text>
<text text-anchor="start" x="530.5" y="-526.46" font-family="Helvetica,sans-Serif" font-size="11.00">[table]</text>
<polygon fill="none" stroke="black" points="387.5,-500.26 387.5,-518.26 572.5,-518.26 572.5,-500.26 387.5,-500.26"/>
<text text-anchor="start" x="390.5" y="-506.46" font-family="Helvetica,sans-Serif" font-size="11.00">...</text>
<polygon fill="#ffffff" stroke="transparent" points="387.5,-482.26 387.5,-500.26 572.5,-500.26 572.5,-482.26 387.5,-482.26"/>
<polygon fill="none" stroke="black" points="387.5,-482.26 387.5,-500.26 572.5,-500.26 572.5,-482.26 387.5,-482.26"/>
<polygon fill="#ffffff" stroke="transparent" points="388.5,-483.26 388.5,-499.26 436.5,-499.26 436.5,-483.26 388.5,-483.26"/>
<text text-anchor="start" x="390.5" y="-488.46" font-family="Helvetica,sans-Serif" font-size="11.00"> &#160;</text>
<polygon fill="#ffffff" stroke="transparent" points="436.5,-483.26 436.5,-499.26 512.5,-499.26 512.5,-483.26 436.5,-483.26"/>
<text text-anchor="start" x="456" y="-488.46" font-family="Helvetica,sans-Serif" font-size="11.00">0 rows</text>
<polygon fill="#ffffff" stroke="transparent" points="512.5,-483.26 512.5,-499.26 571.5,-499.26 571.5,-483.26 512.5,-483.26"/>
<text text-anchor="start" x="549.5" y="-488.46" font-family="Helvetica,sans-Serif" font-size="11.00">1 &gt;</text>
<polygon fill="black" stroke="black" points="436.5,-483.26 436.5,-499.26 436.5,-499.26 436.5,-483.26 436.5,-483.26"/>
<polygon fill="black" stroke="black" points="512.5,-483.26 512.5,-499.26 512.5,-499.26 512.5,-483.26 512.5,-483.26"/>
</a>
</g>
</g>
<!-- wzp_tree&#45;&gt;lookup_tree_status -->
<g id="edge8" class="edge">
<title>wzp_tree:w&#45;&gt;lookup_tree_status:e</title>
<path fill="none" stroke="black" d="M749.34,-399.18C732.63,-411.91 748.44,-452.32 723,-472.26 669.12,-514.47 641.95,-509.26 573.5,-509.26"/>
<polygon fill="black" stroke="black" points="755.79,-397.39 764.46,-398.73 759.65,-396.33 763.5,-395.26 763.5,-395.26 763.5,-395.26 759.65,-396.33 762.54,-391.79 755.79,-397.39 755.79,-397.39"/>
<ellipse fill="none" stroke="black" cx="752.71" cy="-398.25" rx="3.2" ry="3.2"/>
</g>
</g>
</svg>
