<?xml version="1.0" encoding="UTF-8" standalone="no"?>
<!DOCTYPE svg PUBLIC "-//W3C//DTD SVG 1.1//EN"
 "http://www.w3.org/Graphics/SVG/1.1/DTD/svg11.dtd">
<!-- Generated by graphviz version 2.43.0 (0)
 -->
<!-- Title: oneDegreeRelationshipsDiagram Pages: 1 -->
<svg width="529pt" height="225pt"
 viewBox="0.00 0.00 529.00 225.00" xmlns="http://www.w3.org/2000/svg" xmlns:xlink="http://www.w3.org/1999/xlink">
<g id="graph0" class="graph" transform="scale(1 1) rotate(0) translate(4 221)">
<title>oneDegreeRelationshipsDiagram</title>
<polygon fill="#ffffff" stroke="transparent" points="-4,4 -4,-221 525,-221 525,4 -4,4"/>
<text text-anchor="middle" x="79.5" y="-7.2" font-family="Helvetica,sans-Serif" font-size="11.00">Generated by SchemaSpy</text>
<!-- lookup_forest_office -->
<g id="node1" class="node">
<title>lookup_forest_office</title>
<g id="a_node1"><a xlink:href="../../tables/lookup_forest_office.html" xlink:title="lookup_forest_office" target="_top">
<polygon fill="#ffffff" stroke="transparent" points="8,-37 8,-213 513,-213 513,-37 8,-37"/>
<polygon fill="#f5f5f5" stroke="transparent" points="10.5,-189 10.5,-211 511.5,-211 511.5,-189 10.5,-189"/>
<polygon fill="none" stroke="black" points="10.5,-189 10.5,-211 511.5,-211 511.5,-189 10.5,-189"/>
<text text-anchor="start" x="15.5" y="-198.2" font-family="Helvetica,sans-Serif" font-weight="bold" font-size="11.00">lookup_forest_office</text>
<text text-anchor="start" x="469.5" y="-197.2" font-family="Helvetica,sans-Serif" font-size="11.00">[table]</text>
<polygon fill="none" stroke="black" points="10.5,-167 10.5,-189 178.5,-189 178.5,-167 10.5,-167"/>
<text text-anchor="start" x="30.5" y="-175.2" font-family="Helvetica,sans-Serif" font-size="11.00">name_de</text>
<polygon fill="none" stroke="black" points="178.5,-167 178.5,-189 511.5,-189 511.5,-167 178.5,-167"/>
<text text-anchor="start" x="181.5" y="-175.2" font-family="Helvetica,sans-Serif" font-size="11.00">varchar[150]</text>
<polygon fill="none" stroke="black" points="10.5,-145 10.5,-167 178.5,-167 178.5,-145 10.5,-145"/>
<text text-anchor="start" x="30.5" y="-153.2" font-family="Helvetica,sans-Serif" font-size="11.00">name_en</text>
<polygon fill="none" stroke="black" points="178.5,-145 178.5,-167 511.5,-167 511.5,-145 178.5,-145"/>
<text text-anchor="start" x="181.5" y="-153.2" font-family="Helvetica,sans-Serif" font-size="11.00">varchar[150]</text>
<polygon fill="none" stroke="black" points="10.5,-123 10.5,-145 178.5,-145 178.5,-123 10.5,-123"/>
<text text-anchor="start" x="30.5" y="-131.2" font-family="Helvetica,sans-Serif" font-size="11.00">interval</text>
<polygon fill="none" stroke="black" points="178.5,-123 178.5,-145 511.5,-145 511.5,-123 178.5,-123"/>
<text text-anchor="start" x="181.5" y="-131.2" font-family="Helvetica,sans-Serif" font-size="11.00">&quot;private_ci2027_001&quot;.&quot;_enum_interval_name&quot;[2147483647]</text>
<polygon fill="none" stroke="black" points="10.5,-101 10.5,-123 178.5,-123 178.5,-101 10.5,-101"/>
<text text-anchor="start" x="30.5" y="-109.2" font-family="Helvetica,sans-Serif" font-size="11.00">sort</text>
<polygon fill="none" stroke="black" points="178.5,-101 178.5,-123 511.5,-123 511.5,-101 178.5,-101"/>
<text text-anchor="start" x="181.5" y="-109.2" font-family="Helvetica,sans-Serif" font-size="11.00">int4[10]</text>
<polygon fill="#ffffff" stroke="transparent" points="10.5,-79 10.5,-101 178.5,-101 178.5,-79 10.5,-79"/>
<polygon fill="none" stroke="black" points="10.5,-79 10.5,-101 178.5,-101 178.5,-79 10.5,-79"/>
<text text-anchor="start" x="30.5" y="-87.2" font-family="Helvetica,sans-Serif" font-size="11.00">abbreviation</text>
<polygon fill="none" stroke="black" points="178.5,-79 178.5,-101 511.5,-101 511.5,-79 178.5,-79"/>
<text text-anchor="start" x="181.5" y="-87.2" font-family="Helvetica,sans-Serif" font-size="11.00">int2[5]</text>
<polygon fill="none" stroke="black" points="10.5,-57 10.5,-79 178.5,-79 178.5,-57 10.5,-57"/>
<text text-anchor="start" x="30.5" y="-65.2" font-family="Helvetica,sans-Serif" font-size="11.00">phone</text>
<polygon fill="none" stroke="black" points="178.5,-57 178.5,-79 511.5,-79 511.5,-57 178.5,-57"/>
<text text-anchor="start" x="181.5" y="-65.2" font-family="Helvetica,sans-Serif" font-size="11.00">varchar[20]</text>
<polygon fill="#ffffff" stroke="transparent" points="10.5,-39 10.5,-57 511.5,-57 511.5,-39 10.5,-39"/>
<polygon fill="none" stroke="black" points="10.5,-39 10.5,-57 511.5,-57 511.5,-39 10.5,-39"/>
<polygon fill="#ffffff" stroke="transparent" points="11.5,-40 11.5,-56 167.5,-56 167.5,-40 11.5,-40"/>
<text text-anchor="start" x="13.5" y="-45.2" font-family="Helvetica,sans-Serif" font-size="11.00">&lt; 0</text>
<polygon fill="#ffffff" stroke="transparent" points="167.5,-40 167.5,-56 354.5,-56 354.5,-40 167.5,-40"/>
<text text-anchor="start" x="235.5" y="-45.2" font-family="Helvetica,sans-Serif" font-size="11.00">814 rows</text>
<polygon fill="#ffffff" stroke="transparent" points="354.5,-40 354.5,-56 510.5,-56 510.5,-40 354.5,-40"/>
<text text-anchor="start" x="488.5" y="-45.2" font-family="Helvetica,sans-Serif" font-size="11.00">0 &gt;</text>
<polygon fill="black" stroke="black" points="167.5,-40 167.5,-56 167.5,-56 167.5,-40 167.5,-40"/>
<polygon fill="black" stroke="black" points="354.5,-40 354.5,-56 354.5,-56 354.5,-40 354.5,-40"/>
<polygon fill="none" stroke="black" stroke-width="2" points="9,-38 9,-212 512,-212 512,-38 9,-38"/>
</a>
</g>
</g>
</g>
</svg>
