<?xml version="1.0" encoding="UTF-8" standalone="no"?>
<!DOCTYPE svg PUBLIC "-//W3C//DTD SVG 1.1//EN"
 "http://www.w3.org/Graphics/SVG/1.1/DTD/svg11.dtd">
<!-- Generated by graphviz version 2.43.0 (0)
 -->
<!-- Title: oneDegreeRelationshipsDiagram Pages: 1 -->
<svg width="964pt" height="679pt"
 viewBox="0.00 0.00 964.00 679.00" xmlns="http://www.w3.org/2000/svg" xmlns:xlink="http://www.w3.org/1999/xlink">
<g id="graph0" class="graph" transform="scale(1 1) rotate(0) translate(4 675)">
<title>oneDegreeRelationshipsDiagram</title>
<polygon fill="#ffffff" stroke="transparent" points="-4,4 -4,-675 960,-675 960,4 -4,4"/>
<text text-anchor="middle" x="79.5" y="-7.2" font-family="Helvetica,sans-Serif" font-size="11.00">Generated by SchemaSpy</text>
<!-- plot -->
<g id="node1" class="node">
<title>plot</title>
<g id="a_node1"><a xlink:href="../../tables/plot.html" xlink:title="plot" target="_top">
<polygon fill="#ffffff" stroke="transparent" points="697,-37 697,-667 948,-667 948,-37 697,-37"/>
<polygon fill="#f5f5f5" stroke="transparent" points="697.5,-645 697.5,-667 948.5,-667 948.5,-645 697.5,-645"/>
<polygon fill="none" stroke="black" points="697.5,-645 697.5,-667 948.5,-667 948.5,-645 697.5,-645"/>
<text text-anchor="start" x="702" y="-654.2" font-family="Helvetica,sans-Serif" font-weight="bold" font-size="11.00">plot</text>
<text text-anchor="start" x="906.5" y="-653.2" font-family="Helvetica,sans-Serif" font-size="11.00">[table]</text>
<polygon fill="none" stroke="black" points="697.5,-623 697.5,-645 948.5,-645 948.5,-623 697.5,-623"/>
<image xlink:href="../../images/primaryKeys.png" width="11px" height="12px" preserveAspectRatio="xMinYMin meet" x="702.5" y="-640"/>
<text text-anchor="start" x="717.5" y="-631.2" font-family="Helvetica,sans-Serif" font-size="11.00">id</text>
<polygon fill="#ffffff" stroke="transparent" points="697.5,-601 697.5,-623 948.5,-623 948.5,-601 697.5,-601"/>
<polygon fill="none" stroke="black" points="697.5,-601 697.5,-623 948.5,-623 948.5,-601 697.5,-601"/>
<image xlink:href="../../images/foreignKeys.png" width="11px" height="12px" preserveAspectRatio="xMinYMin meet" x="702.5" y="-618"/>
<text text-anchor="start" x="717.5" y="-609.2" font-family="Helvetica,sans-Serif" font-size="11.00">cluster_id</text>
<polygon fill="#ffffff" stroke="transparent" points="697.5,-579 697.5,-601 948.5,-601 948.5,-579 697.5,-579"/>
<polygon fill="none" stroke="black" points="697.5,-579 697.5,-601 948.5,-601 948.5,-579 697.5,-579"/>
<text text-anchor="start" x="717.5" y="-587.2" font-family="Helvetica,sans-Serif" font-size="11.00">plot_name</text>
<polygon fill="none" stroke="black" points="697.5,-557 697.5,-579 948.5,-579 948.5,-557 697.5,-557"/>
<image xlink:href="../../images/foreignKeys.png" width="11px" height="12px" preserveAspectRatio="xMinYMin meet" x="702.5" y="-574"/>
<text text-anchor="start" x="717.5" y="-565.2" font-family="Helvetica,sans-Serif" font-size="11.00">sampling_strata</text>
<polygon fill="none" stroke="black" points="697.5,-535 697.5,-557 948.5,-557 948.5,-535 697.5,-535"/>
<image xlink:href="../../images/foreignKeys.png" width="11px" height="12px" preserveAspectRatio="xMinYMin meet" x="702.5" y="-552"/>
<text text-anchor="start" x="717.5" y="-543.2" font-family="Helvetica,sans-Serif" font-size="11.00">growth_district</text>
<polygon fill="none" stroke="black" points="697.5,-513 697.5,-535 948.5,-535 948.5,-513 697.5,-513"/>
<image xlink:href="../../images/foreignKeys.png" width="11px" height="12px" preserveAspectRatio="xMinYMin meet" x="702.5" y="-530"/>
<text text-anchor="start" x="717.5" y="-521.2" font-family="Helvetica,sans-Serif" font-size="11.00">forest_decision</text>
<polygon fill="none" stroke="black" points="697.5,-491 697.5,-513 948.5,-513 948.5,-491 697.5,-491"/>
<image xlink:href="../../images/foreignKeys.png" width="11px" height="12px" preserveAspectRatio="xMinYMin meet" x="702.5" y="-508"/>
<text text-anchor="start" x="717.5" y="-499.2" font-family="Helvetica,sans-Serif" font-size="11.00">forestry_department</text>
<polygon fill="none" stroke="black" points="697.5,-469 697.5,-491 948.5,-491 948.5,-469 697.5,-469"/>
<image xlink:href="../../images/foreignKeys.png" width="11px" height="12px" preserveAspectRatio="xMinYMin meet" x="702.5" y="-486"/>
<text text-anchor="start" x="717.5" y="-477.2" font-family="Helvetica,sans-Serif" font-size="11.00">height_layer_class</text>
<polygon fill="none" stroke="black" points="697.5,-447 697.5,-469 948.5,-469 948.5,-447 697.5,-447"/>
<image xlink:href="../../images/foreignKeys.png" width="11px" height="12px" preserveAspectRatio="xMinYMin meet" x="702.5" y="-464"/>
<text text-anchor="start" x="717.5" y="-455.2" font-family="Helvetica,sans-Serif" font-size="11.00">property_type</text>
<polygon fill="none" stroke="black" points="697.5,-425 697.5,-447 948.5,-447 948.5,-425 697.5,-425"/>
<image xlink:href="../../images/foreignKeys.png" width="11px" height="12px" preserveAspectRatio="xMinYMin meet" x="702.5" y="-442"/>
<text text-anchor="start" x="717.5" y="-433.2" font-family="Helvetica,sans-Serif" font-size="11.00">property_size_class</text>
<polygon fill="none" stroke="black" points="697.5,-403 697.5,-425 948.5,-425 948.5,-403 697.5,-403"/>
<image xlink:href="../../images/foreignKeys.png" width="11px" height="12px" preserveAspectRatio="xMinYMin meet" x="702.5" y="-420"/>
<text text-anchor="start" x="717.5" y="-411.2" font-family="Helvetica,sans-Serif" font-size="11.00">forest_type</text>
<polygon fill="none" stroke="black" points="697.5,-381 697.5,-403 948.5,-403 948.5,-381 697.5,-381"/>
<image xlink:href="../../images/foreignKeys.png" width="11px" height="12px" preserveAspectRatio="xMinYMin meet" x="702.5" y="-398"/>
<text text-anchor="start" x="717.5" y="-389.2" font-family="Helvetica,sans-Serif" font-size="11.00">habitat_type</text>
<polygon fill="none" stroke="black" points="697.5,-359 697.5,-381 948.5,-381 948.5,-359 697.5,-359"/>
<image xlink:href="../../images/foreignKeys.png" width="11px" height="12px" preserveAspectRatio="xMinYMin meet" x="702.5" y="-376"/>
<text text-anchor="start" x="717.5" y="-367.2" font-family="Helvetica,sans-Serif" font-size="11.00">habitat_type_source</text>
<polygon fill="none" stroke="black" points="697.5,-337 697.5,-359 948.5,-359 948.5,-337 697.5,-337"/>
<image xlink:href="../../images/foreignKeys.png" width="11px" height="12px" preserveAspectRatio="xMinYMin meet" x="702.5" y="-354"/>
<text text-anchor="start" x="717.5" y="-345.2" font-family="Helvetica,sans-Serif" font-size="11.00">use_restriction</text>
<polygon fill="none" stroke="black" points="697.5,-315 697.5,-337 948.5,-337 948.5,-315 697.5,-315"/>
<image xlink:href="../../images/foreignKeys.png" width="11px" height="12px" preserveAspectRatio="xMinYMin meet" x="702.5" y="-332"/>
<text text-anchor="start" x="717.5" y="-323.2" font-family="Helvetica,sans-Serif" font-size="11.00">land_use</text>
<polygon fill="none" stroke="black" points="697.5,-293 697.5,-315 948.5,-315 948.5,-293 697.5,-293"/>
<image xlink:href="../../images/foreignKeys.png" width="11px" height="12px" preserveAspectRatio="xMinYMin meet" x="702.5" y="-310"/>
<text text-anchor="start" x="717.5" y="-301.2" font-family="Helvetica,sans-Serif" font-size="11.00">marking_state</text>
<polygon fill="none" stroke="black" points="697.5,-271 697.5,-293 948.5,-293 948.5,-271 697.5,-271"/>
<image xlink:href="../../images/foreignKeys.png" width="11px" height="12px" preserveAspectRatio="xMinYMin meet" x="702.5" y="-288"/>
<text text-anchor="start" x="717.5" y="-279.2" font-family="Helvetica,sans-Serif" font-size="11.00">marking_profile</text>
<polygon fill="none" stroke="black" points="697.5,-249 697.5,-271 948.5,-271 948.5,-249 697.5,-249"/>
<image xlink:href="../../images/foreignKeys.png" width="11px" height="12px" preserveAspectRatio="xMinYMin meet" x="702.5" y="-266"/>
<text text-anchor="start" x="717.5" y="-257.2" font-family="Helvetica,sans-Serif" font-size="11.00">terrain_form</text>
<polygon fill="none" stroke="black" points="697.5,-227 697.5,-249 948.5,-249 948.5,-227 697.5,-227"/>
<image xlink:href="../../images/foreignKeys.png" width="11px" height="12px" preserveAspectRatio="xMinYMin meet" x="702.5" y="-244"/>
<text text-anchor="start" x="717.5" y="-235.2" font-family="Helvetica,sans-Serif" font-size="11.00">management_type</text>
<polygon fill="none" stroke="black" points="697.5,-205 697.5,-227 948.5,-227 948.5,-205 697.5,-205"/>
<image xlink:href="../../images/foreignKeys.png" width="11px" height="12px" preserveAspectRatio="xMinYMin meet" x="702.5" y="-222"/>
<text text-anchor="start" x="717.5" y="-213.2" font-family="Helvetica,sans-Serif" font-size="11.00">harvesting_method</text>
<polygon fill="none" stroke="black" points="697.5,-183 697.5,-205 948.5,-205 948.5,-183 697.5,-183"/>
<image xlink:href="../../images/foreignKeys.png" width="11px" height="12px" preserveAspectRatio="xMinYMin meet" x="702.5" y="-200"/>
<text text-anchor="start" x="717.5" y="-191.2" font-family="Helvetica,sans-Serif" font-size="11.00">layer_type</text>
<polygon fill="none" stroke="black" points="697.5,-161 697.5,-183 948.5,-183 948.5,-161 697.5,-161"/>
<image xlink:href="../../images/foreignKeys.png" width="11px" height="12px" preserveAspectRatio="xMinYMin meet" x="702.5" y="-178"/>
<text text-anchor="start" x="717.5" y="-169.2" font-family="Helvetica,sans-Serif" font-size="11.00">stand_phase</text>
<polygon fill="none" stroke="black" points="697.5,-139 697.5,-161 948.5,-161 948.5,-139 697.5,-139"/>
<image xlink:href="../../images/foreignKeys.png" width="11px" height="12px" preserveAspectRatio="xMinYMin meet" x="702.5" y="-156"/>
<text text-anchor="start" x="717.5" y="-147.2" font-family="Helvetica,sans-Serif" font-size="11.00">sablings_layer</text>
<polygon fill="none" stroke="black" points="697.5,-117 697.5,-139 948.5,-139 948.5,-117 697.5,-117"/>
<image xlink:href="../../images/foreignKeys.png" width="11px" height="12px" preserveAspectRatio="xMinYMin meet" x="702.5" y="-134"/>
<text text-anchor="start" x="717.5" y="-125.2" font-family="Helvetica,sans-Serif" font-size="11.00">trees_less_4meter_mirrored</text>
<polygon fill="none" stroke="black" points="697.5,-95 697.5,-117 948.5,-117 948.5,-95 697.5,-95"/>
<image xlink:href="../../images/foreignKeys.png" width="11px" height="12px" preserveAspectRatio="xMinYMin meet" x="702.5" y="-112"/>
<text text-anchor="start" x="717.5" y="-103.2" font-family="Helvetica,sans-Serif" font-size="11.00">trees_less_4meter_count_factor</text>
<polygon fill="none" stroke="black" points="697.5,-73 697.5,-95 948.5,-95 948.5,-73 697.5,-73"/>
<image xlink:href="../../images/foreignKeys.png" width="11px" height="12px" preserveAspectRatio="xMinYMin meet" x="702.5" y="-90"/>
<text text-anchor="start" x="717.5" y="-81.2" font-family="Helvetica,sans-Serif" font-size="11.00">trees_less_4meter_layer</text>
<polygon fill="none" stroke="black" points="697.5,-55 697.5,-73 948.5,-73 948.5,-55 697.5,-55"/>
<text text-anchor="start" x="700.5" y="-61.2" font-family="Helvetica,sans-Serif" font-size="11.00">...</text>
<polygon fill="#ffffff" stroke="transparent" points="697.5,-37 697.5,-55 948.5,-55 948.5,-37 697.5,-37"/>
<polygon fill="none" stroke="black" points="697.5,-37 697.5,-55 948.5,-55 948.5,-37 697.5,-37"/>
<polygon fill="#ffffff" stroke="transparent" points="698.5,-38 698.5,-54 778.5,-54 778.5,-38 698.5,-38"/>
<text text-anchor="start" x="700.5" y="-43.2" font-family="Helvetica,sans-Serif" font-size="11.00">&lt; 24</text>
<polygon fill="#ffffff" stroke="transparent" points="778.5,-38 778.5,-54 875.5,-54 875.5,-38 778.5,-38"/>
<text text-anchor="start" x="805" y="-43.2" font-family="Helvetica,sans-Serif" font-size="11.00">82 rows</text>
<polygon fill="#ffffff" stroke="transparent" points="875.5,-38 875.5,-54 947.5,-54 947.5,-38 875.5,-38"/>
<text text-anchor="start" x="925.5" y="-43.2" font-family="Helvetica,sans-Serif" font-size="11.00">7 &gt;</text>
<polygon fill="black" stroke="black" points="778.5,-38 778.5,-54 778.5,-54 778.5,-38 778.5,-38"/>
<polygon fill="black" stroke="black" points="875.5,-38 875.5,-54 875.5,-54 875.5,-38 875.5,-38"/>
</a>
</g>
</g>
<!-- lookup_trees_less_4meter_layer -->
<g id="node2" class="node">
<title>lookup_trees_less_4meter_layer</title>
<g id="a_node2"><a xlink:href="../../tables/lookup_trees_less_4meter_layer.html" xlink:title="lookup_trees_less_4meter_layer" target="_top">
<polygon fill="#ffffff" stroke="transparent" points="8,-53 8,-185 648,-185 648,-53 8,-53"/>
<polygon fill="#f5f5f5" stroke="transparent" points="10,-161 10,-183 646,-183 646,-161 10,-161"/>
<polygon fill="none" stroke="black" points="10,-161 10,-183 646,-183 646,-161 10,-161"/>
<text text-anchor="start" x="15" y="-170.2" font-family="Helvetica,sans-Serif" font-weight="bold" font-size="11.00">lookup_trees_less_4meter_layer</text>
<text text-anchor="start" x="604" y="-169.2" font-family="Helvetica,sans-Serif" font-size="11.00">[table]</text>
<polygon fill="none" stroke="black" points="10,-139 10,-161 263,-161 263,-139 10,-139"/>
<text text-anchor="start" x="30" y="-147.2" font-family="Helvetica,sans-Serif" font-size="11.00">name_de</text>
<polygon fill="none" stroke="black" points="263,-139 263,-161 646,-161 646,-139 263,-139"/>
<text text-anchor="start" x="266" y="-147.2" font-family="Helvetica,sans-Serif" font-size="11.00">varchar[150]</text>
<polygon fill="none" stroke="black" points="10,-117 10,-139 263,-139 263,-117 10,-117"/>
<text text-anchor="start" x="30" y="-125.2" font-family="Helvetica,sans-Serif" font-size="11.00">name_en</text>
<polygon fill="none" stroke="black" points="263,-117 263,-139 646,-139 646,-117 263,-117"/>
<text text-anchor="start" x="266" y="-125.2" font-family="Helvetica,sans-Serif" font-size="11.00">varchar[150]</text>
<polygon fill="none" stroke="black" points="10,-95 10,-117 263,-117 263,-95 10,-95"/>
<text text-anchor="start" x="30" y="-103.2" font-family="Helvetica,sans-Serif" font-size="11.00">sort</text>
<polygon fill="none" stroke="black" points="263,-95 263,-117 646,-117 646,-95 263,-95"/>
<text text-anchor="start" x="266" y="-103.2" font-family="Helvetica,sans-Serif" font-size="11.00">int4[10]</text>
<polygon fill="#ffffff" stroke="transparent" points="10,-73 10,-95 263,-95 263,-73 10,-73"/>
<polygon fill="none" stroke="black" points="10,-73 10,-95 263,-95 263,-73 10,-73"/>
<text text-anchor="start" x="30" y="-81.2" font-family="Helvetica,sans-Serif" font-size="11.00">abbreviation</text>
<polygon fill="none" stroke="black" points="263,-73 263,-95 646,-95 646,-73 263,-73"/>
<text text-anchor="start" x="266" y="-81.2" font-family="Helvetica,sans-Serif" font-size="11.00">&quot;private_ci2027_001&quot;.&quot;enum_trees_less_4meter_layer&quot;[2147483647]</text>
<polygon fill="#ffffff" stroke="transparent" points="10,-55 10,-73 646,-73 646,-55 10,-55"/>
<polygon fill="none" stroke="black" points="10,-55 10,-73 646,-73 646,-55 10,-55"/>
<polygon fill="#ffffff" stroke="transparent" points="11,-56 11,-72 217,-72 217,-56 11,-56"/>
<text text-anchor="start" x="13" y="-61.2" font-family="Helvetica,sans-Serif" font-size="11.00">&lt; 0</text>
<polygon fill="#ffffff" stroke="transparent" points="217,-56 217,-72 440,-72 440,-56 217,-56"/>
<text text-anchor="start" x="310" y="-61.2" font-family="Helvetica,sans-Serif" font-size="11.00">0 rows</text>
<polygon fill="#ffffff" stroke="transparent" points="440,-56 440,-72 645,-72 645,-56 440,-56"/>
<text text-anchor="start" x="623" y="-61.2" font-family="Helvetica,sans-Serif" font-size="11.00">1 &gt;</text>
<polygon fill="black" stroke="black" points="217,-56 217,-72 217,-72 217,-56 217,-56"/>
<polygon fill="black" stroke="black" points="440,-56 440,-72 440,-72 440,-56 440,-56"/>
<polygon fill="none" stroke="black" stroke-width="2" points="9,-54 9,-184 647,-184 647,-54 9,-54"/>
</a>
</g>
</g>
<!-- plot&#45;&gt;lookup_trees_less_4meter_layer -->
<g id="edge1" class="edge">
<title>plot:w&#45;&gt;lookup_trees_less_4meter_layer:e</title>
<path fill="none" stroke="black" d="M681.84,-84C670.41,-84 663.16,-84 647,-84"/>
<polygon fill="black" stroke="black" points="688.5,-84 696.5,-87.6 692.5,-84 696.5,-84 696.5,-84 696.5,-84 692.5,-84 696.5,-80.4 688.5,-84 688.5,-84"/>
<ellipse fill="none" stroke="black" cx="685.3" cy="-84" rx="3.2" ry="3.2"/>
</g>
</g>
</svg>
