<?xml version="1.0" encoding="UTF-8" standalone="no"?>
<!DOCTYPE svg PUBLIC "-//W3C//DTD SVG 1.1//EN"
 "http://www.w3.org/Graphics/SVG/1.1/DTD/svg11.dtd">
<!-- Generated by graphviz version 2.43.0 (0)
 -->
<!-- Title: twoDegreesRelationshipsDiagram Pages: 1 -->
<svg width="911pt" height="631pt"
 viewBox="0.00 0.00 911.00 630.64" xmlns="http://www.w3.org/2000/svg" xmlns:xlink="http://www.w3.org/1999/xlink">
<g id="graph0" class="graph" transform="scale(1 1) rotate(0) translate(4 626.64)">
<title>twoDegreesRelationshipsDiagram</title>
<polygon fill="#ffffff" stroke="transparent" points="-4,4 -4,-626.64 907,-626.64 907,4 -4,4"/>
<text text-anchor="middle" x="79.5" y="-7.2" font-family="Helvetica,sans-Serif" font-size="11.00">Generated by SchemaSpy</text>
<!-- plot -->
<g id="node1" class="node">
<title>plot</title>
<g id="a_node1"><a xlink:href="../../tables/plot.html" xlink:title="plot" target="_top">
<polygon fill="#ffffff" stroke="transparent" points="409.5,-560.64 409.5,-618.64 507.5,-618.64 507.5,-560.64 409.5,-560.64"/>
<polygon fill="#f5f5f5" stroke="transparent" points="409.5,-596.64 409.5,-618.64 507.5,-618.64 507.5,-596.64 409.5,-596.64"/>
<polygon fill="none" stroke="black" points="409.5,-596.64 409.5,-618.64 507.5,-618.64 507.5,-596.64 409.5,-596.64"/>
<text text-anchor="start" x="414" y="-605.84" font-family="Helvetica,sans-Serif" font-weight="bold" font-size="11.00">plot</text>
<text text-anchor="start" x="465.5" y="-604.84" font-family="Helvetica,sans-Serif" font-size="11.00">[table]</text>
<polygon fill="none" stroke="black" points="409.5,-578.64 409.5,-596.64 507.5,-596.64 507.5,-578.64 409.5,-578.64"/>
<text text-anchor="start" x="412.5" y="-584.84" font-family="Helvetica,sans-Serif" font-size="11.00">...</text>
<polygon fill="#ffffff" stroke="transparent" points="409.5,-560.64 409.5,-578.64 507.5,-578.64 507.5,-560.64 409.5,-560.64"/>
<polygon fill="none" stroke="black" points="409.5,-560.64 409.5,-578.64 507.5,-578.64 507.5,-560.64 409.5,-560.64"/>
<polygon fill="#ffffff" stroke="transparent" points="410.5,-561.64 410.5,-577.64 441.5,-577.64 441.5,-561.64 410.5,-561.64"/>
<text text-anchor="start" x="412.5" y="-566.84" font-family="Helvetica,sans-Serif" font-size="11.00">&lt; 24</text>
<polygon fill="#ffffff" stroke="transparent" points="441.5,-561.64 441.5,-577.64 482.5,-577.64 482.5,-561.64 441.5,-561.64"/>
<text text-anchor="start" x="443.5" y="-566.84" font-family="Helvetica,sans-Serif" font-size="11.00">0 rows</text>
<polygon fill="#ffffff" stroke="transparent" points="482.5,-561.64 482.5,-577.64 506.5,-577.64 506.5,-561.64 482.5,-561.64"/>
<text text-anchor="start" x="484.5" y="-566.84" font-family="Helvetica,sans-Serif" font-size="11.00">7 &gt;</text>
<polygon fill="black" stroke="black" points="441.5,-561.64 441.5,-577.64 441.5,-577.64 441.5,-561.64 441.5,-561.64"/>
<polygon fill="black" stroke="black" points="482.5,-561.64 482.5,-577.64 482.5,-577.64 482.5,-561.64 482.5,-561.64"/>
</a>
</g>
</g>
<!-- lookup_stand_layer -->
<g id="node2" class="node">
<title>lookup_stand_layer</title>
<g id="a_node2"><a xlink:href="../../tables/lookup_stand_layer.html" xlink:title="lookup_stand_layer" target="_top">
<polygon fill="#ffffff" stroke="transparent" points="8,-300.64 8,-358.64 195,-358.64 195,-300.64 8,-300.64"/>
<polygon fill="#f5f5f5" stroke="transparent" points="8.5,-336.64 8.5,-358.64 195.5,-358.64 195.5,-336.64 8.5,-336.64"/>
<polygon fill="none" stroke="black" points="8.5,-336.64 8.5,-358.64 195.5,-358.64 195.5,-336.64 8.5,-336.64"/>
<text text-anchor="start" x="13.5" y="-345.84" font-family="Helvetica,sans-Serif" font-weight="bold" font-size="11.00">lookup_stand_layer</text>
<text text-anchor="start" x="153.5" y="-344.84" font-family="Helvetica,sans-Serif" font-size="11.00">[table]</text>
<polygon fill="none" stroke="black" points="8.5,-318.64 8.5,-336.64 195.5,-336.64 195.5,-318.64 8.5,-318.64"/>
<text text-anchor="start" x="11.5" y="-324.84" font-family="Helvetica,sans-Serif" font-size="11.00">...</text>
<polygon fill="#ffffff" stroke="transparent" points="8.5,-300.64 8.5,-318.64 195.5,-318.64 195.5,-300.64 8.5,-300.64"/>
<polygon fill="none" stroke="black" points="8.5,-300.64 8.5,-318.64 195.5,-318.64 195.5,-300.64 8.5,-300.64"/>
<polygon fill="#ffffff" stroke="transparent" points="9.5,-301.64 9.5,-317.64 57.5,-317.64 57.5,-301.64 9.5,-301.64"/>
<text text-anchor="start" x="11.5" y="-306.84" font-family="Helvetica,sans-Serif" font-size="11.00"> &#160;</text>
<polygon fill="#ffffff" stroke="transparent" points="57.5,-301.64 57.5,-317.64 134.5,-317.64 134.5,-301.64 57.5,-301.64"/>
<text text-anchor="start" x="77.5" y="-306.84" font-family="Helvetica,sans-Serif" font-size="11.00">0 rows</text>
<polygon fill="#ffffff" stroke="transparent" points="134.5,-301.64 134.5,-317.64 194.5,-317.64 194.5,-301.64 134.5,-301.64"/>
<text text-anchor="start" x="172.5" y="-306.84" font-family="Helvetica,sans-Serif" font-size="11.00">2 &gt;</text>
<polygon fill="black" stroke="black" points="57.5,-301.64 57.5,-317.64 57.5,-317.64 57.5,-301.64 57.5,-301.64"/>
<polygon fill="black" stroke="black" points="134.5,-301.64 134.5,-317.64 134.5,-317.64 134.5,-301.64 134.5,-301.64"/>
</a>
</g>
</g>
<!-- plot&#45;&gt;lookup_stand_layer -->
<g id="edge1" class="edge">
<title>plot:w&#45;&gt;lookup_stand_layer:e</title>
<path fill="none" stroke="black" d="M393.81,-587.85C324.92,-589.83 286.93,-603.43 236,-550.64 201.06,-514.42 246.83,-327.64 196.5,-327.64"/>
<polygon fill="black" stroke="black" points="400.5,-587.76 408.55,-591.24 404.5,-587.7 408.5,-587.64 408.5,-587.64 408.5,-587.64 404.5,-587.7 408.45,-584.04 400.5,-587.76 400.5,-587.76"/>
<ellipse fill="none" stroke="black" cx="397.3" cy="-587.8" rx="3.2" ry="3.2"/>
</g>
<!-- wzp_tree -->
<g id="node3" class="node">
<title>wzp_tree</title>
<g id="a_node3"><a xlink:href="../../tables/wzp_tree.html" xlink:title="wzp_tree" target="_top">
<polygon fill="#ffffff" stroke="transparent" points="722,-237.64 722,-471.64 895,-471.64 895,-237.64 722,-237.64"/>
<polygon fill="#f5f5f5" stroke="transparent" points="722.5,-449.64 722.5,-471.64 895.5,-471.64 895.5,-449.64 722.5,-449.64"/>
<polygon fill="none" stroke="black" points="722.5,-449.64 722.5,-471.64 895.5,-471.64 895.5,-449.64 722.5,-449.64"/>
<text text-anchor="start" x="727.5" y="-458.84" font-family="Helvetica,sans-Serif" font-weight="bold" font-size="11.00">wzp_tree</text>
<text text-anchor="start" x="853.5" y="-457.84" font-family="Helvetica,sans-Serif" font-size="11.00">[table]</text>
<polygon fill="none" stroke="black" points="722.5,-427.64 722.5,-449.64 895.5,-449.64 895.5,-427.64 722.5,-427.64"/>
<image xlink:href="../../images/primaryKeys.png" width="11px" height="12px" preserveAspectRatio="xMinYMin meet" x="727.5" y="-444.638"/>
<text text-anchor="start" x="742.5" y="-435.84" font-family="Helvetica,sans-Serif" font-size="11.00">id</text>
<polygon fill="none" stroke="black" points="722.5,-405.64 722.5,-427.64 895.5,-427.64 895.5,-405.64 722.5,-405.64"/>
<image xlink:href="../../images/foreignKeys.png" width="11px" height="12px" preserveAspectRatio="xMinYMin meet" x="727.5" y="-422.638"/>
<text text-anchor="start" x="742.5" y="-413.84" font-family="Helvetica,sans-Serif" font-size="11.00">plot_id</text>
<polygon fill="none" stroke="black" points="722.5,-383.64 722.5,-405.64 895.5,-405.64 895.5,-383.64 722.5,-383.64"/>
<image xlink:href="../../images/foreignKeys.png" width="11px" height="12px" preserveAspectRatio="xMinYMin meet" x="727.5" y="-400.638"/>
<text text-anchor="start" x="742.5" y="-391.84" font-family="Helvetica,sans-Serif" font-size="11.00">tree_state</text>
<polygon fill="none" stroke="black" points="722.5,-361.64 722.5,-383.64 895.5,-383.64 895.5,-361.64 722.5,-361.64"/>
<image xlink:href="../../images/foreignKeys.png" width="11px" height="12px" preserveAspectRatio="xMinYMin meet" x="727.5" y="-378.638"/>
<text text-anchor="start" x="742.5" y="-369.84" font-family="Helvetica,sans-Serif" font-size="11.00">tree_species</text>
<polygon fill="none" stroke="black" points="722.5,-339.64 722.5,-361.64 895.5,-361.64 895.5,-339.64 722.5,-339.64"/>
<image xlink:href="../../images/foreignKeys.png" width="11px" height="12px" preserveAspectRatio="xMinYMin meet" x="727.5" y="-356.638"/>
<text text-anchor="start" x="742.5" y="-347.84" font-family="Helvetica,sans-Serif" font-size="11.00">stem_breakage</text>
<polygon fill="none" stroke="black" points="722.5,-317.64 722.5,-339.64 895.5,-339.64 895.5,-317.64 722.5,-317.64"/>
<image xlink:href="../../images/foreignKeys.png" width="11px" height="12px" preserveAspectRatio="xMinYMin meet" x="727.5" y="-334.638"/>
<text text-anchor="start" x="742.5" y="-325.84" font-family="Helvetica,sans-Serif" font-size="11.00">stem_form</text>
<polygon fill="none" stroke="black" points="722.5,-295.64 722.5,-317.64 895.5,-317.64 895.5,-295.64 722.5,-295.64"/>
<image xlink:href="../../images/foreignKeys.png" width="11px" height="12px" preserveAspectRatio="xMinYMin meet" x="727.5" y="-312.638"/>
<text text-anchor="start" x="742.5" y="-303.84" font-family="Helvetica,sans-Serif" font-size="11.00">pruning</text>
<polygon fill="none" stroke="black" points="722.5,-273.64 722.5,-295.64 895.5,-295.64 895.5,-273.64 722.5,-273.64"/>
<image xlink:href="../../images/foreignKeys.png" width="11px" height="12px" preserveAspectRatio="xMinYMin meet" x="727.5" y="-290.638"/>
<text text-anchor="start" x="742.5" y="-281.84" font-family="Helvetica,sans-Serif" font-size="11.00">inventory_layer</text>
<polygon fill="none" stroke="black" points="722.5,-255.64 722.5,-273.64 895.5,-273.64 895.5,-255.64 722.5,-255.64"/>
<text text-anchor="start" x="725.5" y="-261.84" font-family="Helvetica,sans-Serif" font-size="11.00">...</text>
<polygon fill="#ffffff" stroke="transparent" points="722.5,-237.64 722.5,-255.64 895.5,-255.64 895.5,-237.64 722.5,-237.64"/>
<polygon fill="none" stroke="black" points="722.5,-237.64 722.5,-255.64 895.5,-255.64 895.5,-237.64 722.5,-237.64"/>
<polygon fill="#ffffff" stroke="transparent" points="723.5,-238.64 723.5,-254.64 779.5,-254.64 779.5,-238.64 723.5,-238.64"/>
<text text-anchor="start" x="725.5" y="-243.84" font-family="Helvetica,sans-Serif" font-size="11.00">&lt; 7</text>
<polygon fill="#ffffff" stroke="transparent" points="779.5,-238.64 779.5,-254.64 851.5,-254.64 851.5,-238.64 779.5,-238.64"/>
<text text-anchor="start" x="797" y="-243.84" font-family="Helvetica,sans-Serif" font-size="11.00">0 rows</text>
<polygon fill="#ffffff" stroke="transparent" points="851.5,-238.64 851.5,-254.64 894.5,-254.64 894.5,-238.64 851.5,-238.64"/>
<text text-anchor="start" x="884.5" y="-243.84" font-family="Helvetica,sans-Serif" font-size="11.00"> &#160;</text>
<polygon fill="black" stroke="black" points="779.5,-238.64 779.5,-254.64 779.5,-254.64 779.5,-238.64 779.5,-238.64"/>
<polygon fill="black" stroke="black" points="851.5,-238.64 851.5,-254.64 851.5,-254.64 851.5,-238.64 851.5,-238.64"/>
</a>
</g>
</g>
<!-- wzp_tree&#45;&gt;plot -->
<g id="edge3" class="edge">
<title>wzp_tree:w&#45;&gt;plot:e</title>
<path fill="none" stroke="black" d="M707.22,-418.94C670.94,-433.42 722.47,-512.44 681,-550.64 623.32,-603.76 586.91,-587.64 508.5,-587.64"/>
<polygon fill="black" stroke="black" points="713.6,-417.91 722.07,-420.19 717.55,-417.28 721.5,-416.64 721.5,-416.64 721.5,-416.64 717.55,-417.28 720.93,-413.08 713.6,-417.91 713.6,-417.91"/>
<ellipse fill="none" stroke="black" cx="710.44" cy="-418.42" rx="3.2" ry="3.2"/>
</g>
<!-- wzp_tree&#45;&gt;lookup_stand_layer -->
<g id="edge2" class="edge">
<title>wzp_tree:w&#45;&gt;lookup_stand_layer:e</title>
<path fill="none" stroke="black" d="M706.99,-283.09C643.29,-267.35 748.12,-135.74 681,-80.64 604.57,-17.89 311.24,-16.47 236,-80.64 193.7,-116.71 252.09,-327.64 196.5,-327.64"/>
<polygon fill="black" stroke="black" points="713.55,-283.79 721.12,-288.22 717.52,-284.21 721.5,-284.64 721.5,-284.64 721.5,-284.64 717.52,-284.21 721.88,-281.06 713.55,-283.79 713.55,-283.79"/>
<ellipse fill="none" stroke="black" cx="710.36" cy="-283.45" rx="3.2" ry="3.2"/>
</g>
<!-- lookup_pruning -->
<g id="node4" class="node">
<title>lookup_pruning</title>
<g id="a_node4"><a xlink:href="../../tables/lookup_pruning.html" xlink:title="lookup_pruning" target="_top">
<polygon fill="#ffffff" stroke="transparent" points="244,-91.64 244,-223.64 673,-223.64 673,-91.64 244,-91.64"/>
<polygon fill="#f5f5f5" stroke="transparent" points="246.5,-199.64 246.5,-221.64 671.5,-221.64 671.5,-199.64 246.5,-199.64"/>
<polygon fill="none" stroke="black" points="246.5,-199.64 246.5,-221.64 671.5,-221.64 671.5,-199.64 246.5,-199.64"/>
<text text-anchor="start" x="251.5" y="-208.84" font-family="Helvetica,sans-Serif" font-weight="bold" font-size="11.00">lookup_pruning</text>
<text text-anchor="start" x="629.5" y="-207.84" font-family="Helvetica,sans-Serif" font-size="11.00">[table]</text>
<polygon fill="none" stroke="black" points="246.5,-177.64 246.5,-199.64 380.5,-199.64 380.5,-177.64 246.5,-177.64"/>
<text text-anchor="start" x="266.5" y="-185.84" font-family="Helvetica,sans-Serif" font-size="11.00">name_de</text>
<polygon fill="none" stroke="black" points="380.5,-177.64 380.5,-199.64 671.5,-199.64 671.5,-177.64 380.5,-177.64"/>
<text text-anchor="start" x="383.5" y="-185.84" font-family="Helvetica,sans-Serif" font-size="11.00">varchar[150]</text>
<polygon fill="none" stroke="black" points="246.5,-155.64 246.5,-177.64 380.5,-177.64 380.5,-155.64 246.5,-155.64"/>
<text text-anchor="start" x="266.5" y="-163.84" font-family="Helvetica,sans-Serif" font-size="11.00">name_en</text>
<polygon fill="none" stroke="black" points="380.5,-155.64 380.5,-177.64 671.5,-177.64 671.5,-155.64 380.5,-155.64"/>
<text text-anchor="start" x="383.5" y="-163.84" font-family="Helvetica,sans-Serif" font-size="11.00">varchar[150]</text>
<polygon fill="none" stroke="black" points="246.5,-133.64 246.5,-155.64 380.5,-155.64 380.5,-133.64 246.5,-133.64"/>
<text text-anchor="start" x="266.5" y="-141.84" font-family="Helvetica,sans-Serif" font-size="11.00">sort</text>
<polygon fill="none" stroke="black" points="380.5,-133.64 380.5,-155.64 671.5,-155.64 671.5,-133.64 380.5,-133.64"/>
<text text-anchor="start" x="383.5" y="-141.84" font-family="Helvetica,sans-Serif" font-size="11.00">int4[10]</text>
<polygon fill="#ffffff" stroke="transparent" points="246.5,-111.64 246.5,-133.64 380.5,-133.64 380.5,-111.64 246.5,-111.64"/>
<polygon fill="none" stroke="black" points="246.5,-111.64 246.5,-133.64 380.5,-133.64 380.5,-111.64 246.5,-111.64"/>
<text text-anchor="start" x="266.5" y="-119.84" font-family="Helvetica,sans-Serif" font-size="11.00">abbreviation</text>
<polygon fill="none" stroke="black" points="380.5,-111.64 380.5,-133.64 671.5,-133.64 671.5,-111.64 380.5,-111.64"/>
<text text-anchor="start" x="383.5" y="-119.84" font-family="Helvetica,sans-Serif" font-size="11.00">&quot;private_ci2027_001&quot;.&quot;enum_pruning&quot;[2147483647]</text>
<polygon fill="#ffffff" stroke="transparent" points="246.5,-93.64 246.5,-111.64 671.5,-111.64 671.5,-93.64 246.5,-93.64"/>
<polygon fill="none" stroke="black" points="246.5,-93.64 246.5,-111.64 671.5,-111.64 671.5,-93.64 246.5,-93.64"/>
<polygon fill="#ffffff" stroke="transparent" points="247.5,-94.64 247.5,-110.64 383.5,-110.64 383.5,-94.64 247.5,-94.64"/>
<text text-anchor="start" x="249.5" y="-99.84" font-family="Helvetica,sans-Serif" font-size="11.00">&lt; 0</text>
<polygon fill="#ffffff" stroke="transparent" points="383.5,-94.64 383.5,-110.64 535.5,-110.64 535.5,-94.64 383.5,-94.64"/>
<text text-anchor="start" x="441" y="-99.84" font-family="Helvetica,sans-Serif" font-size="11.00">0 rows</text>
<polygon fill="#ffffff" stroke="transparent" points="535.5,-94.64 535.5,-110.64 670.5,-110.64 670.5,-94.64 535.5,-94.64"/>
<text text-anchor="start" x="648.5" y="-99.84" font-family="Helvetica,sans-Serif" font-size="11.00">1 &gt;</text>
<polygon fill="black" stroke="black" points="383.5,-94.64 383.5,-110.64 383.5,-110.64 383.5,-94.64 383.5,-94.64"/>
<polygon fill="black" stroke="black" points="535.5,-94.64 535.5,-110.64 535.5,-110.64 535.5,-94.64 535.5,-94.64"/>
<polygon fill="none" stroke="black" stroke-width="2" points="245,-92.64 245,-222.64 672,-222.64 672,-92.64 245,-92.64"/>
</a>
</g>
</g>
<!-- wzp_tree&#45;&gt;lookup_pruning -->
<g id="edge4" class="edge">
<title>wzp_tree:w&#45;&gt;lookup_pruning:e</title>
<path fill="none" stroke="black" d="M707.23,-304.31C651.94,-283.01 751.51,-122.64 672.5,-122.64"/>
<polygon fill="black" stroke="black" points="713.6,-305.35 720.92,-310.19 717.55,-305.99 721.5,-306.64 721.5,-306.64 721.5,-306.64 717.55,-305.99 722.08,-303.08 713.6,-305.35 713.6,-305.35"/>
<ellipse fill="none" stroke="black" cx="710.45" cy="-304.84" rx="3.2" ry="3.2"/>
</g>
<!-- lookup_stem_breakage -->
<g id="node5" class="node">
<title>lookup_stem_breakage</title>
<g id="a_node5"><a xlink:href="../../tables/lookup_stem_breakage.html" xlink:title="lookup_stem_breakage" target="_top">
<polygon fill="#ffffff" stroke="transparent" points="351.5,-323.64 351.5,-381.64 565.5,-381.64 565.5,-323.64 351.5,-323.64"/>
<polygon fill="#f5f5f5" stroke="transparent" points="351.5,-359.64 351.5,-381.64 565.5,-381.64 565.5,-359.64 351.5,-359.64"/>
<polygon fill="none" stroke="black" points="351.5,-359.64 351.5,-381.64 565.5,-381.64 565.5,-359.64 351.5,-359.64"/>
<text text-anchor="start" x="356.5" y="-368.84" font-family="Helvetica,sans-Serif" font-weight="bold" font-size="11.00">lookup_stem_breakage</text>
<text text-anchor="start" x="523.5" y="-367.84" font-family="Helvetica,sans-Serif" font-size="11.00">[table]</text>
<polygon fill="none" stroke="black" points="351.5,-341.64 351.5,-359.64 565.5,-359.64 565.5,-341.64 351.5,-341.64"/>
<text text-anchor="start" x="354.5" y="-347.84" font-family="Helvetica,sans-Serif" font-size="11.00">...</text>
<polygon fill="#ffffff" stroke="transparent" points="351.5,-323.64 351.5,-341.64 565.5,-341.64 565.5,-323.64 351.5,-323.64"/>
<polygon fill="none" stroke="black" points="351.5,-323.64 351.5,-341.64 565.5,-341.64 565.5,-323.64 351.5,-323.64"/>
<polygon fill="#ffffff" stroke="transparent" points="352.5,-324.64 352.5,-340.64 409.5,-340.64 409.5,-324.64 352.5,-324.64"/>
<text text-anchor="start" x="354.5" y="-329.84" font-family="Helvetica,sans-Serif" font-size="11.00"> &#160;</text>
<polygon fill="#ffffff" stroke="transparent" points="409.5,-324.64 409.5,-340.64 495.5,-340.64 495.5,-324.64 409.5,-324.64"/>
<text text-anchor="start" x="434" y="-329.84" font-family="Helvetica,sans-Serif" font-size="11.00">0 rows</text>
<polygon fill="#ffffff" stroke="transparent" points="495.5,-324.64 495.5,-340.64 564.5,-340.64 564.5,-324.64 495.5,-324.64"/>
<text text-anchor="start" x="542.5" y="-329.84" font-family="Helvetica,sans-Serif" font-size="11.00">1 &gt;</text>
<polygon fill="black" stroke="black" points="409.5,-324.64 409.5,-340.64 409.5,-340.64 409.5,-324.64 409.5,-324.64"/>
<polygon fill="black" stroke="black" points="495.5,-324.64 495.5,-340.64 495.5,-340.64 495.5,-324.64 495.5,-324.64"/>
</a>
</g>
</g>
<!-- wzp_tree&#45;&gt;lookup_stem_breakage -->
<g id="edge5" class="edge">
<title>wzp_tree:w&#45;&gt;lookup_stem_breakage:e</title>
<path fill="none" stroke="black" d="M706.97,-350.64C649.77,-350.64 630.28,-350.64 566.5,-350.64"/>
<polygon fill="black" stroke="black" points="713.5,-350.64 721.5,-354.24 717.5,-350.64 721.5,-350.64 721.5,-350.64 721.5,-350.64 717.5,-350.64 721.5,-347.04 713.5,-350.64 713.5,-350.64"/>
<ellipse fill="none" stroke="black" cx="710.3" cy="-350.64" rx="3.2" ry="3.2"/>
</g>
<!-- lookup_stem_form -->
<g id="node6" class="node">
<title>lookup_stem_form</title>
<g id="a_node6"><a xlink:href="../../tables/lookup_stem_form.html" xlink:title="lookup_stem_form" target="_top">
<polygon fill="#ffffff" stroke="transparent" points="368.5,-244.64 368.5,-302.64 548.5,-302.64 548.5,-244.64 368.5,-244.64"/>
<polygon fill="#f5f5f5" stroke="transparent" points="368.5,-280.64 368.5,-302.64 548.5,-302.64 548.5,-280.64 368.5,-280.64"/>
<polygon fill="none" stroke="black" points="368.5,-280.64 368.5,-302.64 548.5,-302.64 548.5,-280.64 368.5,-280.64"/>
<text text-anchor="start" x="373.5" y="-289.84" font-family="Helvetica,sans-Serif" font-weight="bold" font-size="11.00">lookup_stem_form</text>
<text text-anchor="start" x="506.5" y="-288.84" font-family="Helvetica,sans-Serif" font-size="11.00">[table]</text>
<polygon fill="none" stroke="black" points="368.5,-262.64 368.5,-280.64 548.5,-280.64 548.5,-262.64 368.5,-262.64"/>
<text text-anchor="start" x="371.5" y="-268.84" font-family="Helvetica,sans-Serif" font-size="11.00">...</text>
<polygon fill="#ffffff" stroke="transparent" points="368.5,-244.64 368.5,-262.64 548.5,-262.64 548.5,-244.64 368.5,-244.64"/>
<polygon fill="none" stroke="black" points="368.5,-244.64 368.5,-262.64 548.5,-262.64 548.5,-244.64 368.5,-244.64"/>
<polygon fill="#ffffff" stroke="transparent" points="369.5,-245.64 369.5,-261.64 415.5,-261.64 415.5,-245.64 369.5,-245.64"/>
<text text-anchor="start" x="371.5" y="-250.84" font-family="Helvetica,sans-Serif" font-size="11.00"> &#160;</text>
<polygon fill="#ffffff" stroke="transparent" points="415.5,-245.64 415.5,-261.64 490.5,-261.64 490.5,-245.64 415.5,-245.64"/>
<text text-anchor="start" x="434.5" y="-250.84" font-family="Helvetica,sans-Serif" font-size="11.00">0 rows</text>
<polygon fill="#ffffff" stroke="transparent" points="490.5,-245.64 490.5,-261.64 547.5,-261.64 547.5,-245.64 490.5,-245.64"/>
<text text-anchor="start" x="525.5" y="-250.84" font-family="Helvetica,sans-Serif" font-size="11.00">1 &gt;</text>
<polygon fill="black" stroke="black" points="415.5,-245.64 415.5,-261.64 415.5,-261.64 415.5,-245.64 415.5,-245.64"/>
<polygon fill="black" stroke="black" points="490.5,-245.64 490.5,-261.64 490.5,-261.64 490.5,-245.64 490.5,-245.64"/>
</a>
</g>
</g>
<!-- wzp_tree&#45;&gt;lookup_stem_form -->
<g id="edge6" class="edge">
<title>wzp_tree:w&#45;&gt;lookup_stem_form:e</title>
<path fill="none" stroke="black" d="M707.26,-326.42C698.87,-323.42 693.48,-317.94 681,-313.64 623,-293.64 610.85,-271.64 549.5,-271.64"/>
<polygon fill="black" stroke="black" points="713.6,-327.41 720.95,-332.19 717.55,-328.02 721.5,-328.64 721.5,-328.64 721.5,-328.64 717.55,-328.02 722.05,-325.08 713.6,-327.41 713.6,-327.41"/>
<ellipse fill="none" stroke="black" cx="710.43" cy="-326.91" rx="3.2" ry="3.2"/>
</g>
<!-- lookup_tree_species -->
<g id="node7" class="node">
<title>lookup_tree_species</title>
<g id="a_node7"><a xlink:href="../../tables/lookup_tree_species.html" xlink:title="lookup_tree_species" target="_top">
<polygon fill="#ffffff" stroke="transparent" points="361.5,-402.64 361.5,-460.64 555.5,-460.64 555.5,-402.64 361.5,-402.64"/>
<polygon fill="#f5f5f5" stroke="transparent" points="361.5,-438.64 361.5,-460.64 555.5,-460.64 555.5,-438.64 361.5,-438.64"/>
<polygon fill="none" stroke="black" points="361.5,-438.64 361.5,-460.64 555.5,-460.64 555.5,-438.64 361.5,-438.64"/>
<text text-anchor="start" x="366.5" y="-447.84" font-family="Helvetica,sans-Serif" font-weight="bold" font-size="11.00">lookup_tree_species</text>
<text text-anchor="start" x="513.5" y="-446.84" font-family="Helvetica,sans-Serif" font-size="11.00">[table]</text>
<polygon fill="none" stroke="black" points="361.5,-420.64 361.5,-438.64 555.5,-438.64 555.5,-420.64 361.5,-420.64"/>
<text text-anchor="start" x="364.5" y="-426.84" font-family="Helvetica,sans-Serif" font-size="11.00">...</text>
<polygon fill="#ffffff" stroke="transparent" points="361.5,-402.64 361.5,-420.64 555.5,-420.64 555.5,-402.64 361.5,-402.64"/>
<polygon fill="none" stroke="black" points="361.5,-402.64 361.5,-420.64 555.5,-420.64 555.5,-402.64 361.5,-402.64"/>
<polygon fill="#ffffff" stroke="transparent" points="362.5,-403.64 362.5,-419.64 408.5,-419.64 408.5,-403.64 362.5,-403.64"/>
<text text-anchor="start" x="364.5" y="-408.84" font-family="Helvetica,sans-Serif" font-size="11.00"> &#160;</text>
<polygon fill="#ffffff" stroke="transparent" points="408.5,-403.64 408.5,-419.64 497.5,-419.64 497.5,-403.64 408.5,-403.64"/>
<text text-anchor="start" x="427.5" y="-408.84" font-family="Helvetica,sans-Serif" font-size="11.00">125 rows</text>
<polygon fill="#ffffff" stroke="transparent" points="497.5,-403.64 497.5,-419.64 554.5,-419.64 554.5,-403.64 497.5,-403.64"/>
<text text-anchor="start" x="532.5" y="-408.84" font-family="Helvetica,sans-Serif" font-size="11.00">3 &gt;</text>
<polygon fill="black" stroke="black" points="408.5,-403.64 408.5,-419.64 408.5,-419.64 408.5,-403.64 408.5,-403.64"/>
<polygon fill="black" stroke="black" points="497.5,-403.64 497.5,-419.64 497.5,-419.64 497.5,-403.64 497.5,-403.64"/>
</a>
</g>
</g>
<!-- wzp_tree&#45;&gt;lookup_tree_species -->
<g id="edge7" class="edge">
<title>wzp_tree:w&#45;&gt;lookup_tree_species:e</title>
<path fill="none" stroke="black" d="M707.26,-375.66C698.79,-379.86 693.99,-387.54 681,-392.64 627.26,-413.72 614.23,-429.64 556.5,-429.64"/>
<polygon fill="black" stroke="black" points="713.67,-374.3 722.25,-376.16 717.59,-373.47 721.5,-372.64 721.5,-372.64 721.5,-372.64 717.59,-373.47 720.75,-369.12 713.67,-374.3 713.67,-374.3"/>
<ellipse fill="none" stroke="black" cx="710.54" cy="-374.96" rx="3.2" ry="3.2"/>
</g>
<!-- lookup_tree_state -->
<g id="node8" class="node">
<title>lookup_tree_state</title>
<g id="a_node8"><a xlink:href="../../tables/lookup_tree_state.html" xlink:title="lookup_tree_state" target="_top">
<polygon fill="#ffffff" stroke="transparent" points="370,-481.64 370,-539.64 547,-539.64 547,-481.64 370,-481.64"/>
<polygon fill="#f5f5f5" stroke="transparent" points="370.5,-517.64 370.5,-539.64 547.5,-539.64 547.5,-517.64 370.5,-517.64"/>
<polygon fill="none" stroke="black" points="370.5,-517.64 370.5,-539.64 547.5,-539.64 547.5,-517.64 370.5,-517.64"/>
<text text-anchor="start" x="375.5" y="-526.84" font-family="Helvetica,sans-Serif" font-weight="bold" font-size="11.00">lookup_tree_state</text>
<text text-anchor="start" x="505.5" y="-525.84" font-family="Helvetica,sans-Serif" font-size="11.00">[table]</text>
<polygon fill="none" stroke="black" points="370.5,-499.64 370.5,-517.64 547.5,-517.64 547.5,-499.64 370.5,-499.64"/>
<text text-anchor="start" x="373.5" y="-505.84" font-family="Helvetica,sans-Serif" font-size="11.00">...</text>
<polygon fill="#ffffff" stroke="transparent" points="370.5,-481.64 370.5,-499.64 547.5,-499.64 547.5,-481.64 370.5,-481.64"/>
<polygon fill="none" stroke="black" points="370.5,-481.64 370.5,-499.64 547.5,-499.64 547.5,-481.64 370.5,-481.64"/>
<polygon fill="#ffffff" stroke="transparent" points="371.5,-482.64 371.5,-498.64 416.5,-498.64 416.5,-482.64 371.5,-482.64"/>
<text text-anchor="start" x="373.5" y="-487.84" font-family="Helvetica,sans-Serif" font-size="11.00"> &#160;</text>
<polygon fill="#ffffff" stroke="transparent" points="416.5,-482.64 416.5,-498.64 490.5,-498.64 490.5,-482.64 416.5,-482.64"/>
<text text-anchor="start" x="435" y="-487.84" font-family="Helvetica,sans-Serif" font-size="11.00">0 rows</text>
<polygon fill="#ffffff" stroke="transparent" points="490.5,-482.64 490.5,-498.64 546.5,-498.64 546.5,-482.64 490.5,-482.64"/>
<text text-anchor="start" x="524.5" y="-487.84" font-family="Helvetica,sans-Serif" font-size="11.00">1 &gt;</text>
<polygon fill="black" stroke="black" points="416.5,-482.64 416.5,-498.64 416.5,-498.64 416.5,-482.64 416.5,-482.64"/>
<polygon fill="black" stroke="black" points="490.5,-482.64 490.5,-498.64 490.5,-498.64 490.5,-482.64 490.5,-482.64"/>
</a>
</g>
</g>
<!-- wzp_tree&#45;&gt;lookup_tree_state -->
<g id="edge8" class="edge">
<title>wzp_tree:w&#45;&gt;lookup_tree_state:e</title>
<path fill="none" stroke="black" d="M707.32,-398.54C690.53,-411.17 706.15,-451.33 681,-471.64 633.44,-510.06 609.64,-508.64 548.5,-508.64"/>
<polygon fill="black" stroke="black" points="713.79,-396.76 722.45,-398.11 717.64,-395.7 721.5,-394.64 721.5,-394.64 721.5,-394.64 717.64,-395.7 720.55,-391.17 713.79,-396.76 713.79,-396.76"/>
<ellipse fill="none" stroke="black" cx="710.7" cy="-397.61" rx="3.2" ry="3.2"/>
</g>
</g>
</svg>
