<?xml version="1.0" encoding="UTF-8" standalone="no"?>
<!DOCTYPE svg PUBLIC "-//W3C//DTD SVG 1.1//EN"
 "http://www.w3.org/Graphics/SVG/1.1/DTD/svg11.dtd">
<!-- Generated by graphviz version 2.43.0 (0)
 -->
<!-- Title: oneDegreeRelationshipsDiagram Pages: 1 -->
<svg width="882pt" height="503pt"
 viewBox="0.00 0.00 882.00 503.00" xmlns="http://www.w3.org/2000/svg" xmlns:xlink="http://www.w3.org/1999/xlink">
<g id="graph0" class="graph" transform="scale(1 1) rotate(0) translate(4 499)">
<title>oneDegreeRelationshipsDiagram</title>
<polygon fill="#ffffff" stroke="transparent" points="-4,4 -4,-499 878,-499 878,4 -4,4"/>
<text text-anchor="middle" x="79.5" y="-7.2" font-family="Helvetica,sans-Serif" font-size="11.00">Generated by SchemaSpy</text>
<!-- plot -->
<g id="node1" class="node">
<title>plot</title>
<g id="a_node1"><a xlink:href="../../tables/plot.html" xlink:title="plot" target="_top">
<polygon fill="#ffffff" stroke="transparent" points="578,-37 578,-491 866,-491 866,-37 578,-37"/>
<polygon fill="#f5f5f5" stroke="transparent" points="578,-469 578,-491 866,-491 866,-469 578,-469"/>
<polygon fill="none" stroke="black" points="578,-469 578,-491 866,-491 866,-469 578,-469"/>
<text text-anchor="start" x="582.5" y="-478.2" font-family="Helvetica,sans-Serif" font-weight="bold" font-size="11.00">plot</text>
<text text-anchor="start" x="824" y="-477.2" font-family="Helvetica,sans-Serif" font-size="11.00">[table]</text>
<polygon fill="none" stroke="black" points="578,-447 578,-469 866,-469 866,-447 578,-447"/>
<image xlink:href="../../images/primaryKeys.png" width="11px" height="12px" preserveAspectRatio="xMinYMin meet" x="583" y="-464"/>
<text text-anchor="start" x="598" y="-455.2" font-family="Helvetica,sans-Serif" font-size="11.00">id</text>
<polygon fill="#ffffff" stroke="transparent" points="578,-425 578,-447 866,-447 866,-425 578,-425"/>
<polygon fill="none" stroke="black" points="578,-425 578,-447 866,-447 866,-425 578,-425"/>
<image xlink:href="../../images/foreignKeys.png" width="11px" height="12px" preserveAspectRatio="xMinYMin meet" x="583" y="-442"/>
<text text-anchor="start" x="598" y="-433.2" font-family="Helvetica,sans-Serif" font-size="11.00">cluster_id</text>
<polygon fill="#ffffff" stroke="transparent" points="578,-403 578,-425 866,-425 866,-403 578,-403"/>
<polygon fill="none" stroke="black" points="578,-403 578,-425 866,-425 866,-403 578,-403"/>
<text text-anchor="start" x="598" y="-411.2" font-family="Helvetica,sans-Serif" font-size="11.00">plot_name</text>
<polygon fill="none" stroke="black" points="578,-381 578,-403 866,-403 866,-381 578,-381"/>
<image xlink:href="../../images/foreignKeys.png" width="11px" height="12px" preserveAspectRatio="xMinYMin meet" x="583" y="-398"/>
<text text-anchor="start" x="598" y="-389.2" font-family="Helvetica,sans-Serif" font-size="11.00">growth_district</text>
<polygon fill="none" stroke="black" points="578,-359 578,-381 866,-381 866,-359 578,-359"/>
<image xlink:href="../../images/foreignKeys.png" width="11px" height="12px" preserveAspectRatio="xMinYMin meet" x="583" y="-376"/>
<text text-anchor="start" x="598" y="-367.2" font-family="Helvetica,sans-Serif" font-size="11.00">forest_status</text>
<polygon fill="none" stroke="black" points="578,-337 578,-359 866,-359 866,-337 578,-337"/>
<image xlink:href="../../images/foreignKeys.png" width="11px" height="12px" preserveAspectRatio="xMinYMin meet" x="583" y="-354"/>
<text text-anchor="start" x="598" y="-345.2" font-family="Helvetica,sans-Serif" font-size="11.00">elevation_level</text>
<polygon fill="none" stroke="black" points="578,-315 578,-337 866,-337 866,-315 578,-315"/>
<image xlink:href="../../images/foreignKeys.png" width="11px" height="12px" preserveAspectRatio="xMinYMin meet" x="583" y="-332"/>
<text text-anchor="start" x="598" y="-323.2" font-family="Helvetica,sans-Serif" font-size="11.00">property_type</text>
<polygon fill="none" stroke="black" points="578,-293 578,-315 866,-315 866,-293 578,-293"/>
<image xlink:href="../../images/foreignKeys.png" width="11px" height="12px" preserveAspectRatio="xMinYMin meet" x="583" y="-310"/>
<text text-anchor="start" x="598" y="-301.2" font-family="Helvetica,sans-Serif" font-size="11.00">property_size_class</text>
<polygon fill="none" stroke="black" points="578,-271 578,-293 866,-293 866,-271 578,-271"/>
<image xlink:href="../../images/foreignKeys.png" width="11px" height="12px" preserveAspectRatio="xMinYMin meet" x="583" y="-288"/>
<text text-anchor="start" x="598" y="-279.2" font-family="Helvetica,sans-Serif" font-size="11.00">land_use_after</text>
<polygon fill="none" stroke="black" points="578,-249 578,-271 866,-271 866,-249 578,-249"/>
<image xlink:href="../../images/foreignKeys.png" width="11px" height="12px" preserveAspectRatio="xMinYMin meet" x="583" y="-266"/>
<text text-anchor="start" x="598" y="-257.2" font-family="Helvetica,sans-Serif" font-size="11.00">marker_status</text>
<polygon fill="none" stroke="black" points="578,-227 578,-249 866,-249 866,-227 578,-227"/>
<image xlink:href="../../images/foreignKeys.png" width="11px" height="12px" preserveAspectRatio="xMinYMin meet" x="583" y="-244"/>
<text text-anchor="start" x="598" y="-235.2" font-family="Helvetica,sans-Serif" font-size="11.00">marker_profile</text>
<polygon fill="none" stroke="black" points="578,-205 578,-227 866,-227 866,-205 578,-205"/>
<image xlink:href="../../images/foreignKeys.png" width="11px" height="12px" preserveAspectRatio="xMinYMin meet" x="583" y="-222"/>
<text text-anchor="start" x="598" y="-213.2" font-family="Helvetica,sans-Serif" font-size="11.00">terrain_form</text>
<polygon fill="none" stroke="black" points="578,-183 578,-205 866,-205 866,-183 578,-183"/>
<image xlink:href="../../images/foreignKeys.png" width="11px" height="12px" preserveAspectRatio="xMinYMin meet" x="583" y="-200"/>
<text text-anchor="start" x="598" y="-191.2" font-family="Helvetica,sans-Serif" font-size="11.00">management_type</text>
<polygon fill="none" stroke="black" points="578,-161 578,-183 866,-183 866,-161 578,-161"/>
<image xlink:href="../../images/foreignKeys.png" width="11px" height="12px" preserveAspectRatio="xMinYMin meet" x="583" y="-178"/>
<text text-anchor="start" x="598" y="-169.2" font-family="Helvetica,sans-Serif" font-size="11.00">harvesting_method</text>
<polygon fill="none" stroke="black" points="578,-139 578,-161 866,-161 866,-139 578,-139"/>
<image xlink:href="../../images/foreignKeys.png" width="11px" height="12px" preserveAspectRatio="xMinYMin meet" x="583" y="-156"/>
<text text-anchor="start" x="598" y="-147.2" font-family="Helvetica,sans-Serif" font-size="11.00">stand_structure</text>
<polygon fill="none" stroke="black" points="578,-117 578,-139 866,-139 866,-117 578,-117"/>
<image xlink:href="../../images/foreignKeys.png" width="11px" height="12px" preserveAspectRatio="xMinYMin meet" x="583" y="-134"/>
<text text-anchor="start" x="598" y="-125.2" font-family="Helvetica,sans-Serif" font-size="11.00">stand_dev_phase</text>
<polygon fill="none" stroke="black" points="578,-95 578,-117 866,-117 866,-95 578,-95"/>
<image xlink:href="../../images/foreignKeys.png" width="11px" height="12px" preserveAspectRatio="xMinYMin meet" x="583" y="-112"/>
<text text-anchor="start" x="598" y="-103.2" font-family="Helvetica,sans-Serif" font-size="11.00">stand_layer_reg</text>
<polygon fill="none" stroke="black" points="578,-73 578,-95 866,-95 866,-73 578,-73"/>
<image xlink:href="../../images/foreignKeys.png" width="11px" height="12px" preserveAspectRatio="xMinYMin meet" x="583" y="-90"/>
<text text-anchor="start" x="598" y="-81.2" font-family="Helvetica,sans-Serif" font-size="11.00">trees_less_4meter_mirrored</text>
<polygon fill="none" stroke="black" points="578,-55 578,-73 866,-73 866,-55 578,-55"/>
<text text-anchor="start" x="581" y="-61.2" font-family="Helvetica,sans-Serif" font-size="11.00">...</text>
<polygon fill="#ffffff" stroke="transparent" points="578,-37 578,-55 866,-55 866,-37 578,-37"/>
<polygon fill="none" stroke="black" points="578,-37 578,-55 866,-55 866,-37 578,-37"/>
<polygon fill="#ffffff" stroke="transparent" points="579,-38 579,-54 674,-54 674,-38 579,-38"/>
<text text-anchor="start" x="581" y="-43.2" font-family="Helvetica,sans-Serif" font-size="11.00">&lt; 16</text>
<polygon fill="#ffffff" stroke="transparent" points="674,-38 674,-54 778,-54 778,-38 674,-38"/>
<text text-anchor="start" x="707.5" y="-43.2" font-family="Helvetica,sans-Serif" font-size="11.00">0 rows</text>
<polygon fill="#ffffff" stroke="transparent" points="778,-38 778,-54 865,-54 865,-38 778,-38"/>
<text text-anchor="start" x="843" y="-43.2" font-family="Helvetica,sans-Serif" font-size="11.00">7 &gt;</text>
<polygon fill="black" stroke="black" points="674,-38 674,-54 674,-54 674,-38 674,-38"/>
<polygon fill="black" stroke="black" points="778,-38 778,-54 778,-54 778,-38 778,-38"/>
</a>
</g>
</g>
<!-- lookup_marker_profile -->
<g id="node2" class="node">
<title>lookup_marker_profile</title>
<g id="a_node2"><a xlink:href="../../tables/lookup_marker_profile.html" xlink:title="lookup_marker_profile" target="_top">
<polygon fill="#ffffff" stroke="transparent" points="8,-207 8,-361 529,-361 529,-207 8,-207"/>
<polygon fill="#f5f5f5" stroke="transparent" points="10.5,-337 10.5,-359 527.5,-359 527.5,-337 10.5,-337"/>
<polygon fill="none" stroke="black" points="10.5,-337 10.5,-359 527.5,-359 527.5,-337 10.5,-337"/>
<text text-anchor="start" x="15.5" y="-346.2" font-family="Helvetica,sans-Serif" font-weight="bold" font-size="11.00">lookup_marker_profile</text>
<text text-anchor="start" x="485.5" y="-345.2" font-family="Helvetica,sans-Serif" font-size="11.00">[table]</text>
<polygon fill="none" stroke="black" points="10.5,-315 10.5,-337 194.5,-337 194.5,-315 10.5,-315"/>
<text text-anchor="start" x="30.5" y="-323.2" font-family="Helvetica,sans-Serif" font-size="11.00">name_de</text>
<polygon fill="none" stroke="black" points="194.5,-315 194.5,-337 527.5,-337 527.5,-315 194.5,-315"/>
<text text-anchor="start" x="197.5" y="-323.2" font-family="Helvetica,sans-Serif" font-size="11.00">varchar[150]</text>
<polygon fill="none" stroke="black" points="10.5,-293 10.5,-315 194.5,-315 194.5,-293 10.5,-293"/>
<text text-anchor="start" x="30.5" y="-301.2" font-family="Helvetica,sans-Serif" font-size="11.00">name_en</text>
<polygon fill="none" stroke="black" points="194.5,-293 194.5,-315 527.5,-315 527.5,-293 194.5,-293"/>
<text text-anchor="start" x="197.5" y="-301.2" font-family="Helvetica,sans-Serif" font-size="11.00">varchar[150]</text>
<polygon fill="none" stroke="black" points="10.5,-271 10.5,-293 194.5,-293 194.5,-271 10.5,-271"/>
<text text-anchor="start" x="30.5" y="-279.2" font-family="Helvetica,sans-Serif" font-size="11.00">interval</text>
<polygon fill="none" stroke="black" points="194.5,-271 194.5,-293 527.5,-293 527.5,-271 194.5,-271"/>
<text text-anchor="start" x="197.5" y="-279.2" font-family="Helvetica,sans-Serif" font-size="11.00">&quot;private_ci2027_001&quot;.&quot;_enum_interval_name&quot;[2147483647]</text>
<polygon fill="none" stroke="black" points="10.5,-249 10.5,-271 194.5,-271 194.5,-249 10.5,-249"/>
<text text-anchor="start" x="30.5" y="-257.2" font-family="Helvetica,sans-Serif" font-size="11.00">sort</text>
<polygon fill="none" stroke="black" points="194.5,-249 194.5,-271 527.5,-271 527.5,-249 194.5,-249"/>
<text text-anchor="start" x="197.5" y="-257.2" font-family="Helvetica,sans-Serif" font-size="11.00">int4[10]</text>
<polygon fill="#ffffff" stroke="transparent" points="10.5,-227 10.5,-249 194.5,-249 194.5,-227 10.5,-227"/>
<polygon fill="none" stroke="black" points="10.5,-227 10.5,-249 194.5,-249 194.5,-227 10.5,-227"/>
<text text-anchor="start" x="30.5" y="-235.2" font-family="Helvetica,sans-Serif" font-size="11.00">abbreviation</text>
<polygon fill="none" stroke="black" points="194.5,-227 194.5,-249 527.5,-249 527.5,-227 194.5,-227"/>
<text text-anchor="start" x="197.5" y="-235.2" font-family="Helvetica,sans-Serif" font-size="11.00">&quot;private_ci2027_001&quot;.&quot;enum_marker_profile&quot;[2147483647]</text>
<polygon fill="#ffffff" stroke="transparent" points="10.5,-209 10.5,-227 527.5,-227 527.5,-209 10.5,-209"/>
<polygon fill="none" stroke="black" points="10.5,-209 10.5,-227 527.5,-227 527.5,-209 10.5,-209"/>
<polygon fill="#ffffff" stroke="transparent" points="11.5,-210 11.5,-226 177.5,-226 177.5,-210 11.5,-210"/>
<text text-anchor="start" x="13.5" y="-215.2" font-family="Helvetica,sans-Serif" font-size="11.00">&lt; 0</text>
<polygon fill="#ffffff" stroke="transparent" points="177.5,-210 177.5,-226 360.5,-226 360.5,-210 177.5,-210"/>
<text text-anchor="start" x="250.5" y="-215.2" font-family="Helvetica,sans-Serif" font-size="11.00">0 rows</text>
<polygon fill="#ffffff" stroke="transparent" points="360.5,-210 360.5,-226 526.5,-226 526.5,-210 360.5,-210"/>
<text text-anchor="start" x="504.5" y="-215.2" font-family="Helvetica,sans-Serif" font-size="11.00">1 &gt;</text>
<polygon fill="black" stroke="black" points="177.5,-210 177.5,-226 177.5,-226 177.5,-210 177.5,-210"/>
<polygon fill="black" stroke="black" points="360.5,-210 360.5,-226 360.5,-226 360.5,-210 360.5,-210"/>
<polygon fill="none" stroke="black" stroke-width="2" points="9,-208 9,-360 528,-360 528,-208 9,-208"/>
</a>
</g>
</g>
<!-- plot&#45;&gt;lookup_marker_profile -->
<g id="edge1" class="edge">
<title>plot:w&#45;&gt;lookup_marker_profile:e</title>
<path fill="none" stroke="black" d="M562.28,-238C551.29,-238 544.16,-238 528.5,-238"/>
<polygon fill="black" stroke="black" points="569,-238 577,-241.6 573,-238 577,-238 577,-238 577,-238 573,-238 577,-234.4 569,-238 569,-238"/>
<ellipse fill="none" stroke="black" cx="565.8" cy="-238" rx="3.2" ry="3.2"/>
</g>
</g>
</svg>
