<?xml version="1.0" encoding="UTF-8" standalone="no"?>
<!DOCTYPE svg PUBLIC "-//W3C//DTD SVG 1.1//EN"
 "http://www.w3.org/Graphics/SVG/1.1/DTD/svg11.dtd">
<!-- Generated by graphviz version 2.43.0 (0)
 -->
<!-- Title: oneDegreeRelationshipsDiagram Pages: 1 -->
<svg width="835pt" height="679pt"
 viewBox="0.00 0.00 835.00 679.00" xmlns="http://www.w3.org/2000/svg" xmlns:xlink="http://www.w3.org/1999/xlink">
<g id="graph0" class="graph" transform="scale(1 1) rotate(0) translate(4 675)">
<title>oneDegreeRelationshipsDiagram</title>
<polygon fill="#ffffff" stroke="transparent" points="-4,4 -4,-675 831,-675 831,4 -4,4"/>
<text text-anchor="middle" x="79.5" y="-7.2" font-family="Helvetica,sans-Serif" font-size="11.00">Generated by SchemaSpy</text>
<!-- plot -->
<g id="node1" class="node">
<title>plot</title>
<g id="a_node1"><a xlink:href="../../tables/plot.html" xlink:title="plot" target="_top">
<polygon fill="#ffffff" stroke="transparent" points="568,-37 568,-667 819,-667 819,-37 568,-37"/>
<polygon fill="#f5f5f5" stroke="transparent" points="568.5,-645 568.5,-667 819.5,-667 819.5,-645 568.5,-645"/>
<polygon fill="none" stroke="black" points="568.5,-645 568.5,-667 819.5,-667 819.5,-645 568.5,-645"/>
<text text-anchor="start" x="573" y="-654.2" font-family="Helvetica,sans-Serif" font-weight="bold" font-size="11.00">plot</text>
<text text-anchor="start" x="777.5" y="-653.2" font-family="Helvetica,sans-Serif" font-size="11.00">[table]</text>
<polygon fill="none" stroke="black" points="568.5,-623 568.5,-645 819.5,-645 819.5,-623 568.5,-623"/>
<image xlink:href="../../images/primaryKeys.png" width="11px" height="12px" preserveAspectRatio="xMinYMin meet" x="573.5" y="-640"/>
<text text-anchor="start" x="588.5" y="-631.2" font-family="Helvetica,sans-Serif" font-size="11.00">id</text>
<polygon fill="#ffffff" stroke="transparent" points="568.5,-601 568.5,-623 819.5,-623 819.5,-601 568.5,-601"/>
<polygon fill="none" stroke="black" points="568.5,-601 568.5,-623 819.5,-623 819.5,-601 568.5,-601"/>
<image xlink:href="../../images/foreignKeys.png" width="11px" height="12px" preserveAspectRatio="xMinYMin meet" x="573.5" y="-618"/>
<text text-anchor="start" x="588.5" y="-609.2" font-family="Helvetica,sans-Serif" font-size="11.00">cluster_id</text>
<polygon fill="#ffffff" stroke="transparent" points="568.5,-579 568.5,-601 819.5,-601 819.5,-579 568.5,-579"/>
<polygon fill="none" stroke="black" points="568.5,-579 568.5,-601 819.5,-601 819.5,-579 568.5,-579"/>
<text text-anchor="start" x="588.5" y="-587.2" font-family="Helvetica,sans-Serif" font-size="11.00">plot_name</text>
<polygon fill="none" stroke="black" points="568.5,-557 568.5,-579 819.5,-579 819.5,-557 568.5,-557"/>
<image xlink:href="../../images/foreignKeys.png" width="11px" height="12px" preserveAspectRatio="xMinYMin meet" x="573.5" y="-574"/>
<text text-anchor="start" x="588.5" y="-565.2" font-family="Helvetica,sans-Serif" font-size="11.00">sampling_strata</text>
<polygon fill="none" stroke="black" points="568.5,-535 568.5,-557 819.5,-557 819.5,-535 568.5,-535"/>
<image xlink:href="../../images/foreignKeys.png" width="11px" height="12px" preserveAspectRatio="xMinYMin meet" x="573.5" y="-552"/>
<text text-anchor="start" x="588.5" y="-543.2" font-family="Helvetica,sans-Serif" font-size="11.00">growth_district</text>
<polygon fill="none" stroke="black" points="568.5,-513 568.5,-535 819.5,-535 819.5,-513 568.5,-513"/>
<image xlink:href="../../images/foreignKeys.png" width="11px" height="12px" preserveAspectRatio="xMinYMin meet" x="573.5" y="-530"/>
<text text-anchor="start" x="588.5" y="-521.2" font-family="Helvetica,sans-Serif" font-size="11.00">forest_decision</text>
<polygon fill="none" stroke="black" points="568.5,-491 568.5,-513 819.5,-513 819.5,-491 568.5,-491"/>
<image xlink:href="../../images/foreignKeys.png" width="11px" height="12px" preserveAspectRatio="xMinYMin meet" x="573.5" y="-508"/>
<text text-anchor="start" x="588.5" y="-499.2" font-family="Helvetica,sans-Serif" font-size="11.00">forestry_department</text>
<polygon fill="none" stroke="black" points="568.5,-469 568.5,-491 819.5,-491 819.5,-469 568.5,-469"/>
<image xlink:href="../../images/foreignKeys.png" width="11px" height="12px" preserveAspectRatio="xMinYMin meet" x="573.5" y="-486"/>
<text text-anchor="start" x="588.5" y="-477.2" font-family="Helvetica,sans-Serif" font-size="11.00">height_layer_class</text>
<polygon fill="none" stroke="black" points="568.5,-447 568.5,-469 819.5,-469 819.5,-447 568.5,-447"/>
<image xlink:href="../../images/foreignKeys.png" width="11px" height="12px" preserveAspectRatio="xMinYMin meet" x="573.5" y="-464"/>
<text text-anchor="start" x="588.5" y="-455.2" font-family="Helvetica,sans-Serif" font-size="11.00">property_type</text>
<polygon fill="none" stroke="black" points="568.5,-425 568.5,-447 819.5,-447 819.5,-425 568.5,-425"/>
<image xlink:href="../../images/foreignKeys.png" width="11px" height="12px" preserveAspectRatio="xMinYMin meet" x="573.5" y="-442"/>
<text text-anchor="start" x="588.5" y="-433.2" font-family="Helvetica,sans-Serif" font-size="11.00">property_size_class</text>
<polygon fill="none" stroke="black" points="568.5,-403 568.5,-425 819.5,-425 819.5,-403 568.5,-403"/>
<image xlink:href="../../images/foreignKeys.png" width="11px" height="12px" preserveAspectRatio="xMinYMin meet" x="573.5" y="-420"/>
<text text-anchor="start" x="588.5" y="-411.2" font-family="Helvetica,sans-Serif" font-size="11.00">forest_type</text>
<polygon fill="none" stroke="black" points="568.5,-381 568.5,-403 819.5,-403 819.5,-381 568.5,-381"/>
<image xlink:href="../../images/foreignKeys.png" width="11px" height="12px" preserveAspectRatio="xMinYMin meet" x="573.5" y="-398"/>
<text text-anchor="start" x="588.5" y="-389.2" font-family="Helvetica,sans-Serif" font-size="11.00">habitat_type</text>
<polygon fill="none" stroke="black" points="568.5,-359 568.5,-381 819.5,-381 819.5,-359 568.5,-359"/>
<image xlink:href="../../images/foreignKeys.png" width="11px" height="12px" preserveAspectRatio="xMinYMin meet" x="573.5" y="-376"/>
<text text-anchor="start" x="588.5" y="-367.2" font-family="Helvetica,sans-Serif" font-size="11.00">habitat_type_source</text>
<polygon fill="none" stroke="black" points="568.5,-337 568.5,-359 819.5,-359 819.5,-337 568.5,-337"/>
<image xlink:href="../../images/foreignKeys.png" width="11px" height="12px" preserveAspectRatio="xMinYMin meet" x="573.5" y="-354"/>
<text text-anchor="start" x="588.5" y="-345.2" font-family="Helvetica,sans-Serif" font-size="11.00">use_restriction</text>
<polygon fill="none" stroke="black" points="568.5,-315 568.5,-337 819.5,-337 819.5,-315 568.5,-315"/>
<image xlink:href="../../images/foreignKeys.png" width="11px" height="12px" preserveAspectRatio="xMinYMin meet" x="573.5" y="-332"/>
<text text-anchor="start" x="588.5" y="-323.2" font-family="Helvetica,sans-Serif" font-size="11.00">land_use</text>
<polygon fill="none" stroke="black" points="568.5,-293 568.5,-315 819.5,-315 819.5,-293 568.5,-293"/>
<image xlink:href="../../images/foreignKeys.png" width="11px" height="12px" preserveAspectRatio="xMinYMin meet" x="573.5" y="-310"/>
<text text-anchor="start" x="588.5" y="-301.2" font-family="Helvetica,sans-Serif" font-size="11.00">marking_state</text>
<polygon fill="none" stroke="black" points="568.5,-271 568.5,-293 819.5,-293 819.5,-271 568.5,-271"/>
<image xlink:href="../../images/foreignKeys.png" width="11px" height="12px" preserveAspectRatio="xMinYMin meet" x="573.5" y="-288"/>
<text text-anchor="start" x="588.5" y="-279.2" font-family="Helvetica,sans-Serif" font-size="11.00">marking_profile</text>
<polygon fill="none" stroke="black" points="568.5,-249 568.5,-271 819.5,-271 819.5,-249 568.5,-249"/>
<image xlink:href="../../images/foreignKeys.png" width="11px" height="12px" preserveAspectRatio="xMinYMin meet" x="573.5" y="-266"/>
<text text-anchor="start" x="588.5" y="-257.2" font-family="Helvetica,sans-Serif" font-size="11.00">terrain_form</text>
<polygon fill="none" stroke="black" points="568.5,-227 568.5,-249 819.5,-249 819.5,-227 568.5,-227"/>
<image xlink:href="../../images/foreignKeys.png" width="11px" height="12px" preserveAspectRatio="xMinYMin meet" x="573.5" y="-244"/>
<text text-anchor="start" x="588.5" y="-235.2" font-family="Helvetica,sans-Serif" font-size="11.00">management_type</text>
<polygon fill="none" stroke="black" points="568.5,-205 568.5,-227 819.5,-227 819.5,-205 568.5,-205"/>
<image xlink:href="../../images/foreignKeys.png" width="11px" height="12px" preserveAspectRatio="xMinYMin meet" x="573.5" y="-222"/>
<text text-anchor="start" x="588.5" y="-213.2" font-family="Helvetica,sans-Serif" font-size="11.00">harvesting_method</text>
<polygon fill="none" stroke="black" points="568.5,-183 568.5,-205 819.5,-205 819.5,-183 568.5,-183"/>
<image xlink:href="../../images/foreignKeys.png" width="11px" height="12px" preserveAspectRatio="xMinYMin meet" x="573.5" y="-200"/>
<text text-anchor="start" x="588.5" y="-191.2" font-family="Helvetica,sans-Serif" font-size="11.00">layer_type</text>
<polygon fill="none" stroke="black" points="568.5,-161 568.5,-183 819.5,-183 819.5,-161 568.5,-161"/>
<image xlink:href="../../images/foreignKeys.png" width="11px" height="12px" preserveAspectRatio="xMinYMin meet" x="573.5" y="-178"/>
<text text-anchor="start" x="588.5" y="-169.2" font-family="Helvetica,sans-Serif" font-size="11.00">stand_phase</text>
<polygon fill="none" stroke="black" points="568.5,-139 568.5,-161 819.5,-161 819.5,-139 568.5,-139"/>
<image xlink:href="../../images/foreignKeys.png" width="11px" height="12px" preserveAspectRatio="xMinYMin meet" x="573.5" y="-156"/>
<text text-anchor="start" x="588.5" y="-147.2" font-family="Helvetica,sans-Serif" font-size="11.00">sablings_layer</text>
<polygon fill="none" stroke="black" points="568.5,-117 568.5,-139 819.5,-139 819.5,-117 568.5,-117"/>
<image xlink:href="../../images/foreignKeys.png" width="11px" height="12px" preserveAspectRatio="xMinYMin meet" x="573.5" y="-134"/>
<text text-anchor="start" x="588.5" y="-125.2" font-family="Helvetica,sans-Serif" font-size="11.00">trees_less_4meter_mirrored</text>
<polygon fill="none" stroke="black" points="568.5,-95 568.5,-117 819.5,-117 819.5,-95 568.5,-95"/>
<image xlink:href="../../images/foreignKeys.png" width="11px" height="12px" preserveAspectRatio="xMinYMin meet" x="573.5" y="-112"/>
<text text-anchor="start" x="588.5" y="-103.2" font-family="Helvetica,sans-Serif" font-size="11.00">trees_less_4meter_count_factor</text>
<polygon fill="none" stroke="black" points="568.5,-73 568.5,-95 819.5,-95 819.5,-73 568.5,-73"/>
<image xlink:href="../../images/foreignKeys.png" width="11px" height="12px" preserveAspectRatio="xMinYMin meet" x="573.5" y="-90"/>
<text text-anchor="start" x="588.5" y="-81.2" font-family="Helvetica,sans-Serif" font-size="11.00">trees_less_4meter_layer</text>
<polygon fill="none" stroke="black" points="568.5,-55 568.5,-73 819.5,-73 819.5,-55 568.5,-55"/>
<text text-anchor="start" x="571.5" y="-61.2" font-family="Helvetica,sans-Serif" font-size="11.00">...</text>
<polygon fill="#ffffff" stroke="transparent" points="568.5,-37 568.5,-55 819.5,-55 819.5,-37 568.5,-37"/>
<polygon fill="none" stroke="black" points="568.5,-37 568.5,-55 819.5,-55 819.5,-37 568.5,-37"/>
<polygon fill="#ffffff" stroke="transparent" points="569.5,-38 569.5,-54 649.5,-54 649.5,-38 569.5,-38"/>
<text text-anchor="start" x="571.5" y="-43.2" font-family="Helvetica,sans-Serif" font-size="11.00">&lt; 24</text>
<polygon fill="#ffffff" stroke="transparent" points="649.5,-38 649.5,-54 746.5,-54 746.5,-38 649.5,-38"/>
<text text-anchor="start" x="676" y="-43.2" font-family="Helvetica,sans-Serif" font-size="11.00">82 rows</text>
<polygon fill="#ffffff" stroke="transparent" points="746.5,-38 746.5,-54 818.5,-54 818.5,-38 746.5,-38"/>
<text text-anchor="start" x="796.5" y="-43.2" font-family="Helvetica,sans-Serif" font-size="11.00">7 &gt;</text>
<polygon fill="black" stroke="black" points="649.5,-38 649.5,-54 649.5,-54 649.5,-38 649.5,-38"/>
<polygon fill="black" stroke="black" points="746.5,-38 746.5,-54 746.5,-54 746.5,-38 746.5,-38"/>
</a>
</g>
</g>
<!-- lookup_property_type -->
<g id="node2" class="node">
<title>lookup_property_type</title>
<g id="a_node2"><a xlink:href="../../tables/lookup_property_type.html" xlink:title="lookup_property_type" target="_top">
<polygon fill="#ffffff" stroke="transparent" points="8,-427 8,-559 519,-559 519,-427 8,-427"/>
<polygon fill="#f5f5f5" stroke="transparent" points="10.5,-535 10.5,-557 517.5,-557 517.5,-535 10.5,-535"/>
<polygon fill="none" stroke="black" points="10.5,-535 10.5,-557 517.5,-557 517.5,-535 10.5,-535"/>
<text text-anchor="start" x="15.5" y="-544.2" font-family="Helvetica,sans-Serif" font-weight="bold" font-size="11.00">lookup_property_type</text>
<text text-anchor="start" x="475.5" y="-543.2" font-family="Helvetica,sans-Serif" font-size="11.00">[table]</text>
<polygon fill="none" stroke="black" points="10.5,-513 10.5,-535 190.5,-535 190.5,-513 10.5,-513"/>
<text text-anchor="start" x="30.5" y="-521.2" font-family="Helvetica,sans-Serif" font-size="11.00">name_de</text>
<polygon fill="none" stroke="black" points="190.5,-513 190.5,-535 517.5,-535 517.5,-513 190.5,-513"/>
<text text-anchor="start" x="193.5" y="-521.2" font-family="Helvetica,sans-Serif" font-size="11.00">varchar[150]</text>
<polygon fill="none" stroke="black" points="10.5,-491 10.5,-513 190.5,-513 190.5,-491 10.5,-491"/>
<text text-anchor="start" x="30.5" y="-499.2" font-family="Helvetica,sans-Serif" font-size="11.00">name_en</text>
<polygon fill="none" stroke="black" points="190.5,-491 190.5,-513 517.5,-513 517.5,-491 190.5,-491"/>
<text text-anchor="start" x="193.5" y="-499.2" font-family="Helvetica,sans-Serif" font-size="11.00">varchar[150]</text>
<polygon fill="none" stroke="black" points="10.5,-469 10.5,-491 190.5,-491 190.5,-469 10.5,-469"/>
<text text-anchor="start" x="30.5" y="-477.2" font-family="Helvetica,sans-Serif" font-size="11.00">sort</text>
<polygon fill="none" stroke="black" points="190.5,-469 190.5,-491 517.5,-491 517.5,-469 190.5,-469"/>
<text text-anchor="start" x="193.5" y="-477.2" font-family="Helvetica,sans-Serif" font-size="11.00">int4[10]</text>
<polygon fill="#ffffff" stroke="transparent" points="10.5,-447 10.5,-469 190.5,-469 190.5,-447 10.5,-447"/>
<polygon fill="none" stroke="black" points="10.5,-447 10.5,-469 190.5,-469 190.5,-447 10.5,-447"/>
<text text-anchor="start" x="30.5" y="-455.2" font-family="Helvetica,sans-Serif" font-size="11.00">abbreviation</text>
<polygon fill="none" stroke="black" points="190.5,-447 190.5,-469 517.5,-469 517.5,-447 190.5,-447"/>
<text text-anchor="start" x="193.5" y="-455.2" font-family="Helvetica,sans-Serif" font-size="11.00">&quot;private_ci2027_001&quot;.&quot;enum_property_type&quot;[2147483647]</text>
<polygon fill="#ffffff" stroke="transparent" points="10.5,-429 10.5,-447 517.5,-447 517.5,-429 10.5,-429"/>
<polygon fill="none" stroke="black" points="10.5,-429 10.5,-447 517.5,-447 517.5,-429 10.5,-429"/>
<polygon fill="#ffffff" stroke="transparent" points="11.5,-430 11.5,-446 174.5,-446 174.5,-430 11.5,-430"/>
<text text-anchor="start" x="13.5" y="-435.2" font-family="Helvetica,sans-Serif" font-size="11.00">&lt; 0</text>
<polygon fill="#ffffff" stroke="transparent" points="174.5,-430 174.5,-446 354.5,-446 354.5,-430 174.5,-430"/>
<text text-anchor="start" x="246" y="-435.2" font-family="Helvetica,sans-Serif" font-size="11.00">0 rows</text>
<polygon fill="#ffffff" stroke="transparent" points="354.5,-430 354.5,-446 516.5,-446 516.5,-430 354.5,-430"/>
<text text-anchor="start" x="494.5" y="-435.2" font-family="Helvetica,sans-Serif" font-size="11.00">1 &gt;</text>
<polygon fill="black" stroke="black" points="174.5,-430 174.5,-446 174.5,-446 174.5,-430 174.5,-430"/>
<polygon fill="black" stroke="black" points="354.5,-430 354.5,-446 354.5,-446 354.5,-430 354.5,-430"/>
<polygon fill="none" stroke="black" stroke-width="2" points="9,-428 9,-558 518,-558 518,-428 9,-428"/>
</a>
</g>
</g>
<!-- plot&#45;&gt;lookup_property_type -->
<g id="edge1" class="edge">
<title>plot:w&#45;&gt;lookup_property_type:e</title>
<path fill="none" stroke="black" d="M552.99,-458C541.68,-458 534.49,-458 518.5,-458"/>
<polygon fill="black" stroke="black" points="559.5,-458 567.5,-461.6 563.5,-458 567.5,-458 567.5,-458 567.5,-458 563.5,-458 567.5,-454.4 559.5,-458 559.5,-458"/>
<ellipse fill="none" stroke="black" cx="556.3" cy="-458" rx="3.2" ry="3.2"/>
</g>
</g>
</svg>
