<?xml version="1.0" encoding="UTF-8" standalone="no"?>
<!DOCTYPE svg PUBLIC "-//W3C//DTD SVG 1.1//EN"
 "http://www.w3.org/Graphics/SVG/1.1/DTD/svg11.dtd">
<!-- Generated by graphviz version 2.43.0 (0)
 -->
<!-- Title: oneDegreeRelationshipsDiagram Pages: 1 -->
<svg width="901pt" height="679pt"
 viewBox="0.00 0.00 901.00 679.00" xmlns="http://www.w3.org/2000/svg" xmlns:xlink="http://www.w3.org/1999/xlink">
<g id="graph0" class="graph" transform="scale(1 1) rotate(0) translate(4 675)">
<title>oneDegreeRelationshipsDiagram</title>
<polygon fill="#ffffff" stroke="transparent" points="-4,4 -4,-675 897,-675 897,4 -4,4"/>
<text text-anchor="middle" x="79.5" y="-7.2" font-family="Helvetica,sans-Serif" font-size="11.00">Generated by SchemaSpy</text>
<!-- plot -->
<g id="node1" class="node">
<title>plot</title>
<g id="a_node1"><a xlink:href="../../tables/plot.html" xlink:title="plot" target="_top">
<polygon fill="#ffffff" stroke="transparent" points="634,-37 634,-667 885,-667 885,-37 634,-37"/>
<polygon fill="#f5f5f5" stroke="transparent" points="634.5,-645 634.5,-667 885.5,-667 885.5,-645 634.5,-645"/>
<polygon fill="none" stroke="black" points="634.5,-645 634.5,-667 885.5,-667 885.5,-645 634.5,-645"/>
<text text-anchor="start" x="639" y="-654.2" font-family="Helvetica,sans-Serif" font-weight="bold" font-size="11.00">plot</text>
<text text-anchor="start" x="843.5" y="-653.2" font-family="Helvetica,sans-Serif" font-size="11.00">[table]</text>
<polygon fill="none" stroke="black" points="634.5,-623 634.5,-645 885.5,-645 885.5,-623 634.5,-623"/>
<image xlink:href="../../images/primaryKeys.png" width="11px" height="12px" preserveAspectRatio="xMinYMin meet" x="639.5" y="-640"/>
<text text-anchor="start" x="654.5" y="-631.2" font-family="Helvetica,sans-Serif" font-size="11.00">id</text>
<polygon fill="#ffffff" stroke="transparent" points="634.5,-601 634.5,-623 885.5,-623 885.5,-601 634.5,-601"/>
<polygon fill="none" stroke="black" points="634.5,-601 634.5,-623 885.5,-623 885.5,-601 634.5,-601"/>
<image xlink:href="../../images/foreignKeys.png" width="11px" height="12px" preserveAspectRatio="xMinYMin meet" x="639.5" y="-618"/>
<text text-anchor="start" x="654.5" y="-609.2" font-family="Helvetica,sans-Serif" font-size="11.00">cluster_id</text>
<polygon fill="#ffffff" stroke="transparent" points="634.5,-579 634.5,-601 885.5,-601 885.5,-579 634.5,-579"/>
<polygon fill="none" stroke="black" points="634.5,-579 634.5,-601 885.5,-601 885.5,-579 634.5,-579"/>
<text text-anchor="start" x="654.5" y="-587.2" font-family="Helvetica,sans-Serif" font-size="11.00">plot_name</text>
<polygon fill="none" stroke="black" points="634.5,-557 634.5,-579 885.5,-579 885.5,-557 634.5,-557"/>
<image xlink:href="../../images/foreignKeys.png" width="11px" height="12px" preserveAspectRatio="xMinYMin meet" x="639.5" y="-574"/>
<text text-anchor="start" x="654.5" y="-565.2" font-family="Helvetica,sans-Serif" font-size="11.00">sampling_strata</text>
<polygon fill="none" stroke="black" points="634.5,-535 634.5,-557 885.5,-557 885.5,-535 634.5,-535"/>
<image xlink:href="../../images/foreignKeys.png" width="11px" height="12px" preserveAspectRatio="xMinYMin meet" x="639.5" y="-552"/>
<text text-anchor="start" x="654.5" y="-543.2" font-family="Helvetica,sans-Serif" font-size="11.00">growth_district</text>
<polygon fill="none" stroke="black" points="634.5,-513 634.5,-535 885.5,-535 885.5,-513 634.5,-513"/>
<image xlink:href="../../images/foreignKeys.png" width="11px" height="12px" preserveAspectRatio="xMinYMin meet" x="639.5" y="-530"/>
<text text-anchor="start" x="654.5" y="-521.2" font-family="Helvetica,sans-Serif" font-size="11.00">forest_decision</text>
<polygon fill="none" stroke="black" points="634.5,-491 634.5,-513 885.5,-513 885.5,-491 634.5,-491"/>
<image xlink:href="../../images/foreignKeys.png" width="11px" height="12px" preserveAspectRatio="xMinYMin meet" x="639.5" y="-508"/>
<text text-anchor="start" x="654.5" y="-499.2" font-family="Helvetica,sans-Serif" font-size="11.00">forestry_department</text>
<polygon fill="none" stroke="black" points="634.5,-469 634.5,-491 885.5,-491 885.5,-469 634.5,-469"/>
<image xlink:href="../../images/foreignKeys.png" width="11px" height="12px" preserveAspectRatio="xMinYMin meet" x="639.5" y="-486"/>
<text text-anchor="start" x="654.5" y="-477.2" font-family="Helvetica,sans-Serif" font-size="11.00">height_layer_class</text>
<polygon fill="none" stroke="black" points="634.5,-447 634.5,-469 885.5,-469 885.5,-447 634.5,-447"/>
<image xlink:href="../../images/foreignKeys.png" width="11px" height="12px" preserveAspectRatio="xMinYMin meet" x="639.5" y="-464"/>
<text text-anchor="start" x="654.5" y="-455.2" font-family="Helvetica,sans-Serif" font-size="11.00">property_type</text>
<polygon fill="none" stroke="black" points="634.5,-425 634.5,-447 885.5,-447 885.5,-425 634.5,-425"/>
<image xlink:href="../../images/foreignKeys.png" width="11px" height="12px" preserveAspectRatio="xMinYMin meet" x="639.5" y="-442"/>
<text text-anchor="start" x="654.5" y="-433.2" font-family="Helvetica,sans-Serif" font-size="11.00">property_size_class</text>
<polygon fill="none" stroke="black" points="634.5,-403 634.5,-425 885.5,-425 885.5,-403 634.5,-403"/>
<image xlink:href="../../images/foreignKeys.png" width="11px" height="12px" preserveAspectRatio="xMinYMin meet" x="639.5" y="-420"/>
<text text-anchor="start" x="654.5" y="-411.2" font-family="Helvetica,sans-Serif" font-size="11.00">forest_type</text>
<polygon fill="none" stroke="black" points="634.5,-381 634.5,-403 885.5,-403 885.5,-381 634.5,-381"/>
<image xlink:href="../../images/foreignKeys.png" width="11px" height="12px" preserveAspectRatio="xMinYMin meet" x="639.5" y="-398"/>
<text text-anchor="start" x="654.5" y="-389.2" font-family="Helvetica,sans-Serif" font-size="11.00">habitat_type</text>
<polygon fill="none" stroke="black" points="634.5,-359 634.5,-381 885.5,-381 885.5,-359 634.5,-359"/>
<image xlink:href="../../images/foreignKeys.png" width="11px" height="12px" preserveAspectRatio="xMinYMin meet" x="639.5" y="-376"/>
<text text-anchor="start" x="654.5" y="-367.2" font-family="Helvetica,sans-Serif" font-size="11.00">habitat_type_source</text>
<polygon fill="none" stroke="black" points="634.5,-337 634.5,-359 885.5,-359 885.5,-337 634.5,-337"/>
<image xlink:href="../../images/foreignKeys.png" width="11px" height="12px" preserveAspectRatio="xMinYMin meet" x="639.5" y="-354"/>
<text text-anchor="start" x="654.5" y="-345.2" font-family="Helvetica,sans-Serif" font-size="11.00">use_restriction</text>
<polygon fill="none" stroke="black" points="634.5,-315 634.5,-337 885.5,-337 885.5,-315 634.5,-315"/>
<image xlink:href="../../images/foreignKeys.png" width="11px" height="12px" preserveAspectRatio="xMinYMin meet" x="639.5" y="-332"/>
<text text-anchor="start" x="654.5" y="-323.2" font-family="Helvetica,sans-Serif" font-size="11.00">land_use</text>
<polygon fill="none" stroke="black" points="634.5,-293 634.5,-315 885.5,-315 885.5,-293 634.5,-293"/>
<image xlink:href="../../images/foreignKeys.png" width="11px" height="12px" preserveAspectRatio="xMinYMin meet" x="639.5" y="-310"/>
<text text-anchor="start" x="654.5" y="-301.2" font-family="Helvetica,sans-Serif" font-size="11.00">marking_state</text>
<polygon fill="none" stroke="black" points="634.5,-271 634.5,-293 885.5,-293 885.5,-271 634.5,-271"/>
<image xlink:href="../../images/foreignKeys.png" width="11px" height="12px" preserveAspectRatio="xMinYMin meet" x="639.5" y="-288"/>
<text text-anchor="start" x="654.5" y="-279.2" font-family="Helvetica,sans-Serif" font-size="11.00">marking_profile</text>
<polygon fill="none" stroke="black" points="634.5,-249 634.5,-271 885.5,-271 885.5,-249 634.5,-249"/>
<image xlink:href="../../images/foreignKeys.png" width="11px" height="12px" preserveAspectRatio="xMinYMin meet" x="639.5" y="-266"/>
<text text-anchor="start" x="654.5" y="-257.2" font-family="Helvetica,sans-Serif" font-size="11.00">terrain_form</text>
<polygon fill="none" stroke="black" points="634.5,-227 634.5,-249 885.5,-249 885.5,-227 634.5,-227"/>
<image xlink:href="../../images/foreignKeys.png" width="11px" height="12px" preserveAspectRatio="xMinYMin meet" x="639.5" y="-244"/>
<text text-anchor="start" x="654.5" y="-235.2" font-family="Helvetica,sans-Serif" font-size="11.00">management_type</text>
<polygon fill="none" stroke="black" points="634.5,-205 634.5,-227 885.5,-227 885.5,-205 634.5,-205"/>
<image xlink:href="../../images/foreignKeys.png" width="11px" height="12px" preserveAspectRatio="xMinYMin meet" x="639.5" y="-222"/>
<text text-anchor="start" x="654.5" y="-213.2" font-family="Helvetica,sans-Serif" font-size="11.00">harvesting_method</text>
<polygon fill="none" stroke="black" points="634.5,-183 634.5,-205 885.5,-205 885.5,-183 634.5,-183"/>
<image xlink:href="../../images/foreignKeys.png" width="11px" height="12px" preserveAspectRatio="xMinYMin meet" x="639.5" y="-200"/>
<text text-anchor="start" x="654.5" y="-191.2" font-family="Helvetica,sans-Serif" font-size="11.00">layer_type</text>
<polygon fill="none" stroke="black" points="634.5,-161 634.5,-183 885.5,-183 885.5,-161 634.5,-161"/>
<image xlink:href="../../images/foreignKeys.png" width="11px" height="12px" preserveAspectRatio="xMinYMin meet" x="639.5" y="-178"/>
<text text-anchor="start" x="654.5" y="-169.2" font-family="Helvetica,sans-Serif" font-size="11.00">stand_phase</text>
<polygon fill="none" stroke="black" points="634.5,-139 634.5,-161 885.5,-161 885.5,-139 634.5,-139"/>
<image xlink:href="../../images/foreignKeys.png" width="11px" height="12px" preserveAspectRatio="xMinYMin meet" x="639.5" y="-156"/>
<text text-anchor="start" x="654.5" y="-147.2" font-family="Helvetica,sans-Serif" font-size="11.00">sablings_layer</text>
<polygon fill="none" stroke="black" points="634.5,-117 634.5,-139 885.5,-139 885.5,-117 634.5,-117"/>
<image xlink:href="../../images/foreignKeys.png" width="11px" height="12px" preserveAspectRatio="xMinYMin meet" x="639.5" y="-134"/>
<text text-anchor="start" x="654.5" y="-125.2" font-family="Helvetica,sans-Serif" font-size="11.00">trees_less_4meter_mirrored</text>
<polygon fill="none" stroke="black" points="634.5,-95 634.5,-117 885.5,-117 885.5,-95 634.5,-95"/>
<image xlink:href="../../images/foreignKeys.png" width="11px" height="12px" preserveAspectRatio="xMinYMin meet" x="639.5" y="-112"/>
<text text-anchor="start" x="654.5" y="-103.2" font-family="Helvetica,sans-Serif" font-size="11.00">trees_less_4meter_count_factor</text>
<polygon fill="none" stroke="black" points="634.5,-73 634.5,-95 885.5,-95 885.5,-73 634.5,-73"/>
<image xlink:href="../../images/foreignKeys.png" width="11px" height="12px" preserveAspectRatio="xMinYMin meet" x="639.5" y="-90"/>
<text text-anchor="start" x="654.5" y="-81.2" font-family="Helvetica,sans-Serif" font-size="11.00">trees_less_4meter_layer</text>
<polygon fill="none" stroke="black" points="634.5,-55 634.5,-73 885.5,-73 885.5,-55 634.5,-55"/>
<text text-anchor="start" x="637.5" y="-61.2" font-family="Helvetica,sans-Serif" font-size="11.00">...</text>
<polygon fill="#ffffff" stroke="transparent" points="634.5,-37 634.5,-55 885.5,-55 885.5,-37 634.5,-37"/>
<polygon fill="none" stroke="black" points="634.5,-37 634.5,-55 885.5,-55 885.5,-37 634.5,-37"/>
<polygon fill="#ffffff" stroke="transparent" points="635.5,-38 635.5,-54 717.5,-54 717.5,-38 635.5,-38"/>
<text text-anchor="start" x="637.5" y="-43.2" font-family="Helvetica,sans-Serif" font-size="11.00">&lt; 24</text>
<polygon fill="#ffffff" stroke="transparent" points="717.5,-38 717.5,-54 809.5,-54 809.5,-38 717.5,-38"/>
<text text-anchor="start" x="745" y="-43.2" font-family="Helvetica,sans-Serif" font-size="11.00">0 rows</text>
<polygon fill="#ffffff" stroke="transparent" points="809.5,-38 809.5,-54 884.5,-54 884.5,-38 809.5,-38"/>
<text text-anchor="start" x="862.5" y="-43.2" font-family="Helvetica,sans-Serif" font-size="11.00">7 &gt;</text>
<polygon fill="black" stroke="black" points="717.5,-38 717.5,-54 717.5,-54 717.5,-38 717.5,-38"/>
<polygon fill="black" stroke="black" points="809.5,-38 809.5,-54 809.5,-54 809.5,-38 809.5,-38"/>
</a>
</g>
</g>
<!-- lookup_harvesting_method -->
<g id="node2" class="node">
<title>lookup_harvesting_method</title>
<g id="a_node2"><a xlink:href="../../tables/lookup_harvesting_method.html" xlink:title="lookup_harvesting_method" target="_top">
<polygon fill="#ffffff" stroke="transparent" points="8,-185 8,-317 585,-317 585,-185 8,-185"/>
<polygon fill="#f5f5f5" stroke="transparent" points="10.5,-293 10.5,-315 583.5,-315 583.5,-293 10.5,-293"/>
<polygon fill="none" stroke="black" points="10.5,-293 10.5,-315 583.5,-315 583.5,-293 10.5,-293"/>
<text text-anchor="start" x="15.5" y="-302.2" font-family="Helvetica,sans-Serif" font-weight="bold" font-size="11.00">lookup_harvesting_method</text>
<text text-anchor="start" x="541.5" y="-301.2" font-family="Helvetica,sans-Serif" font-size="11.00">[table]</text>
<polygon fill="none" stroke="black" points="10.5,-271 10.5,-293 228.5,-293 228.5,-271 10.5,-271"/>
<text text-anchor="start" x="30.5" y="-279.2" font-family="Helvetica,sans-Serif" font-size="11.00">name_de</text>
<polygon fill="none" stroke="black" points="228.5,-271 228.5,-293 583.5,-293 583.5,-271 228.5,-271"/>
<text text-anchor="start" x="231.5" y="-279.2" font-family="Helvetica,sans-Serif" font-size="11.00">varchar[150]</text>
<polygon fill="none" stroke="black" points="10.5,-249 10.5,-271 228.5,-271 228.5,-249 10.5,-249"/>
<text text-anchor="start" x="30.5" y="-257.2" font-family="Helvetica,sans-Serif" font-size="11.00">name_en</text>
<polygon fill="none" stroke="black" points="228.5,-249 228.5,-271 583.5,-271 583.5,-249 228.5,-249"/>
<text text-anchor="start" x="231.5" y="-257.2" font-family="Helvetica,sans-Serif" font-size="11.00">varchar[150]</text>
<polygon fill="none" stroke="black" points="10.5,-227 10.5,-249 228.5,-249 228.5,-227 10.5,-227"/>
<text text-anchor="start" x="30.5" y="-235.2" font-family="Helvetica,sans-Serif" font-size="11.00">sort</text>
<polygon fill="none" stroke="black" points="228.5,-227 228.5,-249 583.5,-249 583.5,-227 228.5,-227"/>
<text text-anchor="start" x="231.5" y="-235.2" font-family="Helvetica,sans-Serif" font-size="11.00">int4[10]</text>
<polygon fill="#ffffff" stroke="transparent" points="10.5,-205 10.5,-227 228.5,-227 228.5,-205 10.5,-205"/>
<polygon fill="none" stroke="black" points="10.5,-205 10.5,-227 228.5,-227 228.5,-205 10.5,-205"/>
<text text-anchor="start" x="30.5" y="-213.2" font-family="Helvetica,sans-Serif" font-size="11.00">abbreviation</text>
<polygon fill="none" stroke="black" points="228.5,-205 228.5,-227 583.5,-227 583.5,-205 228.5,-205"/>
<text text-anchor="start" x="231.5" y="-213.2" font-family="Helvetica,sans-Serif" font-size="11.00">&quot;private_ci2027_001&quot;.&quot;enum_harvesting_method&quot;[2147483647]</text>
<polygon fill="#ffffff" stroke="transparent" points="10.5,-187 10.5,-205 583.5,-205 583.5,-187 10.5,-187"/>
<polygon fill="none" stroke="black" points="10.5,-187 10.5,-205 583.5,-205 583.5,-187 10.5,-187"/>
<polygon fill="#ffffff" stroke="transparent" points="11.5,-188 11.5,-204 196.5,-204 196.5,-188 11.5,-188"/>
<text text-anchor="start" x="13.5" y="-193.2" font-family="Helvetica,sans-Serif" font-size="11.00">&lt; 0</text>
<polygon fill="#ffffff" stroke="transparent" points="196.5,-188 196.5,-204 398.5,-204 398.5,-188 196.5,-188"/>
<text text-anchor="start" x="279" y="-193.2" font-family="Helvetica,sans-Serif" font-size="11.00">0 rows</text>
<polygon fill="#ffffff" stroke="transparent" points="398.5,-188 398.5,-204 582.5,-204 582.5,-188 398.5,-188"/>
<text text-anchor="start" x="560.5" y="-193.2" font-family="Helvetica,sans-Serif" font-size="11.00">1 &gt;</text>
<polygon fill="black" stroke="black" points="196.5,-188 196.5,-204 196.5,-204 196.5,-188 196.5,-188"/>
<polygon fill="black" stroke="black" points="398.5,-188 398.5,-204 398.5,-204 398.5,-188 398.5,-188"/>
<polygon fill="none" stroke="black" stroke-width="2" points="9,-186 9,-316 584,-316 584,-186 9,-186"/>
</a>
</g>
</g>
<!-- plot&#45;&gt;lookup_harvesting_method -->
<g id="edge1" class="edge">
<title>plot:w&#45;&gt;lookup_harvesting_method:e</title>
<path fill="none" stroke="black" d="M618.99,-216C607.68,-216 600.49,-216 584.5,-216"/>
<polygon fill="black" stroke="black" points="625.5,-216 633.5,-219.6 629.5,-216 633.5,-216 633.5,-216 633.5,-216 629.5,-216 633.5,-212.4 625.5,-216 625.5,-216"/>
<ellipse fill="none" stroke="black" cx="622.3" cy="-216" rx="3.2" ry="3.2"/>
</g>
</g>
</svg>
