<?xml version="1.0" encoding="UTF-8" standalone="no"?>
<!DOCTYPE svg PUBLIC "-//W3C//DTD SVG 1.1//EN"
 "http://www.w3.org/Graphics/SVG/1.1/DTD/svg11.dtd">
<!-- Generated by graphviz version 2.43.0 (0)
 -->
<!-- Title: oneDegreeRelationshipsDiagram Pages: 1 -->
<svg width="707pt" height="307pt"
 viewBox="0.00 0.00 707.00 307.00" xmlns="http://www.w3.org/2000/svg" xmlns:xlink="http://www.w3.org/1999/xlink">
<g id="graph0" class="graph" transform="scale(1 1) rotate(0) translate(4 303)">
<title>oneDegreeRelationshipsDiagram</title>
<polygon fill="#ffffff" stroke="transparent" points="-4,4 -4,-303 703,-303 703,4 -4,4"/>
<text text-anchor="middle" x="79.5" y="-7.2" font-family="Helvetica,sans-Serif" font-size="11.00">Generated by SchemaSpy</text>
<!-- wzp_tree -->
<g id="node1" class="node">
<title>wzp_tree</title>
<g id="a_node1"><a xlink:href="../../tables/wzp_tree.html" xlink:title="wzp_tree" target="_top">
<polygon fill="#ffffff" stroke="transparent" points="518,-37 518,-271 691,-271 691,-37 518,-37"/>
<polygon fill="#f5f5f5" stroke="transparent" points="518.5,-249 518.5,-271 691.5,-271 691.5,-249 518.5,-249"/>
<polygon fill="none" stroke="black" points="518.5,-249 518.5,-271 691.5,-271 691.5,-249 518.5,-249"/>
<text text-anchor="start" x="523.5" y="-258.2" font-family="Helvetica,sans-Serif" font-weight="bold" font-size="11.00">wzp_tree</text>
<text text-anchor="start" x="649.5" y="-257.2" font-family="Helvetica,sans-Serif" font-size="11.00">[table]</text>
<polygon fill="none" stroke="black" points="518.5,-227 518.5,-249 691.5,-249 691.5,-227 518.5,-227"/>
<image xlink:href="../../images/primaryKeys.png" width="11px" height="12px" preserveAspectRatio="xMinYMin meet" x="523.5" y="-244"/>
<text text-anchor="start" x="538.5" y="-235.2" font-family="Helvetica,sans-Serif" font-size="11.00">id</text>
<polygon fill="none" stroke="black" points="518.5,-205 518.5,-227 691.5,-227 691.5,-205 518.5,-205"/>
<image xlink:href="../../images/foreignKeys.png" width="11px" height="12px" preserveAspectRatio="xMinYMin meet" x="523.5" y="-222"/>
<text text-anchor="start" x="538.5" y="-213.2" font-family="Helvetica,sans-Serif" font-size="11.00">plot_id</text>
<polygon fill="none" stroke="black" points="518.5,-183 518.5,-205 691.5,-205 691.5,-183 518.5,-183"/>
<image xlink:href="../../images/foreignKeys.png" width="11px" height="12px" preserveAspectRatio="xMinYMin meet" x="523.5" y="-200"/>
<text text-anchor="start" x="538.5" y="-191.2" font-family="Helvetica,sans-Serif" font-size="11.00">tree_state</text>
<polygon fill="none" stroke="black" points="518.5,-161 518.5,-183 691.5,-183 691.5,-161 518.5,-161"/>
<image xlink:href="../../images/foreignKeys.png" width="11px" height="12px" preserveAspectRatio="xMinYMin meet" x="523.5" y="-178"/>
<text text-anchor="start" x="538.5" y="-169.2" font-family="Helvetica,sans-Serif" font-size="11.00">tree_species</text>
<polygon fill="none" stroke="black" points="518.5,-139 518.5,-161 691.5,-161 691.5,-139 518.5,-139"/>
<image xlink:href="../../images/foreignKeys.png" width="11px" height="12px" preserveAspectRatio="xMinYMin meet" x="523.5" y="-156"/>
<text text-anchor="start" x="538.5" y="-147.2" font-family="Helvetica,sans-Serif" font-size="11.00">stem_breakage</text>
<polygon fill="none" stroke="black" points="518.5,-117 518.5,-139 691.5,-139 691.5,-117 518.5,-117"/>
<image xlink:href="../../images/foreignKeys.png" width="11px" height="12px" preserveAspectRatio="xMinYMin meet" x="523.5" y="-134"/>
<text text-anchor="start" x="538.5" y="-125.2" font-family="Helvetica,sans-Serif" font-size="11.00">stem_form</text>
<polygon fill="none" stroke="black" points="518.5,-95 518.5,-117 691.5,-117 691.5,-95 518.5,-95"/>
<image xlink:href="../../images/foreignKeys.png" width="11px" height="12px" preserveAspectRatio="xMinYMin meet" x="523.5" y="-112"/>
<text text-anchor="start" x="538.5" y="-103.2" font-family="Helvetica,sans-Serif" font-size="11.00">pruning</text>
<polygon fill="none" stroke="black" points="518.5,-73 518.5,-95 691.5,-95 691.5,-73 518.5,-73"/>
<image xlink:href="../../images/foreignKeys.png" width="11px" height="12px" preserveAspectRatio="xMinYMin meet" x="523.5" y="-90"/>
<text text-anchor="start" x="538.5" y="-81.2" font-family="Helvetica,sans-Serif" font-size="11.00">inventory_layer</text>
<polygon fill="none" stroke="black" points="518.5,-55 518.5,-73 691.5,-73 691.5,-55 518.5,-55"/>
<text text-anchor="start" x="521.5" y="-61.2" font-family="Helvetica,sans-Serif" font-size="11.00">...</text>
<polygon fill="#ffffff" stroke="transparent" points="518.5,-37 518.5,-55 691.5,-55 691.5,-37 518.5,-37"/>
<polygon fill="none" stroke="black" points="518.5,-37 518.5,-55 691.5,-55 691.5,-37 518.5,-37"/>
<polygon fill="#ffffff" stroke="transparent" points="519.5,-38 519.5,-54 570.5,-54 570.5,-38 519.5,-38"/>
<text text-anchor="start" x="521.5" y="-43.2" font-family="Helvetica,sans-Serif" font-size="11.00">&lt; 7</text>
<polygon fill="#ffffff" stroke="transparent" points="570.5,-38 570.5,-54 652.5,-54 652.5,-38 570.5,-38"/>
<text text-anchor="start" x="586" y="-43.2" font-family="Helvetica,sans-Serif" font-size="11.00">747 rows</text>
<polygon fill="#ffffff" stroke="transparent" points="652.5,-38 652.5,-54 690.5,-54 690.5,-38 652.5,-38"/>
<text text-anchor="start" x="680.5" y="-43.2" font-family="Helvetica,sans-Serif" font-size="11.00"> &#160;</text>
<polygon fill="black" stroke="black" points="570.5,-38 570.5,-54 570.5,-54 570.5,-38 570.5,-38"/>
<polygon fill="black" stroke="black" points="652.5,-38 652.5,-54 652.5,-54 652.5,-38 652.5,-38"/>
</a>
</g>
</g>
<!-- lookup_tree_state -->
<g id="node2" class="node">
<title>lookup_tree_state</title>
<g id="a_node2"><a xlink:href="../../tables/lookup_tree_state.html" xlink:title="lookup_tree_state" target="_top">
<polygon fill="#ffffff" stroke="transparent" points="8,-163 8,-295 469,-295 469,-163 8,-163"/>
<polygon fill="#f5f5f5" stroke="transparent" points="10.5,-271 10.5,-293 467.5,-293 467.5,-271 10.5,-271"/>
<polygon fill="none" stroke="black" points="10.5,-271 10.5,-293 467.5,-293 467.5,-271 10.5,-271"/>
<text text-anchor="start" x="15.5" y="-280.2" font-family="Helvetica,sans-Serif" font-weight="bold" font-size="11.00">lookup_tree_state</text>
<text text-anchor="start" x="425.5" y="-279.2" font-family="Helvetica,sans-Serif" font-size="11.00">[table]</text>
<polygon fill="none" stroke="black" points="10.5,-249 10.5,-271 161.5,-271 161.5,-249 10.5,-249"/>
<text text-anchor="start" x="30.5" y="-257.2" font-family="Helvetica,sans-Serif" font-size="11.00">name_de</text>
<polygon fill="none" stroke="black" points="161.5,-249 161.5,-271 467.5,-271 467.5,-249 161.5,-249"/>
<text text-anchor="start" x="164.5" y="-257.2" font-family="Helvetica,sans-Serif" font-size="11.00">varchar[150]</text>
<polygon fill="none" stroke="black" points="10.5,-227 10.5,-249 161.5,-249 161.5,-227 10.5,-227"/>
<text text-anchor="start" x="30.5" y="-235.2" font-family="Helvetica,sans-Serif" font-size="11.00">name_en</text>
<polygon fill="none" stroke="black" points="161.5,-227 161.5,-249 467.5,-249 467.5,-227 161.5,-227"/>
<text text-anchor="start" x="164.5" y="-235.2" font-family="Helvetica,sans-Serif" font-size="11.00">varchar[150]</text>
<polygon fill="none" stroke="black" points="10.5,-205 10.5,-227 161.5,-227 161.5,-205 10.5,-205"/>
<text text-anchor="start" x="30.5" y="-213.2" font-family="Helvetica,sans-Serif" font-size="11.00">sort</text>
<polygon fill="none" stroke="black" points="161.5,-205 161.5,-227 467.5,-227 467.5,-205 161.5,-205"/>
<text text-anchor="start" x="164.5" y="-213.2" font-family="Helvetica,sans-Serif" font-size="11.00">int4[10]</text>
<polygon fill="#ffffff" stroke="transparent" points="10.5,-183 10.5,-205 161.5,-205 161.5,-183 10.5,-183"/>
<polygon fill="none" stroke="black" points="10.5,-183 10.5,-205 161.5,-205 161.5,-183 10.5,-183"/>
<text text-anchor="start" x="30.5" y="-191.2" font-family="Helvetica,sans-Serif" font-size="11.00">abbreviation</text>
<polygon fill="none" stroke="black" points="161.5,-183 161.5,-205 467.5,-205 467.5,-183 161.5,-183"/>
<text text-anchor="start" x="164.5" y="-191.2" font-family="Helvetica,sans-Serif" font-size="11.00">&quot;private_ci2027_001&quot;.&quot;enum_tree_state&quot;[2147483647]</text>
<polygon fill="#ffffff" stroke="transparent" points="10.5,-165 10.5,-183 467.5,-183 467.5,-165 10.5,-165"/>
<polygon fill="none" stroke="black" points="10.5,-165 10.5,-183 467.5,-183 467.5,-165 10.5,-165"/>
<polygon fill="#ffffff" stroke="transparent" points="11.5,-166 11.5,-182 157.5,-182 157.5,-166 11.5,-166"/>
<text text-anchor="start" x="13.5" y="-171.2" font-family="Helvetica,sans-Serif" font-size="11.00">&lt; 0</text>
<polygon fill="#ffffff" stroke="transparent" points="157.5,-166 157.5,-182 320.5,-182 320.5,-166 157.5,-166"/>
<text text-anchor="start" x="220.5" y="-171.2" font-family="Helvetica,sans-Serif" font-size="11.00">0 rows</text>
<polygon fill="#ffffff" stroke="transparent" points="320.5,-166 320.5,-182 466.5,-182 466.5,-166 320.5,-166"/>
<text text-anchor="start" x="444.5" y="-171.2" font-family="Helvetica,sans-Serif" font-size="11.00">1 &gt;</text>
<polygon fill="black" stroke="black" points="157.5,-166 157.5,-182 157.5,-182 157.5,-166 157.5,-166"/>
<polygon fill="black" stroke="black" points="320.5,-166 320.5,-182 320.5,-182 320.5,-166 320.5,-166"/>
<polygon fill="none" stroke="black" stroke-width="2" points="9,-164 9,-294 468,-294 468,-164 9,-164"/>
</a>
</g>
</g>
<!-- wzp_tree&#45;&gt;lookup_tree_state -->
<g id="edge1" class="edge">
<title>wzp_tree:w&#45;&gt;lookup_tree_state:e</title>
<path fill="none" stroke="black" d="M502.99,-194C491.68,-194 484.49,-194 468.5,-194"/>
<polygon fill="black" stroke="black" points="509.5,-194 517.5,-197.6 513.5,-194 517.5,-194 517.5,-194 517.5,-194 513.5,-194 517.5,-190.4 509.5,-194 509.5,-194"/>
<ellipse fill="none" stroke="black" cx="506.3" cy="-194" rx="3.2" ry="3.2"/>
</g>
</g>
</svg>
