<?xml version="1.0" encoding="UTF-8" standalone="no"?>
<!DOCTYPE svg PUBLIC "-//W3C//DTD SVG 1.1//EN"
 "http://www.w3.org/Graphics/SVG/1.1/DTD/svg11.dtd">
<!-- Generated by graphviz version 2.43.0 (0)
 -->
<!-- Title: oneDegreeRelationshipsDiagram Pages: 1 -->
<svg width="816pt" height="679pt"
 viewBox="0.00 0.00 816.00 679.00" xmlns="http://www.w3.org/2000/svg" xmlns:xlink="http://www.w3.org/1999/xlink">
<g id="graph0" class="graph" transform="scale(1 1) rotate(0) translate(4 675)">
<title>oneDegreeRelationshipsDiagram</title>
<polygon fill="#ffffff" stroke="transparent" points="-4,4 -4,-675 812,-675 812,4 -4,4"/>
<text text-anchor="middle" x="79.5" y="-7.2" font-family="Helvetica,sans-Serif" font-size="11.00">Generated by SchemaSpy</text>
<!-- plot -->
<g id="node1" class="node">
<title>plot</title>
<g id="a_node1"><a xlink:href="../../tables/plot.html" xlink:title="plot" target="_top">
<polygon fill="#ffffff" stroke="transparent" points="549,-37 549,-667 800,-667 800,-37 549,-37"/>
<polygon fill="#f5f5f5" stroke="transparent" points="549.5,-645 549.5,-667 800.5,-667 800.5,-645 549.5,-645"/>
<polygon fill="none" stroke="black" points="549.5,-645 549.5,-667 800.5,-667 800.5,-645 549.5,-645"/>
<text text-anchor="start" x="554" y="-654.2" font-family="Helvetica,sans-Serif" font-weight="bold" font-size="11.00">plot</text>
<text text-anchor="start" x="758.5" y="-653.2" font-family="Helvetica,sans-Serif" font-size="11.00">[table]</text>
<polygon fill="none" stroke="black" points="549.5,-623 549.5,-645 800.5,-645 800.5,-623 549.5,-623"/>
<image xlink:href="../../images/primaryKeys.png" width="11px" height="12px" preserveAspectRatio="xMinYMin meet" x="554.5" y="-640"/>
<text text-anchor="start" x="569.5" y="-631.2" font-family="Helvetica,sans-Serif" font-size="11.00">id</text>
<polygon fill="#ffffff" stroke="transparent" points="549.5,-601 549.5,-623 800.5,-623 800.5,-601 549.5,-601"/>
<polygon fill="none" stroke="black" points="549.5,-601 549.5,-623 800.5,-623 800.5,-601 549.5,-601"/>
<image xlink:href="../../images/foreignKeys.png" width="11px" height="12px" preserveAspectRatio="xMinYMin meet" x="554.5" y="-618"/>
<text text-anchor="start" x="569.5" y="-609.2" font-family="Helvetica,sans-Serif" font-size="11.00">cluster_id</text>
<polygon fill="#ffffff" stroke="transparent" points="549.5,-579 549.5,-601 800.5,-601 800.5,-579 549.5,-579"/>
<polygon fill="none" stroke="black" points="549.5,-579 549.5,-601 800.5,-601 800.5,-579 549.5,-579"/>
<text text-anchor="start" x="569.5" y="-587.2" font-family="Helvetica,sans-Serif" font-size="11.00">plot_name</text>
<polygon fill="none" stroke="black" points="549.5,-557 549.5,-579 800.5,-579 800.5,-557 549.5,-557"/>
<image xlink:href="../../images/foreignKeys.png" width="11px" height="12px" preserveAspectRatio="xMinYMin meet" x="554.5" y="-574"/>
<text text-anchor="start" x="569.5" y="-565.2" font-family="Helvetica,sans-Serif" font-size="11.00">sampling_strata</text>
<polygon fill="none" stroke="black" points="549.5,-535 549.5,-557 800.5,-557 800.5,-535 549.5,-535"/>
<image xlink:href="../../images/foreignKeys.png" width="11px" height="12px" preserveAspectRatio="xMinYMin meet" x="554.5" y="-552"/>
<text text-anchor="start" x="569.5" y="-543.2" font-family="Helvetica,sans-Serif" font-size="11.00">growth_district</text>
<polygon fill="none" stroke="black" points="549.5,-513 549.5,-535 800.5,-535 800.5,-513 549.5,-513"/>
<image xlink:href="../../images/foreignKeys.png" width="11px" height="12px" preserveAspectRatio="xMinYMin meet" x="554.5" y="-530"/>
<text text-anchor="start" x="569.5" y="-521.2" font-family="Helvetica,sans-Serif" font-size="11.00">forest_decision</text>
<polygon fill="none" stroke="black" points="549.5,-491 549.5,-513 800.5,-513 800.5,-491 549.5,-491"/>
<image xlink:href="../../images/foreignKeys.png" width="11px" height="12px" preserveAspectRatio="xMinYMin meet" x="554.5" y="-508"/>
<text text-anchor="start" x="569.5" y="-499.2" font-family="Helvetica,sans-Serif" font-size="11.00">forestry_department</text>
<polygon fill="none" stroke="black" points="549.5,-469 549.5,-491 800.5,-491 800.5,-469 549.5,-469"/>
<image xlink:href="../../images/foreignKeys.png" width="11px" height="12px" preserveAspectRatio="xMinYMin meet" x="554.5" y="-486"/>
<text text-anchor="start" x="569.5" y="-477.2" font-family="Helvetica,sans-Serif" font-size="11.00">height_layer_class</text>
<polygon fill="none" stroke="black" points="549.5,-447 549.5,-469 800.5,-469 800.5,-447 549.5,-447"/>
<image xlink:href="../../images/foreignKeys.png" width="11px" height="12px" preserveAspectRatio="xMinYMin meet" x="554.5" y="-464"/>
<text text-anchor="start" x="569.5" y="-455.2" font-family="Helvetica,sans-Serif" font-size="11.00">property_type</text>
<polygon fill="none" stroke="black" points="549.5,-425 549.5,-447 800.5,-447 800.5,-425 549.5,-425"/>
<image xlink:href="../../images/foreignKeys.png" width="11px" height="12px" preserveAspectRatio="xMinYMin meet" x="554.5" y="-442"/>
<text text-anchor="start" x="569.5" y="-433.2" font-family="Helvetica,sans-Serif" font-size="11.00">property_size_class</text>
<polygon fill="none" stroke="black" points="549.5,-403 549.5,-425 800.5,-425 800.5,-403 549.5,-403"/>
<image xlink:href="../../images/foreignKeys.png" width="11px" height="12px" preserveAspectRatio="xMinYMin meet" x="554.5" y="-420"/>
<text text-anchor="start" x="569.5" y="-411.2" font-family="Helvetica,sans-Serif" font-size="11.00">forest_type</text>
<polygon fill="none" stroke="black" points="549.5,-381 549.5,-403 800.5,-403 800.5,-381 549.5,-381"/>
<image xlink:href="../../images/foreignKeys.png" width="11px" height="12px" preserveAspectRatio="xMinYMin meet" x="554.5" y="-398"/>
<text text-anchor="start" x="569.5" y="-389.2" font-family="Helvetica,sans-Serif" font-size="11.00">habitat_type</text>
<polygon fill="none" stroke="black" points="549.5,-359 549.5,-381 800.5,-381 800.5,-359 549.5,-359"/>
<image xlink:href="../../images/foreignKeys.png" width="11px" height="12px" preserveAspectRatio="xMinYMin meet" x="554.5" y="-376"/>
<text text-anchor="start" x="569.5" y="-367.2" font-family="Helvetica,sans-Serif" font-size="11.00">habitat_type_source</text>
<polygon fill="none" stroke="black" points="549.5,-337 549.5,-359 800.5,-359 800.5,-337 549.5,-337"/>
<image xlink:href="../../images/foreignKeys.png" width="11px" height="12px" preserveAspectRatio="xMinYMin meet" x="554.5" y="-354"/>
<text text-anchor="start" x="569.5" y="-345.2" font-family="Helvetica,sans-Serif" font-size="11.00">use_restriction</text>
<polygon fill="none" stroke="black" points="549.5,-315 549.5,-337 800.5,-337 800.5,-315 549.5,-315"/>
<image xlink:href="../../images/foreignKeys.png" width="11px" height="12px" preserveAspectRatio="xMinYMin meet" x="554.5" y="-332"/>
<text text-anchor="start" x="569.5" y="-323.2" font-family="Helvetica,sans-Serif" font-size="11.00">land_use</text>
<polygon fill="none" stroke="black" points="549.5,-293 549.5,-315 800.5,-315 800.5,-293 549.5,-293"/>
<image xlink:href="../../images/foreignKeys.png" width="11px" height="12px" preserveAspectRatio="xMinYMin meet" x="554.5" y="-310"/>
<text text-anchor="start" x="569.5" y="-301.2" font-family="Helvetica,sans-Serif" font-size="11.00">marking_state</text>
<polygon fill="none" stroke="black" points="549.5,-271 549.5,-293 800.5,-293 800.5,-271 549.5,-271"/>
<image xlink:href="../../images/foreignKeys.png" width="11px" height="12px" preserveAspectRatio="xMinYMin meet" x="554.5" y="-288"/>
<text text-anchor="start" x="569.5" y="-279.2" font-family="Helvetica,sans-Serif" font-size="11.00">marking_profile</text>
<polygon fill="none" stroke="black" points="549.5,-249 549.5,-271 800.5,-271 800.5,-249 549.5,-249"/>
<image xlink:href="../../images/foreignKeys.png" width="11px" height="12px" preserveAspectRatio="xMinYMin meet" x="554.5" y="-266"/>
<text text-anchor="start" x="569.5" y="-257.2" font-family="Helvetica,sans-Serif" font-size="11.00">terrain_form</text>
<polygon fill="none" stroke="black" points="549.5,-227 549.5,-249 800.5,-249 800.5,-227 549.5,-227"/>
<image xlink:href="../../images/foreignKeys.png" width="11px" height="12px" preserveAspectRatio="xMinYMin meet" x="554.5" y="-244"/>
<text text-anchor="start" x="569.5" y="-235.2" font-family="Helvetica,sans-Serif" font-size="11.00">management_type</text>
<polygon fill="none" stroke="black" points="549.5,-205 549.5,-227 800.5,-227 800.5,-205 549.5,-205"/>
<image xlink:href="../../images/foreignKeys.png" width="11px" height="12px" preserveAspectRatio="xMinYMin meet" x="554.5" y="-222"/>
<text text-anchor="start" x="569.5" y="-213.2" font-family="Helvetica,sans-Serif" font-size="11.00">harvesting_method</text>
<polygon fill="none" stroke="black" points="549.5,-183 549.5,-205 800.5,-205 800.5,-183 549.5,-183"/>
<image xlink:href="../../images/foreignKeys.png" width="11px" height="12px" preserveAspectRatio="xMinYMin meet" x="554.5" y="-200"/>
<text text-anchor="start" x="569.5" y="-191.2" font-family="Helvetica,sans-Serif" font-size="11.00">layer_type</text>
<polygon fill="none" stroke="black" points="549.5,-161 549.5,-183 800.5,-183 800.5,-161 549.5,-161"/>
<image xlink:href="../../images/foreignKeys.png" width="11px" height="12px" preserveAspectRatio="xMinYMin meet" x="554.5" y="-178"/>
<text text-anchor="start" x="569.5" y="-169.2" font-family="Helvetica,sans-Serif" font-size="11.00">stand_phase</text>
<polygon fill="none" stroke="black" points="549.5,-139 549.5,-161 800.5,-161 800.5,-139 549.5,-139"/>
<image xlink:href="../../images/foreignKeys.png" width="11px" height="12px" preserveAspectRatio="xMinYMin meet" x="554.5" y="-156"/>
<text text-anchor="start" x="569.5" y="-147.2" font-family="Helvetica,sans-Serif" font-size="11.00">sablings_layer</text>
<polygon fill="none" stroke="black" points="549.5,-117 549.5,-139 800.5,-139 800.5,-117 549.5,-117"/>
<image xlink:href="../../images/foreignKeys.png" width="11px" height="12px" preserveAspectRatio="xMinYMin meet" x="554.5" y="-134"/>
<text text-anchor="start" x="569.5" y="-125.2" font-family="Helvetica,sans-Serif" font-size="11.00">trees_less_4meter_mirrored</text>
<polygon fill="none" stroke="black" points="549.5,-95 549.5,-117 800.5,-117 800.5,-95 549.5,-95"/>
<image xlink:href="../../images/foreignKeys.png" width="11px" height="12px" preserveAspectRatio="xMinYMin meet" x="554.5" y="-112"/>
<text text-anchor="start" x="569.5" y="-103.2" font-family="Helvetica,sans-Serif" font-size="11.00">trees_less_4meter_count_factor</text>
<polygon fill="none" stroke="black" points="549.5,-73 549.5,-95 800.5,-95 800.5,-73 549.5,-73"/>
<image xlink:href="../../images/foreignKeys.png" width="11px" height="12px" preserveAspectRatio="xMinYMin meet" x="554.5" y="-90"/>
<text text-anchor="start" x="569.5" y="-81.2" font-family="Helvetica,sans-Serif" font-size="11.00">trees_less_4meter_layer</text>
<polygon fill="none" stroke="black" points="549.5,-55 549.5,-73 800.5,-73 800.5,-55 549.5,-55"/>
<text text-anchor="start" x="552.5" y="-61.2" font-family="Helvetica,sans-Serif" font-size="11.00">...</text>
<polygon fill="#ffffff" stroke="transparent" points="549.5,-37 549.5,-55 800.5,-55 800.5,-37 549.5,-37"/>
<polygon fill="none" stroke="black" points="549.5,-37 549.5,-55 800.5,-55 800.5,-37 549.5,-37"/>
<polygon fill="#ffffff" stroke="transparent" points="550.5,-38 550.5,-54 632.5,-54 632.5,-38 550.5,-38"/>
<text text-anchor="start" x="552.5" y="-43.2" font-family="Helvetica,sans-Serif" font-size="11.00">&lt; 24</text>
<polygon fill="#ffffff" stroke="transparent" points="632.5,-38 632.5,-54 724.5,-54 724.5,-38 632.5,-38"/>
<text text-anchor="start" x="660" y="-43.2" font-family="Helvetica,sans-Serif" font-size="11.00">0 rows</text>
<polygon fill="#ffffff" stroke="transparent" points="724.5,-38 724.5,-54 799.5,-54 799.5,-38 724.5,-38"/>
<text text-anchor="start" x="777.5" y="-43.2" font-family="Helvetica,sans-Serif" font-size="11.00">7 &gt;</text>
<polygon fill="black" stroke="black" points="632.5,-38 632.5,-54 632.5,-54 632.5,-38 632.5,-38"/>
<polygon fill="black" stroke="black" points="724.5,-38 724.5,-54 724.5,-54 724.5,-38 724.5,-38"/>
</a>
</g>
</g>
<!-- lookup_habitat_type -->
<g id="node2" class="node">
<title>lookup_habitat_type</title>
<g id="a_node2"><a xlink:href="../../tables/lookup_habitat_type.html" xlink:title="lookup_habitat_type" target="_top">
<polygon fill="#ffffff" stroke="transparent" points="8,-361 8,-493 500,-493 500,-361 8,-361"/>
<polygon fill="#f5f5f5" stroke="transparent" points="10,-469 10,-491 498,-491 498,-469 10,-469"/>
<polygon fill="none" stroke="black" points="10,-469 10,-491 498,-491 498,-469 10,-469"/>
<text text-anchor="start" x="15" y="-478.2" font-family="Helvetica,sans-Serif" font-weight="bold" font-size="11.00">lookup_habitat_type</text>
<text text-anchor="start" x="456" y="-477.2" font-family="Helvetica,sans-Serif" font-size="11.00">[table]</text>
<polygon fill="none" stroke="black" points="10,-447 10,-469 179,-469 179,-447 10,-447"/>
<text text-anchor="start" x="30" y="-455.2" font-family="Helvetica,sans-Serif" font-size="11.00">name_de</text>
<polygon fill="none" stroke="black" points="179,-447 179,-469 498,-469 498,-447 179,-447"/>
<text text-anchor="start" x="182" y="-455.2" font-family="Helvetica,sans-Serif" font-size="11.00">varchar[150]</text>
<polygon fill="none" stroke="black" points="10,-425 10,-447 179,-447 179,-425 10,-425"/>
<text text-anchor="start" x="30" y="-433.2" font-family="Helvetica,sans-Serif" font-size="11.00">name_en</text>
<polygon fill="none" stroke="black" points="179,-425 179,-447 498,-447 498,-425 179,-425"/>
<text text-anchor="start" x="182" y="-433.2" font-family="Helvetica,sans-Serif" font-size="11.00">varchar[150]</text>
<polygon fill="none" stroke="black" points="10,-403 10,-425 179,-425 179,-403 10,-403"/>
<text text-anchor="start" x="30" y="-411.2" font-family="Helvetica,sans-Serif" font-size="11.00">sort</text>
<polygon fill="none" stroke="black" points="179,-403 179,-425 498,-425 498,-403 179,-403"/>
<text text-anchor="start" x="182" y="-411.2" font-family="Helvetica,sans-Serif" font-size="11.00">int4[10]</text>
<polygon fill="#ffffff" stroke="transparent" points="10,-381 10,-403 179,-403 179,-381 10,-381"/>
<polygon fill="none" stroke="black" points="10,-381 10,-403 179,-403 179,-381 10,-381"/>
<text text-anchor="start" x="30" y="-389.2" font-family="Helvetica,sans-Serif" font-size="11.00">abbreviation</text>
<polygon fill="none" stroke="black" points="179,-381 179,-403 498,-403 498,-381 179,-381"/>
<text text-anchor="start" x="182" y="-389.2" font-family="Helvetica,sans-Serif" font-size="11.00">&quot;private_ci2027_001&quot;.&quot;enum_habitat_type&quot;[2147483647]</text>
<polygon fill="#ffffff" stroke="transparent" points="10,-363 10,-381 498,-381 498,-363 10,-363"/>
<polygon fill="none" stroke="black" points="10,-363 10,-381 498,-381 498,-363 10,-363"/>
<polygon fill="#ffffff" stroke="transparent" points="11,-364 11,-380 168,-380 168,-364 11,-364"/>
<text text-anchor="start" x="13" y="-369.2" font-family="Helvetica,sans-Serif" font-size="11.00">&lt; 0</text>
<polygon fill="#ffffff" stroke="transparent" points="168,-364 168,-380 341,-380 341,-364 168,-364"/>
<text text-anchor="start" x="236" y="-369.2" font-family="Helvetica,sans-Serif" font-size="11.00">0 rows</text>
<polygon fill="#ffffff" stroke="transparent" points="341,-364 341,-380 497,-380 497,-364 341,-364"/>
<text text-anchor="start" x="475" y="-369.2" font-family="Helvetica,sans-Serif" font-size="11.00">1 &gt;</text>
<polygon fill="black" stroke="black" points="168,-364 168,-380 168,-380 168,-364 168,-364"/>
<polygon fill="black" stroke="black" points="341,-364 341,-380 341,-380 341,-364 341,-364"/>
<polygon fill="none" stroke="black" stroke-width="2" points="9,-362 9,-492 499,-492 499,-362 9,-362"/>
</a>
</g>
</g>
<!-- plot&#45;&gt;lookup_habitat_type -->
<g id="edge1" class="edge">
<title>plot:w&#45;&gt;lookup_habitat_type:e</title>
<path fill="none" stroke="black" d="M533.84,-392C522.41,-392 515.16,-392 499,-392"/>
<polygon fill="black" stroke="black" points="540.5,-392 548.5,-395.6 544.5,-392 548.5,-392 548.5,-392 548.5,-392 544.5,-392 548.5,-388.4 540.5,-392 540.5,-392"/>
<ellipse fill="none" stroke="black" cx="537.3" cy="-392" rx="3.2" ry="3.2"/>
</g>
</g>
</svg>
