<?xml version="1.0" encoding="UTF-8" standalone="no"?>
<!DOCTYPE svg PUBLIC "-//W3C//DTD SVG 1.1//EN"
 "http://www.w3.org/Graphics/SVG/1.1/DTD/svg11.dtd">
<!-- Generated by graphviz version 2.43.0 (0)
 -->
<!-- Title: oneDegreeRelationshipsDiagram Pages: 1 -->
<svg width="614pt" height="203pt"
 viewBox="0.00 0.00 614.00 203.00" xmlns="http://www.w3.org/2000/svg" xmlns:xlink="http://www.w3.org/1999/xlink">
<g id="graph0" class="graph" transform="scale(1 1) rotate(0) translate(4 199)">
<title>oneDegreeRelationshipsDiagram</title>
<polygon fill="#ffffff" stroke="transparent" points="-4,4 -4,-199 610,-199 610,4 -4,4"/>
<text text-anchor="middle" x="79.5" y="-7.2" font-family="Helvetica,sans-Serif" font-size="11.00">Generated by SchemaSpy</text>
<!-- lookup_ffh_forest_type_field -->
<g id="node1" class="node">
<title>lookup_ffh_forest_type_field</title>
<g id="a_node1"><a xlink:href="../../tables/lookup_ffh_forest_type_field.html" xlink:title="lookup_ffh_forest_type_field" target="_top">
<polygon fill="#ffffff" stroke="transparent" points="8,-37 8,-191 598,-191 598,-37 8,-37"/>
<polygon fill="#f5f5f5" stroke="transparent" points="10,-167 10,-189 596,-189 596,-167 10,-167"/>
<polygon fill="none" stroke="black" points="10,-167 10,-189 596,-189 596,-167 10,-167"/>
<text text-anchor="start" x="15" y="-176.2" font-family="Helvetica,sans-Serif" font-weight="bold" font-size="11.00">lookup_ffh_forest_type_field</text>
<text text-anchor="start" x="554" y="-175.2" font-family="Helvetica,sans-Serif" font-size="11.00">[table]</text>
<polygon fill="none" stroke="black" points="10,-145 10,-167 236,-167 236,-145 10,-145"/>
<text text-anchor="start" x="30" y="-153.2" font-family="Helvetica,sans-Serif" font-size="11.00">name_de</text>
<polygon fill="none" stroke="black" points="236,-145 236,-167 596,-167 596,-145 236,-145"/>
<text text-anchor="start" x="239" y="-153.2" font-family="Helvetica,sans-Serif" font-size="11.00">varchar[150]</text>
<polygon fill="none" stroke="black" points="10,-123 10,-145 236,-145 236,-123 10,-123"/>
<text text-anchor="start" x="30" y="-131.2" font-family="Helvetica,sans-Serif" font-size="11.00">name_en</text>
<polygon fill="none" stroke="black" points="236,-123 236,-145 596,-145 596,-123 236,-123"/>
<text text-anchor="start" x="239" y="-131.2" font-family="Helvetica,sans-Serif" font-size="11.00">varchar[150]</text>
<polygon fill="none" stroke="black" points="10,-101 10,-123 236,-123 236,-101 10,-101"/>
<text text-anchor="start" x="30" y="-109.2" font-family="Helvetica,sans-Serif" font-size="11.00">interval</text>
<polygon fill="none" stroke="black" points="236,-101 236,-123 596,-123 596,-101 236,-101"/>
<text text-anchor="start" x="239" y="-109.2" font-family="Helvetica,sans-Serif" font-size="11.00">&quot;private_ci2027_001&quot;.&quot;_enum_interval_name&quot;[2147483647]</text>
<polygon fill="none" stroke="black" points="10,-79 10,-101 236,-101 236,-79 10,-79"/>
<text text-anchor="start" x="30" y="-87.2" font-family="Helvetica,sans-Serif" font-size="11.00">sort</text>
<polygon fill="none" stroke="black" points="236,-79 236,-101 596,-101 596,-79 236,-79"/>
<text text-anchor="start" x="239" y="-87.2" font-family="Helvetica,sans-Serif" font-size="11.00">int4[10]</text>
<polygon fill="#ffffff" stroke="transparent" points="10,-57 10,-79 236,-79 236,-57 10,-57"/>
<polygon fill="none" stroke="black" points="10,-57 10,-79 236,-79 236,-57 10,-57"/>
<text text-anchor="start" x="30" y="-65.2" font-family="Helvetica,sans-Serif" font-size="11.00">abbreviation</text>
<polygon fill="none" stroke="black" points="236,-57 236,-79 596,-79 596,-57 236,-57"/>
<text text-anchor="start" x="239" y="-65.2" font-family="Helvetica,sans-Serif" font-size="11.00">&quot;private_ci2027_001&quot;.&quot;enum_ffh_forest_type_field&quot;[2147483647]</text>
<polygon fill="#ffffff" stroke="transparent" points="10,-39 10,-57 596,-57 596,-39 10,-39"/>
<polygon fill="none" stroke="black" points="10,-39 10,-57 596,-57 596,-39 10,-39"/>
<polygon fill="#ffffff" stroke="transparent" points="11,-40 11,-56 200,-56 200,-40 11,-40"/>
<text text-anchor="start" x="13" y="-45.2" font-family="Helvetica,sans-Serif" font-size="11.00">&lt; 0</text>
<polygon fill="#ffffff" stroke="transparent" points="200,-40 200,-56 406,-56 406,-40 200,-40"/>
<text text-anchor="start" x="284.5" y="-45.2" font-family="Helvetica,sans-Serif" font-size="11.00">0 rows</text>
<polygon fill="#ffffff" stroke="transparent" points="406,-40 406,-56 595,-56 595,-40 406,-40"/>
<text text-anchor="start" x="573" y="-45.2" font-family="Helvetica,sans-Serif" font-size="11.00">0 &gt;</text>
<polygon fill="black" stroke="black" points="200,-40 200,-56 200,-56 200,-40 200,-40"/>
<polygon fill="black" stroke="black" points="406,-40 406,-56 406,-56 406,-40 406,-40"/>
<polygon fill="none" stroke="black" stroke-width="2" points="9,-38 9,-190 597,-190 597,-38 9,-38"/>
</a>
</g>
</g>
</g>
</svg>
