<?xml version="1.0" encoding="UTF-8" standalone="no"?>
<!DOCTYPE svg PUBLIC "-//W3C//DTD SVG 1.1//EN"
 "http://www.w3.org/Graphics/SVG/1.1/DTD/svg11.dtd">
<!-- Generated by graphviz version 2.43.0 (0)
 -->
<!-- Title: oneDegreeRelationshipsDiagram Pages: 1 -->
<svg width="767pt" height="679pt"
 viewBox="0.00 0.00 767.00 679.00" xmlns="http://www.w3.org/2000/svg" xmlns:xlink="http://www.w3.org/1999/xlink">
<g id="graph0" class="graph" transform="scale(1 1) rotate(0) translate(4 675)">
<title>oneDegreeRelationshipsDiagram</title>
<polygon fill="#ffffff" stroke="transparent" points="-4,4 -4,-675 763,-675 763,4 -4,4"/>
<text text-anchor="middle" x="79.5" y="-7.2" font-family="Helvetica,sans-Serif" font-size="11.00">Generated by SchemaSpy</text>
<!-- plot -->
<g id="node1" class="node">
<title>plot</title>
<g id="a_node1"><a xlink:href="../../tables/plot.html" xlink:title="plot" target="_top">
<polygon fill="#ffffff" stroke="transparent" points="500,-37 500,-667 751,-667 751,-37 500,-37"/>
<polygon fill="#f5f5f5" stroke="transparent" points="500.5,-645 500.5,-667 751.5,-667 751.5,-645 500.5,-645"/>
<polygon fill="none" stroke="black" points="500.5,-645 500.5,-667 751.5,-667 751.5,-645 500.5,-645"/>
<text text-anchor="start" x="505" y="-654.2" font-family="Helvetica,sans-Serif" font-weight="bold" font-size="11.00">plot</text>
<text text-anchor="start" x="709.5" y="-653.2" font-family="Helvetica,sans-Serif" font-size="11.00">[table]</text>
<polygon fill="none" stroke="black" points="500.5,-623 500.5,-645 751.5,-645 751.5,-623 500.5,-623"/>
<image xlink:href="../../images/primaryKeys.png" width="11px" height="12px" preserveAspectRatio="xMinYMin meet" x="505.5" y="-640"/>
<text text-anchor="start" x="520.5" y="-631.2" font-family="Helvetica,sans-Serif" font-size="11.00">id</text>
<polygon fill="#ffffff" stroke="transparent" points="500.5,-601 500.5,-623 751.5,-623 751.5,-601 500.5,-601"/>
<polygon fill="none" stroke="black" points="500.5,-601 500.5,-623 751.5,-623 751.5,-601 500.5,-601"/>
<image xlink:href="../../images/foreignKeys.png" width="11px" height="12px" preserveAspectRatio="xMinYMin meet" x="505.5" y="-618"/>
<text text-anchor="start" x="520.5" y="-609.2" font-family="Helvetica,sans-Serif" font-size="11.00">cluster_id</text>
<polygon fill="#ffffff" stroke="transparent" points="500.5,-579 500.5,-601 751.5,-601 751.5,-579 500.5,-579"/>
<polygon fill="none" stroke="black" points="500.5,-579 500.5,-601 751.5,-601 751.5,-579 500.5,-579"/>
<text text-anchor="start" x="520.5" y="-587.2" font-family="Helvetica,sans-Serif" font-size="11.00">plot_name</text>
<polygon fill="none" stroke="black" points="500.5,-557 500.5,-579 751.5,-579 751.5,-557 500.5,-557"/>
<image xlink:href="../../images/foreignKeys.png" width="11px" height="12px" preserveAspectRatio="xMinYMin meet" x="505.5" y="-574"/>
<text text-anchor="start" x="520.5" y="-565.2" font-family="Helvetica,sans-Serif" font-size="11.00">sampling_strata</text>
<polygon fill="none" stroke="black" points="500.5,-535 500.5,-557 751.5,-557 751.5,-535 500.5,-535"/>
<image xlink:href="../../images/foreignKeys.png" width="11px" height="12px" preserveAspectRatio="xMinYMin meet" x="505.5" y="-552"/>
<text text-anchor="start" x="520.5" y="-543.2" font-family="Helvetica,sans-Serif" font-size="11.00">growth_district</text>
<polygon fill="none" stroke="black" points="500.5,-513 500.5,-535 751.5,-535 751.5,-513 500.5,-513"/>
<image xlink:href="../../images/foreignKeys.png" width="11px" height="12px" preserveAspectRatio="xMinYMin meet" x="505.5" y="-530"/>
<text text-anchor="start" x="520.5" y="-521.2" font-family="Helvetica,sans-Serif" font-size="11.00">forest_decision</text>
<polygon fill="none" stroke="black" points="500.5,-491 500.5,-513 751.5,-513 751.5,-491 500.5,-491"/>
<image xlink:href="../../images/foreignKeys.png" width="11px" height="12px" preserveAspectRatio="xMinYMin meet" x="505.5" y="-508"/>
<text text-anchor="start" x="520.5" y="-499.2" font-family="Helvetica,sans-Serif" font-size="11.00">forestry_department</text>
<polygon fill="none" stroke="black" points="500.5,-469 500.5,-491 751.5,-491 751.5,-469 500.5,-469"/>
<image xlink:href="../../images/foreignKeys.png" width="11px" height="12px" preserveAspectRatio="xMinYMin meet" x="505.5" y="-486"/>
<text text-anchor="start" x="520.5" y="-477.2" font-family="Helvetica,sans-Serif" font-size="11.00">height_layer_class</text>
<polygon fill="none" stroke="black" points="500.5,-447 500.5,-469 751.5,-469 751.5,-447 500.5,-447"/>
<image xlink:href="../../images/foreignKeys.png" width="11px" height="12px" preserveAspectRatio="xMinYMin meet" x="505.5" y="-464"/>
<text text-anchor="start" x="520.5" y="-455.2" font-family="Helvetica,sans-Serif" font-size="11.00">property_type</text>
<polygon fill="none" stroke="black" points="500.5,-425 500.5,-447 751.5,-447 751.5,-425 500.5,-425"/>
<image xlink:href="../../images/foreignKeys.png" width="11px" height="12px" preserveAspectRatio="xMinYMin meet" x="505.5" y="-442"/>
<text text-anchor="start" x="520.5" y="-433.2" font-family="Helvetica,sans-Serif" font-size="11.00">property_size_class</text>
<polygon fill="none" stroke="black" points="500.5,-403 500.5,-425 751.5,-425 751.5,-403 500.5,-403"/>
<image xlink:href="../../images/foreignKeys.png" width="11px" height="12px" preserveAspectRatio="xMinYMin meet" x="505.5" y="-420"/>
<text text-anchor="start" x="520.5" y="-411.2" font-family="Helvetica,sans-Serif" font-size="11.00">forest_type</text>
<polygon fill="none" stroke="black" points="500.5,-381 500.5,-403 751.5,-403 751.5,-381 500.5,-381"/>
<image xlink:href="../../images/foreignKeys.png" width="11px" height="12px" preserveAspectRatio="xMinYMin meet" x="505.5" y="-398"/>
<text text-anchor="start" x="520.5" y="-389.2" font-family="Helvetica,sans-Serif" font-size="11.00">habitat_type</text>
<polygon fill="none" stroke="black" points="500.5,-359 500.5,-381 751.5,-381 751.5,-359 500.5,-359"/>
<image xlink:href="../../images/foreignKeys.png" width="11px" height="12px" preserveAspectRatio="xMinYMin meet" x="505.5" y="-376"/>
<text text-anchor="start" x="520.5" y="-367.2" font-family="Helvetica,sans-Serif" font-size="11.00">habitat_type_source</text>
<polygon fill="none" stroke="black" points="500.5,-337 500.5,-359 751.5,-359 751.5,-337 500.5,-337"/>
<image xlink:href="../../images/foreignKeys.png" width="11px" height="12px" preserveAspectRatio="xMinYMin meet" x="505.5" y="-354"/>
<text text-anchor="start" x="520.5" y="-345.2" font-family="Helvetica,sans-Serif" font-size="11.00">use_restriction</text>
<polygon fill="none" stroke="black" points="500.5,-315 500.5,-337 751.5,-337 751.5,-315 500.5,-315"/>
<image xlink:href="../../images/foreignKeys.png" width="11px" height="12px" preserveAspectRatio="xMinYMin meet" x="505.5" y="-332"/>
<text text-anchor="start" x="520.5" y="-323.2" font-family="Helvetica,sans-Serif" font-size="11.00">land_use</text>
<polygon fill="none" stroke="black" points="500.5,-293 500.5,-315 751.5,-315 751.5,-293 500.5,-293"/>
<image xlink:href="../../images/foreignKeys.png" width="11px" height="12px" preserveAspectRatio="xMinYMin meet" x="505.5" y="-310"/>
<text text-anchor="start" x="520.5" y="-301.2" font-family="Helvetica,sans-Serif" font-size="11.00">marking_state</text>
<polygon fill="none" stroke="black" points="500.5,-271 500.5,-293 751.5,-293 751.5,-271 500.5,-271"/>
<image xlink:href="../../images/foreignKeys.png" width="11px" height="12px" preserveAspectRatio="xMinYMin meet" x="505.5" y="-288"/>
<text text-anchor="start" x="520.5" y="-279.2" font-family="Helvetica,sans-Serif" font-size="11.00">marking_profile</text>
<polygon fill="none" stroke="black" points="500.5,-249 500.5,-271 751.5,-271 751.5,-249 500.5,-249"/>
<image xlink:href="../../images/foreignKeys.png" width="11px" height="12px" preserveAspectRatio="xMinYMin meet" x="505.5" y="-266"/>
<text text-anchor="start" x="520.5" y="-257.2" font-family="Helvetica,sans-Serif" font-size="11.00">terrain_form</text>
<polygon fill="none" stroke="black" points="500.5,-227 500.5,-249 751.5,-249 751.5,-227 500.5,-227"/>
<image xlink:href="../../images/foreignKeys.png" width="11px" height="12px" preserveAspectRatio="xMinYMin meet" x="505.5" y="-244"/>
<text text-anchor="start" x="520.5" y="-235.2" font-family="Helvetica,sans-Serif" font-size="11.00">management_type</text>
<polygon fill="none" stroke="black" points="500.5,-205 500.5,-227 751.5,-227 751.5,-205 500.5,-205"/>
<image xlink:href="../../images/foreignKeys.png" width="11px" height="12px" preserveAspectRatio="xMinYMin meet" x="505.5" y="-222"/>
<text text-anchor="start" x="520.5" y="-213.2" font-family="Helvetica,sans-Serif" font-size="11.00">harvesting_method</text>
<polygon fill="none" stroke="black" points="500.5,-183 500.5,-205 751.5,-205 751.5,-183 500.5,-183"/>
<image xlink:href="../../images/foreignKeys.png" width="11px" height="12px" preserveAspectRatio="xMinYMin meet" x="505.5" y="-200"/>
<text text-anchor="start" x="520.5" y="-191.2" font-family="Helvetica,sans-Serif" font-size="11.00">layer_type</text>
<polygon fill="none" stroke="black" points="500.5,-161 500.5,-183 751.5,-183 751.5,-161 500.5,-161"/>
<image xlink:href="../../images/foreignKeys.png" width="11px" height="12px" preserveAspectRatio="xMinYMin meet" x="505.5" y="-178"/>
<text text-anchor="start" x="520.5" y="-169.2" font-family="Helvetica,sans-Serif" font-size="11.00">stand_phase</text>
<polygon fill="none" stroke="black" points="500.5,-139 500.5,-161 751.5,-161 751.5,-139 500.5,-139"/>
<image xlink:href="../../images/foreignKeys.png" width="11px" height="12px" preserveAspectRatio="xMinYMin meet" x="505.5" y="-156"/>
<text text-anchor="start" x="520.5" y="-147.2" font-family="Helvetica,sans-Serif" font-size="11.00">sablings_layer</text>
<polygon fill="none" stroke="black" points="500.5,-117 500.5,-139 751.5,-139 751.5,-117 500.5,-117"/>
<image xlink:href="../../images/foreignKeys.png" width="11px" height="12px" preserveAspectRatio="xMinYMin meet" x="505.5" y="-134"/>
<text text-anchor="start" x="520.5" y="-125.2" font-family="Helvetica,sans-Serif" font-size="11.00">trees_less_4meter_mirrored</text>
<polygon fill="none" stroke="black" points="500.5,-95 500.5,-117 751.5,-117 751.5,-95 500.5,-95"/>
<image xlink:href="../../images/foreignKeys.png" width="11px" height="12px" preserveAspectRatio="xMinYMin meet" x="505.5" y="-112"/>
<text text-anchor="start" x="520.5" y="-103.2" font-family="Helvetica,sans-Serif" font-size="11.00">trees_less_4meter_count_factor</text>
<polygon fill="none" stroke="black" points="500.5,-73 500.5,-95 751.5,-95 751.5,-73 500.5,-73"/>
<image xlink:href="../../images/foreignKeys.png" width="11px" height="12px" preserveAspectRatio="xMinYMin meet" x="505.5" y="-90"/>
<text text-anchor="start" x="520.5" y="-81.2" font-family="Helvetica,sans-Serif" font-size="11.00">trees_less_4meter_layer</text>
<polygon fill="none" stroke="black" points="500.5,-55 500.5,-73 751.5,-73 751.5,-55 500.5,-55"/>
<text text-anchor="start" x="503.5" y="-61.2" font-family="Helvetica,sans-Serif" font-size="11.00">...</text>
<polygon fill="#ffffff" stroke="transparent" points="500.5,-37 500.5,-55 751.5,-55 751.5,-37 500.5,-37"/>
<polygon fill="none" stroke="black" points="500.5,-37 500.5,-55 751.5,-55 751.5,-37 500.5,-37"/>
<polygon fill="#ffffff" stroke="transparent" points="501.5,-38 501.5,-54 583.5,-54 583.5,-38 501.5,-38"/>
<text text-anchor="start" x="503.5" y="-43.2" font-family="Helvetica,sans-Serif" font-size="11.00">&lt; 24</text>
<polygon fill="#ffffff" stroke="transparent" points="583.5,-38 583.5,-54 675.5,-54 675.5,-38 583.5,-38"/>
<text text-anchor="start" x="611" y="-43.2" font-family="Helvetica,sans-Serif" font-size="11.00">0 rows</text>
<polygon fill="#ffffff" stroke="transparent" points="675.5,-38 675.5,-54 750.5,-54 750.5,-38 675.5,-38"/>
<text text-anchor="start" x="728.5" y="-43.2" font-family="Helvetica,sans-Serif" font-size="11.00">7 &gt;</text>
<polygon fill="black" stroke="black" points="583.5,-38 583.5,-54 583.5,-54 583.5,-38 583.5,-38"/>
<polygon fill="black" stroke="black" points="675.5,-38 675.5,-54 675.5,-54 675.5,-38 675.5,-38"/>
</a>
</g>
</g>
<!-- lookup_land_use -->
<g id="node2" class="node">
<title>lookup_land_use</title>
<g id="a_node2"><a xlink:href="../../tables/lookup_land_use.html" xlink:title="lookup_land_use" target="_top">
<polygon fill="#ffffff" stroke="transparent" points="8,-295 8,-427 451,-427 451,-295 8,-295"/>
<polygon fill="#f5f5f5" stroke="transparent" points="10.5,-403 10.5,-425 449.5,-425 449.5,-403 10.5,-403"/>
<polygon fill="none" stroke="black" points="10.5,-403 10.5,-425 449.5,-425 449.5,-403 10.5,-403"/>
<text text-anchor="start" x="15.5" y="-412.2" font-family="Helvetica,sans-Serif" font-weight="bold" font-size="11.00">lookup_land_use</text>
<text text-anchor="start" x="407.5" y="-411.2" font-family="Helvetica,sans-Serif" font-size="11.00">[table]</text>
<polygon fill="none" stroke="black" points="10.5,-381 10.5,-403 151.5,-403 151.5,-381 10.5,-381"/>
<text text-anchor="start" x="30.5" y="-389.2" font-family="Helvetica,sans-Serif" font-size="11.00">name_de</text>
<polygon fill="none" stroke="black" points="151.5,-381 151.5,-403 449.5,-403 449.5,-381 151.5,-381"/>
<text text-anchor="start" x="154.5" y="-389.2" font-family="Helvetica,sans-Serif" font-size="11.00">varchar[150]</text>
<polygon fill="none" stroke="black" points="10.5,-359 10.5,-381 151.5,-381 151.5,-359 10.5,-359"/>
<text text-anchor="start" x="30.5" y="-367.2" font-family="Helvetica,sans-Serif" font-size="11.00">name_en</text>
<polygon fill="none" stroke="black" points="151.5,-359 151.5,-381 449.5,-381 449.5,-359 151.5,-359"/>
<text text-anchor="start" x="154.5" y="-367.2" font-family="Helvetica,sans-Serif" font-size="11.00">varchar[150]</text>
<polygon fill="none" stroke="black" points="10.5,-337 10.5,-359 151.5,-359 151.5,-337 10.5,-337"/>
<text text-anchor="start" x="30.5" y="-345.2" font-family="Helvetica,sans-Serif" font-size="11.00">sort</text>
<polygon fill="none" stroke="black" points="151.5,-337 151.5,-359 449.5,-359 449.5,-337 151.5,-337"/>
<text text-anchor="start" x="154.5" y="-345.2" font-family="Helvetica,sans-Serif" font-size="11.00">int4[10]</text>
<polygon fill="#ffffff" stroke="transparent" points="10.5,-315 10.5,-337 151.5,-337 151.5,-315 10.5,-315"/>
<polygon fill="none" stroke="black" points="10.5,-315 10.5,-337 151.5,-337 151.5,-315 10.5,-315"/>
<text text-anchor="start" x="30.5" y="-323.2" font-family="Helvetica,sans-Serif" font-size="11.00">abbreviation</text>
<polygon fill="none" stroke="black" points="151.5,-315 151.5,-337 449.5,-337 449.5,-315 151.5,-315"/>
<text text-anchor="start" x="154.5" y="-323.2" font-family="Helvetica,sans-Serif" font-size="11.00">&quot;private_ci2027_001&quot;.&quot;enum_land_use&quot;[2147483647]</text>
<polygon fill="#ffffff" stroke="transparent" points="10.5,-297 10.5,-315 449.5,-315 449.5,-297 10.5,-297"/>
<polygon fill="none" stroke="black" points="10.5,-297 10.5,-315 449.5,-315 449.5,-297 10.5,-297"/>
<polygon fill="#ffffff" stroke="transparent" points="11.5,-298 11.5,-314 151.5,-314 151.5,-298 11.5,-298"/>
<text text-anchor="start" x="13.5" y="-303.2" font-family="Helvetica,sans-Serif" font-size="11.00">&lt; 0</text>
<polygon fill="#ffffff" stroke="transparent" points="151.5,-298 151.5,-314 308.5,-314 308.5,-298 151.5,-298"/>
<text text-anchor="start" x="211.5" y="-303.2" font-family="Helvetica,sans-Serif" font-size="11.00">0 rows</text>
<polygon fill="#ffffff" stroke="transparent" points="308.5,-298 308.5,-314 448.5,-314 448.5,-298 308.5,-298"/>
<text text-anchor="start" x="426.5" y="-303.2" font-family="Helvetica,sans-Serif" font-size="11.00">1 &gt;</text>
<polygon fill="black" stroke="black" points="151.5,-298 151.5,-314 151.5,-314 151.5,-298 151.5,-298"/>
<polygon fill="black" stroke="black" points="308.5,-298 308.5,-314 308.5,-314 308.5,-298 308.5,-298"/>
<polygon fill="none" stroke="black" stroke-width="2" points="9,-296 9,-426 450,-426 450,-296 9,-296"/>
</a>
</g>
</g>
<!-- plot&#45;&gt;lookup_land_use -->
<g id="edge1" class="edge">
<title>plot:w&#45;&gt;lookup_land_use:e</title>
<path fill="none" stroke="black" d="M484.99,-326C473.68,-326 466.49,-326 450.5,-326"/>
<polygon fill="black" stroke="black" points="491.5,-326 499.5,-329.6 495.5,-326 499.5,-326 499.5,-326 499.5,-326 495.5,-326 499.5,-322.4 491.5,-326 491.5,-326"/>
<ellipse fill="none" stroke="black" cx="488.3" cy="-326" rx="3.2" ry="3.2"/>
</g>
</g>
</svg>
