<?xml version="1.0" encoding="UTF-8" standalone="no"?>
<!DOCTYPE svg PUBLIC "-//W3C//DTD SVG 1.1//EN"
 "http://www.w3.org/Graphics/SVG/1.1/DTD/svg11.dtd">
<!-- Generated by graphviz version 2.43.0 (0)
 -->
<!-- Title: oneDegreeRelationshipsDiagram Pages: 1 -->
<svg width="1024pt" height="735pt"
 viewBox="0.00 0.00 1024.00 735.09" xmlns="http://www.w3.org/2000/svg" xmlns:xlink="http://www.w3.org/1999/xlink">
<g id="graph0" class="graph" transform="scale(1 1) rotate(0) translate(4 731.09)">
<title>oneDegreeRelationshipsDiagram</title>
<polygon fill="#ffffff" stroke="transparent" points="-4,4 -4,-731.09 1020,-731.09 1020,4 -4,4"/>
<text text-anchor="middle" x="79.5" y="-7.2" font-family="Helvetica,sans-Serif" font-size="11.00">Generated by SchemaSpy</text>
<!-- plot -->
<g id="node1" class="node">
<title>plot</title>
<g id="a_node1"><a xlink:href="../../tables/plot.html" xlink:title="plot" target="_top">
<polygon fill="#ffffff" stroke="transparent" points="535,-93.09 535,-723.09 786,-723.09 786,-93.09 535,-93.09"/>
<polygon fill="#f5f5f5" stroke="transparent" points="535.5,-701.09 535.5,-723.09 786.5,-723.09 786.5,-701.09 535.5,-701.09"/>
<polygon fill="none" stroke="black" points="535.5,-701.09 535.5,-723.09 786.5,-723.09 786.5,-701.09 535.5,-701.09"/>
<text text-anchor="start" x="540" y="-710.29" font-family="Helvetica,sans-Serif" font-weight="bold" font-size="11.00">plot</text>
<text text-anchor="start" x="744.5" y="-709.29" font-family="Helvetica,sans-Serif" font-size="11.00">[table]</text>
<polygon fill="none" stroke="black" points="535.5,-679.09 535.5,-701.09 786.5,-701.09 786.5,-679.09 535.5,-679.09"/>
<image xlink:href="../../images/primaryKeys.png" width="11px" height="12px" preserveAspectRatio="xMinYMin meet" x="540.5" y="-696.09"/>
<text text-anchor="start" x="555.5" y="-687.29" font-family="Helvetica,sans-Serif" font-size="11.00">id</text>
<polygon fill="#ffffff" stroke="transparent" points="535.5,-657.09 535.5,-679.09 786.5,-679.09 786.5,-657.09 535.5,-657.09"/>
<polygon fill="none" stroke="black" points="535.5,-657.09 535.5,-679.09 786.5,-679.09 786.5,-657.09 535.5,-657.09"/>
<image xlink:href="../../images/foreignKeys.png" width="11px" height="12px" preserveAspectRatio="xMinYMin meet" x="540.5" y="-674.09"/>
<text text-anchor="start" x="555.5" y="-665.29" font-family="Helvetica,sans-Serif" font-size="11.00">cluster_id</text>
<polygon fill="#ffffff" stroke="transparent" points="535.5,-635.09 535.5,-657.09 786.5,-657.09 786.5,-635.09 535.5,-635.09"/>
<polygon fill="none" stroke="black" points="535.5,-635.09 535.5,-657.09 786.5,-657.09 786.5,-635.09 535.5,-635.09"/>
<text text-anchor="start" x="555.5" y="-643.29" font-family="Helvetica,sans-Serif" font-size="11.00">plot_name</text>
<polygon fill="none" stroke="black" points="535.5,-613.09 535.5,-635.09 786.5,-635.09 786.5,-613.09 535.5,-613.09"/>
<image xlink:href="../../images/foreignKeys.png" width="11px" height="12px" preserveAspectRatio="xMinYMin meet" x="540.5" y="-630.09"/>
<text text-anchor="start" x="555.5" y="-621.29" font-family="Helvetica,sans-Serif" font-size="11.00">sampling_strata</text>
<polygon fill="none" stroke="black" points="535.5,-591.09 535.5,-613.09 786.5,-613.09 786.5,-591.09 535.5,-591.09"/>
<image xlink:href="../../images/foreignKeys.png" width="11px" height="12px" preserveAspectRatio="xMinYMin meet" x="540.5" y="-608.09"/>
<text text-anchor="start" x="555.5" y="-599.29" font-family="Helvetica,sans-Serif" font-size="11.00">growth_district</text>
<polygon fill="none" stroke="black" points="535.5,-569.09 535.5,-591.09 786.5,-591.09 786.5,-569.09 535.5,-569.09"/>
<image xlink:href="../../images/foreignKeys.png" width="11px" height="12px" preserveAspectRatio="xMinYMin meet" x="540.5" y="-586.09"/>
<text text-anchor="start" x="555.5" y="-577.29" font-family="Helvetica,sans-Serif" font-size="11.00">forest_decision</text>
<polygon fill="none" stroke="black" points="535.5,-547.09 535.5,-569.09 786.5,-569.09 786.5,-547.09 535.5,-547.09"/>
<image xlink:href="../../images/foreignKeys.png" width="11px" height="12px" preserveAspectRatio="xMinYMin meet" x="540.5" y="-564.09"/>
<text text-anchor="start" x="555.5" y="-555.29" font-family="Helvetica,sans-Serif" font-size="11.00">forestry_department</text>
<polygon fill="none" stroke="black" points="535.5,-525.09 535.5,-547.09 786.5,-547.09 786.5,-525.09 535.5,-525.09"/>
<image xlink:href="../../images/foreignKeys.png" width="11px" height="12px" preserveAspectRatio="xMinYMin meet" x="540.5" y="-542.09"/>
<text text-anchor="start" x="555.5" y="-533.29" font-family="Helvetica,sans-Serif" font-size="11.00">height_layer_class</text>
<polygon fill="none" stroke="black" points="535.5,-503.09 535.5,-525.09 786.5,-525.09 786.5,-503.09 535.5,-503.09"/>
<image xlink:href="../../images/foreignKeys.png" width="11px" height="12px" preserveAspectRatio="xMinYMin meet" x="540.5" y="-520.09"/>
<text text-anchor="start" x="555.5" y="-511.29" font-family="Helvetica,sans-Serif" font-size="11.00">property_type</text>
<polygon fill="none" stroke="black" points="535.5,-481.09 535.5,-503.09 786.5,-503.09 786.5,-481.09 535.5,-481.09"/>
<image xlink:href="../../images/foreignKeys.png" width="11px" height="12px" preserveAspectRatio="xMinYMin meet" x="540.5" y="-498.09"/>
<text text-anchor="start" x="555.5" y="-489.29" font-family="Helvetica,sans-Serif" font-size="11.00">property_size_class</text>
<polygon fill="none" stroke="black" points="535.5,-459.09 535.5,-481.09 786.5,-481.09 786.5,-459.09 535.5,-459.09"/>
<image xlink:href="../../images/foreignKeys.png" width="11px" height="12px" preserveAspectRatio="xMinYMin meet" x="540.5" y="-476.09"/>
<text text-anchor="start" x="555.5" y="-467.29" font-family="Helvetica,sans-Serif" font-size="11.00">forest_type</text>
<polygon fill="none" stroke="black" points="535.5,-437.09 535.5,-459.09 786.5,-459.09 786.5,-437.09 535.5,-437.09"/>
<image xlink:href="../../images/foreignKeys.png" width="11px" height="12px" preserveAspectRatio="xMinYMin meet" x="540.5" y="-454.09"/>
<text text-anchor="start" x="555.5" y="-445.29" font-family="Helvetica,sans-Serif" font-size="11.00">habitat_type</text>
<polygon fill="none" stroke="black" points="535.5,-415.09 535.5,-437.09 786.5,-437.09 786.5,-415.09 535.5,-415.09"/>
<image xlink:href="../../images/foreignKeys.png" width="11px" height="12px" preserveAspectRatio="xMinYMin meet" x="540.5" y="-432.09"/>
<text text-anchor="start" x="555.5" y="-423.29" font-family="Helvetica,sans-Serif" font-size="11.00">habitat_type_source</text>
<polygon fill="none" stroke="black" points="535.5,-393.09 535.5,-415.09 786.5,-415.09 786.5,-393.09 535.5,-393.09"/>
<image xlink:href="../../images/foreignKeys.png" width="11px" height="12px" preserveAspectRatio="xMinYMin meet" x="540.5" y="-410.09"/>
<text text-anchor="start" x="555.5" y="-401.29" font-family="Helvetica,sans-Serif" font-size="11.00">use_restriction</text>
<polygon fill="none" stroke="black" points="535.5,-371.09 535.5,-393.09 786.5,-393.09 786.5,-371.09 535.5,-371.09"/>
<image xlink:href="../../images/foreignKeys.png" width="11px" height="12px" preserveAspectRatio="xMinYMin meet" x="540.5" y="-388.09"/>
<text text-anchor="start" x="555.5" y="-379.29" font-family="Helvetica,sans-Serif" font-size="11.00">land_use</text>
<polygon fill="none" stroke="black" points="535.5,-349.09 535.5,-371.09 786.5,-371.09 786.5,-349.09 535.5,-349.09"/>
<image xlink:href="../../images/foreignKeys.png" width="11px" height="12px" preserveAspectRatio="xMinYMin meet" x="540.5" y="-366.09"/>
<text text-anchor="start" x="555.5" y="-357.29" font-family="Helvetica,sans-Serif" font-size="11.00">marking_state</text>
<polygon fill="none" stroke="black" points="535.5,-327.09 535.5,-349.09 786.5,-349.09 786.5,-327.09 535.5,-327.09"/>
<image xlink:href="../../images/foreignKeys.png" width="11px" height="12px" preserveAspectRatio="xMinYMin meet" x="540.5" y="-344.09"/>
<text text-anchor="start" x="555.5" y="-335.29" font-family="Helvetica,sans-Serif" font-size="11.00">marking_profile</text>
<polygon fill="none" stroke="black" points="535.5,-305.09 535.5,-327.09 786.5,-327.09 786.5,-305.09 535.5,-305.09"/>
<image xlink:href="../../images/foreignKeys.png" width="11px" height="12px" preserveAspectRatio="xMinYMin meet" x="540.5" y="-322.09"/>
<text text-anchor="start" x="555.5" y="-313.29" font-family="Helvetica,sans-Serif" font-size="11.00">terrain_form</text>
<polygon fill="none" stroke="black" points="535.5,-283.09 535.5,-305.09 786.5,-305.09 786.5,-283.09 535.5,-283.09"/>
<image xlink:href="../../images/foreignKeys.png" width="11px" height="12px" preserveAspectRatio="xMinYMin meet" x="540.5" y="-300.09"/>
<text text-anchor="start" x="555.5" y="-291.29" font-family="Helvetica,sans-Serif" font-size="11.00">management_type</text>
<polygon fill="none" stroke="black" points="535.5,-261.09 535.5,-283.09 786.5,-283.09 786.5,-261.09 535.5,-261.09"/>
<image xlink:href="../../images/foreignKeys.png" width="11px" height="12px" preserveAspectRatio="xMinYMin meet" x="540.5" y="-278.09"/>
<text text-anchor="start" x="555.5" y="-269.29" font-family="Helvetica,sans-Serif" font-size="11.00">harvesting_method</text>
<polygon fill="none" stroke="black" points="535.5,-239.09 535.5,-261.09 786.5,-261.09 786.5,-239.09 535.5,-239.09"/>
<image xlink:href="../../images/foreignKeys.png" width="11px" height="12px" preserveAspectRatio="xMinYMin meet" x="540.5" y="-256.09"/>
<text text-anchor="start" x="555.5" y="-247.29" font-family="Helvetica,sans-Serif" font-size="11.00">layer_type</text>
<polygon fill="none" stroke="black" points="535.5,-217.09 535.5,-239.09 786.5,-239.09 786.5,-217.09 535.5,-217.09"/>
<image xlink:href="../../images/foreignKeys.png" width="11px" height="12px" preserveAspectRatio="xMinYMin meet" x="540.5" y="-234.09"/>
<text text-anchor="start" x="555.5" y="-225.29" font-family="Helvetica,sans-Serif" font-size="11.00">stand_phase</text>
<polygon fill="none" stroke="black" points="535.5,-195.09 535.5,-217.09 786.5,-217.09 786.5,-195.09 535.5,-195.09"/>
<image xlink:href="../../images/foreignKeys.png" width="11px" height="12px" preserveAspectRatio="xMinYMin meet" x="540.5" y="-212.09"/>
<text text-anchor="start" x="555.5" y="-203.29" font-family="Helvetica,sans-Serif" font-size="11.00">sablings_layer</text>
<polygon fill="none" stroke="black" points="535.5,-173.09 535.5,-195.09 786.5,-195.09 786.5,-173.09 535.5,-173.09"/>
<image xlink:href="../../images/foreignKeys.png" width="11px" height="12px" preserveAspectRatio="xMinYMin meet" x="540.5" y="-190.09"/>
<text text-anchor="start" x="555.5" y="-181.29" font-family="Helvetica,sans-Serif" font-size="11.00">trees_less_4meter_mirrored</text>
<polygon fill="none" stroke="black" points="535.5,-151.09 535.5,-173.09 786.5,-173.09 786.5,-151.09 535.5,-151.09"/>
<image xlink:href="../../images/foreignKeys.png" width="11px" height="12px" preserveAspectRatio="xMinYMin meet" x="540.5" y="-168.09"/>
<text text-anchor="start" x="555.5" y="-159.29" font-family="Helvetica,sans-Serif" font-size="11.00">trees_less_4meter_count_factor</text>
<polygon fill="none" stroke="black" points="535.5,-129.09 535.5,-151.09 786.5,-151.09 786.5,-129.09 535.5,-129.09"/>
<image xlink:href="../../images/foreignKeys.png" width="11px" height="12px" preserveAspectRatio="xMinYMin meet" x="540.5" y="-146.09"/>
<text text-anchor="start" x="555.5" y="-137.29" font-family="Helvetica,sans-Serif" font-size="11.00">trees_less_4meter_layer</text>
<polygon fill="none" stroke="black" points="535.5,-111.09 535.5,-129.09 786.5,-129.09 786.5,-111.09 535.5,-111.09"/>
<text text-anchor="start" x="538.5" y="-117.29" font-family="Helvetica,sans-Serif" font-size="11.00">...</text>
<polygon fill="#ffffff" stroke="transparent" points="535.5,-93.09 535.5,-111.09 786.5,-111.09 786.5,-93.09 535.5,-93.09"/>
<polygon fill="none" stroke="black" points="535.5,-93.09 535.5,-111.09 786.5,-111.09 786.5,-93.09 535.5,-93.09"/>
<polygon fill="#ffffff" stroke="transparent" points="536.5,-94.09 536.5,-110.09 618.5,-110.09 618.5,-94.09 536.5,-94.09"/>
<text text-anchor="start" x="538.5" y="-99.29" font-family="Helvetica,sans-Serif" font-size="11.00">&lt; 24</text>
<polygon fill="#ffffff" stroke="transparent" points="618.5,-94.09 618.5,-110.09 710.5,-110.09 710.5,-94.09 618.5,-94.09"/>
<text text-anchor="start" x="646" y="-99.29" font-family="Helvetica,sans-Serif" font-size="11.00">0 rows</text>
<polygon fill="#ffffff" stroke="transparent" points="710.5,-94.09 710.5,-110.09 785.5,-110.09 785.5,-94.09 710.5,-94.09"/>
<text text-anchor="start" x="763.5" y="-99.29" font-family="Helvetica,sans-Serif" font-size="11.00">7 &gt;</text>
<polygon fill="black" stroke="black" points="618.5,-94.09 618.5,-110.09 618.5,-110.09 618.5,-94.09 618.5,-94.09"/>
<polygon fill="black" stroke="black" points="710.5,-94.09 710.5,-110.09 710.5,-110.09 710.5,-94.09 710.5,-94.09"/>
</a>
</g>
</g>
<!-- lookup_stand_layer -->
<g id="node2" class="node">
<title>lookup_stand_layer</title>
<g id="a_node2"><a xlink:href="../../tables/lookup_stand_layer.html" xlink:title="lookup_stand_layer" target="_top">
<polygon fill="#ffffff" stroke="transparent" points="8,-106.09 8,-238.09 486,-238.09 486,-106.09 8,-106.09"/>
<polygon fill="#f5f5f5" stroke="transparent" points="10,-214.09 10,-236.09 484,-236.09 484,-214.09 10,-214.09"/>
<polygon fill="none" stroke="black" points="10,-214.09 10,-236.09 484,-236.09 484,-214.09 10,-214.09"/>
<text text-anchor="start" x="15" y="-223.29" font-family="Helvetica,sans-Serif" font-weight="bold" font-size="11.00">lookup_stand_layer</text>
<text text-anchor="start" x="442" y="-222.29" font-family="Helvetica,sans-Serif" font-size="11.00">[table]</text>
<polygon fill="none" stroke="black" points="10,-192.09 10,-214.09 171,-214.09 171,-192.09 10,-192.09"/>
<text text-anchor="start" x="30" y="-200.29" font-family="Helvetica,sans-Serif" font-size="11.00">name_de</text>
<polygon fill="none" stroke="black" points="171,-192.09 171,-214.09 484,-214.09 484,-192.09 171,-192.09"/>
<text text-anchor="start" x="174" y="-200.29" font-family="Helvetica,sans-Serif" font-size="11.00">varchar[150]</text>
<polygon fill="none" stroke="black" points="10,-170.09 10,-192.09 171,-192.09 171,-170.09 10,-170.09"/>
<text text-anchor="start" x="30" y="-178.29" font-family="Helvetica,sans-Serif" font-size="11.00">name_en</text>
<polygon fill="none" stroke="black" points="171,-170.09 171,-192.09 484,-192.09 484,-170.09 171,-170.09"/>
<text text-anchor="start" x="174" y="-178.29" font-family="Helvetica,sans-Serif" font-size="11.00">varchar[150]</text>
<polygon fill="none" stroke="black" points="10,-148.09 10,-170.09 171,-170.09 171,-148.09 10,-148.09"/>
<text text-anchor="start" x="30" y="-156.29" font-family="Helvetica,sans-Serif" font-size="11.00">sort</text>
<polygon fill="none" stroke="black" points="171,-148.09 171,-170.09 484,-170.09 484,-148.09 171,-148.09"/>
<text text-anchor="start" x="174" y="-156.29" font-family="Helvetica,sans-Serif" font-size="11.00">int4[10]</text>
<polygon fill="#ffffff" stroke="transparent" points="10,-126.09 10,-148.09 171,-148.09 171,-126.09 10,-126.09"/>
<polygon fill="none" stroke="black" points="10,-126.09 10,-148.09 171,-148.09 171,-126.09 10,-126.09"/>
<text text-anchor="start" x="30" y="-134.29" font-family="Helvetica,sans-Serif" font-size="11.00">abbreviation</text>
<polygon fill="none" stroke="black" points="171,-126.09 171,-148.09 484,-148.09 484,-126.09 171,-126.09"/>
<text text-anchor="start" x="174" y="-134.29" font-family="Helvetica,sans-Serif" font-size="11.00">&quot;private_ci2027_001&quot;.&quot;enum_stand_layer&quot;[2147483647]</text>
<polygon fill="#ffffff" stroke="transparent" points="10,-108.09 10,-126.09 484,-126.09 484,-108.09 10,-108.09"/>
<polygon fill="none" stroke="black" points="10,-108.09 10,-126.09 484,-126.09 484,-108.09 10,-108.09"/>
<polygon fill="#ffffff" stroke="transparent" points="11,-109.09 11,-125.09 163,-125.09 163,-109.09 11,-109.09"/>
<text text-anchor="start" x="13" y="-114.29" font-family="Helvetica,sans-Serif" font-size="11.00">&lt; 0</text>
<polygon fill="#ffffff" stroke="transparent" points="163,-109.09 163,-125.09 332,-125.09 332,-109.09 163,-109.09"/>
<text text-anchor="start" x="229" y="-114.29" font-family="Helvetica,sans-Serif" font-size="11.00">0 rows</text>
<polygon fill="#ffffff" stroke="transparent" points="332,-109.09 332,-125.09 483,-125.09 483,-109.09 332,-109.09"/>
<text text-anchor="start" x="461" y="-114.29" font-family="Helvetica,sans-Serif" font-size="11.00">2 &gt;</text>
<polygon fill="black" stroke="black" points="163,-109.09 163,-125.09 163,-125.09 163,-109.09 163,-109.09"/>
<polygon fill="black" stroke="black" points="332,-109.09 332,-125.09 332,-125.09 332,-109.09 332,-109.09"/>
<polygon fill="none" stroke="black" stroke-width="2" points="9,-107.09 9,-237.09 485,-237.09 485,-107.09 9,-107.09"/>
</a>
</g>
</g>
<!-- plot&#45;&gt;lookup_stand_layer -->
<g id="edge1" class="edge">
<title>plot:w&#45;&gt;lookup_stand_layer:e</title>
<path fill="none" stroke="black" d="M520.51,-201.13C503.57,-185.31 516.55,-137.09 485,-137.09"/>
<polygon fill="black" stroke="black" points="526.96,-203.42 533.3,-209.48 530.73,-204.75 534.5,-206.09 534.5,-206.09 534.5,-206.09 530.73,-204.75 535.7,-202.7 526.96,-203.42 526.96,-203.42"/>
<ellipse fill="none" stroke="black" cx="523.94" cy="-202.35" rx="3.2" ry="3.2"/>
</g>
<!-- wzp_tree -->
<g id="node3" class="node">
<title>wzp_tree</title>
<g id="a_node3"><a xlink:href="../../tables/wzp_tree.html" xlink:title="wzp_tree" target="_top">
<polygon fill="#ffffff" stroke="transparent" points="835,-266.09 835,-500.09 1008,-500.09 1008,-266.09 835,-266.09"/>
<polygon fill="#f5f5f5" stroke="transparent" points="835.5,-478.09 835.5,-500.09 1008.5,-500.09 1008.5,-478.09 835.5,-478.09"/>
<polygon fill="none" stroke="black" points="835.5,-478.09 835.5,-500.09 1008.5,-500.09 1008.5,-478.09 835.5,-478.09"/>
<text text-anchor="start" x="840.5" y="-487.29" font-family="Helvetica,sans-Serif" font-weight="bold" font-size="11.00">wzp_tree</text>
<text text-anchor="start" x="966.5" y="-486.29" font-family="Helvetica,sans-Serif" font-size="11.00">[table]</text>
<polygon fill="none" stroke="black" points="835.5,-456.09 835.5,-478.09 1008.5,-478.09 1008.5,-456.09 835.5,-456.09"/>
<image xlink:href="../../images/primaryKeys.png" width="11px" height="12px" preserveAspectRatio="xMinYMin meet" x="840.5" y="-473.09"/>
<text text-anchor="start" x="855.5" y="-464.29" font-family="Helvetica,sans-Serif" font-size="11.00">id</text>
<polygon fill="none" stroke="black" points="835.5,-434.09 835.5,-456.09 1008.5,-456.09 1008.5,-434.09 835.5,-434.09"/>
<image xlink:href="../../images/foreignKeys.png" width="11px" height="12px" preserveAspectRatio="xMinYMin meet" x="840.5" y="-451.09"/>
<text text-anchor="start" x="855.5" y="-442.29" font-family="Helvetica,sans-Serif" font-size="11.00">plot_id</text>
<polygon fill="none" stroke="black" points="835.5,-412.09 835.5,-434.09 1008.5,-434.09 1008.5,-412.09 835.5,-412.09"/>
<image xlink:href="../../images/foreignKeys.png" width="11px" height="12px" preserveAspectRatio="xMinYMin meet" x="840.5" y="-429.09"/>
<text text-anchor="start" x="855.5" y="-420.29" font-family="Helvetica,sans-Serif" font-size="11.00">tree_state</text>
<polygon fill="none" stroke="black" points="835.5,-390.09 835.5,-412.09 1008.5,-412.09 1008.5,-390.09 835.5,-390.09"/>
<image xlink:href="../../images/foreignKeys.png" width="11px" height="12px" preserveAspectRatio="xMinYMin meet" x="840.5" y="-407.09"/>
<text text-anchor="start" x="855.5" y="-398.29" font-family="Helvetica,sans-Serif" font-size="11.00">tree_species</text>
<polygon fill="none" stroke="black" points="835.5,-368.09 835.5,-390.09 1008.5,-390.09 1008.5,-368.09 835.5,-368.09"/>
<image xlink:href="../../images/foreignKeys.png" width="11px" height="12px" preserveAspectRatio="xMinYMin meet" x="840.5" y="-385.09"/>
<text text-anchor="start" x="855.5" y="-376.29" font-family="Helvetica,sans-Serif" font-size="11.00">stem_breakage</text>
<polygon fill="none" stroke="black" points="835.5,-346.09 835.5,-368.09 1008.5,-368.09 1008.5,-346.09 835.5,-346.09"/>
<image xlink:href="../../images/foreignKeys.png" width="11px" height="12px" preserveAspectRatio="xMinYMin meet" x="840.5" y="-363.09"/>
<text text-anchor="start" x="855.5" y="-354.29" font-family="Helvetica,sans-Serif" font-size="11.00">stem_form</text>
<polygon fill="none" stroke="black" points="835.5,-324.09 835.5,-346.09 1008.5,-346.09 1008.5,-324.09 835.5,-324.09"/>
<image xlink:href="../../images/foreignKeys.png" width="11px" height="12px" preserveAspectRatio="xMinYMin meet" x="840.5" y="-341.09"/>
<text text-anchor="start" x="855.5" y="-332.29" font-family="Helvetica,sans-Serif" font-size="11.00">pruning</text>
<polygon fill="none" stroke="black" points="835.5,-302.09 835.5,-324.09 1008.5,-324.09 1008.5,-302.09 835.5,-302.09"/>
<image xlink:href="../../images/foreignKeys.png" width="11px" height="12px" preserveAspectRatio="xMinYMin meet" x="840.5" y="-319.09"/>
<text text-anchor="start" x="855.5" y="-310.29" font-family="Helvetica,sans-Serif" font-size="11.00">inventory_layer</text>
<polygon fill="none" stroke="black" points="835.5,-284.09 835.5,-302.09 1008.5,-302.09 1008.5,-284.09 835.5,-284.09"/>
<text text-anchor="start" x="838.5" y="-290.29" font-family="Helvetica,sans-Serif" font-size="11.00">...</text>
<polygon fill="#ffffff" stroke="transparent" points="835.5,-266.09 835.5,-284.09 1008.5,-284.09 1008.5,-266.09 835.5,-266.09"/>
<polygon fill="none" stroke="black" points="835.5,-266.09 835.5,-284.09 1008.5,-284.09 1008.5,-266.09 835.5,-266.09"/>
<polygon fill="#ffffff" stroke="transparent" points="836.5,-267.09 836.5,-283.09 892.5,-283.09 892.5,-267.09 836.5,-267.09"/>
<text text-anchor="start" x="838.5" y="-272.29" font-family="Helvetica,sans-Serif" font-size="11.00">&lt; 7</text>
<polygon fill="#ffffff" stroke="transparent" points="892.5,-267.09 892.5,-283.09 964.5,-283.09 964.5,-267.09 892.5,-267.09"/>
<text text-anchor="start" x="910" y="-272.29" font-family="Helvetica,sans-Serif" font-size="11.00">0 rows</text>
<polygon fill="#ffffff" stroke="transparent" points="964.5,-267.09 964.5,-283.09 1007.5,-283.09 1007.5,-267.09 964.5,-267.09"/>
<text text-anchor="start" x="997.5" y="-272.29" font-family="Helvetica,sans-Serif" font-size="11.00"> &#160;</text>
<polygon fill="black" stroke="black" points="892.5,-267.09 892.5,-283.09 892.5,-283.09 892.5,-267.09 892.5,-267.09"/>
<polygon fill="black" stroke="black" points="964.5,-267.09 964.5,-283.09 964.5,-283.09 964.5,-267.09 964.5,-267.09"/>
</a>
</g>
</g>
<!-- wzp_tree&#45;&gt;plot -->
<g id="edge3" class="edge">
<title>wzp_tree:w&#45;&gt;plot:e</title>
<path fill="none" stroke="black" d="M819.74,-446.92C740.64,-469.34 892.74,-690.09 787.5,-690.09"/>
<polygon fill="black" stroke="black" points="826.56,-446.08 834.94,-448.66 830.53,-445.58 834.5,-445.09 834.5,-445.09 834.5,-445.09 830.53,-445.58 834.06,-441.52 826.56,-446.08 826.56,-446.08"/>
<ellipse fill="none" stroke="black" cx="823.39" cy="-446.47" rx="3.2" ry="3.2"/>
</g>
<!-- wzp_tree&#45;&gt;lookup_stand_layer -->
<g id="edge2" class="edge">
<title>wzp_tree:w&#45;&gt;lookup_stand_layer:e</title>
<path fill="none" stroke="black" d="M820.01,-311.76C744.79,-296.07 869.61,-145.59 794,-82.09 703.13,-5.77 633.37,-29.48 527,-82.09 499.43,-95.73 515.76,-137.09 485,-137.09"/>
<polygon fill="black" stroke="black" points="826.53,-312.36 834.17,-316.67 830.52,-312.72 834.5,-313.09 834.5,-313.09 834.5,-313.09 830.52,-312.72 834.83,-309.5 826.53,-312.36 826.53,-312.36"/>
<ellipse fill="none" stroke="black" cx="823.35" cy="-312.07" rx="3.2" ry="3.2"/>
</g>
</g>
</svg>
