<?xml version="1.0" encoding="UTF-8" standalone="no"?>
<!DOCTYPE svg PUBLIC "-//W3C//DTD SVG 1.1//EN"
 "http://www.w3.org/Graphics/SVG/1.1/DTD/svg11.dtd">
<!-- Generated by graphviz version 2.43.0 (0)
 -->
<!-- Title: oneDegreeRelationshipsDiagram Pages: 1 -->
<svg width="652pt" height="203pt"
 viewBox="0.00 0.00 652.00 203.00" xmlns="http://www.w3.org/2000/svg" xmlns:xlink="http://www.w3.org/1999/xlink">
<g id="graph0" class="graph" transform="scale(1 1) rotate(0) translate(4 199)">
<title>oneDegreeRelationshipsDiagram</title>
<polygon fill="#ffffff" stroke="transparent" points="-4,4 -4,-199 648,-199 648,4 -4,4"/>
<text text-anchor="middle" x="79.5" y="-7.2" font-family="Helvetica,sans-Serif" font-size="11.00">Generated by SchemaSpy</text>
<!-- lookup_forest_community_field -->
<g id="node1" class="node">
<title>lookup_forest_community_field</title>
<g id="a_node1"><a xlink:href="../../tables/lookup_forest_community_field.html" xlink:title="lookup_forest_community_field" target="_top">
<polygon fill="#ffffff" stroke="transparent" points="8,-37 8,-191 636,-191 636,-37 8,-37"/>
<polygon fill="#f5f5f5" stroke="transparent" points="10,-167 10,-189 634,-189 634,-167 10,-167"/>
<polygon fill="none" stroke="black" points="10,-167 10,-189 634,-189 634,-167 10,-167"/>
<text text-anchor="start" x="15" y="-176.2" font-family="Helvetica,sans-Serif" font-weight="bold" font-size="11.00">lookup_forest_community_field</text>
<text text-anchor="start" x="592" y="-175.2" font-family="Helvetica,sans-Serif" font-size="11.00">[table]</text>
<polygon fill="none" stroke="black" points="10,-145 10,-167 257,-167 257,-145 10,-145"/>
<text text-anchor="start" x="30" y="-153.2" font-family="Helvetica,sans-Serif" font-size="11.00">name_de</text>
<polygon fill="none" stroke="black" points="257,-145 257,-167 634,-167 634,-145 257,-145"/>
<text text-anchor="start" x="260" y="-153.2" font-family="Helvetica,sans-Serif" font-size="11.00">varchar[150]</text>
<polygon fill="none" stroke="black" points="10,-123 10,-145 257,-145 257,-123 10,-123"/>
<text text-anchor="start" x="30" y="-131.2" font-family="Helvetica,sans-Serif" font-size="11.00">name_en</text>
<polygon fill="none" stroke="black" points="257,-123 257,-145 634,-145 634,-123 257,-123"/>
<text text-anchor="start" x="260" y="-131.2" font-family="Helvetica,sans-Serif" font-size="11.00">varchar[150]</text>
<polygon fill="none" stroke="black" points="10,-101 10,-123 257,-123 257,-101 10,-101"/>
<text text-anchor="start" x="30" y="-109.2" font-family="Helvetica,sans-Serif" font-size="11.00">interval</text>
<polygon fill="none" stroke="black" points="257,-101 257,-123 634,-123 634,-101 257,-101"/>
<text text-anchor="start" x="260" y="-109.2" font-family="Helvetica,sans-Serif" font-size="11.00">&quot;private_ci2027_001&quot;.&quot;_enum_interval_name&quot;[2147483647]</text>
<polygon fill="none" stroke="black" points="10,-79 10,-101 257,-101 257,-79 10,-79"/>
<text text-anchor="start" x="30" y="-87.2" font-family="Helvetica,sans-Serif" font-size="11.00">sort</text>
<polygon fill="none" stroke="black" points="257,-79 257,-101 634,-101 634,-79 257,-79"/>
<text text-anchor="start" x="260" y="-87.2" font-family="Helvetica,sans-Serif" font-size="11.00">int4[10]</text>
<polygon fill="#ffffff" stroke="transparent" points="10,-57 10,-79 257,-79 257,-57 10,-57"/>
<polygon fill="none" stroke="black" points="10,-57 10,-79 257,-79 257,-57 10,-57"/>
<text text-anchor="start" x="30" y="-65.2" font-family="Helvetica,sans-Serif" font-size="11.00">abbreviation</text>
<polygon fill="none" stroke="black" points="257,-57 257,-79 634,-79 634,-57 257,-57"/>
<text text-anchor="start" x="260" y="-65.2" font-family="Helvetica,sans-Serif" font-size="11.00">&quot;private_ci2027_001&quot;.&quot;enum_forest_community_field&quot;[2147483647]</text>
<polygon fill="#ffffff" stroke="transparent" points="10,-39 10,-57 634,-57 634,-39 10,-39"/>
<polygon fill="none" stroke="black" points="10,-39 10,-57 634,-57 634,-39 10,-39"/>
<polygon fill="#ffffff" stroke="transparent" points="11,-40 11,-56 213,-56 213,-40 11,-40"/>
<text text-anchor="start" x="13" y="-45.2" font-family="Helvetica,sans-Serif" font-size="11.00">&lt; 0</text>
<polygon fill="#ffffff" stroke="transparent" points="213,-40 213,-56 432,-56 432,-40 213,-40"/>
<text text-anchor="start" x="304" y="-45.2" font-family="Helvetica,sans-Serif" font-size="11.00">0 rows</text>
<polygon fill="#ffffff" stroke="transparent" points="432,-40 432,-56 633,-56 633,-40 432,-40"/>
<text text-anchor="start" x="611" y="-45.2" font-family="Helvetica,sans-Serif" font-size="11.00">0 &gt;</text>
<polygon fill="black" stroke="black" points="213,-40 213,-56 213,-56 213,-40 213,-40"/>
<polygon fill="black" stroke="black" points="432,-40 432,-56 432,-56 432,-40 432,-40"/>
<polygon fill="none" stroke="black" stroke-width="2" points="9,-38 9,-190 635,-190 635,-38 9,-38"/>
</a>
</g>
</g>
</g>
</svg>
