<?xml version="1.0" encoding="UTF-8" standalone="no"?>
<!DOCTYPE svg PUBLIC "-//W3C//DTD SVG 1.1//EN"
 "http://www.w3.org/Graphics/SVG/1.1/DTD/svg11.dtd">
<!-- Generated by graphviz version 2.43.0 (0)
 -->
<!-- Title: twoDegreesRelationshipsDiagram Pages: 1 -->
<svg width="756pt" height="440pt"
 viewBox="0.00 0.00 756.00 440.00" xmlns="http://www.w3.org/2000/svg" xmlns:xlink="http://www.w3.org/1999/xlink">
<g id="graph0" class="graph" transform="scale(1 1) rotate(0) translate(4 436)">
<title>twoDegreesRelationshipsDiagram</title>
<polygon fill="#ffffff" stroke="transparent" points="-4,4 -4,-436 752,-436 752,4 -4,4"/>
<text text-anchor="middle" x="79.5" y="-7.2" font-family="Helvetica,sans-Serif" font-size="11.00">Generated by SchemaSpy</text>
<!-- deadwood -->
<g id="node1" class="node">
<title>deadwood</title>
<g id="a_node1"><a xlink:href="../../tables/deadwood.html" xlink:title="deadwood" target="_top">
<polygon fill="#ffffff" stroke="transparent" points="578,-198 578,-366 740,-366 740,-198 578,-198"/>
<polygon fill="#f5f5f5" stroke="transparent" points="578,-344 578,-366 740,-366 740,-344 578,-344"/>
<polygon fill="none" stroke="black" points="578,-344 578,-366 740,-366 740,-344 578,-344"/>
<text text-anchor="start" x="583" y="-353.2" font-family="Helvetica,sans-Serif" font-weight="bold" font-size="11.00">deadwood</text>
<text text-anchor="start" x="698" y="-352.2" font-family="Helvetica,sans-Serif" font-size="11.00">[table]</text>
<polygon fill="none" stroke="black" points="578,-322 578,-344 740,-344 740,-322 578,-322"/>
<image xlink:href="../../images/primaryKeys.png" width="11px" height="12px" preserveAspectRatio="xMinYMin meet" x="583" y="-339"/>
<text text-anchor="start" x="598" y="-330.2" font-family="Helvetica,sans-Serif" font-size="11.00">id</text>
<polygon fill="none" stroke="black" points="578,-300 578,-322 740,-322 740,-300 578,-300"/>
<image xlink:href="../../images/foreignKeys.png" width="11px" height="12px" preserveAspectRatio="xMinYMin meet" x="583" y="-317"/>
<text text-anchor="start" x="598" y="-308.2" font-family="Helvetica,sans-Serif" font-size="11.00">plot_id</text>
<polygon fill="none" stroke="black" points="578,-278 578,-300 740,-300 740,-278 578,-278"/>
<image xlink:href="../../images/foreignKeys.png" width="11px" height="12px" preserveAspectRatio="xMinYMin meet" x="583" y="-295"/>
<text text-anchor="start" x="598" y="-286.2" font-family="Helvetica,sans-Serif" font-size="11.00">tree_species_group</text>
<polygon fill="none" stroke="black" points="578,-256 578,-278 740,-278 740,-256 578,-256"/>
<image xlink:href="../../images/foreignKeys.png" width="11px" height="12px" preserveAspectRatio="xMinYMin meet" x="583" y="-273"/>
<text text-anchor="start" x="598" y="-264.2" font-family="Helvetica,sans-Serif" font-size="11.00">dead_wood_type</text>
<polygon fill="none" stroke="black" points="578,-234 578,-256 740,-256 740,-234 578,-234"/>
<image xlink:href="../../images/foreignKeys.png" width="11px" height="12px" preserveAspectRatio="xMinYMin meet" x="583" y="-251"/>
<text text-anchor="start" x="598" y="-242.2" font-family="Helvetica,sans-Serif" font-size="11.00">decomposition</text>
<polygon fill="none" stroke="black" points="578,-216 578,-234 740,-234 740,-216 578,-216"/>
<text text-anchor="start" x="581" y="-222.2" font-family="Helvetica,sans-Serif" font-size="11.00">...</text>
<polygon fill="#ffffff" stroke="transparent" points="578,-198 578,-216 740,-216 740,-198 578,-198"/>
<polygon fill="none" stroke="black" points="578,-198 578,-216 740,-216 740,-198 578,-198"/>
<polygon fill="#ffffff" stroke="transparent" points="579,-199 579,-215 631,-215 631,-199 579,-199"/>
<text text-anchor="start" x="581" y="-204.2" font-family="Helvetica,sans-Serif" font-size="11.00">&lt; 4</text>
<polygon fill="#ffffff" stroke="transparent" points="631,-199 631,-215 700,-215 700,-199 631,-199"/>
<text text-anchor="start" x="647" y="-204.2" font-family="Helvetica,sans-Serif" font-size="11.00">0 rows</text>
<polygon fill="#ffffff" stroke="transparent" points="700,-199 700,-215 739,-215 739,-199 700,-199"/>
<text text-anchor="start" x="729" y="-204.2" font-family="Helvetica,sans-Serif" font-size="11.00"> &#160;</text>
<polygon fill="black" stroke="black" points="631,-199 631,-215 631,-215 631,-199 631,-199"/>
<polygon fill="black" stroke="black" points="700,-199 700,-215 700,-215 700,-199 700,-199"/>
</a>
</g>
</g>
<!-- lookup_dead_wood_type -->
<g id="node2" class="node">
<title>lookup_dead_wood_type</title>
<g id="a_node2"><a xlink:href="../../tables/lookup_dead_wood_type.html" xlink:title="lookup_dead_wood_type" target="_top">
<polygon fill="#ffffff" stroke="transparent" points="156.5,-212 156.5,-270 380.5,-270 380.5,-212 156.5,-212"/>
<polygon fill="#f5f5f5" stroke="transparent" points="156.5,-248 156.5,-270 380.5,-270 380.5,-248 156.5,-248"/>
<polygon fill="none" stroke="black" points="156.5,-248 156.5,-270 380.5,-270 380.5,-248 156.5,-248"/>
<text text-anchor="start" x="161.5" y="-257.2" font-family="Helvetica,sans-Serif" font-weight="bold" font-size="11.00">lookup_dead_wood_type</text>
<text text-anchor="start" x="338.5" y="-256.2" font-family="Helvetica,sans-Serif" font-size="11.00">[table]</text>
<polygon fill="none" stroke="black" points="156.5,-230 156.5,-248 380.5,-248 380.5,-230 156.5,-230"/>
<text text-anchor="start" x="159.5" y="-236.2" font-family="Helvetica,sans-Serif" font-size="11.00">...</text>
<polygon fill="#ffffff" stroke="transparent" points="156.5,-212 156.5,-230 380.5,-230 380.5,-212 156.5,-212"/>
<polygon fill="none" stroke="black" points="156.5,-212 156.5,-230 380.5,-230 380.5,-212 156.5,-212"/>
<polygon fill="#ffffff" stroke="transparent" points="157.5,-213 157.5,-229 218.5,-229 218.5,-213 157.5,-213"/>
<text text-anchor="start" x="159.5" y="-218.2" font-family="Helvetica,sans-Serif" font-size="11.00"> &#160;</text>
<polygon fill="#ffffff" stroke="transparent" points="218.5,-213 218.5,-229 307.5,-229 307.5,-213 218.5,-213"/>
<text text-anchor="start" x="244.5" y="-218.2" font-family="Helvetica,sans-Serif" font-size="11.00">0 rows</text>
<polygon fill="#ffffff" stroke="transparent" points="307.5,-213 307.5,-229 379.5,-229 379.5,-213 307.5,-213"/>
<text text-anchor="start" x="357.5" y="-218.2" font-family="Helvetica,sans-Serif" font-size="11.00">1 &gt;</text>
<polygon fill="black" stroke="black" points="218.5,-213 218.5,-229 218.5,-229 218.5,-213 218.5,-213"/>
<polygon fill="black" stroke="black" points="307.5,-213 307.5,-229 307.5,-229 307.5,-213 307.5,-213"/>
</a>
</g>
</g>
<!-- deadwood&#45;&gt;lookup_dead_wood_type -->
<g id="edge1" class="edge">
<title>deadwood:w&#45;&gt;lookup_dead_wood_type:e</title>
<path fill="none" stroke="black" d="M562.24,-266.72C486.65,-263.81 464.13,-239 381.5,-239"/>
<polygon fill="black" stroke="black" points="569,-266.85 576.93,-270.6 573,-266.92 577,-267 577,-267 577,-267 573,-266.92 577.07,-263.4 569,-266.85 569,-266.85"/>
<ellipse fill="none" stroke="black" cx="565.8" cy="-266.79" rx="3.2" ry="3.2"/>
</g>
<!-- lookup_decomposition -->
<g id="node3" class="node">
<title>lookup_decomposition</title>
<g id="a_node3"><a xlink:href="../../tables/lookup_decomposition.html" xlink:title="lookup_decomposition" target="_top">
<polygon fill="#ffffff" stroke="transparent" points="8,-37 8,-191 529,-191 529,-37 8,-37"/>
<polygon fill="#f5f5f5" stroke="transparent" points="10.5,-167 10.5,-189 527.5,-189 527.5,-167 10.5,-167"/>
<polygon fill="none" stroke="black" points="10.5,-167 10.5,-189 527.5,-189 527.5,-167 10.5,-167"/>
<text text-anchor="start" x="15.5" y="-176.2" font-family="Helvetica,sans-Serif" font-weight="bold" font-size="11.00">lookup_decomposition</text>
<text text-anchor="start" x="485.5" y="-175.2" font-family="Helvetica,sans-Serif" font-size="11.00">[table]</text>
<polygon fill="none" stroke="black" points="10.5,-145 10.5,-167 194.5,-167 194.5,-145 10.5,-145"/>
<text text-anchor="start" x="30.5" y="-153.2" font-family="Helvetica,sans-Serif" font-size="11.00">name_de</text>
<polygon fill="none" stroke="black" points="194.5,-145 194.5,-167 527.5,-167 527.5,-145 194.5,-145"/>
<text text-anchor="start" x="197.5" y="-153.2" font-family="Helvetica,sans-Serif" font-size="11.00">varchar[150]</text>
<polygon fill="none" stroke="black" points="10.5,-123 10.5,-145 194.5,-145 194.5,-123 10.5,-123"/>
<text text-anchor="start" x="30.5" y="-131.2" font-family="Helvetica,sans-Serif" font-size="11.00">name_en</text>
<polygon fill="none" stroke="black" points="194.5,-123 194.5,-145 527.5,-145 527.5,-123 194.5,-123"/>
<text text-anchor="start" x="197.5" y="-131.2" font-family="Helvetica,sans-Serif" font-size="11.00">varchar[150]</text>
<polygon fill="none" stroke="black" points="10.5,-101 10.5,-123 194.5,-123 194.5,-101 10.5,-101"/>
<text text-anchor="start" x="30.5" y="-109.2" font-family="Helvetica,sans-Serif" font-size="11.00">interval</text>
<polygon fill="none" stroke="black" points="194.5,-101 194.5,-123 527.5,-123 527.5,-101 194.5,-101"/>
<text text-anchor="start" x="197.5" y="-109.2" font-family="Helvetica,sans-Serif" font-size="11.00">&quot;private_ci2027_001&quot;.&quot;_enum_interval_name&quot;[2147483647]</text>
<polygon fill="none" stroke="black" points="10.5,-79 10.5,-101 194.5,-101 194.5,-79 10.5,-79"/>
<text text-anchor="start" x="30.5" y="-87.2" font-family="Helvetica,sans-Serif" font-size="11.00">sort</text>
<polygon fill="none" stroke="black" points="194.5,-79 194.5,-101 527.5,-101 527.5,-79 194.5,-79"/>
<text text-anchor="start" x="197.5" y="-87.2" font-family="Helvetica,sans-Serif" font-size="11.00">int4[10]</text>
<polygon fill="#ffffff" stroke="transparent" points="10.5,-57 10.5,-79 194.5,-79 194.5,-57 10.5,-57"/>
<polygon fill="none" stroke="black" points="10.5,-57 10.5,-79 194.5,-79 194.5,-57 10.5,-57"/>
<text text-anchor="start" x="30.5" y="-65.2" font-family="Helvetica,sans-Serif" font-size="11.00">abbreviation</text>
<polygon fill="none" stroke="black" points="194.5,-57 194.5,-79 527.5,-79 527.5,-57 194.5,-57"/>
<text text-anchor="start" x="197.5" y="-65.2" font-family="Helvetica,sans-Serif" font-size="11.00">&quot;private_ci2027_001&quot;.&quot;enum_decomposition&quot;[2147483647]</text>
<polygon fill="#ffffff" stroke="transparent" points="10.5,-39 10.5,-57 527.5,-57 527.5,-39 10.5,-39"/>
<polygon fill="none" stroke="black" points="10.5,-39 10.5,-57 527.5,-57 527.5,-39 10.5,-39"/>
<polygon fill="#ffffff" stroke="transparent" points="11.5,-40 11.5,-56 177.5,-56 177.5,-40 11.5,-40"/>
<text text-anchor="start" x="13.5" y="-45.2" font-family="Helvetica,sans-Serif" font-size="11.00">&lt; 0</text>
<polygon fill="#ffffff" stroke="transparent" points="177.5,-40 177.5,-56 360.5,-56 360.5,-40 177.5,-40"/>
<text text-anchor="start" x="250.5" y="-45.2" font-family="Helvetica,sans-Serif" font-size="11.00">0 rows</text>
<polygon fill="#ffffff" stroke="transparent" points="360.5,-40 360.5,-56 526.5,-56 526.5,-40 360.5,-40"/>
<text text-anchor="start" x="504.5" y="-45.2" font-family="Helvetica,sans-Serif" font-size="11.00">1 &gt;</text>
<polygon fill="black" stroke="black" points="177.5,-40 177.5,-56 177.5,-56 177.5,-40 177.5,-40"/>
<polygon fill="black" stroke="black" points="360.5,-40 360.5,-56 360.5,-56 360.5,-40 360.5,-40"/>
<polygon fill="none" stroke="black" stroke-width="2" points="9,-38 9,-190 528,-190 528,-38 9,-38"/>
</a>
</g>
</g>
<!-- deadwood&#45;&gt;lookup_decomposition -->
<g id="edge2" class="edge">
<title>deadwood:w&#45;&gt;lookup_decomposition:e</title>
<path fill="none" stroke="black" d="M562.57,-242.5C510.58,-220.98 604.33,-68 528.5,-68"/>
<polygon fill="black" stroke="black" points="569.12,-243.63 576.39,-248.55 573.06,-244.32 577,-245 577,-245 577,-245 573.06,-244.32 577.61,-241.45 569.12,-243.63 569.12,-243.63"/>
<ellipse fill="none" stroke="black" cx="565.96" cy="-243.09" rx="3.2" ry="3.2"/>
</g>
<!-- plot -->
<g id="node4" class="node">
<title>plot</title>
<g id="a_node4"><a xlink:href="../../tables/plot.html" xlink:title="plot" target="_top">
<polygon fill="#ffffff" stroke="transparent" points="219.5,-370 219.5,-428 317.5,-428 317.5,-370 219.5,-370"/>
<polygon fill="#f5f5f5" stroke="transparent" points="219.5,-406 219.5,-428 317.5,-428 317.5,-406 219.5,-406"/>
<polygon fill="none" stroke="black" points="219.5,-406 219.5,-428 317.5,-428 317.5,-406 219.5,-406"/>
<text text-anchor="start" x="224" y="-415.2" font-family="Helvetica,sans-Serif" font-weight="bold" font-size="11.00">plot</text>
<text text-anchor="start" x="275.5" y="-414.2" font-family="Helvetica,sans-Serif" font-size="11.00">[table]</text>
<polygon fill="none" stroke="black" points="219.5,-388 219.5,-406 317.5,-406 317.5,-388 219.5,-388"/>
<text text-anchor="start" x="222.5" y="-394.2" font-family="Helvetica,sans-Serif" font-size="11.00">...</text>
<polygon fill="#ffffff" stroke="transparent" points="219.5,-370 219.5,-388 317.5,-388 317.5,-370 219.5,-370"/>
<polygon fill="none" stroke="black" points="219.5,-370 219.5,-388 317.5,-388 317.5,-370 219.5,-370"/>
<polygon fill="#ffffff" stroke="transparent" points="220.5,-371 220.5,-387 251.5,-387 251.5,-371 220.5,-371"/>
<text text-anchor="start" x="222.5" y="-376.2" font-family="Helvetica,sans-Serif" font-size="11.00">&lt; 16</text>
<polygon fill="#ffffff" stroke="transparent" points="251.5,-371 251.5,-387 292.5,-387 292.5,-371 251.5,-371"/>
<text text-anchor="start" x="253.5" y="-376.2" font-family="Helvetica,sans-Serif" font-size="11.00">0 rows</text>
<polygon fill="#ffffff" stroke="transparent" points="292.5,-371 292.5,-387 316.5,-387 316.5,-371 292.5,-371"/>
<text text-anchor="start" x="294.5" y="-376.2" font-family="Helvetica,sans-Serif" font-size="11.00">7 &gt;</text>
<polygon fill="black" stroke="black" points="251.5,-371 251.5,-387 251.5,-387 251.5,-371 251.5,-371"/>
<polygon fill="black" stroke="black" points="292.5,-371 292.5,-387 292.5,-387 292.5,-371 292.5,-371"/>
</a>
</g>
</g>
<!-- deadwood&#45;&gt;plot -->
<g id="edge3" class="edge">
<title>deadwood:w&#45;&gt;plot:e</title>
<path fill="none" stroke="black" d="M563.23,-315.72C552.63,-325.73 555.79,-349.07 537,-360 451.87,-409.53 416.99,-397 318.5,-397"/>
<polygon fill="black" stroke="black" points="569.43,-313.6 578.17,-314.41 573.22,-312.3 577,-311 577,-311 577,-311 573.22,-312.3 575.83,-307.59 569.43,-313.6 569.43,-313.6"/>
<ellipse fill="none" stroke="black" cx="566.41" cy="-314.63" rx="3.2" ry="3.2"/>
</g>
<!-- lookup_tree_species_group -->
<g id="node5" class="node">
<title>lookup_tree_species_group</title>
<g id="a_node5"><a xlink:href="../../tables/lookup_tree_species_group.html" xlink:title="lookup_tree_species_group" target="_top">
<polygon fill="#ffffff" stroke="transparent" points="146.5,-291 146.5,-349 390.5,-349 390.5,-291 146.5,-291"/>
<polygon fill="#f5f5f5" stroke="transparent" points="146.5,-327 146.5,-349 390.5,-349 390.5,-327 146.5,-327"/>
<polygon fill="none" stroke="black" points="146.5,-327 146.5,-349 390.5,-349 390.5,-327 146.5,-327"/>
<text text-anchor="start" x="151.5" y="-336.2" font-family="Helvetica,sans-Serif" font-weight="bold" font-size="11.00">lookup_tree_species_group</text>
<text text-anchor="start" x="348.5" y="-335.2" font-family="Helvetica,sans-Serif" font-size="11.00">[table]</text>
<polygon fill="none" stroke="black" points="146.5,-309 146.5,-327 390.5,-327 390.5,-309 146.5,-309"/>
<text text-anchor="start" x="149.5" y="-315.2" font-family="Helvetica,sans-Serif" font-size="11.00">...</text>
<polygon fill="#ffffff" stroke="transparent" points="146.5,-291 146.5,-309 390.5,-309 390.5,-291 146.5,-291"/>
<polygon fill="none" stroke="black" points="146.5,-291 146.5,-309 390.5,-309 390.5,-291 146.5,-291"/>
<polygon fill="#ffffff" stroke="transparent" points="147.5,-292 147.5,-308 214.5,-308 214.5,-292 147.5,-292"/>
<text text-anchor="start" x="149.5" y="-297.2" font-family="Helvetica,sans-Serif" font-size="11.00"> &#160;</text>
<polygon fill="#ffffff" stroke="transparent" points="214.5,-292 214.5,-308 310.5,-308 310.5,-292 214.5,-292"/>
<text text-anchor="start" x="244" y="-297.2" font-family="Helvetica,sans-Serif" font-size="11.00">0 rows</text>
<polygon fill="#ffffff" stroke="transparent" points="310.5,-292 310.5,-308 389.5,-308 389.5,-292 310.5,-292"/>
<text text-anchor="start" x="367.5" y="-297.2" font-family="Helvetica,sans-Serif" font-size="11.00">1 &gt;</text>
<polygon fill="black" stroke="black" points="214.5,-292 214.5,-308 214.5,-308 214.5,-292 214.5,-292"/>
<polygon fill="black" stroke="black" points="310.5,-292 310.5,-308 310.5,-308 310.5,-292 310.5,-292"/>
</a>
</g>
</g>
<!-- deadwood&#45;&gt;lookup_tree_species_group -->
<g id="edge4" class="edge">
<title>deadwood:w&#45;&gt;lookup_tree_species_group:e</title>
<path fill="none" stroke="black" d="M562.53,-289.31C491.06,-292.41 469.89,-318 391.5,-318"/>
<polygon fill="black" stroke="black" points="569,-289.17 577.08,-292.6 573,-289.08 577,-289 577,-289 577,-289 573,-289.08 576.92,-285.4 569,-289.17 569,-289.17"/>
<ellipse fill="none" stroke="black" cx="565.8" cy="-289.24" rx="3.2" ry="3.2"/>
</g>
</g>
</svg>
