<?xml version="1.0" encoding="UTF-8" standalone="no"?>
<!DOCTYPE svg PUBLIC "-//W3C//DTD SVG 1.1//EN"
 "http://www.w3.org/Graphics/SVG/1.1/DTD/svg11.dtd">
<!-- Generated by graphviz version 2.43.0 (0)
 -->
<!-- Title: oneDegreeRelationshipsDiagram Pages: 1 -->
<svg width="753pt" height="217pt"
 viewBox="0.00 0.00 753.00 217.00" xmlns="http://www.w3.org/2000/svg" xmlns:xlink="http://www.w3.org/1999/xlink">
<g id="graph0" class="graph" transform="scale(1 1) rotate(0) translate(4 213)">
<title>oneDegreeRelationshipsDiagram</title>
<polygon fill="#ffffff" stroke="transparent" points="-4,4 -4,-213 749,-213 749,4 -4,4"/>
<text text-anchor="middle" x="79.5" y="-7.2" font-family="Helvetica,sans-Serif" font-size="11.00">Generated by SchemaSpy</text>
<!-- deadwood -->
<g id="node1" class="node">
<title>deadwood</title>
<g id="a_node1"><a xlink:href="../../tables/deadwood.html" xlink:title="deadwood" target="_top">
<polygon fill="#ffffff" stroke="transparent" points="575,-37 575,-205 737,-205 737,-37 575,-37"/>
<polygon fill="#f5f5f5" stroke="transparent" points="575,-183 575,-205 737,-205 737,-183 575,-183"/>
<polygon fill="none" stroke="black" points="575,-183 575,-205 737,-205 737,-183 575,-183"/>
<text text-anchor="start" x="580" y="-192.2" font-family="Helvetica,sans-Serif" font-weight="bold" font-size="11.00">deadwood</text>
<text text-anchor="start" x="695" y="-191.2" font-family="Helvetica,sans-Serif" font-size="11.00">[table]</text>
<polygon fill="none" stroke="black" points="575,-161 575,-183 737,-183 737,-161 575,-161"/>
<image xlink:href="../../images/primaryKeys.png" width="11px" height="12px" preserveAspectRatio="xMinYMin meet" x="580" y="-178"/>
<text text-anchor="start" x="595" y="-169.2" font-family="Helvetica,sans-Serif" font-size="11.00">id</text>
<polygon fill="none" stroke="black" points="575,-139 575,-161 737,-161 737,-139 575,-139"/>
<image xlink:href="../../images/foreignKeys.png" width="11px" height="12px" preserveAspectRatio="xMinYMin meet" x="580" y="-156"/>
<text text-anchor="start" x="595" y="-147.2" font-family="Helvetica,sans-Serif" font-size="11.00">plot_id</text>
<polygon fill="none" stroke="black" points="575,-117 575,-139 737,-139 737,-117 575,-117"/>
<image xlink:href="../../images/foreignKeys.png" width="11px" height="12px" preserveAspectRatio="xMinYMin meet" x="580" y="-134"/>
<text text-anchor="start" x="595" y="-125.2" font-family="Helvetica,sans-Serif" font-size="11.00">tree_species_group</text>
<polygon fill="none" stroke="black" points="575,-95 575,-117 737,-117 737,-95 575,-95"/>
<image xlink:href="../../images/foreignKeys.png" width="11px" height="12px" preserveAspectRatio="xMinYMin meet" x="580" y="-112"/>
<text text-anchor="start" x="595" y="-103.2" font-family="Helvetica,sans-Serif" font-size="11.00">dead_wood_type</text>
<polygon fill="none" stroke="black" points="575,-73 575,-95 737,-95 737,-73 575,-73"/>
<image xlink:href="../../images/foreignKeys.png" width="11px" height="12px" preserveAspectRatio="xMinYMin meet" x="580" y="-90"/>
<text text-anchor="start" x="595" y="-81.2" font-family="Helvetica,sans-Serif" font-size="11.00">decomposition</text>
<polygon fill="none" stroke="black" points="575,-55 575,-73 737,-73 737,-55 575,-55"/>
<text text-anchor="start" x="578" y="-61.2" font-family="Helvetica,sans-Serif" font-size="11.00">...</text>
<polygon fill="#ffffff" stroke="transparent" points="575,-37 575,-55 737,-55 737,-37 575,-37"/>
<polygon fill="none" stroke="black" points="575,-37 575,-55 737,-55 737,-37 575,-37"/>
<polygon fill="#ffffff" stroke="transparent" points="576,-38 576,-54 628,-54 628,-38 576,-38"/>
<text text-anchor="start" x="578" y="-43.2" font-family="Helvetica,sans-Serif" font-size="11.00">&lt; 4</text>
<polygon fill="#ffffff" stroke="transparent" points="628,-38 628,-54 697,-54 697,-38 628,-38"/>
<text text-anchor="start" x="644" y="-43.2" font-family="Helvetica,sans-Serif" font-size="11.00">0 rows</text>
<polygon fill="#ffffff" stroke="transparent" points="697,-38 697,-54 736,-54 736,-38 697,-38"/>
<text text-anchor="start" x="726" y="-43.2" font-family="Helvetica,sans-Serif" font-size="11.00"> &#160;</text>
<polygon fill="black" stroke="black" points="628,-38 628,-54 628,-54 628,-38 628,-38"/>
<polygon fill="black" stroke="black" points="697,-38 697,-54 697,-54 697,-38 697,-38"/>
</a>
</g>
</g>
<!-- lookup_decomposition -->
<g id="node2" class="node">
<title>lookup_decomposition</title>
<g id="a_node2"><a xlink:href="../../tables/lookup_decomposition.html" xlink:title="lookup_decomposition" target="_top">
<polygon fill="#ffffff" stroke="transparent" points="8,-53 8,-185 526,-185 526,-53 8,-53"/>
<polygon fill="#f5f5f5" stroke="transparent" points="10,-161 10,-183 524,-183 524,-161 10,-161"/>
<polygon fill="none" stroke="black" points="10,-161 10,-183 524,-183 524,-161 10,-161"/>
<text text-anchor="start" x="15" y="-170.2" font-family="Helvetica,sans-Serif" font-weight="bold" font-size="11.00">lookup_decomposition</text>
<text text-anchor="start" x="482" y="-169.2" font-family="Helvetica,sans-Serif" font-size="11.00">[table]</text>
<polygon fill="none" stroke="black" points="10,-139 10,-161 194,-161 194,-139 10,-139"/>
<text text-anchor="start" x="30" y="-147.2" font-family="Helvetica,sans-Serif" font-size="11.00">name_de</text>
<polygon fill="none" stroke="black" points="194,-139 194,-161 524,-161 524,-139 194,-139"/>
<text text-anchor="start" x="197" y="-147.2" font-family="Helvetica,sans-Serif" font-size="11.00">varchar[150]</text>
<polygon fill="none" stroke="black" points="10,-117 10,-139 194,-139 194,-117 10,-117"/>
<text text-anchor="start" x="30" y="-125.2" font-family="Helvetica,sans-Serif" font-size="11.00">name_en</text>
<polygon fill="none" stroke="black" points="194,-117 194,-139 524,-139 524,-117 194,-117"/>
<text text-anchor="start" x="197" y="-125.2" font-family="Helvetica,sans-Serif" font-size="11.00">varchar[150]</text>
<polygon fill="none" stroke="black" points="10,-95 10,-117 194,-117 194,-95 10,-95"/>
<text text-anchor="start" x="30" y="-103.2" font-family="Helvetica,sans-Serif" font-size="11.00">sort</text>
<polygon fill="none" stroke="black" points="194,-95 194,-117 524,-117 524,-95 194,-95"/>
<text text-anchor="start" x="197" y="-103.2" font-family="Helvetica,sans-Serif" font-size="11.00">int4[10]</text>
<polygon fill="#ffffff" stroke="transparent" points="10,-73 10,-95 194,-95 194,-73 10,-73"/>
<polygon fill="none" stroke="black" points="10,-73 10,-95 194,-95 194,-73 10,-73"/>
<text text-anchor="start" x="30" y="-81.2" font-family="Helvetica,sans-Serif" font-size="11.00">abbreviation</text>
<polygon fill="none" stroke="black" points="194,-73 194,-95 524,-95 524,-73 194,-73"/>
<text text-anchor="start" x="197" y="-81.2" font-family="Helvetica,sans-Serif" font-size="11.00">&quot;private_ci2027_001&quot;.&quot;enum_decomposition&quot;[2147483647]</text>
<polygon fill="#ffffff" stroke="transparent" points="10,-55 10,-73 524,-73 524,-55 10,-55"/>
<polygon fill="none" stroke="black" points="10,-55 10,-73 524,-73 524,-55 10,-55"/>
<polygon fill="#ffffff" stroke="transparent" points="11,-56 11,-72 176,-72 176,-56 11,-56"/>
<text text-anchor="start" x="13" y="-61.2" font-family="Helvetica,sans-Serif" font-size="11.00">&lt; 0</text>
<polygon fill="#ffffff" stroke="transparent" points="176,-56 176,-72 358,-72 358,-56 176,-56"/>
<text text-anchor="start" x="248.5" y="-61.2" font-family="Helvetica,sans-Serif" font-size="11.00">0 rows</text>
<polygon fill="#ffffff" stroke="transparent" points="358,-56 358,-72 523,-72 523,-56 358,-56"/>
<text text-anchor="start" x="501" y="-61.2" font-family="Helvetica,sans-Serif" font-size="11.00">1 &gt;</text>
<polygon fill="black" stroke="black" points="176,-56 176,-72 176,-72 176,-56 176,-56"/>
<polygon fill="black" stroke="black" points="358,-56 358,-72 358,-72 358,-56 358,-56"/>
<polygon fill="none" stroke="black" stroke-width="2" points="9,-54 9,-184 525,-184 525,-54 9,-54"/>
</a>
</g>
</g>
<!-- deadwood&#45;&gt;lookup_decomposition -->
<g id="edge1" class="edge">
<title>deadwood:w&#45;&gt;lookup_decomposition:e</title>
<path fill="none" stroke="black" d="M559.49,-84C548.18,-84 540.99,-84 525,-84"/>
<polygon fill="black" stroke="black" points="566,-84 574,-87.6 570,-84 574,-84 574,-84 574,-84 570,-84 574,-80.4 566,-84 566,-84"/>
<ellipse fill="none" stroke="black" cx="562.8" cy="-84" rx="3.2" ry="3.2"/>
</g>
</g>
</svg>
