<?xml version="1.0" encoding="UTF-8" standalone="no"?>
<!DOCTYPE svg PUBLIC "-//W3C//DTD SVG 1.1//EN"
 "http://www.w3.org/Graphics/SVG/1.1/DTD/svg11.dtd">
<!-- Generated by graphviz version 2.43.0 (0)
 -->
<!-- Title: oneDegreeRelationshipsDiagram Pages: 1 -->
<svg width="671pt" height="241pt"
 viewBox="0.00 0.00 671.00 241.00" xmlns="http://www.w3.org/2000/svg" xmlns:xlink="http://www.w3.org/1999/xlink">
<g id="graph0" class="graph" transform="scale(1 1) rotate(0) translate(4 237)">
<title>oneDegreeRelationshipsDiagram</title>
<polygon fill="#ffffff" stroke="transparent" points="-4,4 -4,-237 667,-237 667,4 -4,4"/>
<text text-anchor="middle" x="79.5" y="-7.2" font-family="Helvetica,sans-Serif" font-size="11.00">Generated by SchemaSpy</text>
<!-- edges -->
<g id="node1" class="node">
<title>edges</title>
<g id="a_node1"><a xlink:href="../../tables/edges.html" xlink:title="edges" target="_top">
<polygon fill="#ffffff" stroke="transparent" points="546,-37 546,-205 655,-205 655,-37 546,-37"/>
<polygon fill="#f5f5f5" stroke="transparent" points="546.5,-183 546.5,-205 655.5,-205 655.5,-183 546.5,-183"/>
<polygon fill="none" stroke="black" points="546.5,-183 546.5,-205 655.5,-205 655.5,-183 546.5,-183"/>
<text text-anchor="start" x="551.5" y="-192.2" font-family="Helvetica,sans-Serif" font-weight="bold" font-size="11.00">edges</text>
<text text-anchor="start" x="613.5" y="-191.2" font-family="Helvetica,sans-Serif" font-size="11.00">[table]</text>
<polygon fill="none" stroke="black" points="546.5,-161 546.5,-183 655.5,-183 655.5,-161 546.5,-161"/>
<image xlink:href="../../images/primaryKeys.png" width="11px" height="12px" preserveAspectRatio="xMinYMin meet" x="551.5" y="-178"/>
<text text-anchor="start" x="566.5" y="-169.2" font-family="Helvetica,sans-Serif" font-size="11.00">id</text>
<polygon fill="none" stroke="black" points="546.5,-139 546.5,-161 655.5,-161 655.5,-139 546.5,-139"/>
<image xlink:href="../../images/foreignKeys.png" width="11px" height="12px" preserveAspectRatio="xMinYMin meet" x="551.5" y="-156"/>
<text text-anchor="start" x="566.5" y="-147.2" font-family="Helvetica,sans-Serif" font-size="11.00">plot_id</text>
<polygon fill="none" stroke="black" points="546.5,-117 546.5,-139 655.5,-139 655.5,-117 546.5,-117"/>
<image xlink:href="../../images/foreignKeys.png" width="11px" height="12px" preserveAspectRatio="xMinYMin meet" x="551.5" y="-134"/>
<text text-anchor="start" x="566.5" y="-125.2" font-family="Helvetica,sans-Serif" font-size="11.00">edge_status</text>
<polygon fill="none" stroke="black" points="546.5,-95 546.5,-117 655.5,-117 655.5,-95 546.5,-95"/>
<image xlink:href="../../images/foreignKeys.png" width="11px" height="12px" preserveAspectRatio="xMinYMin meet" x="551.5" y="-112"/>
<text text-anchor="start" x="566.5" y="-103.2" font-family="Helvetica,sans-Serif" font-size="11.00">edge_type</text>
<polygon fill="none" stroke="black" points="546.5,-73 546.5,-95 655.5,-95 655.5,-73 546.5,-73"/>
<image xlink:href="../../images/foreignKeys.png" width="11px" height="12px" preserveAspectRatio="xMinYMin meet" x="551.5" y="-90"/>
<text text-anchor="start" x="566.5" y="-81.2" font-family="Helvetica,sans-Serif" font-size="11.00">terrain</text>
<polygon fill="none" stroke="black" points="546.5,-55 546.5,-73 655.5,-73 655.5,-55 546.5,-55"/>
<text text-anchor="start" x="549.5" y="-61.2" font-family="Helvetica,sans-Serif" font-size="11.00">...</text>
<polygon fill="#ffffff" stroke="transparent" points="546.5,-37 546.5,-55 655.5,-55 655.5,-37 546.5,-37"/>
<polygon fill="none" stroke="black" points="546.5,-37 546.5,-55 655.5,-55 655.5,-37 546.5,-37"/>
<polygon fill="#ffffff" stroke="transparent" points="547.5,-38 547.5,-54 581.5,-54 581.5,-38 547.5,-38"/>
<text text-anchor="start" x="549.5" y="-43.2" font-family="Helvetica,sans-Serif" font-size="11.00">&lt; 4</text>
<polygon fill="#ffffff" stroke="transparent" points="581.5,-38 581.5,-54 632.5,-54 632.5,-38 581.5,-38"/>
<text text-anchor="start" x="588.5" y="-43.2" font-family="Helvetica,sans-Serif" font-size="11.00">0 rows</text>
<polygon fill="#ffffff" stroke="transparent" points="632.5,-38 632.5,-54 654.5,-54 654.5,-38 632.5,-38"/>
<text text-anchor="start" x="644.5" y="-43.2" font-family="Helvetica,sans-Serif" font-size="11.00"> &#160;</text>
<polygon fill="black" stroke="black" points="581.5,-38 581.5,-54 581.5,-54 581.5,-38 581.5,-38"/>
<polygon fill="black" stroke="black" points="632.5,-38 632.5,-54 632.5,-54 632.5,-38 632.5,-38"/>
</a>
</g>
</g>
<!-- lookup_edge_type -->
<g id="node2" class="node">
<title>lookup_edge_type</title>
<g id="a_node2"><a xlink:href="../../tables/lookup_edge_type.html" xlink:title="lookup_edge_type" target="_top">
<polygon fill="#ffffff" stroke="transparent" points="8,-75 8,-229 497,-229 497,-75 8,-75"/>
<polygon fill="#f5f5f5" stroke="transparent" points="10.5,-205 10.5,-227 495.5,-227 495.5,-205 10.5,-205"/>
<polygon fill="none" stroke="black" points="10.5,-205 10.5,-227 495.5,-227 495.5,-205 10.5,-205"/>
<text text-anchor="start" x="15.5" y="-214.2" font-family="Helvetica,sans-Serif" font-weight="bold" font-size="11.00">lookup_edge_type</text>
<text text-anchor="start" x="453.5" y="-213.2" font-family="Helvetica,sans-Serif" font-size="11.00">[table]</text>
<polygon fill="none" stroke="black" points="10.5,-183 10.5,-205 162.5,-205 162.5,-183 10.5,-183"/>
<text text-anchor="start" x="30.5" y="-191.2" font-family="Helvetica,sans-Serif" font-size="11.00">name_de</text>
<polygon fill="none" stroke="black" points="162.5,-183 162.5,-205 495.5,-205 495.5,-183 162.5,-183"/>
<text text-anchor="start" x="165.5" y="-191.2" font-family="Helvetica,sans-Serif" font-size="11.00">varchar[150]</text>
<polygon fill="none" stroke="black" points="10.5,-161 10.5,-183 162.5,-183 162.5,-161 10.5,-161"/>
<text text-anchor="start" x="30.5" y="-169.2" font-family="Helvetica,sans-Serif" font-size="11.00">name_en</text>
<polygon fill="none" stroke="black" points="162.5,-161 162.5,-183 495.5,-183 495.5,-161 162.5,-161"/>
<text text-anchor="start" x="165.5" y="-169.2" font-family="Helvetica,sans-Serif" font-size="11.00">varchar[150]</text>
<polygon fill="none" stroke="black" points="10.5,-139 10.5,-161 162.5,-161 162.5,-139 10.5,-139"/>
<text text-anchor="start" x="30.5" y="-147.2" font-family="Helvetica,sans-Serif" font-size="11.00">interval</text>
<polygon fill="none" stroke="black" points="162.5,-139 162.5,-161 495.5,-161 495.5,-139 162.5,-139"/>
<text text-anchor="start" x="165.5" y="-147.2" font-family="Helvetica,sans-Serif" font-size="11.00">&quot;private_ci2027_001&quot;.&quot;_enum_interval_name&quot;[2147483647]</text>
<polygon fill="none" stroke="black" points="10.5,-117 10.5,-139 162.5,-139 162.5,-117 10.5,-117"/>
<text text-anchor="start" x="30.5" y="-125.2" font-family="Helvetica,sans-Serif" font-size="11.00">sort</text>
<polygon fill="none" stroke="black" points="162.5,-117 162.5,-139 495.5,-139 495.5,-117 162.5,-117"/>
<text text-anchor="start" x="165.5" y="-125.2" font-family="Helvetica,sans-Serif" font-size="11.00">int4[10]</text>
<polygon fill="#ffffff" stroke="transparent" points="10.5,-95 10.5,-117 162.5,-117 162.5,-95 10.5,-95"/>
<polygon fill="none" stroke="black" points="10.5,-95 10.5,-117 162.5,-117 162.5,-95 10.5,-95"/>
<text text-anchor="start" x="30.5" y="-103.2" font-family="Helvetica,sans-Serif" font-size="11.00">abbreviation</text>
<polygon fill="none" stroke="black" points="162.5,-95 162.5,-117 495.5,-117 495.5,-95 162.5,-95"/>
<text text-anchor="start" x="165.5" y="-103.2" font-family="Helvetica,sans-Serif" font-size="11.00">&quot;private_ci2027_001&quot;.&quot;enum_edge_type&quot;[2147483647]</text>
<polygon fill="#ffffff" stroke="transparent" points="10.5,-77 10.5,-95 495.5,-95 495.5,-77 10.5,-77"/>
<polygon fill="none" stroke="black" points="10.5,-77 10.5,-95 495.5,-95 495.5,-77 10.5,-77"/>
<polygon fill="#ffffff" stroke="transparent" points="11.5,-78 11.5,-94 167.5,-94 167.5,-78 11.5,-78"/>
<text text-anchor="start" x="13.5" y="-83.2" font-family="Helvetica,sans-Serif" font-size="11.00">&lt; 0</text>
<polygon fill="#ffffff" stroke="transparent" points="167.5,-78 167.5,-94 339.5,-94 339.5,-78 167.5,-78"/>
<text text-anchor="start" x="235" y="-83.2" font-family="Helvetica,sans-Serif" font-size="11.00">0 rows</text>
<polygon fill="#ffffff" stroke="transparent" points="339.5,-78 339.5,-94 494.5,-94 494.5,-78 339.5,-78"/>
<text text-anchor="start" x="472.5" y="-83.2" font-family="Helvetica,sans-Serif" font-size="11.00">1 &gt;</text>
<polygon fill="black" stroke="black" points="167.5,-78 167.5,-94 167.5,-94 167.5,-78 167.5,-78"/>
<polygon fill="black" stroke="black" points="339.5,-78 339.5,-94 339.5,-94 339.5,-78 339.5,-78"/>
<polygon fill="none" stroke="black" stroke-width="2" points="9,-76 9,-228 496,-228 496,-76 9,-76"/>
</a>
</g>
</g>
<!-- edges&#45;&gt;lookup_edge_type -->
<g id="edge1" class="edge">
<title>edges:w&#45;&gt;lookup_edge_type:e</title>
<path fill="none" stroke="black" d="M530.99,-106C519.68,-106 512.49,-106 496.5,-106"/>
<polygon fill="black" stroke="black" points="537.5,-106 545.5,-109.6 541.5,-106 545.5,-106 545.5,-106 545.5,-106 541.5,-106 545.5,-102.4 537.5,-106 537.5,-106"/>
<ellipse fill="none" stroke="black" cx="534.3" cy="-106" rx="3.2" ry="3.2"/>
</g>
</g>
</svg>
