<?xml version="1.0" encoding="UTF-8" standalone="no"?>
<!DOCTYPE svg PUBLIC "-//W3C//DTD SVG 1.1//EN"
 "http://www.w3.org/Graphics/SVG/1.1/DTD/svg11.dtd">
<!-- Generated by graphviz version 2.43.0 (0)
 -->
<!-- Title: twoDegreesRelationshipsDiagram Pages: 1 -->
<svg width="917pt" height="511pt"
 viewBox="0.00 0.00 917.00 511.08" xmlns="http://www.w3.org/2000/svg" xmlns:xlink="http://www.w3.org/1999/xlink">
<g id="graph0" class="graph" transform="scale(1 1) rotate(0) translate(4 507.08)">
<title>twoDegreesRelationshipsDiagram</title>
<polygon fill="#ffffff" stroke="transparent" points="-4,4 -4,-507.08 913,-507.08 913,4 -4,4"/>
<text text-anchor="middle" x="79.5" y="-7.2" font-family="Helvetica,sans-Serif" font-size="11.00">Generated by SchemaSpy</text>
<!-- plot_location -->
<g id="node1" class="node">
<title>plot_location</title>
<g id="a_node1"><a xlink:href="../../tables/plot_location.html" xlink:title="plot_location" target="_top">
<polygon fill="#ffffff" stroke="transparent" points="345.5,-370 345.5,-428 486.5,-428 486.5,-370 345.5,-370"/>
<polygon fill="#f5f5f5" stroke="transparent" points="346,-406 346,-428 487,-428 487,-406 346,-406"/>
<polygon fill="none" stroke="black" points="346,-406 346,-428 487,-428 487,-406 346,-406"/>
<text text-anchor="start" x="351" y="-415.2" font-family="Helvetica,sans-Serif" font-weight="bold" font-size="11.00">plot_location</text>
<text text-anchor="start" x="445" y="-414.2" font-family="Helvetica,sans-Serif" font-size="11.00">[table]</text>
<polygon fill="none" stroke="black" points="346,-388 346,-406 487,-406 487,-388 346,-388"/>
<text text-anchor="start" x="349" y="-394.2" font-family="Helvetica,sans-Serif" font-size="11.00">...</text>
<polygon fill="#ffffff" stroke="transparent" points="346,-370 346,-388 487,-388 487,-370 346,-370"/>
<polygon fill="none" stroke="black" points="346,-370 346,-388 487,-388 487,-370 346,-370"/>
<polygon fill="#ffffff" stroke="transparent" points="347,-371 347,-387 388,-387 388,-371 347,-371"/>
<text text-anchor="start" x="349" y="-376.2" font-family="Helvetica,sans-Serif" font-size="11.00">&lt; 1</text>
<polygon fill="#ffffff" stroke="transparent" points="388,-371 388,-387 446,-387 446,-371 388,-371"/>
<text text-anchor="start" x="398.5" y="-376.2" font-family="Helvetica,sans-Serif" font-size="11.00">0 rows</text>
<polygon fill="#ffffff" stroke="transparent" points="446,-371 446,-387 486,-387 486,-371 446,-371"/>
<text text-anchor="start" x="464" y="-376.2" font-family="Helvetica,sans-Serif" font-size="11.00">3 &gt;</text>
<polygon fill="black" stroke="black" points="388,-371 388,-387 388,-387 388,-371 388,-371"/>
<polygon fill="black" stroke="black" points="446,-371 446,-387 446,-387 446,-371 446,-371"/>
</a>
</g>
</g>
<!-- plot -->
<g id="node2" class="node">
<title>plot</title>
<g id="a_node2"><a xlink:href="../../tables/plot.html" xlink:title="plot" target="_top">
<polygon fill="#ffffff" stroke="transparent" points="8,-397 8,-455 106,-455 106,-397 8,-397"/>
<polygon fill="#f5f5f5" stroke="transparent" points="8,-433 8,-455 106,-455 106,-433 8,-433"/>
<polygon fill="none" stroke="black" points="8,-433 8,-455 106,-455 106,-433 8,-433"/>
<text text-anchor="start" x="12.5" y="-442.2" font-family="Helvetica,sans-Serif" font-weight="bold" font-size="11.00">plot</text>
<text text-anchor="start" x="64" y="-441.2" font-family="Helvetica,sans-Serif" font-size="11.00">[table]</text>
<polygon fill="none" stroke="black" points="8,-415 8,-433 106,-433 106,-415 8,-415"/>
<text text-anchor="start" x="11" y="-421.2" font-family="Helvetica,sans-Serif" font-size="11.00">...</text>
<polygon fill="#ffffff" stroke="transparent" points="8,-397 8,-415 106,-415 106,-397 8,-397"/>
<polygon fill="none" stroke="black" points="8,-397 8,-415 106,-415 106,-397 8,-397"/>
<polygon fill="#ffffff" stroke="transparent" points="9,-398 9,-414 40,-414 40,-398 9,-398"/>
<text text-anchor="start" x="11" y="-403.2" font-family="Helvetica,sans-Serif" font-size="11.00">&lt; 16</text>
<polygon fill="#ffffff" stroke="transparent" points="40,-398 40,-414 81,-414 81,-398 40,-398"/>
<text text-anchor="start" x="42" y="-403.2" font-family="Helvetica,sans-Serif" font-size="11.00">0 rows</text>
<polygon fill="#ffffff" stroke="transparent" points="81,-398 81,-414 105,-414 105,-398 81,-398"/>
<text text-anchor="start" x="83" y="-403.2" font-family="Helvetica,sans-Serif" font-size="11.00">7 &gt;</text>
<polygon fill="black" stroke="black" points="40,-398 40,-414 40,-414 40,-398 40,-398"/>
<polygon fill="black" stroke="black" points="81,-398 81,-414 81,-414 81,-398 81,-398"/>
</a>
</g>
</g>
<!-- plot_location&#45;&gt;plot -->
<g id="edge1" class="edge">
<title>plot_location:w&#45;&gt;plot:e</title>
<path fill="none" stroke="black" d="M330.55,-397.17C236.01,-399.47 208.47,-424 107,-424"/>
<polygon fill="black" stroke="black" points="337,-397.1 345.04,-400.6 341,-397.05 345,-397 345,-397 345,-397 341,-397.05 344.96,-393.4 337,-397.1 337,-397.1"/>
<ellipse fill="none" stroke="black" cx="333.8" cy="-397.13" rx="3.2" ry="3.2"/>
</g>
<!-- regeneration -->
<g id="node3" class="node">
<title>regeneration</title>
<g id="a_node3"><a xlink:href="../../tables/regeneration.html" xlink:title="regeneration" target="_top">
<polygon fill="#ffffff" stroke="transparent" points="726,-227 726,-417 901,-417 901,-227 726,-227"/>
<polygon fill="#f5f5f5" stroke="transparent" points="726.5,-395 726.5,-417 901.5,-417 901.5,-395 726.5,-395"/>
<polygon fill="none" stroke="black" points="726.5,-395 726.5,-417 901.5,-417 901.5,-395 726.5,-395"/>
<text text-anchor="start" x="731.5" y="-404.2" font-family="Helvetica,sans-Serif" font-weight="bold" font-size="11.00">regeneration</text>
<text text-anchor="start" x="859.5" y="-403.2" font-family="Helvetica,sans-Serif" font-size="11.00">[table]</text>
<polygon fill="none" stroke="black" points="726.5,-373 726.5,-395 901.5,-395 901.5,-373 726.5,-373"/>
<image xlink:href="../../images/primaryKeys.png" width="11px" height="12px" preserveAspectRatio="xMinYMin meet" x="731.5" y="-390"/>
<text text-anchor="start" x="746.5" y="-381.2" font-family="Helvetica,sans-Serif" font-size="11.00">id</text>
<polygon fill="none" stroke="black" points="726.5,-351 726.5,-373 901.5,-373 901.5,-351 726.5,-351"/>
<image xlink:href="../../images/foreignKeys.png" width="11px" height="12px" preserveAspectRatio="xMinYMin meet" x="731.5" y="-368"/>
<text text-anchor="start" x="746.5" y="-359.2" font-family="Helvetica,sans-Serif" font-size="11.00">plot_id</text>
<polygon fill="none" stroke="black" points="726.5,-329 726.5,-351 901.5,-351 901.5,-329 726.5,-329"/>
<image xlink:href="../../images/foreignKeys.png" width="11px" height="12px" preserveAspectRatio="xMinYMin meet" x="731.5" y="-346"/>
<text text-anchor="start" x="746.5" y="-337.2" font-family="Helvetica,sans-Serif" font-size="11.00">plot_location_id</text>
<polygon fill="none" stroke="black" points="726.5,-307 726.5,-329 901.5,-329 901.5,-307 726.5,-307"/>
<image xlink:href="../../images/foreignKeys.png" width="11px" height="12px" preserveAspectRatio="xMinYMin meet" x="731.5" y="-324"/>
<text text-anchor="start" x="746.5" y="-315.2" font-family="Helvetica,sans-Serif" font-size="11.00">tree_species</text>
<polygon fill="none" stroke="black" points="726.5,-285 726.5,-307 901.5,-307 901.5,-285 726.5,-285"/>
<image xlink:href="../../images/foreignKeys.png" width="11px" height="12px" preserveAspectRatio="xMinYMin meet" x="731.5" y="-302"/>
<text text-anchor="start" x="746.5" y="-293.2" font-family="Helvetica,sans-Serif" font-size="11.00">browsing</text>
<polygon fill="none" stroke="black" points="726.5,-263 726.5,-285 901.5,-285 901.5,-263 726.5,-263"/>
<image xlink:href="../../images/foreignKeys.png" width="11px" height="12px" preserveAspectRatio="xMinYMin meet" x="731.5" y="-280"/>
<text text-anchor="start" x="746.5" y="-271.2" font-family="Helvetica,sans-Serif" font-size="11.00">tree_size_class</text>
<polygon fill="none" stroke="black" points="726.5,-245 726.5,-263 901.5,-263 901.5,-245 726.5,-245"/>
<text text-anchor="start" x="729.5" y="-251.2" font-family="Helvetica,sans-Serif" font-size="11.00">...</text>
<polygon fill="#ffffff" stroke="transparent" points="726.5,-227 726.5,-245 901.5,-245 901.5,-227 726.5,-227"/>
<polygon fill="none" stroke="black" points="726.5,-227 726.5,-245 901.5,-245 901.5,-227 726.5,-227"/>
<polygon fill="#ffffff" stroke="transparent" points="727.5,-228 727.5,-244 783.5,-244 783.5,-228 727.5,-228"/>
<text text-anchor="start" x="729.5" y="-233.2" font-family="Helvetica,sans-Serif" font-size="11.00">&lt; 5</text>
<polygon fill="#ffffff" stroke="transparent" points="783.5,-228 783.5,-244 856.5,-244 856.5,-228 783.5,-228"/>
<text text-anchor="start" x="801.5" y="-233.2" font-family="Helvetica,sans-Serif" font-size="11.00">0 rows</text>
<polygon fill="#ffffff" stroke="transparent" points="856.5,-228 856.5,-244 900.5,-244 900.5,-228 856.5,-228"/>
<text text-anchor="start" x="890.5" y="-233.2" font-family="Helvetica,sans-Serif" font-size="11.00"> &#160;</text>
<polygon fill="black" stroke="black" points="783.5,-228 783.5,-244 783.5,-244 783.5,-228 783.5,-228"/>
<polygon fill="black" stroke="black" points="856.5,-228 856.5,-244 856.5,-244 856.5,-228 856.5,-228"/>
</a>
</g>
</g>
<!-- regeneration&#45;&gt;plot_location -->
<g id="edge4" class="edge">
<title>regeneration:w&#45;&gt;plot_location:e</title>
<path fill="none" stroke="black" d="M711.39,-343.03C702.98,-347.21 698.15,-354.72 685,-359 600.21,-386.59 577.17,-397 488,-397"/>
<polygon fill="black" stroke="black" points="717.68,-341.68 726.25,-343.52 721.59,-340.84 725.5,-340 725.5,-340 725.5,-340 721.59,-340.84 724.75,-336.48 717.68,-341.68 717.68,-341.68"/>
<ellipse fill="none" stroke="black" cx="714.55" cy="-342.35" rx="3.2" ry="3.2"/>
</g>
<!-- regeneration&#45;&gt;plot -->
<g id="edge3" class="edge">
<title>regeneration:w&#45;&gt;plot:e</title>
<path fill="none" stroke="black" d="M711.64,-366.14C695.56,-379.49 712.43,-421.53 685,-438 479.98,-561.06 382.73,-478.06 147,-438 128.43,-434.84 125.84,-424 107,-424"/>
<polygon fill="black" stroke="black" points="717.83,-364.29 726.53,-365.45 721.67,-363.14 725.5,-362 725.5,-362 725.5,-362 721.67,-363.14 724.47,-358.55 717.83,-364.29 717.83,-364.29"/>
<ellipse fill="none" stroke="black" cx="714.77" cy="-365.2" rx="3.2" ry="3.2"/>
</g>
<!-- lookup_browsing -->
<g id="node4" class="node">
<title>lookup_browsing</title>
<g id="a_node4"><a xlink:href="../../tables/lookup_browsing.html" xlink:title="lookup_browsing" target="_top">
<polygon fill="#ffffff" stroke="transparent" points="331,-212 331,-270 501,-270 501,-212 331,-212"/>
<polygon fill="#f5f5f5" stroke="transparent" points="331,-248 331,-270 501,-270 501,-248 331,-248"/>
<polygon fill="none" stroke="black" points="331,-248 331,-270 501,-270 501,-248 331,-248"/>
<text text-anchor="start" x="336" y="-257.2" font-family="Helvetica,sans-Serif" font-weight="bold" font-size="11.00">lookup_browsing</text>
<text text-anchor="start" x="459" y="-256.2" font-family="Helvetica,sans-Serif" font-size="11.00">[table]</text>
<polygon fill="none" stroke="black" points="331,-230 331,-248 501,-248 501,-230 331,-230"/>
<text text-anchor="start" x="334" y="-236.2" font-family="Helvetica,sans-Serif" font-size="11.00">...</text>
<polygon fill="#ffffff" stroke="transparent" points="331,-212 331,-230 501,-230 501,-212 331,-212"/>
<polygon fill="none" stroke="black" points="331,-212 331,-230 501,-230 501,-212 331,-212"/>
<polygon fill="#ffffff" stroke="transparent" points="332,-213 332,-229 375,-229 375,-213 332,-213"/>
<text text-anchor="start" x="334" y="-218.2" font-family="Helvetica,sans-Serif" font-size="11.00"> &#160;</text>
<polygon fill="#ffffff" stroke="transparent" points="375,-213 375,-229 446,-229 446,-213 375,-213"/>
<text text-anchor="start" x="392" y="-218.2" font-family="Helvetica,sans-Serif" font-size="11.00">0 rows</text>
<polygon fill="#ffffff" stroke="transparent" points="446,-213 446,-229 500,-229 500,-213 446,-213"/>
<text text-anchor="start" x="478" y="-218.2" font-family="Helvetica,sans-Serif" font-size="11.00">1 &gt;</text>
<polygon fill="black" stroke="black" points="375,-213 375,-229 375,-229 375,-213 375,-213"/>
<polygon fill="black" stroke="black" points="446,-213 446,-229 446,-229 446,-213 446,-213"/>
</a>
</g>
</g>
<!-- regeneration&#45;&gt;lookup_browsing -->
<g id="edge2" class="edge">
<title>regeneration:w&#45;&gt;lookup_browsing:e</title>
<path fill="none" stroke="black" d="M711.26,-293.43C702.94,-290.01 697.72,-283.91 685,-280 605.33,-255.5 585.35,-239 502,-239"/>
<polygon fill="black" stroke="black" points="717.63,-294.58 724.86,-299.54 721.56,-295.29 725.5,-296 725.5,-296 725.5,-296 721.56,-295.29 726.14,-292.46 717.63,-294.58 717.63,-294.58"/>
<ellipse fill="none" stroke="black" cx="714.48" cy="-294.01" rx="3.2" ry="3.2"/>
</g>
<!-- lookup_tree_size_class -->
<g id="node5" class="node">
<title>lookup_tree_size_class</title>
<g id="a_node5"><a xlink:href="../../tables/lookup_tree_size_class.html" xlink:title="lookup_tree_size_class" target="_top">
<polygon fill="#ffffff" stroke="transparent" points="155,-37 155,-191 677,-191 677,-37 155,-37"/>
<polygon fill="#f5f5f5" stroke="transparent" points="157,-167 157,-189 675,-189 675,-167 157,-167"/>
<polygon fill="none" stroke="black" points="157,-167 157,-189 675,-189 675,-167 157,-167"/>
<text text-anchor="start" x="162" y="-176.2" font-family="Helvetica,sans-Serif" font-weight="bold" font-size="11.00">lookup_tree_size_class</text>
<text text-anchor="start" x="633" y="-175.2" font-family="Helvetica,sans-Serif" font-size="11.00">[table]</text>
<polygon fill="none" stroke="black" points="157,-145 157,-167 342,-167 342,-145 157,-145"/>
<text text-anchor="start" x="177" y="-153.2" font-family="Helvetica,sans-Serif" font-size="11.00">name_de</text>
<polygon fill="none" stroke="black" points="342,-145 342,-167 675,-167 675,-145 342,-145"/>
<text text-anchor="start" x="345" y="-153.2" font-family="Helvetica,sans-Serif" font-size="11.00">varchar[150]</text>
<polygon fill="none" stroke="black" points="157,-123 157,-145 342,-145 342,-123 157,-123"/>
<text text-anchor="start" x="177" y="-131.2" font-family="Helvetica,sans-Serif" font-size="11.00">name_en</text>
<polygon fill="none" stroke="black" points="342,-123 342,-145 675,-145 675,-123 342,-123"/>
<text text-anchor="start" x="345" y="-131.2" font-family="Helvetica,sans-Serif" font-size="11.00">varchar[150]</text>
<polygon fill="none" stroke="black" points="157,-101 157,-123 342,-123 342,-101 157,-101"/>
<text text-anchor="start" x="177" y="-109.2" font-family="Helvetica,sans-Serif" font-size="11.00">interval</text>
<polygon fill="none" stroke="black" points="342,-101 342,-123 675,-123 675,-101 342,-101"/>
<text text-anchor="start" x="345" y="-109.2" font-family="Helvetica,sans-Serif" font-size="11.00">&quot;private_ci2027_001&quot;.&quot;_enum_interval_name&quot;[2147483647]</text>
<polygon fill="none" stroke="black" points="157,-79 157,-101 342,-101 342,-79 157,-79"/>
<text text-anchor="start" x="177" y="-87.2" font-family="Helvetica,sans-Serif" font-size="11.00">sort</text>
<polygon fill="none" stroke="black" points="342,-79 342,-101 675,-101 675,-79 342,-79"/>
<text text-anchor="start" x="345" y="-87.2" font-family="Helvetica,sans-Serif" font-size="11.00">int4[10]</text>
<polygon fill="#ffffff" stroke="transparent" points="157,-57 157,-79 342,-79 342,-57 157,-57"/>
<polygon fill="none" stroke="black" points="157,-57 157,-79 342,-79 342,-57 157,-57"/>
<text text-anchor="start" x="177" y="-65.2" font-family="Helvetica,sans-Serif" font-size="11.00">abbreviation</text>
<polygon fill="none" stroke="black" points="342,-57 342,-79 675,-79 675,-57 342,-57"/>
<text text-anchor="start" x="345" y="-65.2" font-family="Helvetica,sans-Serif" font-size="11.00">&quot;private_ci2027_001&quot;.&quot;enum_tree_size_class&quot;[2147483647]</text>
<polygon fill="#ffffff" stroke="transparent" points="157,-39 157,-57 675,-57 675,-39 157,-39"/>
<polygon fill="none" stroke="black" points="157,-39 157,-57 675,-57 675,-39 157,-39"/>
<polygon fill="#ffffff" stroke="transparent" points="158,-40 158,-56 325,-56 325,-40 158,-40"/>
<text text-anchor="start" x="160" y="-45.2" font-family="Helvetica,sans-Serif" font-size="11.00">&lt; 0</text>
<polygon fill="#ffffff" stroke="transparent" points="325,-40 325,-56 508,-56 508,-40 325,-40"/>
<text text-anchor="start" x="398" y="-45.2" font-family="Helvetica,sans-Serif" font-size="11.00">0 rows</text>
<polygon fill="#ffffff" stroke="transparent" points="508,-40 508,-56 674,-56 674,-40 508,-40"/>
<text text-anchor="start" x="652" y="-45.2" font-family="Helvetica,sans-Serif" font-size="11.00">1 &gt;</text>
<polygon fill="black" stroke="black" points="325,-40 325,-56 325,-56 325,-40 325,-40"/>
<polygon fill="black" stroke="black" points="508,-40 508,-56 508,-56 508,-40 508,-40"/>
<polygon fill="none" stroke="black" stroke-width="2" points="156,-38 156,-190 676,-190 676,-38 156,-38"/>
</a>
</g>
</g>
<!-- regeneration&#45;&gt;lookup_tree_size_class -->
<g id="edge5" class="edge">
<title>regeneration:w&#45;&gt;lookup_tree_size_class:e</title>
<path fill="none" stroke="black" d="M710.86,-271.83C647.29,-249.81 764.46,-68 676,-68"/>
<polygon fill="black" stroke="black" points="717.59,-272.83 724.97,-277.56 721.54,-273.41 725.5,-274 725.5,-274 725.5,-274 721.54,-273.41 726.03,-270.44 717.59,-272.83 717.59,-272.83"/>
<ellipse fill="none" stroke="black" cx="714.42" cy="-272.36" rx="3.2" ry="3.2"/>
</g>
<!-- lookup_tree_species -->
<g id="node6" class="node">
<title>lookup_tree_species</title>
<g id="a_node6"><a xlink:href="../../tables/lookup_tree_species.html" xlink:title="lookup_tree_species" target="_top">
<polygon fill="#ffffff" stroke="transparent" points="319,-291 319,-349 513,-349 513,-291 319,-291"/>
<polygon fill="#f5f5f5" stroke="transparent" points="319,-327 319,-349 513,-349 513,-327 319,-327"/>
<polygon fill="none" stroke="black" points="319,-327 319,-349 513,-349 513,-327 319,-327"/>
<text text-anchor="start" x="324" y="-336.2" font-family="Helvetica,sans-Serif" font-weight="bold" font-size="11.00">lookup_tree_species</text>
<text text-anchor="start" x="471" y="-335.2" font-family="Helvetica,sans-Serif" font-size="11.00">[table]</text>
<polygon fill="none" stroke="black" points="319,-309 319,-327 513,-327 513,-309 319,-309"/>
<text text-anchor="start" x="322" y="-315.2" font-family="Helvetica,sans-Serif" font-size="11.00">...</text>
<polygon fill="#ffffff" stroke="transparent" points="319,-291 319,-309 513,-309 513,-291 319,-291"/>
<polygon fill="none" stroke="black" points="319,-291 319,-309 513,-309 513,-291 319,-291"/>
<polygon fill="#ffffff" stroke="transparent" points="320,-292 320,-308 366,-308 366,-292 320,-292"/>
<text text-anchor="start" x="322" y="-297.2" font-family="Helvetica,sans-Serif" font-size="11.00"> &#160;</text>
<polygon fill="#ffffff" stroke="transparent" points="366,-292 366,-308 455,-308 455,-292 366,-292"/>
<text text-anchor="start" x="385" y="-297.2" font-family="Helvetica,sans-Serif" font-size="11.00">125 rows</text>
<polygon fill="#ffffff" stroke="transparent" points="455,-292 455,-308 512,-308 512,-292 455,-292"/>
<text text-anchor="start" x="490" y="-297.2" font-family="Helvetica,sans-Serif" font-size="11.00">3 &gt;</text>
<polygon fill="black" stroke="black" points="366,-292 366,-308 366,-308 366,-292 366,-292"/>
<polygon fill="black" stroke="black" points="455,-292 455,-308 455,-308 455,-292 455,-292"/>
</a>
</g>
</g>
<!-- regeneration&#45;&gt;lookup_tree_species -->
<g id="edge6" class="edge">
<title>regeneration:w&#45;&gt;lookup_tree_species:e</title>
<path fill="none" stroke="black" d="M710.94,-318C628.77,-318 602.95,-318 514,-318"/>
<polygon fill="black" stroke="black" points="717.5,-318 725.5,-321.6 721.5,-318 725.5,-318 725.5,-318 725.5,-318 721.5,-318 725.5,-314.4 717.5,-318 717.5,-318"/>
<ellipse fill="none" stroke="black" cx="714.3" cy="-318" rx="3.2" ry="3.2"/>
</g>
</g>
</svg>
