<?xml version="1.0" encoding="UTF-8" standalone="no"?>
<!DOCTYPE svg PUBLIC "-//W3C//DTD SVG 1.1//EN"
 "http://www.w3.org/Graphics/SVG/1.1/DTD/svg11.dtd">
<!-- Generated by graphviz version 2.43.0 (0)
 -->
<!-- Title: oneDegreeRelationshipsDiagram Pages: 1 -->
<svg width="664pt" height="203pt"
 viewBox="0.00 0.00 664.00 203.00" xmlns="http://www.w3.org/2000/svg" xmlns:xlink="http://www.w3.org/1999/xlink">
<g id="graph0" class="graph" transform="scale(1 1) rotate(0) translate(4 199)">
<title>oneDegreeRelationshipsDiagram</title>
<polygon fill="#ffffff" stroke="transparent" points="-4,4 -4,-199 660,-199 660,4 -4,4"/>
<text text-anchor="middle" x="79.5" y="-7.2" font-family="Helvetica,sans-Serif" font-size="11.00">Generated by SchemaSpy</text>
<!-- lookup_trees_less_4meter_layer -->
<g id="node1" class="node">
<title>lookup_trees_less_4meter_layer</title>
<g id="a_node1"><a xlink:href="../../tables/lookup_trees_less_4meter_layer.html" xlink:title="lookup_trees_less_4meter_layer" target="_top">
<polygon fill="#ffffff" stroke="transparent" points="8,-37 8,-191 648,-191 648,-37 8,-37"/>
<polygon fill="#f5f5f5" stroke="transparent" points="10,-167 10,-189 646,-189 646,-167 10,-167"/>
<polygon fill="none" stroke="black" points="10,-167 10,-189 646,-189 646,-167 10,-167"/>
<text text-anchor="start" x="15" y="-176.2" font-family="Helvetica,sans-Serif" font-weight="bold" font-size="11.00">lookup_trees_less_4meter_layer</text>
<text text-anchor="start" x="604" y="-175.2" font-family="Helvetica,sans-Serif" font-size="11.00">[table]</text>
<polygon fill="none" stroke="black" points="10,-145 10,-167 263,-167 263,-145 10,-145"/>
<text text-anchor="start" x="30" y="-153.2" font-family="Helvetica,sans-Serif" font-size="11.00">name_de</text>
<polygon fill="none" stroke="black" points="263,-145 263,-167 646,-167 646,-145 263,-145"/>
<text text-anchor="start" x="266" y="-153.2" font-family="Helvetica,sans-Serif" font-size="11.00">varchar[150]</text>
<polygon fill="none" stroke="black" points="10,-123 10,-145 263,-145 263,-123 10,-123"/>
<text text-anchor="start" x="30" y="-131.2" font-family="Helvetica,sans-Serif" font-size="11.00">name_en</text>
<polygon fill="none" stroke="black" points="263,-123 263,-145 646,-145 646,-123 263,-123"/>
<text text-anchor="start" x="266" y="-131.2" font-family="Helvetica,sans-Serif" font-size="11.00">varchar[150]</text>
<polygon fill="none" stroke="black" points="10,-101 10,-123 263,-123 263,-101 10,-101"/>
<text text-anchor="start" x="30" y="-109.2" font-family="Helvetica,sans-Serif" font-size="11.00">interval</text>
<polygon fill="none" stroke="black" points="263,-101 263,-123 646,-123 646,-101 263,-101"/>
<text text-anchor="start" x="266" y="-109.2" font-family="Helvetica,sans-Serif" font-size="11.00">&quot;private_ci2027_001&quot;.&quot;_enum_interval_name&quot;[2147483647]</text>
<polygon fill="none" stroke="black" points="10,-79 10,-101 263,-101 263,-79 10,-79"/>
<text text-anchor="start" x="30" y="-87.2" font-family="Helvetica,sans-Serif" font-size="11.00">sort</text>
<polygon fill="none" stroke="black" points="263,-79 263,-101 646,-101 646,-79 263,-79"/>
<text text-anchor="start" x="266" y="-87.2" font-family="Helvetica,sans-Serif" font-size="11.00">int4[10]</text>
<polygon fill="#ffffff" stroke="transparent" points="10,-57 10,-79 263,-79 263,-57 10,-57"/>
<polygon fill="none" stroke="black" points="10,-57 10,-79 263,-79 263,-57 10,-57"/>
<text text-anchor="start" x="30" y="-65.2" font-family="Helvetica,sans-Serif" font-size="11.00">abbreviation</text>
<polygon fill="none" stroke="black" points="263,-57 263,-79 646,-79 646,-57 263,-57"/>
<text text-anchor="start" x="266" y="-65.2" font-family="Helvetica,sans-Serif" font-size="11.00">&quot;private_ci2027_001&quot;.&quot;enum_trees_less_4meter_layer&quot;[2147483647]</text>
<polygon fill="#ffffff" stroke="transparent" points="10,-39 10,-57 646,-57 646,-39 10,-39"/>
<polygon fill="none" stroke="black" points="10,-39 10,-57 646,-57 646,-39 10,-39"/>
<polygon fill="#ffffff" stroke="transparent" points="11,-40 11,-56 217,-56 217,-40 11,-40"/>
<text text-anchor="start" x="13" y="-45.2" font-family="Helvetica,sans-Serif" font-size="11.00">&lt; 0</text>
<polygon fill="#ffffff" stroke="transparent" points="217,-40 217,-56 440,-56 440,-40 217,-40"/>
<text text-anchor="start" x="310" y="-45.2" font-family="Helvetica,sans-Serif" font-size="11.00">0 rows</text>
<polygon fill="#ffffff" stroke="transparent" points="440,-40 440,-56 645,-56 645,-40 440,-40"/>
<text text-anchor="start" x="623" y="-45.2" font-family="Helvetica,sans-Serif" font-size="11.00">0 &gt;</text>
<polygon fill="black" stroke="black" points="217,-40 217,-56 217,-56 217,-40 217,-40"/>
<polygon fill="black" stroke="black" points="440,-40 440,-56 440,-56 440,-40 440,-40"/>
<polygon fill="none" stroke="black" stroke-width="2" points="9,-38 9,-190 647,-190 647,-38 9,-38"/>
</a>
</g>
</g>
</g>
</svg>
