<?xml version="1.0" encoding="UTF-8" standalone="no"?>
<!DOCTYPE svg PUBLIC "-//W3C//DTD SVG 1.1//EN"
 "http://www.w3.org/Graphics/SVG/1.1/DTD/svg11.dtd">
<!-- Generated by graphviz version 2.43.0 (0)
 -->
<!-- Title: twoDegreesRelationshipsDiagram Pages: 1 -->
<svg width="826pt" height="276pt"
 viewBox="0.00 0.00 826.00 276.00" xmlns="http://www.w3.org/2000/svg" xmlns:xlink="http://www.w3.org/1999/xlink">
<g id="graph0" class="graph" transform="scale(1 1) rotate(0) translate(4 272)">
<title>twoDegreesRelationshipsDiagram</title>
<polygon fill="#ffffff" stroke="transparent" points="-4,4 -4,-272 822,-272 822,4 -4,4"/>
<text text-anchor="middle" x="79.5" y="-7.2" font-family="Helvetica,sans-Serif" font-size="11.00">Generated by SchemaSpy</text>
<!-- cluster -->
<g id="node1" class="node">
<title>cluster</title>
<g id="a_node1"><a xlink:href="../../tables/cluster.html" xlink:title="cluster" target="_top">
<polygon fill="#ffffff" stroke="transparent" points="453,-37 453,-205 663,-205 663,-37 453,-37"/>
<polygon fill="#f5f5f5" stroke="transparent" points="453,-183 453,-205 663,-205 663,-183 453,-183"/>
<polygon fill="none" stroke="black" points="453,-183 453,-205 663,-205 663,-183 453,-183"/>
<text text-anchor="start" x="458" y="-192.2" font-family="Helvetica,sans-Serif" font-weight="bold" font-size="11.00">cluster</text>
<text text-anchor="start" x="621" y="-191.2" font-family="Helvetica,sans-Serif" font-size="11.00">[table]</text>
<polygon fill="none" stroke="black" points="453,-161 453,-183 663,-183 663,-161 453,-161"/>
<image xlink:href="../../images/primaryKeys.png" width="11px" height="12px" preserveAspectRatio="xMinYMin meet" x="458" y="-178"/>
<text text-anchor="start" x="473" y="-169.2" font-family="Helvetica,sans-Serif" font-size="11.00">id</text>
<polygon fill="#ffffff" stroke="transparent" points="453,-139 453,-161 663,-161 663,-139 453,-139"/>
<polygon fill="none" stroke="black" points="453,-139 453,-161 663,-161 663,-139 453,-139"/>
<text text-anchor="start" x="473" y="-147.2" font-family="Helvetica,sans-Serif" font-size="11.00">cluster_name</text>
<polygon fill="none" stroke="black" points="453,-117 453,-139 663,-139 663,-117 453,-117"/>
<image xlink:href="../../images/foreignKeys.png" width="11px" height="12px" preserveAspectRatio="xMinYMin meet" x="458" y="-134"/>
<text text-anchor="start" x="473" y="-125.2" font-family="Helvetica,sans-Serif" font-size="11.00">supervisor_id</text>
<polygon fill="none" stroke="black" points="453,-95 453,-117 663,-117 663,-95 453,-95"/>
<image xlink:href="../../images/foreignKeys.png" width="11px" height="12px" preserveAspectRatio="xMinYMin meet" x="458" y="-112"/>
<text text-anchor="start" x="473" y="-103.2" font-family="Helvetica,sans-Serif" font-size="11.00">state_administration</text>
<polygon fill="none" stroke="black" points="453,-73 453,-95 663,-95 663,-73 453,-73"/>
<image xlink:href="../../images/foreignKeys.png" width="11px" height="12px" preserveAspectRatio="xMinYMin meet" x="458" y="-90"/>
<text text-anchor="start" x="473" y="-81.2" font-family="Helvetica,sans-Serif" font-size="11.00">state_location</text>
<polygon fill="none" stroke="black" points="453,-55 453,-73 663,-73 663,-55 453,-55"/>
<text text-anchor="start" x="456" y="-61.2" font-family="Helvetica,sans-Serif" font-size="11.00">...</text>
<polygon fill="#ffffff" stroke="transparent" points="453,-37 453,-55 663,-55 663,-37 453,-37"/>
<polygon fill="none" stroke="black" points="453,-37 453,-55 663,-55 663,-37 453,-37"/>
<polygon fill="#ffffff" stroke="transparent" points="454,-38 454,-54 518,-54 518,-38 454,-38"/>
<text text-anchor="start" x="456" y="-43.2" font-family="Helvetica,sans-Serif" font-size="11.00">&lt; 3</text>
<polygon fill="#ffffff" stroke="transparent" points="518,-38 518,-54 599,-54 599,-38 518,-38"/>
<text text-anchor="start" x="540" y="-43.2" font-family="Helvetica,sans-Serif" font-size="11.00">0 rows</text>
<polygon fill="#ffffff" stroke="transparent" points="599,-38 599,-54 662,-54 662,-38 599,-38"/>
<text text-anchor="start" x="640" y="-43.2" font-family="Helvetica,sans-Serif" font-size="11.00">1 &gt;</text>
<polygon fill="black" stroke="black" points="518,-38 518,-54 518,-54 518,-38 518,-38"/>
<polygon fill="black" stroke="black" points="599,-38 599,-54 599,-54 599,-38 599,-38"/>
</a>
</g>
</g>
<!-- lookup_state -->
<g id="node2" class="node">
<title>lookup_state</title>
<g id="a_node2"><a xlink:href="../../tables/lookup_state.html" xlink:title="lookup_state" target="_top">
<polygon fill="#ffffff" stroke="transparent" points="8,-53 8,-185 404,-185 404,-53 8,-53"/>
<polygon fill="#f5f5f5" stroke="transparent" points="10,-161 10,-183 402,-183 402,-161 10,-161"/>
<polygon fill="none" stroke="black" points="10,-161 10,-183 402,-183 402,-161 10,-161"/>
<text text-anchor="start" x="15" y="-170.2" font-family="Helvetica,sans-Serif" font-weight="bold" font-size="11.00">lookup_state</text>
<text text-anchor="start" x="360" y="-169.2" font-family="Helvetica,sans-Serif" font-size="11.00">[table]</text>
<polygon fill="none" stroke="black" points="10,-139 10,-161 124,-161 124,-139 10,-139"/>
<text text-anchor="start" x="30" y="-147.2" font-family="Helvetica,sans-Serif" font-size="11.00">name_de</text>
<polygon fill="none" stroke="black" points="124,-139 124,-161 402,-161 402,-139 124,-139"/>
<text text-anchor="start" x="127" y="-147.2" font-family="Helvetica,sans-Serif" font-size="11.00">varchar[150]</text>
<polygon fill="none" stroke="black" points="10,-117 10,-139 124,-139 124,-117 10,-117"/>
<text text-anchor="start" x="30" y="-125.2" font-family="Helvetica,sans-Serif" font-size="11.00">name_en</text>
<polygon fill="none" stroke="black" points="124,-117 124,-139 402,-139 402,-117 124,-117"/>
<text text-anchor="start" x="127" y="-125.2" font-family="Helvetica,sans-Serif" font-size="11.00">varchar[150]</text>
<polygon fill="none" stroke="black" points="10,-95 10,-117 124,-117 124,-95 10,-95"/>
<text text-anchor="start" x="30" y="-103.2" font-family="Helvetica,sans-Serif" font-size="11.00">sort</text>
<polygon fill="none" stroke="black" points="124,-95 124,-117 402,-117 402,-95 124,-95"/>
<text text-anchor="start" x="127" y="-103.2" font-family="Helvetica,sans-Serif" font-size="11.00">int4[10]</text>
<polygon fill="#ffffff" stroke="transparent" points="10,-73 10,-95 124,-95 124,-73 10,-73"/>
<polygon fill="none" stroke="black" points="10,-73 10,-95 124,-95 124,-73 10,-73"/>
<text text-anchor="start" x="30" y="-81.2" font-family="Helvetica,sans-Serif" font-size="11.00">abbreviation</text>
<polygon fill="none" stroke="black" points="124,-73 124,-95 402,-95 402,-73 124,-73"/>
<text text-anchor="start" x="127" y="-81.2" font-family="Helvetica,sans-Serif" font-size="11.00">&quot;private_ci2027_001&quot;.&quot;enum_state&quot;[2147483647]</text>
<polygon fill="#ffffff" stroke="transparent" points="10,-55 10,-73 402,-73 402,-55 10,-55"/>
<polygon fill="none" stroke="black" points="10,-55 10,-73 402,-73 402,-55 10,-55"/>
<polygon fill="#ffffff" stroke="transparent" points="11,-56 11,-72 136,-72 136,-56 11,-56"/>
<text text-anchor="start" x="13" y="-61.2" font-family="Helvetica,sans-Serif" font-size="11.00">&lt; 0</text>
<polygon fill="#ffffff" stroke="transparent" points="136,-56 136,-72 277,-72 277,-56 136,-56"/>
<text text-anchor="start" x="188" y="-61.2" font-family="Helvetica,sans-Serif" font-size="11.00">0 rows</text>
<polygon fill="#ffffff" stroke="transparent" points="277,-56 277,-72 401,-72 401,-56 277,-56"/>
<text text-anchor="start" x="379" y="-61.2" font-family="Helvetica,sans-Serif" font-size="11.00">2 &gt;</text>
<polygon fill="black" stroke="black" points="136,-56 136,-72 136,-72 136,-56 136,-56"/>
<polygon fill="black" stroke="black" points="277,-56 277,-72 277,-72 277,-56 277,-56"/>
<polygon fill="none" stroke="black" stroke-width="2" points="9,-54 9,-184 403,-184 403,-54 9,-54"/>
</a>
</g>
</g>
<!-- cluster&#45;&gt;lookup_state -->
<g id="edge1" class="edge">
<title>cluster:w&#45;&gt;lookup_state:e</title>
<path fill="none" stroke="black" d="M437.63,-102.56C426.09,-96.37 420.9,-84 403,-84"/>
<polygon fill="black" stroke="black" points="444.22,-104.14 451.16,-109.5 448.11,-105.07 452,-106 452,-106 452,-106 448.11,-105.07 452.84,-102.5 444.22,-104.14 444.22,-104.14"/>
<ellipse fill="none" stroke="black" cx="441.11" cy="-103.39" rx="3.2" ry="3.2"/>
</g>
<!-- cluster&#45;&gt;lookup_state -->
<g id="edge2" class="edge">
<title>cluster:w&#45;&gt;lookup_state:e</title>
<path fill="none" stroke="black" d="M437.49,-84C426.18,-84 418.99,-84 403,-84"/>
<polygon fill="black" stroke="black" points="444,-84 452,-87.6 448,-84 452,-84 452,-84 452,-84 448,-84 452,-80.4 444,-84 444,-84"/>
<ellipse fill="none" stroke="black" cx="440.8" cy="-84" rx="3.2" ry="3.2"/>
</g>
<!-- basic_auth.users -->
<g id="node3" class="node">
<title>basic_auth.users</title>
<g id="a_node3"><a xlink:title="basic_auth.users">
<polygon fill="#ffffff" stroke="transparent" points="121.5,-206 121.5,-264 290.5,-264 290.5,-206 121.5,-206"/>
<polygon fill="#f5f5f5" stroke="transparent" points="122,-242 122,-264 291,-264 291,-242 122,-242"/>
<polygon fill="none" stroke="black" points="122,-242 122,-264 291,-264 291,-242 122,-242"/>
<text text-anchor="start" x="127" y="-251.2" font-family="Helvetica,sans-Serif" font-weight="bold" font-size="11.00">basic_auth.users</text>
<text text-anchor="start" x="249" y="-250.2" font-family="Helvetica,sans-Serif" font-size="11.00">[table]</text>
<polygon fill="none" stroke="black" points="122,-224 122,-242 291,-242 291,-224 122,-224"/>
<text text-anchor="start" x="125" y="-230.2" font-family="Helvetica,sans-Serif" font-size="11.00">...</text>
<polygon fill="#ffffff" stroke="transparent" points="122,-206 122,-224 291,-224 291,-206 122,-206"/>
<polygon fill="none" stroke="black" points="122,-206 122,-224 291,-224 291,-206 122,-206"/>
<polygon fill="#ffffff" stroke="transparent" points="123,-207 123,-223 165,-223 165,-207 123,-207"/>
<text text-anchor="start" x="125" y="-212.2" font-family="Helvetica,sans-Serif" font-size="11.00"> &#160;</text>
<polygon fill="#ffffff" stroke="transparent" points="165,-207 165,-223 236,-223 236,-207 165,-207"/>
<text text-anchor="start" x="182" y="-212.2" font-family="Helvetica,sans-Serif" font-size="11.00">0 rows</text>
<polygon fill="#ffffff" stroke="transparent" points="236,-207 236,-223 290,-223 290,-207 236,-207"/>
<text text-anchor="start" x="268" y="-212.2" font-family="Helvetica,sans-Serif" font-size="11.00">1 &gt;</text>
<polygon fill="black" stroke="black" points="165,-207 165,-223 165,-223 165,-207 165,-207"/>
<polygon fill="black" stroke="black" points="236,-207 236,-223 236,-223 236,-207 236,-207"/>
</a>
</g>
</g>
<!-- cluster&#45;&gt;basic_auth.users -->
<g id="edge3" class="edge">
<title>cluster:w&#45;&gt;basic_auth.users:e</title>
<path fill="none" stroke="black" d="M438.06,-132.07C423.43,-143.83 434.56,-178.16 412,-196 368.22,-230.62 347.81,-233 292,-233"/>
<polygon fill="black" stroke="black" points="444.32,-130.24 453.01,-131.46 448.16,-129.12 452,-128 452,-128 452,-128 448.16,-129.12 450.99,-124.54 444.32,-130.24 444.32,-130.24"/>
<ellipse fill="none" stroke="black" cx="441.25" cy="-131.14" rx="3.2" ry="3.2"/>
</g>
<!-- plot -->
<g id="node4" class="node">
<title>plot</title>
<g id="a_node4"><a xlink:href="../../tables/plot.html" xlink:title="plot" target="_top">
<polygon fill="#ffffff" stroke="transparent" points="712,-145 712,-203 810,-203 810,-145 712,-145"/>
<polygon fill="#f5f5f5" stroke="transparent" points="712,-181 712,-203 810,-203 810,-181 712,-181"/>
<polygon fill="none" stroke="black" points="712,-181 712,-203 810,-203 810,-181 712,-181"/>
<text text-anchor="start" x="716.5" y="-190.2" font-family="Helvetica,sans-Serif" font-weight="bold" font-size="11.00">plot</text>
<text text-anchor="start" x="768" y="-189.2" font-family="Helvetica,sans-Serif" font-size="11.00">[table]</text>
<polygon fill="none" stroke="black" points="712,-163 712,-181 810,-181 810,-163 712,-163"/>
<text text-anchor="start" x="715" y="-169.2" font-family="Helvetica,sans-Serif" font-size="11.00">...</text>
<polygon fill="#ffffff" stroke="transparent" points="712,-145 712,-163 810,-163 810,-145 712,-145"/>
<polygon fill="none" stroke="black" points="712,-145 712,-163 810,-163 810,-145 712,-145"/>
<polygon fill="#ffffff" stroke="transparent" points="713,-146 713,-162 744,-162 744,-146 713,-146"/>
<text text-anchor="start" x="715" y="-151.2" font-family="Helvetica,sans-Serif" font-size="11.00">&lt; 24</text>
<polygon fill="#ffffff" stroke="transparent" points="744,-146 744,-162 785,-162 785,-146 744,-146"/>
<text text-anchor="start" x="746" y="-151.2" font-family="Helvetica,sans-Serif" font-size="11.00">0 rows</text>
<polygon fill="#ffffff" stroke="transparent" points="785,-146 785,-162 809,-162 809,-146 785,-146"/>
<text text-anchor="start" x="787" y="-151.2" font-family="Helvetica,sans-Serif" font-size="11.00">7 &gt;</text>
<polygon fill="black" stroke="black" points="744,-146 744,-162 744,-162 744,-146 744,-146"/>
<polygon fill="black" stroke="black" points="785,-146 785,-162 785,-162 785,-146 785,-146"/>
</a>
</g>
</g>
<!-- plot&#45;&gt;cluster -->
<g id="edge4" class="edge">
<title>plot:w&#45;&gt;cluster:e</title>
<path fill="none" stroke="black" d="M696.4,-172C685.93,-172 679.01,-172 664,-172"/>
<polygon fill="black" stroke="black" points="703,-172 711,-175.6 707,-172 711,-172 711,-172 711,-172 707,-172 711,-168.4 703,-172 703,-172"/>
<ellipse fill="none" stroke="black" cx="699.8" cy="-172" rx="3.2" ry="3.2"/>
</g>
</g>
</svg>
