<?xml version="1.0" encoding="UTF-8" standalone="no"?>
<!DOCTYPE svg PUBLIC "-//W3C//DTD SVG 1.1//EN"
 "http://www.w3.org/Graphics/SVG/1.1/DTD/svg11.dtd">
<!-- Generated by graphviz version 2.43.0 (0)
 -->
<!-- Title: twoDegreesRelationshipsDiagram Pages: 1 -->
<svg width="753pt" height="418pt"
 viewBox="0.00 0.00 753.00 418.00" xmlns="http://www.w3.org/2000/svg" xmlns:xlink="http://www.w3.org/1999/xlink">
<g id="graph0" class="graph" transform="scale(1 1) rotate(0) translate(4 414)">
<title>twoDegreesRelationshipsDiagram</title>
<polygon fill="#ffffff" stroke="transparent" points="-4,4 -4,-414 749,-414 749,4 -4,4"/>
<text text-anchor="middle" x="79.5" y="-7.2" font-family="Helvetica,sans-Serif" font-size="11.00">Generated by SchemaSpy</text>
<!-- deadwood -->
<g id="node1" class="node">
<title>deadwood</title>
<g id="a_node1"><a xlink:href="../../tables/deadwood.html" xlink:title="deadwood" target="_top">
<polygon fill="#ffffff" stroke="transparent" points="575,-176 575,-344 737,-344 737,-176 575,-176"/>
<polygon fill="#f5f5f5" stroke="transparent" points="575,-322 575,-344 737,-344 737,-322 575,-322"/>
<polygon fill="none" stroke="black" points="575,-322 575,-344 737,-344 737,-322 575,-322"/>
<text text-anchor="start" x="580" y="-331.2" font-family="Helvetica,sans-Serif" font-weight="bold" font-size="11.00">deadwood</text>
<text text-anchor="start" x="695" y="-330.2" font-family="Helvetica,sans-Serif" font-size="11.00">[table]</text>
<polygon fill="none" stroke="black" points="575,-300 575,-322 737,-322 737,-300 575,-300"/>
<image xlink:href="../../images/primaryKeys.png" width="11px" height="12px" preserveAspectRatio="xMinYMin meet" x="580" y="-317"/>
<text text-anchor="start" x="595" y="-308.2" font-family="Helvetica,sans-Serif" font-size="11.00">id</text>
<polygon fill="none" stroke="black" points="575,-278 575,-300 737,-300 737,-278 575,-278"/>
<image xlink:href="../../images/foreignKeys.png" width="11px" height="12px" preserveAspectRatio="xMinYMin meet" x="580" y="-295"/>
<text text-anchor="start" x="595" y="-286.2" font-family="Helvetica,sans-Serif" font-size="11.00">plot_id</text>
<polygon fill="none" stroke="black" points="575,-256 575,-278 737,-278 737,-256 575,-256"/>
<image xlink:href="../../images/foreignKeys.png" width="11px" height="12px" preserveAspectRatio="xMinYMin meet" x="580" y="-273"/>
<text text-anchor="start" x="595" y="-264.2" font-family="Helvetica,sans-Serif" font-size="11.00">tree_species_group</text>
<polygon fill="none" stroke="black" points="575,-234 575,-256 737,-256 737,-234 575,-234"/>
<image xlink:href="../../images/foreignKeys.png" width="11px" height="12px" preserveAspectRatio="xMinYMin meet" x="580" y="-251"/>
<text text-anchor="start" x="595" y="-242.2" font-family="Helvetica,sans-Serif" font-size="11.00">dead_wood_type</text>
<polygon fill="none" stroke="black" points="575,-212 575,-234 737,-234 737,-212 575,-212"/>
<image xlink:href="../../images/foreignKeys.png" width="11px" height="12px" preserveAspectRatio="xMinYMin meet" x="580" y="-229"/>
<text text-anchor="start" x="595" y="-220.2" font-family="Helvetica,sans-Serif" font-size="11.00">decomposition</text>
<polygon fill="none" stroke="black" points="575,-194 575,-212 737,-212 737,-194 575,-194"/>
<text text-anchor="start" x="578" y="-200.2" font-family="Helvetica,sans-Serif" font-size="11.00">...</text>
<polygon fill="#ffffff" stroke="transparent" points="575,-176 575,-194 737,-194 737,-176 575,-176"/>
<polygon fill="none" stroke="black" points="575,-176 575,-194 737,-194 737,-176 575,-176"/>
<polygon fill="#ffffff" stroke="transparent" points="576,-177 576,-193 626,-193 626,-177 576,-177"/>
<text text-anchor="start" x="578" y="-182.2" font-family="Helvetica,sans-Serif" font-size="11.00">&lt; 4</text>
<polygon fill="#ffffff" stroke="transparent" points="626,-177 626,-193 699,-193 699,-177 626,-177"/>
<text text-anchor="start" x="640.5" y="-182.2" font-family="Helvetica,sans-Serif" font-size="11.00">81 rows</text>
<polygon fill="#ffffff" stroke="transparent" points="699,-177 699,-193 736,-193 736,-177 699,-177"/>
<text text-anchor="start" x="726" y="-182.2" font-family="Helvetica,sans-Serif" font-size="11.00"> &#160;</text>
<polygon fill="black" stroke="black" points="626,-177 626,-193 626,-193 626,-177 626,-177"/>
<polygon fill="black" stroke="black" points="699,-177 699,-193 699,-193 699,-177 699,-177"/>
</a>
</g>
</g>
<!-- lookup_dead_wood_type -->
<g id="node2" class="node">
<title>lookup_dead_wood_type</title>
<g id="a_node2"><a xlink:href="../../tables/lookup_dead_wood_type.html" xlink:title="lookup_dead_wood_type" target="_top">
<polygon fill="#ffffff" stroke="transparent" points="155,-190 155,-248 379,-248 379,-190 155,-190"/>
<polygon fill="#f5f5f5" stroke="transparent" points="155,-226 155,-248 379,-248 379,-226 155,-226"/>
<polygon fill="none" stroke="black" points="155,-226 155,-248 379,-248 379,-226 155,-226"/>
<text text-anchor="start" x="160" y="-235.2" font-family="Helvetica,sans-Serif" font-weight="bold" font-size="11.00">lookup_dead_wood_type</text>
<text text-anchor="start" x="337" y="-234.2" font-family="Helvetica,sans-Serif" font-size="11.00">[table]</text>
<polygon fill="none" stroke="black" points="155,-208 155,-226 379,-226 379,-208 155,-208"/>
<text text-anchor="start" x="158" y="-214.2" font-family="Helvetica,sans-Serif" font-size="11.00">...</text>
<polygon fill="#ffffff" stroke="transparent" points="155,-190 155,-208 379,-208 379,-190 155,-190"/>
<polygon fill="none" stroke="black" points="155,-190 155,-208 379,-208 379,-190 155,-190"/>
<polygon fill="#ffffff" stroke="transparent" points="156,-191 156,-207 217,-207 217,-191 156,-191"/>
<text text-anchor="start" x="158" y="-196.2" font-family="Helvetica,sans-Serif" font-size="11.00"> &#160;</text>
<polygon fill="#ffffff" stroke="transparent" points="217,-191 217,-207 306,-207 306,-191 217,-191"/>
<text text-anchor="start" x="243" y="-196.2" font-family="Helvetica,sans-Serif" font-size="11.00">0 rows</text>
<polygon fill="#ffffff" stroke="transparent" points="306,-191 306,-207 378,-207 378,-191 306,-191"/>
<text text-anchor="start" x="356" y="-196.2" font-family="Helvetica,sans-Serif" font-size="11.00">1 &gt;</text>
<polygon fill="black" stroke="black" points="217,-191 217,-207 217,-207 217,-191 217,-191"/>
<polygon fill="black" stroke="black" points="306,-191 306,-207 306,-207 306,-191 306,-191"/>
</a>
</g>
</g>
<!-- deadwood&#45;&gt;lookup_dead_wood_type -->
<g id="edge1" class="edge">
<title>deadwood:w&#45;&gt;lookup_dead_wood_type:e</title>
<path fill="none" stroke="black" d="M559.35,-244.72C484.34,-241.81 462.01,-217 380,-217"/>
<polygon fill="black" stroke="black" points="566,-244.85 573.93,-248.6 570,-244.92 574,-245 574,-245 574,-245 570,-244.92 574.07,-241.4 566,-244.85 566,-244.85"/>
<ellipse fill="none" stroke="black" cx="562.8" cy="-244.79" rx="3.2" ry="3.2"/>
</g>
<!-- lookup_decomposition -->
<g id="node3" class="node">
<title>lookup_decomposition</title>
<g id="a_node3"><a xlink:href="../../tables/lookup_decomposition.html" xlink:title="lookup_decomposition" target="_top">
<polygon fill="#ffffff" stroke="transparent" points="8,-37 8,-169 526,-169 526,-37 8,-37"/>
<polygon fill="#f5f5f5" stroke="transparent" points="10,-145 10,-167 524,-167 524,-145 10,-145"/>
<polygon fill="none" stroke="black" points="10,-145 10,-167 524,-167 524,-145 10,-145"/>
<text text-anchor="start" x="15" y="-154.2" font-family="Helvetica,sans-Serif" font-weight="bold" font-size="11.00">lookup_decomposition</text>
<text text-anchor="start" x="482" y="-153.2" font-family="Helvetica,sans-Serif" font-size="11.00">[table]</text>
<polygon fill="none" stroke="black" points="10,-123 10,-145 194,-145 194,-123 10,-123"/>
<text text-anchor="start" x="30" y="-131.2" font-family="Helvetica,sans-Serif" font-size="11.00">name_de</text>
<polygon fill="none" stroke="black" points="194,-123 194,-145 524,-145 524,-123 194,-123"/>
<text text-anchor="start" x="197" y="-131.2" font-family="Helvetica,sans-Serif" font-size="11.00">varchar[150]</text>
<polygon fill="none" stroke="black" points="10,-101 10,-123 194,-123 194,-101 10,-101"/>
<text text-anchor="start" x="30" y="-109.2" font-family="Helvetica,sans-Serif" font-size="11.00">name_en</text>
<polygon fill="none" stroke="black" points="194,-101 194,-123 524,-123 524,-101 194,-101"/>
<text text-anchor="start" x="197" y="-109.2" font-family="Helvetica,sans-Serif" font-size="11.00">varchar[150]</text>
<polygon fill="none" stroke="black" points="10,-79 10,-101 194,-101 194,-79 10,-79"/>
<text text-anchor="start" x="30" y="-87.2" font-family="Helvetica,sans-Serif" font-size="11.00">sort</text>
<polygon fill="none" stroke="black" points="194,-79 194,-101 524,-101 524,-79 194,-79"/>
<text text-anchor="start" x="197" y="-87.2" font-family="Helvetica,sans-Serif" font-size="11.00">int4[10]</text>
<polygon fill="#ffffff" stroke="transparent" points="10,-57 10,-79 194,-79 194,-57 10,-57"/>
<polygon fill="none" stroke="black" points="10,-57 10,-79 194,-79 194,-57 10,-57"/>
<text text-anchor="start" x="30" y="-65.2" font-family="Helvetica,sans-Serif" font-size="11.00">abbreviation</text>
<polygon fill="none" stroke="black" points="194,-57 194,-79 524,-79 524,-57 194,-57"/>
<text text-anchor="start" x="197" y="-65.2" font-family="Helvetica,sans-Serif" font-size="11.00">&quot;private_ci2027_001&quot;.&quot;enum_decomposition&quot;[2147483647]</text>
<polygon fill="#ffffff" stroke="transparent" points="10,-39 10,-57 524,-57 524,-39 10,-39"/>
<polygon fill="none" stroke="black" points="10,-39 10,-57 524,-57 524,-39 10,-39"/>
<polygon fill="#ffffff" stroke="transparent" points="11,-40 11,-56 176,-56 176,-40 11,-40"/>
<text text-anchor="start" x="13" y="-45.2" font-family="Helvetica,sans-Serif" font-size="11.00">&lt; 0</text>
<polygon fill="#ffffff" stroke="transparent" points="176,-40 176,-56 358,-56 358,-40 176,-40"/>
<text text-anchor="start" x="248.5" y="-45.2" font-family="Helvetica,sans-Serif" font-size="11.00">0 rows</text>
<polygon fill="#ffffff" stroke="transparent" points="358,-40 358,-56 523,-56 523,-40 358,-40"/>
<text text-anchor="start" x="501" y="-45.2" font-family="Helvetica,sans-Serif" font-size="11.00">1 &gt;</text>
<polygon fill="black" stroke="black" points="176,-40 176,-56 176,-56 176,-40 176,-40"/>
<polygon fill="black" stroke="black" points="358,-40 358,-56 358,-56 358,-40 358,-40"/>
<polygon fill="none" stroke="black" stroke-width="2" points="9,-38 9,-168 525,-168 525,-38 9,-38"/>
</a>
</g>
</g>
<!-- deadwood&#45;&gt;lookup_decomposition -->
<g id="edge2" class="edge">
<title>deadwood:w&#45;&gt;lookup_decomposition:e</title>
<path fill="none" stroke="black" d="M559.7,-220.18C515.97,-199.17 591.46,-68 525,-68"/>
<polygon fill="black" stroke="black" points="566.15,-221.45 573.3,-226.53 570.08,-222.23 574,-223 574,-223 574,-223 570.08,-222.23 574.7,-219.47 566.15,-221.45 566.15,-221.45"/>
<ellipse fill="none" stroke="black" cx="563.01" cy="-220.83" rx="3.2" ry="3.2"/>
</g>
<!-- plot -->
<g id="node4" class="node">
<title>plot</title>
<g id="a_node4"><a xlink:href="../../tables/plot.html" xlink:title="plot" target="_top">
<polygon fill="#ffffff" stroke="transparent" points="214.5,-348 214.5,-406 319.5,-406 319.5,-348 214.5,-348"/>
<polygon fill="#f5f5f5" stroke="transparent" points="215,-384 215,-406 320,-406 320,-384 215,-384"/>
<polygon fill="none" stroke="black" points="215,-384 215,-406 320,-406 320,-384 215,-384"/>
<text text-anchor="start" x="219.5" y="-393.2" font-family="Helvetica,sans-Serif" font-weight="bold" font-size="11.00">plot</text>
<text text-anchor="start" x="278" y="-392.2" font-family="Helvetica,sans-Serif" font-size="11.00">[table]</text>
<polygon fill="none" stroke="black" points="215,-366 215,-384 320,-384 320,-366 215,-366"/>
<text text-anchor="start" x="218" y="-372.2" font-family="Helvetica,sans-Serif" font-size="11.00">...</text>
<polygon fill="#ffffff" stroke="transparent" points="215,-348 215,-366 320,-366 320,-348 215,-348"/>
<polygon fill="none" stroke="black" points="215,-348 215,-366 320,-366 320,-348 215,-348"/>
<polygon fill="#ffffff" stroke="transparent" points="216,-349 216,-365 247,-365 247,-349 216,-349"/>
<text text-anchor="start" x="218" y="-354.2" font-family="Helvetica,sans-Serif" font-size="11.00">&lt; 24</text>
<polygon fill="#ffffff" stroke="transparent" points="247,-349 247,-365 295,-365 295,-349 247,-349"/>
<text text-anchor="start" x="249" y="-354.2" font-family="Helvetica,sans-Serif" font-size="11.00">82 rows</text>
<polygon fill="#ffffff" stroke="transparent" points="295,-349 295,-365 319,-365 319,-349 295,-349"/>
<text text-anchor="start" x="297" y="-354.2" font-family="Helvetica,sans-Serif" font-size="11.00">7 &gt;</text>
<polygon fill="black" stroke="black" points="247,-349 247,-365 247,-365 247,-349 247,-349"/>
<polygon fill="black" stroke="black" points="295,-349 295,-365 295,-365 295,-349 295,-349"/>
</a>
</g>
</g>
<!-- deadwood&#45;&gt;plot -->
<g id="edge3" class="edge">
<title>deadwood:w&#45;&gt;plot:e</title>
<path fill="none" stroke="black" d="M560.23,-293.72C549.62,-303.71 552.77,-327.03 534,-338 451.05,-386.5 417.08,-375 321,-375"/>
<polygon fill="black" stroke="black" points="566.43,-291.59 575.17,-292.41 570.22,-290.3 574,-289 574,-289 574,-289 570.22,-290.3 572.83,-285.59 566.43,-291.59 566.43,-291.59"/>
<ellipse fill="none" stroke="black" cx="563.4" cy="-292.63" rx="3.2" ry="3.2"/>
</g>
<!-- lookup_tree_species_group -->
<g id="node5" class="node">
<title>lookup_tree_species_group</title>
<g id="a_node5"><a xlink:href="../../tables/lookup_tree_species_group.html" xlink:title="lookup_tree_species_group" target="_top">
<polygon fill="#ffffff" stroke="transparent" points="145,-269 145,-327 389,-327 389,-269 145,-269"/>
<polygon fill="#f5f5f5" stroke="transparent" points="145,-305 145,-327 389,-327 389,-305 145,-305"/>
<polygon fill="none" stroke="black" points="145,-305 145,-327 389,-327 389,-305 145,-305"/>
<text text-anchor="start" x="150" y="-314.2" font-family="Helvetica,sans-Serif" font-weight="bold" font-size="11.00">lookup_tree_species_group</text>
<text text-anchor="start" x="347" y="-313.2" font-family="Helvetica,sans-Serif" font-size="11.00">[table]</text>
<polygon fill="none" stroke="black" points="145,-287 145,-305 389,-305 389,-287 145,-287"/>
<text text-anchor="start" x="148" y="-293.2" font-family="Helvetica,sans-Serif" font-size="11.00">...</text>
<polygon fill="#ffffff" stroke="transparent" points="145,-269 145,-287 389,-287 389,-269 145,-269"/>
<polygon fill="none" stroke="black" points="145,-269 145,-287 389,-287 389,-269 145,-269"/>
<polygon fill="#ffffff" stroke="transparent" points="146,-270 146,-286 213,-286 213,-270 146,-270"/>
<text text-anchor="start" x="148" y="-275.2" font-family="Helvetica,sans-Serif" font-size="11.00"> &#160;</text>
<polygon fill="#ffffff" stroke="transparent" points="213,-270 213,-286 309,-286 309,-270 213,-270"/>
<text text-anchor="start" x="242.5" y="-275.2" font-family="Helvetica,sans-Serif" font-size="11.00">0 rows</text>
<polygon fill="#ffffff" stroke="transparent" points="309,-270 309,-286 388,-286 388,-270 309,-270"/>
<text text-anchor="start" x="366" y="-275.2" font-family="Helvetica,sans-Serif" font-size="11.00">1 &gt;</text>
<polygon fill="black" stroke="black" points="213,-270 213,-286 213,-286 213,-270 213,-270"/>
<polygon fill="black" stroke="black" points="309,-270 309,-286 309,-286 309,-270 309,-270"/>
</a>
</g>
</g>
<!-- deadwood&#45;&gt;lookup_tree_species_group -->
<g id="edge4" class="edge">
<title>deadwood:w&#45;&gt;lookup_tree_species_group:e</title>
<path fill="none" stroke="black" d="M559.2,-267.33C488.66,-270.51 467.61,-296 390,-296"/>
<polygon fill="black" stroke="black" points="566,-267.18 574.08,-270.6 570,-267.09 574,-267 574,-267 574,-267 570,-267.09 573.92,-263.4 566,-267.18 566,-267.18"/>
<ellipse fill="none" stroke="black" cx="562.8" cy="-267.25" rx="3.2" ry="3.2"/>
</g>
</g>
</svg>
