<?xml version="1.0" encoding="UTF-8" standalone="no"?>
<!DOCTYPE svg PUBLIC "-//W3C//DTD SVG 1.1//EN"
 "http://www.w3.org/Graphics/SVG/1.1/DTD/svg11.dtd">
<!-- Generated by graphviz version 2.43.0 (0)
 -->
<!-- Title: oneDegreeRelationshipsDiagram Pages: 1 -->
<svg width="634pt" height="679pt"
 viewBox="0.00 0.00 634.00 679.00" xmlns="http://www.w3.org/2000/svg" xmlns:xlink="http://www.w3.org/1999/xlink">
<g id="graph0" class="graph" transform="scale(1 1) rotate(0) translate(4 675)">
<title>oneDegreeRelationshipsDiagram</title>
<polygon fill="#ffffff" stroke="transparent" points="-4,4 -4,-675 630,-675 630,4 -4,4"/>
<text text-anchor="middle" x="79.5" y="-7.2" font-family="Helvetica,sans-Serif" font-size="11.00">Generated by SchemaSpy</text>
<!-- plot -->
<g id="node1" class="node">
<title>plot</title>
<g id="a_node1"><a xlink:href="../../tables/plot.html" xlink:title="plot" target="_top">
<polygon fill="#ffffff" stroke="transparent" points="367,-37 367,-667 618,-667 618,-37 367,-37"/>
<polygon fill="#f5f5f5" stroke="transparent" points="367.5,-645 367.5,-667 618.5,-667 618.5,-645 367.5,-645"/>
<polygon fill="none" stroke="black" points="367.5,-645 367.5,-667 618.5,-667 618.5,-645 367.5,-645"/>
<text text-anchor="start" x="372" y="-654.2" font-family="Helvetica,sans-Serif" font-weight="bold" font-size="11.00">plot</text>
<text text-anchor="start" x="576.5" y="-653.2" font-family="Helvetica,sans-Serif" font-size="11.00">[table]</text>
<polygon fill="none" stroke="black" points="367.5,-623 367.5,-645 618.5,-645 618.5,-623 367.5,-623"/>
<image xlink:href="../../images/primaryKeys.png" width="11px" height="12px" preserveAspectRatio="xMinYMin meet" x="372.5" y="-640"/>
<text text-anchor="start" x="387.5" y="-631.2" font-family="Helvetica,sans-Serif" font-size="11.00">id</text>
<polygon fill="#ffffff" stroke="transparent" points="367.5,-601 367.5,-623 618.5,-623 618.5,-601 367.5,-601"/>
<polygon fill="none" stroke="black" points="367.5,-601 367.5,-623 618.5,-623 618.5,-601 367.5,-601"/>
<image xlink:href="../../images/foreignKeys.png" width="11px" height="12px" preserveAspectRatio="xMinYMin meet" x="372.5" y="-618"/>
<text text-anchor="start" x="387.5" y="-609.2" font-family="Helvetica,sans-Serif" font-size="11.00">cluster_id</text>
<polygon fill="#ffffff" stroke="transparent" points="367.5,-579 367.5,-601 618.5,-601 618.5,-579 367.5,-579"/>
<polygon fill="none" stroke="black" points="367.5,-579 367.5,-601 618.5,-601 618.5,-579 367.5,-579"/>
<text text-anchor="start" x="387.5" y="-587.2" font-family="Helvetica,sans-Serif" font-size="11.00">plot_name</text>
<polygon fill="none" stroke="black" points="367.5,-557 367.5,-579 618.5,-579 618.5,-557 367.5,-557"/>
<image xlink:href="../../images/foreignKeys.png" width="11px" height="12px" preserveAspectRatio="xMinYMin meet" x="372.5" y="-574"/>
<text text-anchor="start" x="387.5" y="-565.2" font-family="Helvetica,sans-Serif" font-size="11.00">sampling_strata</text>
<polygon fill="none" stroke="black" points="367.5,-535 367.5,-557 618.5,-557 618.5,-535 367.5,-535"/>
<image xlink:href="../../images/foreignKeys.png" width="11px" height="12px" preserveAspectRatio="xMinYMin meet" x="372.5" y="-552"/>
<text text-anchor="start" x="387.5" y="-543.2" font-family="Helvetica,sans-Serif" font-size="11.00">growth_district</text>
<polygon fill="none" stroke="black" points="367.5,-513 367.5,-535 618.5,-535 618.5,-513 367.5,-513"/>
<image xlink:href="../../images/foreignKeys.png" width="11px" height="12px" preserveAspectRatio="xMinYMin meet" x="372.5" y="-530"/>
<text text-anchor="start" x="387.5" y="-521.2" font-family="Helvetica,sans-Serif" font-size="11.00">forest_decision</text>
<polygon fill="none" stroke="black" points="367.5,-491 367.5,-513 618.5,-513 618.5,-491 367.5,-491"/>
<image xlink:href="../../images/foreignKeys.png" width="11px" height="12px" preserveAspectRatio="xMinYMin meet" x="372.5" y="-508"/>
<text text-anchor="start" x="387.5" y="-499.2" font-family="Helvetica,sans-Serif" font-size="11.00">forestry_department</text>
<polygon fill="none" stroke="black" points="367.5,-469 367.5,-491 618.5,-491 618.5,-469 367.5,-469"/>
<image xlink:href="../../images/foreignKeys.png" width="11px" height="12px" preserveAspectRatio="xMinYMin meet" x="372.5" y="-486"/>
<text text-anchor="start" x="387.5" y="-477.2" font-family="Helvetica,sans-Serif" font-size="11.00">height_layer_class</text>
<polygon fill="none" stroke="black" points="367.5,-447 367.5,-469 618.5,-469 618.5,-447 367.5,-447"/>
<image xlink:href="../../images/foreignKeys.png" width="11px" height="12px" preserveAspectRatio="xMinYMin meet" x="372.5" y="-464"/>
<text text-anchor="start" x="387.5" y="-455.2" font-family="Helvetica,sans-Serif" font-size="11.00">property_type</text>
<polygon fill="none" stroke="black" points="367.5,-425 367.5,-447 618.5,-447 618.5,-425 367.5,-425"/>
<image xlink:href="../../images/foreignKeys.png" width="11px" height="12px" preserveAspectRatio="xMinYMin meet" x="372.5" y="-442"/>
<text text-anchor="start" x="387.5" y="-433.2" font-family="Helvetica,sans-Serif" font-size="11.00">property_size_class</text>
<polygon fill="none" stroke="black" points="367.5,-403 367.5,-425 618.5,-425 618.5,-403 367.5,-403"/>
<image xlink:href="../../images/foreignKeys.png" width="11px" height="12px" preserveAspectRatio="xMinYMin meet" x="372.5" y="-420"/>
<text text-anchor="start" x="387.5" y="-411.2" font-family="Helvetica,sans-Serif" font-size="11.00">forest_type</text>
<polygon fill="none" stroke="black" points="367.5,-381 367.5,-403 618.5,-403 618.5,-381 367.5,-381"/>
<image xlink:href="../../images/foreignKeys.png" width="11px" height="12px" preserveAspectRatio="xMinYMin meet" x="372.5" y="-398"/>
<text text-anchor="start" x="387.5" y="-389.2" font-family="Helvetica,sans-Serif" font-size="11.00">habitat_type</text>
<polygon fill="none" stroke="black" points="367.5,-359 367.5,-381 618.5,-381 618.5,-359 367.5,-359"/>
<image xlink:href="../../images/foreignKeys.png" width="11px" height="12px" preserveAspectRatio="xMinYMin meet" x="372.5" y="-376"/>
<text text-anchor="start" x="387.5" y="-367.2" font-family="Helvetica,sans-Serif" font-size="11.00">habitat_type_source</text>
<polygon fill="none" stroke="black" points="367.5,-337 367.5,-359 618.5,-359 618.5,-337 367.5,-337"/>
<image xlink:href="../../images/foreignKeys.png" width="11px" height="12px" preserveAspectRatio="xMinYMin meet" x="372.5" y="-354"/>
<text text-anchor="start" x="387.5" y="-345.2" font-family="Helvetica,sans-Serif" font-size="11.00">use_restriction</text>
<polygon fill="none" stroke="black" points="367.5,-315 367.5,-337 618.5,-337 618.5,-315 367.5,-315"/>
<image xlink:href="../../images/foreignKeys.png" width="11px" height="12px" preserveAspectRatio="xMinYMin meet" x="372.5" y="-332"/>
<text text-anchor="start" x="387.5" y="-323.2" font-family="Helvetica,sans-Serif" font-size="11.00">land_use</text>
<polygon fill="none" stroke="black" points="367.5,-293 367.5,-315 618.5,-315 618.5,-293 367.5,-293"/>
<image xlink:href="../../images/foreignKeys.png" width="11px" height="12px" preserveAspectRatio="xMinYMin meet" x="372.5" y="-310"/>
<text text-anchor="start" x="387.5" y="-301.2" font-family="Helvetica,sans-Serif" font-size="11.00">marking_state</text>
<polygon fill="none" stroke="black" points="367.5,-271 367.5,-293 618.5,-293 618.5,-271 367.5,-271"/>
<image xlink:href="../../images/foreignKeys.png" width="11px" height="12px" preserveAspectRatio="xMinYMin meet" x="372.5" y="-288"/>
<text text-anchor="start" x="387.5" y="-279.2" font-family="Helvetica,sans-Serif" font-size="11.00">marking_profile</text>
<polygon fill="none" stroke="black" points="367.5,-249 367.5,-271 618.5,-271 618.5,-249 367.5,-249"/>
<image xlink:href="../../images/foreignKeys.png" width="11px" height="12px" preserveAspectRatio="xMinYMin meet" x="372.5" y="-266"/>
<text text-anchor="start" x="387.5" y="-257.2" font-family="Helvetica,sans-Serif" font-size="11.00">terrain_form</text>
<polygon fill="none" stroke="black" points="367.5,-227 367.5,-249 618.5,-249 618.5,-227 367.5,-227"/>
<image xlink:href="../../images/foreignKeys.png" width="11px" height="12px" preserveAspectRatio="xMinYMin meet" x="372.5" y="-244"/>
<text text-anchor="start" x="387.5" y="-235.2" font-family="Helvetica,sans-Serif" font-size="11.00">management_type</text>
<polygon fill="none" stroke="black" points="367.5,-205 367.5,-227 618.5,-227 618.5,-205 367.5,-205"/>
<image xlink:href="../../images/foreignKeys.png" width="11px" height="12px" preserveAspectRatio="xMinYMin meet" x="372.5" y="-222"/>
<text text-anchor="start" x="387.5" y="-213.2" font-family="Helvetica,sans-Serif" font-size="11.00">harvesting_method</text>
<polygon fill="none" stroke="black" points="367.5,-183 367.5,-205 618.5,-205 618.5,-183 367.5,-183"/>
<image xlink:href="../../images/foreignKeys.png" width="11px" height="12px" preserveAspectRatio="xMinYMin meet" x="372.5" y="-200"/>
<text text-anchor="start" x="387.5" y="-191.2" font-family="Helvetica,sans-Serif" font-size="11.00">layer_type</text>
<polygon fill="none" stroke="black" points="367.5,-161 367.5,-183 618.5,-183 618.5,-161 367.5,-161"/>
<image xlink:href="../../images/foreignKeys.png" width="11px" height="12px" preserveAspectRatio="xMinYMin meet" x="372.5" y="-178"/>
<text text-anchor="start" x="387.5" y="-169.2" font-family="Helvetica,sans-Serif" font-size="11.00">stand_phase</text>
<polygon fill="none" stroke="black" points="367.5,-139 367.5,-161 618.5,-161 618.5,-139 367.5,-139"/>
<image xlink:href="../../images/foreignKeys.png" width="11px" height="12px" preserveAspectRatio="xMinYMin meet" x="372.5" y="-156"/>
<text text-anchor="start" x="387.5" y="-147.2" font-family="Helvetica,sans-Serif" font-size="11.00">sablings_layer</text>
<polygon fill="none" stroke="black" points="367.5,-117 367.5,-139 618.5,-139 618.5,-117 367.5,-117"/>
<image xlink:href="../../images/foreignKeys.png" width="11px" height="12px" preserveAspectRatio="xMinYMin meet" x="372.5" y="-134"/>
<text text-anchor="start" x="387.5" y="-125.2" font-family="Helvetica,sans-Serif" font-size="11.00">trees_less_4meter_mirrored</text>
<polygon fill="none" stroke="black" points="367.5,-95 367.5,-117 618.5,-117 618.5,-95 367.5,-95"/>
<image xlink:href="../../images/foreignKeys.png" width="11px" height="12px" preserveAspectRatio="xMinYMin meet" x="372.5" y="-112"/>
<text text-anchor="start" x="387.5" y="-103.2" font-family="Helvetica,sans-Serif" font-size="11.00">trees_less_4meter_count_factor</text>
<polygon fill="none" stroke="black" points="367.5,-73 367.5,-95 618.5,-95 618.5,-73 367.5,-73"/>
<image xlink:href="../../images/foreignKeys.png" width="11px" height="12px" preserveAspectRatio="xMinYMin meet" x="372.5" y="-90"/>
<text text-anchor="start" x="387.5" y="-81.2" font-family="Helvetica,sans-Serif" font-size="11.00">trees_less_4meter_layer</text>
<polygon fill="none" stroke="black" points="367.5,-55 367.5,-73 618.5,-73 618.5,-55 367.5,-55"/>
<text text-anchor="start" x="370.5" y="-61.2" font-family="Helvetica,sans-Serif" font-size="11.00">...</text>
<polygon fill="#ffffff" stroke="transparent" points="367.5,-37 367.5,-55 618.5,-55 618.5,-37 367.5,-37"/>
<polygon fill="none" stroke="black" points="367.5,-37 367.5,-55 618.5,-55 618.5,-37 367.5,-37"/>
<polygon fill="#ffffff" stroke="transparent" points="368.5,-38 368.5,-54 450.5,-54 450.5,-38 368.5,-38"/>
<text text-anchor="start" x="370.5" y="-43.2" font-family="Helvetica,sans-Serif" font-size="11.00">&lt; 24</text>
<polygon fill="#ffffff" stroke="transparent" points="450.5,-38 450.5,-54 542.5,-54 542.5,-38 450.5,-38"/>
<text text-anchor="start" x="478" y="-43.2" font-family="Helvetica,sans-Serif" font-size="11.00">0 rows</text>
<polygon fill="#ffffff" stroke="transparent" points="542.5,-38 542.5,-54 617.5,-54 617.5,-38 542.5,-38"/>
<text text-anchor="start" x="595.5" y="-43.2" font-family="Helvetica,sans-Serif" font-size="11.00">7 &gt;</text>
<polygon fill="black" stroke="black" points="450.5,-38 450.5,-54 450.5,-54 450.5,-38 450.5,-38"/>
<polygon fill="black" stroke="black" points="542.5,-38 542.5,-54 542.5,-54 542.5,-38 542.5,-38"/>
</a>
</g>
</g>
<!-- lookup_forestry_department -->
<g id="node2" class="node">
<title>lookup_forestry_department</title>
<g id="a_node2"><a xlink:href="../../tables/lookup_forestry_department.html" xlink:title="lookup_forestry_department" target="_top">
<polygon fill="#ffffff" stroke="transparent" points="8,-449 8,-603 318,-603 318,-449 8,-449"/>
<polygon fill="#f5f5f5" stroke="transparent" points="10,-579 10,-601 316,-601 316,-579 10,-579"/>
<polygon fill="none" stroke="black" points="10,-579 10,-601 316,-601 316,-579 10,-579"/>
<text text-anchor="start" x="15" y="-588.2" font-family="Helvetica,sans-Serif" font-weight="bold" font-size="11.00">lookup_forestry_department</text>
<text text-anchor="start" x="274" y="-587.2" font-family="Helvetica,sans-Serif" font-size="11.00">[table]</text>
<polygon fill="none" stroke="black" points="10,-557 10,-579 238,-579 238,-557 10,-557"/>
<text text-anchor="start" x="30" y="-565.2" font-family="Helvetica,sans-Serif" font-size="11.00">name_de</text>
<polygon fill="none" stroke="black" points="238,-557 238,-579 316,-579 316,-557 238,-557"/>
<text text-anchor="start" x="241" y="-565.2" font-family="Helvetica,sans-Serif" font-size="11.00">varchar[150]</text>
<polygon fill="none" stroke="black" points="10,-535 10,-557 238,-557 238,-535 10,-535"/>
<text text-anchor="start" x="30" y="-543.2" font-family="Helvetica,sans-Serif" font-size="11.00">name_en</text>
<polygon fill="none" stroke="black" points="238,-535 238,-557 316,-557 316,-535 238,-535"/>
<text text-anchor="start" x="241" y="-543.2" font-family="Helvetica,sans-Serif" font-size="11.00">varchar[150]</text>
<polygon fill="none" stroke="black" points="10,-513 10,-535 238,-535 238,-513 10,-513"/>
<text text-anchor="start" x="30" y="-521.2" font-family="Helvetica,sans-Serif" font-size="11.00">sort</text>
<polygon fill="none" stroke="black" points="238,-513 238,-535 316,-535 316,-513 238,-513"/>
<text text-anchor="start" x="241" y="-521.2" font-family="Helvetica,sans-Serif" font-size="11.00">int4[10]</text>
<polygon fill="#ffffff" stroke="transparent" points="10,-491 10,-513 238,-513 238,-491 10,-491"/>
<polygon fill="none" stroke="black" points="10,-491 10,-513 238,-513 238,-491 10,-491"/>
<text text-anchor="start" x="30" y="-499.2" font-family="Helvetica,sans-Serif" font-size="11.00">abbreviation</text>
<polygon fill="none" stroke="black" points="238,-491 238,-513 316,-513 316,-491 238,-491"/>
<text text-anchor="start" x="241" y="-499.2" font-family="Helvetica,sans-Serif" font-size="11.00">int4[10]</text>
<polygon fill="none" stroke="black" points="10,-469 10,-491 238,-491 238,-469 10,-469"/>
<text text-anchor="start" x="30" y="-477.2" font-family="Helvetica,sans-Serif" font-size="11.00">phone</text>
<polygon fill="none" stroke="black" points="238,-469 238,-491 316,-491 316,-469 238,-469"/>
<text text-anchor="start" x="241" y="-477.2" font-family="Helvetica,sans-Serif" font-size="11.00">varchar[20]</text>
<polygon fill="#ffffff" stroke="transparent" points="10,-451 10,-469 316,-469 316,-451 10,-451"/>
<polygon fill="none" stroke="black" points="10,-451 10,-469 316,-469 316,-451 10,-451"/>
<polygon fill="#ffffff" stroke="transparent" points="11,-452 11,-468 102,-468 102,-452 11,-452"/>
<text text-anchor="start" x="13" y="-457.2" font-family="Helvetica,sans-Serif" font-size="11.00">&lt; 0</text>
<polygon fill="#ffffff" stroke="transparent" points="102,-452 102,-468 224,-468 224,-452 102,-452"/>
<text text-anchor="start" x="137.5" y="-457.2" font-family="Helvetica,sans-Serif" font-size="11.00">814 rows</text>
<polygon fill="#ffffff" stroke="transparent" points="224,-452 224,-468 315,-468 315,-452 224,-452"/>
<text text-anchor="start" x="293" y="-457.2" font-family="Helvetica,sans-Serif" font-size="11.00">1 &gt;</text>
<polygon fill="black" stroke="black" points="102,-452 102,-468 102,-468 102,-452 102,-452"/>
<polygon fill="black" stroke="black" points="224,-452 224,-468 224,-468 224,-452 224,-452"/>
<polygon fill="none" stroke="black" stroke-width="2" points="9,-450 9,-602 317,-602 317,-450 9,-450"/>
</a>
</g>
</g>
<!-- plot&#45;&gt;lookup_forestry_department -->
<g id="edge1" class="edge">
<title>plot:w&#45;&gt;lookup_forestry_department:e</title>
<path fill="none" stroke="black" d="M351.84,-502C340.41,-502 333.16,-502 317,-502"/>
<polygon fill="black" stroke="black" points="358.5,-502 366.5,-505.6 362.5,-502 366.5,-502 366.5,-502 366.5,-502 362.5,-502 366.5,-498.4 358.5,-502 358.5,-502"/>
<ellipse fill="none" stroke="black" cx="355.3" cy="-502" rx="3.2" ry="3.2"/>
</g>
</g>
</svg>
