<?xml version="1.0" encoding="UTF-8" standalone="no"?>
<!DOCTYPE svg PUBLIC "-//W3C//DTD SVG 1.1//EN"
 "http://www.w3.org/Graphics/SVG/1.1/DTD/svg11.dtd">
<!-- Generated by graphviz version 2.43.0 (0)
 -->
<!-- Title: oneDegreeRelationshipsDiagram Pages: 1 -->
<svg width="839pt" height="503pt"
 viewBox="0.00 0.00 839.00 503.00" xmlns="http://www.w3.org/2000/svg" xmlns:xlink="http://www.w3.org/1999/xlink">
<g id="graph0" class="graph" transform="scale(1 1) rotate(0) translate(4 499)">
<title>oneDegreeRelationshipsDiagram</title>
<polygon fill="#ffffff" stroke="transparent" points="-4,4 -4,-499 835,-499 835,4 -4,4"/>
<text text-anchor="middle" x="79.5" y="-7.2" font-family="Helvetica,sans-Serif" font-size="11.00">Generated by SchemaSpy</text>
<!-- plot -->
<g id="node1" class="node">
<title>plot</title>
<g id="a_node1"><a xlink:href="../../tables/plot.html" xlink:title="plot" target="_top">
<polygon fill="#ffffff" stroke="transparent" points="535,-37 535,-491 823,-491 823,-37 535,-37"/>
<polygon fill="#f5f5f5" stroke="transparent" points="535,-469 535,-491 823,-491 823,-469 535,-469"/>
<polygon fill="none" stroke="black" points="535,-469 535,-491 823,-491 823,-469 535,-469"/>
<text text-anchor="start" x="539.5" y="-478.2" font-family="Helvetica,sans-Serif" font-weight="bold" font-size="11.00">plot</text>
<text text-anchor="start" x="781" y="-477.2" font-family="Helvetica,sans-Serif" font-size="11.00">[table]</text>
<polygon fill="none" stroke="black" points="535,-447 535,-469 823,-469 823,-447 535,-447"/>
<image xlink:href="../../images/primaryKeys.png" width="11px" height="12px" preserveAspectRatio="xMinYMin meet" x="540" y="-464"/>
<text text-anchor="start" x="555" y="-455.2" font-family="Helvetica,sans-Serif" font-size="11.00">id</text>
<polygon fill="#ffffff" stroke="transparent" points="535,-425 535,-447 823,-447 823,-425 535,-425"/>
<polygon fill="none" stroke="black" points="535,-425 535,-447 823,-447 823,-425 535,-425"/>
<image xlink:href="../../images/foreignKeys.png" width="11px" height="12px" preserveAspectRatio="xMinYMin meet" x="540" y="-442"/>
<text text-anchor="start" x="555" y="-433.2" font-family="Helvetica,sans-Serif" font-size="11.00">cluster_id</text>
<polygon fill="#ffffff" stroke="transparent" points="535,-403 535,-425 823,-425 823,-403 535,-403"/>
<polygon fill="none" stroke="black" points="535,-403 535,-425 823,-425 823,-403 535,-403"/>
<text text-anchor="start" x="555" y="-411.2" font-family="Helvetica,sans-Serif" font-size="11.00">plot_name</text>
<polygon fill="none" stroke="black" points="535,-381 535,-403 823,-403 823,-381 535,-381"/>
<image xlink:href="../../images/foreignKeys.png" width="11px" height="12px" preserveAspectRatio="xMinYMin meet" x="540" y="-398"/>
<text text-anchor="start" x="555" y="-389.2" font-family="Helvetica,sans-Serif" font-size="11.00">growth_district</text>
<polygon fill="none" stroke="black" points="535,-359 535,-381 823,-381 823,-359 535,-359"/>
<image xlink:href="../../images/foreignKeys.png" width="11px" height="12px" preserveAspectRatio="xMinYMin meet" x="540" y="-376"/>
<text text-anchor="start" x="555" y="-367.2" font-family="Helvetica,sans-Serif" font-size="11.00">forest_status</text>
<polygon fill="none" stroke="black" points="535,-337 535,-359 823,-359 823,-337 535,-337"/>
<image xlink:href="../../images/foreignKeys.png" width="11px" height="12px" preserveAspectRatio="xMinYMin meet" x="540" y="-354"/>
<text text-anchor="start" x="555" y="-345.2" font-family="Helvetica,sans-Serif" font-size="11.00">elevation_level</text>
<polygon fill="none" stroke="black" points="535,-315 535,-337 823,-337 823,-315 535,-315"/>
<image xlink:href="../../images/foreignKeys.png" width="11px" height="12px" preserveAspectRatio="xMinYMin meet" x="540" y="-332"/>
<text text-anchor="start" x="555" y="-323.2" font-family="Helvetica,sans-Serif" font-size="11.00">property_type</text>
<polygon fill="none" stroke="black" points="535,-293 535,-315 823,-315 823,-293 535,-293"/>
<image xlink:href="../../images/foreignKeys.png" width="11px" height="12px" preserveAspectRatio="xMinYMin meet" x="540" y="-310"/>
<text text-anchor="start" x="555" y="-301.2" font-family="Helvetica,sans-Serif" font-size="11.00">property_size_class</text>
<polygon fill="none" stroke="black" points="535,-271 535,-293 823,-293 823,-271 535,-271"/>
<image xlink:href="../../images/foreignKeys.png" width="11px" height="12px" preserveAspectRatio="xMinYMin meet" x="540" y="-288"/>
<text text-anchor="start" x="555" y="-279.2" font-family="Helvetica,sans-Serif" font-size="11.00">land_use_after</text>
<polygon fill="none" stroke="black" points="535,-249 535,-271 823,-271 823,-249 535,-249"/>
<image xlink:href="../../images/foreignKeys.png" width="11px" height="12px" preserveAspectRatio="xMinYMin meet" x="540" y="-266"/>
<text text-anchor="start" x="555" y="-257.2" font-family="Helvetica,sans-Serif" font-size="11.00">marker_status</text>
<polygon fill="none" stroke="black" points="535,-227 535,-249 823,-249 823,-227 535,-227"/>
<image xlink:href="../../images/foreignKeys.png" width="11px" height="12px" preserveAspectRatio="xMinYMin meet" x="540" y="-244"/>
<text text-anchor="start" x="555" y="-235.2" font-family="Helvetica,sans-Serif" font-size="11.00">marker_profile</text>
<polygon fill="none" stroke="black" points="535,-205 535,-227 823,-227 823,-205 535,-205"/>
<image xlink:href="../../images/foreignKeys.png" width="11px" height="12px" preserveAspectRatio="xMinYMin meet" x="540" y="-222"/>
<text text-anchor="start" x="555" y="-213.2" font-family="Helvetica,sans-Serif" font-size="11.00">terrain_form</text>
<polygon fill="none" stroke="black" points="535,-183 535,-205 823,-205 823,-183 535,-183"/>
<image xlink:href="../../images/foreignKeys.png" width="11px" height="12px" preserveAspectRatio="xMinYMin meet" x="540" y="-200"/>
<text text-anchor="start" x="555" y="-191.2" font-family="Helvetica,sans-Serif" font-size="11.00">management_type</text>
<polygon fill="none" stroke="black" points="535,-161 535,-183 823,-183 823,-161 535,-161"/>
<image xlink:href="../../images/foreignKeys.png" width="11px" height="12px" preserveAspectRatio="xMinYMin meet" x="540" y="-178"/>
<text text-anchor="start" x="555" y="-169.2" font-family="Helvetica,sans-Serif" font-size="11.00">harvesting_method</text>
<polygon fill="none" stroke="black" points="535,-139 535,-161 823,-161 823,-139 535,-139"/>
<image xlink:href="../../images/foreignKeys.png" width="11px" height="12px" preserveAspectRatio="xMinYMin meet" x="540" y="-156"/>
<text text-anchor="start" x="555" y="-147.2" font-family="Helvetica,sans-Serif" font-size="11.00">stand_structure</text>
<polygon fill="none" stroke="black" points="535,-117 535,-139 823,-139 823,-117 535,-117"/>
<image xlink:href="../../images/foreignKeys.png" width="11px" height="12px" preserveAspectRatio="xMinYMin meet" x="540" y="-134"/>
<text text-anchor="start" x="555" y="-125.2" font-family="Helvetica,sans-Serif" font-size="11.00">stand_dev_phase</text>
<polygon fill="none" stroke="black" points="535,-95 535,-117 823,-117 823,-95 535,-95"/>
<image xlink:href="../../images/foreignKeys.png" width="11px" height="12px" preserveAspectRatio="xMinYMin meet" x="540" y="-112"/>
<text text-anchor="start" x="555" y="-103.2" font-family="Helvetica,sans-Serif" font-size="11.00">stand_layer_reg</text>
<polygon fill="none" stroke="black" points="535,-73 535,-95 823,-95 823,-73 535,-73"/>
<image xlink:href="../../images/foreignKeys.png" width="11px" height="12px" preserveAspectRatio="xMinYMin meet" x="540" y="-90"/>
<text text-anchor="start" x="555" y="-81.2" font-family="Helvetica,sans-Serif" font-size="11.00">trees_less_4meter_mirrored</text>
<polygon fill="none" stroke="black" points="535,-55 535,-73 823,-73 823,-55 535,-55"/>
<text text-anchor="start" x="538" y="-61.2" font-family="Helvetica,sans-Serif" font-size="11.00">...</text>
<polygon fill="#ffffff" stroke="transparent" points="535,-37 535,-55 823,-55 823,-37 535,-37"/>
<polygon fill="none" stroke="black" points="535,-37 535,-55 823,-55 823,-37 535,-37"/>
<polygon fill="#ffffff" stroke="transparent" points="536,-38 536,-54 631,-54 631,-38 536,-38"/>
<text text-anchor="start" x="538" y="-43.2" font-family="Helvetica,sans-Serif" font-size="11.00">&lt; 16</text>
<polygon fill="#ffffff" stroke="transparent" points="631,-38 631,-54 735,-54 735,-38 631,-38"/>
<text text-anchor="start" x="664.5" y="-43.2" font-family="Helvetica,sans-Serif" font-size="11.00">0 rows</text>
<polygon fill="#ffffff" stroke="transparent" points="735,-38 735,-54 822,-54 822,-38 735,-38"/>
<text text-anchor="start" x="800" y="-43.2" font-family="Helvetica,sans-Serif" font-size="11.00">7 &gt;</text>
<polygon fill="black" stroke="black" points="631,-38 631,-54 631,-54 631,-38 631,-38"/>
<polygon fill="black" stroke="black" points="735,-38 735,-54 735,-54 735,-38 735,-38"/>
</a>
</g>
</g>
<!-- lookup_land_use -->
<g id="node2" class="node">
<title>lookup_land_use</title>
<g id="a_node2"><a xlink:href="../../tables/lookup_land_use.html" xlink:title="lookup_land_use" target="_top">
<polygon fill="#ffffff" stroke="transparent" points="8,-251 8,-405 486,-405 486,-251 8,-251"/>
<polygon fill="#f5f5f5" stroke="transparent" points="10,-381 10,-403 484,-403 484,-381 10,-381"/>
<polygon fill="none" stroke="black" points="10,-381 10,-403 484,-403 484,-381 10,-381"/>
<text text-anchor="start" x="15" y="-390.2" font-family="Helvetica,sans-Serif" font-weight="bold" font-size="11.00">lookup_land_use</text>
<text text-anchor="start" x="442" y="-389.2" font-family="Helvetica,sans-Serif" font-size="11.00">[table]</text>
<polygon fill="none" stroke="black" points="10,-359 10,-381 151,-381 151,-359 10,-359"/>
<text text-anchor="start" x="30" y="-367.2" font-family="Helvetica,sans-Serif" font-size="11.00">name_de</text>
<polygon fill="none" stroke="black" points="151,-359 151,-381 484,-381 484,-359 151,-359"/>
<text text-anchor="start" x="154" y="-367.2" font-family="Helvetica,sans-Serif" font-size="11.00">varchar[150]</text>
<polygon fill="none" stroke="black" points="10,-337 10,-359 151,-359 151,-337 10,-337"/>
<text text-anchor="start" x="30" y="-345.2" font-family="Helvetica,sans-Serif" font-size="11.00">name_en</text>
<polygon fill="none" stroke="black" points="151,-337 151,-359 484,-359 484,-337 151,-337"/>
<text text-anchor="start" x="154" y="-345.2" font-family="Helvetica,sans-Serif" font-size="11.00">varchar[150]</text>
<polygon fill="none" stroke="black" points="10,-315 10,-337 151,-337 151,-315 10,-315"/>
<text text-anchor="start" x="30" y="-323.2" font-family="Helvetica,sans-Serif" font-size="11.00">interval</text>
<polygon fill="none" stroke="black" points="151,-315 151,-337 484,-337 484,-315 151,-315"/>
<text text-anchor="start" x="154" y="-323.2" font-family="Helvetica,sans-Serif" font-size="11.00">&quot;private_ci2027_001&quot;.&quot;_enum_interval_name&quot;[2147483647]</text>
<polygon fill="none" stroke="black" points="10,-293 10,-315 151,-315 151,-293 10,-293"/>
<text text-anchor="start" x="30" y="-301.2" font-family="Helvetica,sans-Serif" font-size="11.00">sort</text>
<polygon fill="none" stroke="black" points="151,-293 151,-315 484,-315 484,-293 151,-293"/>
<text text-anchor="start" x="154" y="-301.2" font-family="Helvetica,sans-Serif" font-size="11.00">int4[10]</text>
<polygon fill="#ffffff" stroke="transparent" points="10,-271 10,-293 151,-293 151,-271 10,-271"/>
<polygon fill="none" stroke="black" points="10,-271 10,-293 151,-293 151,-271 10,-271"/>
<text text-anchor="start" x="30" y="-279.2" font-family="Helvetica,sans-Serif" font-size="11.00">abbreviation</text>
<polygon fill="none" stroke="black" points="151,-271 151,-293 484,-293 484,-271 151,-271"/>
<text text-anchor="start" x="154" y="-279.2" font-family="Helvetica,sans-Serif" font-size="11.00">&quot;private_ci2027_001&quot;.&quot;enum_land_use&quot;[2147483647]</text>
<polygon fill="#ffffff" stroke="transparent" points="10,-253 10,-271 484,-271 484,-253 10,-253"/>
<polygon fill="none" stroke="black" points="10,-253 10,-271 484,-271 484,-253 10,-253"/>
<polygon fill="#ffffff" stroke="transparent" points="11,-254 11,-270 163,-270 163,-254 11,-254"/>
<text text-anchor="start" x="13" y="-259.2" font-family="Helvetica,sans-Serif" font-size="11.00">&lt; 0</text>
<polygon fill="#ffffff" stroke="transparent" points="163,-254 163,-270 332,-270 332,-254 163,-254"/>
<text text-anchor="start" x="229" y="-259.2" font-family="Helvetica,sans-Serif" font-size="11.00">0 rows</text>
<polygon fill="#ffffff" stroke="transparent" points="332,-254 332,-270 483,-270 483,-254 332,-254"/>
<text text-anchor="start" x="461" y="-259.2" font-family="Helvetica,sans-Serif" font-size="11.00">1 &gt;</text>
<polygon fill="black" stroke="black" points="163,-254 163,-270 163,-270 163,-254 163,-254"/>
<polygon fill="black" stroke="black" points="332,-254 332,-270 332,-270 332,-254 332,-254"/>
<polygon fill="none" stroke="black" stroke-width="2" points="9,-252 9,-404 485,-404 485,-252 9,-252"/>
</a>
</g>
</g>
<!-- plot&#45;&gt;lookup_land_use -->
<g id="edge1" class="edge">
<title>plot:w&#45;&gt;lookup_land_use:e</title>
<path fill="none" stroke="black" d="M519.49,-282C508.18,-282 500.99,-282 485,-282"/>
<polygon fill="black" stroke="black" points="526,-282 534,-285.6 530,-282 534,-282 534,-282 534,-282 530,-282 534,-278.4 526,-282 526,-282"/>
<ellipse fill="none" stroke="black" cx="522.8" cy="-282" rx="3.2" ry="3.2"/>
</g>
</g>
</svg>
