<?xml version="1.0" encoding="UTF-8" standalone="no"?>
<!DOCTYPE svg PUBLIC "-//W3C//DTD SVG 1.1//EN"
 "http://www.w3.org/Graphics/SVG/1.1/DTD/svg11.dtd">
<!-- Generated by graphviz version 2.43.0 (0)
 -->
<!-- Title: twoDegreesRelationshipsDiagram Pages: 1 -->
<svg width="1008pt" height="633pt"
 viewBox="0.00 0.00 1008.00 633.28" xmlns="http://www.w3.org/2000/svg" xmlns:xlink="http://www.w3.org/1999/xlink">
<g id="graph0" class="graph" transform="scale(1 1) rotate(0) translate(4 629.28)">
<title>twoDegreesRelationshipsDiagram</title>
<polygon fill="#ffffff" stroke="transparent" points="-4,4 -4,-629.28 1004,-629.28 1004,4 -4,4"/>
<text text-anchor="middle" x="79.5" y="-7.2" font-family="Helvetica,sans-Serif" font-size="11.00">Generated by SchemaSpy</text>
<!-- plot -->
<g id="node1" class="node">
<title>plot</title>
<g id="a_node1"><a xlink:href="../../tables/plot.html" xlink:title="plot" target="_top">
<polygon fill="#ffffff" stroke="transparent" points="458,-563.28 458,-621.28 556,-621.28 556,-563.28 458,-563.28"/>
<polygon fill="#f5f5f5" stroke="transparent" points="458,-599.28 458,-621.28 556,-621.28 556,-599.28 458,-599.28"/>
<polygon fill="none" stroke="black" points="458,-599.28 458,-621.28 556,-621.28 556,-599.28 458,-599.28"/>
<text text-anchor="start" x="462.5" y="-608.48" font-family="Helvetica,sans-Serif" font-weight="bold" font-size="11.00">plot</text>
<text text-anchor="start" x="514" y="-607.48" font-family="Helvetica,sans-Serif" font-size="11.00">[table]</text>
<polygon fill="none" stroke="black" points="458,-581.28 458,-599.28 556,-599.28 556,-581.28 458,-581.28"/>
<text text-anchor="start" x="461" y="-587.48" font-family="Helvetica,sans-Serif" font-size="11.00">...</text>
<polygon fill="#ffffff" stroke="transparent" points="458,-563.28 458,-581.28 556,-581.28 556,-563.28 458,-563.28"/>
<polygon fill="none" stroke="black" points="458,-563.28 458,-581.28 556,-581.28 556,-563.28 458,-563.28"/>
<polygon fill="#ffffff" stroke="transparent" points="459,-564.28 459,-580.28 490,-580.28 490,-564.28 459,-564.28"/>
<text text-anchor="start" x="461" y="-569.48" font-family="Helvetica,sans-Serif" font-size="11.00">&lt; 16</text>
<polygon fill="#ffffff" stroke="transparent" points="490,-564.28 490,-580.28 531,-580.28 531,-564.28 490,-564.28"/>
<text text-anchor="start" x="492" y="-569.48" font-family="Helvetica,sans-Serif" font-size="11.00">0 rows</text>
<polygon fill="#ffffff" stroke="transparent" points="531,-564.28 531,-580.28 555,-580.28 555,-564.28 531,-564.28"/>
<text text-anchor="start" x="533" y="-569.48" font-family="Helvetica,sans-Serif" font-size="11.00">7 &gt;</text>
<polygon fill="black" stroke="black" points="490,-564.28 490,-580.28 490,-580.28 490,-564.28 490,-564.28"/>
<polygon fill="black" stroke="black" points="531,-564.28 531,-580.28 531,-580.28 531,-564.28 531,-564.28"/>
</a>
</g>
</g>
<!-- lookup_stand_layer -->
<g id="node2" class="node">
<title>lookup_stand_layer</title>
<g id="a_node2"><a xlink:href="../../tables/lookup_stand_layer.html" xlink:title="lookup_stand_layer" target="_top">
<polygon fill="#ffffff" stroke="transparent" points="8,-292.28 8,-350.28 195,-350.28 195,-292.28 8,-292.28"/>
<polygon fill="#f5f5f5" stroke="transparent" points="8.5,-328.28 8.5,-350.28 195.5,-350.28 195.5,-328.28 8.5,-328.28"/>
<polygon fill="none" stroke="black" points="8.5,-328.28 8.5,-350.28 195.5,-350.28 195.5,-328.28 8.5,-328.28"/>
<text text-anchor="start" x="13.5" y="-337.48" font-family="Helvetica,sans-Serif" font-weight="bold" font-size="11.00">lookup_stand_layer</text>
<text text-anchor="start" x="153.5" y="-336.48" font-family="Helvetica,sans-Serif" font-size="11.00">[table]</text>
<polygon fill="none" stroke="black" points="8.5,-310.28 8.5,-328.28 195.5,-328.28 195.5,-310.28 8.5,-310.28"/>
<text text-anchor="start" x="11.5" y="-316.48" font-family="Helvetica,sans-Serif" font-size="11.00">...</text>
<polygon fill="#ffffff" stroke="transparent" points="8.5,-292.28 8.5,-310.28 195.5,-310.28 195.5,-292.28 8.5,-292.28"/>
<polygon fill="none" stroke="black" points="8.5,-292.28 8.5,-310.28 195.5,-310.28 195.5,-292.28 8.5,-292.28"/>
<polygon fill="#ffffff" stroke="transparent" points="9.5,-293.28 9.5,-309.28 57.5,-309.28 57.5,-293.28 9.5,-293.28"/>
<text text-anchor="start" x="11.5" y="-298.48" font-family="Helvetica,sans-Serif" font-size="11.00"> &#160;</text>
<polygon fill="#ffffff" stroke="transparent" points="57.5,-293.28 57.5,-309.28 134.5,-309.28 134.5,-293.28 57.5,-293.28"/>
<text text-anchor="start" x="77.5" y="-298.48" font-family="Helvetica,sans-Serif" font-size="11.00">0 rows</text>
<polygon fill="#ffffff" stroke="transparent" points="134.5,-293.28 134.5,-309.28 194.5,-309.28 194.5,-293.28 134.5,-293.28"/>
<text text-anchor="start" x="172.5" y="-298.48" font-family="Helvetica,sans-Serif" font-size="11.00">2 &gt;</text>
<polygon fill="black" stroke="black" points="57.5,-293.28 57.5,-309.28 57.5,-309.28 57.5,-293.28 57.5,-293.28"/>
<polygon fill="black" stroke="black" points="134.5,-293.28 134.5,-309.28 134.5,-309.28 134.5,-293.28 134.5,-293.28"/>
</a>
</g>
</g>
<!-- plot&#45;&gt;lookup_stand_layer -->
<g id="edge1" class="edge">
<title>plot:w&#45;&gt;lookup_stand_layer:e</title>
<path fill="none" stroke="black" d="M442.47,-590.51C352.29,-593.34 302.96,-620.15 236,-553.28 198.69,-516.01 249.24,-319.28 196.5,-319.28"/>
<polygon fill="black" stroke="black" points="449,-590.4 457.06,-593.88 453,-590.34 457,-590.28 457,-590.28 457,-590.28 453,-590.34 456.94,-586.68 449,-590.4 449,-590.4"/>
<ellipse fill="none" stroke="black" cx="445.8" cy="-590.46" rx="3.2" ry="3.2"/>
</g>
<!-- wzp_tree -->
<g id="node3" class="node">
<title>wzp_tree</title>
<g id="a_node3"><a xlink:href="../../tables/wzp_tree.html" xlink:title="wzp_tree" target="_top">
<polygon fill="#ffffff" stroke="transparent" points="819,-148.28 819,-382.28 992,-382.28 992,-148.28 819,-148.28"/>
<polygon fill="#f5f5f5" stroke="transparent" points="819.5,-360.28 819.5,-382.28 992.5,-382.28 992.5,-360.28 819.5,-360.28"/>
<polygon fill="none" stroke="black" points="819.5,-360.28 819.5,-382.28 992.5,-382.28 992.5,-360.28 819.5,-360.28"/>
<text text-anchor="start" x="824.5" y="-369.48" font-family="Helvetica,sans-Serif" font-weight="bold" font-size="11.00">wzp_tree</text>
<text text-anchor="start" x="950.5" y="-368.48" font-family="Helvetica,sans-Serif" font-size="11.00">[table]</text>
<polygon fill="none" stroke="black" points="819.5,-338.28 819.5,-360.28 992.5,-360.28 992.5,-338.28 819.5,-338.28"/>
<image xlink:href="../../images/primaryKeys.png" width="11px" height="12px" preserveAspectRatio="xMinYMin meet" x="824.5" y="-355.277"/>
<text text-anchor="start" x="839.5" y="-346.48" font-family="Helvetica,sans-Serif" font-size="11.00">id</text>
<polygon fill="none" stroke="black" points="819.5,-316.28 819.5,-338.28 992.5,-338.28 992.5,-316.28 819.5,-316.28"/>
<image xlink:href="../../images/foreignKeys.png" width="11px" height="12px" preserveAspectRatio="xMinYMin meet" x="824.5" y="-333.277"/>
<text text-anchor="start" x="839.5" y="-324.48" font-family="Helvetica,sans-Serif" font-size="11.00">plot_id</text>
<polygon fill="none" stroke="black" points="819.5,-294.28 819.5,-316.28 992.5,-316.28 992.5,-294.28 819.5,-294.28"/>
<image xlink:href="../../images/foreignKeys.png" width="11px" height="12px" preserveAspectRatio="xMinYMin meet" x="824.5" y="-311.277"/>
<text text-anchor="start" x="839.5" y="-302.48" font-family="Helvetica,sans-Serif" font-size="11.00">tree_status</text>
<polygon fill="none" stroke="black" points="819.5,-272.28 819.5,-294.28 992.5,-294.28 992.5,-272.28 819.5,-272.28"/>
<image xlink:href="../../images/foreignKeys.png" width="11px" height="12px" preserveAspectRatio="xMinYMin meet" x="824.5" y="-289.277"/>
<text text-anchor="start" x="839.5" y="-280.48" font-family="Helvetica,sans-Serif" font-size="11.00">tree_species</text>
<polygon fill="none" stroke="black" points="819.5,-250.28 819.5,-272.28 992.5,-272.28 992.5,-250.28 819.5,-250.28"/>
<image xlink:href="../../images/foreignKeys.png" width="11px" height="12px" preserveAspectRatio="xMinYMin meet" x="824.5" y="-267.277"/>
<text text-anchor="start" x="839.5" y="-258.48" font-family="Helvetica,sans-Serif" font-size="11.00">stem_breakage</text>
<polygon fill="none" stroke="black" points="819.5,-228.28 819.5,-250.28 992.5,-250.28 992.5,-228.28 819.5,-228.28"/>
<image xlink:href="../../images/foreignKeys.png" width="11px" height="12px" preserveAspectRatio="xMinYMin meet" x="824.5" y="-245.277"/>
<text text-anchor="start" x="839.5" y="-236.48" font-family="Helvetica,sans-Serif" font-size="11.00">stem_form</text>
<polygon fill="none" stroke="black" points="819.5,-206.28 819.5,-228.28 992.5,-228.28 992.5,-206.28 819.5,-206.28"/>
<image xlink:href="../../images/foreignKeys.png" width="11px" height="12px" preserveAspectRatio="xMinYMin meet" x="824.5" y="-223.277"/>
<text text-anchor="start" x="839.5" y="-214.48" font-family="Helvetica,sans-Serif" font-size="11.00">pruning</text>
<polygon fill="none" stroke="black" points="819.5,-184.28 819.5,-206.28 992.5,-206.28 992.5,-184.28 819.5,-184.28"/>
<image xlink:href="../../images/foreignKeys.png" width="11px" height="12px" preserveAspectRatio="xMinYMin meet" x="824.5" y="-201.277"/>
<text text-anchor="start" x="839.5" y="-192.48" font-family="Helvetica,sans-Serif" font-size="11.00">stand_layer</text>
<polygon fill="none" stroke="black" points="819.5,-166.28 819.5,-184.28 992.5,-184.28 992.5,-166.28 819.5,-166.28"/>
<text text-anchor="start" x="822.5" y="-172.48" font-family="Helvetica,sans-Serif" font-size="11.00">...</text>
<polygon fill="#ffffff" stroke="transparent" points="819.5,-148.28 819.5,-166.28 992.5,-166.28 992.5,-148.28 819.5,-148.28"/>
<polygon fill="none" stroke="black" points="819.5,-148.28 819.5,-166.28 992.5,-166.28 992.5,-148.28 819.5,-148.28"/>
<polygon fill="#ffffff" stroke="transparent" points="820.5,-149.28 820.5,-165.28 876.5,-165.28 876.5,-149.28 820.5,-149.28"/>
<text text-anchor="start" x="822.5" y="-154.48" font-family="Helvetica,sans-Serif" font-size="11.00">&lt; 7</text>
<polygon fill="#ffffff" stroke="transparent" points="876.5,-149.28 876.5,-165.28 948.5,-165.28 948.5,-149.28 876.5,-149.28"/>
<text text-anchor="start" x="894" y="-154.48" font-family="Helvetica,sans-Serif" font-size="11.00">0 rows</text>
<polygon fill="#ffffff" stroke="transparent" points="948.5,-149.28 948.5,-165.28 991.5,-165.28 991.5,-149.28 948.5,-149.28"/>
<text text-anchor="start" x="981.5" y="-154.48" font-family="Helvetica,sans-Serif" font-size="11.00"> &#160;</text>
<polygon fill="black" stroke="black" points="876.5,-149.28 876.5,-165.28 876.5,-165.28 876.5,-149.28 876.5,-149.28"/>
<polygon fill="black" stroke="black" points="948.5,-149.28 948.5,-165.28 948.5,-165.28 948.5,-149.28 948.5,-149.28"/>
</a>
</g>
</g>
<!-- wzp_tree&#45;&gt;plot -->
<g id="edge2" class="edge">
<title>wzp_tree:w&#45;&gt;plot:e</title>
<path fill="none" stroke="black" d="M803.8,-328.62C730.51,-343.9 846.6,-485.46 778,-553.28 707.18,-623.29 656.59,-590.28 557,-590.28"/>
<polygon fill="black" stroke="black" points="810.53,-328.01 818.83,-330.86 814.52,-327.64 818.5,-327.28 818.5,-327.28 818.5,-327.28 814.52,-327.64 818.17,-323.69 810.53,-328.01 810.53,-328.01"/>
<ellipse fill="none" stroke="black" cx="807.35" cy="-328.3" rx="3.2" ry="3.2"/>
</g>
<!-- wzp_tree&#45;&gt;lookup_stand_layer -->
<g id="edge4" class="edge">
<title>wzp_tree:w&#45;&gt;lookup_stand_layer:e</title>
<path fill="none" stroke="black" d="M803.87,-192.65C769.12,-176.92 823.08,-94.74 778,-61.28 729.65,-25.38 281.69,-22.05 236,-61.28 191.99,-99.06 254.5,-319.28 196.5,-319.28"/>
<polygon fill="black" stroke="black" points="810.63,-193.86 817.86,-198.82 814.56,-194.57 818.5,-195.28 818.5,-195.28 818.5,-195.28 814.56,-194.57 819.14,-191.73 810.63,-193.86 810.63,-193.86"/>
<ellipse fill="none" stroke="black" cx="807.48" cy="-193.3" rx="3.2" ry="3.2"/>
</g>
<!-- lookup_pruning -->
<g id="node4" class="node">
<title>lookup_pruning</title>
<g id="a_node4"><a xlink:href="../../tables/lookup_pruning.html" xlink:title="lookup_pruning" target="_top">
<polygon fill="#ffffff" stroke="transparent" points="427,-72.28 427,-130.28 587,-130.28 587,-72.28 427,-72.28"/>
<polygon fill="#f5f5f5" stroke="transparent" points="427,-108.28 427,-130.28 587,-130.28 587,-108.28 427,-108.28"/>
<polygon fill="none" stroke="black" points="427,-108.28 427,-130.28 587,-130.28 587,-108.28 427,-108.28"/>
<text text-anchor="start" x="432" y="-117.48" font-family="Helvetica,sans-Serif" font-weight="bold" font-size="11.00">lookup_pruning</text>
<text text-anchor="start" x="545" y="-116.48" font-family="Helvetica,sans-Serif" font-size="11.00">[table]</text>
<polygon fill="none" stroke="black" points="427,-90.28 427,-108.28 587,-108.28 587,-90.28 427,-90.28"/>
<text text-anchor="start" x="430" y="-96.48" font-family="Helvetica,sans-Serif" font-size="11.00">...</text>
<polygon fill="#ffffff" stroke="transparent" points="427,-72.28 427,-90.28 587,-90.28 587,-72.28 427,-72.28"/>
<polygon fill="none" stroke="black" points="427,-72.28 427,-90.28 587,-90.28 587,-72.28 427,-72.28"/>
<polygon fill="#ffffff" stroke="transparent" points="428,-73.28 428,-89.28 467,-89.28 467,-73.28 428,-73.28"/>
<text text-anchor="start" x="430" y="-78.48" font-family="Helvetica,sans-Serif" font-size="11.00"> &#160;</text>
<polygon fill="#ffffff" stroke="transparent" points="467,-73.28 467,-89.28 535,-89.28 535,-73.28 467,-73.28"/>
<text text-anchor="start" x="482.5" y="-78.48" font-family="Helvetica,sans-Serif" font-size="11.00">0 rows</text>
<polygon fill="#ffffff" stroke="transparent" points="535,-73.28 535,-89.28 586,-89.28 586,-73.28 535,-73.28"/>
<text text-anchor="start" x="564" y="-78.48" font-family="Helvetica,sans-Serif" font-size="11.00">1 &gt;</text>
<polygon fill="black" stroke="black" points="467,-73.28 467,-89.28 467,-89.28 467,-73.28 467,-73.28"/>
<polygon fill="black" stroke="black" points="535,-73.28 535,-89.28 535,-89.28 535,-73.28 535,-73.28"/>
</a>
</g>
</g>
<!-- wzp_tree&#45;&gt;lookup_pruning -->
<g id="edge3" class="edge">
<title>wzp_tree:w&#45;&gt;lookup_pruning:e</title>
<path fill="none" stroke="black" d="M804.37,-213.32C787.73,-200.5 803.74,-159.83 778,-140.28 709.2,-88.03 674.39,-99.28 588,-99.28"/>
<polygon fill="black" stroke="black" points="810.8,-215.12 817.53,-220.74 814.65,-216.2 818.5,-217.28 818.5,-217.28 818.5,-217.28 814.65,-216.2 819.47,-213.81 810.8,-215.12 810.8,-215.12"/>
<ellipse fill="none" stroke="black" cx="807.72" cy="-214.26" rx="3.2" ry="3.2"/>
</g>
<!-- lookup_stem_breakage -->
<g id="node5" class="node">
<title>lookup_stem_breakage</title>
<g id="a_node5"><a xlink:href="../../tables/lookup_stem_breakage.html" xlink:title="lookup_stem_breakage" target="_top">
<polygon fill="#ffffff" stroke="transparent" points="244,-230.28 244,-384.28 770,-384.28 770,-230.28 244,-230.28"/>
<polygon fill="#f5f5f5" stroke="transparent" points="246,-360.28 246,-382.28 768,-382.28 768,-360.28 246,-360.28"/>
<polygon fill="none" stroke="black" points="246,-360.28 246,-382.28 768,-382.28 768,-360.28 246,-360.28"/>
<text text-anchor="start" x="251" y="-369.48" font-family="Helvetica,sans-Serif" font-weight="bold" font-size="11.00">lookup_stem_breakage</text>
<text text-anchor="start" x="726" y="-368.48" font-family="Helvetica,sans-Serif" font-size="11.00">[table]</text>
<polygon fill="none" stroke="black" points="246,-338.28 246,-360.28 434,-360.28 434,-338.28 246,-338.28"/>
<text text-anchor="start" x="266" y="-346.48" font-family="Helvetica,sans-Serif" font-size="11.00">name_de</text>
<polygon fill="none" stroke="black" points="434,-338.28 434,-360.28 768,-360.28 768,-338.28 434,-338.28"/>
<text text-anchor="start" x="437" y="-346.48" font-family="Helvetica,sans-Serif" font-size="11.00">varchar[150]</text>
<polygon fill="none" stroke="black" points="246,-316.28 246,-338.28 434,-338.28 434,-316.28 246,-316.28"/>
<text text-anchor="start" x="266" y="-324.48" font-family="Helvetica,sans-Serif" font-size="11.00">name_en</text>
<polygon fill="none" stroke="black" points="434,-316.28 434,-338.28 768,-338.28 768,-316.28 434,-316.28"/>
<text text-anchor="start" x="437" y="-324.48" font-family="Helvetica,sans-Serif" font-size="11.00">varchar[150]</text>
<polygon fill="none" stroke="black" points="246,-294.28 246,-316.28 434,-316.28 434,-294.28 246,-294.28"/>
<text text-anchor="start" x="266" y="-302.48" font-family="Helvetica,sans-Serif" font-size="11.00">interval</text>
<polygon fill="none" stroke="black" points="434,-294.28 434,-316.28 768,-316.28 768,-294.28 434,-294.28"/>
<text text-anchor="start" x="437" y="-302.48" font-family="Helvetica,sans-Serif" font-size="11.00">&quot;private_ci2027_001&quot;.&quot;_enum_interval_name&quot;[2147483647]</text>
<polygon fill="none" stroke="black" points="246,-272.28 246,-294.28 434,-294.28 434,-272.28 246,-272.28"/>
<text text-anchor="start" x="266" y="-280.48" font-family="Helvetica,sans-Serif" font-size="11.00">sort</text>
<polygon fill="none" stroke="black" points="434,-272.28 434,-294.28 768,-294.28 768,-272.28 434,-272.28"/>
<text text-anchor="start" x="437" y="-280.48" font-family="Helvetica,sans-Serif" font-size="11.00">int4[10]</text>
<polygon fill="#ffffff" stroke="transparent" points="246,-250.28 246,-272.28 434,-272.28 434,-250.28 246,-250.28"/>
<polygon fill="none" stroke="black" points="246,-250.28 246,-272.28 434,-272.28 434,-250.28 246,-250.28"/>
<text text-anchor="start" x="266" y="-258.48" font-family="Helvetica,sans-Serif" font-size="11.00">abbreviation</text>
<polygon fill="none" stroke="black" points="434,-250.28 434,-272.28 768,-272.28 768,-250.28 434,-250.28"/>
<text text-anchor="start" x="437" y="-258.48" font-family="Helvetica,sans-Serif" font-size="11.00">&quot;private_ci2027_001&quot;.&quot;enum_stem_breakage&quot;[2147483647]</text>
<polygon fill="#ffffff" stroke="transparent" points="246,-232.28 246,-250.28 768,-250.28 768,-232.28 246,-232.28"/>
<polygon fill="none" stroke="black" points="246,-232.28 246,-250.28 768,-250.28 768,-232.28 246,-232.28"/>
<polygon fill="#ffffff" stroke="transparent" points="247,-233.28 247,-249.28 415,-249.28 415,-233.28 247,-233.28"/>
<text text-anchor="start" x="249" y="-238.48" font-family="Helvetica,sans-Serif" font-size="11.00">&lt; 0</text>
<polygon fill="#ffffff" stroke="transparent" points="415,-233.28 415,-249.28 600,-249.28 600,-233.28 415,-233.28"/>
<text text-anchor="start" x="489" y="-238.48" font-family="Helvetica,sans-Serif" font-size="11.00">0 rows</text>
<polygon fill="#ffffff" stroke="transparent" points="600,-233.28 600,-249.28 767,-249.28 767,-233.28 600,-233.28"/>
<text text-anchor="start" x="745" y="-238.48" font-family="Helvetica,sans-Serif" font-size="11.00">1 &gt;</text>
<polygon fill="black" stroke="black" points="415,-233.28 415,-249.28 415,-249.28 415,-233.28 415,-233.28"/>
<polygon fill="black" stroke="black" points="600,-233.28 600,-249.28 600,-249.28 600,-233.28 600,-233.28"/>
<polygon fill="none" stroke="black" stroke-width="2" points="245,-231.28 245,-383.28 769,-383.28 769,-231.28 245,-231.28"/>
</a>
</g>
</g>
<!-- wzp_tree&#45;&gt;lookup_stem_breakage -->
<g id="edge5" class="edge">
<title>wzp_tree:w&#45;&gt;lookup_stem_breakage:e</title>
<path fill="none" stroke="black" d="M803.84,-261.28C792.41,-261.28 785.16,-261.28 769,-261.28"/>
<polygon fill="black" stroke="black" points="810.5,-261.28 818.5,-264.88 814.5,-261.28 818.5,-261.28 818.5,-261.28 818.5,-261.28 814.5,-261.28 818.5,-257.68 810.5,-261.28 810.5,-261.28"/>
<ellipse fill="none" stroke="black" cx="807.3" cy="-261.28" rx="3.2" ry="3.2"/>
</g>
<!-- lookup_stem_form -->
<g id="node6" class="node">
<title>lookup_stem_form</title>
<g id="a_node6"><a xlink:href="../../tables/lookup_stem_form.html" xlink:title="lookup_stem_form" target="_top">
<polygon fill="#ffffff" stroke="transparent" points="417,-151.28 417,-209.28 597,-209.28 597,-151.28 417,-151.28"/>
<polygon fill="#f5f5f5" stroke="transparent" points="417,-187.28 417,-209.28 597,-209.28 597,-187.28 417,-187.28"/>
<polygon fill="none" stroke="black" points="417,-187.28 417,-209.28 597,-209.28 597,-187.28 417,-187.28"/>
<text text-anchor="start" x="422" y="-196.48" font-family="Helvetica,sans-Serif" font-weight="bold" font-size="11.00">lookup_stem_form</text>
<text text-anchor="start" x="555" y="-195.48" font-family="Helvetica,sans-Serif" font-size="11.00">[table]</text>
<polygon fill="none" stroke="black" points="417,-169.28 417,-187.28 597,-187.28 597,-169.28 417,-169.28"/>
<text text-anchor="start" x="420" y="-175.48" font-family="Helvetica,sans-Serif" font-size="11.00">...</text>
<polygon fill="#ffffff" stroke="transparent" points="417,-151.28 417,-169.28 597,-169.28 597,-151.28 417,-151.28"/>
<polygon fill="none" stroke="black" points="417,-151.28 417,-169.28 597,-169.28 597,-151.28 417,-151.28"/>
<polygon fill="#ffffff" stroke="transparent" points="418,-152.28 418,-168.28 464,-168.28 464,-152.28 418,-152.28"/>
<text text-anchor="start" x="420" y="-157.48" font-family="Helvetica,sans-Serif" font-size="11.00"> &#160;</text>
<polygon fill="#ffffff" stroke="transparent" points="464,-152.28 464,-168.28 539,-168.28 539,-152.28 464,-152.28"/>
<text text-anchor="start" x="483" y="-157.48" font-family="Helvetica,sans-Serif" font-size="11.00">0 rows</text>
<polygon fill="#ffffff" stroke="transparent" points="539,-152.28 539,-168.28 596,-168.28 596,-152.28 539,-152.28"/>
<text text-anchor="start" x="574" y="-157.48" font-family="Helvetica,sans-Serif" font-size="11.00">1 &gt;</text>
<polygon fill="black" stroke="black" points="464,-152.28 464,-168.28 464,-168.28 464,-152.28 464,-152.28"/>
<polygon fill="black" stroke="black" points="539,-152.28 539,-168.28 539,-168.28 539,-152.28 539,-152.28"/>
</a>
</g>
</g>
<!-- wzp_tree&#45;&gt;lookup_stem_form -->
<g id="edge6" class="edge">
<title>wzp_tree:w&#45;&gt;lookup_stem_form:e</title>
<path fill="none" stroke="black" d="M804.36,-236.32C795.93,-232.22 791.06,-224.81 778,-220.28 700.39,-193.35 680.15,-178.28 598,-178.28"/>
<polygon fill="black" stroke="black" points="810.67,-237.64 817.76,-242.8 814.58,-238.46 818.5,-239.28 818.5,-239.28 818.5,-239.28 814.58,-238.46 819.24,-235.75 810.67,-237.64 810.67,-237.64"/>
<ellipse fill="none" stroke="black" cx="807.54" cy="-236.99" rx="3.2" ry="3.2"/>
</g>
<!-- lookup_tree_species -->
<g id="node7" class="node">
<title>lookup_tree_species</title>
<g id="a_node7"><a xlink:href="../../tables/lookup_tree_species.html" xlink:title="lookup_tree_species" target="_top">
<polygon fill="#ffffff" stroke="transparent" points="410,-405.28 410,-463.28 604,-463.28 604,-405.28 410,-405.28"/>
<polygon fill="#f5f5f5" stroke="transparent" points="410,-441.28 410,-463.28 604,-463.28 604,-441.28 410,-441.28"/>
<polygon fill="none" stroke="black" points="410,-441.28 410,-463.28 604,-463.28 604,-441.28 410,-441.28"/>
<text text-anchor="start" x="415" y="-450.48" font-family="Helvetica,sans-Serif" font-weight="bold" font-size="11.00">lookup_tree_species</text>
<text text-anchor="start" x="562" y="-449.48" font-family="Helvetica,sans-Serif" font-size="11.00">[table]</text>
<polygon fill="none" stroke="black" points="410,-423.28 410,-441.28 604,-441.28 604,-423.28 410,-423.28"/>
<text text-anchor="start" x="413" y="-429.48" font-family="Helvetica,sans-Serif" font-size="11.00">...</text>
<polygon fill="#ffffff" stroke="transparent" points="410,-405.28 410,-423.28 604,-423.28 604,-405.28 410,-405.28"/>
<polygon fill="none" stroke="black" points="410,-405.28 410,-423.28 604,-423.28 604,-405.28 410,-405.28"/>
<polygon fill="#ffffff" stroke="transparent" points="411,-406.28 411,-422.28 457,-422.28 457,-406.28 411,-406.28"/>
<text text-anchor="start" x="413" y="-411.48" font-family="Helvetica,sans-Serif" font-size="11.00"> &#160;</text>
<polygon fill="#ffffff" stroke="transparent" points="457,-406.28 457,-422.28 546,-422.28 546,-406.28 457,-406.28"/>
<text text-anchor="start" x="476" y="-411.48" font-family="Helvetica,sans-Serif" font-size="11.00">125 rows</text>
<polygon fill="#ffffff" stroke="transparent" points="546,-406.28 546,-422.28 603,-422.28 603,-406.28 546,-406.28"/>
<text text-anchor="start" x="581" y="-411.48" font-family="Helvetica,sans-Serif" font-size="11.00">3 &gt;</text>
<polygon fill="black" stroke="black" points="457,-406.28 457,-422.28 457,-422.28 457,-406.28 457,-406.28"/>
<polygon fill="black" stroke="black" points="546,-406.28 546,-422.28 546,-422.28 546,-406.28 546,-406.28"/>
</a>
</g>
</g>
<!-- wzp_tree&#45;&gt;lookup_tree_species -->
<g id="edge7" class="edge">
<title>wzp_tree:w&#45;&gt;lookup_tree_species:e</title>
<path fill="none" stroke="black" d="M804.28,-286.08C776.24,-300.22 813.37,-364.43 778,-395.28 718.75,-446.96 683.63,-432.28 605,-432.28"/>
<polygon fill="black" stroke="black" points="810.65,-284.82 819.19,-286.81 814.58,-284.05 818.5,-283.28 818.5,-283.28 818.5,-283.28 814.58,-284.05 817.81,-279.74 810.65,-284.82 810.65,-284.82"/>
<ellipse fill="none" stroke="black" cx="807.51" cy="-285.44" rx="3.2" ry="3.2"/>
</g>
<!-- lookup_tree_status -->
<g id="node8" class="node">
<title>lookup_tree_status</title>
<g id="a_node8"><a xlink:href="../../tables/lookup_tree_status.html" xlink:title="lookup_tree_status" target="_top">
<polygon fill="#ffffff" stroke="transparent" points="414.5,-484.28 414.5,-542.28 599.5,-542.28 599.5,-484.28 414.5,-484.28"/>
<polygon fill="#f5f5f5" stroke="transparent" points="415,-520.28 415,-542.28 600,-542.28 600,-520.28 415,-520.28"/>
<polygon fill="none" stroke="black" points="415,-520.28 415,-542.28 600,-542.28 600,-520.28 415,-520.28"/>
<text text-anchor="start" x="420" y="-529.48" font-family="Helvetica,sans-Serif" font-weight="bold" font-size="11.00">lookup_tree_status</text>
<text text-anchor="start" x="558" y="-528.48" font-family="Helvetica,sans-Serif" font-size="11.00">[table]</text>
<polygon fill="none" stroke="black" points="415,-502.28 415,-520.28 600,-520.28 600,-502.28 415,-502.28"/>
<text text-anchor="start" x="418" y="-508.48" font-family="Helvetica,sans-Serif" font-size="11.00">...</text>
<polygon fill="#ffffff" stroke="transparent" points="415,-484.28 415,-502.28 600,-502.28 600,-484.28 415,-484.28"/>
<polygon fill="none" stroke="black" points="415,-484.28 415,-502.28 600,-502.28 600,-484.28 415,-484.28"/>
<polygon fill="#ffffff" stroke="transparent" points="416,-485.28 416,-501.28 464,-501.28 464,-485.28 416,-485.28"/>
<text text-anchor="start" x="418" y="-490.48" font-family="Helvetica,sans-Serif" font-size="11.00"> &#160;</text>
<polygon fill="#ffffff" stroke="transparent" points="464,-485.28 464,-501.28 540,-501.28 540,-485.28 464,-485.28"/>
<text text-anchor="start" x="483.5" y="-490.48" font-family="Helvetica,sans-Serif" font-size="11.00">0 rows</text>
<polygon fill="#ffffff" stroke="transparent" points="540,-485.28 540,-501.28 599,-501.28 599,-485.28 540,-485.28"/>
<text text-anchor="start" x="577" y="-490.48" font-family="Helvetica,sans-Serif" font-size="11.00">1 &gt;</text>
<polygon fill="black" stroke="black" points="464,-485.28 464,-501.28 464,-501.28 464,-485.28 464,-485.28"/>
<polygon fill="black" stroke="black" points="540,-485.28 540,-501.28 540,-501.28 540,-485.28 540,-485.28"/>
</a>
</g>
</g>
<!-- wzp_tree&#45;&gt;lookup_tree_status -->
<g id="edge8" class="edge">
<title>wzp_tree:w&#45;&gt;lookup_tree_status:e</title>
<path fill="none" stroke="black" d="M803.97,-307.11C754.13,-322.04 829.29,-424.46 778,-474.28 720.35,-530.27 681.37,-511.28 601,-511.28"/>
<polygon fill="black" stroke="black" points="810.56,-306.28 818.95,-308.85 814.53,-305.78 818.5,-305.28 818.5,-305.28 818.5,-305.28 814.53,-305.78 818.05,-301.71 810.56,-306.28 810.56,-306.28"/>
<ellipse fill="none" stroke="black" cx="807.39" cy="-306.68" rx="3.2" ry="3.2"/>
</g>
</g>
</svg>
