<?xml version="1.0" encoding="UTF-8" standalone="no"?>
<!DOCTYPE svg PUBLIC "-//W3C//DTD SVG 1.1//EN"
 "http://www.w3.org/Graphics/SVG/1.1/DTD/svg11.dtd">
<!-- Generated by graphviz version 2.43.0 (0)
 -->
<!-- Title: twoDegreesRelationshipsDiagram Pages: 1 -->
<svg width="653pt" height="418pt"
 viewBox="0.00 0.00 653.00 418.00" xmlns="http://www.w3.org/2000/svg" xmlns:xlink="http://www.w3.org/1999/xlink">
<g id="graph0" class="graph" transform="scale(1 1) rotate(0) translate(4 414)">
<title>twoDegreesRelationshipsDiagram</title>
<polygon fill="#ffffff" stroke="transparent" points="-4,4 -4,-414 649,-414 649,4 -4,4"/>
<text text-anchor="middle" x="79.5" y="-7.2" font-family="Helvetica,sans-Serif" font-size="11.00">Generated by SchemaSpy</text>
<!-- edges -->
<g id="node1" class="node">
<title>edges</title>
<g id="a_node1"><a xlink:href="../../tables/edges.html" xlink:title="edges" target="_top">
<polygon fill="#ffffff" stroke="transparent" points="528,-104 528,-272 637,-272 637,-104 528,-104"/>
<polygon fill="#f5f5f5" stroke="transparent" points="528.5,-250 528.5,-272 637.5,-272 637.5,-250 528.5,-250"/>
<polygon fill="none" stroke="black" points="528.5,-250 528.5,-272 637.5,-272 637.5,-250 528.5,-250"/>
<text text-anchor="start" x="533.5" y="-259.2" font-family="Helvetica,sans-Serif" font-weight="bold" font-size="11.00">edges</text>
<text text-anchor="start" x="595.5" y="-258.2" font-family="Helvetica,sans-Serif" font-size="11.00">[table]</text>
<polygon fill="none" stroke="black" points="528.5,-228 528.5,-250 637.5,-250 637.5,-228 528.5,-228"/>
<image xlink:href="../../images/primaryKeys.png" width="11px" height="12px" preserveAspectRatio="xMinYMin meet" x="533.5" y="-245"/>
<text text-anchor="start" x="548.5" y="-236.2" font-family="Helvetica,sans-Serif" font-size="11.00">id</text>
<polygon fill="none" stroke="black" points="528.5,-206 528.5,-228 637.5,-228 637.5,-206 528.5,-206"/>
<image xlink:href="../../images/foreignKeys.png" width="11px" height="12px" preserveAspectRatio="xMinYMin meet" x="533.5" y="-223"/>
<text text-anchor="start" x="548.5" y="-214.2" font-family="Helvetica,sans-Serif" font-size="11.00">plot_id</text>
<polygon fill="none" stroke="black" points="528.5,-184 528.5,-206 637.5,-206 637.5,-184 528.5,-184"/>
<image xlink:href="../../images/foreignKeys.png" width="11px" height="12px" preserveAspectRatio="xMinYMin meet" x="533.5" y="-201"/>
<text text-anchor="start" x="548.5" y="-192.2" font-family="Helvetica,sans-Serif" font-size="11.00">edge_state</text>
<polygon fill="none" stroke="black" points="528.5,-162 528.5,-184 637.5,-184 637.5,-162 528.5,-162"/>
<image xlink:href="../../images/foreignKeys.png" width="11px" height="12px" preserveAspectRatio="xMinYMin meet" x="533.5" y="-179"/>
<text text-anchor="start" x="548.5" y="-170.2" font-family="Helvetica,sans-Serif" font-size="11.00">edge_type</text>
<polygon fill="none" stroke="black" points="528.5,-140 528.5,-162 637.5,-162 637.5,-140 528.5,-140"/>
<image xlink:href="../../images/foreignKeys.png" width="11px" height="12px" preserveAspectRatio="xMinYMin meet" x="533.5" y="-157"/>
<text text-anchor="start" x="548.5" y="-148.2" font-family="Helvetica,sans-Serif" font-size="11.00">terrain</text>
<polygon fill="none" stroke="black" points="528.5,-122 528.5,-140 637.5,-140 637.5,-122 528.5,-122"/>
<text text-anchor="start" x="531.5" y="-128.2" font-family="Helvetica,sans-Serif" font-size="11.00">...</text>
<polygon fill="#ffffff" stroke="transparent" points="528.5,-104 528.5,-122 637.5,-122 637.5,-104 528.5,-104"/>
<polygon fill="none" stroke="black" points="528.5,-104 528.5,-122 637.5,-122 637.5,-104 528.5,-104"/>
<polygon fill="#ffffff" stroke="transparent" points="529.5,-105 529.5,-121 563.5,-121 563.5,-105 529.5,-105"/>
<text text-anchor="start" x="531.5" y="-110.2" font-family="Helvetica,sans-Serif" font-size="11.00">&lt; 4</text>
<polygon fill="#ffffff" stroke="transparent" points="563.5,-105 563.5,-121 614.5,-121 614.5,-105 563.5,-105"/>
<text text-anchor="start" x="570.5" y="-110.2" font-family="Helvetica,sans-Serif" font-size="11.00">0 rows</text>
<polygon fill="#ffffff" stroke="transparent" points="614.5,-105 614.5,-121 636.5,-121 636.5,-105 614.5,-105"/>
<text text-anchor="start" x="626.5" y="-110.2" font-family="Helvetica,sans-Serif" font-size="11.00"> &#160;</text>
<polygon fill="black" stroke="black" points="563.5,-105 563.5,-121 563.5,-121 563.5,-105 563.5,-105"/>
<polygon fill="black" stroke="black" points="614.5,-105 614.5,-121 614.5,-121 614.5,-105 614.5,-105"/>
</a>
</g>
</g>
<!-- lookup_edge_state -->
<g id="node2" class="node">
<title>lookup_edge_state</title>
<g id="a_node2"><a xlink:href="../../tables/lookup_edge_state.html" xlink:title="lookup_edge_state" target="_top">
<polygon fill="#ffffff" stroke="transparent" points="8,-195 8,-327 479,-327 479,-195 8,-195"/>
<polygon fill="#f5f5f5" stroke="transparent" points="10.5,-303 10.5,-325 477.5,-325 477.5,-303 10.5,-303"/>
<polygon fill="none" stroke="black" points="10.5,-303 10.5,-325 477.5,-325 477.5,-303 10.5,-303"/>
<text text-anchor="start" x="15.5" y="-312.2" font-family="Helvetica,sans-Serif" font-weight="bold" font-size="11.00">lookup_edge_state</text>
<text text-anchor="start" x="435.5" y="-311.2" font-family="Helvetica,sans-Serif" font-size="11.00">[table]</text>
<polygon fill="none" stroke="black" points="10.5,-281 10.5,-303 167.5,-303 167.5,-281 10.5,-281"/>
<text text-anchor="start" x="30.5" y="-289.2" font-family="Helvetica,sans-Serif" font-size="11.00">name_de</text>
<polygon fill="none" stroke="black" points="167.5,-281 167.5,-303 477.5,-303 477.5,-281 167.5,-281"/>
<text text-anchor="start" x="170.5" y="-289.2" font-family="Helvetica,sans-Serif" font-size="11.00">varchar[150]</text>
<polygon fill="none" stroke="black" points="10.5,-259 10.5,-281 167.5,-281 167.5,-259 10.5,-259"/>
<text text-anchor="start" x="30.5" y="-267.2" font-family="Helvetica,sans-Serif" font-size="11.00">name_en</text>
<polygon fill="none" stroke="black" points="167.5,-259 167.5,-281 477.5,-281 477.5,-259 167.5,-259"/>
<text text-anchor="start" x="170.5" y="-267.2" font-family="Helvetica,sans-Serif" font-size="11.00">varchar[150]</text>
<polygon fill="none" stroke="black" points="10.5,-237 10.5,-259 167.5,-259 167.5,-237 10.5,-237"/>
<text text-anchor="start" x="30.5" y="-245.2" font-family="Helvetica,sans-Serif" font-size="11.00">sort</text>
<polygon fill="none" stroke="black" points="167.5,-237 167.5,-259 477.5,-259 477.5,-237 167.5,-237"/>
<text text-anchor="start" x="170.5" y="-245.2" font-family="Helvetica,sans-Serif" font-size="11.00">int4[10]</text>
<polygon fill="#ffffff" stroke="transparent" points="10.5,-215 10.5,-237 167.5,-237 167.5,-215 10.5,-215"/>
<polygon fill="none" stroke="black" points="10.5,-215 10.5,-237 167.5,-237 167.5,-215 10.5,-215"/>
<text text-anchor="start" x="30.5" y="-223.2" font-family="Helvetica,sans-Serif" font-size="11.00">abbreviation</text>
<polygon fill="none" stroke="black" points="167.5,-215 167.5,-237 477.5,-237 477.5,-215 167.5,-215"/>
<text text-anchor="start" x="170.5" y="-223.2" font-family="Helvetica,sans-Serif" font-size="11.00">&quot;private_ci2027_001&quot;.&quot;enum_edge_state&quot;[2147483647]</text>
<polygon fill="#ffffff" stroke="transparent" points="10.5,-197 10.5,-215 477.5,-215 477.5,-197 10.5,-197"/>
<polygon fill="none" stroke="black" points="10.5,-197 10.5,-215 477.5,-215 477.5,-197 10.5,-197"/>
<polygon fill="#ffffff" stroke="transparent" points="11.5,-198 11.5,-214 161.5,-214 161.5,-198 11.5,-198"/>
<text text-anchor="start" x="13.5" y="-203.2" font-family="Helvetica,sans-Serif" font-size="11.00">&lt; 0</text>
<polygon fill="#ffffff" stroke="transparent" points="161.5,-198 161.5,-214 327.5,-214 327.5,-198 161.5,-198"/>
<text text-anchor="start" x="226" y="-203.2" font-family="Helvetica,sans-Serif" font-size="11.00">0 rows</text>
<polygon fill="#ffffff" stroke="transparent" points="327.5,-198 327.5,-214 476.5,-214 476.5,-198 327.5,-198"/>
<text text-anchor="start" x="454.5" y="-203.2" font-family="Helvetica,sans-Serif" font-size="11.00">1 &gt;</text>
<polygon fill="black" stroke="black" points="161.5,-198 161.5,-214 161.5,-214 161.5,-198 161.5,-198"/>
<polygon fill="black" stroke="black" points="327.5,-198 327.5,-214 327.5,-214 327.5,-198 327.5,-198"/>
<polygon fill="none" stroke="black" stroke-width="2" points="9,-196 9,-326 478,-326 478,-196 9,-196"/>
</a>
</g>
</g>
<!-- edges&#45;&gt;lookup_edge_state -->
<g id="edge1" class="edge">
<title>edges:w&#45;&gt;lookup_edge_state:e</title>
<path fill="none" stroke="black" d="M513.32,-199.31C501.37,-207.83 498.23,-226 478.5,-226"/>
<polygon fill="black" stroke="black" points="519.85,-197.33 528.55,-198.44 523.67,-196.16 527.5,-195 527.5,-195 527.5,-195 523.67,-196.16 526.45,-191.56 519.85,-197.33 519.85,-197.33"/>
<ellipse fill="none" stroke="black" cx="516.78" cy="-198.26" rx="3.2" ry="3.2"/>
</g>
<!-- lookup_edge_type -->
<g id="node3" class="node">
<title>lookup_edge_type</title>
<g id="a_node3"><a xlink:href="../../tables/lookup_edge_type.html" xlink:title="lookup_edge_type" target="_top">
<polygon fill="#ffffff" stroke="transparent" points="154.5,-116 154.5,-174 332.5,-174 332.5,-116 154.5,-116"/>
<polygon fill="#f5f5f5" stroke="transparent" points="154.5,-152 154.5,-174 332.5,-174 332.5,-152 154.5,-152"/>
<polygon fill="none" stroke="black" points="154.5,-152 154.5,-174 332.5,-174 332.5,-152 154.5,-152"/>
<text text-anchor="start" x="159.5" y="-161.2" font-family="Helvetica,sans-Serif" font-weight="bold" font-size="11.00">lookup_edge_type</text>
<text text-anchor="start" x="290.5" y="-160.2" font-family="Helvetica,sans-Serif" font-size="11.00">[table]</text>
<polygon fill="none" stroke="black" points="154.5,-134 154.5,-152 332.5,-152 332.5,-134 154.5,-134"/>
<text text-anchor="start" x="157.5" y="-140.2" font-family="Helvetica,sans-Serif" font-size="11.00">...</text>
<polygon fill="#ffffff" stroke="transparent" points="154.5,-116 154.5,-134 332.5,-134 332.5,-116 154.5,-116"/>
<polygon fill="none" stroke="black" points="154.5,-116 154.5,-134 332.5,-134 332.5,-116 154.5,-116"/>
<polygon fill="#ffffff" stroke="transparent" points="155.5,-117 155.5,-133 200.5,-133 200.5,-117 155.5,-117"/>
<text text-anchor="start" x="157.5" y="-122.2" font-family="Helvetica,sans-Serif" font-size="11.00"> &#160;</text>
<polygon fill="#ffffff" stroke="transparent" points="200.5,-117 200.5,-133 274.5,-133 274.5,-117 200.5,-117"/>
<text text-anchor="start" x="219" y="-122.2" font-family="Helvetica,sans-Serif" font-size="11.00">0 rows</text>
<polygon fill="#ffffff" stroke="transparent" points="274.5,-117 274.5,-133 331.5,-133 331.5,-117 274.5,-117"/>
<text text-anchor="start" x="309.5" y="-122.2" font-family="Helvetica,sans-Serif" font-size="11.00">1 &gt;</text>
<polygon fill="black" stroke="black" points="200.5,-117 200.5,-133 200.5,-133 200.5,-117 200.5,-117"/>
<polygon fill="black" stroke="black" points="274.5,-117 274.5,-133 274.5,-133 274.5,-117 274.5,-117"/>
</a>
</g>
</g>
<!-- edges&#45;&gt;lookup_edge_type -->
<g id="edge2" class="edge">
<title>edges:w&#45;&gt;lookup_edge_type:e</title>
<path fill="none" stroke="black" d="M512.83,-172.7C437.73,-169.59 415.63,-143 333.5,-143"/>
<polygon fill="black" stroke="black" points="519.5,-172.84 527.43,-176.6 523.5,-172.92 527.5,-173 527.5,-173 527.5,-173 523.5,-172.92 527.57,-169.4 519.5,-172.84 519.5,-172.84"/>
<ellipse fill="none" stroke="black" cx="516.3" cy="-172.77" rx="3.2" ry="3.2"/>
</g>
<!-- plot -->
<g id="node4" class="node">
<title>plot</title>
<g id="a_node4"><a xlink:href="../../tables/plot.html" xlink:title="plot" target="_top">
<polygon fill="#ffffff" stroke="transparent" points="194.5,-348 194.5,-406 292.5,-406 292.5,-348 194.5,-348"/>
<polygon fill="#f5f5f5" stroke="transparent" points="194.5,-384 194.5,-406 292.5,-406 292.5,-384 194.5,-384"/>
<polygon fill="none" stroke="black" points="194.5,-384 194.5,-406 292.5,-406 292.5,-384 194.5,-384"/>
<text text-anchor="start" x="199" y="-393.2" font-family="Helvetica,sans-Serif" font-weight="bold" font-size="11.00">plot</text>
<text text-anchor="start" x="250.5" y="-392.2" font-family="Helvetica,sans-Serif" font-size="11.00">[table]</text>
<polygon fill="none" stroke="black" points="194.5,-366 194.5,-384 292.5,-384 292.5,-366 194.5,-366"/>
<text text-anchor="start" x="197.5" y="-372.2" font-family="Helvetica,sans-Serif" font-size="11.00">...</text>
<polygon fill="#ffffff" stroke="transparent" points="194.5,-348 194.5,-366 292.5,-366 292.5,-348 194.5,-348"/>
<polygon fill="none" stroke="black" points="194.5,-348 194.5,-366 292.5,-366 292.5,-348 194.5,-348"/>
<polygon fill="#ffffff" stroke="transparent" points="195.5,-349 195.5,-365 226.5,-365 226.5,-349 195.5,-349"/>
<text text-anchor="start" x="197.5" y="-354.2" font-family="Helvetica,sans-Serif" font-size="11.00">&lt; 24</text>
<polygon fill="#ffffff" stroke="transparent" points="226.5,-349 226.5,-365 267.5,-365 267.5,-349 226.5,-349"/>
<text text-anchor="start" x="228.5" y="-354.2" font-family="Helvetica,sans-Serif" font-size="11.00">0 rows</text>
<polygon fill="#ffffff" stroke="transparent" points="267.5,-349 267.5,-365 291.5,-365 291.5,-349 267.5,-349"/>
<text text-anchor="start" x="269.5" y="-354.2" font-family="Helvetica,sans-Serif" font-size="11.00">7 &gt;</text>
<polygon fill="black" stroke="black" points="226.5,-349 226.5,-365 226.5,-365 226.5,-349 226.5,-349"/>
<polygon fill="black" stroke="black" points="267.5,-349 267.5,-365 267.5,-365 267.5,-349 267.5,-349"/>
</a>
</g>
</g>
<!-- edges&#45;&gt;plot -->
<g id="edge3" class="edge">
<title>edges:w&#45;&gt;plot:e</title>
<path fill="none" stroke="black" d="M513.16,-219.64C482.09,-234.13 525.19,-304.61 487,-338 421.08,-395.63 381.06,-375 293.5,-375"/>
<polygon fill="black" stroke="black" points="519.63,-218.45 528.15,-220.54 523.57,-217.72 527.5,-217 527.5,-217 527.5,-217 523.57,-217.72 526.85,-213.46 519.63,-218.45 519.63,-218.45"/>
<ellipse fill="none" stroke="black" cx="516.49" cy="-219.03" rx="3.2" ry="3.2"/>
</g>
<!-- lookup_terrain -->
<g id="node5" class="node">
<title>lookup_terrain</title>
<g id="a_node5"><a xlink:href="../../tables/lookup_terrain.html" xlink:title="lookup_terrain" target="_top">
<polygon fill="#ffffff" stroke="transparent" points="167,-37 167,-95 320,-95 320,-37 167,-37"/>
<polygon fill="#f5f5f5" stroke="transparent" points="167.5,-73 167.5,-95 320.5,-95 320.5,-73 167.5,-73"/>
<polygon fill="none" stroke="black" points="167.5,-73 167.5,-95 320.5,-95 320.5,-73 167.5,-73"/>
<text text-anchor="start" x="172.5" y="-82.2" font-family="Helvetica,sans-Serif" font-weight="bold" font-size="11.00">lookup_terrain</text>
<text text-anchor="start" x="278.5" y="-81.2" font-family="Helvetica,sans-Serif" font-size="11.00">[table]</text>
<polygon fill="none" stroke="black" points="167.5,-55 167.5,-73 320.5,-73 320.5,-55 167.5,-55"/>
<text text-anchor="start" x="170.5" y="-61.2" font-family="Helvetica,sans-Serif" font-size="11.00">...</text>
<polygon fill="#ffffff" stroke="transparent" points="167.5,-37 167.5,-55 320.5,-55 320.5,-37 167.5,-37"/>
<polygon fill="none" stroke="black" points="167.5,-37 167.5,-55 320.5,-55 320.5,-37 167.5,-37"/>
<polygon fill="#ffffff" stroke="transparent" points="168.5,-38 168.5,-54 205.5,-54 205.5,-38 168.5,-38"/>
<text text-anchor="start" x="170.5" y="-43.2" font-family="Helvetica,sans-Serif" font-size="11.00"> &#160;</text>
<polygon fill="#ffffff" stroke="transparent" points="205.5,-38 205.5,-54 271.5,-54 271.5,-38 205.5,-38"/>
<text text-anchor="start" x="220" y="-43.2" font-family="Helvetica,sans-Serif" font-size="11.00">0 rows</text>
<polygon fill="#ffffff" stroke="transparent" points="271.5,-38 271.5,-54 319.5,-54 319.5,-38 271.5,-38"/>
<text text-anchor="start" x="297.5" y="-43.2" font-family="Helvetica,sans-Serif" font-size="11.00">1 &gt;</text>
<polygon fill="black" stroke="black" points="205.5,-38 205.5,-54 205.5,-54 205.5,-38 205.5,-38"/>
<polygon fill="black" stroke="black" points="271.5,-38 271.5,-54 271.5,-54 271.5,-38 271.5,-38"/>
</a>
</g>
</g>
<!-- edges&#45;&gt;lookup_terrain -->
<g id="edge4" class="edge">
<title>edges:w&#45;&gt;lookup_terrain:e</title>
<path fill="none" stroke="black" d="M513.68,-146.5C503.23,-137.37 504.63,-116.65 487,-106 422.04,-66.77 397.39,-64 321.5,-64"/>
<polygon fill="black" stroke="black" points="519.89,-148.52 526.38,-154.42 523.7,-149.76 527.5,-151 527.5,-151 527.5,-151 523.7,-149.76 528.62,-147.58 519.89,-148.52 519.89,-148.52"/>
<ellipse fill="none" stroke="black" cx="516.85" cy="-147.53" rx="3.2" ry="3.2"/>
</g>
</g>
</svg>
