<?xml version="1.0" encoding="UTF-8" standalone="no"?>
<!DOCTYPE svg PUBLIC "-//W3C//DTD SVG 1.1//EN"
 "http://www.w3.org/Graphics/SVG/1.1/DTD/svg11.dtd">
<!-- Generated by graphviz version 2.43.0 (0)
 -->
<!-- Title: twoDegreesRelationshipsDiagram Pages: 1 -->
<svg width="809pt" height="497pt"
 viewBox="0.00 0.00 809.00 497.08" xmlns="http://www.w3.org/2000/svg" xmlns:xlink="http://www.w3.org/1999/xlink">
<g id="graph0" class="graph" transform="scale(1 1) rotate(0) translate(4 493.08)">
<title>twoDegreesRelationshipsDiagram</title>
<polygon fill="#ffffff" stroke="transparent" points="-4,4 -4,-493.08 805,-493.08 805,4 -4,4"/>
<text text-anchor="middle" x="79.5" y="-7.2" font-family="Helvetica,sans-Serif" font-size="11.00">Generated by SchemaSpy</text>
<!-- plot_location -->
<g id="node1" class="node">
<title>plot_location</title>
<g id="a_node1"><a xlink:href="../../tables/plot_location.html" xlink:title="plot_location" target="_top">
<polygon fill="#ffffff" stroke="transparent" points="295,-375 295,-433 436,-433 436,-375 295,-375"/>
<polygon fill="#f5f5f5" stroke="transparent" points="295.5,-411 295.5,-433 436.5,-433 436.5,-411 295.5,-411"/>
<polygon fill="none" stroke="black" points="295.5,-411 295.5,-433 436.5,-433 436.5,-411 295.5,-411"/>
<text text-anchor="start" x="300.5" y="-420.2" font-family="Helvetica,sans-Serif" font-weight="bold" font-size="11.00">plot_location</text>
<text text-anchor="start" x="394.5" y="-419.2" font-family="Helvetica,sans-Serif" font-size="11.00">[table]</text>
<polygon fill="none" stroke="black" points="295.5,-393 295.5,-411 436.5,-411 436.5,-393 295.5,-393"/>
<text text-anchor="start" x="298.5" y="-399.2" font-family="Helvetica,sans-Serif" font-size="11.00">...</text>
<polygon fill="#ffffff" stroke="transparent" points="295.5,-375 295.5,-393 436.5,-393 436.5,-375 295.5,-375"/>
<polygon fill="none" stroke="black" points="295.5,-375 295.5,-393 436.5,-393 436.5,-375 295.5,-375"/>
<polygon fill="#ffffff" stroke="transparent" points="296.5,-376 296.5,-392 332.5,-392 332.5,-376 296.5,-376"/>
<text text-anchor="start" x="298.5" y="-381.2" font-family="Helvetica,sans-Serif" font-size="11.00">&lt; 1</text>
<polygon fill="#ffffff" stroke="transparent" points="332.5,-376 332.5,-392 399.5,-392 399.5,-376 332.5,-376"/>
<text text-anchor="start" x="340.5" y="-381.2" font-family="Helvetica,sans-Serif" font-size="11.00">406 rows</text>
<polygon fill="#ffffff" stroke="transparent" points="399.5,-376 399.5,-392 435.5,-392 435.5,-376 399.5,-376"/>
<text text-anchor="start" x="413.5" y="-381.2" font-family="Helvetica,sans-Serif" font-size="11.00">3 &gt;</text>
<polygon fill="black" stroke="black" points="332.5,-376 332.5,-392 332.5,-392 332.5,-376 332.5,-376"/>
<polygon fill="black" stroke="black" points="399.5,-376 399.5,-392 399.5,-392 399.5,-376 399.5,-376"/>
</a>
</g>
</g>
<!-- plot -->
<g id="node2" class="node">
<title>plot</title>
<g id="a_node2"><a xlink:href="../../tables/plot.html" xlink:title="plot" target="_top">
<polygon fill="#ffffff" stroke="transparent" points="8,-375 8,-433 113,-433 113,-375 8,-375"/>
<polygon fill="#f5f5f5" stroke="transparent" points="8.5,-411 8.5,-433 113.5,-433 113.5,-411 8.5,-411"/>
<polygon fill="none" stroke="black" points="8.5,-411 8.5,-433 113.5,-433 113.5,-411 8.5,-411"/>
<text text-anchor="start" x="13" y="-420.2" font-family="Helvetica,sans-Serif" font-weight="bold" font-size="11.00">plot</text>
<text text-anchor="start" x="71.5" y="-419.2" font-family="Helvetica,sans-Serif" font-size="11.00">[table]</text>
<polygon fill="none" stroke="black" points="8.5,-393 8.5,-411 113.5,-411 113.5,-393 8.5,-393"/>
<text text-anchor="start" x="11.5" y="-399.2" font-family="Helvetica,sans-Serif" font-size="11.00">...</text>
<polygon fill="#ffffff" stroke="transparent" points="8.5,-375 8.5,-393 113.5,-393 113.5,-375 8.5,-375"/>
<polygon fill="none" stroke="black" points="8.5,-375 8.5,-393 113.5,-393 113.5,-375 8.5,-375"/>
<polygon fill="#ffffff" stroke="transparent" points="9.5,-376 9.5,-392 40.5,-392 40.5,-376 9.5,-376"/>
<text text-anchor="start" x="11.5" y="-381.2" font-family="Helvetica,sans-Serif" font-size="11.00">&lt; 24</text>
<polygon fill="#ffffff" stroke="transparent" points="40.5,-376 40.5,-392 88.5,-392 88.5,-376 40.5,-376"/>
<text text-anchor="start" x="42.5" y="-381.2" font-family="Helvetica,sans-Serif" font-size="11.00">82 rows</text>
<polygon fill="#ffffff" stroke="transparent" points="88.5,-376 88.5,-392 112.5,-392 112.5,-376 88.5,-376"/>
<text text-anchor="start" x="90.5" y="-381.2" font-family="Helvetica,sans-Serif" font-size="11.00">7 &gt;</text>
<polygon fill="black" stroke="black" points="40.5,-376 40.5,-392 40.5,-392 40.5,-376 40.5,-376"/>
<polygon fill="black" stroke="black" points="88.5,-376 88.5,-392 88.5,-392 88.5,-376 88.5,-376"/>
</a>
</g>
</g>
<!-- plot_location&#45;&gt;plot -->
<g id="edge1" class="edge">
<title>plot_location:w&#45;&gt;plot:e</title>
<path fill="none" stroke="black" d="M279.75,-402C211.67,-402 189.34,-402 114.5,-402"/>
<polygon fill="black" stroke="black" points="286.5,-402 294.5,-405.6 290.5,-402 294.5,-402 294.5,-402 294.5,-402 290.5,-402 294.5,-398.4 286.5,-402 286.5,-402"/>
<ellipse fill="none" stroke="black" cx="283.3" cy="-402" rx="3.2" ry="3.2"/>
</g>
<!-- sapling_1m -->
<g id="node3" class="node">
<title>sapling_1m</title>
<g id="a_node3"><a xlink:href="../../tables/sapling_1m.html" xlink:title="sapling_1m" target="_top">
<polygon fill="#ffffff" stroke="transparent" points="618,-311 618,-479 793,-479 793,-311 618,-311"/>
<polygon fill="#f5f5f5" stroke="transparent" points="618.5,-457 618.5,-479 793.5,-479 793.5,-457 618.5,-457"/>
<polygon fill="none" stroke="black" points="618.5,-457 618.5,-479 793.5,-479 793.5,-457 618.5,-457"/>
<text text-anchor="start" x="623.5" y="-466.2" font-family="Helvetica,sans-Serif" font-weight="bold" font-size="11.00">sapling_1m</text>
<text text-anchor="start" x="751.5" y="-465.2" font-family="Helvetica,sans-Serif" font-size="11.00">[table]</text>
<polygon fill="none" stroke="black" points="618.5,-435 618.5,-457 793.5,-457 793.5,-435 618.5,-435"/>
<image xlink:href="../../images/primaryKeys.png" width="11px" height="12px" preserveAspectRatio="xMinYMin meet" x="623.5" y="-452"/>
<text text-anchor="start" x="638.5" y="-443.2" font-family="Helvetica,sans-Serif" font-size="11.00">id</text>
<polygon fill="none" stroke="black" points="618.5,-413 618.5,-435 793.5,-435 793.5,-413 618.5,-413"/>
<image xlink:href="../../images/foreignKeys.png" width="11px" height="12px" preserveAspectRatio="xMinYMin meet" x="623.5" y="-430"/>
<text text-anchor="start" x="638.5" y="-421.2" font-family="Helvetica,sans-Serif" font-size="11.00">plot_id</text>
<polygon fill="none" stroke="black" points="618.5,-391 618.5,-413 793.5,-413 793.5,-391 618.5,-391"/>
<image xlink:href="../../images/foreignKeys.png" width="11px" height="12px" preserveAspectRatio="xMinYMin meet" x="623.5" y="-408"/>
<text text-anchor="start" x="638.5" y="-399.2" font-family="Helvetica,sans-Serif" font-size="11.00">plot_location_id</text>
<polygon fill="none" stroke="black" points="618.5,-369 618.5,-391 793.5,-391 793.5,-369 618.5,-369"/>
<image xlink:href="../../images/foreignKeys.png" width="11px" height="12px" preserveAspectRatio="xMinYMin meet" x="623.5" y="-386"/>
<text text-anchor="start" x="638.5" y="-377.2" font-family="Helvetica,sans-Serif" font-size="11.00">tree_species</text>
<polygon fill="none" stroke="black" points="618.5,-347 618.5,-369 793.5,-369 793.5,-347 618.5,-347"/>
<image xlink:href="../../images/foreignKeys.png" width="11px" height="12px" preserveAspectRatio="xMinYMin meet" x="623.5" y="-364"/>
<text text-anchor="start" x="638.5" y="-355.2" font-family="Helvetica,sans-Serif" font-size="11.00">bitten</text>
<polygon fill="none" stroke="black" points="618.5,-329 618.5,-347 793.5,-347 793.5,-329 618.5,-329"/>
<text text-anchor="start" x="621.5" y="-335.2" font-family="Helvetica,sans-Serif" font-size="11.00">...</text>
<polygon fill="#ffffff" stroke="transparent" points="618.5,-311 618.5,-329 793.5,-329 793.5,-311 618.5,-311"/>
<polygon fill="none" stroke="black" points="618.5,-311 618.5,-329 793.5,-329 793.5,-311 618.5,-311"/>
<polygon fill="#ffffff" stroke="transparent" points="619.5,-312 619.5,-328 675.5,-328 675.5,-312 619.5,-312"/>
<text text-anchor="start" x="621.5" y="-317.2" font-family="Helvetica,sans-Serif" font-size="11.00">&lt; 4</text>
<polygon fill="#ffffff" stroke="transparent" points="675.5,-312 675.5,-328 748.5,-328 748.5,-312 675.5,-312"/>
<text text-anchor="start" x="693.5" y="-317.2" font-family="Helvetica,sans-Serif" font-size="11.00">0 rows</text>
<polygon fill="#ffffff" stroke="transparent" points="748.5,-312 748.5,-328 792.5,-328 792.5,-312 748.5,-312"/>
<text text-anchor="start" x="782.5" y="-317.2" font-family="Helvetica,sans-Serif" font-size="11.00"> &#160;</text>
<polygon fill="black" stroke="black" points="675.5,-312 675.5,-328 675.5,-328 675.5,-312 675.5,-312"/>
<polygon fill="black" stroke="black" points="748.5,-312 748.5,-328 748.5,-328 748.5,-312 748.5,-312"/>
</a>
</g>
</g>
<!-- sapling_1m&#45;&gt;plot_location -->
<g id="edge4" class="edge">
<title>sapling_1m:w&#45;&gt;plot_location:e</title>
<path fill="none" stroke="black" d="M602.75,-402C534.67,-402 512.34,-402 437.5,-402"/>
<polygon fill="black" stroke="black" points="609.5,-402 617.5,-405.6 613.5,-402 617.5,-402 617.5,-402 617.5,-402 613.5,-402 617.5,-398.4 609.5,-402 609.5,-402"/>
<ellipse fill="none" stroke="black" cx="606.3" cy="-402" rx="3.2" ry="3.2"/>
</g>
<!-- sapling_1m&#45;&gt;plot -->
<g id="edge3" class="edge">
<title>sapling_1m:w&#45;&gt;plot:e</title>
<path fill="none" stroke="black" d="M603.43,-427.55C595.16,-432.4 590.59,-440.83 577,-444 393.92,-486.74 326.57,-518.6 154,-444 130.48,-433.83 140.13,-402 114.5,-402"/>
<polygon fill="black" stroke="black" points="609.74,-425.96 618.38,-427.49 613.62,-424.98 617.5,-424 617.5,-424 617.5,-424 613.62,-424.98 616.62,-420.51 609.74,-425.96 609.74,-425.96"/>
<ellipse fill="none" stroke="black" cx="606.64" cy="-426.74" rx="3.2" ry="3.2"/>
</g>
<!-- lookup_bitten -->
<g id="node4" class="node">
<title>lookup_bitten</title>
<g id="a_node4"><a xlink:href="../../tables/lookup_bitten.html" xlink:title="lookup_bitten" target="_top">
<polygon fill="#ffffff" stroke="transparent" points="162,-116 162,-248 569,-248 569,-116 162,-116"/>
<polygon fill="#f5f5f5" stroke="transparent" points="164.5,-224 164.5,-246 567.5,-246 567.5,-224 164.5,-224"/>
<polygon fill="none" stroke="black" points="164.5,-224 164.5,-246 567.5,-246 567.5,-224 164.5,-224"/>
<text text-anchor="start" x="169.5" y="-233.2" font-family="Helvetica,sans-Serif" font-weight="bold" font-size="11.00">lookup_bitten</text>
<text text-anchor="start" x="525.5" y="-232.2" font-family="Helvetica,sans-Serif" font-size="11.00">[table]</text>
<polygon fill="none" stroke="black" points="164.5,-202 164.5,-224 285.5,-224 285.5,-202 164.5,-202"/>
<text text-anchor="start" x="184.5" y="-210.2" font-family="Helvetica,sans-Serif" font-size="11.00">name_de</text>
<polygon fill="none" stroke="black" points="285.5,-202 285.5,-224 567.5,-224 567.5,-202 285.5,-202"/>
<text text-anchor="start" x="288.5" y="-210.2" font-family="Helvetica,sans-Serif" font-size="11.00">varchar[150]</text>
<polygon fill="none" stroke="black" points="164.5,-180 164.5,-202 285.5,-202 285.5,-180 164.5,-180"/>
<text text-anchor="start" x="184.5" y="-188.2" font-family="Helvetica,sans-Serif" font-size="11.00">name_en</text>
<polygon fill="none" stroke="black" points="285.5,-180 285.5,-202 567.5,-202 567.5,-180 285.5,-180"/>
<text text-anchor="start" x="288.5" y="-188.2" font-family="Helvetica,sans-Serif" font-size="11.00">varchar[150]</text>
<polygon fill="none" stroke="black" points="164.5,-158 164.5,-180 285.5,-180 285.5,-158 164.5,-158"/>
<text text-anchor="start" x="184.5" y="-166.2" font-family="Helvetica,sans-Serif" font-size="11.00">sort</text>
<polygon fill="none" stroke="black" points="285.5,-158 285.5,-180 567.5,-180 567.5,-158 285.5,-158"/>
<text text-anchor="start" x="288.5" y="-166.2" font-family="Helvetica,sans-Serif" font-size="11.00">int4[10]</text>
<polygon fill="#ffffff" stroke="transparent" points="164.5,-136 164.5,-158 285.5,-158 285.5,-136 164.5,-136"/>
<polygon fill="none" stroke="black" points="164.5,-136 164.5,-158 285.5,-158 285.5,-136 164.5,-136"/>
<text text-anchor="start" x="184.5" y="-144.2" font-family="Helvetica,sans-Serif" font-size="11.00">abbreviation</text>
<polygon fill="none" stroke="black" points="285.5,-136 285.5,-158 567.5,-158 567.5,-136 285.5,-136"/>
<text text-anchor="start" x="288.5" y="-144.2" font-family="Helvetica,sans-Serif" font-size="11.00">&quot;private_ci2027_001&quot;.&quot;enum_bitten&quot;[2147483647]</text>
<polygon fill="#ffffff" stroke="transparent" points="164.5,-118 164.5,-136 567.5,-136 567.5,-118 164.5,-118"/>
<polygon fill="none" stroke="black" points="164.5,-118 164.5,-136 567.5,-136 567.5,-118 164.5,-118"/>
<polygon fill="#ffffff" stroke="transparent" points="165.5,-119 165.5,-135 293.5,-135 293.5,-119 165.5,-119"/>
<text text-anchor="start" x="167.5" y="-124.2" font-family="Helvetica,sans-Serif" font-size="11.00">&lt; 0</text>
<polygon fill="#ffffff" stroke="transparent" points="293.5,-119 293.5,-135 438.5,-135 438.5,-119 293.5,-119"/>
<text text-anchor="start" x="347.5" y="-124.2" font-family="Helvetica,sans-Serif" font-size="11.00">0 rows</text>
<polygon fill="#ffffff" stroke="transparent" points="438.5,-119 438.5,-135 566.5,-135 566.5,-119 438.5,-119"/>
<text text-anchor="start" x="544.5" y="-124.2" font-family="Helvetica,sans-Serif" font-size="11.00">2 &gt;</text>
<polygon fill="black" stroke="black" points="293.5,-119 293.5,-135 293.5,-135 293.5,-119 293.5,-119"/>
<polygon fill="black" stroke="black" points="438.5,-119 438.5,-135 438.5,-135 438.5,-119 438.5,-119"/>
<polygon fill="none" stroke="black" stroke-width="2" points="163,-117 163,-247 568,-247 568,-117 163,-117"/>
</a>
</g>
</g>
<!-- sapling_1m&#45;&gt;lookup_bitten -->
<g id="edge2" class="edge">
<title>sapling_1m:w&#45;&gt;lookup_bitten:e</title>
<path fill="none" stroke="black" d="M602.95,-355.91C537.23,-334 659.13,-147 568.5,-147"/>
<polygon fill="black" stroke="black" points="609.58,-356.86 616.99,-361.56 613.54,-357.43 617.5,-358 617.5,-358 617.5,-358 613.54,-357.43 618.01,-354.44 609.58,-356.86 609.58,-356.86"/>
<ellipse fill="none" stroke="black" cx="606.41" cy="-356.41" rx="3.2" ry="3.2"/>
</g>
<!-- lookup_tree_species -->
<g id="node5" class="node">
<title>lookup_tree_species</title>
<g id="a_node5"><a xlink:href="../../tables/lookup_tree_species.html" xlink:title="lookup_tree_species" target="_top">
<polygon fill="#ffffff" stroke="transparent" points="268.5,-269 268.5,-327 462.5,-327 462.5,-269 268.5,-269"/>
<polygon fill="#f5f5f5" stroke="transparent" points="268.5,-305 268.5,-327 462.5,-327 462.5,-305 268.5,-305"/>
<polygon fill="none" stroke="black" points="268.5,-305 268.5,-327 462.5,-327 462.5,-305 268.5,-305"/>
<text text-anchor="start" x="273.5" y="-314.2" font-family="Helvetica,sans-Serif" font-weight="bold" font-size="11.00">lookup_tree_species</text>
<text text-anchor="start" x="420.5" y="-313.2" font-family="Helvetica,sans-Serif" font-size="11.00">[table]</text>
<polygon fill="none" stroke="black" points="268.5,-287 268.5,-305 462.5,-305 462.5,-287 268.5,-287"/>
<text text-anchor="start" x="271.5" y="-293.2" font-family="Helvetica,sans-Serif" font-size="11.00">...</text>
<polygon fill="#ffffff" stroke="transparent" points="268.5,-269 268.5,-287 462.5,-287 462.5,-269 268.5,-269"/>
<polygon fill="none" stroke="black" points="268.5,-269 268.5,-287 462.5,-287 462.5,-269 268.5,-269"/>
<polygon fill="#ffffff" stroke="transparent" points="269.5,-270 269.5,-286 315.5,-286 315.5,-270 269.5,-270"/>
<text text-anchor="start" x="271.5" y="-275.2" font-family="Helvetica,sans-Serif" font-size="11.00"> &#160;</text>
<polygon fill="#ffffff" stroke="transparent" points="315.5,-270 315.5,-286 404.5,-286 404.5,-270 315.5,-270"/>
<text text-anchor="start" x="334.5" y="-275.2" font-family="Helvetica,sans-Serif" font-size="11.00">125 rows</text>
<polygon fill="#ffffff" stroke="transparent" points="404.5,-270 404.5,-286 461.5,-286 461.5,-270 404.5,-270"/>
<text text-anchor="start" x="439.5" y="-275.2" font-family="Helvetica,sans-Serif" font-size="11.00">3 &gt;</text>
<polygon fill="black" stroke="black" points="315.5,-270 315.5,-286 315.5,-286 315.5,-270 315.5,-270"/>
<polygon fill="black" stroke="black" points="404.5,-270 404.5,-286 404.5,-286 404.5,-270 404.5,-270"/>
</a>
</g>
</g>
<!-- sapling_1m&#45;&gt;lookup_tree_species -->
<g id="edge5" class="edge">
<title>sapling_1m:w&#45;&gt;lookup_tree_species:e</title>
<path fill="none" stroke="black" d="M603.21,-377.11C562.05,-362.34 498.14,-296 463.5,-296"/>
<polygon fill="black" stroke="black" points="609.66,-378.41 616.79,-383.53 613.58,-379.21 617.5,-380 617.5,-380 617.5,-380 613.58,-379.21 618.21,-376.47 609.66,-378.41 609.66,-378.41"/>
<ellipse fill="none" stroke="black" cx="606.52" cy="-377.78" rx="3.2" ry="3.2"/>
</g>
<!-- sapling_2m -->
<g id="node6" class="node">
<title>sapling_2m</title>
<g id="a_node6"><a xlink:href="../../tables/sapling_2m.html" xlink:title="sapling_2m" target="_top">
<polygon fill="#ffffff" stroke="transparent" points="618,-100 618,-290 793,-290 793,-100 618,-100"/>
<polygon fill="#f5f5f5" stroke="transparent" points="618.5,-268 618.5,-290 793.5,-290 793.5,-268 618.5,-268"/>
<polygon fill="none" stroke="black" points="618.5,-268 618.5,-290 793.5,-290 793.5,-268 618.5,-268"/>
<text text-anchor="start" x="623.5" y="-277.2" font-family="Helvetica,sans-Serif" font-weight="bold" font-size="11.00">sapling_2m</text>
<text text-anchor="start" x="751.5" y="-276.2" font-family="Helvetica,sans-Serif" font-size="11.00">[table]</text>
<polygon fill="none" stroke="black" points="618.5,-246 618.5,-268 793.5,-268 793.5,-246 618.5,-246"/>
<image xlink:href="../../images/primaryKeys.png" width="11px" height="12px" preserveAspectRatio="xMinYMin meet" x="623.5" y="-263"/>
<text text-anchor="start" x="638.5" y="-254.2" font-family="Helvetica,sans-Serif" font-size="11.00">id</text>
<polygon fill="none" stroke="black" points="618.5,-224 618.5,-246 793.5,-246 793.5,-224 618.5,-224"/>
<image xlink:href="../../images/foreignKeys.png" width="11px" height="12px" preserveAspectRatio="xMinYMin meet" x="623.5" y="-241"/>
<text text-anchor="start" x="638.5" y="-232.2" font-family="Helvetica,sans-Serif" font-size="11.00">plot_id</text>
<polygon fill="none" stroke="black" points="618.5,-202 618.5,-224 793.5,-224 793.5,-202 618.5,-202"/>
<image xlink:href="../../images/foreignKeys.png" width="11px" height="12px" preserveAspectRatio="xMinYMin meet" x="623.5" y="-219"/>
<text text-anchor="start" x="638.5" y="-210.2" font-family="Helvetica,sans-Serif" font-size="11.00">plot_location_id</text>
<polygon fill="none" stroke="black" points="618.5,-180 618.5,-202 793.5,-202 793.5,-180 618.5,-180"/>
<image xlink:href="../../images/foreignKeys.png" width="11px" height="12px" preserveAspectRatio="xMinYMin meet" x="623.5" y="-197"/>
<text text-anchor="start" x="638.5" y="-188.2" font-family="Helvetica,sans-Serif" font-size="11.00">tree_species</text>
<polygon fill="none" stroke="black" points="618.5,-158 618.5,-180 793.5,-180 793.5,-158 618.5,-158"/>
<image xlink:href="../../images/foreignKeys.png" width="11px" height="12px" preserveAspectRatio="xMinYMin meet" x="623.5" y="-175"/>
<text text-anchor="start" x="638.5" y="-166.2" font-family="Helvetica,sans-Serif" font-size="11.00">bitten</text>
<polygon fill="none" stroke="black" points="618.5,-136 618.5,-158 793.5,-158 793.5,-136 618.5,-136"/>
<image xlink:href="../../images/foreignKeys.png" width="11px" height="12px" preserveAspectRatio="xMinYMin meet" x="623.5" y="-153"/>
<text text-anchor="start" x="638.5" y="-144.2" font-family="Helvetica,sans-Serif" font-size="11.00">tree_size_class</text>
<polygon fill="none" stroke="black" points="618.5,-118 618.5,-136 793.5,-136 793.5,-118 618.5,-118"/>
<text text-anchor="start" x="621.5" y="-124.2" font-family="Helvetica,sans-Serif" font-size="11.00">...</text>
<polygon fill="#ffffff" stroke="transparent" points="618.5,-100 618.5,-118 793.5,-118 793.5,-100 618.5,-100"/>
<polygon fill="none" stroke="black" points="618.5,-100 618.5,-118 793.5,-118 793.5,-100 618.5,-100"/>
<polygon fill="#ffffff" stroke="transparent" points="619.5,-101 619.5,-117 675.5,-117 675.5,-101 619.5,-101"/>
<text text-anchor="start" x="621.5" y="-106.2" font-family="Helvetica,sans-Serif" font-size="11.00">&lt; 5</text>
<polygon fill="#ffffff" stroke="transparent" points="675.5,-101 675.5,-117 748.5,-117 748.5,-101 675.5,-101"/>
<text text-anchor="start" x="693.5" y="-106.2" font-family="Helvetica,sans-Serif" font-size="11.00">0 rows</text>
<polygon fill="#ffffff" stroke="transparent" points="748.5,-101 748.5,-117 792.5,-117 792.5,-101 748.5,-101"/>
<text text-anchor="start" x="782.5" y="-106.2" font-family="Helvetica,sans-Serif" font-size="11.00"> &#160;</text>
<polygon fill="black" stroke="black" points="675.5,-101 675.5,-117 675.5,-117 675.5,-101 675.5,-101"/>
<polygon fill="black" stroke="black" points="748.5,-101 748.5,-117 748.5,-117 748.5,-101 748.5,-101"/>
</a>
</g>
</g>
<!-- sapling_2m&#45;&gt;plot_location -->
<g id="edge8" class="edge">
<title>sapling_2m:w&#45;&gt;plot_location:e</title>
<path fill="none" stroke="black" d="M603.2,-215.01C561.11,-229.33 620.76,-316.42 577,-361 531.74,-407.12 502.12,-402 437.5,-402"/>
<polygon fill="black" stroke="black" points="609.58,-214.12 618,-216.56 613.54,-213.56 617.5,-213 617.5,-213 617.5,-213 613.54,-213.56 617,-209.44 609.58,-214.12 609.58,-214.12"/>
<ellipse fill="none" stroke="black" cx="606.41" cy="-214.56" rx="3.2" ry="3.2"/>
</g>
<!-- sapling_2m&#45;&gt;plot -->
<g id="edge7" class="edge">
<title>sapling_2m:w&#45;&gt;plot:e</title>
<path fill="none" stroke="black" d="M603.27,-238.24C579.04,-252.8 611.78,-312.64 577,-338 500.89,-393.49 240.45,-327.61 154,-365 131.92,-374.55 138.55,-402 114.5,-402"/>
<polygon fill="black" stroke="black" points="609.7,-236.77 618.3,-238.51 613.6,-235.89 617.5,-235 617.5,-235 617.5,-235 613.6,-235.89 616.7,-231.49 609.7,-236.77 609.7,-236.77"/>
<ellipse fill="none" stroke="black" cx="606.58" cy="-237.48" rx="3.2" ry="3.2"/>
</g>
<!-- sapling_2m&#45;&gt;lookup_bitten -->
<g id="edge6" class="edge">
<title>sapling_2m:w&#45;&gt;lookup_bitten:e</title>
<path fill="none" stroke="black" d="M603.13,-165.56C591.59,-159.38 586.4,-147 568.5,-147"/>
<polygon fill="black" stroke="black" points="609.72,-167.14 616.66,-172.5 613.61,-168.07 617.5,-169 617.5,-169 617.5,-169 613.61,-168.07 618.34,-165.5 609.72,-167.14 609.72,-167.14"/>
<ellipse fill="none" stroke="black" cx="606.61" cy="-166.39" rx="3.2" ry="3.2"/>
</g>
<!-- sapling_2m&#45;&gt;lookup_tree_species -->
<g id="edge10" class="edge">
<title>sapling_2m:w&#45;&gt;lookup_tree_species:e</title>
<path fill="none" stroke="black" d="M603.47,-195.05C588.68,-206.77 599.54,-240.98 577,-259 535.56,-292.13 516.56,-296 463.5,-296"/>
<polygon fill="black" stroke="black" points="609.81,-193.22 618.5,-194.46 613.66,-192.11 617.5,-191 617.5,-191 617.5,-191 613.66,-192.11 616.5,-187.54 609.81,-193.22 609.81,-193.22"/>
<ellipse fill="none" stroke="black" cx="606.74" cy="-194.11" rx="3.2" ry="3.2"/>
</g>
<!-- lookup_tree_size_class -->
<g id="node7" class="node">
<title>lookup_tree_size_class</title>
<g id="a_node7"><a xlink:href="../../tables/lookup_tree_size_class.html" xlink:title="lookup_tree_size_class" target="_top">
<polygon fill="#ffffff" stroke="transparent" points="260,-37 260,-95 471,-95 471,-37 260,-37"/>
<polygon fill="#f5f5f5" stroke="transparent" points="260.5,-73 260.5,-95 471.5,-95 471.5,-73 260.5,-73"/>
<polygon fill="none" stroke="black" points="260.5,-73 260.5,-95 471.5,-95 471.5,-73 260.5,-73"/>
<text text-anchor="start" x="265.5" y="-82.2" font-family="Helvetica,sans-Serif" font-weight="bold" font-size="11.00">lookup_tree_size_class</text>
<text text-anchor="start" x="429.5" y="-81.2" font-family="Helvetica,sans-Serif" font-size="11.00">[table]</text>
<polygon fill="none" stroke="black" points="260.5,-55 260.5,-73 471.5,-73 471.5,-55 260.5,-55"/>
<text text-anchor="start" x="263.5" y="-61.2" font-family="Helvetica,sans-Serif" font-size="11.00">...</text>
<polygon fill="#ffffff" stroke="transparent" points="260.5,-37 260.5,-55 471.5,-55 471.5,-37 260.5,-37"/>
<polygon fill="none" stroke="black" points="260.5,-37 260.5,-55 471.5,-55 471.5,-37 260.5,-37"/>
<polygon fill="#ffffff" stroke="transparent" points="261.5,-38 261.5,-54 317.5,-54 317.5,-38 261.5,-38"/>
<text text-anchor="start" x="263.5" y="-43.2" font-family="Helvetica,sans-Serif" font-size="11.00"> &#160;</text>
<polygon fill="#ffffff" stroke="transparent" points="317.5,-38 317.5,-54 402.5,-54 402.5,-38 317.5,-38"/>
<text text-anchor="start" x="341.5" y="-43.2" font-family="Helvetica,sans-Serif" font-size="11.00">0 rows</text>
<polygon fill="#ffffff" stroke="transparent" points="402.5,-38 402.5,-54 470.5,-54 470.5,-38 402.5,-38"/>
<text text-anchor="start" x="448.5" y="-43.2" font-family="Helvetica,sans-Serif" font-size="11.00">1 &gt;</text>
<polygon fill="black" stroke="black" points="317.5,-38 317.5,-54 317.5,-54 317.5,-38 317.5,-38"/>
<polygon fill="black" stroke="black" points="402.5,-38 402.5,-54 402.5,-54 402.5,-38 402.5,-38"/>
</a>
</g>
</g>
<!-- sapling_2m&#45;&gt;lookup_tree_size_class -->
<g id="edge9" class="edge">
<title>sapling_2m:w&#45;&gt;lookup_tree_size_class:e</title>
<path fill="none" stroke="black" d="M603.58,-142.72C593.28,-134.41 593.34,-115.91 577,-105 535.51,-77.29 522.39,-64 472.5,-64"/>
<polygon fill="black" stroke="black" points="609.85,-144.65 616.44,-150.44 613.68,-145.83 617.5,-147 617.5,-147 617.5,-147 613.68,-145.83 618.56,-143.56 609.85,-144.65 609.85,-144.65"/>
<ellipse fill="none" stroke="black" cx="606.79" cy="-143.71" rx="3.2" ry="3.2"/>
</g>
</g>
</svg>
