<?xml version="1.0" encoding="UTF-8" standalone="no"?>
<!DOCTYPE svg PUBLIC "-//W3C//DTD SVG 1.1//EN"
 "http://www.w3.org/Graphics/SVG/1.1/DTD/svg11.dtd">
<!-- Generated by graphviz version 2.43.0 (0)
 -->
<!-- Title: oneDegreeRelationshipsDiagram Pages: 1 -->
<svg width="903pt" height="679pt"
 viewBox="0.00 0.00 903.00 679.00" xmlns="http://www.w3.org/2000/svg" xmlns:xlink="http://www.w3.org/1999/xlink">
<g id="graph0" class="graph" transform="scale(1 1) rotate(0) translate(4 675)">
<title>oneDegreeRelationshipsDiagram</title>
<polygon fill="#ffffff" stroke="transparent" points="-4,4 -4,-675 899,-675 899,4 -4,4"/>
<text text-anchor="middle" x="79.5" y="-7.2" font-family="Helvetica,sans-Serif" font-size="11.00">Generated by SchemaSpy</text>
<!-- plot -->
<g id="node1" class="node">
<title>plot</title>
<g id="a_node1"><a xlink:href="../../tables/plot.html" xlink:title="plot" target="_top">
<polygon fill="#ffffff" stroke="transparent" points="636,-37 636,-667 887,-667 887,-37 636,-37"/>
<polygon fill="#f5f5f5" stroke="transparent" points="636.5,-645 636.5,-667 887.5,-667 887.5,-645 636.5,-645"/>
<polygon fill="none" stroke="black" points="636.5,-645 636.5,-667 887.5,-667 887.5,-645 636.5,-645"/>
<text text-anchor="start" x="641" y="-654.2" font-family="Helvetica,sans-Serif" font-weight="bold" font-size="11.00">plot</text>
<text text-anchor="start" x="845.5" y="-653.2" font-family="Helvetica,sans-Serif" font-size="11.00">[table]</text>
<polygon fill="none" stroke="black" points="636.5,-623 636.5,-645 887.5,-645 887.5,-623 636.5,-623"/>
<image xlink:href="../../images/primaryKeys.png" width="11px" height="12px" preserveAspectRatio="xMinYMin meet" x="641.5" y="-640"/>
<text text-anchor="start" x="656.5" y="-631.2" font-family="Helvetica,sans-Serif" font-size="11.00">id</text>
<polygon fill="#ffffff" stroke="transparent" points="636.5,-601 636.5,-623 887.5,-623 887.5,-601 636.5,-601"/>
<polygon fill="none" stroke="black" points="636.5,-601 636.5,-623 887.5,-623 887.5,-601 636.5,-601"/>
<image xlink:href="../../images/foreignKeys.png" width="11px" height="12px" preserveAspectRatio="xMinYMin meet" x="641.5" y="-618"/>
<text text-anchor="start" x="656.5" y="-609.2" font-family="Helvetica,sans-Serif" font-size="11.00">cluster_id</text>
<polygon fill="#ffffff" stroke="transparent" points="636.5,-579 636.5,-601 887.5,-601 887.5,-579 636.5,-579"/>
<polygon fill="none" stroke="black" points="636.5,-579 636.5,-601 887.5,-601 887.5,-579 636.5,-579"/>
<text text-anchor="start" x="656.5" y="-587.2" font-family="Helvetica,sans-Serif" font-size="11.00">plot_name</text>
<polygon fill="none" stroke="black" points="636.5,-557 636.5,-579 887.5,-579 887.5,-557 636.5,-557"/>
<image xlink:href="../../images/foreignKeys.png" width="11px" height="12px" preserveAspectRatio="xMinYMin meet" x="641.5" y="-574"/>
<text text-anchor="start" x="656.5" y="-565.2" font-family="Helvetica,sans-Serif" font-size="11.00">sampling_strata</text>
<polygon fill="none" stroke="black" points="636.5,-535 636.5,-557 887.5,-557 887.5,-535 636.5,-535"/>
<image xlink:href="../../images/foreignKeys.png" width="11px" height="12px" preserveAspectRatio="xMinYMin meet" x="641.5" y="-552"/>
<text text-anchor="start" x="656.5" y="-543.2" font-family="Helvetica,sans-Serif" font-size="11.00">growth_district</text>
<polygon fill="none" stroke="black" points="636.5,-513 636.5,-535 887.5,-535 887.5,-513 636.5,-513"/>
<image xlink:href="../../images/foreignKeys.png" width="11px" height="12px" preserveAspectRatio="xMinYMin meet" x="641.5" y="-530"/>
<text text-anchor="start" x="656.5" y="-521.2" font-family="Helvetica,sans-Serif" font-size="11.00">forest_decision</text>
<polygon fill="none" stroke="black" points="636.5,-491 636.5,-513 887.5,-513 887.5,-491 636.5,-491"/>
<image xlink:href="../../images/foreignKeys.png" width="11px" height="12px" preserveAspectRatio="xMinYMin meet" x="641.5" y="-508"/>
<text text-anchor="start" x="656.5" y="-499.2" font-family="Helvetica,sans-Serif" font-size="11.00">forestry_department</text>
<polygon fill="none" stroke="black" points="636.5,-469 636.5,-491 887.5,-491 887.5,-469 636.5,-469"/>
<image xlink:href="../../images/foreignKeys.png" width="11px" height="12px" preserveAspectRatio="xMinYMin meet" x="641.5" y="-486"/>
<text text-anchor="start" x="656.5" y="-477.2" font-family="Helvetica,sans-Serif" font-size="11.00">height_layer_class</text>
<polygon fill="none" stroke="black" points="636.5,-447 636.5,-469 887.5,-469 887.5,-447 636.5,-447"/>
<image xlink:href="../../images/foreignKeys.png" width="11px" height="12px" preserveAspectRatio="xMinYMin meet" x="641.5" y="-464"/>
<text text-anchor="start" x="656.5" y="-455.2" font-family="Helvetica,sans-Serif" font-size="11.00">property_type</text>
<polygon fill="none" stroke="black" points="636.5,-425 636.5,-447 887.5,-447 887.5,-425 636.5,-425"/>
<image xlink:href="../../images/foreignKeys.png" width="11px" height="12px" preserveAspectRatio="xMinYMin meet" x="641.5" y="-442"/>
<text text-anchor="start" x="656.5" y="-433.2" font-family="Helvetica,sans-Serif" font-size="11.00">property_size_class</text>
<polygon fill="none" stroke="black" points="636.5,-403 636.5,-425 887.5,-425 887.5,-403 636.5,-403"/>
<image xlink:href="../../images/foreignKeys.png" width="11px" height="12px" preserveAspectRatio="xMinYMin meet" x="641.5" y="-420"/>
<text text-anchor="start" x="656.5" y="-411.2" font-family="Helvetica,sans-Serif" font-size="11.00">forest_type</text>
<polygon fill="none" stroke="black" points="636.5,-381 636.5,-403 887.5,-403 887.5,-381 636.5,-381"/>
<image xlink:href="../../images/foreignKeys.png" width="11px" height="12px" preserveAspectRatio="xMinYMin meet" x="641.5" y="-398"/>
<text text-anchor="start" x="656.5" y="-389.2" font-family="Helvetica,sans-Serif" font-size="11.00">habitat_type</text>
<polygon fill="none" stroke="black" points="636.5,-359 636.5,-381 887.5,-381 887.5,-359 636.5,-359"/>
<image xlink:href="../../images/foreignKeys.png" width="11px" height="12px" preserveAspectRatio="xMinYMin meet" x="641.5" y="-376"/>
<text text-anchor="start" x="656.5" y="-367.2" font-family="Helvetica,sans-Serif" font-size="11.00">habitat_type_source</text>
<polygon fill="none" stroke="black" points="636.5,-337 636.5,-359 887.5,-359 887.5,-337 636.5,-337"/>
<image xlink:href="../../images/foreignKeys.png" width="11px" height="12px" preserveAspectRatio="xMinYMin meet" x="641.5" y="-354"/>
<text text-anchor="start" x="656.5" y="-345.2" font-family="Helvetica,sans-Serif" font-size="11.00">use_restriction</text>
<polygon fill="none" stroke="black" points="636.5,-315 636.5,-337 887.5,-337 887.5,-315 636.5,-315"/>
<image xlink:href="../../images/foreignKeys.png" width="11px" height="12px" preserveAspectRatio="xMinYMin meet" x="641.5" y="-332"/>
<text text-anchor="start" x="656.5" y="-323.2" font-family="Helvetica,sans-Serif" font-size="11.00">land_use</text>
<polygon fill="none" stroke="black" points="636.5,-293 636.5,-315 887.5,-315 887.5,-293 636.5,-293"/>
<image xlink:href="../../images/foreignKeys.png" width="11px" height="12px" preserveAspectRatio="xMinYMin meet" x="641.5" y="-310"/>
<text text-anchor="start" x="656.5" y="-301.2" font-family="Helvetica,sans-Serif" font-size="11.00">marking_state</text>
<polygon fill="none" stroke="black" points="636.5,-271 636.5,-293 887.5,-293 887.5,-271 636.5,-271"/>
<image xlink:href="../../images/foreignKeys.png" width="11px" height="12px" preserveAspectRatio="xMinYMin meet" x="641.5" y="-288"/>
<text text-anchor="start" x="656.5" y="-279.2" font-family="Helvetica,sans-Serif" font-size="11.00">marking_profile</text>
<polygon fill="none" stroke="black" points="636.5,-249 636.5,-271 887.5,-271 887.5,-249 636.5,-249"/>
<image xlink:href="../../images/foreignKeys.png" width="11px" height="12px" preserveAspectRatio="xMinYMin meet" x="641.5" y="-266"/>
<text text-anchor="start" x="656.5" y="-257.2" font-family="Helvetica,sans-Serif" font-size="11.00">terrain_form</text>
<polygon fill="none" stroke="black" points="636.5,-227 636.5,-249 887.5,-249 887.5,-227 636.5,-227"/>
<image xlink:href="../../images/foreignKeys.png" width="11px" height="12px" preserveAspectRatio="xMinYMin meet" x="641.5" y="-244"/>
<text text-anchor="start" x="656.5" y="-235.2" font-family="Helvetica,sans-Serif" font-size="11.00">management_type</text>
<polygon fill="none" stroke="black" points="636.5,-205 636.5,-227 887.5,-227 887.5,-205 636.5,-205"/>
<image xlink:href="../../images/foreignKeys.png" width="11px" height="12px" preserveAspectRatio="xMinYMin meet" x="641.5" y="-222"/>
<text text-anchor="start" x="656.5" y="-213.2" font-family="Helvetica,sans-Serif" font-size="11.00">harvesting_method</text>
<polygon fill="none" stroke="black" points="636.5,-183 636.5,-205 887.5,-205 887.5,-183 636.5,-183"/>
<image xlink:href="../../images/foreignKeys.png" width="11px" height="12px" preserveAspectRatio="xMinYMin meet" x="641.5" y="-200"/>
<text text-anchor="start" x="656.5" y="-191.2" font-family="Helvetica,sans-Serif" font-size="11.00">layer_type</text>
<polygon fill="none" stroke="black" points="636.5,-161 636.5,-183 887.5,-183 887.5,-161 636.5,-161"/>
<image xlink:href="../../images/foreignKeys.png" width="11px" height="12px" preserveAspectRatio="xMinYMin meet" x="641.5" y="-178"/>
<text text-anchor="start" x="656.5" y="-169.2" font-family="Helvetica,sans-Serif" font-size="11.00">stand_phase</text>
<polygon fill="none" stroke="black" points="636.5,-139 636.5,-161 887.5,-161 887.5,-139 636.5,-139"/>
<image xlink:href="../../images/foreignKeys.png" width="11px" height="12px" preserveAspectRatio="xMinYMin meet" x="641.5" y="-156"/>
<text text-anchor="start" x="656.5" y="-147.2" font-family="Helvetica,sans-Serif" font-size="11.00">sablings_layer</text>
<polygon fill="none" stroke="black" points="636.5,-117 636.5,-139 887.5,-139 887.5,-117 636.5,-117"/>
<image xlink:href="../../images/foreignKeys.png" width="11px" height="12px" preserveAspectRatio="xMinYMin meet" x="641.5" y="-134"/>
<text text-anchor="start" x="656.5" y="-125.2" font-family="Helvetica,sans-Serif" font-size="11.00">trees_less_4meter_mirrored</text>
<polygon fill="none" stroke="black" points="636.5,-95 636.5,-117 887.5,-117 887.5,-95 636.5,-95"/>
<image xlink:href="../../images/foreignKeys.png" width="11px" height="12px" preserveAspectRatio="xMinYMin meet" x="641.5" y="-112"/>
<text text-anchor="start" x="656.5" y="-103.2" font-family="Helvetica,sans-Serif" font-size="11.00">trees_less_4meter_count_factor</text>
<polygon fill="none" stroke="black" points="636.5,-73 636.5,-95 887.5,-95 887.5,-73 636.5,-73"/>
<image xlink:href="../../images/foreignKeys.png" width="11px" height="12px" preserveAspectRatio="xMinYMin meet" x="641.5" y="-90"/>
<text text-anchor="start" x="656.5" y="-81.2" font-family="Helvetica,sans-Serif" font-size="11.00">trees_less_4meter_layer</text>
<polygon fill="none" stroke="black" points="636.5,-55 636.5,-73 887.5,-73 887.5,-55 636.5,-55"/>
<text text-anchor="start" x="639.5" y="-61.2" font-family="Helvetica,sans-Serif" font-size="11.00">...</text>
<polygon fill="#ffffff" stroke="transparent" points="636.5,-37 636.5,-55 887.5,-55 887.5,-37 636.5,-37"/>
<polygon fill="none" stroke="black" points="636.5,-37 636.5,-55 887.5,-55 887.5,-37 636.5,-37"/>
<polygon fill="#ffffff" stroke="transparent" points="637.5,-38 637.5,-54 719.5,-54 719.5,-38 637.5,-38"/>
<text text-anchor="start" x="639.5" y="-43.2" font-family="Helvetica,sans-Serif" font-size="11.00">&lt; 24</text>
<polygon fill="#ffffff" stroke="transparent" points="719.5,-38 719.5,-54 811.5,-54 811.5,-38 719.5,-38"/>
<text text-anchor="start" x="747" y="-43.2" font-family="Helvetica,sans-Serif" font-size="11.00">0 rows</text>
<polygon fill="#ffffff" stroke="transparent" points="811.5,-38 811.5,-54 886.5,-54 886.5,-38 811.5,-38"/>
<text text-anchor="start" x="864.5" y="-43.2" font-family="Helvetica,sans-Serif" font-size="11.00">7 &gt;</text>
<polygon fill="black" stroke="black" points="719.5,-38 719.5,-54 719.5,-54 719.5,-38 719.5,-38"/>
<polygon fill="black" stroke="black" points="811.5,-38 811.5,-54 811.5,-54 811.5,-38 811.5,-38"/>
</a>
</g>
</g>
<!-- lookup_property_size_class -->
<g id="node2" class="node">
<title>lookup_property_size_class</title>
<g id="a_node2"><a xlink:href="../../tables/lookup_property_size_class.html" xlink:title="lookup_property_size_class" target="_top">
<polygon fill="#ffffff" stroke="transparent" points="8,-405 8,-537 587,-537 587,-405 8,-405"/>
<polygon fill="#f5f5f5" stroke="transparent" points="10.5,-513 10.5,-535 585.5,-535 585.5,-513 10.5,-513"/>
<polygon fill="none" stroke="black" points="10.5,-513 10.5,-535 585.5,-535 585.5,-513 10.5,-513"/>
<text text-anchor="start" x="15.5" y="-522.2" font-family="Helvetica,sans-Serif" font-weight="bold" font-size="11.00">lookup_property_size_class</text>
<text text-anchor="start" x="543.5" y="-521.2" font-family="Helvetica,sans-Serif" font-size="11.00">[table]</text>
<polygon fill="none" stroke="black" points="10.5,-491 10.5,-513 228.5,-513 228.5,-491 10.5,-491"/>
<text text-anchor="start" x="30.5" y="-499.2" font-family="Helvetica,sans-Serif" font-size="11.00">name_de</text>
<polygon fill="none" stroke="black" points="228.5,-491 228.5,-513 585.5,-513 585.5,-491 228.5,-491"/>
<text text-anchor="start" x="231.5" y="-499.2" font-family="Helvetica,sans-Serif" font-size="11.00">varchar[150]</text>
<polygon fill="none" stroke="black" points="10.5,-469 10.5,-491 228.5,-491 228.5,-469 10.5,-469"/>
<text text-anchor="start" x="30.5" y="-477.2" font-family="Helvetica,sans-Serif" font-size="11.00">name_en</text>
<polygon fill="none" stroke="black" points="228.5,-469 228.5,-491 585.5,-491 585.5,-469 228.5,-469"/>
<text text-anchor="start" x="231.5" y="-477.2" font-family="Helvetica,sans-Serif" font-size="11.00">varchar[150]</text>
<polygon fill="none" stroke="black" points="10.5,-447 10.5,-469 228.5,-469 228.5,-447 10.5,-447"/>
<text text-anchor="start" x="30.5" y="-455.2" font-family="Helvetica,sans-Serif" font-size="11.00">sort</text>
<polygon fill="none" stroke="black" points="228.5,-447 228.5,-469 585.5,-469 585.5,-447 228.5,-447"/>
<text text-anchor="start" x="231.5" y="-455.2" font-family="Helvetica,sans-Serif" font-size="11.00">int4[10]</text>
<polygon fill="#ffffff" stroke="transparent" points="10.5,-425 10.5,-447 228.5,-447 228.5,-425 10.5,-425"/>
<polygon fill="none" stroke="black" points="10.5,-425 10.5,-447 228.5,-447 228.5,-425 10.5,-425"/>
<text text-anchor="start" x="30.5" y="-433.2" font-family="Helvetica,sans-Serif" font-size="11.00">abbreviation</text>
<polygon fill="none" stroke="black" points="228.5,-425 228.5,-447 585.5,-447 585.5,-425 228.5,-425"/>
<text text-anchor="start" x="231.5" y="-433.2" font-family="Helvetica,sans-Serif" font-size="11.00">&quot;private_ci2027_001&quot;.&quot;enum_property_size_class&quot;[2147483647]</text>
<polygon fill="#ffffff" stroke="transparent" points="10.5,-407 10.5,-425 585.5,-425 585.5,-407 10.5,-407"/>
<polygon fill="none" stroke="black" points="10.5,-407 10.5,-425 585.5,-425 585.5,-407 10.5,-407"/>
<polygon fill="#ffffff" stroke="transparent" points="11.5,-408 11.5,-424 197.5,-424 197.5,-408 11.5,-408"/>
<text text-anchor="start" x="13.5" y="-413.2" font-family="Helvetica,sans-Serif" font-size="11.00">&lt; 0</text>
<polygon fill="#ffffff" stroke="transparent" points="197.5,-408 197.5,-424 399.5,-424 399.5,-408 197.5,-408"/>
<text text-anchor="start" x="280" y="-413.2" font-family="Helvetica,sans-Serif" font-size="11.00">0 rows</text>
<polygon fill="#ffffff" stroke="transparent" points="399.5,-408 399.5,-424 584.5,-424 584.5,-408 399.5,-408"/>
<text text-anchor="start" x="562.5" y="-413.2" font-family="Helvetica,sans-Serif" font-size="11.00">1 &gt;</text>
<polygon fill="black" stroke="black" points="197.5,-408 197.5,-424 197.5,-424 197.5,-408 197.5,-408"/>
<polygon fill="black" stroke="black" points="399.5,-408 399.5,-424 399.5,-424 399.5,-408 399.5,-408"/>
<polygon fill="none" stroke="black" stroke-width="2" points="9,-406 9,-536 586,-536 586,-406 9,-406"/>
</a>
</g>
</g>
<!-- plot&#45;&gt;lookup_property_size_class -->
<g id="edge1" class="edge">
<title>plot:w&#45;&gt;lookup_property_size_class:e</title>
<path fill="none" stroke="black" d="M620.99,-436C609.68,-436 602.49,-436 586.5,-436"/>
<polygon fill="black" stroke="black" points="627.5,-436 635.5,-439.6 631.5,-436 635.5,-436 635.5,-436 635.5,-436 631.5,-436 635.5,-432.4 627.5,-436 627.5,-436"/>
<ellipse fill="none" stroke="black" cx="624.3" cy="-436" rx="3.2" ry="3.2"/>
</g>
</g>
</svg>
