<?xml version="1.0" encoding="UTF-8" standalone="no"?>
<!DOCTYPE svg PUBLIC "-//W3C//DTD SVG 1.1//EN"
 "http://www.w3.org/Graphics/SVG/1.1/DTD/svg11.dtd">
<!-- Generated by graphviz version 2.43.0 (0)
 -->
<!-- Title: oneDegreeRelationshipsDiagram Pages: 1 -->
<svg width="504pt" height="181pt"
 viewBox="0.00 0.00 504.00 181.00" xmlns="http://www.w3.org/2000/svg" xmlns:xlink="http://www.w3.org/1999/xlink">
<g id="graph0" class="graph" transform="scale(1 1) rotate(0) translate(4 177)">
<title>oneDegreeRelationshipsDiagram</title>
<polygon fill="#ffffff" stroke="transparent" points="-4,4 -4,-177 500,-177 500,4 -4,4"/>
<text text-anchor="middle" x="79.5" y="-7.2" font-family="Helvetica,sans-Serif" font-size="11.00">Generated by SchemaSpy</text>
<!-- lookup_template -->
<g id="node1" class="node">
<title>lookup_template</title>
<g id="a_node1"><a xlink:href="../../tables/lookup_template.html" xlink:title="lookup_template" target="_top">
<polygon fill="#ffffff" stroke="transparent" points="8,-37 8,-169 488,-169 488,-37 8,-37"/>
<polygon fill="#f5f5f5" stroke="transparent" points="10,-145 10,-167 486,-167 486,-145 10,-145"/>
<polygon fill="none" stroke="black" points="10,-145 10,-167 486,-167 486,-145 10,-145"/>
<text text-anchor="start" x="15" y="-154.2" font-family="Helvetica,sans-Serif" font-weight="bold" font-size="11.00">lookup_template</text>
<text text-anchor="start" x="444" y="-153.2" font-family="Helvetica,sans-Serif" font-size="11.00">[table]</text>
<polygon fill="none" stroke="black" points="10,-123 10,-145 153,-145 153,-123 10,-123"/>
<text text-anchor="start" x="30" y="-131.2" font-family="Helvetica,sans-Serif" font-size="11.00">name_de</text>
<polygon fill="none" stroke="black" points="153,-123 153,-145 486,-145 486,-123 153,-123"/>
<text text-anchor="start" x="156" y="-131.2" font-family="Helvetica,sans-Serif" font-size="11.00">varchar[150]</text>
<polygon fill="none" stroke="black" points="10,-101 10,-123 153,-123 153,-101 10,-101"/>
<text text-anchor="start" x="30" y="-109.2" font-family="Helvetica,sans-Serif" font-size="11.00">name_en</text>
<polygon fill="none" stroke="black" points="153,-101 153,-123 486,-123 486,-101 153,-101"/>
<text text-anchor="start" x="156" y="-109.2" font-family="Helvetica,sans-Serif" font-size="11.00">varchar[150]</text>
<polygon fill="none" stroke="black" points="10,-79 10,-101 153,-101 153,-79 10,-79"/>
<text text-anchor="start" x="30" y="-87.2" font-family="Helvetica,sans-Serif" font-size="11.00">interval</text>
<polygon fill="none" stroke="black" points="153,-79 153,-101 486,-101 486,-79 153,-79"/>
<text text-anchor="start" x="156" y="-87.2" font-family="Helvetica,sans-Serif" font-size="11.00">&quot;private_ci2027_001&quot;.&quot;_enum_interval_name&quot;[2147483647]</text>
<polygon fill="none" stroke="black" points="10,-57 10,-79 153,-79 153,-57 10,-57"/>
<text text-anchor="start" x="30" y="-65.2" font-family="Helvetica,sans-Serif" font-size="11.00">sort</text>
<polygon fill="none" stroke="black" points="153,-57 153,-79 486,-79 486,-57 153,-57"/>
<text text-anchor="start" x="156" y="-65.2" font-family="Helvetica,sans-Serif" font-size="11.00">int4[10]</text>
<polygon fill="#ffffff" stroke="transparent" points="10,-39 10,-57 486,-57 486,-39 10,-39"/>
<polygon fill="none" stroke="black" points="10,-39 10,-57 486,-57 486,-39 10,-39"/>
<polygon fill="#ffffff" stroke="transparent" points="11,-40 11,-56 164,-56 164,-40 11,-40"/>
<text text-anchor="start" x="13" y="-45.2" font-family="Helvetica,sans-Serif" font-size="11.00">&lt; 0</text>
<polygon fill="#ffffff" stroke="transparent" points="164,-40 164,-56 333,-56 333,-40 164,-40"/>
<text text-anchor="start" x="230" y="-45.2" font-family="Helvetica,sans-Serif" font-size="11.00">0 rows</text>
<polygon fill="#ffffff" stroke="transparent" points="333,-40 333,-56 485,-56 485,-40 333,-40"/>
<text text-anchor="start" x="463" y="-45.2" font-family="Helvetica,sans-Serif" font-size="11.00">0 &gt;</text>
<polygon fill="black" stroke="black" points="164,-40 164,-56 164,-56 164,-40 164,-40"/>
<polygon fill="black" stroke="black" points="333,-40 333,-56 333,-56 333,-40 333,-40"/>
<polygon fill="none" stroke="black" stroke-width="2" points="9,-38 9,-168 487,-168 487,-38 9,-38"/>
</a>
</g>
</g>
</g>
</svg>
