<?xml version="1.0" encoding="UTF-8" standalone="no"?>
<!DOCTYPE svg PUBLIC "-//W3C//DTD SVG 1.1//EN"
 "http://www.w3.org/Graphics/SVG/1.1/DTD/svg11.dtd">
<!-- Generated by graphviz version 2.43.0 (0)
 -->
<!-- Title: twoDegreesRelationshipsDiagram Pages: 1 -->
<svg width="943pt" height="633pt"
 viewBox="0.00 0.00 943.00 632.54" xmlns="http://www.w3.org/2000/svg" xmlns:xlink="http://www.w3.org/1999/xlink">
<g id="graph0" class="graph" transform="scale(1 1) rotate(0) translate(4 628.54)">
<title>twoDegreesRelationshipsDiagram</title>
<polygon fill="#ffffff" stroke="transparent" points="-4,4 -4,-628.54 939,-628.54 939,4 -4,4"/>
<text text-anchor="middle" x="79.5" y="-7.2" font-family="Helvetica,sans-Serif" font-size="11.00">Generated by SchemaSpy</text>
<!-- plot -->
<g id="node1" class="node">
<title>plot</title>
<g id="a_node1"><a xlink:href="../../tables/plot.html" xlink:title="plot" target="_top">
<polygon fill="#ffffff" stroke="transparent" points="422,-562.54 422,-620.54 527,-620.54 527,-562.54 422,-562.54"/>
<polygon fill="#f5f5f5" stroke="transparent" points="422.5,-598.54 422.5,-620.54 527.5,-620.54 527.5,-598.54 422.5,-598.54"/>
<polygon fill="none" stroke="black" points="422.5,-598.54 422.5,-620.54 527.5,-620.54 527.5,-598.54 422.5,-598.54"/>
<text text-anchor="start" x="427" y="-607.74" font-family="Helvetica,sans-Serif" font-weight="bold" font-size="11.00">plot</text>
<text text-anchor="start" x="485.5" y="-606.74" font-family="Helvetica,sans-Serif" font-size="11.00">[table]</text>
<polygon fill="none" stroke="black" points="422.5,-580.54 422.5,-598.54 527.5,-598.54 527.5,-580.54 422.5,-580.54"/>
<text text-anchor="start" x="425.5" y="-586.74" font-family="Helvetica,sans-Serif" font-size="11.00">...</text>
<polygon fill="#ffffff" stroke="transparent" points="422.5,-562.54 422.5,-580.54 527.5,-580.54 527.5,-562.54 422.5,-562.54"/>
<polygon fill="none" stroke="black" points="422.5,-562.54 422.5,-580.54 527.5,-580.54 527.5,-562.54 422.5,-562.54"/>
<polygon fill="#ffffff" stroke="transparent" points="423.5,-563.54 423.5,-579.54 454.5,-579.54 454.5,-563.54 423.5,-563.54"/>
<text text-anchor="start" x="425.5" y="-568.74" font-family="Helvetica,sans-Serif" font-size="11.00">&lt; 24</text>
<polygon fill="#ffffff" stroke="transparent" points="454.5,-563.54 454.5,-579.54 502.5,-579.54 502.5,-563.54 454.5,-563.54"/>
<text text-anchor="start" x="456.5" y="-568.74" font-family="Helvetica,sans-Serif" font-size="11.00">82 rows</text>
<polygon fill="#ffffff" stroke="transparent" points="502.5,-563.54 502.5,-579.54 526.5,-579.54 526.5,-563.54 502.5,-563.54"/>
<text text-anchor="start" x="504.5" y="-568.74" font-family="Helvetica,sans-Serif" font-size="11.00">7 &gt;</text>
<polygon fill="black" stroke="black" points="454.5,-563.54 454.5,-579.54 454.5,-579.54 454.5,-563.54 454.5,-563.54"/>
<polygon fill="black" stroke="black" points="502.5,-563.54 502.5,-579.54 502.5,-579.54 502.5,-563.54 502.5,-563.54"/>
</a>
</g>
</g>
<!-- lookup_stand_layer -->
<g id="node2" class="node">
<title>lookup_stand_layer</title>
<g id="a_node2"><a xlink:href="../../tables/lookup_stand_layer.html" xlink:title="lookup_stand_layer" target="_top">
<polygon fill="#ffffff" stroke="transparent" points="8,-302.54 8,-360.54 195,-360.54 195,-302.54 8,-302.54"/>
<polygon fill="#f5f5f5" stroke="transparent" points="8.5,-338.54 8.5,-360.54 195.5,-360.54 195.5,-338.54 8.5,-338.54"/>
<polygon fill="none" stroke="black" points="8.5,-338.54 8.5,-360.54 195.5,-360.54 195.5,-338.54 8.5,-338.54"/>
<text text-anchor="start" x="13.5" y="-347.74" font-family="Helvetica,sans-Serif" font-weight="bold" font-size="11.00">lookup_stand_layer</text>
<text text-anchor="start" x="153.5" y="-346.74" font-family="Helvetica,sans-Serif" font-size="11.00">[table]</text>
<polygon fill="none" stroke="black" points="8.5,-320.54 8.5,-338.54 195.5,-338.54 195.5,-320.54 8.5,-320.54"/>
<text text-anchor="start" x="11.5" y="-326.74" font-family="Helvetica,sans-Serif" font-size="11.00">...</text>
<polygon fill="#ffffff" stroke="transparent" points="8.5,-302.54 8.5,-320.54 195.5,-320.54 195.5,-302.54 8.5,-302.54"/>
<polygon fill="none" stroke="black" points="8.5,-302.54 8.5,-320.54 195.5,-320.54 195.5,-302.54 8.5,-302.54"/>
<polygon fill="#ffffff" stroke="transparent" points="9.5,-303.54 9.5,-319.54 57.5,-319.54 57.5,-303.54 9.5,-303.54"/>
<text text-anchor="start" x="11.5" y="-308.74" font-family="Helvetica,sans-Serif" font-size="11.00"> &#160;</text>
<polygon fill="#ffffff" stroke="transparent" points="57.5,-303.54 57.5,-319.54 134.5,-319.54 134.5,-303.54 57.5,-303.54"/>
<text text-anchor="start" x="77.5" y="-308.74" font-family="Helvetica,sans-Serif" font-size="11.00">0 rows</text>
<polygon fill="#ffffff" stroke="transparent" points="134.5,-303.54 134.5,-319.54 194.5,-319.54 194.5,-303.54 134.5,-303.54"/>
<text text-anchor="start" x="172.5" y="-308.74" font-family="Helvetica,sans-Serif" font-size="11.00">2 &gt;</text>
<polygon fill="black" stroke="black" points="57.5,-303.54 57.5,-319.54 57.5,-319.54 57.5,-303.54 57.5,-303.54"/>
<polygon fill="black" stroke="black" points="134.5,-303.54 134.5,-319.54 134.5,-319.54 134.5,-303.54 134.5,-303.54"/>
</a>
</g>
</g>
<!-- plot&#45;&gt;lookup_stand_layer -->
<g id="edge1" class="edge">
<title>plot:w&#45;&gt;lookup_stand_layer:e</title>
<path fill="none" stroke="black" d="M406.67,-589.77C332.21,-592.03 291.24,-608.98 236,-552.54 200.8,-516.57 246.83,-329.54 196.5,-329.54"/>
<polygon fill="black" stroke="black" points="413.5,-589.66 421.56,-593.14 417.5,-589.6 421.5,-589.54 421.5,-589.54 421.5,-589.54 417.5,-589.6 421.44,-585.94 413.5,-589.66 413.5,-589.66"/>
<ellipse fill="none" stroke="black" cx="410.3" cy="-589.71" rx="3.2" ry="3.2"/>
</g>
<!-- wzp_tree -->
<g id="node3" class="node">
<title>wzp_tree</title>
<g id="a_node3"><a xlink:href="../../tables/wzp_tree.html" xlink:title="wzp_tree" target="_top">
<polygon fill="#ffffff" stroke="transparent" points="754,-165.54 754,-399.54 927,-399.54 927,-165.54 754,-165.54"/>
<polygon fill="#f5f5f5" stroke="transparent" points="754.5,-377.54 754.5,-399.54 927.5,-399.54 927.5,-377.54 754.5,-377.54"/>
<polygon fill="none" stroke="black" points="754.5,-377.54 754.5,-399.54 927.5,-399.54 927.5,-377.54 754.5,-377.54"/>
<text text-anchor="start" x="759.5" y="-386.74" font-family="Helvetica,sans-Serif" font-weight="bold" font-size="11.00">wzp_tree</text>
<text text-anchor="start" x="885.5" y="-385.74" font-family="Helvetica,sans-Serif" font-size="11.00">[table]</text>
<polygon fill="none" stroke="black" points="754.5,-355.54 754.5,-377.54 927.5,-377.54 927.5,-355.54 754.5,-355.54"/>
<image xlink:href="../../images/primaryKeys.png" width="11px" height="12px" preserveAspectRatio="xMinYMin meet" x="759.5" y="-372.538"/>
<text text-anchor="start" x="774.5" y="-363.74" font-family="Helvetica,sans-Serif" font-size="11.00">id</text>
<polygon fill="none" stroke="black" points="754.5,-333.54 754.5,-355.54 927.5,-355.54 927.5,-333.54 754.5,-333.54"/>
<image xlink:href="../../images/foreignKeys.png" width="11px" height="12px" preserveAspectRatio="xMinYMin meet" x="759.5" y="-350.538"/>
<text text-anchor="start" x="774.5" y="-341.74" font-family="Helvetica,sans-Serif" font-size="11.00">plot_id</text>
<polygon fill="none" stroke="black" points="754.5,-311.54 754.5,-333.54 927.5,-333.54 927.5,-311.54 754.5,-311.54"/>
<image xlink:href="../../images/foreignKeys.png" width="11px" height="12px" preserveAspectRatio="xMinYMin meet" x="759.5" y="-328.538"/>
<text text-anchor="start" x="774.5" y="-319.74" font-family="Helvetica,sans-Serif" font-size="11.00">tree_state</text>
<polygon fill="none" stroke="black" points="754.5,-289.54 754.5,-311.54 927.5,-311.54 927.5,-289.54 754.5,-289.54"/>
<image xlink:href="../../images/foreignKeys.png" width="11px" height="12px" preserveAspectRatio="xMinYMin meet" x="759.5" y="-306.538"/>
<text text-anchor="start" x="774.5" y="-297.74" font-family="Helvetica,sans-Serif" font-size="11.00">tree_species</text>
<polygon fill="none" stroke="black" points="754.5,-267.54 754.5,-289.54 927.5,-289.54 927.5,-267.54 754.5,-267.54"/>
<image xlink:href="../../images/foreignKeys.png" width="11px" height="12px" preserveAspectRatio="xMinYMin meet" x="759.5" y="-284.538"/>
<text text-anchor="start" x="774.5" y="-275.74" font-family="Helvetica,sans-Serif" font-size="11.00">stem_breakage</text>
<polygon fill="none" stroke="black" points="754.5,-245.54 754.5,-267.54 927.5,-267.54 927.5,-245.54 754.5,-245.54"/>
<image xlink:href="../../images/foreignKeys.png" width="11px" height="12px" preserveAspectRatio="xMinYMin meet" x="759.5" y="-262.538"/>
<text text-anchor="start" x="774.5" y="-253.74" font-family="Helvetica,sans-Serif" font-size="11.00">stem_form</text>
<polygon fill="none" stroke="black" points="754.5,-223.54 754.5,-245.54 927.5,-245.54 927.5,-223.54 754.5,-223.54"/>
<image xlink:href="../../images/foreignKeys.png" width="11px" height="12px" preserveAspectRatio="xMinYMin meet" x="759.5" y="-240.538"/>
<text text-anchor="start" x="774.5" y="-231.74" font-family="Helvetica,sans-Serif" font-size="11.00">pruning</text>
<polygon fill="none" stroke="black" points="754.5,-201.54 754.5,-223.54 927.5,-223.54 927.5,-201.54 754.5,-201.54"/>
<image xlink:href="../../images/foreignKeys.png" width="11px" height="12px" preserveAspectRatio="xMinYMin meet" x="759.5" y="-218.538"/>
<text text-anchor="start" x="774.5" y="-209.74" font-family="Helvetica,sans-Serif" font-size="11.00">inventory_layer</text>
<polygon fill="none" stroke="black" points="754.5,-183.54 754.5,-201.54 927.5,-201.54 927.5,-183.54 754.5,-183.54"/>
<text text-anchor="start" x="757.5" y="-189.74" font-family="Helvetica,sans-Serif" font-size="11.00">...</text>
<polygon fill="#ffffff" stroke="transparent" points="754.5,-165.54 754.5,-183.54 927.5,-183.54 927.5,-165.54 754.5,-165.54"/>
<polygon fill="none" stroke="black" points="754.5,-165.54 754.5,-183.54 927.5,-183.54 927.5,-165.54 754.5,-165.54"/>
<polygon fill="#ffffff" stroke="transparent" points="755.5,-166.54 755.5,-182.54 806.5,-182.54 806.5,-166.54 755.5,-166.54"/>
<text text-anchor="start" x="757.5" y="-171.74" font-family="Helvetica,sans-Serif" font-size="11.00">&lt; 7</text>
<polygon fill="#ffffff" stroke="transparent" points="806.5,-166.54 806.5,-182.54 888.5,-182.54 888.5,-166.54 806.5,-166.54"/>
<text text-anchor="start" x="822" y="-171.74" font-family="Helvetica,sans-Serif" font-size="11.00">747 rows</text>
<polygon fill="#ffffff" stroke="transparent" points="888.5,-166.54 888.5,-182.54 926.5,-182.54 926.5,-166.54 888.5,-166.54"/>
<text text-anchor="start" x="916.5" y="-171.74" font-family="Helvetica,sans-Serif" font-size="11.00"> &#160;</text>
<polygon fill="black" stroke="black" points="806.5,-166.54 806.5,-182.54 806.5,-182.54 806.5,-166.54 806.5,-166.54"/>
<polygon fill="black" stroke="black" points="888.5,-166.54 888.5,-182.54 888.5,-182.54 888.5,-166.54 888.5,-166.54"/>
</a>
</g>
</g>
<!-- wzp_tree&#45;&gt;plot -->
<g id="edge3" class="edge">
<title>wzp_tree:w&#45;&gt;plot:e</title>
<path fill="none" stroke="black" d="M739.07,-345.95C672.75,-360.83 775.52,-489.67 713,-552.54 654.03,-611.84 612.13,-589.54 528.5,-589.54"/>
<polygon fill="black" stroke="black" points="745.54,-345.32 753.85,-348.12 749.52,-344.93 753.5,-344.54 753.5,-344.54 753.5,-344.54 749.52,-344.93 753.15,-340.96 745.54,-345.32 745.54,-345.32"/>
<ellipse fill="none" stroke="black" cx="742.35" cy="-345.63" rx="3.2" ry="3.2"/>
</g>
<!-- wzp_tree&#45;&gt;lookup_stand_layer -->
<g id="edge2" class="edge">
<title>wzp_tree:w&#45;&gt;lookup_stand_layer:e</title>
<path fill="none" stroke="black" d="M739.24,-209.99C705.29,-194.71 756.98,-114.9 713,-82.54 627.62,-19.71 316.65,-13.76 236,-82.54 193.7,-118.61 252.09,-329.54 196.5,-329.54"/>
<polygon fill="black" stroke="black" points="745.63,-211.13 752.87,-216.08 749.56,-211.83 753.5,-212.54 753.5,-212.54 753.5,-212.54 749.56,-211.83 754.13,-208.99 745.63,-211.13 745.63,-211.13"/>
<ellipse fill="none" stroke="black" cx="742.48" cy="-210.57" rx="3.2" ry="3.2"/>
</g>
<!-- lookup_pruning -->
<g id="node4" class="node">
<title>lookup_pruning</title>
<g id="a_node4"><a xlink:href="../../tables/lookup_pruning.html" xlink:title="lookup_pruning" target="_top">
<polygon fill="#ffffff" stroke="transparent" points="394.5,-93.54 394.5,-151.54 554.5,-151.54 554.5,-93.54 394.5,-93.54"/>
<polygon fill="#f5f5f5" stroke="transparent" points="394.5,-129.54 394.5,-151.54 554.5,-151.54 554.5,-129.54 394.5,-129.54"/>
<polygon fill="none" stroke="black" points="394.5,-129.54 394.5,-151.54 554.5,-151.54 554.5,-129.54 394.5,-129.54"/>
<text text-anchor="start" x="399.5" y="-138.74" font-family="Helvetica,sans-Serif" font-weight="bold" font-size="11.00">lookup_pruning</text>
<text text-anchor="start" x="512.5" y="-137.74" font-family="Helvetica,sans-Serif" font-size="11.00">[table]</text>
<polygon fill="none" stroke="black" points="394.5,-111.54 394.5,-129.54 554.5,-129.54 554.5,-111.54 394.5,-111.54"/>
<text text-anchor="start" x="397.5" y="-117.74" font-family="Helvetica,sans-Serif" font-size="11.00">...</text>
<polygon fill="#ffffff" stroke="transparent" points="394.5,-93.54 394.5,-111.54 554.5,-111.54 554.5,-93.54 394.5,-93.54"/>
<polygon fill="none" stroke="black" points="394.5,-93.54 394.5,-111.54 554.5,-111.54 554.5,-93.54 394.5,-93.54"/>
<polygon fill="#ffffff" stroke="transparent" points="395.5,-94.54 395.5,-110.54 434.5,-110.54 434.5,-94.54 395.5,-94.54"/>
<text text-anchor="start" x="397.5" y="-99.74" font-family="Helvetica,sans-Serif" font-size="11.00"> &#160;</text>
<polygon fill="#ffffff" stroke="transparent" points="434.5,-94.54 434.5,-110.54 502.5,-110.54 502.5,-94.54 434.5,-94.54"/>
<text text-anchor="start" x="450" y="-99.74" font-family="Helvetica,sans-Serif" font-size="11.00">0 rows</text>
<polygon fill="#ffffff" stroke="transparent" points="502.5,-94.54 502.5,-110.54 553.5,-110.54 553.5,-94.54 502.5,-94.54"/>
<text text-anchor="start" x="531.5" y="-99.74" font-family="Helvetica,sans-Serif" font-size="11.00">1 &gt;</text>
<polygon fill="black" stroke="black" points="434.5,-94.54 434.5,-110.54 434.5,-110.54 434.5,-94.54 434.5,-94.54"/>
<polygon fill="black" stroke="black" points="502.5,-94.54 502.5,-110.54 502.5,-110.54 502.5,-94.54 502.5,-94.54"/>
</a>
</g>
</g>
<!-- wzp_tree&#45;&gt;lookup_pruning -->
<g id="edge4" class="edge">
<title>wzp_tree:w&#45;&gt;lookup_pruning:e</title>
<path fill="none" stroke="black" d="M739.35,-230.48C723.68,-218.07 737.28,-180.36 713,-161.54 655.83,-117.22 627.83,-120.54 555.5,-120.54"/>
<polygon fill="black" stroke="black" points="745.81,-232.33 752.51,-238 749.66,-233.44 753.5,-234.54 753.5,-234.54 753.5,-234.54 749.66,-233.44 754.49,-231.08 745.81,-232.33 745.81,-232.33"/>
<ellipse fill="none" stroke="black" cx="742.73" cy="-231.45" rx="3.2" ry="3.2"/>
</g>
<!-- lookup_stem_breakage -->
<g id="node5" class="node">
<title>lookup_stem_breakage</title>
<g id="a_node5"><a xlink:href="../../tables/lookup_stem_breakage.html" xlink:title="lookup_stem_breakage" target="_top">
<polygon fill="#ffffff" stroke="transparent" points="367.5,-251.54 367.5,-309.54 581.5,-309.54 581.5,-251.54 367.5,-251.54"/>
<polygon fill="#f5f5f5" stroke="transparent" points="367.5,-287.54 367.5,-309.54 581.5,-309.54 581.5,-287.54 367.5,-287.54"/>
<polygon fill="none" stroke="black" points="367.5,-287.54 367.5,-309.54 581.5,-309.54 581.5,-287.54 367.5,-287.54"/>
<text text-anchor="start" x="372.5" y="-296.74" font-family="Helvetica,sans-Serif" font-weight="bold" font-size="11.00">lookup_stem_breakage</text>
<text text-anchor="start" x="539.5" y="-295.74" font-family="Helvetica,sans-Serif" font-size="11.00">[table]</text>
<polygon fill="none" stroke="black" points="367.5,-269.54 367.5,-287.54 581.5,-287.54 581.5,-269.54 367.5,-269.54"/>
<text text-anchor="start" x="370.5" y="-275.74" font-family="Helvetica,sans-Serif" font-size="11.00">...</text>
<polygon fill="#ffffff" stroke="transparent" points="367.5,-251.54 367.5,-269.54 581.5,-269.54 581.5,-251.54 367.5,-251.54"/>
<polygon fill="none" stroke="black" points="367.5,-251.54 367.5,-269.54 581.5,-269.54 581.5,-251.54 367.5,-251.54"/>
<polygon fill="#ffffff" stroke="transparent" points="368.5,-252.54 368.5,-268.54 425.5,-268.54 425.5,-252.54 368.5,-252.54"/>
<text text-anchor="start" x="370.5" y="-257.74" font-family="Helvetica,sans-Serif" font-size="11.00"> &#160;</text>
<polygon fill="#ffffff" stroke="transparent" points="425.5,-252.54 425.5,-268.54 511.5,-268.54 511.5,-252.54 425.5,-252.54"/>
<text text-anchor="start" x="450" y="-257.74" font-family="Helvetica,sans-Serif" font-size="11.00">0 rows</text>
<polygon fill="#ffffff" stroke="transparent" points="511.5,-252.54 511.5,-268.54 580.5,-268.54 580.5,-252.54 511.5,-252.54"/>
<text text-anchor="start" x="558.5" y="-257.74" font-family="Helvetica,sans-Serif" font-size="11.00">1 &gt;</text>
<polygon fill="black" stroke="black" points="425.5,-252.54 425.5,-268.54 425.5,-268.54 425.5,-252.54 425.5,-252.54"/>
<polygon fill="black" stroke="black" points="511.5,-252.54 511.5,-268.54 511.5,-268.54 511.5,-252.54 511.5,-252.54"/>
</a>
</g>
</g>
<!-- wzp_tree&#45;&gt;lookup_stem_breakage -->
<g id="edge5" class="edge">
<title>wzp_tree:w&#45;&gt;lookup_stem_breakage:e</title>
<path fill="none" stroke="black" d="M739.08,-278.54C674.73,-278.54 653.45,-278.54 582.5,-278.54"/>
<polygon fill="black" stroke="black" points="745.5,-278.54 753.5,-282.14 749.5,-278.54 753.5,-278.54 753.5,-278.54 753.5,-278.54 749.5,-278.54 753.5,-274.94 745.5,-278.54 745.5,-278.54"/>
<ellipse fill="none" stroke="black" cx="742.3" cy="-278.54" rx="3.2" ry="3.2"/>
</g>
<!-- lookup_stem_form -->
<g id="node6" class="node">
<title>lookup_stem_form</title>
<g id="a_node6"><a xlink:href="../../tables/lookup_stem_form.html" xlink:title="lookup_stem_form" target="_top">
<polygon fill="#ffffff" stroke="transparent" points="384.5,-172.54 384.5,-230.54 564.5,-230.54 564.5,-172.54 384.5,-172.54"/>
<polygon fill="#f5f5f5" stroke="transparent" points="384.5,-208.54 384.5,-230.54 564.5,-230.54 564.5,-208.54 384.5,-208.54"/>
<polygon fill="none" stroke="black" points="384.5,-208.54 384.5,-230.54 564.5,-230.54 564.5,-208.54 384.5,-208.54"/>
<text text-anchor="start" x="389.5" y="-217.74" font-family="Helvetica,sans-Serif" font-weight="bold" font-size="11.00">lookup_stem_form</text>
<text text-anchor="start" x="522.5" y="-216.74" font-family="Helvetica,sans-Serif" font-size="11.00">[table]</text>
<polygon fill="none" stroke="black" points="384.5,-190.54 384.5,-208.54 564.5,-208.54 564.5,-190.54 384.5,-190.54"/>
<text text-anchor="start" x="387.5" y="-196.74" font-family="Helvetica,sans-Serif" font-size="11.00">...</text>
<polygon fill="#ffffff" stroke="transparent" points="384.5,-172.54 384.5,-190.54 564.5,-190.54 564.5,-172.54 384.5,-172.54"/>
<polygon fill="none" stroke="black" points="384.5,-172.54 384.5,-190.54 564.5,-190.54 564.5,-172.54 384.5,-172.54"/>
<polygon fill="#ffffff" stroke="transparent" points="385.5,-173.54 385.5,-189.54 431.5,-189.54 431.5,-173.54 385.5,-173.54"/>
<text text-anchor="start" x="387.5" y="-178.74" font-family="Helvetica,sans-Serif" font-size="11.00"> &#160;</text>
<polygon fill="#ffffff" stroke="transparent" points="431.5,-173.54 431.5,-189.54 506.5,-189.54 506.5,-173.54 431.5,-173.54"/>
<text text-anchor="start" x="450.5" y="-178.74" font-family="Helvetica,sans-Serif" font-size="11.00">0 rows</text>
<polygon fill="#ffffff" stroke="transparent" points="506.5,-173.54 506.5,-189.54 563.5,-189.54 563.5,-173.54 506.5,-173.54"/>
<text text-anchor="start" x="541.5" y="-178.74" font-family="Helvetica,sans-Serif" font-size="11.00">1 &gt;</text>
<polygon fill="black" stroke="black" points="431.5,-173.54 431.5,-189.54 431.5,-189.54 431.5,-173.54 431.5,-173.54"/>
<polygon fill="black" stroke="black" points="506.5,-173.54 506.5,-189.54 506.5,-189.54 506.5,-173.54 506.5,-173.54"/>
</a>
</g>
</g>
<!-- wzp_tree&#45;&gt;lookup_stem_form -->
<g id="edge6" class="edge">
<title>wzp_tree:w&#45;&gt;lookup_stem_form:e</title>
<path fill="none" stroke="black" d="M739.28,-254.26C730.91,-251.19 725.54,-245.64 713,-241.54 648.21,-220.35 633.66,-199.54 565.5,-199.54"/>
<polygon fill="black" stroke="black" points="745.6,-255.27 752.93,-260.09 749.55,-255.91 753.5,-256.54 753.5,-256.54 753.5,-256.54 749.55,-255.91 754.07,-252.98 745.6,-255.27 745.6,-255.27"/>
<ellipse fill="none" stroke="black" cx="742.44" cy="-254.77" rx="3.2" ry="3.2"/>
</g>
<!-- lookup_tree_species -->
<g id="node7" class="node">
<title>lookup_tree_species</title>
<g id="a_node7"><a xlink:href="../../tables/lookup_tree_species.html" xlink:title="lookup_tree_species" target="_top">
<polygon fill="#ffffff" stroke="transparent" points="377.5,-330.54 377.5,-388.54 571.5,-388.54 571.5,-330.54 377.5,-330.54"/>
<polygon fill="#f5f5f5" stroke="transparent" points="377.5,-366.54 377.5,-388.54 571.5,-388.54 571.5,-366.54 377.5,-366.54"/>
<polygon fill="none" stroke="black" points="377.5,-366.54 377.5,-388.54 571.5,-388.54 571.5,-366.54 377.5,-366.54"/>
<text text-anchor="start" x="382.5" y="-375.74" font-family="Helvetica,sans-Serif" font-weight="bold" font-size="11.00">lookup_tree_species</text>
<text text-anchor="start" x="529.5" y="-374.74" font-family="Helvetica,sans-Serif" font-size="11.00">[table]</text>
<polygon fill="none" stroke="black" points="377.5,-348.54 377.5,-366.54 571.5,-366.54 571.5,-348.54 377.5,-348.54"/>
<text text-anchor="start" x="380.5" y="-354.74" font-family="Helvetica,sans-Serif" font-size="11.00">...</text>
<polygon fill="#ffffff" stroke="transparent" points="377.5,-330.54 377.5,-348.54 571.5,-348.54 571.5,-330.54 377.5,-330.54"/>
<polygon fill="none" stroke="black" points="377.5,-330.54 377.5,-348.54 571.5,-348.54 571.5,-330.54 377.5,-330.54"/>
<polygon fill="#ffffff" stroke="transparent" points="378.5,-331.54 378.5,-347.54 424.5,-347.54 424.5,-331.54 378.5,-331.54"/>
<text text-anchor="start" x="380.5" y="-336.74" font-family="Helvetica,sans-Serif" font-size="11.00"> &#160;</text>
<polygon fill="#ffffff" stroke="transparent" points="424.5,-331.54 424.5,-347.54 513.5,-347.54 513.5,-331.54 424.5,-331.54"/>
<text text-anchor="start" x="443.5" y="-336.74" font-family="Helvetica,sans-Serif" font-size="11.00">125 rows</text>
<polygon fill="#ffffff" stroke="transparent" points="513.5,-331.54 513.5,-347.54 570.5,-347.54 570.5,-331.54 513.5,-331.54"/>
<text text-anchor="start" x="548.5" y="-336.74" font-family="Helvetica,sans-Serif" font-size="11.00">3 &gt;</text>
<polygon fill="black" stroke="black" points="424.5,-331.54 424.5,-347.54 424.5,-347.54 424.5,-331.54 424.5,-331.54"/>
<polygon fill="black" stroke="black" points="513.5,-331.54 513.5,-347.54 513.5,-347.54 513.5,-331.54 513.5,-331.54"/>
</a>
</g>
</g>
<!-- wzp_tree&#45;&gt;lookup_tree_species -->
<g id="edge7" class="edge">
<title>wzp_tree:w&#45;&gt;lookup_tree_species:e</title>
<path fill="none" stroke="black" d="M739.28,-303.61C730.84,-307.89 726.07,-315.65 713,-320.54 652.52,-343.17 637.07,-357.54 572.5,-357.54"/>
<polygon fill="black" stroke="black" points="745.68,-302.23 754.26,-304.06 749.59,-301.38 753.5,-300.54 753.5,-300.54 753.5,-300.54 749.59,-301.38 752.74,-297.02 745.68,-302.23 745.68,-302.23"/>
<ellipse fill="none" stroke="black" cx="742.55" cy="-302.91" rx="3.2" ry="3.2"/>
</g>
<!-- lookup_tree_state -->
<g id="node8" class="node">
<title>lookup_tree_state</title>
<g id="a_node8"><a xlink:href="../../tables/lookup_tree_state.html" xlink:title="lookup_tree_state" target="_top">
<polygon fill="#ffffff" stroke="transparent" points="244,-409.54 244,-541.54 705,-541.54 705,-409.54 244,-409.54"/>
<polygon fill="#f5f5f5" stroke="transparent" points="246.5,-517.54 246.5,-539.54 703.5,-539.54 703.5,-517.54 246.5,-517.54"/>
<polygon fill="none" stroke="black" points="246.5,-517.54 246.5,-539.54 703.5,-539.54 703.5,-517.54 246.5,-517.54"/>
<text text-anchor="start" x="251.5" y="-526.74" font-family="Helvetica,sans-Serif" font-weight="bold" font-size="11.00">lookup_tree_state</text>
<text text-anchor="start" x="661.5" y="-525.74" font-family="Helvetica,sans-Serif" font-size="11.00">[table]</text>
<polygon fill="none" stroke="black" points="246.5,-495.54 246.5,-517.54 397.5,-517.54 397.5,-495.54 246.5,-495.54"/>
<text text-anchor="start" x="266.5" y="-503.74" font-family="Helvetica,sans-Serif" font-size="11.00">name_de</text>
<polygon fill="none" stroke="black" points="397.5,-495.54 397.5,-517.54 703.5,-517.54 703.5,-495.54 397.5,-495.54"/>
<text text-anchor="start" x="400.5" y="-503.74" font-family="Helvetica,sans-Serif" font-size="11.00">varchar[150]</text>
<polygon fill="none" stroke="black" points="246.5,-473.54 246.5,-495.54 397.5,-495.54 397.5,-473.54 246.5,-473.54"/>
<text text-anchor="start" x="266.5" y="-481.74" font-family="Helvetica,sans-Serif" font-size="11.00">name_en</text>
<polygon fill="none" stroke="black" points="397.5,-473.54 397.5,-495.54 703.5,-495.54 703.5,-473.54 397.5,-473.54"/>
<text text-anchor="start" x="400.5" y="-481.74" font-family="Helvetica,sans-Serif" font-size="11.00">varchar[150]</text>
<polygon fill="none" stroke="black" points="246.5,-451.54 246.5,-473.54 397.5,-473.54 397.5,-451.54 246.5,-451.54"/>
<text text-anchor="start" x="266.5" y="-459.74" font-family="Helvetica,sans-Serif" font-size="11.00">sort</text>
<polygon fill="none" stroke="black" points="397.5,-451.54 397.5,-473.54 703.5,-473.54 703.5,-451.54 397.5,-451.54"/>
<text text-anchor="start" x="400.5" y="-459.74" font-family="Helvetica,sans-Serif" font-size="11.00">int4[10]</text>
<polygon fill="#ffffff" stroke="transparent" points="246.5,-429.54 246.5,-451.54 397.5,-451.54 397.5,-429.54 246.5,-429.54"/>
<polygon fill="none" stroke="black" points="246.5,-429.54 246.5,-451.54 397.5,-451.54 397.5,-429.54 246.5,-429.54"/>
<text text-anchor="start" x="266.5" y="-437.74" font-family="Helvetica,sans-Serif" font-size="11.00">abbreviation</text>
<polygon fill="none" stroke="black" points="397.5,-429.54 397.5,-451.54 703.5,-451.54 703.5,-429.54 397.5,-429.54"/>
<text text-anchor="start" x="400.5" y="-437.74" font-family="Helvetica,sans-Serif" font-size="11.00">&quot;private_ci2027_001&quot;.&quot;enum_tree_state&quot;[2147483647]</text>
<polygon fill="#ffffff" stroke="transparent" points="246.5,-411.54 246.5,-429.54 703.5,-429.54 703.5,-411.54 246.5,-411.54"/>
<polygon fill="none" stroke="black" points="246.5,-411.54 246.5,-429.54 703.5,-429.54 703.5,-411.54 246.5,-411.54"/>
<polygon fill="#ffffff" stroke="transparent" points="247.5,-412.54 247.5,-428.54 393.5,-428.54 393.5,-412.54 247.5,-412.54"/>
<text text-anchor="start" x="249.5" y="-417.74" font-family="Helvetica,sans-Serif" font-size="11.00">&lt; 0</text>
<polygon fill="#ffffff" stroke="transparent" points="393.5,-412.54 393.5,-428.54 556.5,-428.54 556.5,-412.54 393.5,-412.54"/>
<text text-anchor="start" x="456.5" y="-417.74" font-family="Helvetica,sans-Serif" font-size="11.00">0 rows</text>
<polygon fill="#ffffff" stroke="transparent" points="556.5,-412.54 556.5,-428.54 702.5,-428.54 702.5,-412.54 556.5,-412.54"/>
<text text-anchor="start" x="680.5" y="-417.74" font-family="Helvetica,sans-Serif" font-size="11.00">1 &gt;</text>
<polygon fill="black" stroke="black" points="393.5,-412.54 393.5,-428.54 393.5,-428.54 393.5,-412.54 393.5,-412.54"/>
<polygon fill="black" stroke="black" points="556.5,-412.54 556.5,-428.54 556.5,-428.54 556.5,-412.54 556.5,-412.54"/>
<polygon fill="none" stroke="black" stroke-width="2" points="245,-410.54 245,-540.54 704,-540.54 704,-410.54 245,-410.54"/>
</a>
</g>
</g>
<!-- wzp_tree&#45;&gt;lookup_tree_state -->
<g id="edge8" class="edge">
<title>wzp_tree:w&#45;&gt;lookup_tree_state:e</title>
<path fill="none" stroke="black" d="M739.3,-326.2C708.98,-346.12 755.3,-440.54 704.5,-440.54"/>
<polygon fill="black" stroke="black" points="745.75,-324.54 754.4,-326.02 749.63,-323.54 753.5,-322.54 753.5,-322.54 753.5,-322.54 749.63,-323.54 752.6,-319.05 745.75,-324.54 745.75,-324.54"/>
<ellipse fill="none" stroke="black" cx="742.65" cy="-325.33" rx="3.2" ry="3.2"/>
</g>
</g>
</svg>
