<?xml version="1.0" encoding="UTF-8" standalone="no"?>
<!DOCTYPE svg PUBLIC "-//W3C//DTD SVG 1.1//EN"
 "http://www.w3.org/Graphics/SVG/1.1/DTD/svg11.dtd">
<!-- Generated by graphviz version 2.43.0 (0)
 -->
<!-- Title: twoDegreesRelationshipsDiagram Pages: 1 -->
<svg width="916pt" height="489pt"
 viewBox="0.00 0.00 916.00 488.96" xmlns="http://www.w3.org/2000/svg" xmlns:xlink="http://www.w3.org/1999/xlink">
<g id="graph0" class="graph" transform="scale(1 1) rotate(0) translate(4 484.96)">
<title>twoDegreesRelationshipsDiagram</title>
<polygon fill="#ffffff" stroke="transparent" points="-4,4 -4,-484.96 912,-484.96 912,4 -4,4"/>
<text text-anchor="middle" x="79.5" y="-7.2" font-family="Helvetica,sans-Serif" font-size="11.00">Generated by SchemaSpy</text>
<!-- plot_location -->
<g id="node1" class="node">
<title>plot_location</title>
<g id="a_node1"><a xlink:href="../../tables/plot_location.html" xlink:title="plot_location" target="_top">
<polygon fill="#ffffff" stroke="transparent" points="345,-348 345,-406 486,-406 486,-348 345,-348"/>
<polygon fill="#f5f5f5" stroke="transparent" points="345.5,-384 345.5,-406 486.5,-406 486.5,-384 345.5,-384"/>
<polygon fill="none" stroke="black" points="345.5,-384 345.5,-406 486.5,-406 486.5,-384 345.5,-384"/>
<text text-anchor="start" x="350.5" y="-393.2" font-family="Helvetica,sans-Serif" font-weight="bold" font-size="11.00">plot_location</text>
<text text-anchor="start" x="444.5" y="-392.2" font-family="Helvetica,sans-Serif" font-size="11.00">[table]</text>
<polygon fill="none" stroke="black" points="345.5,-366 345.5,-384 486.5,-384 486.5,-366 345.5,-366"/>
<text text-anchor="start" x="348.5" y="-372.2" font-family="Helvetica,sans-Serif" font-size="11.00">...</text>
<polygon fill="#ffffff" stroke="transparent" points="345.5,-348 345.5,-366 486.5,-366 486.5,-348 345.5,-348"/>
<polygon fill="none" stroke="black" points="345.5,-348 345.5,-366 486.5,-366 486.5,-348 345.5,-348"/>
<polygon fill="#ffffff" stroke="transparent" points="346.5,-349 346.5,-365 387.5,-365 387.5,-349 346.5,-349"/>
<text text-anchor="start" x="348.5" y="-354.2" font-family="Helvetica,sans-Serif" font-size="11.00">&lt; 1</text>
<polygon fill="#ffffff" stroke="transparent" points="387.5,-349 387.5,-365 445.5,-365 445.5,-349 387.5,-349"/>
<text text-anchor="start" x="398" y="-354.2" font-family="Helvetica,sans-Serif" font-size="11.00">0 rows</text>
<polygon fill="#ffffff" stroke="transparent" points="445.5,-349 445.5,-365 485.5,-365 485.5,-349 445.5,-349"/>
<text text-anchor="start" x="463.5" y="-354.2" font-family="Helvetica,sans-Serif" font-size="11.00">3 &gt;</text>
<polygon fill="black" stroke="black" points="387.5,-349 387.5,-365 387.5,-365 387.5,-349 387.5,-349"/>
<polygon fill="black" stroke="black" points="445.5,-349 445.5,-365 445.5,-365 445.5,-349 445.5,-349"/>
</a>
</g>
</g>
<!-- plot -->
<g id="node2" class="node">
<title>plot</title>
<g id="a_node2"><a xlink:href="../../tables/plot.html" xlink:title="plot" target="_top">
<polygon fill="#ffffff" stroke="transparent" points="8,-375 8,-433 106,-433 106,-375 8,-375"/>
<polygon fill="#f5f5f5" stroke="transparent" points="8,-411 8,-433 106,-433 106,-411 8,-411"/>
<polygon fill="none" stroke="black" points="8,-411 8,-433 106,-433 106,-411 8,-411"/>
<text text-anchor="start" x="12.5" y="-420.2" font-family="Helvetica,sans-Serif" font-weight="bold" font-size="11.00">plot</text>
<text text-anchor="start" x="64" y="-419.2" font-family="Helvetica,sans-Serif" font-size="11.00">[table]</text>
<polygon fill="none" stroke="black" points="8,-393 8,-411 106,-411 106,-393 8,-393"/>
<text text-anchor="start" x="11" y="-399.2" font-family="Helvetica,sans-Serif" font-size="11.00">...</text>
<polygon fill="#ffffff" stroke="transparent" points="8,-375 8,-393 106,-393 106,-375 8,-375"/>
<polygon fill="none" stroke="black" points="8,-375 8,-393 106,-393 106,-375 8,-375"/>
<polygon fill="#ffffff" stroke="transparent" points="9,-376 9,-392 40,-392 40,-376 9,-376"/>
<text text-anchor="start" x="11" y="-381.2" font-family="Helvetica,sans-Serif" font-size="11.00">&lt; 24</text>
<polygon fill="#ffffff" stroke="transparent" points="40,-376 40,-392 81,-392 81,-376 40,-376"/>
<text text-anchor="start" x="42" y="-381.2" font-family="Helvetica,sans-Serif" font-size="11.00">0 rows</text>
<polygon fill="#ffffff" stroke="transparent" points="81,-376 81,-392 105,-392 105,-376 81,-376"/>
<text text-anchor="start" x="83" y="-381.2" font-family="Helvetica,sans-Serif" font-size="11.00">7 &gt;</text>
<polygon fill="black" stroke="black" points="40,-376 40,-392 40,-392 40,-376 40,-376"/>
<polygon fill="black" stroke="black" points="81,-376 81,-392 81,-392 81,-376 81,-376"/>
</a>
</g>
</g>
<!-- plot_location&#45;&gt;plot -->
<g id="edge1" class="edge">
<title>plot_location:w&#45;&gt;plot:e</title>
<path fill="none" stroke="black" d="M330.08,-375.17C235.74,-377.47 208.26,-402 107,-402"/>
<polygon fill="black" stroke="black" points="336.5,-375.1 344.54,-378.6 340.5,-375.05 344.5,-375 344.5,-375 344.5,-375 340.5,-375.05 344.46,-371.4 336.5,-375.1 336.5,-375.1"/>
<ellipse fill="none" stroke="black" cx="333.3" cy="-375.13" rx="3.2" ry="3.2"/>
</g>
<!-- sapling_2m -->
<g id="node3" class="node">
<title>sapling_2m</title>
<g id="a_node3"><a xlink:href="../../tables/sapling_2m.html" xlink:title="sapling_2m" target="_top">
<polygon fill="#ffffff" stroke="transparent" points="725,-205 725,-395 900,-395 900,-205 725,-205"/>
<polygon fill="#f5f5f5" stroke="transparent" points="725.5,-373 725.5,-395 900.5,-395 900.5,-373 725.5,-373"/>
<polygon fill="none" stroke="black" points="725.5,-373 725.5,-395 900.5,-395 900.5,-373 725.5,-373"/>
<text text-anchor="start" x="730.5" y="-382.2" font-family="Helvetica,sans-Serif" font-weight="bold" font-size="11.00">sapling_2m</text>
<text text-anchor="start" x="858.5" y="-381.2" font-family="Helvetica,sans-Serif" font-size="11.00">[table]</text>
<polygon fill="none" stroke="black" points="725.5,-351 725.5,-373 900.5,-373 900.5,-351 725.5,-351"/>
<image xlink:href="../../images/primaryKeys.png" width="11px" height="12px" preserveAspectRatio="xMinYMin meet" x="730.5" y="-368"/>
<text text-anchor="start" x="745.5" y="-359.2" font-family="Helvetica,sans-Serif" font-size="11.00">id</text>
<polygon fill="none" stroke="black" points="725.5,-329 725.5,-351 900.5,-351 900.5,-329 725.5,-329"/>
<image xlink:href="../../images/foreignKeys.png" width="11px" height="12px" preserveAspectRatio="xMinYMin meet" x="730.5" y="-346"/>
<text text-anchor="start" x="745.5" y="-337.2" font-family="Helvetica,sans-Serif" font-size="11.00">plot_id</text>
<polygon fill="none" stroke="black" points="725.5,-307 725.5,-329 900.5,-329 900.5,-307 725.5,-307"/>
<image xlink:href="../../images/foreignKeys.png" width="11px" height="12px" preserveAspectRatio="xMinYMin meet" x="730.5" y="-324"/>
<text text-anchor="start" x="745.5" y="-315.2" font-family="Helvetica,sans-Serif" font-size="11.00">plot_location_id</text>
<polygon fill="none" stroke="black" points="725.5,-285 725.5,-307 900.5,-307 900.5,-285 725.5,-285"/>
<image xlink:href="../../images/foreignKeys.png" width="11px" height="12px" preserveAspectRatio="xMinYMin meet" x="730.5" y="-302"/>
<text text-anchor="start" x="745.5" y="-293.2" font-family="Helvetica,sans-Serif" font-size="11.00">tree_species</text>
<polygon fill="none" stroke="black" points="725.5,-263 725.5,-285 900.5,-285 900.5,-263 725.5,-263"/>
<image xlink:href="../../images/foreignKeys.png" width="11px" height="12px" preserveAspectRatio="xMinYMin meet" x="730.5" y="-280"/>
<text text-anchor="start" x="745.5" y="-271.2" font-family="Helvetica,sans-Serif" font-size="11.00">bitten</text>
<polygon fill="none" stroke="black" points="725.5,-241 725.5,-263 900.5,-263 900.5,-241 725.5,-241"/>
<image xlink:href="../../images/foreignKeys.png" width="11px" height="12px" preserveAspectRatio="xMinYMin meet" x="730.5" y="-258"/>
<text text-anchor="start" x="745.5" y="-249.2" font-family="Helvetica,sans-Serif" font-size="11.00">tree_size_class</text>
<polygon fill="none" stroke="black" points="725.5,-223 725.5,-241 900.5,-241 900.5,-223 725.5,-223"/>
<text text-anchor="start" x="728.5" y="-229.2" font-family="Helvetica,sans-Serif" font-size="11.00">...</text>
<polygon fill="#ffffff" stroke="transparent" points="725.5,-205 725.5,-223 900.5,-223 900.5,-205 725.5,-205"/>
<polygon fill="none" stroke="black" points="725.5,-205 725.5,-223 900.5,-223 900.5,-205 725.5,-205"/>
<polygon fill="#ffffff" stroke="transparent" points="726.5,-206 726.5,-222 782.5,-222 782.5,-206 726.5,-206"/>
<text text-anchor="start" x="728.5" y="-211.2" font-family="Helvetica,sans-Serif" font-size="11.00">&lt; 5</text>
<polygon fill="#ffffff" stroke="transparent" points="782.5,-206 782.5,-222 855.5,-222 855.5,-206 782.5,-206"/>
<text text-anchor="start" x="800.5" y="-211.2" font-family="Helvetica,sans-Serif" font-size="11.00">0 rows</text>
<polygon fill="#ffffff" stroke="transparent" points="855.5,-206 855.5,-222 899.5,-222 899.5,-206 855.5,-206"/>
<text text-anchor="start" x="889.5" y="-211.2" font-family="Helvetica,sans-Serif" font-size="11.00"> &#160;</text>
<polygon fill="black" stroke="black" points="782.5,-206 782.5,-222 782.5,-222 782.5,-206 782.5,-206"/>
<polygon fill="black" stroke="black" points="855.5,-206 855.5,-222 855.5,-222 855.5,-206 855.5,-206"/>
</a>
</g>
</g>
<!-- sapling_2m&#45;&gt;plot_location -->
<g id="edge4" class="edge">
<title>sapling_2m:w&#45;&gt;plot_location:e</title>
<path fill="none" stroke="black" d="M710.39,-321.02C701.98,-325.21 697.14,-332.72 684,-337 599.42,-364.55 576.45,-375 487.5,-375"/>
<polygon fill="black" stroke="black" points="716.68,-319.68 725.25,-321.52 720.59,-318.84 724.5,-318 724.5,-318 724.5,-318 720.59,-318.84 723.75,-314.48 716.68,-319.68 716.68,-319.68"/>
<ellipse fill="none" stroke="black" cx="713.55" cy="-320.35" rx="3.2" ry="3.2"/>
</g>
<!-- sapling_2m&#45;&gt;plot -->
<g id="edge3" class="edge">
<title>sapling_2m:w&#45;&gt;plot:e</title>
<path fill="none" stroke="black" d="M710.64,-344.14C694.56,-357.49 711.43,-399.53 684,-416 479.37,-538.83 382.29,-455.99 147,-416 128.43,-412.84 125.84,-402 107,-402"/>
<polygon fill="black" stroke="black" points="716.83,-342.29 725.53,-343.45 720.67,-341.14 724.5,-340 724.5,-340 724.5,-340 720.67,-341.14 723.47,-336.55 716.83,-342.29 716.83,-342.29"/>
<ellipse fill="none" stroke="black" cx="713.77" cy="-343.2" rx="3.2" ry="3.2"/>
</g>
<!-- lookup_bitten -->
<g id="node4" class="node">
<title>lookup_bitten</title>
<g id="a_node4"><a xlink:href="../../tables/lookup_bitten.html" xlink:title="lookup_bitten" target="_top">
<polygon fill="#ffffff" stroke="transparent" points="342,-190 342,-248 489,-248 489,-190 342,-190"/>
<polygon fill="#f5f5f5" stroke="transparent" points="342.5,-226 342.5,-248 489.5,-248 489.5,-226 342.5,-226"/>
<polygon fill="none" stroke="black" points="342.5,-226 342.5,-248 489.5,-248 489.5,-226 342.5,-226"/>
<text text-anchor="start" x="347.5" y="-235.2" font-family="Helvetica,sans-Serif" font-weight="bold" font-size="11.00">lookup_bitten</text>
<text text-anchor="start" x="447.5" y="-234.2" font-family="Helvetica,sans-Serif" font-size="11.00">[table]</text>
<polygon fill="none" stroke="black" points="342.5,-208 342.5,-226 489.5,-226 489.5,-208 342.5,-208"/>
<text text-anchor="start" x="345.5" y="-214.2" font-family="Helvetica,sans-Serif" font-size="11.00">...</text>
<polygon fill="#ffffff" stroke="transparent" points="342.5,-190 342.5,-208 489.5,-208 489.5,-190 342.5,-190"/>
<polygon fill="none" stroke="black" points="342.5,-190 342.5,-208 489.5,-208 489.5,-190 342.5,-190"/>
<polygon fill="#ffffff" stroke="transparent" points="343.5,-191 343.5,-207 378.5,-207 378.5,-191 343.5,-191"/>
<text text-anchor="start" x="345.5" y="-196.2" font-family="Helvetica,sans-Serif" font-size="11.00"> &#160;</text>
<polygon fill="#ffffff" stroke="transparent" points="378.5,-191 378.5,-207 442.5,-207 442.5,-191 378.5,-191"/>
<text text-anchor="start" x="392" y="-196.2" font-family="Helvetica,sans-Serif" font-size="11.00">0 rows</text>
<polygon fill="#ffffff" stroke="transparent" points="442.5,-191 442.5,-207 488.5,-207 488.5,-191 442.5,-191"/>
<text text-anchor="start" x="466.5" y="-196.2" font-family="Helvetica,sans-Serif" font-size="11.00">2 &gt;</text>
<polygon fill="black" stroke="black" points="378.5,-191 378.5,-207 378.5,-207 378.5,-191 378.5,-191"/>
<polygon fill="black" stroke="black" points="442.5,-191 442.5,-207 442.5,-207 442.5,-191 442.5,-191"/>
</a>
</g>
</g>
<!-- sapling_2m&#45;&gt;lookup_bitten -->
<g id="edge2" class="edge">
<title>sapling_2m:w&#45;&gt;lookup_bitten:e</title>
<path fill="none" stroke="black" d="M710.26,-271.41C701.96,-267.96 696.74,-261.84 684,-258 599.83,-232.65 578.41,-217 490.5,-217"/>
<polygon fill="black" stroke="black" points="716.63,-272.57 723.86,-277.54 720.56,-273.28 724.5,-274 724.5,-274 724.5,-274 720.56,-273.28 725.14,-270.46 716.63,-272.57 716.63,-272.57"/>
<ellipse fill="none" stroke="black" cx="713.48" cy="-272" rx="3.2" ry="3.2"/>
</g>
<!-- lookup_tree_size_class -->
<g id="node5" class="node">
<title>lookup_tree_size_class</title>
<g id="a_node5"><a xlink:href="../../tables/lookup_tree_size_class.html" xlink:title="lookup_tree_size_class" target="_top">
<polygon fill="#ffffff" stroke="transparent" points="155,-37 155,-169 676,-169 676,-37 155,-37"/>
<polygon fill="#f5f5f5" stroke="transparent" points="157.5,-145 157.5,-167 674.5,-167 674.5,-145 157.5,-145"/>
<polygon fill="none" stroke="black" points="157.5,-145 157.5,-167 674.5,-167 674.5,-145 157.5,-145"/>
<text text-anchor="start" x="162.5" y="-154.2" font-family="Helvetica,sans-Serif" font-weight="bold" font-size="11.00">lookup_tree_size_class</text>
<text text-anchor="start" x="632.5" y="-153.2" font-family="Helvetica,sans-Serif" font-size="11.00">[table]</text>
<polygon fill="none" stroke="black" points="157.5,-123 157.5,-145 342.5,-145 342.5,-123 157.5,-123"/>
<text text-anchor="start" x="177.5" y="-131.2" font-family="Helvetica,sans-Serif" font-size="11.00">name_de</text>
<polygon fill="none" stroke="black" points="342.5,-123 342.5,-145 674.5,-145 674.5,-123 342.5,-123"/>
<text text-anchor="start" x="345.5" y="-131.2" font-family="Helvetica,sans-Serif" font-size="11.00">varchar[150]</text>
<polygon fill="none" stroke="black" points="157.5,-101 157.5,-123 342.5,-123 342.5,-101 157.5,-101"/>
<text text-anchor="start" x="177.5" y="-109.2" font-family="Helvetica,sans-Serif" font-size="11.00">name_en</text>
<polygon fill="none" stroke="black" points="342.5,-101 342.5,-123 674.5,-123 674.5,-101 342.5,-101"/>
<text text-anchor="start" x="345.5" y="-109.2" font-family="Helvetica,sans-Serif" font-size="11.00">varchar[150]</text>
<polygon fill="none" stroke="black" points="157.5,-79 157.5,-101 342.5,-101 342.5,-79 157.5,-79"/>
<text text-anchor="start" x="177.5" y="-87.2" font-family="Helvetica,sans-Serif" font-size="11.00">sort</text>
<polygon fill="none" stroke="black" points="342.5,-79 342.5,-101 674.5,-101 674.5,-79 342.5,-79"/>
<text text-anchor="start" x="345.5" y="-87.2" font-family="Helvetica,sans-Serif" font-size="11.00">int4[10]</text>
<polygon fill="#ffffff" stroke="transparent" points="157.5,-57 157.5,-79 342.5,-79 342.5,-57 157.5,-57"/>
<polygon fill="none" stroke="black" points="157.5,-57 157.5,-79 342.5,-79 342.5,-57 157.5,-57"/>
<text text-anchor="start" x="177.5" y="-65.2" font-family="Helvetica,sans-Serif" font-size="11.00">abbreviation</text>
<polygon fill="none" stroke="black" points="342.5,-57 342.5,-79 674.5,-79 674.5,-57 342.5,-57"/>
<text text-anchor="start" x="345.5" y="-65.2" font-family="Helvetica,sans-Serif" font-size="11.00">&quot;private_ci2027_001&quot;.&quot;enum_tree_size_class&quot;[2147483647]</text>
<polygon fill="#ffffff" stroke="transparent" points="157.5,-39 157.5,-57 674.5,-57 674.5,-39 157.5,-39"/>
<polygon fill="none" stroke="black" points="157.5,-39 157.5,-57 674.5,-57 674.5,-39 157.5,-39"/>
<polygon fill="#ffffff" stroke="transparent" points="158.5,-40 158.5,-56 324.5,-56 324.5,-40 158.5,-40"/>
<text text-anchor="start" x="160.5" y="-45.2" font-family="Helvetica,sans-Serif" font-size="11.00">&lt; 0</text>
<polygon fill="#ffffff" stroke="transparent" points="324.5,-40 324.5,-56 507.5,-56 507.5,-40 324.5,-40"/>
<text text-anchor="start" x="397.5" y="-45.2" font-family="Helvetica,sans-Serif" font-size="11.00">0 rows</text>
<polygon fill="#ffffff" stroke="transparent" points="507.5,-40 507.5,-56 673.5,-56 673.5,-40 507.5,-40"/>
<text text-anchor="start" x="651.5" y="-45.2" font-family="Helvetica,sans-Serif" font-size="11.00">1 &gt;</text>
<polygon fill="black" stroke="black" points="324.5,-40 324.5,-56 324.5,-56 324.5,-40 324.5,-40"/>
<polygon fill="black" stroke="black" points="507.5,-40 507.5,-56 507.5,-56 507.5,-40 507.5,-40"/>
<polygon fill="none" stroke="black" stroke-width="2" points="156,-38 156,-168 675,-168 675,-38 156,-38"/>
</a>
</g>
</g>
<!-- sapling_2m&#45;&gt;lookup_tree_size_class -->
<g id="edge5" class="edge">
<title>sapling_2m:w&#45;&gt;lookup_tree_size_class:e</title>
<path fill="none" stroke="black" d="M710.23,-249.67C654.94,-228.37 754.51,-68 675.5,-68"/>
<polygon fill="black" stroke="black" points="716.6,-250.71 723.92,-255.55 720.55,-251.36 724.5,-252 724.5,-252 724.5,-252 720.55,-251.36 725.08,-248.45 716.6,-250.71 716.6,-250.71"/>
<ellipse fill="none" stroke="black" cx="713.45" cy="-250.2" rx="3.2" ry="3.2"/>
</g>
<!-- lookup_tree_species -->
<g id="node6" class="node">
<title>lookup_tree_species</title>
<g id="a_node6"><a xlink:href="../../tables/lookup_tree_species.html" xlink:title="lookup_tree_species" target="_top">
<polygon fill="#ffffff" stroke="transparent" points="318.5,-269 318.5,-327 512.5,-327 512.5,-269 318.5,-269"/>
<polygon fill="#f5f5f5" stroke="transparent" points="318.5,-305 318.5,-327 512.5,-327 512.5,-305 318.5,-305"/>
<polygon fill="none" stroke="black" points="318.5,-305 318.5,-327 512.5,-327 512.5,-305 318.5,-305"/>
<text text-anchor="start" x="323.5" y="-314.2" font-family="Helvetica,sans-Serif" font-weight="bold" font-size="11.00">lookup_tree_species</text>
<text text-anchor="start" x="470.5" y="-313.2" font-family="Helvetica,sans-Serif" font-size="11.00">[table]</text>
<polygon fill="none" stroke="black" points="318.5,-287 318.5,-305 512.5,-305 512.5,-287 318.5,-287"/>
<text text-anchor="start" x="321.5" y="-293.2" font-family="Helvetica,sans-Serif" font-size="11.00">...</text>
<polygon fill="#ffffff" stroke="transparent" points="318.5,-269 318.5,-287 512.5,-287 512.5,-269 318.5,-269"/>
<polygon fill="none" stroke="black" points="318.5,-269 318.5,-287 512.5,-287 512.5,-269 318.5,-269"/>
<polygon fill="#ffffff" stroke="transparent" points="319.5,-270 319.5,-286 365.5,-286 365.5,-270 319.5,-270"/>
<text text-anchor="start" x="321.5" y="-275.2" font-family="Helvetica,sans-Serif" font-size="11.00"> &#160;</text>
<polygon fill="#ffffff" stroke="transparent" points="365.5,-270 365.5,-286 454.5,-286 454.5,-270 365.5,-270"/>
<text text-anchor="start" x="384.5" y="-275.2" font-family="Helvetica,sans-Serif" font-size="11.00">125 rows</text>
<polygon fill="#ffffff" stroke="transparent" points="454.5,-270 454.5,-286 511.5,-286 511.5,-270 454.5,-270"/>
<text text-anchor="start" x="489.5" y="-275.2" font-family="Helvetica,sans-Serif" font-size="11.00">3 &gt;</text>
<polygon fill="black" stroke="black" points="365.5,-270 365.5,-286 365.5,-286 365.5,-270 365.5,-270"/>
<polygon fill="black" stroke="black" points="454.5,-270 454.5,-286 454.5,-286 454.5,-270 454.5,-270"/>
</a>
</g>
</g>
<!-- sapling_2m&#45;&gt;lookup_tree_species -->
<g id="edge6" class="edge">
<title>sapling_2m:w&#45;&gt;lookup_tree_species:e</title>
<path fill="none" stroke="black" d="M709.98,-296C628,-296 602.24,-296 513.5,-296"/>
<polygon fill="black" stroke="black" points="716.5,-296 724.5,-299.6 720.5,-296 724.5,-296 724.5,-296 724.5,-296 720.5,-296 724.5,-292.4 716.5,-296 716.5,-296"/>
<ellipse fill="none" stroke="black" cx="713.3" cy="-296" rx="3.2" ry="3.2"/>
</g>
</g>
</svg>
