<?xml version="1.0" encoding="UTF-8" standalone="no"?>
<!DOCTYPE svg PUBLIC "-//W3C//DTD SVG 1.1//EN"
 "http://www.w3.org/Graphics/SVG/1.1/DTD/svg11.dtd">
<!-- Generated by graphviz version 2.43.0 (0)
 -->
<!-- Title: oneDegreeRelationshipsDiagram Pages: 1 -->
<svg width="1081pt" height="557pt"
 viewBox="0.00 0.00 1081.00 557.14" xmlns="http://www.w3.org/2000/svg" xmlns:xlink="http://www.w3.org/1999/xlink">
<g id="graph0" class="graph" transform="scale(1 1) rotate(0) translate(4 553.14)">
<title>oneDegreeRelationshipsDiagram</title>
<polygon fill="#ffffff" stroke="transparent" points="-4,4 -4,-553.14 1077,-553.14 1077,4 -4,4"/>
<text text-anchor="middle" x="79.5" y="-7.2" font-family="Helvetica,sans-Serif" font-size="11.00">Generated by SchemaSpy</text>
<!-- plot -->
<g id="node1" class="node">
<title>plot</title>
<g id="a_node1"><a xlink:href="../../tables/plot.html" xlink:title="plot" target="_top">
<polygon fill="#ffffff" stroke="transparent" points="555,-91.14 555,-545.14 843,-545.14 843,-91.14 555,-91.14"/>
<polygon fill="#f5f5f5" stroke="transparent" points="555,-523.14 555,-545.14 843,-545.14 843,-523.14 555,-523.14"/>
<polygon fill="none" stroke="black" points="555,-523.14 555,-545.14 843,-545.14 843,-523.14 555,-523.14"/>
<text text-anchor="start" x="559.5" y="-532.34" font-family="Helvetica,sans-Serif" font-weight="bold" font-size="11.00">plot</text>
<text text-anchor="start" x="801" y="-531.34" font-family="Helvetica,sans-Serif" font-size="11.00">[table]</text>
<polygon fill="none" stroke="black" points="555,-501.14 555,-523.14 843,-523.14 843,-501.14 555,-501.14"/>
<image xlink:href="../../images/primaryKeys.png" width="11px" height="12px" preserveAspectRatio="xMinYMin meet" x="560" y="-518.137"/>
<text text-anchor="start" x="575" y="-509.34" font-family="Helvetica,sans-Serif" font-size="11.00">id</text>
<polygon fill="#ffffff" stroke="transparent" points="555,-479.14 555,-501.14 843,-501.14 843,-479.14 555,-479.14"/>
<polygon fill="none" stroke="black" points="555,-479.14 555,-501.14 843,-501.14 843,-479.14 555,-479.14"/>
<image xlink:href="../../images/foreignKeys.png" width="11px" height="12px" preserveAspectRatio="xMinYMin meet" x="560" y="-496.137"/>
<text text-anchor="start" x="575" y="-487.34" font-family="Helvetica,sans-Serif" font-size="11.00">cluster_id</text>
<polygon fill="#ffffff" stroke="transparent" points="555,-457.14 555,-479.14 843,-479.14 843,-457.14 555,-457.14"/>
<polygon fill="none" stroke="black" points="555,-457.14 555,-479.14 843,-479.14 843,-457.14 555,-457.14"/>
<text text-anchor="start" x="575" y="-465.34" font-family="Helvetica,sans-Serif" font-size="11.00">plot_name</text>
<polygon fill="none" stroke="black" points="555,-435.14 555,-457.14 843,-457.14 843,-435.14 555,-435.14"/>
<image xlink:href="../../images/foreignKeys.png" width="11px" height="12px" preserveAspectRatio="xMinYMin meet" x="560" y="-452.137"/>
<text text-anchor="start" x="575" y="-443.34" font-family="Helvetica,sans-Serif" font-size="11.00">growth_district</text>
<polygon fill="none" stroke="black" points="555,-413.14 555,-435.14 843,-435.14 843,-413.14 555,-413.14"/>
<image xlink:href="../../images/foreignKeys.png" width="11px" height="12px" preserveAspectRatio="xMinYMin meet" x="560" y="-430.137"/>
<text text-anchor="start" x="575" y="-421.34" font-family="Helvetica,sans-Serif" font-size="11.00">forest_status</text>
<polygon fill="none" stroke="black" points="555,-391.14 555,-413.14 843,-413.14 843,-391.14 555,-391.14"/>
<image xlink:href="../../images/foreignKeys.png" width="11px" height="12px" preserveAspectRatio="xMinYMin meet" x="560" y="-408.137"/>
<text text-anchor="start" x="575" y="-399.34" font-family="Helvetica,sans-Serif" font-size="11.00">elevation_level</text>
<polygon fill="none" stroke="black" points="555,-369.14 555,-391.14 843,-391.14 843,-369.14 555,-369.14"/>
<image xlink:href="../../images/foreignKeys.png" width="11px" height="12px" preserveAspectRatio="xMinYMin meet" x="560" y="-386.137"/>
<text text-anchor="start" x="575" y="-377.34" font-family="Helvetica,sans-Serif" font-size="11.00">property_type</text>
<polygon fill="none" stroke="black" points="555,-347.14 555,-369.14 843,-369.14 843,-347.14 555,-347.14"/>
<image xlink:href="../../images/foreignKeys.png" width="11px" height="12px" preserveAspectRatio="xMinYMin meet" x="560" y="-364.137"/>
<text text-anchor="start" x="575" y="-355.34" font-family="Helvetica,sans-Serif" font-size="11.00">property_size_class</text>
<polygon fill="none" stroke="black" points="555,-325.14 555,-347.14 843,-347.14 843,-325.14 555,-325.14"/>
<image xlink:href="../../images/foreignKeys.png" width="11px" height="12px" preserveAspectRatio="xMinYMin meet" x="560" y="-342.137"/>
<text text-anchor="start" x="575" y="-333.34" font-family="Helvetica,sans-Serif" font-size="11.00">land_use_after</text>
<polygon fill="none" stroke="black" points="555,-303.14 555,-325.14 843,-325.14 843,-303.14 555,-303.14"/>
<image xlink:href="../../images/foreignKeys.png" width="11px" height="12px" preserveAspectRatio="xMinYMin meet" x="560" y="-320.137"/>
<text text-anchor="start" x="575" y="-311.34" font-family="Helvetica,sans-Serif" font-size="11.00">marker_status</text>
<polygon fill="none" stroke="black" points="555,-281.14 555,-303.14 843,-303.14 843,-281.14 555,-281.14"/>
<image xlink:href="../../images/foreignKeys.png" width="11px" height="12px" preserveAspectRatio="xMinYMin meet" x="560" y="-298.137"/>
<text text-anchor="start" x="575" y="-289.34" font-family="Helvetica,sans-Serif" font-size="11.00">marker_profile</text>
<polygon fill="none" stroke="black" points="555,-259.14 555,-281.14 843,-281.14 843,-259.14 555,-259.14"/>
<image xlink:href="../../images/foreignKeys.png" width="11px" height="12px" preserveAspectRatio="xMinYMin meet" x="560" y="-276.137"/>
<text text-anchor="start" x="575" y="-267.34" font-family="Helvetica,sans-Serif" font-size="11.00">terrain_form</text>
<polygon fill="none" stroke="black" points="555,-237.14 555,-259.14 843,-259.14 843,-237.14 555,-237.14"/>
<image xlink:href="../../images/foreignKeys.png" width="11px" height="12px" preserveAspectRatio="xMinYMin meet" x="560" y="-254.137"/>
<text text-anchor="start" x="575" y="-245.34" font-family="Helvetica,sans-Serif" font-size="11.00">management_type</text>
<polygon fill="none" stroke="black" points="555,-215.14 555,-237.14 843,-237.14 843,-215.14 555,-215.14"/>
<image xlink:href="../../images/foreignKeys.png" width="11px" height="12px" preserveAspectRatio="xMinYMin meet" x="560" y="-232.137"/>
<text text-anchor="start" x="575" y="-223.34" font-family="Helvetica,sans-Serif" font-size="11.00">harvesting_method</text>
<polygon fill="none" stroke="black" points="555,-193.14 555,-215.14 843,-215.14 843,-193.14 555,-193.14"/>
<image xlink:href="../../images/foreignKeys.png" width="11px" height="12px" preserveAspectRatio="xMinYMin meet" x="560" y="-210.137"/>
<text text-anchor="start" x="575" y="-201.34" font-family="Helvetica,sans-Serif" font-size="11.00">stand_structure</text>
<polygon fill="none" stroke="black" points="555,-171.14 555,-193.14 843,-193.14 843,-171.14 555,-171.14"/>
<image xlink:href="../../images/foreignKeys.png" width="11px" height="12px" preserveAspectRatio="xMinYMin meet" x="560" y="-188.137"/>
<text text-anchor="start" x="575" y="-179.34" font-family="Helvetica,sans-Serif" font-size="11.00">stand_dev_phase</text>
<polygon fill="none" stroke="black" points="555,-149.14 555,-171.14 843,-171.14 843,-149.14 555,-149.14"/>
<image xlink:href="../../images/foreignKeys.png" width="11px" height="12px" preserveAspectRatio="xMinYMin meet" x="560" y="-166.137"/>
<text text-anchor="start" x="575" y="-157.34" font-family="Helvetica,sans-Serif" font-size="11.00">stand_layer_reg</text>
<polygon fill="none" stroke="black" points="555,-127.14 555,-149.14 843,-149.14 843,-127.14 555,-127.14"/>
<image xlink:href="../../images/foreignKeys.png" width="11px" height="12px" preserveAspectRatio="xMinYMin meet" x="560" y="-144.137"/>
<text text-anchor="start" x="575" y="-135.34" font-family="Helvetica,sans-Serif" font-size="11.00">trees_less_4meter_mirrored</text>
<polygon fill="none" stroke="black" points="555,-109.14 555,-127.14 843,-127.14 843,-109.14 555,-109.14"/>
<text text-anchor="start" x="558" y="-115.34" font-family="Helvetica,sans-Serif" font-size="11.00">...</text>
<polygon fill="#ffffff" stroke="transparent" points="555,-91.14 555,-109.14 843,-109.14 843,-91.14 555,-91.14"/>
<polygon fill="none" stroke="black" points="555,-91.14 555,-109.14 843,-109.14 843,-91.14 555,-91.14"/>
<polygon fill="#ffffff" stroke="transparent" points="556,-92.14 556,-108.14 651,-108.14 651,-92.14 556,-92.14"/>
<text text-anchor="start" x="558" y="-97.34" font-family="Helvetica,sans-Serif" font-size="11.00">&lt; 16</text>
<polygon fill="#ffffff" stroke="transparent" points="651,-92.14 651,-108.14 755,-108.14 755,-92.14 651,-92.14"/>
<text text-anchor="start" x="684.5" y="-97.34" font-family="Helvetica,sans-Serif" font-size="11.00">0 rows</text>
<polygon fill="#ffffff" stroke="transparent" points="755,-92.14 755,-108.14 842,-108.14 842,-92.14 755,-92.14"/>
<text text-anchor="start" x="820" y="-97.34" font-family="Helvetica,sans-Serif" font-size="11.00">7 &gt;</text>
<polygon fill="black" stroke="black" points="651,-92.14 651,-108.14 651,-108.14 651,-92.14 651,-92.14"/>
<polygon fill="black" stroke="black" points="755,-92.14 755,-108.14 755,-108.14 755,-92.14 755,-92.14"/>
</a>
</g>
</g>
<!-- lookup_stand_layer -->
<g id="node2" class="node">
<title>lookup_stand_layer</title>
<g id="a_node2"><a xlink:href="../../tables/lookup_stand_layer.html" xlink:title="lookup_stand_layer" target="_top">
<polygon fill="#ffffff" stroke="transparent" points="8,-82.14 8,-236.14 506,-236.14 506,-82.14 8,-82.14"/>
<polygon fill="#f5f5f5" stroke="transparent" points="10,-212.14 10,-234.14 504,-234.14 504,-212.14 10,-212.14"/>
<polygon fill="none" stroke="black" points="10,-212.14 10,-234.14 504,-234.14 504,-212.14 10,-212.14"/>
<text text-anchor="start" x="15" y="-221.34" font-family="Helvetica,sans-Serif" font-weight="bold" font-size="11.00">lookup_stand_layer</text>
<text text-anchor="start" x="462" y="-220.34" font-family="Helvetica,sans-Serif" font-size="11.00">[table]</text>
<polygon fill="none" stroke="black" points="10,-190.14 10,-212.14 171,-212.14 171,-190.14 10,-190.14"/>
<text text-anchor="start" x="30" y="-198.34" font-family="Helvetica,sans-Serif" font-size="11.00">name_de</text>
<polygon fill="none" stroke="black" points="171,-190.14 171,-212.14 504,-212.14 504,-190.14 171,-190.14"/>
<text text-anchor="start" x="174" y="-198.34" font-family="Helvetica,sans-Serif" font-size="11.00">varchar[150]</text>
<polygon fill="none" stroke="black" points="10,-168.14 10,-190.14 171,-190.14 171,-168.14 10,-168.14"/>
<text text-anchor="start" x="30" y="-176.34" font-family="Helvetica,sans-Serif" font-size="11.00">name_en</text>
<polygon fill="none" stroke="black" points="171,-168.14 171,-190.14 504,-190.14 504,-168.14 171,-168.14"/>
<text text-anchor="start" x="174" y="-176.34" font-family="Helvetica,sans-Serif" font-size="11.00">varchar[150]</text>
<polygon fill="none" stroke="black" points="10,-146.14 10,-168.14 171,-168.14 171,-146.14 10,-146.14"/>
<text text-anchor="start" x="30" y="-154.34" font-family="Helvetica,sans-Serif" font-size="11.00">interval</text>
<polygon fill="none" stroke="black" points="171,-146.14 171,-168.14 504,-168.14 504,-146.14 171,-146.14"/>
<text text-anchor="start" x="174" y="-154.34" font-family="Helvetica,sans-Serif" font-size="11.00">&quot;private_ci2027_001&quot;.&quot;_enum_interval_name&quot;[2147483647]</text>
<polygon fill="none" stroke="black" points="10,-124.14 10,-146.14 171,-146.14 171,-124.14 10,-124.14"/>
<text text-anchor="start" x="30" y="-132.34" font-family="Helvetica,sans-Serif" font-size="11.00">sort</text>
<polygon fill="none" stroke="black" points="171,-124.14 171,-146.14 504,-146.14 504,-124.14 171,-124.14"/>
<text text-anchor="start" x="174" y="-132.34" font-family="Helvetica,sans-Serif" font-size="11.00">int4[10]</text>
<polygon fill="#ffffff" stroke="transparent" points="10,-102.14 10,-124.14 171,-124.14 171,-102.14 10,-102.14"/>
<polygon fill="none" stroke="black" points="10,-102.14 10,-124.14 171,-124.14 171,-102.14 10,-102.14"/>
<text text-anchor="start" x="30" y="-110.34" font-family="Helvetica,sans-Serif" font-size="11.00">abbreviation</text>
<polygon fill="none" stroke="black" points="171,-102.14 171,-124.14 504,-124.14 504,-102.14 171,-102.14"/>
<text text-anchor="start" x="174" y="-110.34" font-family="Helvetica,sans-Serif" font-size="11.00">&quot;private_ci2027_001&quot;.&quot;enum_stand_layer&quot;[2147483647]</text>
<polygon fill="#ffffff" stroke="transparent" points="10,-84.14 10,-102.14 504,-102.14 504,-84.14 10,-84.14"/>
<polygon fill="none" stroke="black" points="10,-84.14 10,-102.14 504,-102.14 504,-84.14 10,-84.14"/>
<polygon fill="#ffffff" stroke="transparent" points="11,-85.14 11,-101.14 170,-101.14 170,-85.14 11,-85.14"/>
<text text-anchor="start" x="13" y="-90.34" font-family="Helvetica,sans-Serif" font-size="11.00">&lt; 0</text>
<polygon fill="#ffffff" stroke="transparent" points="170,-85.14 170,-101.14 345,-101.14 345,-85.14 170,-85.14"/>
<text text-anchor="start" x="239" y="-90.34" font-family="Helvetica,sans-Serif" font-size="11.00">0 rows</text>
<polygon fill="#ffffff" stroke="transparent" points="345,-85.14 345,-101.14 503,-101.14 503,-85.14 345,-85.14"/>
<text text-anchor="start" x="481" y="-90.34" font-family="Helvetica,sans-Serif" font-size="11.00">2 &gt;</text>
<polygon fill="black" stroke="black" points="170,-85.14 170,-101.14 170,-101.14 170,-85.14 170,-85.14"/>
<polygon fill="black" stroke="black" points="345,-85.14 345,-101.14 345,-101.14 345,-85.14 345,-85.14"/>
<polygon fill="none" stroke="black" stroke-width="2" points="9,-83.14 9,-235.14 505,-235.14 505,-83.14 9,-83.14"/>
</a>
</g>
</g>
<!-- plot&#45;&gt;lookup_stand_layer -->
<g id="edge1" class="edge">
<title>plot:w&#45;&gt;lookup_stand_layer:e</title>
<path fill="none" stroke="black" d="M540.06,-155.11C526.72,-142.98 529.05,-113.14 505,-113.14"/>
<polygon fill="black" stroke="black" points="546.47,-157.42 552.78,-163.52 550.24,-158.78 554,-160.14 554,-160.14 554,-160.14 550.24,-158.78 555.22,-156.75 546.47,-157.42 546.47,-157.42"/>
<ellipse fill="none" stroke="black" cx="543.46" cy="-156.34" rx="3.2" ry="3.2"/>
</g>
<!-- wzp_tree -->
<g id="node3" class="node">
<title>wzp_tree</title>
<g id="a_node3"><a xlink:href="../../tables/wzp_tree.html" xlink:title="wzp_tree" target="_top">
<polygon fill="#ffffff" stroke="transparent" points="892,-176.14 892,-410.14 1065,-410.14 1065,-176.14 892,-176.14"/>
<polygon fill="#f5f5f5" stroke="transparent" points="892.5,-388.14 892.5,-410.14 1065.5,-410.14 1065.5,-388.14 892.5,-388.14"/>
<polygon fill="none" stroke="black" points="892.5,-388.14 892.5,-410.14 1065.5,-410.14 1065.5,-388.14 892.5,-388.14"/>
<text text-anchor="start" x="897.5" y="-397.34" font-family="Helvetica,sans-Serif" font-weight="bold" font-size="11.00">wzp_tree</text>
<text text-anchor="start" x="1023.5" y="-396.34" font-family="Helvetica,sans-Serif" font-size="11.00">[table]</text>
<polygon fill="none" stroke="black" points="892.5,-366.14 892.5,-388.14 1065.5,-388.14 1065.5,-366.14 892.5,-366.14"/>
<image xlink:href="../../images/primaryKeys.png" width="11px" height="12px" preserveAspectRatio="xMinYMin meet" x="897.5" y="-383.137"/>
<text text-anchor="start" x="912.5" y="-374.34" font-family="Helvetica,sans-Serif" font-size="11.00">id</text>
<polygon fill="none" stroke="black" points="892.5,-344.14 892.5,-366.14 1065.5,-366.14 1065.5,-344.14 892.5,-344.14"/>
<image xlink:href="../../images/foreignKeys.png" width="11px" height="12px" preserveAspectRatio="xMinYMin meet" x="897.5" y="-361.137"/>
<text text-anchor="start" x="912.5" y="-352.34" font-family="Helvetica,sans-Serif" font-size="11.00">plot_id</text>
<polygon fill="none" stroke="black" points="892.5,-322.14 892.5,-344.14 1065.5,-344.14 1065.5,-322.14 892.5,-322.14"/>
<image xlink:href="../../images/foreignKeys.png" width="11px" height="12px" preserveAspectRatio="xMinYMin meet" x="897.5" y="-339.137"/>
<text text-anchor="start" x="912.5" y="-330.34" font-family="Helvetica,sans-Serif" font-size="11.00">tree_status</text>
<polygon fill="none" stroke="black" points="892.5,-300.14 892.5,-322.14 1065.5,-322.14 1065.5,-300.14 892.5,-300.14"/>
<image xlink:href="../../images/foreignKeys.png" width="11px" height="12px" preserveAspectRatio="xMinYMin meet" x="897.5" y="-317.137"/>
<text text-anchor="start" x="912.5" y="-308.34" font-family="Helvetica,sans-Serif" font-size="11.00">tree_species</text>
<polygon fill="none" stroke="black" points="892.5,-278.14 892.5,-300.14 1065.5,-300.14 1065.5,-278.14 892.5,-278.14"/>
<image xlink:href="../../images/foreignKeys.png" width="11px" height="12px" preserveAspectRatio="xMinYMin meet" x="897.5" y="-295.137"/>
<text text-anchor="start" x="912.5" y="-286.34" font-family="Helvetica,sans-Serif" font-size="11.00">stem_breakage</text>
<polygon fill="none" stroke="black" points="892.5,-256.14 892.5,-278.14 1065.5,-278.14 1065.5,-256.14 892.5,-256.14"/>
<image xlink:href="../../images/foreignKeys.png" width="11px" height="12px" preserveAspectRatio="xMinYMin meet" x="897.5" y="-273.137"/>
<text text-anchor="start" x="912.5" y="-264.34" font-family="Helvetica,sans-Serif" font-size="11.00">stem_form</text>
<polygon fill="none" stroke="black" points="892.5,-234.14 892.5,-256.14 1065.5,-256.14 1065.5,-234.14 892.5,-234.14"/>
<image xlink:href="../../images/foreignKeys.png" width="11px" height="12px" preserveAspectRatio="xMinYMin meet" x="897.5" y="-251.137"/>
<text text-anchor="start" x="912.5" y="-242.34" font-family="Helvetica,sans-Serif" font-size="11.00">pruning</text>
<polygon fill="none" stroke="black" points="892.5,-212.14 892.5,-234.14 1065.5,-234.14 1065.5,-212.14 892.5,-212.14"/>
<image xlink:href="../../images/foreignKeys.png" width="11px" height="12px" preserveAspectRatio="xMinYMin meet" x="897.5" y="-229.137"/>
<text text-anchor="start" x="912.5" y="-220.34" font-family="Helvetica,sans-Serif" font-size="11.00">stand_layer</text>
<polygon fill="none" stroke="black" points="892.5,-194.14 892.5,-212.14 1065.5,-212.14 1065.5,-194.14 892.5,-194.14"/>
<text text-anchor="start" x="895.5" y="-200.34" font-family="Helvetica,sans-Serif" font-size="11.00">...</text>
<polygon fill="#ffffff" stroke="transparent" points="892.5,-176.14 892.5,-194.14 1065.5,-194.14 1065.5,-176.14 892.5,-176.14"/>
<polygon fill="none" stroke="black" points="892.5,-176.14 892.5,-194.14 1065.5,-194.14 1065.5,-176.14 892.5,-176.14"/>
<polygon fill="#ffffff" stroke="transparent" points="893.5,-177.14 893.5,-193.14 949.5,-193.14 949.5,-177.14 893.5,-177.14"/>
<text text-anchor="start" x="895.5" y="-182.34" font-family="Helvetica,sans-Serif" font-size="11.00">&lt; 7</text>
<polygon fill="#ffffff" stroke="transparent" points="949.5,-177.14 949.5,-193.14 1021.5,-193.14 1021.5,-177.14 949.5,-177.14"/>
<text text-anchor="start" x="967" y="-182.34" font-family="Helvetica,sans-Serif" font-size="11.00">0 rows</text>
<polygon fill="#ffffff" stroke="transparent" points="1021.5,-177.14 1021.5,-193.14 1064.5,-193.14 1064.5,-177.14 1021.5,-177.14"/>
<text text-anchor="start" x="1054.5" y="-182.34" font-family="Helvetica,sans-Serif" font-size="11.00"> &#160;</text>
<polygon fill="black" stroke="black" points="949.5,-177.14 949.5,-193.14 949.5,-193.14 949.5,-177.14 949.5,-177.14"/>
<polygon fill="black" stroke="black" points="1021.5,-177.14 1021.5,-193.14 1021.5,-193.14 1021.5,-177.14 1021.5,-177.14"/>
</a>
</g>
</g>
<!-- wzp_tree&#45;&gt;plot -->
<g id="edge2" class="edge">
<title>wzp_tree:w&#45;&gt;plot:e</title>
<path fill="none" stroke="black" d="M877.1,-358C833.24,-379.28 911.06,-512.14 844,-512.14"/>
<polygon fill="black" stroke="black" points="883.65,-356.7 892.2,-358.67 887.58,-355.92 891.5,-355.14 891.5,-355.14 891.5,-355.14 887.58,-355.92 890.8,-351.61 883.65,-356.7 883.65,-356.7"/>
<ellipse fill="none" stroke="black" cx="880.51" cy="-357.32" rx="3.2" ry="3.2"/>
</g>
<!-- wzp_tree&#45;&gt;lookup_stand_layer -->
<g id="edge3" class="edge">
<title>wzp_tree:w&#45;&gt;lookup_stand_layer:e</title>
<path fill="none" stroke="black" d="M877.08,-220.78C838.75,-205.23 898.68,-117.12 851,-81.14 743.15,0.25 675.01,-37.93 547,-81.14 524.77,-88.64 528.47,-113.14 505,-113.14"/>
<polygon fill="black" stroke="black" points="883.61,-221.84 890.92,-226.69 887.55,-222.49 891.5,-223.14 891.5,-223.14 891.5,-223.14 887.55,-222.49 892.08,-219.58 883.61,-221.84 883.61,-221.84"/>
<ellipse fill="none" stroke="black" cx="880.45" cy="-221.33" rx="3.2" ry="3.2"/>
</g>
</g>
</svg>
