<?xml version="1.0" encoding="UTF-8" standalone="no"?>
<!DOCTYPE svg PUBLIC "-//W3C//DTD SVG 1.1//EN"
 "http://www.w3.org/Graphics/SVG/1.1/DTD/svg11.dtd">
<!-- Generated by graphviz version 2.43.0 (0)
 -->
<!-- Title: oneDegreeRelationshipsDiagram Pages: 1 -->
<svg width="847pt" height="679pt"
 viewBox="0.00 0.00 847.00 679.00" xmlns="http://www.w3.org/2000/svg" xmlns:xlink="http://www.w3.org/1999/xlink">
<g id="graph0" class="graph" transform="scale(1 1) rotate(0) translate(4 675)">
<title>oneDegreeRelationshipsDiagram</title>
<polygon fill="#ffffff" stroke="transparent" points="-4,4 -4,-675 843,-675 843,4 -4,4"/>
<text text-anchor="middle" x="79.5" y="-7.2" font-family="Helvetica,sans-Serif" font-size="11.00">Generated by SchemaSpy</text>
<!-- plot -->
<g id="node1" class="node">
<title>plot</title>
<g id="a_node1"><a xlink:href="../../tables/plot.html" xlink:title="plot" target="_top">
<polygon fill="#ffffff" stroke="transparent" points="580,-37 580,-667 831,-667 831,-37 580,-37"/>
<polygon fill="#f5f5f5" stroke="transparent" points="580.5,-645 580.5,-667 831.5,-667 831.5,-645 580.5,-645"/>
<polygon fill="none" stroke="black" points="580.5,-645 580.5,-667 831.5,-667 831.5,-645 580.5,-645"/>
<text text-anchor="start" x="585" y="-654.2" font-family="Helvetica,sans-Serif" font-weight="bold" font-size="11.00">plot</text>
<text text-anchor="start" x="789.5" y="-653.2" font-family="Helvetica,sans-Serif" font-size="11.00">[table]</text>
<polygon fill="none" stroke="black" points="580.5,-623 580.5,-645 831.5,-645 831.5,-623 580.5,-623"/>
<image xlink:href="../../images/primaryKeys.png" width="11px" height="12px" preserveAspectRatio="xMinYMin meet" x="585.5" y="-640"/>
<text text-anchor="start" x="600.5" y="-631.2" font-family="Helvetica,sans-Serif" font-size="11.00">id</text>
<polygon fill="#ffffff" stroke="transparent" points="580.5,-601 580.5,-623 831.5,-623 831.5,-601 580.5,-601"/>
<polygon fill="none" stroke="black" points="580.5,-601 580.5,-623 831.5,-623 831.5,-601 580.5,-601"/>
<image xlink:href="../../images/foreignKeys.png" width="11px" height="12px" preserveAspectRatio="xMinYMin meet" x="585.5" y="-618"/>
<text text-anchor="start" x="600.5" y="-609.2" font-family="Helvetica,sans-Serif" font-size="11.00">cluster_id</text>
<polygon fill="#ffffff" stroke="transparent" points="580.5,-579 580.5,-601 831.5,-601 831.5,-579 580.5,-579"/>
<polygon fill="none" stroke="black" points="580.5,-579 580.5,-601 831.5,-601 831.5,-579 580.5,-579"/>
<text text-anchor="start" x="600.5" y="-587.2" font-family="Helvetica,sans-Serif" font-size="11.00">plot_name</text>
<polygon fill="none" stroke="black" points="580.5,-557 580.5,-579 831.5,-579 831.5,-557 580.5,-557"/>
<image xlink:href="../../images/foreignKeys.png" width="11px" height="12px" preserveAspectRatio="xMinYMin meet" x="585.5" y="-574"/>
<text text-anchor="start" x="600.5" y="-565.2" font-family="Helvetica,sans-Serif" font-size="11.00">sampling_strata</text>
<polygon fill="none" stroke="black" points="580.5,-535 580.5,-557 831.5,-557 831.5,-535 580.5,-535"/>
<image xlink:href="../../images/foreignKeys.png" width="11px" height="12px" preserveAspectRatio="xMinYMin meet" x="585.5" y="-552"/>
<text text-anchor="start" x="600.5" y="-543.2" font-family="Helvetica,sans-Serif" font-size="11.00">growth_district</text>
<polygon fill="none" stroke="black" points="580.5,-513 580.5,-535 831.5,-535 831.5,-513 580.5,-513"/>
<image xlink:href="../../images/foreignKeys.png" width="11px" height="12px" preserveAspectRatio="xMinYMin meet" x="585.5" y="-530"/>
<text text-anchor="start" x="600.5" y="-521.2" font-family="Helvetica,sans-Serif" font-size="11.00">forest_decision</text>
<polygon fill="none" stroke="black" points="580.5,-491 580.5,-513 831.5,-513 831.5,-491 580.5,-491"/>
<image xlink:href="../../images/foreignKeys.png" width="11px" height="12px" preserveAspectRatio="xMinYMin meet" x="585.5" y="-508"/>
<text text-anchor="start" x="600.5" y="-499.2" font-family="Helvetica,sans-Serif" font-size="11.00">forestry_department</text>
<polygon fill="none" stroke="black" points="580.5,-469 580.5,-491 831.5,-491 831.5,-469 580.5,-469"/>
<image xlink:href="../../images/foreignKeys.png" width="11px" height="12px" preserveAspectRatio="xMinYMin meet" x="585.5" y="-486"/>
<text text-anchor="start" x="600.5" y="-477.2" font-family="Helvetica,sans-Serif" font-size="11.00">height_layer_class</text>
<polygon fill="none" stroke="black" points="580.5,-447 580.5,-469 831.5,-469 831.5,-447 580.5,-447"/>
<image xlink:href="../../images/foreignKeys.png" width="11px" height="12px" preserveAspectRatio="xMinYMin meet" x="585.5" y="-464"/>
<text text-anchor="start" x="600.5" y="-455.2" font-family="Helvetica,sans-Serif" font-size="11.00">property_type</text>
<polygon fill="none" stroke="black" points="580.5,-425 580.5,-447 831.5,-447 831.5,-425 580.5,-425"/>
<image xlink:href="../../images/foreignKeys.png" width="11px" height="12px" preserveAspectRatio="xMinYMin meet" x="585.5" y="-442"/>
<text text-anchor="start" x="600.5" y="-433.2" font-family="Helvetica,sans-Serif" font-size="11.00">property_size_class</text>
<polygon fill="none" stroke="black" points="580.5,-403 580.5,-425 831.5,-425 831.5,-403 580.5,-403"/>
<image xlink:href="../../images/foreignKeys.png" width="11px" height="12px" preserveAspectRatio="xMinYMin meet" x="585.5" y="-420"/>
<text text-anchor="start" x="600.5" y="-411.2" font-family="Helvetica,sans-Serif" font-size="11.00">forest_type</text>
<polygon fill="none" stroke="black" points="580.5,-381 580.5,-403 831.5,-403 831.5,-381 580.5,-381"/>
<image xlink:href="../../images/foreignKeys.png" width="11px" height="12px" preserveAspectRatio="xMinYMin meet" x="585.5" y="-398"/>
<text text-anchor="start" x="600.5" y="-389.2" font-family="Helvetica,sans-Serif" font-size="11.00">habitat_type</text>
<polygon fill="none" stroke="black" points="580.5,-359 580.5,-381 831.5,-381 831.5,-359 580.5,-359"/>
<image xlink:href="../../images/foreignKeys.png" width="11px" height="12px" preserveAspectRatio="xMinYMin meet" x="585.5" y="-376"/>
<text text-anchor="start" x="600.5" y="-367.2" font-family="Helvetica,sans-Serif" font-size="11.00">habitat_type_source</text>
<polygon fill="none" stroke="black" points="580.5,-337 580.5,-359 831.5,-359 831.5,-337 580.5,-337"/>
<image xlink:href="../../images/foreignKeys.png" width="11px" height="12px" preserveAspectRatio="xMinYMin meet" x="585.5" y="-354"/>
<text text-anchor="start" x="600.5" y="-345.2" font-family="Helvetica,sans-Serif" font-size="11.00">use_restriction</text>
<polygon fill="none" stroke="black" points="580.5,-315 580.5,-337 831.5,-337 831.5,-315 580.5,-315"/>
<image xlink:href="../../images/foreignKeys.png" width="11px" height="12px" preserveAspectRatio="xMinYMin meet" x="585.5" y="-332"/>
<text text-anchor="start" x="600.5" y="-323.2" font-family="Helvetica,sans-Serif" font-size="11.00">land_use</text>
<polygon fill="none" stroke="black" points="580.5,-293 580.5,-315 831.5,-315 831.5,-293 580.5,-293"/>
<image xlink:href="../../images/foreignKeys.png" width="11px" height="12px" preserveAspectRatio="xMinYMin meet" x="585.5" y="-310"/>
<text text-anchor="start" x="600.5" y="-301.2" font-family="Helvetica,sans-Serif" font-size="11.00">marking_state</text>
<polygon fill="none" stroke="black" points="580.5,-271 580.5,-293 831.5,-293 831.5,-271 580.5,-271"/>
<image xlink:href="../../images/foreignKeys.png" width="11px" height="12px" preserveAspectRatio="xMinYMin meet" x="585.5" y="-288"/>
<text text-anchor="start" x="600.5" y="-279.2" font-family="Helvetica,sans-Serif" font-size="11.00">marking_profile</text>
<polygon fill="none" stroke="black" points="580.5,-249 580.5,-271 831.5,-271 831.5,-249 580.5,-249"/>
<image xlink:href="../../images/foreignKeys.png" width="11px" height="12px" preserveAspectRatio="xMinYMin meet" x="585.5" y="-266"/>
<text text-anchor="start" x="600.5" y="-257.2" font-family="Helvetica,sans-Serif" font-size="11.00">terrain_form</text>
<polygon fill="none" stroke="black" points="580.5,-227 580.5,-249 831.5,-249 831.5,-227 580.5,-227"/>
<image xlink:href="../../images/foreignKeys.png" width="11px" height="12px" preserveAspectRatio="xMinYMin meet" x="585.5" y="-244"/>
<text text-anchor="start" x="600.5" y="-235.2" font-family="Helvetica,sans-Serif" font-size="11.00">management_type</text>
<polygon fill="none" stroke="black" points="580.5,-205 580.5,-227 831.5,-227 831.5,-205 580.5,-205"/>
<image xlink:href="../../images/foreignKeys.png" width="11px" height="12px" preserveAspectRatio="xMinYMin meet" x="585.5" y="-222"/>
<text text-anchor="start" x="600.5" y="-213.2" font-family="Helvetica,sans-Serif" font-size="11.00">harvesting_method</text>
<polygon fill="none" stroke="black" points="580.5,-183 580.5,-205 831.5,-205 831.5,-183 580.5,-183"/>
<image xlink:href="../../images/foreignKeys.png" width="11px" height="12px" preserveAspectRatio="xMinYMin meet" x="585.5" y="-200"/>
<text text-anchor="start" x="600.5" y="-191.2" font-family="Helvetica,sans-Serif" font-size="11.00">layer_type</text>
<polygon fill="none" stroke="black" points="580.5,-161 580.5,-183 831.5,-183 831.5,-161 580.5,-161"/>
<image xlink:href="../../images/foreignKeys.png" width="11px" height="12px" preserveAspectRatio="xMinYMin meet" x="585.5" y="-178"/>
<text text-anchor="start" x="600.5" y="-169.2" font-family="Helvetica,sans-Serif" font-size="11.00">stand_phase</text>
<polygon fill="none" stroke="black" points="580.5,-139 580.5,-161 831.5,-161 831.5,-139 580.5,-139"/>
<image xlink:href="../../images/foreignKeys.png" width="11px" height="12px" preserveAspectRatio="xMinYMin meet" x="585.5" y="-156"/>
<text text-anchor="start" x="600.5" y="-147.2" font-family="Helvetica,sans-Serif" font-size="11.00">sablings_layer</text>
<polygon fill="none" stroke="black" points="580.5,-117 580.5,-139 831.5,-139 831.5,-117 580.5,-117"/>
<image xlink:href="../../images/foreignKeys.png" width="11px" height="12px" preserveAspectRatio="xMinYMin meet" x="585.5" y="-134"/>
<text text-anchor="start" x="600.5" y="-125.2" font-family="Helvetica,sans-Serif" font-size="11.00">trees_less_4meter_mirrored</text>
<polygon fill="none" stroke="black" points="580.5,-95 580.5,-117 831.5,-117 831.5,-95 580.5,-95"/>
<image xlink:href="../../images/foreignKeys.png" width="11px" height="12px" preserveAspectRatio="xMinYMin meet" x="585.5" y="-112"/>
<text text-anchor="start" x="600.5" y="-103.2" font-family="Helvetica,sans-Serif" font-size="11.00">trees_less_4meter_count_factor</text>
<polygon fill="none" stroke="black" points="580.5,-73 580.5,-95 831.5,-95 831.5,-73 580.5,-73"/>
<image xlink:href="../../images/foreignKeys.png" width="11px" height="12px" preserveAspectRatio="xMinYMin meet" x="585.5" y="-90"/>
<text text-anchor="start" x="600.5" y="-81.2" font-family="Helvetica,sans-Serif" font-size="11.00">trees_less_4meter_layer</text>
<polygon fill="none" stroke="black" points="580.5,-55 580.5,-73 831.5,-73 831.5,-55 580.5,-55"/>
<text text-anchor="start" x="583.5" y="-61.2" font-family="Helvetica,sans-Serif" font-size="11.00">...</text>
<polygon fill="#ffffff" stroke="transparent" points="580.5,-37 580.5,-55 831.5,-55 831.5,-37 580.5,-37"/>
<polygon fill="none" stroke="black" points="580.5,-37 580.5,-55 831.5,-55 831.5,-37 580.5,-37"/>
<polygon fill="#ffffff" stroke="transparent" points="581.5,-38 581.5,-54 663.5,-54 663.5,-38 581.5,-38"/>
<text text-anchor="start" x="583.5" y="-43.2" font-family="Helvetica,sans-Serif" font-size="11.00">&lt; 24</text>
<polygon fill="#ffffff" stroke="transparent" points="663.5,-38 663.5,-54 755.5,-54 755.5,-38 663.5,-38"/>
<text text-anchor="start" x="691" y="-43.2" font-family="Helvetica,sans-Serif" font-size="11.00">0 rows</text>
<polygon fill="#ffffff" stroke="transparent" points="755.5,-38 755.5,-54 830.5,-54 830.5,-38 755.5,-38"/>
<text text-anchor="start" x="808.5" y="-43.2" font-family="Helvetica,sans-Serif" font-size="11.00">7 &gt;</text>
<polygon fill="black" stroke="black" points="663.5,-38 663.5,-54 663.5,-54 663.5,-38 663.5,-38"/>
<polygon fill="black" stroke="black" points="755.5,-38 755.5,-54 755.5,-54 755.5,-38 755.5,-38"/>
</a>
</g>
</g>
<!-- lookup_forest_decision -->
<g id="node2" class="node">
<title>lookup_forest_decision</title>
<g id="a_node2"><a xlink:href="../../tables/lookup_forest_decision.html" xlink:title="lookup_forest_decision" target="_top">
<polygon fill="#ffffff" stroke="transparent" points="8,-493 8,-625 531,-625 531,-493 8,-493"/>
<polygon fill="#f5f5f5" stroke="transparent" points="10.5,-601 10.5,-623 529.5,-623 529.5,-601 10.5,-601"/>
<polygon fill="none" stroke="black" points="10.5,-601 10.5,-623 529.5,-623 529.5,-601 10.5,-601"/>
<text text-anchor="start" x="15.5" y="-610.2" font-family="Helvetica,sans-Serif" font-weight="bold" font-size="11.00">lookup_forest_decision</text>
<text text-anchor="start" x="487.5" y="-609.2" font-family="Helvetica,sans-Serif" font-size="11.00">[table]</text>
<polygon fill="none" stroke="black" points="10.5,-579 10.5,-601 197.5,-601 197.5,-579 10.5,-579"/>
<text text-anchor="start" x="30.5" y="-587.2" font-family="Helvetica,sans-Serif" font-size="11.00">name_de</text>
<polygon fill="none" stroke="black" points="197.5,-579 197.5,-601 529.5,-601 529.5,-579 197.5,-579"/>
<text text-anchor="start" x="200.5" y="-587.2" font-family="Helvetica,sans-Serif" font-size="11.00">varchar[150]</text>
<polygon fill="none" stroke="black" points="10.5,-557 10.5,-579 197.5,-579 197.5,-557 10.5,-557"/>
<text text-anchor="start" x="30.5" y="-565.2" font-family="Helvetica,sans-Serif" font-size="11.00">name_en</text>
<polygon fill="none" stroke="black" points="197.5,-557 197.5,-579 529.5,-579 529.5,-557 197.5,-557"/>
<text text-anchor="start" x="200.5" y="-565.2" font-family="Helvetica,sans-Serif" font-size="11.00">varchar[150]</text>
<polygon fill="none" stroke="black" points="10.5,-535 10.5,-557 197.5,-557 197.5,-535 10.5,-535"/>
<text text-anchor="start" x="30.5" y="-543.2" font-family="Helvetica,sans-Serif" font-size="11.00">sort</text>
<polygon fill="none" stroke="black" points="197.5,-535 197.5,-557 529.5,-557 529.5,-535 197.5,-535"/>
<text text-anchor="start" x="200.5" y="-543.2" font-family="Helvetica,sans-Serif" font-size="11.00">int4[10]</text>
<polygon fill="#ffffff" stroke="transparent" points="10.5,-513 10.5,-535 197.5,-535 197.5,-513 10.5,-513"/>
<polygon fill="none" stroke="black" points="10.5,-513 10.5,-535 197.5,-535 197.5,-513 10.5,-513"/>
<text text-anchor="start" x="30.5" y="-521.2" font-family="Helvetica,sans-Serif" font-size="11.00">abbreviation</text>
<polygon fill="none" stroke="black" points="197.5,-513 197.5,-535 529.5,-535 529.5,-513 197.5,-513"/>
<text text-anchor="start" x="200.5" y="-521.2" font-family="Helvetica,sans-Serif" font-size="11.00">&quot;private_ci2027_001&quot;.&quot;enum_forest_decision&quot;[2147483647]</text>
<polygon fill="#ffffff" stroke="transparent" points="10.5,-495 10.5,-513 529.5,-513 529.5,-495 10.5,-495"/>
<polygon fill="none" stroke="black" points="10.5,-495 10.5,-513 529.5,-513 529.5,-495 10.5,-495"/>
<polygon fill="#ffffff" stroke="transparent" points="11.5,-496 11.5,-512 178.5,-512 178.5,-496 11.5,-496"/>
<text text-anchor="start" x="13.5" y="-501.2" font-family="Helvetica,sans-Serif" font-size="11.00">&lt; 0</text>
<polygon fill="#ffffff" stroke="transparent" points="178.5,-496 178.5,-512 362.5,-512 362.5,-496 178.5,-496"/>
<text text-anchor="start" x="252" y="-501.2" font-family="Helvetica,sans-Serif" font-size="11.00">0 rows</text>
<polygon fill="#ffffff" stroke="transparent" points="362.5,-496 362.5,-512 528.5,-512 528.5,-496 362.5,-496"/>
<text text-anchor="start" x="506.5" y="-501.2" font-family="Helvetica,sans-Serif" font-size="11.00">1 &gt;</text>
<polygon fill="black" stroke="black" points="178.5,-496 178.5,-512 178.5,-512 178.5,-496 178.5,-496"/>
<polygon fill="black" stroke="black" points="362.5,-496 362.5,-512 362.5,-512 362.5,-496 362.5,-496"/>
<polygon fill="none" stroke="black" stroke-width="2" points="9,-494 9,-624 530,-624 530,-494 9,-494"/>
</a>
</g>
</g>
<!-- plot&#45;&gt;lookup_forest_decision -->
<g id="edge1" class="edge">
<title>plot:w&#45;&gt;lookup_forest_decision:e</title>
<path fill="none" stroke="black" d="M564.99,-524C553.68,-524 546.49,-524 530.5,-524"/>
<polygon fill="black" stroke="black" points="571.5,-524 579.5,-527.6 575.5,-524 579.5,-524 579.5,-524 579.5,-524 575.5,-524 579.5,-520.4 571.5,-524 571.5,-524"/>
<ellipse fill="none" stroke="black" cx="568.3" cy="-524" rx="3.2" ry="3.2"/>
</g>
</g>
</svg>
