<?xml version="1.0" encoding="UTF-8" standalone="no"?>
<!DOCTYPE svg PUBLIC "-//W3C//DTD SVG 1.1//EN"
 "http://www.w3.org/Graphics/SVG/1.1/DTD/svg11.dtd">
<!-- Generated by graphviz version 2.43.0 (0)
 -->
<!-- Title: oneDegreeRelationshipsDiagram Pages: 1 -->
<svg width="772pt" height="283pt"
 viewBox="0.00 0.00 772.00 283.00" xmlns="http://www.w3.org/2000/svg" xmlns:xlink="http://www.w3.org/1999/xlink">
<g id="graph0" class="graph" transform="scale(1 1) rotate(0) translate(4 279)">
<title>oneDegreeRelationshipsDiagram</title>
<polygon fill="#ffffff" stroke="transparent" points="-4,4 -4,-279 768,-279 768,4 -4,4"/>
<text text-anchor="middle" x="79.5" y="-7.2" font-family="Helvetica,sans-Serif" font-size="11.00">Generated by SchemaSpy</text>
<!-- wzp_tree -->
<g id="node1" class="node">
<title>wzp_tree</title>
<g id="a_node1"><a xlink:href="../../tables/wzp_tree.html" xlink:title="wzp_tree" target="_top">
<polygon fill="#ffffff" stroke="transparent" points="583,-37 583,-271 756,-271 756,-37 583,-37"/>
<polygon fill="#f5f5f5" stroke="transparent" points="583.5,-249 583.5,-271 756.5,-271 756.5,-249 583.5,-249"/>
<polygon fill="none" stroke="black" points="583.5,-249 583.5,-271 756.5,-271 756.5,-249 583.5,-249"/>
<text text-anchor="start" x="588.5" y="-258.2" font-family="Helvetica,sans-Serif" font-weight="bold" font-size="11.00">wzp_tree</text>
<text text-anchor="start" x="714.5" y="-257.2" font-family="Helvetica,sans-Serif" font-size="11.00">[table]</text>
<polygon fill="none" stroke="black" points="583.5,-227 583.5,-249 756.5,-249 756.5,-227 583.5,-227"/>
<image xlink:href="../../images/primaryKeys.png" width="11px" height="12px" preserveAspectRatio="xMinYMin meet" x="588.5" y="-244"/>
<text text-anchor="start" x="603.5" y="-235.2" font-family="Helvetica,sans-Serif" font-size="11.00">id</text>
<polygon fill="none" stroke="black" points="583.5,-205 583.5,-227 756.5,-227 756.5,-205 583.5,-205"/>
<image xlink:href="../../images/foreignKeys.png" width="11px" height="12px" preserveAspectRatio="xMinYMin meet" x="588.5" y="-222"/>
<text text-anchor="start" x="603.5" y="-213.2" font-family="Helvetica,sans-Serif" font-size="11.00">plot_id</text>
<polygon fill="none" stroke="black" points="583.5,-183 583.5,-205 756.5,-205 756.5,-183 583.5,-183"/>
<image xlink:href="../../images/foreignKeys.png" width="11px" height="12px" preserveAspectRatio="xMinYMin meet" x="588.5" y="-200"/>
<text text-anchor="start" x="603.5" y="-191.2" font-family="Helvetica,sans-Serif" font-size="11.00">tree_state</text>
<polygon fill="none" stroke="black" points="583.5,-161 583.5,-183 756.5,-183 756.5,-161 583.5,-161"/>
<image xlink:href="../../images/foreignKeys.png" width="11px" height="12px" preserveAspectRatio="xMinYMin meet" x="588.5" y="-178"/>
<text text-anchor="start" x="603.5" y="-169.2" font-family="Helvetica,sans-Serif" font-size="11.00">tree_species</text>
<polygon fill="none" stroke="black" points="583.5,-139 583.5,-161 756.5,-161 756.5,-139 583.5,-139"/>
<image xlink:href="../../images/foreignKeys.png" width="11px" height="12px" preserveAspectRatio="xMinYMin meet" x="588.5" y="-156"/>
<text text-anchor="start" x="603.5" y="-147.2" font-family="Helvetica,sans-Serif" font-size="11.00">stem_breakage</text>
<polygon fill="none" stroke="black" points="583.5,-117 583.5,-139 756.5,-139 756.5,-117 583.5,-117"/>
<image xlink:href="../../images/foreignKeys.png" width="11px" height="12px" preserveAspectRatio="xMinYMin meet" x="588.5" y="-134"/>
<text text-anchor="start" x="603.5" y="-125.2" font-family="Helvetica,sans-Serif" font-size="11.00">stem_form</text>
<polygon fill="none" stroke="black" points="583.5,-95 583.5,-117 756.5,-117 756.5,-95 583.5,-95"/>
<image xlink:href="../../images/foreignKeys.png" width="11px" height="12px" preserveAspectRatio="xMinYMin meet" x="588.5" y="-112"/>
<text text-anchor="start" x="603.5" y="-103.2" font-family="Helvetica,sans-Serif" font-size="11.00">pruning</text>
<polygon fill="none" stroke="black" points="583.5,-73 583.5,-95 756.5,-95 756.5,-73 583.5,-73"/>
<image xlink:href="../../images/foreignKeys.png" width="11px" height="12px" preserveAspectRatio="xMinYMin meet" x="588.5" y="-90"/>
<text text-anchor="start" x="603.5" y="-81.2" font-family="Helvetica,sans-Serif" font-size="11.00">inventory_layer</text>
<polygon fill="none" stroke="black" points="583.5,-55 583.5,-73 756.5,-73 756.5,-55 583.5,-55"/>
<text text-anchor="start" x="586.5" y="-61.2" font-family="Helvetica,sans-Serif" font-size="11.00">...</text>
<polygon fill="#ffffff" stroke="transparent" points="583.5,-37 583.5,-55 756.5,-55 756.5,-37 583.5,-37"/>
<polygon fill="none" stroke="black" points="583.5,-37 583.5,-55 756.5,-55 756.5,-37 583.5,-37"/>
<polygon fill="#ffffff" stroke="transparent" points="584.5,-38 584.5,-54 640.5,-54 640.5,-38 584.5,-38"/>
<text text-anchor="start" x="586.5" y="-43.2" font-family="Helvetica,sans-Serif" font-size="11.00">&lt; 7</text>
<polygon fill="#ffffff" stroke="transparent" points="640.5,-38 640.5,-54 712.5,-54 712.5,-38 640.5,-38"/>
<text text-anchor="start" x="658" y="-43.2" font-family="Helvetica,sans-Serif" font-size="11.00">0 rows</text>
<polygon fill="#ffffff" stroke="transparent" points="712.5,-38 712.5,-54 755.5,-54 755.5,-38 712.5,-38"/>
<text text-anchor="start" x="745.5" y="-43.2" font-family="Helvetica,sans-Serif" font-size="11.00"> &#160;</text>
<polygon fill="black" stroke="black" points="640.5,-38 640.5,-54 640.5,-54 640.5,-38 640.5,-38"/>
<polygon fill="black" stroke="black" points="712.5,-38 712.5,-54 712.5,-54 712.5,-38 712.5,-38"/>
</a>
</g>
</g>
<!-- lookup_stem_breakage -->
<g id="node2" class="node">
<title>lookup_stem_breakage</title>
<g id="a_node2"><a xlink:href="../../tables/lookup_stem_breakage.html" xlink:title="lookup_stem_breakage" target="_top">
<polygon fill="#ffffff" stroke="transparent" points="8,-119 8,-251 534,-251 534,-119 8,-119"/>
<polygon fill="#f5f5f5" stroke="transparent" points="10,-227 10,-249 532,-249 532,-227 10,-227"/>
<polygon fill="none" stroke="black" points="10,-227 10,-249 532,-249 532,-227 10,-227"/>
<text text-anchor="start" x="15" y="-236.2" font-family="Helvetica,sans-Serif" font-weight="bold" font-size="11.00">lookup_stem_breakage</text>
<text text-anchor="start" x="490" y="-235.2" font-family="Helvetica,sans-Serif" font-size="11.00">[table]</text>
<polygon fill="none" stroke="black" points="10,-205 10,-227 198,-227 198,-205 10,-205"/>
<text text-anchor="start" x="30" y="-213.2" font-family="Helvetica,sans-Serif" font-size="11.00">name_de</text>
<polygon fill="none" stroke="black" points="198,-205 198,-227 532,-227 532,-205 198,-205"/>
<text text-anchor="start" x="201" y="-213.2" font-family="Helvetica,sans-Serif" font-size="11.00">varchar[150]</text>
<polygon fill="none" stroke="black" points="10,-183 10,-205 198,-205 198,-183 10,-183"/>
<text text-anchor="start" x="30" y="-191.2" font-family="Helvetica,sans-Serif" font-size="11.00">name_en</text>
<polygon fill="none" stroke="black" points="198,-183 198,-205 532,-205 532,-183 198,-183"/>
<text text-anchor="start" x="201" y="-191.2" font-family="Helvetica,sans-Serif" font-size="11.00">varchar[150]</text>
<polygon fill="none" stroke="black" points="10,-161 10,-183 198,-183 198,-161 10,-161"/>
<text text-anchor="start" x="30" y="-169.2" font-family="Helvetica,sans-Serif" font-size="11.00">sort</text>
<polygon fill="none" stroke="black" points="198,-161 198,-183 532,-183 532,-161 198,-161"/>
<text text-anchor="start" x="201" y="-169.2" font-family="Helvetica,sans-Serif" font-size="11.00">int4[10]</text>
<polygon fill="#ffffff" stroke="transparent" points="10,-139 10,-161 198,-161 198,-139 10,-139"/>
<polygon fill="none" stroke="black" points="10,-139 10,-161 198,-161 198,-139 10,-139"/>
<text text-anchor="start" x="30" y="-147.2" font-family="Helvetica,sans-Serif" font-size="11.00">abbreviation</text>
<polygon fill="none" stroke="black" points="198,-139 198,-161 532,-161 532,-139 198,-139"/>
<text text-anchor="start" x="201" y="-147.2" font-family="Helvetica,sans-Serif" font-size="11.00">&quot;private_ci2027_001&quot;.&quot;enum_stem_breakage&quot;[2147483647]</text>
<polygon fill="#ffffff" stroke="transparent" points="10,-121 10,-139 532,-139 532,-121 10,-121"/>
<polygon fill="none" stroke="black" points="10,-121 10,-139 532,-139 532,-121 10,-121"/>
<polygon fill="#ffffff" stroke="transparent" points="11,-122 11,-138 179,-138 179,-122 11,-122"/>
<text text-anchor="start" x="13" y="-127.2" font-family="Helvetica,sans-Serif" font-size="11.00">&lt; 0</text>
<polygon fill="#ffffff" stroke="transparent" points="179,-122 179,-138 364,-138 364,-122 179,-122"/>
<text text-anchor="start" x="253" y="-127.2" font-family="Helvetica,sans-Serif" font-size="11.00">0 rows</text>
<polygon fill="#ffffff" stroke="transparent" points="364,-122 364,-138 531,-138 531,-122 364,-122"/>
<text text-anchor="start" x="509" y="-127.2" font-family="Helvetica,sans-Serif" font-size="11.00">1 &gt;</text>
<polygon fill="black" stroke="black" points="179,-122 179,-138 179,-138 179,-122 179,-122"/>
<polygon fill="black" stroke="black" points="364,-122 364,-138 364,-138 364,-122 364,-122"/>
<polygon fill="none" stroke="black" stroke-width="2" points="9,-120 9,-250 533,-250 533,-120 9,-120"/>
</a>
</g>
</g>
<!-- wzp_tree&#45;&gt;lookup_stem_breakage -->
<g id="edge1" class="edge">
<title>wzp_tree:w&#45;&gt;lookup_stem_breakage:e</title>
<path fill="none" stroke="black" d="M567.84,-150C556.41,-150 549.16,-150 533,-150"/>
<polygon fill="black" stroke="black" points="574.5,-150 582.5,-153.6 578.5,-150 582.5,-150 582.5,-150 582.5,-150 578.5,-150 582.5,-146.4 574.5,-150 574.5,-150"/>
<ellipse fill="none" stroke="black" cx="571.3" cy="-150" rx="3.2" ry="3.2"/>
</g>
</g>
</svg>
