<?xml version="1.0" encoding="UTF-8" standalone="no"?>
<!DOCTYPE svg PUBLIC "-//W3C//DTD SVG 1.1//EN"
 "http://www.w3.org/Graphics/SVG/1.1/DTD/svg11.dtd">
<!-- Generated by graphviz version 2.43.0 (0)
 -->
<!-- Title: twoDegreesRelationshipsDiagram Pages: 1 -->
<svg width="896pt" height="203pt"
 viewBox="0.00 0.00 896.00 203.00" xmlns="http://www.w3.org/2000/svg" xmlns:xlink="http://www.w3.org/1999/xlink">
<g id="graph0" class="graph" transform="scale(1 1) rotate(0) translate(4 199)">
<title>twoDegreesRelationshipsDiagram</title>
<polygon fill="#ffffff" stroke="transparent" points="-4,4 -4,-199 892,-199 892,4 -4,4"/>
<text text-anchor="middle" x="79.5" y="-7.2" font-family="Helvetica,sans-Serif" font-size="11.00">Generated by SchemaSpy</text>
<!-- lookup_growth_district -->
<g id="node1" class="node">
<title>lookup_growth_district</title>
<g id="a_node1"><a xlink:href="../../tables/lookup_growth_district.html" xlink:title="lookup_growth_district" target="_top">
<polygon fill="#ffffff" stroke="transparent" points="512,-43 512,-145 726,-145 726,-43 512,-43"/>
<polygon fill="#f5f5f5" stroke="transparent" points="512,-123 512,-145 726,-145 726,-123 512,-123"/>
<polygon fill="none" stroke="black" points="512,-123 512,-145 726,-145 726,-123 512,-123"/>
<text text-anchor="start" x="517" y="-132.2" font-family="Helvetica,sans-Serif" font-weight="bold" font-size="11.00">lookup_growth_district</text>
<text text-anchor="start" x="684" y="-131.2" font-family="Helvetica,sans-Serif" font-size="11.00">[table]</text>
<polygon fill="#ffffff" stroke="transparent" points="512,-101 512,-123 726,-123 726,-101 512,-101"/>
<polygon fill="none" stroke="black" points="512,-101 512,-123 726,-123 726,-101 512,-101"/>
<text text-anchor="start" x="545" y="-109.2" font-family="Helvetica,sans-Serif" font-size="11.00">abbreviation</text>
<polygon fill="none" stroke="black" points="512,-79 512,-101 726,-101 726,-79 512,-79"/>
<image xlink:href="../../images/foreignKeys.png" width="11px" height="12px" preserveAspectRatio="xMinYMin meet" x="517" y="-96"/>
<text text-anchor="start" x="545" y="-87.2" font-family="Helvetica,sans-Serif" font-size="11.00">district_area</text>
<polygon fill="none" stroke="black" points="512,-61 512,-79 726,-79 726,-61 512,-61"/>
<text text-anchor="start" x="515" y="-67.2" font-family="Helvetica,sans-Serif" font-size="11.00">...</text>
<polygon fill="#ffffff" stroke="transparent" points="512,-43 512,-61 726,-61 726,-43 512,-43"/>
<polygon fill="none" stroke="black" points="512,-43 512,-61 726,-61 726,-43 512,-43"/>
<polygon fill="#ffffff" stroke="transparent" points="513,-44 513,-60 574,-60 574,-44 513,-44"/>
<text text-anchor="start" x="515" y="-49.2" font-family="Helvetica,sans-Serif" font-size="11.00">&lt; 1</text>
<polygon fill="#ffffff" stroke="transparent" points="574,-44 574,-60 665,-60 665,-44 574,-44"/>
<text text-anchor="start" x="594" y="-49.2" font-family="Helvetica,sans-Serif" font-size="11.00">696 rows</text>
<polygon fill="#ffffff" stroke="transparent" points="665,-44 665,-60 725,-60 725,-44 665,-44"/>
<text text-anchor="start" x="703" y="-49.2" font-family="Helvetica,sans-Serif" font-size="11.00">1 &gt;</text>
<polygon fill="black" stroke="black" points="574,-44 574,-60 574,-60 574,-44 574,-44"/>
<polygon fill="black" stroke="black" points="665,-44 665,-60 665,-60 665,-44 665,-44"/>
</a>
</g>
</g>
<!-- lookup_growth_area -->
<g id="node2" class="node">
<title>lookup_growth_area</title>
<g id="a_node2"><a xlink:href="../../tables/lookup_growth_area.html" xlink:title="lookup_growth_area" target="_top">
<polygon fill="#ffffff" stroke="transparent" points="8,-37 8,-191 463,-191 463,-37 8,-37"/>
<polygon fill="#f5f5f5" stroke="transparent" points="10.5,-167 10.5,-189 461.5,-189 461.5,-167 10.5,-167"/>
<polygon fill="none" stroke="black" points="10.5,-167 10.5,-189 461.5,-189 461.5,-167 10.5,-167"/>
<text text-anchor="start" x="15.5" y="-176.2" font-family="Helvetica,sans-Serif" font-weight="bold" font-size="11.00">lookup_growth_area</text>
<text text-anchor="start" x="419.5" y="-175.2" font-family="Helvetica,sans-Serif" font-size="11.00">[table]</text>
<polygon fill="none" stroke="black" points="10.5,-145 10.5,-167 178.5,-167 178.5,-145 10.5,-145"/>
<text text-anchor="start" x="30.5" y="-153.2" font-family="Helvetica,sans-Serif" font-size="11.00">name_de</text>
<polygon fill="none" stroke="black" points="178.5,-145 178.5,-167 461.5,-167 461.5,-145 178.5,-145"/>
<text text-anchor="start" x="181.5" y="-153.2" font-family="Helvetica,sans-Serif" font-size="11.00">varchar[150]</text>
<polygon fill="none" stroke="black" points="10.5,-123 10.5,-145 178.5,-145 178.5,-123 10.5,-123"/>
<text text-anchor="start" x="30.5" y="-131.2" font-family="Helvetica,sans-Serif" font-size="11.00">name_en</text>
<polygon fill="none" stroke="black" points="178.5,-123 178.5,-145 461.5,-145 461.5,-123 178.5,-123"/>
<text text-anchor="start" x="181.5" y="-131.2" font-family="Helvetica,sans-Serif" font-size="11.00">varchar[150]</text>
<polygon fill="none" stroke="black" points="10.5,-101 10.5,-123 178.5,-123 178.5,-101 10.5,-101"/>
<text text-anchor="start" x="30.5" y="-109.2" font-family="Helvetica,sans-Serif" font-size="11.00">sort</text>
<polygon fill="none" stroke="black" points="178.5,-101 178.5,-123 461.5,-123 461.5,-101 178.5,-101"/>
<text text-anchor="start" x="181.5" y="-109.2" font-family="Helvetica,sans-Serif" font-size="11.00">int4[10]</text>
<polygon fill="#ffffff" stroke="transparent" points="10.5,-79 10.5,-101 178.5,-101 178.5,-79 10.5,-79"/>
<polygon fill="none" stroke="black" points="10.5,-79 10.5,-101 178.5,-101 178.5,-79 10.5,-79"/>
<text text-anchor="start" x="30.5" y="-87.2" font-family="Helvetica,sans-Serif" font-size="11.00">abbreviation</text>
<polygon fill="none" stroke="black" points="178.5,-79 178.5,-101 461.5,-101 461.5,-79 178.5,-79"/>
<text text-anchor="start" x="181.5" y="-87.2" font-family="Helvetica,sans-Serif" font-size="11.00">int4[10]</text>
<polygon fill="none" stroke="black" points="10.5,-57 10.5,-79 178.5,-79 178.5,-57 10.5,-57"/>
<text text-anchor="start" x="30.5" y="-65.2" font-family="Helvetica,sans-Serif" font-size="11.00">states</text>
<polygon fill="none" stroke="black" points="178.5,-57 178.5,-79 461.5,-79 461.5,-57 178.5,-57"/>
<text text-anchor="start" x="181.5" y="-65.2" font-family="Helvetica,sans-Serif" font-size="11.00">&quot;private_ci2027_001&quot;.&quot;_enum_state&quot;[2147483647]</text>
<polygon fill="#ffffff" stroke="transparent" points="10.5,-39 10.5,-57 461.5,-57 461.5,-39 10.5,-39"/>
<polygon fill="none" stroke="black" points="10.5,-39 10.5,-57 461.5,-57 461.5,-39 10.5,-39"/>
<polygon fill="#ffffff" stroke="transparent" points="11.5,-40 11.5,-56 153.5,-56 153.5,-40 11.5,-40"/>
<text text-anchor="start" x="13.5" y="-45.2" font-family="Helvetica,sans-Serif" font-size="11.00">&lt; 0</text>
<polygon fill="#ffffff" stroke="transparent" points="153.5,-40 153.5,-56 319.5,-56 319.5,-40 153.5,-40"/>
<text text-anchor="start" x="214.5" y="-45.2" font-family="Helvetica,sans-Serif" font-size="11.00">83 rows</text>
<polygon fill="#ffffff" stroke="transparent" points="319.5,-40 319.5,-56 460.5,-56 460.5,-40 319.5,-40"/>
<text text-anchor="start" x="438.5" y="-45.2" font-family="Helvetica,sans-Serif" font-size="11.00">1 &gt;</text>
<polygon fill="black" stroke="black" points="153.5,-40 153.5,-56 153.5,-56 153.5,-40 153.5,-40"/>
<polygon fill="black" stroke="black" points="319.5,-40 319.5,-56 319.5,-56 319.5,-40 319.5,-40"/>
<polygon fill="none" stroke="black" stroke-width="2" points="9,-38 9,-190 462,-190 462,-38 9,-38"/>
</a>
</g>
</g>
<!-- lookup_growth_district&#45;&gt;lookup_growth_area -->
<g id="edge1" class="edge">
<title>lookup_growth_district:w&#45;&gt;lookup_growth_area:e</title>
<path fill="none" stroke="black" d="M496.28,-90C485.29,-90 478.16,-90 462.5,-90"/>
<polygon fill="black" stroke="black" points="503,-90 511,-93.6 507,-90 511,-90 511,-90 511,-90 507,-90 511,-86.4 503,-90 503,-90"/>
<ellipse fill="none" stroke="black" cx="499.8" cy="-90" rx="3.2" ry="3.2"/>
</g>
<!-- plot -->
<g id="node3" class="node">
<title>plot</title>
<g id="a_node3"><a xlink:href="../../tables/plot.html" xlink:title="plot" target="_top">
<polygon fill="#ffffff" stroke="transparent" points="775,-85 775,-143 880,-143 880,-85 775,-85"/>
<polygon fill="#f5f5f5" stroke="transparent" points="775.5,-121 775.5,-143 880.5,-143 880.5,-121 775.5,-121"/>
<polygon fill="none" stroke="black" points="775.5,-121 775.5,-143 880.5,-143 880.5,-121 775.5,-121"/>
<text text-anchor="start" x="780" y="-130.2" font-family="Helvetica,sans-Serif" font-weight="bold" font-size="11.00">plot</text>
<text text-anchor="start" x="838.5" y="-129.2" font-family="Helvetica,sans-Serif" font-size="11.00">[table]</text>
<polygon fill="none" stroke="black" points="775.5,-103 775.5,-121 880.5,-121 880.5,-103 775.5,-103"/>
<text text-anchor="start" x="778.5" y="-109.2" font-family="Helvetica,sans-Serif" font-size="11.00">...</text>
<polygon fill="#ffffff" stroke="transparent" points="775.5,-85 775.5,-103 880.5,-103 880.5,-85 775.5,-85"/>
<polygon fill="none" stroke="black" points="775.5,-85 775.5,-103 880.5,-103 880.5,-85 775.5,-85"/>
<polygon fill="#ffffff" stroke="transparent" points="776.5,-86 776.5,-102 807.5,-102 807.5,-86 776.5,-86"/>
<text text-anchor="start" x="778.5" y="-91.2" font-family="Helvetica,sans-Serif" font-size="11.00">&lt; 24</text>
<polygon fill="#ffffff" stroke="transparent" points="807.5,-86 807.5,-102 855.5,-102 855.5,-86 807.5,-86"/>
<text text-anchor="start" x="809.5" y="-91.2" font-family="Helvetica,sans-Serif" font-size="11.00">82 rows</text>
<polygon fill="#ffffff" stroke="transparent" points="855.5,-86 855.5,-102 879.5,-102 879.5,-86 855.5,-86"/>
<text text-anchor="start" x="857.5" y="-91.2" font-family="Helvetica,sans-Serif" font-size="11.00">7 &gt;</text>
<polygon fill="black" stroke="black" points="807.5,-86 807.5,-102 807.5,-102 807.5,-86 807.5,-86"/>
<polygon fill="black" stroke="black" points="855.5,-86 855.5,-102 855.5,-102 855.5,-86 855.5,-86"/>
</a>
</g>
</g>
<!-- plot&#45;&gt;lookup_growth_district -->
<g id="edge2" class="edge">
<title>plot:w&#45;&gt;lookup_growth_district:e</title>
<path fill="none" stroke="black" d="M760.09,-112C749.32,-112 742.34,-112 727,-112"/>
<polygon fill="black" stroke="black" points="766.5,-112 774.5,-115.6 770.5,-112 774.5,-112 774.5,-112 774.5,-112 770.5,-112 774.5,-108.4 766.5,-112 766.5,-112"/>
<ellipse fill="none" stroke="black" cx="763.3" cy="-112" rx="3.2" ry="3.2"/>
</g>
</g>
</svg>
