<?xml version="1.0" encoding="UTF-8" standalone="no"?>
<!DOCTYPE svg PUBLIC "-//W3C//DTD SVG 1.1//EN"
 "http://www.w3.org/Graphics/SVG/1.1/DTD/svg11.dtd">
<!-- Generated by graphviz version 2.43.0 (0)
 -->
<!-- Title: twoDegreesRelationshipsDiagram Pages: 1 -->
<svg width="599pt" height="418pt"
 viewBox="0.00 0.00 599.00 418.00" xmlns="http://www.w3.org/2000/svg" xmlns:xlink="http://www.w3.org/1999/xlink">
<g id="graph0" class="graph" transform="scale(1 1) rotate(0) translate(4 414)">
<title>twoDegreesRelationshipsDiagram</title>
<polygon fill="#ffffff" stroke="transparent" points="-4,4 -4,-414 595,-414 595,4 -4,4"/>
<text text-anchor="middle" x="79.5" y="-7.2" font-family="Helvetica,sans-Serif" font-size="11.00">Generated by SchemaSpy</text>
<!-- edges -->
<g id="node1" class="node">
<title>edges</title>
<g id="a_node1"><a xlink:href="../../tables/edges.html" xlink:title="edges" target="_top">
<polygon fill="#ffffff" stroke="transparent" points="474,-176 474,-344 583,-344 583,-176 474,-176"/>
<polygon fill="#f5f5f5" stroke="transparent" points="474.5,-322 474.5,-344 583.5,-344 583.5,-322 474.5,-322"/>
<polygon fill="none" stroke="black" points="474.5,-322 474.5,-344 583.5,-344 583.5,-322 474.5,-322"/>
<text text-anchor="start" x="479.5" y="-331.2" font-family="Helvetica,sans-Serif" font-weight="bold" font-size="11.00">edges</text>
<text text-anchor="start" x="541.5" y="-330.2" font-family="Helvetica,sans-Serif" font-size="11.00">[table]</text>
<polygon fill="none" stroke="black" points="474.5,-300 474.5,-322 583.5,-322 583.5,-300 474.5,-300"/>
<image xlink:href="../../images/primaryKeys.png" width="11px" height="12px" preserveAspectRatio="xMinYMin meet" x="479.5" y="-317"/>
<text text-anchor="start" x="494.5" y="-308.2" font-family="Helvetica,sans-Serif" font-size="11.00">id</text>
<polygon fill="none" stroke="black" points="474.5,-278 474.5,-300 583.5,-300 583.5,-278 474.5,-278"/>
<image xlink:href="../../images/foreignKeys.png" width="11px" height="12px" preserveAspectRatio="xMinYMin meet" x="479.5" y="-295"/>
<text text-anchor="start" x="494.5" y="-286.2" font-family="Helvetica,sans-Serif" font-size="11.00">plot_id</text>
<polygon fill="none" stroke="black" points="474.5,-256 474.5,-278 583.5,-278 583.5,-256 474.5,-256"/>
<image xlink:href="../../images/foreignKeys.png" width="11px" height="12px" preserveAspectRatio="xMinYMin meet" x="479.5" y="-273"/>
<text text-anchor="start" x="494.5" y="-264.2" font-family="Helvetica,sans-Serif" font-size="11.00">edge_state</text>
<polygon fill="none" stroke="black" points="474.5,-234 474.5,-256 583.5,-256 583.5,-234 474.5,-234"/>
<image xlink:href="../../images/foreignKeys.png" width="11px" height="12px" preserveAspectRatio="xMinYMin meet" x="479.5" y="-251"/>
<text text-anchor="start" x="494.5" y="-242.2" font-family="Helvetica,sans-Serif" font-size="11.00">edge_type</text>
<polygon fill="none" stroke="black" points="474.5,-212 474.5,-234 583.5,-234 583.5,-212 474.5,-212"/>
<image xlink:href="../../images/foreignKeys.png" width="11px" height="12px" preserveAspectRatio="xMinYMin meet" x="479.5" y="-229"/>
<text text-anchor="start" x="494.5" y="-220.2" font-family="Helvetica,sans-Serif" font-size="11.00">terrain</text>
<polygon fill="none" stroke="black" points="474.5,-194 474.5,-212 583.5,-212 583.5,-194 474.5,-194"/>
<text text-anchor="start" x="477.5" y="-200.2" font-family="Helvetica,sans-Serif" font-size="11.00">...</text>
<polygon fill="#ffffff" stroke="transparent" points="474.5,-176 474.5,-194 583.5,-194 583.5,-176 474.5,-176"/>
<polygon fill="none" stroke="black" points="474.5,-176 474.5,-194 583.5,-194 583.5,-176 474.5,-176"/>
<polygon fill="#ffffff" stroke="transparent" points="475.5,-177 475.5,-193 509.5,-193 509.5,-177 475.5,-177"/>
<text text-anchor="start" x="477.5" y="-182.2" font-family="Helvetica,sans-Serif" font-size="11.00">&lt; 4</text>
<polygon fill="#ffffff" stroke="transparent" points="509.5,-177 509.5,-193 560.5,-193 560.5,-177 509.5,-177"/>
<text text-anchor="start" x="516.5" y="-182.2" font-family="Helvetica,sans-Serif" font-size="11.00">0 rows</text>
<polygon fill="#ffffff" stroke="transparent" points="560.5,-177 560.5,-193 582.5,-193 582.5,-177 560.5,-177"/>
<text text-anchor="start" x="572.5" y="-182.2" font-family="Helvetica,sans-Serif" font-size="11.00"> &#160;</text>
<polygon fill="black" stroke="black" points="509.5,-177 509.5,-193 509.5,-193 509.5,-177 509.5,-177"/>
<polygon fill="black" stroke="black" points="560.5,-177 560.5,-193 560.5,-193 560.5,-177 560.5,-177"/>
</a>
</g>
</g>
<!-- lookup_edge_state -->
<g id="node2" class="node">
<title>lookup_edge_state</title>
<g id="a_node2"><a xlink:href="../../tables/lookup_edge_state.html" xlink:title="lookup_edge_state" target="_top">
<polygon fill="#ffffff" stroke="transparent" points="125,-269 125,-327 308,-327 308,-269 125,-269"/>
<polygon fill="#f5f5f5" stroke="transparent" points="125.5,-305 125.5,-327 308.5,-327 308.5,-305 125.5,-305"/>
<polygon fill="none" stroke="black" points="125.5,-305 125.5,-327 308.5,-327 308.5,-305 125.5,-305"/>
<text text-anchor="start" x="130.5" y="-314.2" font-family="Helvetica,sans-Serif" font-weight="bold" font-size="11.00">lookup_edge_state</text>
<text text-anchor="start" x="266.5" y="-313.2" font-family="Helvetica,sans-Serif" font-size="11.00">[table]</text>
<polygon fill="none" stroke="black" points="125.5,-287 125.5,-305 308.5,-305 308.5,-287 125.5,-287"/>
<text text-anchor="start" x="128.5" y="-293.2" font-family="Helvetica,sans-Serif" font-size="11.00">...</text>
<polygon fill="#ffffff" stroke="transparent" points="125.5,-269 125.5,-287 308.5,-287 308.5,-269 125.5,-269"/>
<polygon fill="none" stroke="black" points="125.5,-269 125.5,-287 308.5,-287 308.5,-269 125.5,-269"/>
<polygon fill="#ffffff" stroke="transparent" points="126.5,-270 126.5,-286 173.5,-286 173.5,-270 126.5,-270"/>
<text text-anchor="start" x="128.5" y="-275.2" font-family="Helvetica,sans-Serif" font-size="11.00"> &#160;</text>
<polygon fill="#ffffff" stroke="transparent" points="173.5,-270 173.5,-286 249.5,-286 249.5,-270 173.5,-270"/>
<text text-anchor="start" x="193" y="-275.2" font-family="Helvetica,sans-Serif" font-size="11.00">0 rows</text>
<polygon fill="#ffffff" stroke="transparent" points="249.5,-270 249.5,-286 307.5,-286 307.5,-270 249.5,-270"/>
<text text-anchor="start" x="285.5" y="-275.2" font-family="Helvetica,sans-Serif" font-size="11.00">1 &gt;</text>
<polygon fill="black" stroke="black" points="173.5,-270 173.5,-286 173.5,-286 173.5,-270 173.5,-270"/>
<polygon fill="black" stroke="black" points="249.5,-270 249.5,-286 249.5,-286 249.5,-270 249.5,-270"/>
</a>
</g>
</g>
<!-- edges&#45;&gt;lookup_edge_state -->
<g id="edge1" class="edge">
<title>edges:w&#45;&gt;lookup_edge_state:e</title>
<path fill="none" stroke="black" d="M459.1,-267.39C397.03,-270.83 378.46,-296 309.5,-296"/>
<polygon fill="black" stroke="black" points="465.5,-267.22 473.6,-270.6 469.5,-267.11 473.5,-267 473.5,-267 473.5,-267 469.5,-267.11 473.4,-263.4 465.5,-267.22 465.5,-267.22"/>
<ellipse fill="none" stroke="black" cx="462.3" cy="-267.3" rx="3.2" ry="3.2"/>
</g>
<!-- lookup_edge_type -->
<g id="node3" class="node">
<title>lookup_edge_type</title>
<g id="a_node3"><a xlink:href="../../tables/lookup_edge_type.html" xlink:title="lookup_edge_type" target="_top">
<polygon fill="#ffffff" stroke="transparent" points="127.5,-190 127.5,-248 305.5,-248 305.5,-190 127.5,-190"/>
<polygon fill="#f5f5f5" stroke="transparent" points="127.5,-226 127.5,-248 305.5,-248 305.5,-226 127.5,-226"/>
<polygon fill="none" stroke="black" points="127.5,-226 127.5,-248 305.5,-248 305.5,-226 127.5,-226"/>
<text text-anchor="start" x="132.5" y="-235.2" font-family="Helvetica,sans-Serif" font-weight="bold" font-size="11.00">lookup_edge_type</text>
<text text-anchor="start" x="263.5" y="-234.2" font-family="Helvetica,sans-Serif" font-size="11.00">[table]</text>
<polygon fill="none" stroke="black" points="127.5,-208 127.5,-226 305.5,-226 305.5,-208 127.5,-208"/>
<text text-anchor="start" x="130.5" y="-214.2" font-family="Helvetica,sans-Serif" font-size="11.00">...</text>
<polygon fill="#ffffff" stroke="transparent" points="127.5,-190 127.5,-208 305.5,-208 305.5,-190 127.5,-190"/>
<polygon fill="none" stroke="black" points="127.5,-190 127.5,-208 305.5,-208 305.5,-190 127.5,-190"/>
<polygon fill="#ffffff" stroke="transparent" points="128.5,-191 128.5,-207 173.5,-207 173.5,-191 128.5,-191"/>
<text text-anchor="start" x="130.5" y="-196.2" font-family="Helvetica,sans-Serif" font-size="11.00"> &#160;</text>
<polygon fill="#ffffff" stroke="transparent" points="173.5,-191 173.5,-207 247.5,-207 247.5,-191 173.5,-191"/>
<text text-anchor="start" x="192" y="-196.2" font-family="Helvetica,sans-Serif" font-size="11.00">0 rows</text>
<polygon fill="#ffffff" stroke="transparent" points="247.5,-191 247.5,-207 304.5,-207 304.5,-191 247.5,-191"/>
<text text-anchor="start" x="282.5" y="-196.2" font-family="Helvetica,sans-Serif" font-size="11.00">1 &gt;</text>
<polygon fill="black" stroke="black" points="173.5,-191 173.5,-207 173.5,-207 173.5,-191 173.5,-191"/>
<polygon fill="black" stroke="black" points="247.5,-191 247.5,-207 247.5,-207 247.5,-191 247.5,-191"/>
</a>
</g>
</g>
<!-- edges&#45;&gt;lookup_edge_type -->
<g id="edge2" class="edge">
<title>edges:w&#45;&gt;lookup_edge_type:e</title>
<path fill="none" stroke="black" d="M458.85,-244.63C395.71,-241.3 376.61,-217 306.5,-217"/>
<polygon fill="black" stroke="black" points="465.5,-244.8 473.41,-248.6 469.5,-244.9 473.5,-245 473.5,-245 473.5,-245 469.5,-244.9 473.59,-241.4 465.5,-244.8 465.5,-244.8"/>
<ellipse fill="none" stroke="black" cx="462.3" cy="-244.71" rx="3.2" ry="3.2"/>
</g>
<!-- plot -->
<g id="node4" class="node">
<title>plot</title>
<g id="a_node4"><a xlink:href="../../tables/plot.html" xlink:title="plot" target="_top">
<polygon fill="#ffffff" stroke="transparent" points="167.5,-348 167.5,-406 265.5,-406 265.5,-348 167.5,-348"/>
<polygon fill="#f5f5f5" stroke="transparent" points="167.5,-384 167.5,-406 265.5,-406 265.5,-384 167.5,-384"/>
<polygon fill="none" stroke="black" points="167.5,-384 167.5,-406 265.5,-406 265.5,-384 167.5,-384"/>
<text text-anchor="start" x="172" y="-393.2" font-family="Helvetica,sans-Serif" font-weight="bold" font-size="11.00">plot</text>
<text text-anchor="start" x="223.5" y="-392.2" font-family="Helvetica,sans-Serif" font-size="11.00">[table]</text>
<polygon fill="none" stroke="black" points="167.5,-366 167.5,-384 265.5,-384 265.5,-366 167.5,-366"/>
<text text-anchor="start" x="170.5" y="-372.2" font-family="Helvetica,sans-Serif" font-size="11.00">...</text>
<polygon fill="#ffffff" stroke="transparent" points="167.5,-348 167.5,-366 265.5,-366 265.5,-348 167.5,-348"/>
<polygon fill="none" stroke="black" points="167.5,-348 167.5,-366 265.5,-366 265.5,-348 167.5,-348"/>
<polygon fill="#ffffff" stroke="transparent" points="168.5,-349 168.5,-365 199.5,-365 199.5,-349 168.5,-349"/>
<text text-anchor="start" x="170.5" y="-354.2" font-family="Helvetica,sans-Serif" font-size="11.00">&lt; 24</text>
<polygon fill="#ffffff" stroke="transparent" points="199.5,-349 199.5,-365 240.5,-365 240.5,-349 199.5,-349"/>
<text text-anchor="start" x="201.5" y="-354.2" font-family="Helvetica,sans-Serif" font-size="11.00">0 rows</text>
<polygon fill="#ffffff" stroke="transparent" points="240.5,-349 240.5,-365 264.5,-365 264.5,-349 240.5,-349"/>
<text text-anchor="start" x="242.5" y="-354.2" font-family="Helvetica,sans-Serif" font-size="11.00">7 &gt;</text>
<polygon fill="black" stroke="black" points="199.5,-349 199.5,-365 199.5,-365 199.5,-349 199.5,-349"/>
<polygon fill="black" stroke="black" points="240.5,-349 240.5,-365 240.5,-365 240.5,-349 240.5,-349"/>
</a>
</g>
</g>
<!-- edges&#45;&gt;plot -->
<g id="edge3" class="edge">
<title>edges:w&#45;&gt;plot:e</title>
<path fill="none" stroke="black" d="M459.59,-293.65C448.77,-303.52 451.64,-326.59 433,-338 368.35,-377.58 342.31,-375 266.5,-375"/>
<polygon fill="black" stroke="black" points="465.91,-291.54 474.64,-292.41 469.71,-290.27 473.5,-289 473.5,-289 473.5,-289 469.71,-290.27 472.36,-285.59 465.91,-291.54 465.91,-291.54"/>
<ellipse fill="none" stroke="black" cx="462.88" cy="-292.55" rx="3.2" ry="3.2"/>
</g>
<!-- lookup_terrain -->
<g id="node5" class="node">
<title>lookup_terrain</title>
<g id="a_node5"><a xlink:href="../../tables/lookup_terrain.html" xlink:title="lookup_terrain" target="_top">
<polygon fill="#ffffff" stroke="transparent" points="8,-37 8,-169 425,-169 425,-37 8,-37"/>
<polygon fill="#f5f5f5" stroke="transparent" points="10.5,-145 10.5,-167 423.5,-167 423.5,-145 10.5,-145"/>
<polygon fill="none" stroke="black" points="10.5,-145 10.5,-167 423.5,-167 423.5,-145 10.5,-145"/>
<text text-anchor="start" x="15.5" y="-154.2" font-family="Helvetica,sans-Serif" font-weight="bold" font-size="11.00">lookup_terrain</text>
<text text-anchor="start" x="381.5" y="-153.2" font-family="Helvetica,sans-Serif" font-size="11.00">[table]</text>
<polygon fill="none" stroke="black" points="10.5,-123 10.5,-145 137.5,-145 137.5,-123 10.5,-123"/>
<text text-anchor="start" x="30.5" y="-131.2" font-family="Helvetica,sans-Serif" font-size="11.00">name_de</text>
<polygon fill="none" stroke="black" points="137.5,-123 137.5,-145 423.5,-145 423.5,-123 137.5,-123"/>
<text text-anchor="start" x="140.5" y="-131.2" font-family="Helvetica,sans-Serif" font-size="11.00">varchar[150]</text>
<polygon fill="none" stroke="black" points="10.5,-101 10.5,-123 137.5,-123 137.5,-101 10.5,-101"/>
<text text-anchor="start" x="30.5" y="-109.2" font-family="Helvetica,sans-Serif" font-size="11.00">name_en</text>
<polygon fill="none" stroke="black" points="137.5,-101 137.5,-123 423.5,-123 423.5,-101 137.5,-101"/>
<text text-anchor="start" x="140.5" y="-109.2" font-family="Helvetica,sans-Serif" font-size="11.00">varchar[150]</text>
<polygon fill="none" stroke="black" points="10.5,-79 10.5,-101 137.5,-101 137.5,-79 10.5,-79"/>
<text text-anchor="start" x="30.5" y="-87.2" font-family="Helvetica,sans-Serif" font-size="11.00">sort</text>
<polygon fill="none" stroke="black" points="137.5,-79 137.5,-101 423.5,-101 423.5,-79 137.5,-79"/>
<text text-anchor="start" x="140.5" y="-87.2" font-family="Helvetica,sans-Serif" font-size="11.00">int4[10]</text>
<polygon fill="#ffffff" stroke="transparent" points="10.5,-57 10.5,-79 137.5,-79 137.5,-57 10.5,-57"/>
<polygon fill="none" stroke="black" points="10.5,-57 10.5,-79 137.5,-79 137.5,-57 10.5,-57"/>
<text text-anchor="start" x="30.5" y="-65.2" font-family="Helvetica,sans-Serif" font-size="11.00">abbreviation</text>
<polygon fill="none" stroke="black" points="137.5,-57 137.5,-79 423.5,-79 423.5,-57 137.5,-57"/>
<text text-anchor="start" x="140.5" y="-65.2" font-family="Helvetica,sans-Serif" font-size="11.00">&quot;private_ci2027_001&quot;.&quot;enum_terrain&quot;[2147483647]</text>
<polygon fill="#ffffff" stroke="transparent" points="10.5,-39 10.5,-57 423.5,-57 423.5,-39 10.5,-39"/>
<polygon fill="none" stroke="black" points="10.5,-39 10.5,-57 423.5,-57 423.5,-39 10.5,-39"/>
<polygon fill="#ffffff" stroke="transparent" points="11.5,-40 11.5,-56 143.5,-56 143.5,-40 11.5,-40"/>
<text text-anchor="start" x="13.5" y="-45.2" font-family="Helvetica,sans-Serif" font-size="11.00">&lt; 0</text>
<polygon fill="#ffffff" stroke="transparent" points="143.5,-40 143.5,-56 291.5,-56 291.5,-40 143.5,-40"/>
<text text-anchor="start" x="199" y="-45.2" font-family="Helvetica,sans-Serif" font-size="11.00">0 rows</text>
<polygon fill="#ffffff" stroke="transparent" points="291.5,-40 291.5,-56 422.5,-56 422.5,-40 291.5,-40"/>
<text text-anchor="start" x="400.5" y="-45.2" font-family="Helvetica,sans-Serif" font-size="11.00">1 &gt;</text>
<polygon fill="black" stroke="black" points="143.5,-40 143.5,-56 143.5,-56 143.5,-40 143.5,-40"/>
<polygon fill="black" stroke="black" points="291.5,-40 291.5,-56 291.5,-56 291.5,-40 291.5,-40"/>
<polygon fill="none" stroke="black" stroke-width="2" points="9,-38 9,-168 424,-168 424,-38 9,-38"/>
</a>
</g>
</g>
<!-- edges&#45;&gt;lookup_terrain -->
<g id="edge4" class="edge">
<title>edges:w&#45;&gt;lookup_terrain:e</title>
<path fill="none" stroke="black" d="M459.2,-220.18C415.47,-199.17 490.96,-68 424.5,-68"/>
<polygon fill="black" stroke="black" points="465.65,-221.45 472.8,-226.53 469.58,-222.23 473.5,-223 473.5,-223 473.5,-223 469.58,-222.23 474.2,-219.47 465.65,-221.45 465.65,-221.45"/>
<ellipse fill="none" stroke="black" cx="462.51" cy="-220.83" rx="3.2" ry="3.2"/>
</g>
</g>
</svg>
