<?xml version="1.0" encoding="UTF-8" standalone="no"?>
<!DOCTYPE svg PUBLIC "-//W3C//DTD SVG 1.1//EN"
 "http://www.w3.org/Graphics/SVG/1.1/DTD/svg11.dtd">
<!-- Generated by graphviz version 2.43.0 (0)
 -->
<!-- Title: oneDegreeRelationshipsDiagram Pages: 1 -->
<svg width="1059pt" height="679pt"
 viewBox="0.00 0.00 1059.00 679.00" xmlns="http://www.w3.org/2000/svg" xmlns:xlink="http://www.w3.org/1999/xlink">
<g id="graph0" class="graph" transform="scale(1 1) rotate(0) translate(4 675)">
<title>oneDegreeRelationshipsDiagram</title>
<polygon fill="#ffffff" stroke="transparent" points="-4,4 -4,-675 1055,-675 1055,4 -4,4"/>
<text text-anchor="middle" x="79.5" y="-7.2" font-family="Helvetica,sans-Serif" font-size="11.00">Generated by SchemaSpy</text>
<!-- plot -->
<g id="node1" class="node">
<title>plot</title>
<g id="a_node1"><a xlink:href="../../tables/plot.html" xlink:title="plot" target="_top">
<polygon fill="#ffffff" stroke="transparent" points="792,-37 792,-667 1043,-667 1043,-37 792,-37"/>
<polygon fill="#f5f5f5" stroke="transparent" points="792.5,-645 792.5,-667 1043.5,-667 1043.5,-645 792.5,-645"/>
<polygon fill="none" stroke="black" points="792.5,-645 792.5,-667 1043.5,-667 1043.5,-645 792.5,-645"/>
<text text-anchor="start" x="797" y="-654.2" font-family="Helvetica,sans-Serif" font-weight="bold" font-size="11.00">plot</text>
<text text-anchor="start" x="1001.5" y="-653.2" font-family="Helvetica,sans-Serif" font-size="11.00">[table]</text>
<polygon fill="none" stroke="black" points="792.5,-623 792.5,-645 1043.5,-645 1043.5,-623 792.5,-623"/>
<image xlink:href="../../images/primaryKeys.png" width="11px" height="12px" preserveAspectRatio="xMinYMin meet" x="797.5" y="-640"/>
<text text-anchor="start" x="812.5" y="-631.2" font-family="Helvetica,sans-Serif" font-size="11.00">id</text>
<polygon fill="#ffffff" stroke="transparent" points="792.5,-601 792.5,-623 1043.5,-623 1043.5,-601 792.5,-601"/>
<polygon fill="none" stroke="black" points="792.5,-601 792.5,-623 1043.5,-623 1043.5,-601 792.5,-601"/>
<image xlink:href="../../images/foreignKeys.png" width="11px" height="12px" preserveAspectRatio="xMinYMin meet" x="797.5" y="-618"/>
<text text-anchor="start" x="812.5" y="-609.2" font-family="Helvetica,sans-Serif" font-size="11.00">cluster_id</text>
<polygon fill="#ffffff" stroke="transparent" points="792.5,-579 792.5,-601 1043.5,-601 1043.5,-579 792.5,-579"/>
<polygon fill="none" stroke="black" points="792.5,-579 792.5,-601 1043.5,-601 1043.5,-579 792.5,-579"/>
<text text-anchor="start" x="812.5" y="-587.2" font-family="Helvetica,sans-Serif" font-size="11.00">plot_name</text>
<polygon fill="none" stroke="black" points="792.5,-557 792.5,-579 1043.5,-579 1043.5,-557 792.5,-557"/>
<image xlink:href="../../images/foreignKeys.png" width="11px" height="12px" preserveAspectRatio="xMinYMin meet" x="797.5" y="-574"/>
<text text-anchor="start" x="812.5" y="-565.2" font-family="Helvetica,sans-Serif" font-size="11.00">sampling_strata</text>
<polygon fill="none" stroke="black" points="792.5,-535 792.5,-557 1043.5,-557 1043.5,-535 792.5,-535"/>
<image xlink:href="../../images/foreignKeys.png" width="11px" height="12px" preserveAspectRatio="xMinYMin meet" x="797.5" y="-552"/>
<text text-anchor="start" x="812.5" y="-543.2" font-family="Helvetica,sans-Serif" font-size="11.00">growth_district</text>
<polygon fill="none" stroke="black" points="792.5,-513 792.5,-535 1043.5,-535 1043.5,-513 792.5,-513"/>
<image xlink:href="../../images/foreignKeys.png" width="11px" height="12px" preserveAspectRatio="xMinYMin meet" x="797.5" y="-530"/>
<text text-anchor="start" x="812.5" y="-521.2" font-family="Helvetica,sans-Serif" font-size="11.00">forest_decision</text>
<polygon fill="none" stroke="black" points="792.5,-491 792.5,-513 1043.5,-513 1043.5,-491 792.5,-491"/>
<image xlink:href="../../images/foreignKeys.png" width="11px" height="12px" preserveAspectRatio="xMinYMin meet" x="797.5" y="-508"/>
<text text-anchor="start" x="812.5" y="-499.2" font-family="Helvetica,sans-Serif" font-size="11.00">forestry_department</text>
<polygon fill="none" stroke="black" points="792.5,-469 792.5,-491 1043.5,-491 1043.5,-469 792.5,-469"/>
<image xlink:href="../../images/foreignKeys.png" width="11px" height="12px" preserveAspectRatio="xMinYMin meet" x="797.5" y="-486"/>
<text text-anchor="start" x="812.5" y="-477.2" font-family="Helvetica,sans-Serif" font-size="11.00">height_layer_class</text>
<polygon fill="none" stroke="black" points="792.5,-447 792.5,-469 1043.5,-469 1043.5,-447 792.5,-447"/>
<image xlink:href="../../images/foreignKeys.png" width="11px" height="12px" preserveAspectRatio="xMinYMin meet" x="797.5" y="-464"/>
<text text-anchor="start" x="812.5" y="-455.2" font-family="Helvetica,sans-Serif" font-size="11.00">property_type</text>
<polygon fill="none" stroke="black" points="792.5,-425 792.5,-447 1043.5,-447 1043.5,-425 792.5,-425"/>
<image xlink:href="../../images/foreignKeys.png" width="11px" height="12px" preserveAspectRatio="xMinYMin meet" x="797.5" y="-442"/>
<text text-anchor="start" x="812.5" y="-433.2" font-family="Helvetica,sans-Serif" font-size="11.00">property_size_class</text>
<polygon fill="none" stroke="black" points="792.5,-403 792.5,-425 1043.5,-425 1043.5,-403 792.5,-403"/>
<image xlink:href="../../images/foreignKeys.png" width="11px" height="12px" preserveAspectRatio="xMinYMin meet" x="797.5" y="-420"/>
<text text-anchor="start" x="812.5" y="-411.2" font-family="Helvetica,sans-Serif" font-size="11.00">forest_type</text>
<polygon fill="none" stroke="black" points="792.5,-381 792.5,-403 1043.5,-403 1043.5,-381 792.5,-381"/>
<image xlink:href="../../images/foreignKeys.png" width="11px" height="12px" preserveAspectRatio="xMinYMin meet" x="797.5" y="-398"/>
<text text-anchor="start" x="812.5" y="-389.2" font-family="Helvetica,sans-Serif" font-size="11.00">habitat_type</text>
<polygon fill="none" stroke="black" points="792.5,-359 792.5,-381 1043.5,-381 1043.5,-359 792.5,-359"/>
<image xlink:href="../../images/foreignKeys.png" width="11px" height="12px" preserveAspectRatio="xMinYMin meet" x="797.5" y="-376"/>
<text text-anchor="start" x="812.5" y="-367.2" font-family="Helvetica,sans-Serif" font-size="11.00">habitat_type_source</text>
<polygon fill="none" stroke="black" points="792.5,-337 792.5,-359 1043.5,-359 1043.5,-337 792.5,-337"/>
<image xlink:href="../../images/foreignKeys.png" width="11px" height="12px" preserveAspectRatio="xMinYMin meet" x="797.5" y="-354"/>
<text text-anchor="start" x="812.5" y="-345.2" font-family="Helvetica,sans-Serif" font-size="11.00">use_restriction</text>
<polygon fill="none" stroke="black" points="792.5,-315 792.5,-337 1043.5,-337 1043.5,-315 792.5,-315"/>
<image xlink:href="../../images/foreignKeys.png" width="11px" height="12px" preserveAspectRatio="xMinYMin meet" x="797.5" y="-332"/>
<text text-anchor="start" x="812.5" y="-323.2" font-family="Helvetica,sans-Serif" font-size="11.00">land_use</text>
<polygon fill="none" stroke="black" points="792.5,-293 792.5,-315 1043.5,-315 1043.5,-293 792.5,-293"/>
<image xlink:href="../../images/foreignKeys.png" width="11px" height="12px" preserveAspectRatio="xMinYMin meet" x="797.5" y="-310"/>
<text text-anchor="start" x="812.5" y="-301.2" font-family="Helvetica,sans-Serif" font-size="11.00">marking_state</text>
<polygon fill="none" stroke="black" points="792.5,-271 792.5,-293 1043.5,-293 1043.5,-271 792.5,-271"/>
<image xlink:href="../../images/foreignKeys.png" width="11px" height="12px" preserveAspectRatio="xMinYMin meet" x="797.5" y="-288"/>
<text text-anchor="start" x="812.5" y="-279.2" font-family="Helvetica,sans-Serif" font-size="11.00">marking_profile</text>
<polygon fill="none" stroke="black" points="792.5,-249 792.5,-271 1043.5,-271 1043.5,-249 792.5,-249"/>
<image xlink:href="../../images/foreignKeys.png" width="11px" height="12px" preserveAspectRatio="xMinYMin meet" x="797.5" y="-266"/>
<text text-anchor="start" x="812.5" y="-257.2" font-family="Helvetica,sans-Serif" font-size="11.00">terrain_form</text>
<polygon fill="none" stroke="black" points="792.5,-227 792.5,-249 1043.5,-249 1043.5,-227 792.5,-227"/>
<image xlink:href="../../images/foreignKeys.png" width="11px" height="12px" preserveAspectRatio="xMinYMin meet" x="797.5" y="-244"/>
<text text-anchor="start" x="812.5" y="-235.2" font-family="Helvetica,sans-Serif" font-size="11.00">management_type</text>
<polygon fill="none" stroke="black" points="792.5,-205 792.5,-227 1043.5,-227 1043.5,-205 792.5,-205"/>
<image xlink:href="../../images/foreignKeys.png" width="11px" height="12px" preserveAspectRatio="xMinYMin meet" x="797.5" y="-222"/>
<text text-anchor="start" x="812.5" y="-213.2" font-family="Helvetica,sans-Serif" font-size="11.00">harvesting_method</text>
<polygon fill="none" stroke="black" points="792.5,-183 792.5,-205 1043.5,-205 1043.5,-183 792.5,-183"/>
<image xlink:href="../../images/foreignKeys.png" width="11px" height="12px" preserveAspectRatio="xMinYMin meet" x="797.5" y="-200"/>
<text text-anchor="start" x="812.5" y="-191.2" font-family="Helvetica,sans-Serif" font-size="11.00">layer_type</text>
<polygon fill="none" stroke="black" points="792.5,-161 792.5,-183 1043.5,-183 1043.5,-161 792.5,-161"/>
<image xlink:href="../../images/foreignKeys.png" width="11px" height="12px" preserveAspectRatio="xMinYMin meet" x="797.5" y="-178"/>
<text text-anchor="start" x="812.5" y="-169.2" font-family="Helvetica,sans-Serif" font-size="11.00">stand_phase</text>
<polygon fill="none" stroke="black" points="792.5,-139 792.5,-161 1043.5,-161 1043.5,-139 792.5,-139"/>
<image xlink:href="../../images/foreignKeys.png" width="11px" height="12px" preserveAspectRatio="xMinYMin meet" x="797.5" y="-156"/>
<text text-anchor="start" x="812.5" y="-147.2" font-family="Helvetica,sans-Serif" font-size="11.00">sablings_layer</text>
<polygon fill="none" stroke="black" points="792.5,-117 792.5,-139 1043.5,-139 1043.5,-117 792.5,-117"/>
<image xlink:href="../../images/foreignKeys.png" width="11px" height="12px" preserveAspectRatio="xMinYMin meet" x="797.5" y="-134"/>
<text text-anchor="start" x="812.5" y="-125.2" font-family="Helvetica,sans-Serif" font-size="11.00">trees_less_4meter_mirrored</text>
<polygon fill="none" stroke="black" points="792.5,-95 792.5,-117 1043.5,-117 1043.5,-95 792.5,-95"/>
<image xlink:href="../../images/foreignKeys.png" width="11px" height="12px" preserveAspectRatio="xMinYMin meet" x="797.5" y="-112"/>
<text text-anchor="start" x="812.5" y="-103.2" font-family="Helvetica,sans-Serif" font-size="11.00">trees_less_4meter_count_factor</text>
<polygon fill="none" stroke="black" points="792.5,-73 792.5,-95 1043.5,-95 1043.5,-73 792.5,-73"/>
<image xlink:href="../../images/foreignKeys.png" width="11px" height="12px" preserveAspectRatio="xMinYMin meet" x="797.5" y="-90"/>
<text text-anchor="start" x="812.5" y="-81.2" font-family="Helvetica,sans-Serif" font-size="11.00">trees_less_4meter_layer</text>
<polygon fill="none" stroke="black" points="792.5,-55 792.5,-73 1043.5,-73 1043.5,-55 792.5,-55"/>
<text text-anchor="start" x="795.5" y="-61.2" font-family="Helvetica,sans-Serif" font-size="11.00">...</text>
<polygon fill="#ffffff" stroke="transparent" points="792.5,-37 792.5,-55 1043.5,-55 1043.5,-37 792.5,-37"/>
<polygon fill="none" stroke="black" points="792.5,-37 792.5,-55 1043.5,-55 1043.5,-37 792.5,-37"/>
<polygon fill="#ffffff" stroke="transparent" points="793.5,-38 793.5,-54 873.5,-54 873.5,-38 793.5,-38"/>
<text text-anchor="start" x="795.5" y="-43.2" font-family="Helvetica,sans-Serif" font-size="11.00">&lt; 24</text>
<polygon fill="#ffffff" stroke="transparent" points="873.5,-38 873.5,-54 970.5,-54 970.5,-38 873.5,-38"/>
<text text-anchor="start" x="900" y="-43.2" font-family="Helvetica,sans-Serif" font-size="11.00">82 rows</text>
<polygon fill="#ffffff" stroke="transparent" points="970.5,-38 970.5,-54 1042.5,-54 1042.5,-38 970.5,-38"/>
<text text-anchor="start" x="1020.5" y="-43.2" font-family="Helvetica,sans-Serif" font-size="11.00">7 &gt;</text>
<polygon fill="black" stroke="black" points="873.5,-38 873.5,-54 873.5,-54 873.5,-38 873.5,-38"/>
<polygon fill="black" stroke="black" points="970.5,-38 970.5,-54 970.5,-54 970.5,-38 970.5,-38"/>
</a>
</g>
</g>
<!-- lookup_trees_less_4meter_count_factor -->
<g id="node2" class="node">
<title>lookup_trees_less_4meter_count_factor</title>
<g id="a_node2"><a xlink:href="../../tables/lookup_trees_less_4meter_count_factor.html" xlink:title="lookup_trees_less_4meter_count_factor" target="_top">
<polygon fill="#ffffff" stroke="transparent" points="8,-75 8,-207 743,-207 743,-75 8,-75"/>
<polygon fill="#f5f5f5" stroke="transparent" points="10.5,-183 10.5,-205 741.5,-205 741.5,-183 10.5,-183"/>
<polygon fill="none" stroke="black" points="10.5,-183 10.5,-205 741.5,-205 741.5,-183 10.5,-183"/>
<text text-anchor="start" x="15.5" y="-192.2" font-family="Helvetica,sans-Serif" font-weight="bold" font-size="11.00">lookup_trees_less_4meter_count_factor</text>
<text text-anchor="start" x="699.5" y="-191.2" font-family="Helvetica,sans-Serif" font-size="11.00">[table]</text>
<polygon fill="none" stroke="black" points="10.5,-161 10.5,-183 317.5,-183 317.5,-161 10.5,-161"/>
<text text-anchor="start" x="30.5" y="-169.2" font-family="Helvetica,sans-Serif" font-size="11.00">name_de</text>
<polygon fill="none" stroke="black" points="317.5,-161 317.5,-183 741.5,-183 741.5,-161 317.5,-161"/>
<text text-anchor="start" x="320.5" y="-169.2" font-family="Helvetica,sans-Serif" font-size="11.00">varchar[150]</text>
<polygon fill="none" stroke="black" points="10.5,-139 10.5,-161 317.5,-161 317.5,-139 10.5,-139"/>
<text text-anchor="start" x="30.5" y="-147.2" font-family="Helvetica,sans-Serif" font-size="11.00">name_en</text>
<polygon fill="none" stroke="black" points="317.5,-139 317.5,-161 741.5,-161 741.5,-139 317.5,-139"/>
<text text-anchor="start" x="320.5" y="-147.2" font-family="Helvetica,sans-Serif" font-size="11.00">varchar[150]</text>
<polygon fill="none" stroke="black" points="10.5,-117 10.5,-139 317.5,-139 317.5,-117 10.5,-117"/>
<text text-anchor="start" x="30.5" y="-125.2" font-family="Helvetica,sans-Serif" font-size="11.00">sort</text>
<polygon fill="none" stroke="black" points="317.5,-117 317.5,-139 741.5,-139 741.5,-117 317.5,-117"/>
<text text-anchor="start" x="320.5" y="-125.2" font-family="Helvetica,sans-Serif" font-size="11.00">int4[10]</text>
<polygon fill="#ffffff" stroke="transparent" points="10.5,-95 10.5,-117 317.5,-117 317.5,-95 10.5,-95"/>
<polygon fill="none" stroke="black" points="10.5,-95 10.5,-117 317.5,-117 317.5,-95 10.5,-95"/>
<text text-anchor="start" x="30.5" y="-103.2" font-family="Helvetica,sans-Serif" font-size="11.00">abbreviation</text>
<polygon fill="none" stroke="black" points="317.5,-95 317.5,-117 741.5,-117 741.5,-95 317.5,-95"/>
<text text-anchor="start" x="320.5" y="-103.2" font-family="Helvetica,sans-Serif" font-size="11.00">&quot;private_ci2027_001&quot;.&quot;enum_trees_less_4meter_count_factor&quot;[2147483647]</text>
<polygon fill="#ffffff" stroke="transparent" points="10.5,-77 10.5,-95 741.5,-95 741.5,-77 10.5,-77"/>
<polygon fill="none" stroke="black" points="10.5,-77 10.5,-95 741.5,-95 741.5,-77 10.5,-77"/>
<polygon fill="#ffffff" stroke="transparent" points="11.5,-78 11.5,-94 249.5,-94 249.5,-78 11.5,-78"/>
<text text-anchor="start" x="13.5" y="-83.2" font-family="Helvetica,sans-Serif" font-size="11.00">&lt; 0</text>
<polygon fill="#ffffff" stroke="transparent" points="249.5,-78 249.5,-94 503.5,-94 503.5,-78 249.5,-78"/>
<text text-anchor="start" x="358" y="-83.2" font-family="Helvetica,sans-Serif" font-size="11.00">0 rows</text>
<polygon fill="#ffffff" stroke="transparent" points="503.5,-78 503.5,-94 740.5,-94 740.5,-78 503.5,-78"/>
<text text-anchor="start" x="718.5" y="-83.2" font-family="Helvetica,sans-Serif" font-size="11.00">1 &gt;</text>
<polygon fill="black" stroke="black" points="249.5,-78 249.5,-94 249.5,-94 249.5,-78 249.5,-78"/>
<polygon fill="black" stroke="black" points="503.5,-78 503.5,-94 503.5,-94 503.5,-78 503.5,-78"/>
<polygon fill="none" stroke="black" stroke-width="2" points="9,-76 9,-206 742,-206 742,-76 9,-76"/>
</a>
</g>
</g>
<!-- plot&#45;&gt;lookup_trees_less_4meter_count_factor -->
<g id="edge1" class="edge">
<title>plot:w&#45;&gt;lookup_trees_less_4meter_count_factor:e</title>
<path fill="none" stroke="black" d="M776.99,-106C765.68,-106 758.49,-106 742.5,-106"/>
<polygon fill="black" stroke="black" points="783.5,-106 791.5,-109.6 787.5,-106 791.5,-106 791.5,-106 791.5,-106 787.5,-106 791.5,-102.4 783.5,-106 783.5,-106"/>
<ellipse fill="none" stroke="black" cx="780.3" cy="-106" rx="3.2" ry="3.2"/>
</g>
</g>
</svg>
