<?xml version="1.0" encoding="UTF-8" standalone="no"?>
<!DOCTYPE svg PUBLIC "-//W3C//DTD SVG 1.1//EN"
 "http://www.w3.org/Graphics/SVG/1.1/DTD/svg11.dtd">
<!-- Generated by graphviz version 2.43.0 (0)
 -->
<!-- Title: oneDegreeRelationshipsDiagram Pages: 1 -->
<svg width="756pt" height="219pt"
 viewBox="0.00 0.00 756.00 219.00" xmlns="http://www.w3.org/2000/svg" xmlns:xlink="http://www.w3.org/1999/xlink">
<g id="graph0" class="graph" transform="scale(1 1) rotate(0) translate(4 215)">
<title>oneDegreeRelationshipsDiagram</title>
<polygon fill="#ffffff" stroke="transparent" points="-4,4 -4,-215 752,-215 752,4 -4,4"/>
<text text-anchor="middle" x="79.5" y="-7.2" font-family="Helvetica,sans-Serif" font-size="11.00">Generated by SchemaSpy</text>
<!-- deadwood -->
<g id="node1" class="node">
<title>deadwood</title>
<g id="a_node1"><a xlink:href="../../tables/deadwood.html" xlink:title="deadwood" target="_top">
<polygon fill="#ffffff" stroke="transparent" points="578,-37 578,-205 740,-205 740,-37 578,-37"/>
<polygon fill="#f5f5f5" stroke="transparent" points="578,-183 578,-205 740,-205 740,-183 578,-183"/>
<polygon fill="none" stroke="black" points="578,-183 578,-205 740,-205 740,-183 578,-183"/>
<text text-anchor="start" x="583" y="-192.2" font-family="Helvetica,sans-Serif" font-weight="bold" font-size="11.00">deadwood</text>
<text text-anchor="start" x="698" y="-191.2" font-family="Helvetica,sans-Serif" font-size="11.00">[table]</text>
<polygon fill="none" stroke="black" points="578,-161 578,-183 740,-183 740,-161 578,-161"/>
<image xlink:href="../../images/primaryKeys.png" width="11px" height="12px" preserveAspectRatio="xMinYMin meet" x="583" y="-178"/>
<text text-anchor="start" x="598" y="-169.2" font-family="Helvetica,sans-Serif" font-size="11.00">id</text>
<polygon fill="none" stroke="black" points="578,-139 578,-161 740,-161 740,-139 578,-139"/>
<image xlink:href="../../images/foreignKeys.png" width="11px" height="12px" preserveAspectRatio="xMinYMin meet" x="583" y="-156"/>
<text text-anchor="start" x="598" y="-147.2" font-family="Helvetica,sans-Serif" font-size="11.00">plot_id</text>
<polygon fill="none" stroke="black" points="578,-117 578,-139 740,-139 740,-117 578,-117"/>
<image xlink:href="../../images/foreignKeys.png" width="11px" height="12px" preserveAspectRatio="xMinYMin meet" x="583" y="-134"/>
<text text-anchor="start" x="598" y="-125.2" font-family="Helvetica,sans-Serif" font-size="11.00">tree_species_group</text>
<polygon fill="none" stroke="black" points="578,-95 578,-117 740,-117 740,-95 578,-95"/>
<image xlink:href="../../images/foreignKeys.png" width="11px" height="12px" preserveAspectRatio="xMinYMin meet" x="583" y="-112"/>
<text text-anchor="start" x="598" y="-103.2" font-family="Helvetica,sans-Serif" font-size="11.00">dead_wood_type</text>
<polygon fill="none" stroke="black" points="578,-73 578,-95 740,-95 740,-73 578,-73"/>
<image xlink:href="../../images/foreignKeys.png" width="11px" height="12px" preserveAspectRatio="xMinYMin meet" x="583" y="-90"/>
<text text-anchor="start" x="598" y="-81.2" font-family="Helvetica,sans-Serif" font-size="11.00">decomposition</text>
<polygon fill="none" stroke="black" points="578,-55 578,-73 740,-73 740,-55 578,-55"/>
<text text-anchor="start" x="581" y="-61.2" font-family="Helvetica,sans-Serif" font-size="11.00">...</text>
<polygon fill="#ffffff" stroke="transparent" points="578,-37 578,-55 740,-55 740,-37 578,-37"/>
<polygon fill="none" stroke="black" points="578,-37 578,-55 740,-55 740,-37 578,-37"/>
<polygon fill="#ffffff" stroke="transparent" points="579,-38 579,-54 631,-54 631,-38 579,-38"/>
<text text-anchor="start" x="581" y="-43.2" font-family="Helvetica,sans-Serif" font-size="11.00">&lt; 4</text>
<polygon fill="#ffffff" stroke="transparent" points="631,-38 631,-54 700,-54 700,-38 631,-38"/>
<text text-anchor="start" x="647" y="-43.2" font-family="Helvetica,sans-Serif" font-size="11.00">0 rows</text>
<polygon fill="#ffffff" stroke="transparent" points="700,-38 700,-54 739,-54 739,-38 700,-38"/>
<text text-anchor="start" x="729" y="-43.2" font-family="Helvetica,sans-Serif" font-size="11.00"> &#160;</text>
<polygon fill="black" stroke="black" points="631,-38 631,-54 631,-54 631,-38 631,-38"/>
<polygon fill="black" stroke="black" points="700,-38 700,-54 700,-54 700,-38 700,-38"/>
</a>
</g>
</g>
<!-- lookup_decomposition -->
<g id="node2" class="node">
<title>lookup_decomposition</title>
<g id="a_node2"><a xlink:href="../../tables/lookup_decomposition.html" xlink:title="lookup_decomposition" target="_top">
<polygon fill="#ffffff" stroke="transparent" points="8,-53 8,-207 529,-207 529,-53 8,-53"/>
<polygon fill="#f5f5f5" stroke="transparent" points="10.5,-183 10.5,-205 527.5,-205 527.5,-183 10.5,-183"/>
<polygon fill="none" stroke="black" points="10.5,-183 10.5,-205 527.5,-205 527.5,-183 10.5,-183"/>
<text text-anchor="start" x="15.5" y="-192.2" font-family="Helvetica,sans-Serif" font-weight="bold" font-size="11.00">lookup_decomposition</text>
<text text-anchor="start" x="485.5" y="-191.2" font-family="Helvetica,sans-Serif" font-size="11.00">[table]</text>
<polygon fill="none" stroke="black" points="10.5,-161 10.5,-183 194.5,-183 194.5,-161 10.5,-161"/>
<text text-anchor="start" x="30.5" y="-169.2" font-family="Helvetica,sans-Serif" font-size="11.00">name_de</text>
<polygon fill="none" stroke="black" points="194.5,-161 194.5,-183 527.5,-183 527.5,-161 194.5,-161"/>
<text text-anchor="start" x="197.5" y="-169.2" font-family="Helvetica,sans-Serif" font-size="11.00">varchar[150]</text>
<polygon fill="none" stroke="black" points="10.5,-139 10.5,-161 194.5,-161 194.5,-139 10.5,-139"/>
<text text-anchor="start" x="30.5" y="-147.2" font-family="Helvetica,sans-Serif" font-size="11.00">name_en</text>
<polygon fill="none" stroke="black" points="194.5,-139 194.5,-161 527.5,-161 527.5,-139 194.5,-139"/>
<text text-anchor="start" x="197.5" y="-147.2" font-family="Helvetica,sans-Serif" font-size="11.00">varchar[150]</text>
<polygon fill="none" stroke="black" points="10.5,-117 10.5,-139 194.5,-139 194.5,-117 10.5,-117"/>
<text text-anchor="start" x="30.5" y="-125.2" font-family="Helvetica,sans-Serif" font-size="11.00">interval</text>
<polygon fill="none" stroke="black" points="194.5,-117 194.5,-139 527.5,-139 527.5,-117 194.5,-117"/>
<text text-anchor="start" x="197.5" y="-125.2" font-family="Helvetica,sans-Serif" font-size="11.00">&quot;private_ci2027_001&quot;.&quot;_enum_interval_name&quot;[2147483647]</text>
<polygon fill="none" stroke="black" points="10.5,-95 10.5,-117 194.5,-117 194.5,-95 10.5,-95"/>
<text text-anchor="start" x="30.5" y="-103.2" font-family="Helvetica,sans-Serif" font-size="11.00">sort</text>
<polygon fill="none" stroke="black" points="194.5,-95 194.5,-117 527.5,-117 527.5,-95 194.5,-95"/>
<text text-anchor="start" x="197.5" y="-103.2" font-family="Helvetica,sans-Serif" font-size="11.00">int4[10]</text>
<polygon fill="#ffffff" stroke="transparent" points="10.5,-73 10.5,-95 194.5,-95 194.5,-73 10.5,-73"/>
<polygon fill="none" stroke="black" points="10.5,-73 10.5,-95 194.5,-95 194.5,-73 10.5,-73"/>
<text text-anchor="start" x="30.5" y="-81.2" font-family="Helvetica,sans-Serif" font-size="11.00">abbreviation</text>
<polygon fill="none" stroke="black" points="194.5,-73 194.5,-95 527.5,-95 527.5,-73 194.5,-73"/>
<text text-anchor="start" x="197.5" y="-81.2" font-family="Helvetica,sans-Serif" font-size="11.00">&quot;private_ci2027_001&quot;.&quot;enum_decomposition&quot;[2147483647]</text>
<polygon fill="#ffffff" stroke="transparent" points="10.5,-55 10.5,-73 527.5,-73 527.5,-55 10.5,-55"/>
<polygon fill="none" stroke="black" points="10.5,-55 10.5,-73 527.5,-73 527.5,-55 10.5,-55"/>
<polygon fill="#ffffff" stroke="transparent" points="11.5,-56 11.5,-72 177.5,-72 177.5,-56 11.5,-56"/>
<text text-anchor="start" x="13.5" y="-61.2" font-family="Helvetica,sans-Serif" font-size="11.00">&lt; 0</text>
<polygon fill="#ffffff" stroke="transparent" points="177.5,-56 177.5,-72 360.5,-72 360.5,-56 177.5,-56"/>
<text text-anchor="start" x="250.5" y="-61.2" font-family="Helvetica,sans-Serif" font-size="11.00">0 rows</text>
<polygon fill="#ffffff" stroke="transparent" points="360.5,-56 360.5,-72 526.5,-72 526.5,-56 360.5,-56"/>
<text text-anchor="start" x="504.5" y="-61.2" font-family="Helvetica,sans-Serif" font-size="11.00">1 &gt;</text>
<polygon fill="black" stroke="black" points="177.5,-56 177.5,-72 177.5,-72 177.5,-56 177.5,-56"/>
<polygon fill="black" stroke="black" points="360.5,-56 360.5,-72 360.5,-72 360.5,-56 360.5,-56"/>
<polygon fill="none" stroke="black" stroke-width="2" points="9,-54 9,-206 528,-206 528,-54 9,-54"/>
</a>
</g>
</g>
<!-- deadwood&#45;&gt;lookup_decomposition -->
<g id="edge1" class="edge">
<title>deadwood:w&#45;&gt;lookup_decomposition:e</title>
<path fill="none" stroke="black" d="M562.28,-84C551.29,-84 544.16,-84 528.5,-84"/>
<polygon fill="black" stroke="black" points="569,-84 577,-87.6 573,-84 577,-84 577,-84 577,-84 573,-84 577,-80.4 569,-84 569,-84"/>
<ellipse fill="none" stroke="black" cx="565.8" cy="-84" rx="3.2" ry="3.2"/>
</g>
</g>
</svg>
