<?xml version="1.0" encoding="UTF-8" standalone="no"?>
<!DOCTYPE svg PUBLIC "-//W3C//DTD SVG 1.1//EN"
 "http://www.w3.org/Graphics/SVG/1.1/DTD/svg11.dtd">
<!-- Generated by graphviz version 2.43.0 (0)
 -->
<!-- Title: oneDegreeRelationshipsDiagram Pages: 1 -->
<svg width="866pt" height="503pt"
 viewBox="0.00 0.00 866.00 503.00" xmlns="http://www.w3.org/2000/svg" xmlns:xlink="http://www.w3.org/1999/xlink">
<g id="graph0" class="graph" transform="scale(1 1) rotate(0) translate(4 499)">
<title>oneDegreeRelationshipsDiagram</title>
<polygon fill="#ffffff" stroke="transparent" points="-4,4 -4,-499 862,-499 862,4 -4,4"/>
<text text-anchor="middle" x="79.5" y="-7.2" font-family="Helvetica,sans-Serif" font-size="11.00">Generated by SchemaSpy</text>
<!-- plot -->
<g id="node1" class="node">
<title>plot</title>
<g id="a_node1"><a xlink:href="../../tables/plot.html" xlink:title="plot" target="_top">
<polygon fill="#ffffff" stroke="transparent" points="562,-37 562,-491 850,-491 850,-37 562,-37"/>
<polygon fill="#f5f5f5" stroke="transparent" points="562,-469 562,-491 850,-491 850,-469 562,-469"/>
<polygon fill="none" stroke="black" points="562,-469 562,-491 850,-491 850,-469 562,-469"/>
<text text-anchor="start" x="566.5" y="-478.2" font-family="Helvetica,sans-Serif" font-weight="bold" font-size="11.00">plot</text>
<text text-anchor="start" x="808" y="-477.2" font-family="Helvetica,sans-Serif" font-size="11.00">[table]</text>
<polygon fill="none" stroke="black" points="562,-447 562,-469 850,-469 850,-447 562,-447"/>
<image xlink:href="../../images/primaryKeys.png" width="11px" height="12px" preserveAspectRatio="xMinYMin meet" x="567" y="-464"/>
<text text-anchor="start" x="582" y="-455.2" font-family="Helvetica,sans-Serif" font-size="11.00">id</text>
<polygon fill="#ffffff" stroke="transparent" points="562,-425 562,-447 850,-447 850,-425 562,-425"/>
<polygon fill="none" stroke="black" points="562,-425 562,-447 850,-447 850,-425 562,-425"/>
<image xlink:href="../../images/foreignKeys.png" width="11px" height="12px" preserveAspectRatio="xMinYMin meet" x="567" y="-442"/>
<text text-anchor="start" x="582" y="-433.2" font-family="Helvetica,sans-Serif" font-size="11.00">cluster_id</text>
<polygon fill="#ffffff" stroke="transparent" points="562,-403 562,-425 850,-425 850,-403 562,-403"/>
<polygon fill="none" stroke="black" points="562,-403 562,-425 850,-425 850,-403 562,-403"/>
<text text-anchor="start" x="582" y="-411.2" font-family="Helvetica,sans-Serif" font-size="11.00">plot_name</text>
<polygon fill="none" stroke="black" points="562,-381 562,-403 850,-403 850,-381 562,-381"/>
<image xlink:href="../../images/foreignKeys.png" width="11px" height="12px" preserveAspectRatio="xMinYMin meet" x="567" y="-398"/>
<text text-anchor="start" x="582" y="-389.2" font-family="Helvetica,sans-Serif" font-size="11.00">growth_district</text>
<polygon fill="none" stroke="black" points="562,-359 562,-381 850,-381 850,-359 562,-359"/>
<image xlink:href="../../images/foreignKeys.png" width="11px" height="12px" preserveAspectRatio="xMinYMin meet" x="567" y="-376"/>
<text text-anchor="start" x="582" y="-367.2" font-family="Helvetica,sans-Serif" font-size="11.00">forest_status</text>
<polygon fill="none" stroke="black" points="562,-337 562,-359 850,-359 850,-337 562,-337"/>
<image xlink:href="../../images/foreignKeys.png" width="11px" height="12px" preserveAspectRatio="xMinYMin meet" x="567" y="-354"/>
<text text-anchor="start" x="582" y="-345.2" font-family="Helvetica,sans-Serif" font-size="11.00">elevation_level</text>
<polygon fill="none" stroke="black" points="562,-315 562,-337 850,-337 850,-315 562,-315"/>
<image xlink:href="../../images/foreignKeys.png" width="11px" height="12px" preserveAspectRatio="xMinYMin meet" x="567" y="-332"/>
<text text-anchor="start" x="582" y="-323.2" font-family="Helvetica,sans-Serif" font-size="11.00">property_type</text>
<polygon fill="none" stroke="black" points="562,-293 562,-315 850,-315 850,-293 562,-293"/>
<image xlink:href="../../images/foreignKeys.png" width="11px" height="12px" preserveAspectRatio="xMinYMin meet" x="567" y="-310"/>
<text text-anchor="start" x="582" y="-301.2" font-family="Helvetica,sans-Serif" font-size="11.00">property_size_class</text>
<polygon fill="none" stroke="black" points="562,-271 562,-293 850,-293 850,-271 562,-271"/>
<image xlink:href="../../images/foreignKeys.png" width="11px" height="12px" preserveAspectRatio="xMinYMin meet" x="567" y="-288"/>
<text text-anchor="start" x="582" y="-279.2" font-family="Helvetica,sans-Serif" font-size="11.00">land_use_after</text>
<polygon fill="none" stroke="black" points="562,-249 562,-271 850,-271 850,-249 562,-249"/>
<image xlink:href="../../images/foreignKeys.png" width="11px" height="12px" preserveAspectRatio="xMinYMin meet" x="567" y="-266"/>
<text text-anchor="start" x="582" y="-257.2" font-family="Helvetica,sans-Serif" font-size="11.00">marker_status</text>
<polygon fill="none" stroke="black" points="562,-227 562,-249 850,-249 850,-227 562,-227"/>
<image xlink:href="../../images/foreignKeys.png" width="11px" height="12px" preserveAspectRatio="xMinYMin meet" x="567" y="-244"/>
<text text-anchor="start" x="582" y="-235.2" font-family="Helvetica,sans-Serif" font-size="11.00">marker_profile</text>
<polygon fill="none" stroke="black" points="562,-205 562,-227 850,-227 850,-205 562,-205"/>
<image xlink:href="../../images/foreignKeys.png" width="11px" height="12px" preserveAspectRatio="xMinYMin meet" x="567" y="-222"/>
<text text-anchor="start" x="582" y="-213.2" font-family="Helvetica,sans-Serif" font-size="11.00">terrain_form</text>
<polygon fill="none" stroke="black" points="562,-183 562,-205 850,-205 850,-183 562,-183"/>
<image xlink:href="../../images/foreignKeys.png" width="11px" height="12px" preserveAspectRatio="xMinYMin meet" x="567" y="-200"/>
<text text-anchor="start" x="582" y="-191.2" font-family="Helvetica,sans-Serif" font-size="11.00">management_type</text>
<polygon fill="none" stroke="black" points="562,-161 562,-183 850,-183 850,-161 562,-161"/>
<image xlink:href="../../images/foreignKeys.png" width="11px" height="12px" preserveAspectRatio="xMinYMin meet" x="567" y="-178"/>
<text text-anchor="start" x="582" y="-169.2" font-family="Helvetica,sans-Serif" font-size="11.00">harvesting_method</text>
<polygon fill="none" stroke="black" points="562,-139 562,-161 850,-161 850,-139 562,-139"/>
<image xlink:href="../../images/foreignKeys.png" width="11px" height="12px" preserveAspectRatio="xMinYMin meet" x="567" y="-156"/>
<text text-anchor="start" x="582" y="-147.2" font-family="Helvetica,sans-Serif" font-size="11.00">stand_structure</text>
<polygon fill="none" stroke="black" points="562,-117 562,-139 850,-139 850,-117 562,-117"/>
<image xlink:href="../../images/foreignKeys.png" width="11px" height="12px" preserveAspectRatio="xMinYMin meet" x="567" y="-134"/>
<text text-anchor="start" x="582" y="-125.2" font-family="Helvetica,sans-Serif" font-size="11.00">stand_dev_phase</text>
<polygon fill="none" stroke="black" points="562,-95 562,-117 850,-117 850,-95 562,-95"/>
<image xlink:href="../../images/foreignKeys.png" width="11px" height="12px" preserveAspectRatio="xMinYMin meet" x="567" y="-112"/>
<text text-anchor="start" x="582" y="-103.2" font-family="Helvetica,sans-Serif" font-size="11.00">stand_layer_reg</text>
<polygon fill="none" stroke="black" points="562,-73 562,-95 850,-95 850,-73 562,-73"/>
<image xlink:href="../../images/foreignKeys.png" width="11px" height="12px" preserveAspectRatio="xMinYMin meet" x="567" y="-90"/>
<text text-anchor="start" x="582" y="-81.2" font-family="Helvetica,sans-Serif" font-size="11.00">trees_less_4meter_mirrored</text>
<polygon fill="none" stroke="black" points="562,-55 562,-73 850,-73 850,-55 562,-55"/>
<text text-anchor="start" x="565" y="-61.2" font-family="Helvetica,sans-Serif" font-size="11.00">...</text>
<polygon fill="#ffffff" stroke="transparent" points="562,-37 562,-55 850,-55 850,-37 562,-37"/>
<polygon fill="none" stroke="black" points="562,-37 562,-55 850,-55 850,-37 562,-37"/>
<polygon fill="#ffffff" stroke="transparent" points="563,-38 563,-54 658,-54 658,-38 563,-38"/>
<text text-anchor="start" x="565" y="-43.2" font-family="Helvetica,sans-Serif" font-size="11.00">&lt; 16</text>
<polygon fill="#ffffff" stroke="transparent" points="658,-38 658,-54 762,-54 762,-38 658,-38"/>
<text text-anchor="start" x="691.5" y="-43.2" font-family="Helvetica,sans-Serif" font-size="11.00">0 rows</text>
<polygon fill="#ffffff" stroke="transparent" points="762,-38 762,-54 849,-54 849,-38 762,-38"/>
<text text-anchor="start" x="827" y="-43.2" font-family="Helvetica,sans-Serif" font-size="11.00">7 &gt;</text>
<polygon fill="black" stroke="black" points="658,-38 658,-54 658,-54 658,-38 658,-38"/>
<polygon fill="black" stroke="black" points="762,-38 762,-54 762,-54 762,-38 762,-38"/>
</a>
</g>
</g>
<!-- lookup_terrain_form -->
<g id="node2" class="node">
<title>lookup_terrain_form</title>
<g id="a_node2"><a xlink:href="../../tables/lookup_terrain_form.html" xlink:title="lookup_terrain_form" target="_top">
<polygon fill="#ffffff" stroke="transparent" points="8,-185 8,-339 513,-339 513,-185 8,-185"/>
<polygon fill="#f5f5f5" stroke="transparent" points="10.5,-315 10.5,-337 511.5,-337 511.5,-315 10.5,-315"/>
<polygon fill="none" stroke="black" points="10.5,-315 10.5,-337 511.5,-337 511.5,-315 10.5,-315"/>
<text text-anchor="start" x="15.5" y="-324.2" font-family="Helvetica,sans-Serif" font-weight="bold" font-size="11.00">lookup_terrain_form</text>
<text text-anchor="start" x="469.5" y="-323.2" font-family="Helvetica,sans-Serif" font-size="11.00">[table]</text>
<polygon fill="none" stroke="black" points="10.5,-293 10.5,-315 178.5,-315 178.5,-293 10.5,-293"/>
<text text-anchor="start" x="30.5" y="-301.2" font-family="Helvetica,sans-Serif" font-size="11.00">name_de</text>
<polygon fill="none" stroke="black" points="178.5,-293 178.5,-315 511.5,-315 511.5,-293 178.5,-293"/>
<text text-anchor="start" x="181.5" y="-301.2" font-family="Helvetica,sans-Serif" font-size="11.00">varchar[150]</text>
<polygon fill="none" stroke="black" points="10.5,-271 10.5,-293 178.5,-293 178.5,-271 10.5,-271"/>
<text text-anchor="start" x="30.5" y="-279.2" font-family="Helvetica,sans-Serif" font-size="11.00">name_en</text>
<polygon fill="none" stroke="black" points="178.5,-271 178.5,-293 511.5,-293 511.5,-271 178.5,-271"/>
<text text-anchor="start" x="181.5" y="-279.2" font-family="Helvetica,sans-Serif" font-size="11.00">varchar[150]</text>
<polygon fill="none" stroke="black" points="10.5,-249 10.5,-271 178.5,-271 178.5,-249 10.5,-249"/>
<text text-anchor="start" x="30.5" y="-257.2" font-family="Helvetica,sans-Serif" font-size="11.00">interval</text>
<polygon fill="none" stroke="black" points="178.5,-249 178.5,-271 511.5,-271 511.5,-249 178.5,-249"/>
<text text-anchor="start" x="181.5" y="-257.2" font-family="Helvetica,sans-Serif" font-size="11.00">&quot;private_ci2027_001&quot;.&quot;_enum_interval_name&quot;[2147483647]</text>
<polygon fill="none" stroke="black" points="10.5,-227 10.5,-249 178.5,-249 178.5,-227 10.5,-227"/>
<text text-anchor="start" x="30.5" y="-235.2" font-family="Helvetica,sans-Serif" font-size="11.00">sort</text>
<polygon fill="none" stroke="black" points="178.5,-227 178.5,-249 511.5,-249 511.5,-227 178.5,-227"/>
<text text-anchor="start" x="181.5" y="-235.2" font-family="Helvetica,sans-Serif" font-size="11.00">int4[10]</text>
<polygon fill="#ffffff" stroke="transparent" points="10.5,-205 10.5,-227 178.5,-227 178.5,-205 10.5,-205"/>
<polygon fill="none" stroke="black" points="10.5,-205 10.5,-227 178.5,-227 178.5,-205 10.5,-205"/>
<text text-anchor="start" x="30.5" y="-213.2" font-family="Helvetica,sans-Serif" font-size="11.00">abbreviation</text>
<polygon fill="none" stroke="black" points="178.5,-205 178.5,-227 511.5,-227 511.5,-205 178.5,-205"/>
<text text-anchor="start" x="181.5" y="-213.2" font-family="Helvetica,sans-Serif" font-size="11.00">&quot;private_ci2027_001&quot;.&quot;enum_terrain_form&quot;[2147483647]</text>
<polygon fill="#ffffff" stroke="transparent" points="10.5,-187 10.5,-205 511.5,-205 511.5,-187 10.5,-187"/>
<polygon fill="none" stroke="black" points="10.5,-187 10.5,-205 511.5,-205 511.5,-187 10.5,-187"/>
<polygon fill="#ffffff" stroke="transparent" points="11.5,-188 11.5,-204 172.5,-204 172.5,-188 11.5,-188"/>
<text text-anchor="start" x="13.5" y="-193.2" font-family="Helvetica,sans-Serif" font-size="11.00">&lt; 0</text>
<polygon fill="#ffffff" stroke="transparent" points="172.5,-188 172.5,-204 350.5,-204 350.5,-188 172.5,-188"/>
<text text-anchor="start" x="243" y="-193.2" font-family="Helvetica,sans-Serif" font-size="11.00">0 rows</text>
<polygon fill="#ffffff" stroke="transparent" points="350.5,-188 350.5,-204 510.5,-204 510.5,-188 350.5,-188"/>
<text text-anchor="start" x="488.5" y="-193.2" font-family="Helvetica,sans-Serif" font-size="11.00">1 &gt;</text>
<polygon fill="black" stroke="black" points="172.5,-188 172.5,-204 172.5,-204 172.5,-188 172.5,-188"/>
<polygon fill="black" stroke="black" points="350.5,-188 350.5,-204 350.5,-204 350.5,-188 350.5,-188"/>
<polygon fill="none" stroke="black" stroke-width="2" points="9,-186 9,-338 512,-338 512,-186 9,-186"/>
</a>
</g>
</g>
<!-- plot&#45;&gt;lookup_terrain_form -->
<g id="edge1" class="edge">
<title>plot:w&#45;&gt;lookup_terrain_form:e</title>
<path fill="none" stroke="black" d="M546.28,-216C535.29,-216 528.16,-216 512.5,-216"/>
<polygon fill="black" stroke="black" points="553,-216 561,-219.6 557,-216 561,-216 561,-216 561,-216 557,-216 561,-212.4 553,-216 553,-216"/>
<ellipse fill="none" stroke="black" cx="549.8" cy="-216" rx="3.2" ry="3.2"/>
</g>
</g>
</svg>
