<?xml version="1.0" encoding="UTF-8" standalone="no"?>
<!DOCTYPE svg PUBLIC "-//W3C//DTD SVG 1.1//EN"
 "http://www.w3.org/Graphics/SVG/1.1/DTD/svg11.dtd">
<!-- Generated by graphviz version 2.43.0 (0)
 -->
<!-- Title: oneDegreeRelationshipsDiagram Pages: 1 -->
<svg width="1011pt" height="679pt"
 viewBox="0.00 0.00 1011.00 679.00" xmlns="http://www.w3.org/2000/svg" xmlns:xlink="http://www.w3.org/1999/xlink">
<g id="graph0" class="graph" transform="scale(1 1) rotate(0) translate(4 675)">
<title>oneDegreeRelationshipsDiagram</title>
<polygon fill="#ffffff" stroke="transparent" points="-4,4 -4,-675 1007,-675 1007,4 -4,4"/>
<text text-anchor="middle" x="79.5" y="-7.2" font-family="Helvetica,sans-Serif" font-size="11.00">Generated by SchemaSpy</text>
<!-- plot -->
<g id="node1" class="node">
<title>plot</title>
<g id="a_node1"><a xlink:href="../../tables/plot.html" xlink:title="plot" target="_top">
<polygon fill="#ffffff" stroke="transparent" points="744,-37 744,-667 995,-667 995,-37 744,-37"/>
<polygon fill="#f5f5f5" stroke="transparent" points="744.5,-645 744.5,-667 995.5,-667 995.5,-645 744.5,-645"/>
<polygon fill="none" stroke="black" points="744.5,-645 744.5,-667 995.5,-667 995.5,-645 744.5,-645"/>
<text text-anchor="start" x="749" y="-654.2" font-family="Helvetica,sans-Serif" font-weight="bold" font-size="11.00">plot</text>
<text text-anchor="start" x="953.5" y="-653.2" font-family="Helvetica,sans-Serif" font-size="11.00">[table]</text>
<polygon fill="none" stroke="black" points="744.5,-623 744.5,-645 995.5,-645 995.5,-623 744.5,-623"/>
<image xlink:href="../../images/primaryKeys.png" width="11px" height="12px" preserveAspectRatio="xMinYMin meet" x="749.5" y="-640"/>
<text text-anchor="start" x="764.5" y="-631.2" font-family="Helvetica,sans-Serif" font-size="11.00">id</text>
<polygon fill="#ffffff" stroke="transparent" points="744.5,-601 744.5,-623 995.5,-623 995.5,-601 744.5,-601"/>
<polygon fill="none" stroke="black" points="744.5,-601 744.5,-623 995.5,-623 995.5,-601 744.5,-601"/>
<image xlink:href="../../images/foreignKeys.png" width="11px" height="12px" preserveAspectRatio="xMinYMin meet" x="749.5" y="-618"/>
<text text-anchor="start" x="764.5" y="-609.2" font-family="Helvetica,sans-Serif" font-size="11.00">cluster_id</text>
<polygon fill="#ffffff" stroke="transparent" points="744.5,-579 744.5,-601 995.5,-601 995.5,-579 744.5,-579"/>
<polygon fill="none" stroke="black" points="744.5,-579 744.5,-601 995.5,-601 995.5,-579 744.5,-579"/>
<text text-anchor="start" x="764.5" y="-587.2" font-family="Helvetica,sans-Serif" font-size="11.00">plot_name</text>
<polygon fill="none" stroke="black" points="744.5,-557 744.5,-579 995.5,-579 995.5,-557 744.5,-557"/>
<image xlink:href="../../images/foreignKeys.png" width="11px" height="12px" preserveAspectRatio="xMinYMin meet" x="749.5" y="-574"/>
<text text-anchor="start" x="764.5" y="-565.2" font-family="Helvetica,sans-Serif" font-size="11.00">sampling_strata</text>
<polygon fill="none" stroke="black" points="744.5,-535 744.5,-557 995.5,-557 995.5,-535 744.5,-535"/>
<image xlink:href="../../images/foreignKeys.png" width="11px" height="12px" preserveAspectRatio="xMinYMin meet" x="749.5" y="-552"/>
<text text-anchor="start" x="764.5" y="-543.2" font-family="Helvetica,sans-Serif" font-size="11.00">growth_district</text>
<polygon fill="none" stroke="black" points="744.5,-513 744.5,-535 995.5,-535 995.5,-513 744.5,-513"/>
<image xlink:href="../../images/foreignKeys.png" width="11px" height="12px" preserveAspectRatio="xMinYMin meet" x="749.5" y="-530"/>
<text text-anchor="start" x="764.5" y="-521.2" font-family="Helvetica,sans-Serif" font-size="11.00">forest_decision</text>
<polygon fill="none" stroke="black" points="744.5,-491 744.5,-513 995.5,-513 995.5,-491 744.5,-491"/>
<image xlink:href="../../images/foreignKeys.png" width="11px" height="12px" preserveAspectRatio="xMinYMin meet" x="749.5" y="-508"/>
<text text-anchor="start" x="764.5" y="-499.2" font-family="Helvetica,sans-Serif" font-size="11.00">forestry_department</text>
<polygon fill="none" stroke="black" points="744.5,-469 744.5,-491 995.5,-491 995.5,-469 744.5,-469"/>
<image xlink:href="../../images/foreignKeys.png" width="11px" height="12px" preserveAspectRatio="xMinYMin meet" x="749.5" y="-486"/>
<text text-anchor="start" x="764.5" y="-477.2" font-family="Helvetica,sans-Serif" font-size="11.00">height_layer_class</text>
<polygon fill="none" stroke="black" points="744.5,-447 744.5,-469 995.5,-469 995.5,-447 744.5,-447"/>
<image xlink:href="../../images/foreignKeys.png" width="11px" height="12px" preserveAspectRatio="xMinYMin meet" x="749.5" y="-464"/>
<text text-anchor="start" x="764.5" y="-455.2" font-family="Helvetica,sans-Serif" font-size="11.00">property_type</text>
<polygon fill="none" stroke="black" points="744.5,-425 744.5,-447 995.5,-447 995.5,-425 744.5,-425"/>
<image xlink:href="../../images/foreignKeys.png" width="11px" height="12px" preserveAspectRatio="xMinYMin meet" x="749.5" y="-442"/>
<text text-anchor="start" x="764.5" y="-433.2" font-family="Helvetica,sans-Serif" font-size="11.00">property_size_class</text>
<polygon fill="none" stroke="black" points="744.5,-403 744.5,-425 995.5,-425 995.5,-403 744.5,-403"/>
<image xlink:href="../../images/foreignKeys.png" width="11px" height="12px" preserveAspectRatio="xMinYMin meet" x="749.5" y="-420"/>
<text text-anchor="start" x="764.5" y="-411.2" font-family="Helvetica,sans-Serif" font-size="11.00">forest_type</text>
<polygon fill="none" stroke="black" points="744.5,-381 744.5,-403 995.5,-403 995.5,-381 744.5,-381"/>
<image xlink:href="../../images/foreignKeys.png" width="11px" height="12px" preserveAspectRatio="xMinYMin meet" x="749.5" y="-398"/>
<text text-anchor="start" x="764.5" y="-389.2" font-family="Helvetica,sans-Serif" font-size="11.00">habitat_type</text>
<polygon fill="none" stroke="black" points="744.5,-359 744.5,-381 995.5,-381 995.5,-359 744.5,-359"/>
<image xlink:href="../../images/foreignKeys.png" width="11px" height="12px" preserveAspectRatio="xMinYMin meet" x="749.5" y="-376"/>
<text text-anchor="start" x="764.5" y="-367.2" font-family="Helvetica,sans-Serif" font-size="11.00">habitat_type_source</text>
<polygon fill="none" stroke="black" points="744.5,-337 744.5,-359 995.5,-359 995.5,-337 744.5,-337"/>
<image xlink:href="../../images/foreignKeys.png" width="11px" height="12px" preserveAspectRatio="xMinYMin meet" x="749.5" y="-354"/>
<text text-anchor="start" x="764.5" y="-345.2" font-family="Helvetica,sans-Serif" font-size="11.00">use_restriction</text>
<polygon fill="none" stroke="black" points="744.5,-315 744.5,-337 995.5,-337 995.5,-315 744.5,-315"/>
<image xlink:href="../../images/foreignKeys.png" width="11px" height="12px" preserveAspectRatio="xMinYMin meet" x="749.5" y="-332"/>
<text text-anchor="start" x="764.5" y="-323.2" font-family="Helvetica,sans-Serif" font-size="11.00">land_use</text>
<polygon fill="none" stroke="black" points="744.5,-293 744.5,-315 995.5,-315 995.5,-293 744.5,-293"/>
<image xlink:href="../../images/foreignKeys.png" width="11px" height="12px" preserveAspectRatio="xMinYMin meet" x="749.5" y="-310"/>
<text text-anchor="start" x="764.5" y="-301.2" font-family="Helvetica,sans-Serif" font-size="11.00">marking_state</text>
<polygon fill="none" stroke="black" points="744.5,-271 744.5,-293 995.5,-293 995.5,-271 744.5,-271"/>
<image xlink:href="../../images/foreignKeys.png" width="11px" height="12px" preserveAspectRatio="xMinYMin meet" x="749.5" y="-288"/>
<text text-anchor="start" x="764.5" y="-279.2" font-family="Helvetica,sans-Serif" font-size="11.00">marking_profile</text>
<polygon fill="none" stroke="black" points="744.5,-249 744.5,-271 995.5,-271 995.5,-249 744.5,-249"/>
<image xlink:href="../../images/foreignKeys.png" width="11px" height="12px" preserveAspectRatio="xMinYMin meet" x="749.5" y="-266"/>
<text text-anchor="start" x="764.5" y="-257.2" font-family="Helvetica,sans-Serif" font-size="11.00">terrain_form</text>
<polygon fill="none" stroke="black" points="744.5,-227 744.5,-249 995.5,-249 995.5,-227 744.5,-227"/>
<image xlink:href="../../images/foreignKeys.png" width="11px" height="12px" preserveAspectRatio="xMinYMin meet" x="749.5" y="-244"/>
<text text-anchor="start" x="764.5" y="-235.2" font-family="Helvetica,sans-Serif" font-size="11.00">management_type</text>
<polygon fill="none" stroke="black" points="744.5,-205 744.5,-227 995.5,-227 995.5,-205 744.5,-205"/>
<image xlink:href="../../images/foreignKeys.png" width="11px" height="12px" preserveAspectRatio="xMinYMin meet" x="749.5" y="-222"/>
<text text-anchor="start" x="764.5" y="-213.2" font-family="Helvetica,sans-Serif" font-size="11.00">harvesting_method</text>
<polygon fill="none" stroke="black" points="744.5,-183 744.5,-205 995.5,-205 995.5,-183 744.5,-183"/>
<image xlink:href="../../images/foreignKeys.png" width="11px" height="12px" preserveAspectRatio="xMinYMin meet" x="749.5" y="-200"/>
<text text-anchor="start" x="764.5" y="-191.2" font-family="Helvetica,sans-Serif" font-size="11.00">layer_type</text>
<polygon fill="none" stroke="black" points="744.5,-161 744.5,-183 995.5,-183 995.5,-161 744.5,-161"/>
<image xlink:href="../../images/foreignKeys.png" width="11px" height="12px" preserveAspectRatio="xMinYMin meet" x="749.5" y="-178"/>
<text text-anchor="start" x="764.5" y="-169.2" font-family="Helvetica,sans-Serif" font-size="11.00">stand_phase</text>
<polygon fill="none" stroke="black" points="744.5,-139 744.5,-161 995.5,-161 995.5,-139 744.5,-139"/>
<image xlink:href="../../images/foreignKeys.png" width="11px" height="12px" preserveAspectRatio="xMinYMin meet" x="749.5" y="-156"/>
<text text-anchor="start" x="764.5" y="-147.2" font-family="Helvetica,sans-Serif" font-size="11.00">sablings_layer</text>
<polygon fill="none" stroke="black" points="744.5,-117 744.5,-139 995.5,-139 995.5,-117 744.5,-117"/>
<image xlink:href="../../images/foreignKeys.png" width="11px" height="12px" preserveAspectRatio="xMinYMin meet" x="749.5" y="-134"/>
<text text-anchor="start" x="764.5" y="-125.2" font-family="Helvetica,sans-Serif" font-size="11.00">trees_less_4meter_mirrored</text>
<polygon fill="none" stroke="black" points="744.5,-95 744.5,-117 995.5,-117 995.5,-95 744.5,-95"/>
<image xlink:href="../../images/foreignKeys.png" width="11px" height="12px" preserveAspectRatio="xMinYMin meet" x="749.5" y="-112"/>
<text text-anchor="start" x="764.5" y="-103.2" font-family="Helvetica,sans-Serif" font-size="11.00">trees_less_4meter_count_factor</text>
<polygon fill="none" stroke="black" points="744.5,-73 744.5,-95 995.5,-95 995.5,-73 744.5,-73"/>
<image xlink:href="../../images/foreignKeys.png" width="11px" height="12px" preserveAspectRatio="xMinYMin meet" x="749.5" y="-90"/>
<text text-anchor="start" x="764.5" y="-81.2" font-family="Helvetica,sans-Serif" font-size="11.00">trees_less_4meter_layer</text>
<polygon fill="none" stroke="black" points="744.5,-55 744.5,-73 995.5,-73 995.5,-55 744.5,-55"/>
<text text-anchor="start" x="747.5" y="-61.2" font-family="Helvetica,sans-Serif" font-size="11.00">...</text>
<polygon fill="#ffffff" stroke="transparent" points="744.5,-37 744.5,-55 995.5,-55 995.5,-37 744.5,-37"/>
<polygon fill="none" stroke="black" points="744.5,-37 744.5,-55 995.5,-55 995.5,-37 744.5,-37"/>
<polygon fill="#ffffff" stroke="transparent" points="745.5,-38 745.5,-54 827.5,-54 827.5,-38 745.5,-38"/>
<text text-anchor="start" x="747.5" y="-43.2" font-family="Helvetica,sans-Serif" font-size="11.00">&lt; 24</text>
<polygon fill="#ffffff" stroke="transparent" points="827.5,-38 827.5,-54 919.5,-54 919.5,-38 827.5,-38"/>
<text text-anchor="start" x="855" y="-43.2" font-family="Helvetica,sans-Serif" font-size="11.00">0 rows</text>
<polygon fill="#ffffff" stroke="transparent" points="919.5,-38 919.5,-54 994.5,-54 994.5,-38 919.5,-38"/>
<text text-anchor="start" x="972.5" y="-43.2" font-family="Helvetica,sans-Serif" font-size="11.00">7 &gt;</text>
<polygon fill="black" stroke="black" points="827.5,-38 827.5,-54 827.5,-54 827.5,-38 827.5,-38"/>
<polygon fill="black" stroke="black" points="919.5,-38 919.5,-54 919.5,-54 919.5,-38 919.5,-38"/>
</a>
</g>
</g>
<!-- lookup_trees_less_4meter_mirrored -->
<g id="node2" class="node">
<title>lookup_trees_less_4meter_mirrored</title>
<g id="a_node2"><a xlink:href="../../tables/lookup_trees_less_4meter_mirrored.html" xlink:title="lookup_trees_less_4meter_mirrored" target="_top">
<polygon fill="#ffffff" stroke="transparent" points="8,-97 8,-229 695,-229 695,-97 8,-97"/>
<polygon fill="#f5f5f5" stroke="transparent" points="10.5,-205 10.5,-227 693.5,-227 693.5,-205 10.5,-205"/>
<polygon fill="none" stroke="black" points="10.5,-205 10.5,-227 693.5,-227 693.5,-205 10.5,-205"/>
<text text-anchor="start" x="15.5" y="-214.2" font-family="Helvetica,sans-Serif" font-weight="bold" font-size="11.00">lookup_trees_less_4meter_mirrored</text>
<text text-anchor="start" x="651.5" y="-213.2" font-family="Helvetica,sans-Serif" font-size="11.00">[table]</text>
<polygon fill="none" stroke="black" points="10.5,-183 10.5,-205 290.5,-205 290.5,-183 10.5,-183"/>
<text text-anchor="start" x="30.5" y="-191.2" font-family="Helvetica,sans-Serif" font-size="11.00">name_de</text>
<polygon fill="none" stroke="black" points="290.5,-183 290.5,-205 693.5,-205 693.5,-183 290.5,-183"/>
<text text-anchor="start" x="293.5" y="-191.2" font-family="Helvetica,sans-Serif" font-size="11.00">varchar[150]</text>
<polygon fill="none" stroke="black" points="10.5,-161 10.5,-183 290.5,-183 290.5,-161 10.5,-161"/>
<text text-anchor="start" x="30.5" y="-169.2" font-family="Helvetica,sans-Serif" font-size="11.00">name_en</text>
<polygon fill="none" stroke="black" points="290.5,-161 290.5,-183 693.5,-183 693.5,-161 290.5,-161"/>
<text text-anchor="start" x="293.5" y="-169.2" font-family="Helvetica,sans-Serif" font-size="11.00">varchar[150]</text>
<polygon fill="none" stroke="black" points="10.5,-139 10.5,-161 290.5,-161 290.5,-139 10.5,-139"/>
<text text-anchor="start" x="30.5" y="-147.2" font-family="Helvetica,sans-Serif" font-size="11.00">sort</text>
<polygon fill="none" stroke="black" points="290.5,-139 290.5,-161 693.5,-161 693.5,-139 290.5,-139"/>
<text text-anchor="start" x="293.5" y="-147.2" font-family="Helvetica,sans-Serif" font-size="11.00">int4[10]</text>
<polygon fill="#ffffff" stroke="transparent" points="10.5,-117 10.5,-139 290.5,-139 290.5,-117 10.5,-117"/>
<polygon fill="none" stroke="black" points="10.5,-117 10.5,-139 290.5,-139 290.5,-117 10.5,-117"/>
<text text-anchor="start" x="30.5" y="-125.2" font-family="Helvetica,sans-Serif" font-size="11.00">abbreviation</text>
<polygon fill="none" stroke="black" points="290.5,-117 290.5,-139 693.5,-139 693.5,-117 290.5,-117"/>
<text text-anchor="start" x="293.5" y="-125.2" font-family="Helvetica,sans-Serif" font-size="11.00">&quot;private_ci2027_001&quot;.&quot;enum_trees_less_4meter_mirrored&quot;[2147483647]</text>
<polygon fill="#ffffff" stroke="transparent" points="10.5,-99 10.5,-117 693.5,-117 693.5,-99 10.5,-99"/>
<polygon fill="none" stroke="black" points="10.5,-99 10.5,-117 693.5,-117 693.5,-99 10.5,-99"/>
<polygon fill="#ffffff" stroke="transparent" points="11.5,-100 11.5,-116 233.5,-116 233.5,-100 11.5,-100"/>
<text text-anchor="start" x="13.5" y="-105.2" font-family="Helvetica,sans-Serif" font-size="11.00">&lt; 0</text>
<polygon fill="#ffffff" stroke="transparent" points="233.5,-100 233.5,-116 471.5,-116 471.5,-100 233.5,-100"/>
<text text-anchor="start" x="334" y="-105.2" font-family="Helvetica,sans-Serif" font-size="11.00">0 rows</text>
<polygon fill="#ffffff" stroke="transparent" points="471.5,-100 471.5,-116 692.5,-116 692.5,-100 471.5,-100"/>
<text text-anchor="start" x="670.5" y="-105.2" font-family="Helvetica,sans-Serif" font-size="11.00">1 &gt;</text>
<polygon fill="black" stroke="black" points="233.5,-100 233.5,-116 233.5,-116 233.5,-100 233.5,-100"/>
<polygon fill="black" stroke="black" points="471.5,-100 471.5,-116 471.5,-116 471.5,-100 471.5,-100"/>
<polygon fill="none" stroke="black" stroke-width="2" points="9,-98 9,-228 694,-228 694,-98 9,-98"/>
</a>
</g>
</g>
<!-- plot&#45;&gt;lookup_trees_less_4meter_mirrored -->
<g id="edge1" class="edge">
<title>plot:w&#45;&gt;lookup_trees_less_4meter_mirrored:e</title>
<path fill="none" stroke="black" d="M728.99,-128C717.68,-128 710.49,-128 694.5,-128"/>
<polygon fill="black" stroke="black" points="735.5,-128 743.5,-131.6 739.5,-128 743.5,-128 743.5,-128 743.5,-128 739.5,-128 743.5,-124.4 735.5,-128 735.5,-128"/>
<ellipse fill="none" stroke="black" cx="732.3" cy="-128" rx="3.2" ry="3.2"/>
</g>
</g>
</svg>
