<?xml version="1.0" encoding="UTF-8" standalone="no"?>
<!DOCTYPE svg PUBLIC "-//W3C//DTD SVG 1.1//EN"
 "http://www.w3.org/Graphics/SVG/1.1/DTD/svg11.dtd">
<!-- Generated by graphviz version 2.43.0 (0)
 -->
<!-- Title: twoDegreesRelationshipsDiagram Pages: 1 -->
<svg width="645pt" height="418pt"
 viewBox="0.00 0.00 645.00 418.00" xmlns="http://www.w3.org/2000/svg" xmlns:xlink="http://www.w3.org/1999/xlink">
<g id="graph0" class="graph" transform="scale(1 1) rotate(0) translate(4 414)">
<title>twoDegreesRelationshipsDiagram</title>
<polygon fill="#ffffff" stroke="transparent" points="-4,4 -4,-414 641,-414 641,4 -4,4"/>
<text text-anchor="middle" x="79.5" y="-7.2" font-family="Helvetica,sans-Serif" font-size="11.00">Generated by SchemaSpy</text>
<!-- edges -->
<g id="node1" class="node">
<title>edges</title>
<g id="a_node1"><a xlink:href="../../tables/edges.html" xlink:title="edges" target="_top">
<polygon fill="#ffffff" stroke="transparent" points="520,-141 520,-309 629,-309 629,-141 520,-141"/>
<polygon fill="#f5f5f5" stroke="transparent" points="520.5,-287 520.5,-309 629.5,-309 629.5,-287 520.5,-287"/>
<polygon fill="none" stroke="black" points="520.5,-287 520.5,-309 629.5,-309 629.5,-287 520.5,-287"/>
<text text-anchor="start" x="525.5" y="-296.2" font-family="Helvetica,sans-Serif" font-weight="bold" font-size="11.00">edges</text>
<text text-anchor="start" x="587.5" y="-295.2" font-family="Helvetica,sans-Serif" font-size="11.00">[table]</text>
<polygon fill="none" stroke="black" points="520.5,-265 520.5,-287 629.5,-287 629.5,-265 520.5,-265"/>
<image xlink:href="../../images/primaryKeys.png" width="11px" height="12px" preserveAspectRatio="xMinYMin meet" x="525.5" y="-282"/>
<text text-anchor="start" x="540.5" y="-273.2" font-family="Helvetica,sans-Serif" font-size="11.00">id</text>
<polygon fill="none" stroke="black" points="520.5,-243 520.5,-265 629.5,-265 629.5,-243 520.5,-243"/>
<image xlink:href="../../images/foreignKeys.png" width="11px" height="12px" preserveAspectRatio="xMinYMin meet" x="525.5" y="-260"/>
<text text-anchor="start" x="540.5" y="-251.2" font-family="Helvetica,sans-Serif" font-size="11.00">plot_id</text>
<polygon fill="none" stroke="black" points="520.5,-221 520.5,-243 629.5,-243 629.5,-221 520.5,-221"/>
<image xlink:href="../../images/foreignKeys.png" width="11px" height="12px" preserveAspectRatio="xMinYMin meet" x="525.5" y="-238"/>
<text text-anchor="start" x="540.5" y="-229.2" font-family="Helvetica,sans-Serif" font-size="11.00">edge_state</text>
<polygon fill="none" stroke="black" points="520.5,-199 520.5,-221 629.5,-221 629.5,-199 520.5,-199"/>
<image xlink:href="../../images/foreignKeys.png" width="11px" height="12px" preserveAspectRatio="xMinYMin meet" x="525.5" y="-216"/>
<text text-anchor="start" x="540.5" y="-207.2" font-family="Helvetica,sans-Serif" font-size="11.00">edge_type</text>
<polygon fill="none" stroke="black" points="520.5,-177 520.5,-199 629.5,-199 629.5,-177 520.5,-177"/>
<image xlink:href="../../images/foreignKeys.png" width="11px" height="12px" preserveAspectRatio="xMinYMin meet" x="525.5" y="-194"/>
<text text-anchor="start" x="540.5" y="-185.2" font-family="Helvetica,sans-Serif" font-size="11.00">terrain</text>
<polygon fill="none" stroke="black" points="520.5,-159 520.5,-177 629.5,-177 629.5,-159 520.5,-159"/>
<text text-anchor="start" x="523.5" y="-165.2" font-family="Helvetica,sans-Serif" font-size="11.00">...</text>
<polygon fill="#ffffff" stroke="transparent" points="520.5,-141 520.5,-159 629.5,-159 629.5,-141 520.5,-141"/>
<polygon fill="none" stroke="black" points="520.5,-141 520.5,-159 629.5,-159 629.5,-141 520.5,-141"/>
<polygon fill="#ffffff" stroke="transparent" points="521.5,-142 521.5,-158 553.5,-158 553.5,-142 521.5,-142"/>
<text text-anchor="start" x="523.5" y="-147.2" font-family="Helvetica,sans-Serif" font-size="11.00">&lt; 4</text>
<polygon fill="#ffffff" stroke="transparent" points="553.5,-142 553.5,-158 609.5,-158 609.5,-142 553.5,-142"/>
<text text-anchor="start" x="559.5" y="-147.2" font-family="Helvetica,sans-Serif" font-size="11.00">81 rows</text>
<polygon fill="#ffffff" stroke="transparent" points="609.5,-142 609.5,-158 628.5,-158 628.5,-142 609.5,-142"/>
<text text-anchor="start" x="618.5" y="-147.2" font-family="Helvetica,sans-Serif" font-size="11.00"> &#160;</text>
<polygon fill="black" stroke="black" points="553.5,-142 553.5,-158 553.5,-158 553.5,-142 553.5,-142"/>
<polygon fill="black" stroke="black" points="609.5,-142 609.5,-158 609.5,-158 609.5,-142 609.5,-142"/>
</a>
</g>
</g>
<!-- lookup_edge_state -->
<g id="node2" class="node">
<title>lookup_edge_state</title>
<g id="a_node2"><a xlink:href="../../tables/lookup_edge_state.html" xlink:title="lookup_edge_state" target="_top">
<polygon fill="#ffffff" stroke="transparent" points="148,-269 148,-327 331,-327 331,-269 148,-269"/>
<polygon fill="#f5f5f5" stroke="transparent" points="148.5,-305 148.5,-327 331.5,-327 331.5,-305 148.5,-305"/>
<polygon fill="none" stroke="black" points="148.5,-305 148.5,-327 331.5,-327 331.5,-305 148.5,-305"/>
<text text-anchor="start" x="153.5" y="-314.2" font-family="Helvetica,sans-Serif" font-weight="bold" font-size="11.00">lookup_edge_state</text>
<text text-anchor="start" x="289.5" y="-313.2" font-family="Helvetica,sans-Serif" font-size="11.00">[table]</text>
<polygon fill="none" stroke="black" points="148.5,-287 148.5,-305 331.5,-305 331.5,-287 148.5,-287"/>
<text text-anchor="start" x="151.5" y="-293.2" font-family="Helvetica,sans-Serif" font-size="11.00">...</text>
<polygon fill="#ffffff" stroke="transparent" points="148.5,-269 148.5,-287 331.5,-287 331.5,-269 148.5,-269"/>
<polygon fill="none" stroke="black" points="148.5,-269 148.5,-287 331.5,-287 331.5,-269 148.5,-269"/>
<polygon fill="#ffffff" stroke="transparent" points="149.5,-270 149.5,-286 196.5,-286 196.5,-270 149.5,-270"/>
<text text-anchor="start" x="151.5" y="-275.2" font-family="Helvetica,sans-Serif" font-size="11.00"> &#160;</text>
<polygon fill="#ffffff" stroke="transparent" points="196.5,-270 196.5,-286 272.5,-286 272.5,-270 196.5,-270"/>
<text text-anchor="start" x="216" y="-275.2" font-family="Helvetica,sans-Serif" font-size="11.00">0 rows</text>
<polygon fill="#ffffff" stroke="transparent" points="272.5,-270 272.5,-286 330.5,-286 330.5,-270 272.5,-270"/>
<text text-anchor="start" x="308.5" y="-275.2" font-family="Helvetica,sans-Serif" font-size="11.00">1 &gt;</text>
<polygon fill="black" stroke="black" points="196.5,-270 196.5,-286 196.5,-286 196.5,-270 196.5,-270"/>
<polygon fill="black" stroke="black" points="272.5,-270 272.5,-286 272.5,-286 272.5,-270 272.5,-270"/>
</a>
</g>
</g>
<!-- edges&#45;&gt;lookup_edge_state -->
<g id="edge1" class="edge">
<title>edges:w&#45;&gt;lookup_edge_state:e</title>
<path fill="none" stroke="black" d="M505.35,-235.9C496.66,-241.75 493.06,-252.76 479,-259 417.62,-286.24 399.66,-296 332.5,-296"/>
<polygon fill="black" stroke="black" points="511.79,-234.13 520.46,-235.47 515.64,-233.06 519.5,-232 519.5,-232 519.5,-232 515.64,-233.06 518.54,-228.53 511.79,-234.13 511.79,-234.13"/>
<ellipse fill="none" stroke="black" cx="508.7" cy="-234.98" rx="3.2" ry="3.2"/>
</g>
<!-- lookup_edge_type -->
<g id="node3" class="node">
<title>lookup_edge_type</title>
<g id="a_node3"><a xlink:href="../../tables/lookup_edge_type.html" xlink:title="lookup_edge_type" target="_top">
<polygon fill="#ffffff" stroke="transparent" points="8,-116 8,-248 471,-248 471,-116 8,-116"/>
<polygon fill="#f5f5f5" stroke="transparent" points="10.5,-224 10.5,-246 469.5,-246 469.5,-224 10.5,-224"/>
<polygon fill="none" stroke="black" points="10.5,-224 10.5,-246 469.5,-246 469.5,-224 10.5,-224"/>
<text text-anchor="start" x="15.5" y="-233.2" font-family="Helvetica,sans-Serif" font-weight="bold" font-size="11.00">lookup_edge_type</text>
<text text-anchor="start" x="427.5" y="-232.2" font-family="Helvetica,sans-Serif" font-size="11.00">[table]</text>
<polygon fill="none" stroke="black" points="10.5,-202 10.5,-224 162.5,-224 162.5,-202 10.5,-202"/>
<text text-anchor="start" x="30.5" y="-210.2" font-family="Helvetica,sans-Serif" font-size="11.00">name_de</text>
<polygon fill="none" stroke="black" points="162.5,-202 162.5,-224 469.5,-224 469.5,-202 162.5,-202"/>
<text text-anchor="start" x="165.5" y="-210.2" font-family="Helvetica,sans-Serif" font-size="11.00">varchar[150]</text>
<polygon fill="none" stroke="black" points="10.5,-180 10.5,-202 162.5,-202 162.5,-180 10.5,-180"/>
<text text-anchor="start" x="30.5" y="-188.2" font-family="Helvetica,sans-Serif" font-size="11.00">name_en</text>
<polygon fill="none" stroke="black" points="162.5,-180 162.5,-202 469.5,-202 469.5,-180 162.5,-180"/>
<text text-anchor="start" x="165.5" y="-188.2" font-family="Helvetica,sans-Serif" font-size="11.00">varchar[150]</text>
<polygon fill="none" stroke="black" points="10.5,-158 10.5,-180 162.5,-180 162.5,-158 10.5,-158"/>
<text text-anchor="start" x="30.5" y="-166.2" font-family="Helvetica,sans-Serif" font-size="11.00">sort</text>
<polygon fill="none" stroke="black" points="162.5,-158 162.5,-180 469.5,-180 469.5,-158 162.5,-158"/>
<text text-anchor="start" x="165.5" y="-166.2" font-family="Helvetica,sans-Serif" font-size="11.00">int4[10]</text>
<polygon fill="#ffffff" stroke="transparent" points="10.5,-136 10.5,-158 162.5,-158 162.5,-136 10.5,-136"/>
<polygon fill="none" stroke="black" points="10.5,-136 10.5,-158 162.5,-158 162.5,-136 10.5,-136"/>
<text text-anchor="start" x="30.5" y="-144.2" font-family="Helvetica,sans-Serif" font-size="11.00">abbreviation</text>
<polygon fill="none" stroke="black" points="162.5,-136 162.5,-158 469.5,-158 469.5,-136 162.5,-136"/>
<text text-anchor="start" x="165.5" y="-144.2" font-family="Helvetica,sans-Serif" font-size="11.00">&quot;private_ci2027_001&quot;.&quot;enum_edge_type&quot;[2147483647]</text>
<polygon fill="#ffffff" stroke="transparent" points="10.5,-118 10.5,-136 469.5,-136 469.5,-118 10.5,-118"/>
<polygon fill="none" stroke="black" points="10.5,-118 10.5,-136 469.5,-136 469.5,-118 10.5,-118"/>
<polygon fill="#ffffff" stroke="transparent" points="11.5,-119 11.5,-135 158.5,-135 158.5,-119 11.5,-119"/>
<text text-anchor="start" x="13.5" y="-124.2" font-family="Helvetica,sans-Serif" font-size="11.00">&lt; 0</text>
<polygon fill="#ffffff" stroke="transparent" points="158.5,-119 158.5,-135 322.5,-135 322.5,-119 158.5,-119"/>
<text text-anchor="start" x="222" y="-124.2" font-family="Helvetica,sans-Serif" font-size="11.00">0 rows</text>
<polygon fill="#ffffff" stroke="transparent" points="322.5,-119 322.5,-135 468.5,-135 468.5,-119 322.5,-119"/>
<text text-anchor="start" x="446.5" y="-124.2" font-family="Helvetica,sans-Serif" font-size="11.00">1 &gt;</text>
<polygon fill="black" stroke="black" points="158.5,-119 158.5,-135 158.5,-135 158.5,-119 158.5,-119"/>
<polygon fill="black" stroke="black" points="322.5,-119 322.5,-135 322.5,-135 322.5,-119 322.5,-119"/>
<polygon fill="none" stroke="black" stroke-width="2" points="9,-117 9,-247 470,-247 470,-117 9,-117"/>
</a>
</g>
</g>
<!-- edges&#45;&gt;lookup_edge_type -->
<g id="edge2" class="edge">
<title>edges:w&#45;&gt;lookup_edge_type:e</title>
<path fill="none" stroke="black" d="M505.72,-205.06C489.88,-190.2 499.88,-147 470.5,-147"/>
<polygon fill="black" stroke="black" points="511.97,-207.3 518.28,-213.39 515.73,-208.65 519.5,-210 519.5,-210 519.5,-210 515.73,-208.65 520.72,-206.61 511.97,-207.3 511.97,-207.3"/>
<ellipse fill="none" stroke="black" cx="508.96" cy="-206.22" rx="3.2" ry="3.2"/>
</g>
<!-- plot -->
<g id="node4" class="node">
<title>plot</title>
<g id="a_node4"><a xlink:href="../../tables/plot.html" xlink:title="plot" target="_top">
<polygon fill="#ffffff" stroke="transparent" points="187,-348 187,-406 292,-406 292,-348 187,-348"/>
<polygon fill="#f5f5f5" stroke="transparent" points="187.5,-384 187.5,-406 292.5,-406 292.5,-384 187.5,-384"/>
<polygon fill="none" stroke="black" points="187.5,-384 187.5,-406 292.5,-406 292.5,-384 187.5,-384"/>
<text text-anchor="start" x="192" y="-393.2" font-family="Helvetica,sans-Serif" font-weight="bold" font-size="11.00">plot</text>
<text text-anchor="start" x="250.5" y="-392.2" font-family="Helvetica,sans-Serif" font-size="11.00">[table]</text>
<polygon fill="none" stroke="black" points="187.5,-366 187.5,-384 292.5,-384 292.5,-366 187.5,-366"/>
<text text-anchor="start" x="190.5" y="-372.2" font-family="Helvetica,sans-Serif" font-size="11.00">...</text>
<polygon fill="#ffffff" stroke="transparent" points="187.5,-348 187.5,-366 292.5,-366 292.5,-348 187.5,-348"/>
<polygon fill="none" stroke="black" points="187.5,-348 187.5,-366 292.5,-366 292.5,-348 187.5,-348"/>
<polygon fill="#ffffff" stroke="transparent" points="188.5,-349 188.5,-365 219.5,-365 219.5,-349 188.5,-349"/>
<text text-anchor="start" x="190.5" y="-354.2" font-family="Helvetica,sans-Serif" font-size="11.00">&lt; 24</text>
<polygon fill="#ffffff" stroke="transparent" points="219.5,-349 219.5,-365 267.5,-365 267.5,-349 219.5,-349"/>
<text text-anchor="start" x="221.5" y="-354.2" font-family="Helvetica,sans-Serif" font-size="11.00">82 rows</text>
<polygon fill="#ffffff" stroke="transparent" points="267.5,-349 267.5,-365 291.5,-365 291.5,-349 267.5,-349"/>
<text text-anchor="start" x="269.5" y="-354.2" font-family="Helvetica,sans-Serif" font-size="11.00">7 &gt;</text>
<polygon fill="black" stroke="black" points="219.5,-349 219.5,-365 219.5,-365 219.5,-349 219.5,-349"/>
<polygon fill="black" stroke="black" points="267.5,-349 267.5,-365 267.5,-365 267.5,-349 267.5,-349"/>
</a>
</g>
</g>
<!-- edges&#45;&gt;plot -->
<g id="edge3" class="edge">
<title>edges:w&#45;&gt;plot:e</title>
<path fill="none" stroke="black" d="M505.55,-257.57C486.6,-270.67 506.9,-316.38 479,-338 412.55,-389.49 377.57,-375 293.5,-375"/>
<polygon fill="black" stroke="black" points="511.75,-255.99 520.39,-257.49 515.63,-254.99 519.5,-254 519.5,-254 519.5,-254 515.63,-254.99 518.61,-250.51 511.75,-255.99 511.75,-255.99"/>
<ellipse fill="none" stroke="black" cx="508.65" cy="-256.78" rx="3.2" ry="3.2"/>
</g>
<!-- lookup_terrain -->
<g id="node5" class="node">
<title>lookup_terrain</title>
<g id="a_node5"><a xlink:href="../../tables/lookup_terrain.html" xlink:title="lookup_terrain" target="_top">
<polygon fill="#ffffff" stroke="transparent" points="163,-37 163,-95 316,-95 316,-37 163,-37"/>
<polygon fill="#f5f5f5" stroke="transparent" points="163.5,-73 163.5,-95 316.5,-95 316.5,-73 163.5,-73"/>
<polygon fill="none" stroke="black" points="163.5,-73 163.5,-95 316.5,-95 316.5,-73 163.5,-73"/>
<text text-anchor="start" x="168.5" y="-82.2" font-family="Helvetica,sans-Serif" font-weight="bold" font-size="11.00">lookup_terrain</text>
<text text-anchor="start" x="274.5" y="-81.2" font-family="Helvetica,sans-Serif" font-size="11.00">[table]</text>
<polygon fill="none" stroke="black" points="163.5,-55 163.5,-73 316.5,-73 316.5,-55 163.5,-55"/>
<text text-anchor="start" x="166.5" y="-61.2" font-family="Helvetica,sans-Serif" font-size="11.00">...</text>
<polygon fill="#ffffff" stroke="transparent" points="163.5,-37 163.5,-55 316.5,-55 316.5,-37 163.5,-37"/>
<polygon fill="none" stroke="black" points="163.5,-37 163.5,-55 316.5,-55 316.5,-37 163.5,-37"/>
<polygon fill="#ffffff" stroke="transparent" points="164.5,-38 164.5,-54 201.5,-54 201.5,-38 164.5,-38"/>
<text text-anchor="start" x="166.5" y="-43.2" font-family="Helvetica,sans-Serif" font-size="11.00"> &#160;</text>
<polygon fill="#ffffff" stroke="transparent" points="201.5,-38 201.5,-54 267.5,-54 267.5,-38 201.5,-38"/>
<text text-anchor="start" x="216" y="-43.2" font-family="Helvetica,sans-Serif" font-size="11.00">0 rows</text>
<polygon fill="#ffffff" stroke="transparent" points="267.5,-38 267.5,-54 315.5,-54 315.5,-38 267.5,-38"/>
<text text-anchor="start" x="293.5" y="-43.2" font-family="Helvetica,sans-Serif" font-size="11.00">1 &gt;</text>
<polygon fill="black" stroke="black" points="201.5,-38 201.5,-54 201.5,-54 201.5,-38 201.5,-38"/>
<polygon fill="black" stroke="black" points="267.5,-38 267.5,-54 267.5,-54 267.5,-38 267.5,-38"/>
</a>
</g>
</g>
<!-- edges&#45;&gt;lookup_terrain -->
<g id="edge4" class="edge">
<title>edges:w&#45;&gt;lookup_terrain:e</title>
<path fill="none" stroke="black" d="M505.48,-184.38C487.04,-171.55 505.72,-127.75 479,-106 421.48,-59.18 391.67,-64 317.5,-64"/>
<polygon fill="black" stroke="black" points="511.75,-186 518.6,-191.49 515.63,-187 519.5,-188 519.5,-188 519.5,-188 515.63,-187 520.4,-184.51 511.75,-186 511.75,-186"/>
<ellipse fill="none" stroke="black" cx="508.65" cy="-185.2" rx="3.2" ry="3.2"/>
</g>
</g>
</svg>
