<?xml version="1.0" encoding="UTF-8" standalone="no"?>
<!DOCTYPE svg PUBLIC "-//W3C//DTD SVG 1.1//EN"
 "http://www.w3.org/Graphics/SVG/1.1/DTD/svg11.dtd">
<!-- Generated by graphviz version 2.43.0 (0)
 -->
<!-- Title: oneDegreeRelationshipsDiagram Pages: 1 -->
<svg width="729pt" height="241pt"
 viewBox="0.00 0.00 729.00 241.00" xmlns="http://www.w3.org/2000/svg" xmlns:xlink="http://www.w3.org/1999/xlink">
<g id="graph0" class="graph" transform="scale(1 1) rotate(0) translate(4 237)">
<title>oneDegreeRelationshipsDiagram</title>
<polygon fill="#ffffff" stroke="transparent" points="-4,4 -4,-237 725,-237 725,4 -4,4"/>
<text text-anchor="middle" x="79.5" y="-7.2" font-family="Helvetica,sans-Serif" font-size="11.00">Generated by SchemaSpy</text>
<!-- regeneration -->
<g id="node1" class="node">
<title>regeneration</title>
<g id="a_node1"><a xlink:href="../../tables/regeneration.html" xlink:title="regeneration" target="_top">
<polygon fill="#ffffff" stroke="transparent" points="538,-37 538,-227 713,-227 713,-37 538,-37"/>
<polygon fill="#f5f5f5" stroke="transparent" points="538.5,-205 538.5,-227 713.5,-227 713.5,-205 538.5,-205"/>
<polygon fill="none" stroke="black" points="538.5,-205 538.5,-227 713.5,-227 713.5,-205 538.5,-205"/>
<text text-anchor="start" x="543.5" y="-214.2" font-family="Helvetica,sans-Serif" font-weight="bold" font-size="11.00">regeneration</text>
<text text-anchor="start" x="671.5" y="-213.2" font-family="Helvetica,sans-Serif" font-size="11.00">[table]</text>
<polygon fill="none" stroke="black" points="538.5,-183 538.5,-205 713.5,-205 713.5,-183 538.5,-183"/>
<image xlink:href="../../images/primaryKeys.png" width="11px" height="12px" preserveAspectRatio="xMinYMin meet" x="543.5" y="-200"/>
<text text-anchor="start" x="558.5" y="-191.2" font-family="Helvetica,sans-Serif" font-size="11.00">id</text>
<polygon fill="none" stroke="black" points="538.5,-161 538.5,-183 713.5,-183 713.5,-161 538.5,-161"/>
<image xlink:href="../../images/foreignKeys.png" width="11px" height="12px" preserveAspectRatio="xMinYMin meet" x="543.5" y="-178"/>
<text text-anchor="start" x="558.5" y="-169.2" font-family="Helvetica,sans-Serif" font-size="11.00">plot_id</text>
<polygon fill="none" stroke="black" points="538.5,-139 538.5,-161 713.5,-161 713.5,-139 538.5,-139"/>
<image xlink:href="../../images/foreignKeys.png" width="11px" height="12px" preserveAspectRatio="xMinYMin meet" x="543.5" y="-156"/>
<text text-anchor="start" x="558.5" y="-147.2" font-family="Helvetica,sans-Serif" font-size="11.00">plot_location_id</text>
<polygon fill="none" stroke="black" points="538.5,-117 538.5,-139 713.5,-139 713.5,-117 538.5,-117"/>
<image xlink:href="../../images/foreignKeys.png" width="11px" height="12px" preserveAspectRatio="xMinYMin meet" x="543.5" y="-134"/>
<text text-anchor="start" x="558.5" y="-125.2" font-family="Helvetica,sans-Serif" font-size="11.00">tree_species</text>
<polygon fill="none" stroke="black" points="538.5,-95 538.5,-117 713.5,-117 713.5,-95 538.5,-95"/>
<image xlink:href="../../images/foreignKeys.png" width="11px" height="12px" preserveAspectRatio="xMinYMin meet" x="543.5" y="-112"/>
<text text-anchor="start" x="558.5" y="-103.2" font-family="Helvetica,sans-Serif" font-size="11.00">browsing</text>
<polygon fill="none" stroke="black" points="538.5,-73 538.5,-95 713.5,-95 713.5,-73 538.5,-73"/>
<image xlink:href="../../images/foreignKeys.png" width="11px" height="12px" preserveAspectRatio="xMinYMin meet" x="543.5" y="-90"/>
<text text-anchor="start" x="558.5" y="-81.2" font-family="Helvetica,sans-Serif" font-size="11.00">tree_size_class</text>
<polygon fill="none" stroke="black" points="538.5,-55 538.5,-73 713.5,-73 713.5,-55 538.5,-55"/>
<text text-anchor="start" x="541.5" y="-61.2" font-family="Helvetica,sans-Serif" font-size="11.00">...</text>
<polygon fill="#ffffff" stroke="transparent" points="538.5,-37 538.5,-55 713.5,-55 713.5,-37 538.5,-37"/>
<polygon fill="none" stroke="black" points="538.5,-37 538.5,-55 713.5,-55 713.5,-37 538.5,-37"/>
<polygon fill="#ffffff" stroke="transparent" points="539.5,-38 539.5,-54 595.5,-54 595.5,-38 539.5,-38"/>
<text text-anchor="start" x="541.5" y="-43.2" font-family="Helvetica,sans-Serif" font-size="11.00">&lt; 5</text>
<polygon fill="#ffffff" stroke="transparent" points="595.5,-38 595.5,-54 668.5,-54 668.5,-38 595.5,-38"/>
<text text-anchor="start" x="613.5" y="-43.2" font-family="Helvetica,sans-Serif" font-size="11.00">0 rows</text>
<polygon fill="#ffffff" stroke="transparent" points="668.5,-38 668.5,-54 712.5,-54 712.5,-38 668.5,-38"/>
<text text-anchor="start" x="702.5" y="-43.2" font-family="Helvetica,sans-Serif" font-size="11.00"> &#160;</text>
<polygon fill="black" stroke="black" points="595.5,-38 595.5,-54 595.5,-54 595.5,-38 595.5,-38"/>
<polygon fill="black" stroke="black" points="668.5,-38 668.5,-54 668.5,-54 668.5,-38 668.5,-38"/>
</a>
</g>
</g>
<!-- lookup_browsing -->
<g id="node2" class="node">
<title>lookup_browsing</title>
<g id="a_node2"><a xlink:href="../../tables/lookup_browsing.html" xlink:title="lookup_browsing" target="_top">
<polygon fill="#ffffff" stroke="transparent" points="8,-75 8,-229 489,-229 489,-75 8,-75"/>
<polygon fill="#f5f5f5" stroke="transparent" points="10.5,-205 10.5,-227 487.5,-227 487.5,-205 10.5,-205"/>
<polygon fill="none" stroke="black" points="10.5,-205 10.5,-227 487.5,-227 487.5,-205 10.5,-205"/>
<text text-anchor="start" x="15.5" y="-214.2" font-family="Helvetica,sans-Serif" font-weight="bold" font-size="11.00">lookup_browsing</text>
<text text-anchor="start" x="445.5" y="-213.2" font-family="Helvetica,sans-Serif" font-size="11.00">[table]</text>
<polygon fill="none" stroke="black" points="10.5,-183 10.5,-205 154.5,-205 154.5,-183 10.5,-183"/>
<text text-anchor="start" x="30.5" y="-191.2" font-family="Helvetica,sans-Serif" font-size="11.00">name_de</text>
<polygon fill="none" stroke="black" points="154.5,-183 154.5,-205 487.5,-205 487.5,-183 154.5,-183"/>
<text text-anchor="start" x="157.5" y="-191.2" font-family="Helvetica,sans-Serif" font-size="11.00">varchar[150]</text>
<polygon fill="none" stroke="black" points="10.5,-161 10.5,-183 154.5,-183 154.5,-161 10.5,-161"/>
<text text-anchor="start" x="30.5" y="-169.2" font-family="Helvetica,sans-Serif" font-size="11.00">name_en</text>
<polygon fill="none" stroke="black" points="154.5,-161 154.5,-183 487.5,-183 487.5,-161 154.5,-161"/>
<text text-anchor="start" x="157.5" y="-169.2" font-family="Helvetica,sans-Serif" font-size="11.00">varchar[150]</text>
<polygon fill="none" stroke="black" points="10.5,-139 10.5,-161 154.5,-161 154.5,-139 10.5,-139"/>
<text text-anchor="start" x="30.5" y="-147.2" font-family="Helvetica,sans-Serif" font-size="11.00">interval</text>
<polygon fill="none" stroke="black" points="154.5,-139 154.5,-161 487.5,-161 487.5,-139 154.5,-139"/>
<text text-anchor="start" x="157.5" y="-147.2" font-family="Helvetica,sans-Serif" font-size="11.00">&quot;private_ci2027_001&quot;.&quot;_enum_interval_name&quot;[2147483647]</text>
<polygon fill="none" stroke="black" points="10.5,-117 10.5,-139 154.5,-139 154.5,-117 10.5,-117"/>
<text text-anchor="start" x="30.5" y="-125.2" font-family="Helvetica,sans-Serif" font-size="11.00">sort</text>
<polygon fill="none" stroke="black" points="154.5,-117 154.5,-139 487.5,-139 487.5,-117 154.5,-117"/>
<text text-anchor="start" x="157.5" y="-125.2" font-family="Helvetica,sans-Serif" font-size="11.00">int4[10]</text>
<polygon fill="#ffffff" stroke="transparent" points="10.5,-95 10.5,-117 154.5,-117 154.5,-95 10.5,-95"/>
<polygon fill="none" stroke="black" points="10.5,-95 10.5,-117 154.5,-117 154.5,-95 10.5,-95"/>
<text text-anchor="start" x="30.5" y="-103.2" font-family="Helvetica,sans-Serif" font-size="11.00">abbreviation</text>
<polygon fill="none" stroke="black" points="154.5,-95 154.5,-117 487.5,-117 487.5,-95 154.5,-95"/>
<text text-anchor="start" x="157.5" y="-103.2" font-family="Helvetica,sans-Serif" font-size="11.00">&quot;private_ci2027_001&quot;.&quot;enum_browsing&quot;[2147483647]</text>
<polygon fill="#ffffff" stroke="transparent" points="10.5,-77 10.5,-95 487.5,-95 487.5,-77 10.5,-77"/>
<polygon fill="none" stroke="black" points="10.5,-77 10.5,-95 487.5,-95 487.5,-77 10.5,-77"/>
<polygon fill="#ffffff" stroke="transparent" points="11.5,-78 11.5,-94 164.5,-94 164.5,-78 11.5,-78"/>
<text text-anchor="start" x="13.5" y="-83.2" font-family="Helvetica,sans-Serif" font-size="11.00">&lt; 0</text>
<polygon fill="#ffffff" stroke="transparent" points="164.5,-78 164.5,-94 334.5,-94 334.5,-78 164.5,-78"/>
<text text-anchor="start" x="231" y="-83.2" font-family="Helvetica,sans-Serif" font-size="11.00">0 rows</text>
<polygon fill="#ffffff" stroke="transparent" points="334.5,-78 334.5,-94 486.5,-94 486.5,-78 334.5,-78"/>
<text text-anchor="start" x="464.5" y="-83.2" font-family="Helvetica,sans-Serif" font-size="11.00">1 &gt;</text>
<polygon fill="black" stroke="black" points="164.5,-78 164.5,-94 164.5,-94 164.5,-78 164.5,-78"/>
<polygon fill="black" stroke="black" points="334.5,-78 334.5,-94 334.5,-94 334.5,-78 334.5,-78"/>
<polygon fill="none" stroke="black" stroke-width="2" points="9,-76 9,-228 488,-228 488,-76 9,-76"/>
</a>
</g>
</g>
<!-- regeneration&#45;&gt;lookup_browsing -->
<g id="edge1" class="edge">
<title>regeneration:w&#45;&gt;lookup_browsing:e</title>
<path fill="none" stroke="black" d="M522.99,-106C511.68,-106 504.49,-106 488.5,-106"/>
<polygon fill="black" stroke="black" points="529.5,-106 537.5,-109.6 533.5,-106 537.5,-106 537.5,-106 537.5,-106 533.5,-106 537.5,-102.4 529.5,-106 529.5,-106"/>
<ellipse fill="none" stroke="black" cx="526.3" cy="-106" rx="3.2" ry="3.2"/>
</g>
</g>
</svg>
