<?xml version="1.0" encoding="UTF-8" standalone="no"?>
<!DOCTYPE svg PUBLIC "-//W3C//DTD SVG 1.1//EN"
 "http://www.w3.org/Graphics/SVG/1.1/DTD/svg11.dtd">
<!-- Generated by graphviz version 2.43.0 (0)
 -->
<!-- Title: oneDegreeRelationshipsDiagram Pages: 1 -->
<svg width="675pt" height="230pt"
 viewBox="0.00 0.00 675.00 230.00" xmlns="http://www.w3.org/2000/svg" xmlns:xlink="http://www.w3.org/1999/xlink">
<g id="graph0" class="graph" transform="scale(1 1) rotate(0) translate(4 226)">
<title>oneDegreeRelationshipsDiagram</title>
<polygon fill="#ffffff" stroke="transparent" points="-4,4 -4,-226 671,-226 671,4 -4,4"/>
<text text-anchor="middle" x="79.5" y="-7.2" font-family="Helvetica,sans-Serif" font-size="11.00">Generated by SchemaSpy</text>
<!-- cluster -->
<g id="node1" class="node">
<title>cluster</title>
<g id="a_node1"><a xlink:href="../../tables/cluster.html" xlink:title="cluster" target="_top">
<polygon fill="#ffffff" stroke="transparent" points="508,-37 508,-183 659,-183 659,-37 508,-37"/>
<polygon fill="#f5f5f5" stroke="transparent" points="508.5,-161 508.5,-183 659.5,-183 659.5,-161 508.5,-161"/>
<polygon fill="none" stroke="black" points="508.5,-161 508.5,-183 659.5,-183 659.5,-161 508.5,-161"/>
<text text-anchor="start" x="513.5" y="-170.2" font-family="Helvetica,sans-Serif" font-weight="bold" font-size="11.00">cluster</text>
<text text-anchor="start" x="617.5" y="-169.2" font-family="Helvetica,sans-Serif" font-size="11.00">[table]</text>
<polygon fill="none" stroke="black" points="508.5,-139 508.5,-161 659.5,-161 659.5,-139 508.5,-139"/>
<image xlink:href="../../images/primaryKeys.png" width="11px" height="12px" preserveAspectRatio="xMinYMin meet" x="513.5" y="-156"/>
<text text-anchor="start" x="528.5" y="-147.2" font-family="Helvetica,sans-Serif" font-size="11.00">id</text>
<polygon fill="none" stroke="black" points="508.5,-117 508.5,-139 659.5,-139 659.5,-117 508.5,-117"/>
<image xlink:href="../../images/foreignKeys.png" width="11px" height="12px" preserveAspectRatio="xMinYMin meet" x="513.5" y="-134"/>
<text text-anchor="start" x="528.5" y="-125.2" font-family="Helvetica,sans-Serif" font-size="11.00">supervisor_id</text>
<polygon fill="none" stroke="black" points="508.5,-95 508.5,-117 659.5,-117 659.5,-95 508.5,-95"/>
<image xlink:href="../../images/foreignKeys.png" width="11px" height="12px" preserveAspectRatio="xMinYMin meet" x="513.5" y="-112"/>
<text text-anchor="start" x="528.5" y="-103.2" font-family="Helvetica,sans-Serif" font-size="11.00">state_responsible</text>
<polygon fill="none" stroke="black" points="508.5,-73 508.5,-95 659.5,-95 659.5,-73 508.5,-73"/>
<image xlink:href="../../images/foreignKeys.png" width="11px" height="12px" preserveAspectRatio="xMinYMin meet" x="513.5" y="-90"/>
<text text-anchor="start" x="528.5" y="-81.2" font-family="Helvetica,sans-Serif" font-size="11.00">state</text>
<polygon fill="none" stroke="black" points="508.5,-55 508.5,-73 659.5,-73 659.5,-55 508.5,-55"/>
<text text-anchor="start" x="511.5" y="-61.2" font-family="Helvetica,sans-Serif" font-size="11.00">...</text>
<polygon fill="#ffffff" stroke="transparent" points="508.5,-37 508.5,-55 659.5,-55 659.5,-37 508.5,-37"/>
<polygon fill="none" stroke="black" points="508.5,-37 508.5,-55 659.5,-55 659.5,-37 508.5,-37"/>
<polygon fill="#ffffff" stroke="transparent" points="509.5,-38 509.5,-54 553.5,-54 553.5,-38 509.5,-38"/>
<text text-anchor="start" x="511.5" y="-43.2" font-family="Helvetica,sans-Serif" font-size="11.00">&lt; 3</text>
<polygon fill="#ffffff" stroke="transparent" points="553.5,-38 553.5,-54 614.5,-54 614.5,-38 553.5,-38"/>
<text text-anchor="start" x="565.5" y="-43.2" font-family="Helvetica,sans-Serif" font-size="11.00">0 rows</text>
<polygon fill="#ffffff" stroke="transparent" points="614.5,-38 614.5,-54 658.5,-54 658.5,-38 614.5,-38"/>
<text text-anchor="start" x="636.5" y="-43.2" font-family="Helvetica,sans-Serif" font-size="11.00">1 &gt;</text>
<polygon fill="black" stroke="black" points="553.5,-38 553.5,-54 553.5,-54 553.5,-38 553.5,-38"/>
<polygon fill="black" stroke="black" points="614.5,-38 614.5,-54 614.5,-54 614.5,-38 614.5,-38"/>
</a>
</g>
</g>
<!-- lookup_state -->
<g id="node2" class="node">
<title>lookup_state</title>
<g id="a_node2"><a xlink:href="../../tables/lookup_state.html" xlink:title="lookup_state" target="_top">
<polygon fill="#ffffff" stroke="transparent" points="8,-64 8,-218 459,-218 459,-64 8,-64"/>
<polygon fill="#f5f5f5" stroke="transparent" points="10.5,-194 10.5,-216 457.5,-216 457.5,-194 10.5,-194"/>
<polygon fill="none" stroke="black" points="10.5,-194 10.5,-216 457.5,-216 457.5,-194 10.5,-194"/>
<text text-anchor="start" x="15.5" y="-203.2" font-family="Helvetica,sans-Serif" font-weight="bold" font-size="11.00">lookup_state</text>
<text text-anchor="start" x="415.5" y="-202.2" font-family="Helvetica,sans-Serif" font-size="11.00">[table]</text>
<polygon fill="none" stroke="black" points="10.5,-172 10.5,-194 124.5,-194 124.5,-172 10.5,-172"/>
<text text-anchor="start" x="30.5" y="-180.2" font-family="Helvetica,sans-Serif" font-size="11.00">name_de</text>
<polygon fill="none" stroke="black" points="124.5,-172 124.5,-194 457.5,-194 457.5,-172 124.5,-172"/>
<text text-anchor="start" x="127.5" y="-180.2" font-family="Helvetica,sans-Serif" font-size="11.00">varchar[150]</text>
<polygon fill="none" stroke="black" points="10.5,-150 10.5,-172 124.5,-172 124.5,-150 10.5,-150"/>
<text text-anchor="start" x="30.5" y="-158.2" font-family="Helvetica,sans-Serif" font-size="11.00">name_en</text>
<polygon fill="none" stroke="black" points="124.5,-150 124.5,-172 457.5,-172 457.5,-150 124.5,-150"/>
<text text-anchor="start" x="127.5" y="-158.2" font-family="Helvetica,sans-Serif" font-size="11.00">varchar[150]</text>
<polygon fill="none" stroke="black" points="10.5,-128 10.5,-150 124.5,-150 124.5,-128 10.5,-128"/>
<text text-anchor="start" x="30.5" y="-136.2" font-family="Helvetica,sans-Serif" font-size="11.00">interval</text>
<polygon fill="none" stroke="black" points="124.5,-128 124.5,-150 457.5,-150 457.5,-128 124.5,-128"/>
<text text-anchor="start" x="127.5" y="-136.2" font-family="Helvetica,sans-Serif" font-size="11.00">&quot;private_ci2027_001&quot;.&quot;_enum_interval_name&quot;[2147483647]</text>
<polygon fill="none" stroke="black" points="10.5,-106 10.5,-128 124.5,-128 124.5,-106 10.5,-106"/>
<text text-anchor="start" x="30.5" y="-114.2" font-family="Helvetica,sans-Serif" font-size="11.00">sort</text>
<polygon fill="none" stroke="black" points="124.5,-106 124.5,-128 457.5,-128 457.5,-106 124.5,-106"/>
<text text-anchor="start" x="127.5" y="-114.2" font-family="Helvetica,sans-Serif" font-size="11.00">int4[10]</text>
<polygon fill="#ffffff" stroke="transparent" points="10.5,-84 10.5,-106 124.5,-106 124.5,-84 10.5,-84"/>
<polygon fill="none" stroke="black" points="10.5,-84 10.5,-106 124.5,-106 124.5,-84 10.5,-84"/>
<text text-anchor="start" x="30.5" y="-92.2" font-family="Helvetica,sans-Serif" font-size="11.00">abbreviation</text>
<polygon fill="none" stroke="black" points="124.5,-84 124.5,-106 457.5,-106 457.5,-84 124.5,-84"/>
<text text-anchor="start" x="127.5" y="-92.2" font-family="Helvetica,sans-Serif" font-size="11.00">&quot;private_ci2027_001&quot;.&quot;enum_state&quot;[2147483647]</text>
<polygon fill="#ffffff" stroke="transparent" points="10.5,-66 10.5,-84 457.5,-84 457.5,-66 10.5,-66"/>
<polygon fill="none" stroke="black" points="10.5,-66 10.5,-84 457.5,-84 457.5,-66 10.5,-66"/>
<polygon fill="#ffffff" stroke="transparent" points="11.5,-67 11.5,-83 154.5,-83 154.5,-67 11.5,-67"/>
<text text-anchor="start" x="13.5" y="-72.2" font-family="Helvetica,sans-Serif" font-size="11.00">&lt; 0</text>
<polygon fill="#ffffff" stroke="transparent" points="154.5,-67 154.5,-83 314.5,-83 314.5,-67 154.5,-67"/>
<text text-anchor="start" x="216" y="-72.2" font-family="Helvetica,sans-Serif" font-size="11.00">0 rows</text>
<polygon fill="#ffffff" stroke="transparent" points="314.5,-67 314.5,-83 456.5,-83 456.5,-67 314.5,-67"/>
<text text-anchor="start" x="434.5" y="-72.2" font-family="Helvetica,sans-Serif" font-size="11.00">2 &gt;</text>
<polygon fill="black" stroke="black" points="154.5,-67 154.5,-83 154.5,-83 154.5,-67 154.5,-67"/>
<polygon fill="black" stroke="black" points="314.5,-67 314.5,-83 314.5,-83 314.5,-67 314.5,-67"/>
<polygon fill="none" stroke="black" stroke-width="2" points="9,-65 9,-217 458,-217 458,-65 9,-65"/>
</a>
</g>
</g>
<!-- cluster&#45;&gt;lookup_state -->
<g id="edge1" class="edge">
<title>cluster:w&#45;&gt;lookup_state:e</title>
<path fill="none" stroke="black" d="M493.2,-85.82C481.74,-88.94 475.07,-95 458.5,-95"/>
<polygon fill="black" stroke="black" points="499.56,-85.01 507.95,-87.57 503.53,-84.5 507.5,-84 507.5,-84 507.5,-84 503.53,-84.5 507.05,-80.43 499.56,-85.01 499.56,-85.01"/>
<ellipse fill="none" stroke="black" cx="496.39" cy="-85.41" rx="3.2" ry="3.2"/>
</g>
<!-- cluster&#45;&gt;lookup_state -->
<g id="edge2" class="edge">
<title>cluster:w&#45;&gt;lookup_state:e</title>
<path fill="none" stroke="black" d="M493.2,-104.18C481.74,-101.06 475.07,-95 458.5,-95"/>
<polygon fill="black" stroke="black" points="499.56,-104.99 507.05,-109.57 503.53,-105.5 507.5,-106 507.5,-106 507.5,-106 503.53,-105.5 507.95,-102.43 499.56,-104.99 499.56,-104.99"/>
<ellipse fill="none" stroke="black" cx="496.39" cy="-104.59" rx="3.2" ry="3.2"/>
</g>
</g>
</svg>
