<?xml version="1.0" encoding="UTF-8" standalone="no"?>
<!DOCTYPE svg PUBLIC "-//W3C//DTD SVG 1.1//EN"
 "http://www.w3.org/Graphics/SVG/1.1/DTD/svg11.dtd">
<!-- Generated by graphviz version 2.43.0 (0)
 -->
<!-- Title: oneDegreeRelationshipsDiagram Pages: 1 -->
<svg width="1042pt" height="679pt"
 viewBox="0.00 0.00 1042.00 679.00" xmlns="http://www.w3.org/2000/svg" xmlns:xlink="http://www.w3.org/1999/xlink">
<g id="graph0" class="graph" transform="scale(1 1) rotate(0) translate(4 675)">
<title>oneDegreeRelationshipsDiagram</title>
<polygon fill="#ffffff" stroke="transparent" points="-4,4 -4,-675 1038,-675 1038,4 -4,4"/>
<text text-anchor="middle" x="79.5" y="-7.2" font-family="Helvetica,sans-Serif" font-size="11.00">Generated by SchemaSpy</text>
<!-- lookup_growth_district -->
<g id="node1" class="node">
<title>lookup_growth_district</title>
<g id="a_node1"><a xlink:href="../../tables/lookup_growth_district.html" xlink:title="lookup_growth_district" target="_top">
<polygon fill="#ffffff" stroke="transparent" points="251,-471 251,-647 726,-647 726,-471 251,-471"/>
<polygon fill="#f5f5f5" stroke="transparent" points="253.5,-623 253.5,-645 724.5,-645 724.5,-623 253.5,-623"/>
<polygon fill="none" stroke="black" points="253.5,-623 253.5,-645 724.5,-645 724.5,-623 253.5,-623"/>
<text text-anchor="start" x="258.5" y="-632.2" font-family="Helvetica,sans-Serif" font-weight="bold" font-size="11.00">lookup_growth_district</text>
<text text-anchor="start" x="682.5" y="-631.2" font-family="Helvetica,sans-Serif" font-size="11.00">[table]</text>
<polygon fill="none" stroke="black" points="253.5,-601 253.5,-623 441.5,-623 441.5,-601 253.5,-601"/>
<text text-anchor="start" x="273.5" y="-609.2" font-family="Helvetica,sans-Serif" font-size="11.00">name_de</text>
<polygon fill="none" stroke="black" points="441.5,-601 441.5,-623 724.5,-623 724.5,-601 441.5,-601"/>
<text text-anchor="start" x="444.5" y="-609.2" font-family="Helvetica,sans-Serif" font-size="11.00">varchar[150]</text>
<polygon fill="none" stroke="black" points="253.5,-579 253.5,-601 441.5,-601 441.5,-579 253.5,-579"/>
<text text-anchor="start" x="273.5" y="-587.2" font-family="Helvetica,sans-Serif" font-size="11.00">name_en</text>
<polygon fill="none" stroke="black" points="441.5,-579 441.5,-601 724.5,-601 724.5,-579 441.5,-579"/>
<text text-anchor="start" x="444.5" y="-587.2" font-family="Helvetica,sans-Serif" font-size="11.00">varchar[150]</text>
<polygon fill="none" stroke="black" points="253.5,-557 253.5,-579 441.5,-579 441.5,-557 253.5,-557"/>
<text text-anchor="start" x="273.5" y="-565.2" font-family="Helvetica,sans-Serif" font-size="11.00">sort</text>
<polygon fill="none" stroke="black" points="441.5,-557 441.5,-579 724.5,-579 724.5,-557 441.5,-557"/>
<text text-anchor="start" x="444.5" y="-565.2" font-family="Helvetica,sans-Serif" font-size="11.00">int4[10]</text>
<polygon fill="#ffffff" stroke="transparent" points="253.5,-535 253.5,-557 441.5,-557 441.5,-535 253.5,-535"/>
<polygon fill="none" stroke="black" points="253.5,-535 253.5,-557 441.5,-557 441.5,-535 253.5,-535"/>
<text text-anchor="start" x="273.5" y="-543.2" font-family="Helvetica,sans-Serif" font-size="11.00">abbreviation</text>
<polygon fill="none" stroke="black" points="441.5,-535 441.5,-557 724.5,-557 724.5,-535 441.5,-535"/>
<text text-anchor="start" x="444.5" y="-543.2" font-family="Helvetica,sans-Serif" font-size="11.00">int4[10]</text>
<polygon fill="none" stroke="black" points="253.5,-513 253.5,-535 441.5,-535 441.5,-513 253.5,-513"/>
<text text-anchor="start" x="273.5" y="-521.2" font-family="Helvetica,sans-Serif" font-size="11.00">states</text>
<polygon fill="none" stroke="black" points="441.5,-513 441.5,-535 724.5,-535 724.5,-513 441.5,-513"/>
<text text-anchor="start" x="444.5" y="-521.2" font-family="Helvetica,sans-Serif" font-size="11.00">&quot;private_ci2027_001&quot;.&quot;_enum_state&quot;[2147483647]</text>
<polygon fill="none" stroke="black" points="253.5,-491 253.5,-513 441.5,-513 441.5,-491 253.5,-491"/>
<image xlink:href="../../images/foreignKeys.png" width="11px" height="12px" preserveAspectRatio="xMinYMin meet" x="258.5" y="-508"/>
<text text-anchor="start" x="273.5" y="-499.2" font-family="Helvetica,sans-Serif" font-size="11.00">district_area</text>
<polygon fill="none" stroke="black" points="441.5,-491 441.5,-513 724.5,-513 724.5,-491 441.5,-491"/>
<text text-anchor="start" x="444.5" y="-499.2" font-family="Helvetica,sans-Serif" font-size="11.00">int4[10]</text>
<polygon fill="#ffffff" stroke="transparent" points="253.5,-473 253.5,-491 724.5,-491 724.5,-473 253.5,-473"/>
<polygon fill="none" stroke="black" points="253.5,-473 253.5,-491 724.5,-491 724.5,-473 253.5,-473"/>
<polygon fill="#ffffff" stroke="transparent" points="254.5,-474 254.5,-490 400.5,-490 400.5,-474 254.5,-474"/>
<text text-anchor="start" x="256.5" y="-479.2" font-family="Helvetica,sans-Serif" font-size="11.00">&lt; 1</text>
<polygon fill="#ffffff" stroke="transparent" points="400.5,-474 400.5,-490 577.5,-490 577.5,-474 400.5,-474"/>
<text text-anchor="start" x="463.5" y="-479.2" font-family="Helvetica,sans-Serif" font-size="11.00">696 rows</text>
<polygon fill="#ffffff" stroke="transparent" points="577.5,-474 577.5,-490 723.5,-490 723.5,-474 577.5,-474"/>
<text text-anchor="start" x="701.5" y="-479.2" font-family="Helvetica,sans-Serif" font-size="11.00">1 &gt;</text>
<polygon fill="black" stroke="black" points="400.5,-474 400.5,-490 400.5,-490 400.5,-474 400.5,-474"/>
<polygon fill="black" stroke="black" points="577.5,-474 577.5,-490 577.5,-490 577.5,-474 577.5,-474"/>
<polygon fill="none" stroke="black" stroke-width="2" points="252,-472 252,-646 725,-646 725,-472 252,-472"/>
</a>
</g>
</g>
<!-- lookup_growth_area -->
<g id="node2" class="node">
<title>lookup_growth_area</title>
<g id="a_node2"><a xlink:href="../../tables/lookup_growth_area.html" xlink:title="lookup_growth_area" target="_top">
<polygon fill="#ffffff" stroke="transparent" points="8,-455 8,-535 202,-535 202,-455 8,-455"/>
<polygon fill="#f5f5f5" stroke="transparent" points="8,-513 8,-535 202,-535 202,-513 8,-513"/>
<polygon fill="none" stroke="black" points="8,-513 8,-535 202,-535 202,-513 8,-513"/>
<text text-anchor="start" x="13" y="-522.2" font-family="Helvetica,sans-Serif" font-weight="bold" font-size="11.00">lookup_growth_area</text>
<text text-anchor="start" x="160" y="-521.2" font-family="Helvetica,sans-Serif" font-size="11.00">[table]</text>
<polygon fill="#ffffff" stroke="transparent" points="8,-491 8,-513 202,-513 202,-491 8,-491"/>
<polygon fill="none" stroke="black" points="8,-491 8,-513 202,-513 202,-491 8,-491"/>
<text text-anchor="start" x="41" y="-499.2" font-family="Helvetica,sans-Serif" font-size="11.00">abbreviation</text>
<polygon fill="none" stroke="black" points="8,-473 8,-491 202,-491 202,-473 8,-473"/>
<text text-anchor="start" x="11" y="-479.2" font-family="Helvetica,sans-Serif" font-size="11.00">...</text>
<polygon fill="#ffffff" stroke="transparent" points="8,-455 8,-473 202,-473 202,-455 8,-455"/>
<polygon fill="none" stroke="black" points="8,-455 8,-473 202,-473 202,-455 8,-455"/>
<polygon fill="#ffffff" stroke="transparent" points="9,-456 9,-472 57,-472 57,-456 9,-456"/>
<text text-anchor="start" x="11" y="-461.2" font-family="Helvetica,sans-Serif" font-size="11.00"> &#160;</text>
<polygon fill="#ffffff" stroke="transparent" points="57,-456 57,-472 141,-472 141,-456 57,-456"/>
<text text-anchor="start" x="77" y="-461.2" font-family="Helvetica,sans-Serif" font-size="11.00">83 rows</text>
<polygon fill="#ffffff" stroke="transparent" points="141,-456 141,-472 201,-472 201,-456 141,-456"/>
<text text-anchor="start" x="179" y="-461.2" font-family="Helvetica,sans-Serif" font-size="11.00">1 &gt;</text>
<polygon fill="black" stroke="black" points="57,-456 57,-472 57,-472 57,-456 57,-456"/>
<polygon fill="black" stroke="black" points="141,-456 141,-472 141,-472 141,-456 141,-456"/>
</a>
</g>
</g>
<!-- lookup_growth_district&#45;&gt;lookup_growth_area -->
<g id="edge1" class="edge">
<title>lookup_growth_district:w&#45;&gt;lookup_growth_area:e</title>
<path fill="none" stroke="black" d="M237.84,-502C226.41,-502 219.16,-502 203,-502"/>
<polygon fill="black" stroke="black" points="244.5,-502 252.5,-505.6 248.5,-502 252.5,-502 252.5,-502 252.5,-502 248.5,-502 252.5,-498.4 244.5,-502 244.5,-502"/>
<ellipse fill="none" stroke="black" cx="241.3" cy="-502" rx="3.2" ry="3.2"/>
</g>
<!-- plot -->
<g id="node3" class="node">
<title>plot</title>
<g id="a_node3"><a xlink:href="../../tables/plot.html" xlink:title="plot" target="_top">
<polygon fill="#ffffff" stroke="transparent" points="775,-37 775,-667 1026,-667 1026,-37 775,-37"/>
<polygon fill="#f5f5f5" stroke="transparent" points="775.5,-645 775.5,-667 1026.5,-667 1026.5,-645 775.5,-645"/>
<polygon fill="none" stroke="black" points="775.5,-645 775.5,-667 1026.5,-667 1026.5,-645 775.5,-645"/>
<text text-anchor="start" x="780" y="-654.2" font-family="Helvetica,sans-Serif" font-weight="bold" font-size="11.00">plot</text>
<text text-anchor="start" x="984.5" y="-653.2" font-family="Helvetica,sans-Serif" font-size="11.00">[table]</text>
<polygon fill="none" stroke="black" points="775.5,-623 775.5,-645 1026.5,-645 1026.5,-623 775.5,-623"/>
<image xlink:href="../../images/primaryKeys.png" width="11px" height="12px" preserveAspectRatio="xMinYMin meet" x="780.5" y="-640"/>
<text text-anchor="start" x="795.5" y="-631.2" font-family="Helvetica,sans-Serif" font-size="11.00">id</text>
<polygon fill="#ffffff" stroke="transparent" points="775.5,-601 775.5,-623 1026.5,-623 1026.5,-601 775.5,-601"/>
<polygon fill="none" stroke="black" points="775.5,-601 775.5,-623 1026.5,-623 1026.5,-601 775.5,-601"/>
<image xlink:href="../../images/foreignKeys.png" width="11px" height="12px" preserveAspectRatio="xMinYMin meet" x="780.5" y="-618"/>
<text text-anchor="start" x="795.5" y="-609.2" font-family="Helvetica,sans-Serif" font-size="11.00">cluster_id</text>
<polygon fill="#ffffff" stroke="transparent" points="775.5,-579 775.5,-601 1026.5,-601 1026.5,-579 775.5,-579"/>
<polygon fill="none" stroke="black" points="775.5,-579 775.5,-601 1026.5,-601 1026.5,-579 775.5,-579"/>
<text text-anchor="start" x="795.5" y="-587.2" font-family="Helvetica,sans-Serif" font-size="11.00">plot_name</text>
<polygon fill="none" stroke="black" points="775.5,-557 775.5,-579 1026.5,-579 1026.5,-557 775.5,-557"/>
<image xlink:href="../../images/foreignKeys.png" width="11px" height="12px" preserveAspectRatio="xMinYMin meet" x="780.5" y="-574"/>
<text text-anchor="start" x="795.5" y="-565.2" font-family="Helvetica,sans-Serif" font-size="11.00">sampling_strata</text>
<polygon fill="none" stroke="black" points="775.5,-535 775.5,-557 1026.5,-557 1026.5,-535 775.5,-535"/>
<image xlink:href="../../images/foreignKeys.png" width="11px" height="12px" preserveAspectRatio="xMinYMin meet" x="780.5" y="-552"/>
<text text-anchor="start" x="795.5" y="-543.2" font-family="Helvetica,sans-Serif" font-size="11.00">growth_district</text>
<polygon fill="none" stroke="black" points="775.5,-513 775.5,-535 1026.5,-535 1026.5,-513 775.5,-513"/>
<image xlink:href="../../images/foreignKeys.png" width="11px" height="12px" preserveAspectRatio="xMinYMin meet" x="780.5" y="-530"/>
<text text-anchor="start" x="795.5" y="-521.2" font-family="Helvetica,sans-Serif" font-size="11.00">forest_decision</text>
<polygon fill="none" stroke="black" points="775.5,-491 775.5,-513 1026.5,-513 1026.5,-491 775.5,-491"/>
<image xlink:href="../../images/foreignKeys.png" width="11px" height="12px" preserveAspectRatio="xMinYMin meet" x="780.5" y="-508"/>
<text text-anchor="start" x="795.5" y="-499.2" font-family="Helvetica,sans-Serif" font-size="11.00">forestry_department</text>
<polygon fill="none" stroke="black" points="775.5,-469 775.5,-491 1026.5,-491 1026.5,-469 775.5,-469"/>
<image xlink:href="../../images/foreignKeys.png" width="11px" height="12px" preserveAspectRatio="xMinYMin meet" x="780.5" y="-486"/>
<text text-anchor="start" x="795.5" y="-477.2" font-family="Helvetica,sans-Serif" font-size="11.00">height_layer_class</text>
<polygon fill="none" stroke="black" points="775.5,-447 775.5,-469 1026.5,-469 1026.5,-447 775.5,-447"/>
<image xlink:href="../../images/foreignKeys.png" width="11px" height="12px" preserveAspectRatio="xMinYMin meet" x="780.5" y="-464"/>
<text text-anchor="start" x="795.5" y="-455.2" font-family="Helvetica,sans-Serif" font-size="11.00">property_type</text>
<polygon fill="none" stroke="black" points="775.5,-425 775.5,-447 1026.5,-447 1026.5,-425 775.5,-425"/>
<image xlink:href="../../images/foreignKeys.png" width="11px" height="12px" preserveAspectRatio="xMinYMin meet" x="780.5" y="-442"/>
<text text-anchor="start" x="795.5" y="-433.2" font-family="Helvetica,sans-Serif" font-size="11.00">property_size_class</text>
<polygon fill="none" stroke="black" points="775.5,-403 775.5,-425 1026.5,-425 1026.5,-403 775.5,-403"/>
<image xlink:href="../../images/foreignKeys.png" width="11px" height="12px" preserveAspectRatio="xMinYMin meet" x="780.5" y="-420"/>
<text text-anchor="start" x="795.5" y="-411.2" font-family="Helvetica,sans-Serif" font-size="11.00">forest_type</text>
<polygon fill="none" stroke="black" points="775.5,-381 775.5,-403 1026.5,-403 1026.5,-381 775.5,-381"/>
<image xlink:href="../../images/foreignKeys.png" width="11px" height="12px" preserveAspectRatio="xMinYMin meet" x="780.5" y="-398"/>
<text text-anchor="start" x="795.5" y="-389.2" font-family="Helvetica,sans-Serif" font-size="11.00">habitat_type</text>
<polygon fill="none" stroke="black" points="775.5,-359 775.5,-381 1026.5,-381 1026.5,-359 775.5,-359"/>
<image xlink:href="../../images/foreignKeys.png" width="11px" height="12px" preserveAspectRatio="xMinYMin meet" x="780.5" y="-376"/>
<text text-anchor="start" x="795.5" y="-367.2" font-family="Helvetica,sans-Serif" font-size="11.00">habitat_type_source</text>
<polygon fill="none" stroke="black" points="775.5,-337 775.5,-359 1026.5,-359 1026.5,-337 775.5,-337"/>
<image xlink:href="../../images/foreignKeys.png" width="11px" height="12px" preserveAspectRatio="xMinYMin meet" x="780.5" y="-354"/>
<text text-anchor="start" x="795.5" y="-345.2" font-family="Helvetica,sans-Serif" font-size="11.00">use_restriction</text>
<polygon fill="none" stroke="black" points="775.5,-315 775.5,-337 1026.5,-337 1026.5,-315 775.5,-315"/>
<image xlink:href="../../images/foreignKeys.png" width="11px" height="12px" preserveAspectRatio="xMinYMin meet" x="780.5" y="-332"/>
<text text-anchor="start" x="795.5" y="-323.2" font-family="Helvetica,sans-Serif" font-size="11.00">land_use</text>
<polygon fill="none" stroke="black" points="775.5,-293 775.5,-315 1026.5,-315 1026.5,-293 775.5,-293"/>
<image xlink:href="../../images/foreignKeys.png" width="11px" height="12px" preserveAspectRatio="xMinYMin meet" x="780.5" y="-310"/>
<text text-anchor="start" x="795.5" y="-301.2" font-family="Helvetica,sans-Serif" font-size="11.00">marking_state</text>
<polygon fill="none" stroke="black" points="775.5,-271 775.5,-293 1026.5,-293 1026.5,-271 775.5,-271"/>
<image xlink:href="../../images/foreignKeys.png" width="11px" height="12px" preserveAspectRatio="xMinYMin meet" x="780.5" y="-288"/>
<text text-anchor="start" x="795.5" y="-279.2" font-family="Helvetica,sans-Serif" font-size="11.00">marking_profile</text>
<polygon fill="none" stroke="black" points="775.5,-249 775.5,-271 1026.5,-271 1026.5,-249 775.5,-249"/>
<image xlink:href="../../images/foreignKeys.png" width="11px" height="12px" preserveAspectRatio="xMinYMin meet" x="780.5" y="-266"/>
<text text-anchor="start" x="795.5" y="-257.2" font-family="Helvetica,sans-Serif" font-size="11.00">terrain_form</text>
<polygon fill="none" stroke="black" points="775.5,-227 775.5,-249 1026.5,-249 1026.5,-227 775.5,-227"/>
<image xlink:href="../../images/foreignKeys.png" width="11px" height="12px" preserveAspectRatio="xMinYMin meet" x="780.5" y="-244"/>
<text text-anchor="start" x="795.5" y="-235.2" font-family="Helvetica,sans-Serif" font-size="11.00">management_type</text>
<polygon fill="none" stroke="black" points="775.5,-205 775.5,-227 1026.5,-227 1026.5,-205 775.5,-205"/>
<image xlink:href="../../images/foreignKeys.png" width="11px" height="12px" preserveAspectRatio="xMinYMin meet" x="780.5" y="-222"/>
<text text-anchor="start" x="795.5" y="-213.2" font-family="Helvetica,sans-Serif" font-size="11.00">harvesting_method</text>
<polygon fill="none" stroke="black" points="775.5,-183 775.5,-205 1026.5,-205 1026.5,-183 775.5,-183"/>
<image xlink:href="../../images/foreignKeys.png" width="11px" height="12px" preserveAspectRatio="xMinYMin meet" x="780.5" y="-200"/>
<text text-anchor="start" x="795.5" y="-191.2" font-family="Helvetica,sans-Serif" font-size="11.00">layer_type</text>
<polygon fill="none" stroke="black" points="775.5,-161 775.5,-183 1026.5,-183 1026.5,-161 775.5,-161"/>
<image xlink:href="../../images/foreignKeys.png" width="11px" height="12px" preserveAspectRatio="xMinYMin meet" x="780.5" y="-178"/>
<text text-anchor="start" x="795.5" y="-169.2" font-family="Helvetica,sans-Serif" font-size="11.00">stand_phase</text>
<polygon fill="none" stroke="black" points="775.5,-139 775.5,-161 1026.5,-161 1026.5,-139 775.5,-139"/>
<image xlink:href="../../images/foreignKeys.png" width="11px" height="12px" preserveAspectRatio="xMinYMin meet" x="780.5" y="-156"/>
<text text-anchor="start" x="795.5" y="-147.2" font-family="Helvetica,sans-Serif" font-size="11.00">sablings_layer</text>
<polygon fill="none" stroke="black" points="775.5,-117 775.5,-139 1026.5,-139 1026.5,-117 775.5,-117"/>
<image xlink:href="../../images/foreignKeys.png" width="11px" height="12px" preserveAspectRatio="xMinYMin meet" x="780.5" y="-134"/>
<text text-anchor="start" x="795.5" y="-125.2" font-family="Helvetica,sans-Serif" font-size="11.00">trees_less_4meter_mirrored</text>
<polygon fill="none" stroke="black" points="775.5,-95 775.5,-117 1026.5,-117 1026.5,-95 775.5,-95"/>
<image xlink:href="../../images/foreignKeys.png" width="11px" height="12px" preserveAspectRatio="xMinYMin meet" x="780.5" y="-112"/>
<text text-anchor="start" x="795.5" y="-103.2" font-family="Helvetica,sans-Serif" font-size="11.00">trees_less_4meter_count_factor</text>
<polygon fill="none" stroke="black" points="775.5,-73 775.5,-95 1026.5,-95 1026.5,-73 775.5,-73"/>
<image xlink:href="../../images/foreignKeys.png" width="11px" height="12px" preserveAspectRatio="xMinYMin meet" x="780.5" y="-90"/>
<text text-anchor="start" x="795.5" y="-81.2" font-family="Helvetica,sans-Serif" font-size="11.00">trees_less_4meter_layer</text>
<polygon fill="none" stroke="black" points="775.5,-55 775.5,-73 1026.5,-73 1026.5,-55 775.5,-55"/>
<text text-anchor="start" x="778.5" y="-61.2" font-family="Helvetica,sans-Serif" font-size="11.00">...</text>
<polygon fill="#ffffff" stroke="transparent" points="775.5,-37 775.5,-55 1026.5,-55 1026.5,-37 775.5,-37"/>
<polygon fill="none" stroke="black" points="775.5,-37 775.5,-55 1026.5,-55 1026.5,-37 775.5,-37"/>
<polygon fill="#ffffff" stroke="transparent" points="776.5,-38 776.5,-54 856.5,-54 856.5,-38 776.5,-38"/>
<text text-anchor="start" x="778.5" y="-43.2" font-family="Helvetica,sans-Serif" font-size="11.00">&lt; 24</text>
<polygon fill="#ffffff" stroke="transparent" points="856.5,-38 856.5,-54 953.5,-54 953.5,-38 856.5,-38"/>
<text text-anchor="start" x="883" y="-43.2" font-family="Helvetica,sans-Serif" font-size="11.00">82 rows</text>
<polygon fill="#ffffff" stroke="transparent" points="953.5,-38 953.5,-54 1025.5,-54 1025.5,-38 953.5,-38"/>
<text text-anchor="start" x="1003.5" y="-43.2" font-family="Helvetica,sans-Serif" font-size="11.00">7 &gt;</text>
<polygon fill="black" stroke="black" points="856.5,-38 856.5,-54 856.5,-54 856.5,-38 856.5,-38"/>
<polygon fill="black" stroke="black" points="953.5,-38 953.5,-54 953.5,-54 953.5,-38 953.5,-38"/>
</a>
</g>
</g>
<!-- plot&#45;&gt;lookup_growth_district -->
<g id="edge2" class="edge">
<title>plot:w&#45;&gt;lookup_growth_district:e</title>
<path fill="none" stroke="black" d="M759.99,-546C748.68,-546 741.49,-546 725.5,-546"/>
<polygon fill="black" stroke="black" points="766.5,-546 774.5,-549.6 770.5,-546 774.5,-546 774.5,-546 774.5,-546 770.5,-546 774.5,-542.4 766.5,-546 766.5,-546"/>
<ellipse fill="none" stroke="black" cx="763.3" cy="-546" rx="3.2" ry="3.2"/>
</g>
</g>
</svg>
