<?xml version="1.0" encoding="UTF-8" standalone="no"?>
<!DOCTYPE svg PUBLIC "-//W3C//DTD SVG 1.1//EN"
 "http://www.w3.org/Graphics/SVG/1.1/DTD/svg11.dtd">
<!-- Generated by graphviz version 2.43.0 (0)
 -->
<!-- Title: twoDegreesRelationshipsDiagram Pages: 1 -->
<svg width="893pt" height="306pt"
 viewBox="0.00 0.00 893.00 306.00" xmlns="http://www.w3.org/2000/svg" xmlns:xlink="http://www.w3.org/1999/xlink">
<g id="graph0" class="graph" transform="scale(1 1) rotate(0) translate(4 302)">
<title>twoDegreesRelationshipsDiagram</title>
<polygon fill="#ffffff" stroke="transparent" points="-4,4 -4,-302 889,-302 889,4 -4,4"/>
<text text-anchor="middle" x="79.5" y="-7.2" font-family="Helvetica,sans-Serif" font-size="11.00">Generated by SchemaSpy</text>
<!-- plot_location -->
<g id="node1" class="node">
<title>plot_location</title>
<g id="a_node1"><a xlink:href="../../tables/plot_location.html" xlink:title="plot_location" target="_top">
<polygon fill="#ffffff" stroke="transparent" points="329.5,-190 329.5,-248 470.5,-248 470.5,-190 329.5,-190"/>
<polygon fill="#f5f5f5" stroke="transparent" points="330,-226 330,-248 471,-248 471,-226 330,-226"/>
<polygon fill="none" stroke="black" points="330,-226 330,-248 471,-248 471,-226 330,-226"/>
<text text-anchor="start" x="335" y="-235.2" font-family="Helvetica,sans-Serif" font-weight="bold" font-size="11.00">plot_location</text>
<text text-anchor="start" x="429" y="-234.2" font-family="Helvetica,sans-Serif" font-size="11.00">[table]</text>
<polygon fill="none" stroke="black" points="330,-208 330,-226 471,-226 471,-208 330,-208"/>
<text text-anchor="start" x="333" y="-214.2" font-family="Helvetica,sans-Serif" font-size="11.00">...</text>
<polygon fill="#ffffff" stroke="transparent" points="330,-190 330,-208 471,-208 471,-190 330,-190"/>
<polygon fill="none" stroke="black" points="330,-190 330,-208 471,-208 471,-190 330,-190"/>
<polygon fill="#ffffff" stroke="transparent" points="331,-191 331,-207 372,-207 372,-191 331,-191"/>
<text text-anchor="start" x="333" y="-196.2" font-family="Helvetica,sans-Serif" font-size="11.00">&lt; 1</text>
<polygon fill="#ffffff" stroke="transparent" points="372,-191 372,-207 430,-207 430,-191 372,-191"/>
<text text-anchor="start" x="382.5" y="-196.2" font-family="Helvetica,sans-Serif" font-size="11.00">0 rows</text>
<polygon fill="#ffffff" stroke="transparent" points="430,-191 430,-207 470,-207 470,-191 430,-191"/>
<text text-anchor="start" x="448" y="-196.2" font-family="Helvetica,sans-Serif" font-size="11.00">3 &gt;</text>
<polygon fill="black" stroke="black" points="372,-191 372,-207 372,-207 372,-191 372,-191"/>
<polygon fill="black" stroke="black" points="430,-191 430,-207 430,-207 430,-191 430,-191"/>
</a>
</g>
</g>
<!-- plot -->
<g id="node2" class="node">
<title>plot</title>
<g id="a_node2"><a xlink:href="../../tables/plot.html" xlink:title="plot" target="_top">
<polygon fill="#ffffff" stroke="transparent" points="8,-217 8,-275 106,-275 106,-217 8,-217"/>
<polygon fill="#f5f5f5" stroke="transparent" points="8,-253 8,-275 106,-275 106,-253 8,-253"/>
<polygon fill="none" stroke="black" points="8,-253 8,-275 106,-275 106,-253 8,-253"/>
<text text-anchor="start" x="12.5" y="-262.2" font-family="Helvetica,sans-Serif" font-weight="bold" font-size="11.00">plot</text>
<text text-anchor="start" x="64" y="-261.2" font-family="Helvetica,sans-Serif" font-size="11.00">[table]</text>
<polygon fill="none" stroke="black" points="8,-235 8,-253 106,-253 106,-235 8,-235"/>
<text text-anchor="start" x="11" y="-241.2" font-family="Helvetica,sans-Serif" font-size="11.00">...</text>
<polygon fill="#ffffff" stroke="transparent" points="8,-217 8,-235 106,-235 106,-217 8,-217"/>
<polygon fill="none" stroke="black" points="8,-217 8,-235 106,-235 106,-217 8,-217"/>
<polygon fill="#ffffff" stroke="transparent" points="9,-218 9,-234 40,-234 40,-218 9,-218"/>
<text text-anchor="start" x="11" y="-223.2" font-family="Helvetica,sans-Serif" font-size="11.00">&lt; 24</text>
<polygon fill="#ffffff" stroke="transparent" points="40,-218 40,-234 81,-234 81,-218 40,-218"/>
<text text-anchor="start" x="42" y="-223.2" font-family="Helvetica,sans-Serif" font-size="11.00">0 rows</text>
<polygon fill="#ffffff" stroke="transparent" points="81,-218 81,-234 105,-234 105,-218 81,-218"/>
<text text-anchor="start" x="83" y="-223.2" font-family="Helvetica,sans-Serif" font-size="11.00">7 &gt;</text>
<polygon fill="black" stroke="black" points="40,-218 40,-234 40,-234 40,-218 40,-218"/>
<polygon fill="black" stroke="black" points="81,-218 81,-234 81,-234 81,-218 81,-218"/>
</a>
</g>
</g>
<!-- plot_location&#45;&gt;plot -->
<g id="edge1" class="edge">
<title>plot_location:w&#45;&gt;plot:e</title>
<path fill="none" stroke="black" d="M314.43,-217.2C227.05,-219.67 201.35,-244 107,-244"/>
<polygon fill="black" stroke="black" points="321,-217.11 329.05,-220.6 325,-217.06 329,-217 329,-217 329,-217 325,-217.06 328.95,-213.4 321,-217.11 321,-217.11"/>
<ellipse fill="none" stroke="black" cx="317.8" cy="-217.16" rx="3.2" ry="3.2"/>
</g>
<!-- position -->
<g id="node3" class="node">
<title>position</title>
<g id="a_node3"><a xlink:href="../../tables/position.html" xlink:title="position" target="_top">
<polygon fill="#ffffff" stroke="transparent" points="694,-148 694,-294 877,-294 877,-148 694,-148"/>
<polygon fill="#f5f5f5" stroke="transparent" points="694.5,-272 694.5,-294 877.5,-294 877.5,-272 694.5,-272"/>
<polygon fill="none" stroke="black" points="694.5,-272 694.5,-294 877.5,-294 877.5,-272 694.5,-272"/>
<text text-anchor="start" x="699.5" y="-281.2" font-family="Helvetica,sans-Serif" font-weight="bold" font-size="11.00">position</text>
<text text-anchor="start" x="835.5" y="-280.2" font-family="Helvetica,sans-Serif" font-size="11.00">[table]</text>
<polygon fill="none" stroke="black" points="694.5,-250 694.5,-272 877.5,-272 877.5,-250 694.5,-250"/>
<image xlink:href="../../images/primaryKeys.png" width="11px" height="12px" preserveAspectRatio="xMinYMin meet" x="699.5" y="-267"/>
<text text-anchor="start" x="714.5" y="-258.2" font-family="Helvetica,sans-Serif" font-size="11.00">id</text>
<polygon fill="none" stroke="black" points="694.5,-228 694.5,-250 877.5,-250 877.5,-228 694.5,-228"/>
<image xlink:href="../../images/foreignKeys.png" width="11px" height="12px" preserveAspectRatio="xMinYMin meet" x="699.5" y="-245"/>
<text text-anchor="start" x="714.5" y="-236.2" font-family="Helvetica,sans-Serif" font-size="11.00">plot_id</text>
<polygon fill="none" stroke="black" points="694.5,-206 694.5,-228 877.5,-228 877.5,-206 694.5,-206"/>
<image xlink:href="../../images/foreignKeys.png" width="11px" height="12px" preserveAspectRatio="xMinYMin meet" x="699.5" y="-223"/>
<text text-anchor="start" x="714.5" y="-214.2" font-family="Helvetica,sans-Serif" font-size="11.00">plot_location_id</text>
<polygon fill="none" stroke="black" points="694.5,-184 694.5,-206 877.5,-206 877.5,-184 694.5,-184"/>
<image xlink:href="../../images/foreignKeys.png" width="11px" height="12px" preserveAspectRatio="xMinYMin meet" x="699.5" y="-201"/>
<text text-anchor="start" x="714.5" y="-192.2" font-family="Helvetica,sans-Serif" font-size="11.00">quality</text>
<polygon fill="none" stroke="black" points="694.5,-166 694.5,-184 877.5,-184 877.5,-166 694.5,-166"/>
<text text-anchor="start" x="697.5" y="-172.2" font-family="Helvetica,sans-Serif" font-size="11.00">...</text>
<polygon fill="#ffffff" stroke="transparent" points="694.5,-148 694.5,-166 877.5,-166 877.5,-148 694.5,-148"/>
<polygon fill="none" stroke="black" points="694.5,-148 694.5,-166 877.5,-166 877.5,-148 694.5,-148"/>
<polygon fill="#ffffff" stroke="transparent" points="695.5,-149 695.5,-165 754.5,-165 754.5,-149 695.5,-149"/>
<text text-anchor="start" x="697.5" y="-154.2" font-family="Helvetica,sans-Serif" font-size="11.00">&lt; 3</text>
<polygon fill="#ffffff" stroke="transparent" points="754.5,-149 754.5,-165 830.5,-165 830.5,-149 754.5,-149"/>
<text text-anchor="start" x="774" y="-154.2" font-family="Helvetica,sans-Serif" font-size="11.00">0 rows</text>
<polygon fill="#ffffff" stroke="transparent" points="830.5,-149 830.5,-165 876.5,-165 876.5,-149 830.5,-149"/>
<text text-anchor="start" x="866.5" y="-154.2" font-family="Helvetica,sans-Serif" font-size="11.00"> &#160;</text>
<polygon fill="black" stroke="black" points="754.5,-149 754.5,-165 754.5,-165 754.5,-149 754.5,-149"/>
<polygon fill="black" stroke="black" points="830.5,-149 830.5,-165 830.5,-165 830.5,-149 830.5,-149"/>
</a>
</g>
</g>
<!-- position&#45;&gt;plot_location -->
<g id="edge3" class="edge">
<title>position:w&#45;&gt;plot_location:e</title>
<path fill="none" stroke="black" d="M679.05,-217C592.37,-217 565.45,-217 472,-217"/>
<polygon fill="black" stroke="black" points="685.5,-217 693.5,-220.6 689.5,-217 693.5,-217 693.5,-217 693.5,-217 689.5,-217 693.5,-213.4 685.5,-217 685.5,-217"/>
<ellipse fill="none" stroke="black" cx="682.3" cy="-217" rx="3.2" ry="3.2"/>
</g>
<!-- position&#45;&gt;plot -->
<g id="edge2" class="edge">
<title>position:w&#45;&gt;plot:e</title>
<path fill="none" stroke="black" d="M679.43,-242.55C671.16,-247.4 666.59,-255.83 653,-259 434,-310.13 368.28,-299.13 147,-259 128.32,-255.61 125.99,-244 107,-244"/>
<polygon fill="black" stroke="black" points="685.74,-240.96 694.38,-242.49 689.62,-239.98 693.5,-239 693.5,-239 693.5,-239 689.62,-239.98 692.62,-235.51 685.74,-240.96 685.74,-240.96"/>
<ellipse fill="none" stroke="black" cx="682.64" cy="-241.74" rx="3.2" ry="3.2"/>
</g>
<!-- lookup_gnss_quality -->
<g id="node4" class="node">
<title>lookup_gnss_quality</title>
<g id="a_node4"><a xlink:href="../../tables/lookup_gnss_quality.html" xlink:title="lookup_gnss_quality" target="_top">
<polygon fill="#ffffff" stroke="transparent" points="155,-37 155,-169 645,-169 645,-37 155,-37"/>
<polygon fill="#f5f5f5" stroke="transparent" points="157,-145 157,-167 643,-167 643,-145 157,-145"/>
<polygon fill="none" stroke="black" points="157,-145 157,-167 643,-167 643,-145 157,-145"/>
<text text-anchor="start" x="162" y="-154.2" font-family="Helvetica,sans-Serif" font-weight="bold" font-size="11.00">lookup_gnss_quality</text>
<text text-anchor="start" x="601" y="-153.2" font-family="Helvetica,sans-Serif" font-size="11.00">[table]</text>
<polygon fill="none" stroke="black" points="157,-123 157,-145 325,-145 325,-123 157,-123"/>
<text text-anchor="start" x="177" y="-131.2" font-family="Helvetica,sans-Serif" font-size="11.00">name_de</text>
<polygon fill="none" stroke="black" points="325,-123 325,-145 643,-145 643,-123 325,-123"/>
<text text-anchor="start" x="328" y="-131.2" font-family="Helvetica,sans-Serif" font-size="11.00">varchar[150]</text>
<polygon fill="none" stroke="black" points="157,-101 157,-123 325,-123 325,-101 157,-101"/>
<text text-anchor="start" x="177" y="-109.2" font-family="Helvetica,sans-Serif" font-size="11.00">name_en</text>
<polygon fill="none" stroke="black" points="325,-101 325,-123 643,-123 643,-101 325,-101"/>
<text text-anchor="start" x="328" y="-109.2" font-family="Helvetica,sans-Serif" font-size="11.00">varchar[150]</text>
<polygon fill="none" stroke="black" points="157,-79 157,-101 325,-101 325,-79 157,-79"/>
<text text-anchor="start" x="177" y="-87.2" font-family="Helvetica,sans-Serif" font-size="11.00">sort</text>
<polygon fill="none" stroke="black" points="325,-79 325,-101 643,-101 643,-79 325,-79"/>
<text text-anchor="start" x="328" y="-87.2" font-family="Helvetica,sans-Serif" font-size="11.00">int4[10]</text>
<polygon fill="#ffffff" stroke="transparent" points="157,-57 157,-79 325,-79 325,-57 157,-57"/>
<polygon fill="none" stroke="black" points="157,-57 157,-79 325,-79 325,-57 157,-57"/>
<text text-anchor="start" x="177" y="-65.2" font-family="Helvetica,sans-Serif" font-size="11.00">abbreviation</text>
<polygon fill="none" stroke="black" points="325,-57 325,-79 643,-79 643,-57 325,-57"/>
<text text-anchor="start" x="328" y="-65.2" font-family="Helvetica,sans-Serif" font-size="11.00">&quot;private_ci2027_001&quot;.&quot;enum_gnss_quality&quot;[2147483647]</text>
<polygon fill="#ffffff" stroke="transparent" points="157,-39 157,-57 643,-57 643,-39 157,-39"/>
<polygon fill="none" stroke="black" points="157,-39 157,-57 643,-57 643,-39 157,-39"/>
<polygon fill="#ffffff" stroke="transparent" points="158,-40 158,-56 314,-56 314,-40 158,-40"/>
<text text-anchor="start" x="160" y="-45.2" font-family="Helvetica,sans-Serif" font-size="11.00">&lt; 0</text>
<polygon fill="#ffffff" stroke="transparent" points="314,-40 314,-56 487,-56 487,-40 314,-40"/>
<text text-anchor="start" x="382" y="-45.2" font-family="Helvetica,sans-Serif" font-size="11.00">0 rows</text>
<polygon fill="#ffffff" stroke="transparent" points="487,-40 487,-56 642,-56 642,-40 487,-40"/>
<text text-anchor="start" x="620" y="-45.2" font-family="Helvetica,sans-Serif" font-size="11.00">1 &gt;</text>
<polygon fill="black" stroke="black" points="314,-40 314,-56 314,-56 314,-40 314,-40"/>
<polygon fill="black" stroke="black" points="487,-40 487,-56 487,-56 487,-40 487,-40"/>
<polygon fill="none" stroke="black" stroke-width="2" points="156,-38 156,-168 644,-168 644,-38 156,-38"/>
</a>
</g>
</g>
<!-- position&#45;&gt;lookup_gnss_quality -->
<g id="edge4" class="edge">
<title>position:w&#45;&gt;lookup_gnss_quality:e</title>
<path fill="none" stroke="black" d="M679.29,-191.6C645.65,-171.41 698.66,-68 644,-68"/>
<polygon fill="black" stroke="black" points="685.72,-193.14 692.66,-198.5 689.61,-194.07 693.5,-195 693.5,-195 693.5,-195 689.61,-194.07 694.34,-191.5 685.72,-193.14 685.72,-193.14"/>
<ellipse fill="none" stroke="black" cx="682.61" cy="-192.4" rx="3.2" ry="3.2"/>
</g>
</g>
</svg>
