<?xml version="1.0" encoding="UTF-8" standalone="no"?>
<!DOCTYPE svg PUBLIC "-//W3C//DTD SVG 1.1//EN"
 "http://www.w3.org/Graphics/SVG/1.1/DTD/svg11.dtd">
<!-- Generated by graphviz version 2.43.0 (0)
 -->
<!-- Title: twoDegreesRelationshipsDiagram Pages: 1 -->
<svg width="646pt" height="440pt"
 viewBox="0.00 0.00 646.00 440.00" xmlns="http://www.w3.org/2000/svg" xmlns:xlink="http://www.w3.org/1999/xlink">
<g id="graph0" class="graph" transform="scale(1 1) rotate(0) translate(4 436)">
<title>twoDegreesRelationshipsDiagram</title>
<polygon fill="#ffffff" stroke="transparent" points="-4,4 -4,-436 642,-436 642,4 -4,4"/>
<text text-anchor="middle" x="79.5" y="-7.2" font-family="Helvetica,sans-Serif" font-size="11.00">Generated by SchemaSpy</text>
<!-- edges -->
<g id="node1" class="node">
<title>edges</title>
<g id="a_node1"><a xlink:href="../../tables/edges.html" xlink:title="edges" target="_top">
<polygon fill="#ffffff" stroke="transparent" points="521,-198 521,-366 630,-366 630,-198 521,-198"/>
<polygon fill="#f5f5f5" stroke="transparent" points="521.5,-344 521.5,-366 630.5,-366 630.5,-344 521.5,-344"/>
<polygon fill="none" stroke="black" points="521.5,-344 521.5,-366 630.5,-366 630.5,-344 521.5,-344"/>
<text text-anchor="start" x="526.5" y="-353.2" font-family="Helvetica,sans-Serif" font-weight="bold" font-size="11.00">edges</text>
<text text-anchor="start" x="588.5" y="-352.2" font-family="Helvetica,sans-Serif" font-size="11.00">[table]</text>
<polygon fill="none" stroke="black" points="521.5,-322 521.5,-344 630.5,-344 630.5,-322 521.5,-322"/>
<image xlink:href="../../images/primaryKeys.png" width="11px" height="12px" preserveAspectRatio="xMinYMin meet" x="526.5" y="-339"/>
<text text-anchor="start" x="541.5" y="-330.2" font-family="Helvetica,sans-Serif" font-size="11.00">id</text>
<polygon fill="none" stroke="black" points="521.5,-300 521.5,-322 630.5,-322 630.5,-300 521.5,-300"/>
<image xlink:href="../../images/foreignKeys.png" width="11px" height="12px" preserveAspectRatio="xMinYMin meet" x="526.5" y="-317"/>
<text text-anchor="start" x="541.5" y="-308.2" font-family="Helvetica,sans-Serif" font-size="11.00">plot_id</text>
<polygon fill="none" stroke="black" points="521.5,-278 521.5,-300 630.5,-300 630.5,-278 521.5,-278"/>
<image xlink:href="../../images/foreignKeys.png" width="11px" height="12px" preserveAspectRatio="xMinYMin meet" x="526.5" y="-295"/>
<text text-anchor="start" x="541.5" y="-286.2" font-family="Helvetica,sans-Serif" font-size="11.00">edge_status</text>
<polygon fill="none" stroke="black" points="521.5,-256 521.5,-278 630.5,-278 630.5,-256 521.5,-256"/>
<image xlink:href="../../images/foreignKeys.png" width="11px" height="12px" preserveAspectRatio="xMinYMin meet" x="526.5" y="-273"/>
<text text-anchor="start" x="541.5" y="-264.2" font-family="Helvetica,sans-Serif" font-size="11.00">edge_type</text>
<polygon fill="none" stroke="black" points="521.5,-234 521.5,-256 630.5,-256 630.5,-234 521.5,-234"/>
<image xlink:href="../../images/foreignKeys.png" width="11px" height="12px" preserveAspectRatio="xMinYMin meet" x="526.5" y="-251"/>
<text text-anchor="start" x="541.5" y="-242.2" font-family="Helvetica,sans-Serif" font-size="11.00">terrain</text>
<polygon fill="none" stroke="black" points="521.5,-216 521.5,-234 630.5,-234 630.5,-216 521.5,-216"/>
<text text-anchor="start" x="524.5" y="-222.2" font-family="Helvetica,sans-Serif" font-size="11.00">...</text>
<polygon fill="#ffffff" stroke="transparent" points="521.5,-198 521.5,-216 630.5,-216 630.5,-198 521.5,-198"/>
<polygon fill="none" stroke="black" points="521.5,-198 521.5,-216 630.5,-216 630.5,-198 521.5,-198"/>
<polygon fill="#ffffff" stroke="transparent" points="522.5,-199 522.5,-215 556.5,-215 556.5,-199 522.5,-199"/>
<text text-anchor="start" x="524.5" y="-204.2" font-family="Helvetica,sans-Serif" font-size="11.00">&lt; 4</text>
<polygon fill="#ffffff" stroke="transparent" points="556.5,-199 556.5,-215 607.5,-215 607.5,-199 556.5,-199"/>
<text text-anchor="start" x="563.5" y="-204.2" font-family="Helvetica,sans-Serif" font-size="11.00">0 rows</text>
<polygon fill="#ffffff" stroke="transparent" points="607.5,-199 607.5,-215 629.5,-215 629.5,-199 607.5,-199"/>
<text text-anchor="start" x="619.5" y="-204.2" font-family="Helvetica,sans-Serif" font-size="11.00"> &#160;</text>
<polygon fill="black" stroke="black" points="556.5,-199 556.5,-215 556.5,-215 556.5,-199 556.5,-199"/>
<polygon fill="black" stroke="black" points="607.5,-199 607.5,-215 607.5,-215 607.5,-199 607.5,-199"/>
</a>
</g>
</g>
<!-- lookup_edge_status -->
<g id="node2" class="node">
<title>lookup_edge_status</title>
<g id="a_node2"><a xlink:href="../../tables/lookup_edge_status.html" xlink:title="lookup_edge_status" target="_top">
<polygon fill="#ffffff" stroke="transparent" points="144.5,-291 144.5,-349 335.5,-349 335.5,-291 144.5,-291"/>
<polygon fill="#f5f5f5" stroke="transparent" points="145,-327 145,-349 336,-349 336,-327 145,-327"/>
<polygon fill="none" stroke="black" points="145,-327 145,-349 336,-349 336,-327 145,-327"/>
<text text-anchor="start" x="150" y="-336.2" font-family="Helvetica,sans-Serif" font-weight="bold" font-size="11.00">lookup_edge_status</text>
<text text-anchor="start" x="294" y="-335.2" font-family="Helvetica,sans-Serif" font-size="11.00">[table]</text>
<polygon fill="none" stroke="black" points="145,-309 145,-327 336,-327 336,-309 145,-309"/>
<text text-anchor="start" x="148" y="-315.2" font-family="Helvetica,sans-Serif" font-size="11.00">...</text>
<polygon fill="#ffffff" stroke="transparent" points="145,-291 145,-309 336,-309 336,-291 145,-291"/>
<polygon fill="none" stroke="black" points="145,-291 145,-309 336,-309 336,-291 145,-291"/>
<polygon fill="#ffffff" stroke="transparent" points="146,-292 146,-308 196,-308 196,-292 146,-292"/>
<text text-anchor="start" x="148" y="-297.2" font-family="Helvetica,sans-Serif" font-size="11.00"> &#160;</text>
<polygon fill="#ffffff" stroke="transparent" points="196,-292 196,-308 274,-308 274,-292 196,-292"/>
<text text-anchor="start" x="216.5" y="-297.2" font-family="Helvetica,sans-Serif" font-size="11.00">0 rows</text>
<polygon fill="#ffffff" stroke="transparent" points="274,-292 274,-308 335,-308 335,-292 274,-292"/>
<text text-anchor="start" x="313" y="-297.2" font-family="Helvetica,sans-Serif" font-size="11.00">1 &gt;</text>
<polygon fill="black" stroke="black" points="196,-292 196,-308 196,-308 196,-292 196,-292"/>
<polygon fill="black" stroke="black" points="274,-292 274,-308 274,-308 274,-292 274,-292"/>
</a>
</g>
</g>
<!-- edges&#45;&gt;lookup_edge_status -->
<g id="edge1" class="edge">
<title>edges:w&#45;&gt;lookup_edge_status:e</title>
<path fill="none" stroke="black" d="M505.74,-289.33C435.39,-292.51 414.41,-318 337,-318"/>
<polygon fill="black" stroke="black" points="512.5,-289.18 520.58,-292.6 516.5,-289.09 520.5,-289 520.5,-289 520.5,-289 516.5,-289.09 520.42,-285.4 512.5,-289.18 512.5,-289.18"/>
<ellipse fill="none" stroke="black" cx="509.3" cy="-289.25" rx="3.2" ry="3.2"/>
</g>
<!-- lookup_edge_type -->
<g id="node3" class="node">
<title>lookup_edge_type</title>
<g id="a_node3"><a xlink:href="../../tables/lookup_edge_type.html" xlink:title="lookup_edge_type" target="_top">
<polygon fill="#ffffff" stroke="transparent" points="151,-212 151,-270 329,-270 329,-212 151,-212"/>
<polygon fill="#f5f5f5" stroke="transparent" points="151,-248 151,-270 329,-270 329,-248 151,-248"/>
<polygon fill="none" stroke="black" points="151,-248 151,-270 329,-270 329,-248 151,-248"/>
<text text-anchor="start" x="156" y="-257.2" font-family="Helvetica,sans-Serif" font-weight="bold" font-size="11.00">lookup_edge_type</text>
<text text-anchor="start" x="287" y="-256.2" font-family="Helvetica,sans-Serif" font-size="11.00">[table]</text>
<polygon fill="none" stroke="black" points="151,-230 151,-248 329,-248 329,-230 151,-230"/>
<text text-anchor="start" x="154" y="-236.2" font-family="Helvetica,sans-Serif" font-size="11.00">...</text>
<polygon fill="#ffffff" stroke="transparent" points="151,-212 151,-230 329,-230 329,-212 151,-212"/>
<polygon fill="none" stroke="black" points="151,-212 151,-230 329,-230 329,-212 151,-212"/>
<polygon fill="#ffffff" stroke="transparent" points="152,-213 152,-229 197,-229 197,-213 152,-213"/>
<text text-anchor="start" x="154" y="-218.2" font-family="Helvetica,sans-Serif" font-size="11.00"> &#160;</text>
<polygon fill="#ffffff" stroke="transparent" points="197,-213 197,-229 271,-229 271,-213 197,-213"/>
<text text-anchor="start" x="215.5" y="-218.2" font-family="Helvetica,sans-Serif" font-size="11.00">0 rows</text>
<polygon fill="#ffffff" stroke="transparent" points="271,-213 271,-229 328,-229 328,-213 271,-213"/>
<text text-anchor="start" x="306" y="-218.2" font-family="Helvetica,sans-Serif" font-size="11.00">1 &gt;</text>
<polygon fill="black" stroke="black" points="197,-213 197,-229 197,-229 197,-213 197,-213"/>
<polygon fill="black" stroke="black" points="271,-213 271,-229 271,-229 271,-213 271,-213"/>
</a>
</g>
</g>
<!-- edges&#45;&gt;lookup_edge_type -->
<g id="edge2" class="edge">
<title>edges:w&#45;&gt;lookup_edge_type:e</title>
<path fill="none" stroke="black" d="M505.65,-266.7C432.34,-263.71 410.39,-239 330,-239"/>
<polygon fill="black" stroke="black" points="512.5,-266.84 520.43,-270.6 516.5,-266.92 520.5,-267 520.5,-267 520.5,-267 516.5,-266.92 520.57,-263.4 512.5,-266.84 512.5,-266.84"/>
<ellipse fill="none" stroke="black" cx="509.3" cy="-266.78" rx="3.2" ry="3.2"/>
</g>
<!-- plot -->
<g id="node4" class="node">
<title>plot</title>
<g id="a_node4"><a xlink:href="../../tables/plot.html" xlink:title="plot" target="_top">
<polygon fill="#ffffff" stroke="transparent" points="191,-370 191,-428 289,-428 289,-370 191,-370"/>
<polygon fill="#f5f5f5" stroke="transparent" points="191,-406 191,-428 289,-428 289,-406 191,-406"/>
<polygon fill="none" stroke="black" points="191,-406 191,-428 289,-428 289,-406 191,-406"/>
<text text-anchor="start" x="195.5" y="-415.2" font-family="Helvetica,sans-Serif" font-weight="bold" font-size="11.00">plot</text>
<text text-anchor="start" x="247" y="-414.2" font-family="Helvetica,sans-Serif" font-size="11.00">[table]</text>
<polygon fill="none" stroke="black" points="191,-388 191,-406 289,-406 289,-388 191,-388"/>
<text text-anchor="start" x="194" y="-394.2" font-family="Helvetica,sans-Serif" font-size="11.00">...</text>
<polygon fill="#ffffff" stroke="transparent" points="191,-370 191,-388 289,-388 289,-370 191,-370"/>
<polygon fill="none" stroke="black" points="191,-370 191,-388 289,-388 289,-370 191,-370"/>
<polygon fill="#ffffff" stroke="transparent" points="192,-371 192,-387 223,-387 223,-371 192,-371"/>
<text text-anchor="start" x="194" y="-376.2" font-family="Helvetica,sans-Serif" font-size="11.00">&lt; 16</text>
<polygon fill="#ffffff" stroke="transparent" points="223,-371 223,-387 264,-387 264,-371 223,-371"/>
<text text-anchor="start" x="225" y="-376.2" font-family="Helvetica,sans-Serif" font-size="11.00">0 rows</text>
<polygon fill="#ffffff" stroke="transparent" points="264,-371 264,-387 288,-387 288,-371 264,-371"/>
<text text-anchor="start" x="266" y="-376.2" font-family="Helvetica,sans-Serif" font-size="11.00">7 &gt;</text>
<polygon fill="black" stroke="black" points="223,-371 223,-387 223,-387 223,-371 223,-371"/>
<polygon fill="black" stroke="black" points="264,-371 264,-387 264,-387 264,-371 264,-371"/>
</a>
</g>
</g>
<!-- edges&#45;&gt;plot -->
<g id="edge3" class="edge">
<title>edges:w&#45;&gt;plot:e</title>
<path fill="none" stroke="black" d="M506.61,-315.69C495.84,-325.63 498.79,-348.84 480,-360 406.04,-403.95 376.03,-397 290,-397"/>
<polygon fill="black" stroke="black" points="512.92,-313.56 521.65,-314.41 516.71,-312.28 520.5,-311 520.5,-311 520.5,-311 516.71,-312.28 519.35,-307.59 512.92,-313.56 512.92,-313.56"/>
<ellipse fill="none" stroke="black" cx="509.89" cy="-314.58" rx="3.2" ry="3.2"/>
</g>
<!-- lookup_terrain -->
<g id="node5" class="node">
<title>lookup_terrain</title>
<g id="a_node5"><a xlink:href="../../tables/lookup_terrain.html" xlink:title="lookup_terrain" target="_top">
<polygon fill="#ffffff" stroke="transparent" points="8,-37 8,-191 472,-191 472,-37 8,-37"/>
<polygon fill="#f5f5f5" stroke="transparent" points="10,-167 10,-189 470,-189 470,-167 10,-167"/>
<polygon fill="none" stroke="black" points="10,-167 10,-189 470,-189 470,-167 10,-167"/>
<text text-anchor="start" x="15" y="-176.2" font-family="Helvetica,sans-Serif" font-weight="bold" font-size="11.00">lookup_terrain</text>
<text text-anchor="start" x="428" y="-175.2" font-family="Helvetica,sans-Serif" font-size="11.00">[table]</text>
<polygon fill="none" stroke="black" points="10,-145 10,-167 137,-167 137,-145 10,-145"/>
<text text-anchor="start" x="30" y="-153.2" font-family="Helvetica,sans-Serif" font-size="11.00">name_de</text>
<polygon fill="none" stroke="black" points="137,-145 137,-167 470,-167 470,-145 137,-145"/>
<text text-anchor="start" x="140" y="-153.2" font-family="Helvetica,sans-Serif" font-size="11.00">varchar[150]</text>
<polygon fill="none" stroke="black" points="10,-123 10,-145 137,-145 137,-123 10,-123"/>
<text text-anchor="start" x="30" y="-131.2" font-family="Helvetica,sans-Serif" font-size="11.00">name_en</text>
<polygon fill="none" stroke="black" points="137,-123 137,-145 470,-145 470,-123 137,-123"/>
<text text-anchor="start" x="140" y="-131.2" font-family="Helvetica,sans-Serif" font-size="11.00">varchar[150]</text>
<polygon fill="none" stroke="black" points="10,-101 10,-123 137,-123 137,-101 10,-101"/>
<text text-anchor="start" x="30" y="-109.2" font-family="Helvetica,sans-Serif" font-size="11.00">interval</text>
<polygon fill="none" stroke="black" points="137,-101 137,-123 470,-123 470,-101 137,-101"/>
<text text-anchor="start" x="140" y="-109.2" font-family="Helvetica,sans-Serif" font-size="11.00">&quot;private_ci2027_001&quot;.&quot;_enum_interval_name&quot;[2147483647]</text>
<polygon fill="none" stroke="black" points="10,-79 10,-101 137,-101 137,-79 10,-79"/>
<text text-anchor="start" x="30" y="-87.2" font-family="Helvetica,sans-Serif" font-size="11.00">sort</text>
<polygon fill="none" stroke="black" points="137,-79 137,-101 470,-101 470,-79 137,-79"/>
<text text-anchor="start" x="140" y="-87.2" font-family="Helvetica,sans-Serif" font-size="11.00">int4[10]</text>
<polygon fill="#ffffff" stroke="transparent" points="10,-57 10,-79 137,-79 137,-57 10,-57"/>
<polygon fill="none" stroke="black" points="10,-57 10,-79 137,-79 137,-57 10,-57"/>
<text text-anchor="start" x="30" y="-65.2" font-family="Helvetica,sans-Serif" font-size="11.00">abbreviation</text>
<polygon fill="none" stroke="black" points="137,-57 137,-79 470,-79 470,-57 137,-57"/>
<text text-anchor="start" x="140" y="-65.2" font-family="Helvetica,sans-Serif" font-size="11.00">&quot;private_ci2027_001&quot;.&quot;enum_terrain&quot;[2147483647]</text>
<polygon fill="#ffffff" stroke="transparent" points="10,-39 10,-57 470,-57 470,-39 10,-39"/>
<polygon fill="none" stroke="black" points="10,-39 10,-57 470,-57 470,-39 10,-39"/>
<polygon fill="#ffffff" stroke="transparent" points="11,-40 11,-56 158,-56 158,-40 11,-40"/>
<text text-anchor="start" x="13" y="-45.2" font-family="Helvetica,sans-Serif" font-size="11.00">&lt; 0</text>
<polygon fill="#ffffff" stroke="transparent" points="158,-40 158,-56 322,-56 322,-40 158,-40"/>
<text text-anchor="start" x="221.5" y="-45.2" font-family="Helvetica,sans-Serif" font-size="11.00">0 rows</text>
<polygon fill="#ffffff" stroke="transparent" points="322,-40 322,-56 469,-56 469,-40 322,-40"/>
<text text-anchor="start" x="447" y="-45.2" font-family="Helvetica,sans-Serif" font-size="11.00">1 &gt;</text>
<polygon fill="black" stroke="black" points="158,-40 158,-56 158,-56 158,-40 158,-40"/>
<polygon fill="black" stroke="black" points="322,-40 322,-56 322,-56 322,-40 322,-40"/>
<polygon fill="none" stroke="black" stroke-width="2" points="9,-38 9,-190 471,-190 471,-38 9,-38"/>
</a>
</g>
</g>
<!-- edges&#45;&gt;lookup_terrain -->
<g id="edge4" class="edge">
<title>edges:w&#45;&gt;lookup_terrain:e</title>
<path fill="none" stroke="black" d="M506.03,-242.5C453.86,-220.98 546.94,-68 471,-68"/>
<polygon fill="black" stroke="black" points="512.62,-243.64 519.89,-248.55 516.56,-244.32 520.5,-245 520.5,-245 520.5,-245 516.56,-244.32 521.11,-241.45 512.62,-243.64 512.62,-243.64"/>
<ellipse fill="none" stroke="black" cx="509.46" cy="-243.09" rx="3.2" ry="3.2"/>
</g>
</g>
</svg>
