<?xml version="1.0" encoding="UTF-8" standalone="no"?>
<!DOCTYPE svg PUBLIC "-//W3C//DTD SVG 1.1//EN"
 "http://www.w3.org/Graphics/SVG/1.1/DTD/svg11.dtd">
<!-- Generated by graphviz version 2.43.0 (0)
 -->
<!-- Title: oneDegreeRelationshipsDiagram Pages: 1 -->
<svg width="815pt" height="679pt"
 viewBox="0.00 0.00 815.00 679.00" xmlns="http://www.w3.org/2000/svg" xmlns:xlink="http://www.w3.org/1999/xlink">
<g id="graph0" class="graph" transform="scale(1 1) rotate(0) translate(4 675)">
<title>oneDegreeRelationshipsDiagram</title>
<polygon fill="#ffffff" stroke="transparent" points="-4,4 -4,-675 811,-675 811,4 -4,4"/>
<text text-anchor="middle" x="79.5" y="-7.2" font-family="Helvetica,sans-Serif" font-size="11.00">Generated by SchemaSpy</text>
<!-- plot -->
<g id="node1" class="node">
<title>plot</title>
<g id="a_node1"><a xlink:href="../../tables/plot.html" xlink:title="plot" target="_top">
<polygon fill="#ffffff" stroke="transparent" points="548,-37 548,-667 799,-667 799,-37 548,-37"/>
<polygon fill="#f5f5f5" stroke="transparent" points="548.5,-645 548.5,-667 799.5,-667 799.5,-645 548.5,-645"/>
<polygon fill="none" stroke="black" points="548.5,-645 548.5,-667 799.5,-667 799.5,-645 548.5,-645"/>
<text text-anchor="start" x="553" y="-654.2" font-family="Helvetica,sans-Serif" font-weight="bold" font-size="11.00">plot</text>
<text text-anchor="start" x="757.5" y="-653.2" font-family="Helvetica,sans-Serif" font-size="11.00">[table]</text>
<polygon fill="none" stroke="black" points="548.5,-623 548.5,-645 799.5,-645 799.5,-623 548.5,-623"/>
<image xlink:href="../../images/primaryKeys.png" width="11px" height="12px" preserveAspectRatio="xMinYMin meet" x="553.5" y="-640"/>
<text text-anchor="start" x="568.5" y="-631.2" font-family="Helvetica,sans-Serif" font-size="11.00">id</text>
<polygon fill="#ffffff" stroke="transparent" points="548.5,-601 548.5,-623 799.5,-623 799.5,-601 548.5,-601"/>
<polygon fill="none" stroke="black" points="548.5,-601 548.5,-623 799.5,-623 799.5,-601 548.5,-601"/>
<image xlink:href="../../images/foreignKeys.png" width="11px" height="12px" preserveAspectRatio="xMinYMin meet" x="553.5" y="-618"/>
<text text-anchor="start" x="568.5" y="-609.2" font-family="Helvetica,sans-Serif" font-size="11.00">cluster_id</text>
<polygon fill="#ffffff" stroke="transparent" points="548.5,-579 548.5,-601 799.5,-601 799.5,-579 548.5,-579"/>
<polygon fill="none" stroke="black" points="548.5,-579 548.5,-601 799.5,-601 799.5,-579 548.5,-579"/>
<text text-anchor="start" x="568.5" y="-587.2" font-family="Helvetica,sans-Serif" font-size="11.00">plot_name</text>
<polygon fill="none" stroke="black" points="548.5,-557 548.5,-579 799.5,-579 799.5,-557 548.5,-557"/>
<image xlink:href="../../images/foreignKeys.png" width="11px" height="12px" preserveAspectRatio="xMinYMin meet" x="553.5" y="-574"/>
<text text-anchor="start" x="568.5" y="-565.2" font-family="Helvetica,sans-Serif" font-size="11.00">sampling_strata</text>
<polygon fill="none" stroke="black" points="548.5,-535 548.5,-557 799.5,-557 799.5,-535 548.5,-535"/>
<image xlink:href="../../images/foreignKeys.png" width="11px" height="12px" preserveAspectRatio="xMinYMin meet" x="553.5" y="-552"/>
<text text-anchor="start" x="568.5" y="-543.2" font-family="Helvetica,sans-Serif" font-size="11.00">growth_district</text>
<polygon fill="none" stroke="black" points="548.5,-513 548.5,-535 799.5,-535 799.5,-513 548.5,-513"/>
<image xlink:href="../../images/foreignKeys.png" width="11px" height="12px" preserveAspectRatio="xMinYMin meet" x="553.5" y="-530"/>
<text text-anchor="start" x="568.5" y="-521.2" font-family="Helvetica,sans-Serif" font-size="11.00">forest_decision</text>
<polygon fill="none" stroke="black" points="548.5,-491 548.5,-513 799.5,-513 799.5,-491 548.5,-491"/>
<image xlink:href="../../images/foreignKeys.png" width="11px" height="12px" preserveAspectRatio="xMinYMin meet" x="553.5" y="-508"/>
<text text-anchor="start" x="568.5" y="-499.2" font-family="Helvetica,sans-Serif" font-size="11.00">forestry_department</text>
<polygon fill="none" stroke="black" points="548.5,-469 548.5,-491 799.5,-491 799.5,-469 548.5,-469"/>
<image xlink:href="../../images/foreignKeys.png" width="11px" height="12px" preserveAspectRatio="xMinYMin meet" x="553.5" y="-486"/>
<text text-anchor="start" x="568.5" y="-477.2" font-family="Helvetica,sans-Serif" font-size="11.00">height_layer_class</text>
<polygon fill="none" stroke="black" points="548.5,-447 548.5,-469 799.5,-469 799.5,-447 548.5,-447"/>
<image xlink:href="../../images/foreignKeys.png" width="11px" height="12px" preserveAspectRatio="xMinYMin meet" x="553.5" y="-464"/>
<text text-anchor="start" x="568.5" y="-455.2" font-family="Helvetica,sans-Serif" font-size="11.00">property_type</text>
<polygon fill="none" stroke="black" points="548.5,-425 548.5,-447 799.5,-447 799.5,-425 548.5,-425"/>
<image xlink:href="../../images/foreignKeys.png" width="11px" height="12px" preserveAspectRatio="xMinYMin meet" x="553.5" y="-442"/>
<text text-anchor="start" x="568.5" y="-433.2" font-family="Helvetica,sans-Serif" font-size="11.00">property_size_class</text>
<polygon fill="none" stroke="black" points="548.5,-403 548.5,-425 799.5,-425 799.5,-403 548.5,-403"/>
<image xlink:href="../../images/foreignKeys.png" width="11px" height="12px" preserveAspectRatio="xMinYMin meet" x="553.5" y="-420"/>
<text text-anchor="start" x="568.5" y="-411.2" font-family="Helvetica,sans-Serif" font-size="11.00">forest_type</text>
<polygon fill="none" stroke="black" points="548.5,-381 548.5,-403 799.5,-403 799.5,-381 548.5,-381"/>
<image xlink:href="../../images/foreignKeys.png" width="11px" height="12px" preserveAspectRatio="xMinYMin meet" x="553.5" y="-398"/>
<text text-anchor="start" x="568.5" y="-389.2" font-family="Helvetica,sans-Serif" font-size="11.00">habitat_type</text>
<polygon fill="none" stroke="black" points="548.5,-359 548.5,-381 799.5,-381 799.5,-359 548.5,-359"/>
<image xlink:href="../../images/foreignKeys.png" width="11px" height="12px" preserveAspectRatio="xMinYMin meet" x="553.5" y="-376"/>
<text text-anchor="start" x="568.5" y="-367.2" font-family="Helvetica,sans-Serif" font-size="11.00">habitat_type_source</text>
<polygon fill="none" stroke="black" points="548.5,-337 548.5,-359 799.5,-359 799.5,-337 548.5,-337"/>
<image xlink:href="../../images/foreignKeys.png" width="11px" height="12px" preserveAspectRatio="xMinYMin meet" x="553.5" y="-354"/>
<text text-anchor="start" x="568.5" y="-345.2" font-family="Helvetica,sans-Serif" font-size="11.00">use_restriction</text>
<polygon fill="none" stroke="black" points="548.5,-315 548.5,-337 799.5,-337 799.5,-315 548.5,-315"/>
<image xlink:href="../../images/foreignKeys.png" width="11px" height="12px" preserveAspectRatio="xMinYMin meet" x="553.5" y="-332"/>
<text text-anchor="start" x="568.5" y="-323.2" font-family="Helvetica,sans-Serif" font-size="11.00">land_use</text>
<polygon fill="none" stroke="black" points="548.5,-293 548.5,-315 799.5,-315 799.5,-293 548.5,-293"/>
<image xlink:href="../../images/foreignKeys.png" width="11px" height="12px" preserveAspectRatio="xMinYMin meet" x="553.5" y="-310"/>
<text text-anchor="start" x="568.5" y="-301.2" font-family="Helvetica,sans-Serif" font-size="11.00">marking_state</text>
<polygon fill="none" stroke="black" points="548.5,-271 548.5,-293 799.5,-293 799.5,-271 548.5,-271"/>
<image xlink:href="../../images/foreignKeys.png" width="11px" height="12px" preserveAspectRatio="xMinYMin meet" x="553.5" y="-288"/>
<text text-anchor="start" x="568.5" y="-279.2" font-family="Helvetica,sans-Serif" font-size="11.00">marking_profile</text>
<polygon fill="none" stroke="black" points="548.5,-249 548.5,-271 799.5,-271 799.5,-249 548.5,-249"/>
<image xlink:href="../../images/foreignKeys.png" width="11px" height="12px" preserveAspectRatio="xMinYMin meet" x="553.5" y="-266"/>
<text text-anchor="start" x="568.5" y="-257.2" font-family="Helvetica,sans-Serif" font-size="11.00">terrain_form</text>
<polygon fill="none" stroke="black" points="548.5,-227 548.5,-249 799.5,-249 799.5,-227 548.5,-227"/>
<image xlink:href="../../images/foreignKeys.png" width="11px" height="12px" preserveAspectRatio="xMinYMin meet" x="553.5" y="-244"/>
<text text-anchor="start" x="568.5" y="-235.2" font-family="Helvetica,sans-Serif" font-size="11.00">management_type</text>
<polygon fill="none" stroke="black" points="548.5,-205 548.5,-227 799.5,-227 799.5,-205 548.5,-205"/>
<image xlink:href="../../images/foreignKeys.png" width="11px" height="12px" preserveAspectRatio="xMinYMin meet" x="553.5" y="-222"/>
<text text-anchor="start" x="568.5" y="-213.2" font-family="Helvetica,sans-Serif" font-size="11.00">harvesting_method</text>
<polygon fill="none" stroke="black" points="548.5,-183 548.5,-205 799.5,-205 799.5,-183 548.5,-183"/>
<image xlink:href="../../images/foreignKeys.png" width="11px" height="12px" preserveAspectRatio="xMinYMin meet" x="553.5" y="-200"/>
<text text-anchor="start" x="568.5" y="-191.2" font-family="Helvetica,sans-Serif" font-size="11.00">layer_type</text>
<polygon fill="none" stroke="black" points="548.5,-161 548.5,-183 799.5,-183 799.5,-161 548.5,-161"/>
<image xlink:href="../../images/foreignKeys.png" width="11px" height="12px" preserveAspectRatio="xMinYMin meet" x="553.5" y="-178"/>
<text text-anchor="start" x="568.5" y="-169.2" font-family="Helvetica,sans-Serif" font-size="11.00">stand_phase</text>
<polygon fill="none" stroke="black" points="548.5,-139 548.5,-161 799.5,-161 799.5,-139 548.5,-139"/>
<image xlink:href="../../images/foreignKeys.png" width="11px" height="12px" preserveAspectRatio="xMinYMin meet" x="553.5" y="-156"/>
<text text-anchor="start" x="568.5" y="-147.2" font-family="Helvetica,sans-Serif" font-size="11.00">sablings_layer</text>
<polygon fill="none" stroke="black" points="548.5,-117 548.5,-139 799.5,-139 799.5,-117 548.5,-117"/>
<image xlink:href="../../images/foreignKeys.png" width="11px" height="12px" preserveAspectRatio="xMinYMin meet" x="553.5" y="-134"/>
<text text-anchor="start" x="568.5" y="-125.2" font-family="Helvetica,sans-Serif" font-size="11.00">trees_less_4meter_mirrored</text>
<polygon fill="none" stroke="black" points="548.5,-95 548.5,-117 799.5,-117 799.5,-95 548.5,-95"/>
<image xlink:href="../../images/foreignKeys.png" width="11px" height="12px" preserveAspectRatio="xMinYMin meet" x="553.5" y="-112"/>
<text text-anchor="start" x="568.5" y="-103.2" font-family="Helvetica,sans-Serif" font-size="11.00">trees_less_4meter_count_factor</text>
<polygon fill="none" stroke="black" points="548.5,-73 548.5,-95 799.5,-95 799.5,-73 548.5,-73"/>
<image xlink:href="../../images/foreignKeys.png" width="11px" height="12px" preserveAspectRatio="xMinYMin meet" x="553.5" y="-90"/>
<text text-anchor="start" x="568.5" y="-81.2" font-family="Helvetica,sans-Serif" font-size="11.00">trees_less_4meter_layer</text>
<polygon fill="none" stroke="black" points="548.5,-55 548.5,-73 799.5,-73 799.5,-55 548.5,-55"/>
<text text-anchor="start" x="551.5" y="-61.2" font-family="Helvetica,sans-Serif" font-size="11.00">...</text>
<polygon fill="#ffffff" stroke="transparent" points="548.5,-37 548.5,-55 799.5,-55 799.5,-37 548.5,-37"/>
<polygon fill="none" stroke="black" points="548.5,-37 548.5,-55 799.5,-55 799.5,-37 548.5,-37"/>
<polygon fill="#ffffff" stroke="transparent" points="549.5,-38 549.5,-54 631.5,-54 631.5,-38 549.5,-38"/>
<text text-anchor="start" x="551.5" y="-43.2" font-family="Helvetica,sans-Serif" font-size="11.00">&lt; 24</text>
<polygon fill="#ffffff" stroke="transparent" points="631.5,-38 631.5,-54 723.5,-54 723.5,-38 631.5,-38"/>
<text text-anchor="start" x="659" y="-43.2" font-family="Helvetica,sans-Serif" font-size="11.00">0 rows</text>
<polygon fill="#ffffff" stroke="transparent" points="723.5,-38 723.5,-54 798.5,-54 798.5,-38 723.5,-38"/>
<text text-anchor="start" x="776.5" y="-43.2" font-family="Helvetica,sans-Serif" font-size="11.00">7 &gt;</text>
<polygon fill="black" stroke="black" points="631.5,-38 631.5,-54 631.5,-54 631.5,-38 631.5,-38"/>
<polygon fill="black" stroke="black" points="723.5,-38 723.5,-54 723.5,-54 723.5,-38 723.5,-38"/>
</a>
</g>
</g>
<!-- lookup_stand_phase -->
<g id="node2" class="node">
<title>lookup_stand_phase</title>
<g id="a_node2"><a xlink:href="../../tables/lookup_stand_phase.html" xlink:title="lookup_stand_phase" target="_top">
<polygon fill="#ffffff" stroke="transparent" points="8,-141 8,-273 499,-273 499,-141 8,-141"/>
<polygon fill="#f5f5f5" stroke="transparent" points="10.5,-249 10.5,-271 497.5,-271 497.5,-249 10.5,-249"/>
<polygon fill="none" stroke="black" points="10.5,-249 10.5,-271 497.5,-271 497.5,-249 10.5,-249"/>
<text text-anchor="start" x="15.5" y="-258.2" font-family="Helvetica,sans-Serif" font-weight="bold" font-size="11.00">lookup_stand_phase</text>
<text text-anchor="start" x="455.5" y="-257.2" font-family="Helvetica,sans-Serif" font-size="11.00">[table]</text>
<polygon fill="none" stroke="black" points="10.5,-227 10.5,-249 178.5,-249 178.5,-227 10.5,-227"/>
<text text-anchor="start" x="30.5" y="-235.2" font-family="Helvetica,sans-Serif" font-size="11.00">name_de</text>
<polygon fill="none" stroke="black" points="178.5,-227 178.5,-249 497.5,-249 497.5,-227 178.5,-227"/>
<text text-anchor="start" x="181.5" y="-235.2" font-family="Helvetica,sans-Serif" font-size="11.00">varchar[150]</text>
<polygon fill="none" stroke="black" points="10.5,-205 10.5,-227 178.5,-227 178.5,-205 10.5,-205"/>
<text text-anchor="start" x="30.5" y="-213.2" font-family="Helvetica,sans-Serif" font-size="11.00">name_en</text>
<polygon fill="none" stroke="black" points="178.5,-205 178.5,-227 497.5,-227 497.5,-205 178.5,-205"/>
<text text-anchor="start" x="181.5" y="-213.2" font-family="Helvetica,sans-Serif" font-size="11.00">varchar[150]</text>
<polygon fill="none" stroke="black" points="10.5,-183 10.5,-205 178.5,-205 178.5,-183 10.5,-183"/>
<text text-anchor="start" x="30.5" y="-191.2" font-family="Helvetica,sans-Serif" font-size="11.00">sort</text>
<polygon fill="none" stroke="black" points="178.5,-183 178.5,-205 497.5,-205 497.5,-183 178.5,-183"/>
<text text-anchor="start" x="181.5" y="-191.2" font-family="Helvetica,sans-Serif" font-size="11.00">int4[10]</text>
<polygon fill="#ffffff" stroke="transparent" points="10.5,-161 10.5,-183 178.5,-183 178.5,-161 10.5,-161"/>
<polygon fill="none" stroke="black" points="10.5,-161 10.5,-183 178.5,-183 178.5,-161 10.5,-161"/>
<text text-anchor="start" x="30.5" y="-169.2" font-family="Helvetica,sans-Serif" font-size="11.00">abbreviation</text>
<polygon fill="none" stroke="black" points="178.5,-161 178.5,-183 497.5,-183 497.5,-161 178.5,-161"/>
<text text-anchor="start" x="181.5" y="-169.2" font-family="Helvetica,sans-Serif" font-size="11.00">&quot;private_ci2027_001&quot;.&quot;enum_stand_phase&quot;[2147483647]</text>
<polygon fill="#ffffff" stroke="transparent" points="10.5,-143 10.5,-161 497.5,-161 497.5,-143 10.5,-143"/>
<polygon fill="none" stroke="black" points="10.5,-143 10.5,-161 497.5,-161 497.5,-143 10.5,-143"/>
<polygon fill="#ffffff" stroke="transparent" points="11.5,-144 11.5,-160 167.5,-160 167.5,-144 11.5,-144"/>
<text text-anchor="start" x="13.5" y="-149.2" font-family="Helvetica,sans-Serif" font-size="11.00">&lt; 0</text>
<polygon fill="#ffffff" stroke="transparent" points="167.5,-144 167.5,-160 340.5,-160 340.5,-144 167.5,-144"/>
<text text-anchor="start" x="235.5" y="-149.2" font-family="Helvetica,sans-Serif" font-size="11.00">0 rows</text>
<polygon fill="#ffffff" stroke="transparent" points="340.5,-144 340.5,-160 496.5,-160 496.5,-144 340.5,-144"/>
<text text-anchor="start" x="474.5" y="-149.2" font-family="Helvetica,sans-Serif" font-size="11.00">1 &gt;</text>
<polygon fill="black" stroke="black" points="167.5,-144 167.5,-160 167.5,-160 167.5,-144 167.5,-144"/>
<polygon fill="black" stroke="black" points="340.5,-144 340.5,-160 340.5,-160 340.5,-144 340.5,-144"/>
<polygon fill="none" stroke="black" stroke-width="2" points="9,-142 9,-272 498,-272 498,-142 9,-142"/>
</a>
</g>
</g>
<!-- plot&#45;&gt;lookup_stand_phase -->
<g id="edge1" class="edge">
<title>plot:w&#45;&gt;lookup_stand_phase:e</title>
<path fill="none" stroke="black" d="M532.99,-172C521.68,-172 514.49,-172 498.5,-172"/>
<polygon fill="black" stroke="black" points="539.5,-172 547.5,-175.6 543.5,-172 547.5,-172 547.5,-172 547.5,-172 543.5,-172 547.5,-168.4 539.5,-172 539.5,-172"/>
<ellipse fill="none" stroke="black" cx="536.3" cy="-172" rx="3.2" ry="3.2"/>
</g>
</g>
</svg>
