<?xml version="1.0" encoding="UTF-8" standalone="no"?>
<!DOCTYPE svg PUBLIC "-//W3C//DTD SVG 1.1//EN"
 "http://www.w3.org/Graphics/SVG/1.1/DTD/svg11.dtd">
<!-- Generated by graphviz version 2.43.0 (0)
 -->
<!-- Title: twoDegreesRelationshipsDiagram Pages: 1 -->
<svg width="1008pt" height="611pt"
 viewBox="0.00 0.00 1008.00 611.22" xmlns="http://www.w3.org/2000/svg" xmlns:xlink="http://www.w3.org/1999/xlink">
<g id="graph0" class="graph" transform="scale(1 1) rotate(0) translate(4 607.22)">
<title>twoDegreesRelationshipsDiagram</title>
<polygon fill="#ffffff" stroke="transparent" points="-4,4 -4,-607.22 1004,-607.22 1004,4 -4,4"/>
<text text-anchor="middle" x="79.5" y="-7.2" font-family="Helvetica,sans-Serif" font-size="11.00">Generated by SchemaSpy</text>
<!-- plot -->
<g id="node1" class="node">
<title>plot</title>
<g id="a_node1"><a xlink:href="../../tables/plot.html" xlink:title="plot" target="_top">
<polygon fill="#ffffff" stroke="transparent" points="454.5,-541.22 454.5,-599.22 559.5,-599.22 559.5,-541.22 454.5,-541.22"/>
<polygon fill="#f5f5f5" stroke="transparent" points="455,-577.22 455,-599.22 560,-599.22 560,-577.22 455,-577.22"/>
<polygon fill="none" stroke="black" points="455,-577.22 455,-599.22 560,-599.22 560,-577.22 455,-577.22"/>
<text text-anchor="start" x="459.5" y="-586.42" font-family="Helvetica,sans-Serif" font-weight="bold" font-size="11.00">plot</text>
<text text-anchor="start" x="518" y="-585.42" font-family="Helvetica,sans-Serif" font-size="11.00">[table]</text>
<polygon fill="none" stroke="black" points="455,-559.22 455,-577.22 560,-577.22 560,-559.22 455,-559.22"/>
<text text-anchor="start" x="458" y="-565.42" font-family="Helvetica,sans-Serif" font-size="11.00">...</text>
<polygon fill="#ffffff" stroke="transparent" points="455,-541.22 455,-559.22 560,-559.22 560,-541.22 455,-541.22"/>
<polygon fill="none" stroke="black" points="455,-541.22 455,-559.22 560,-559.22 560,-541.22 455,-541.22"/>
<polygon fill="#ffffff" stroke="transparent" points="456,-542.22 456,-558.22 487,-558.22 487,-542.22 456,-542.22"/>
<text text-anchor="start" x="458" y="-547.42" font-family="Helvetica,sans-Serif" font-size="11.00">&lt; 24</text>
<polygon fill="#ffffff" stroke="transparent" points="487,-542.22 487,-558.22 535,-558.22 535,-542.22 487,-542.22"/>
<text text-anchor="start" x="489" y="-547.42" font-family="Helvetica,sans-Serif" font-size="11.00">82 rows</text>
<polygon fill="#ffffff" stroke="transparent" points="535,-542.22 535,-558.22 559,-558.22 559,-542.22 535,-542.22"/>
<text text-anchor="start" x="537" y="-547.42" font-family="Helvetica,sans-Serif" font-size="11.00">7 &gt;</text>
<polygon fill="black" stroke="black" points="487,-542.22 487,-558.22 487,-558.22 487,-542.22 487,-542.22"/>
<polygon fill="black" stroke="black" points="535,-542.22 535,-558.22 535,-558.22 535,-542.22 535,-542.22"/>
</a>
</g>
</g>
<!-- lookup_stand_layer -->
<g id="node2" class="node">
<title>lookup_stand_layer</title>
<g id="a_node2"><a xlink:href="../../tables/lookup_stand_layer.html" xlink:title="lookup_stand_layer" target="_top">
<polygon fill="#ffffff" stroke="transparent" points="8,-281.22 8,-339.22 195,-339.22 195,-281.22 8,-281.22"/>
<polygon fill="#f5f5f5" stroke="transparent" points="8.5,-317.22 8.5,-339.22 195.5,-339.22 195.5,-317.22 8.5,-317.22"/>
<polygon fill="none" stroke="black" points="8.5,-317.22 8.5,-339.22 195.5,-339.22 195.5,-317.22 8.5,-317.22"/>
<text text-anchor="start" x="13.5" y="-326.42" font-family="Helvetica,sans-Serif" font-weight="bold" font-size="11.00">lookup_stand_layer</text>
<text text-anchor="start" x="153.5" y="-325.42" font-family="Helvetica,sans-Serif" font-size="11.00">[table]</text>
<polygon fill="none" stroke="black" points="8.5,-299.22 8.5,-317.22 195.5,-317.22 195.5,-299.22 8.5,-299.22"/>
<text text-anchor="start" x="11.5" y="-305.42" font-family="Helvetica,sans-Serif" font-size="11.00">...</text>
<polygon fill="#ffffff" stroke="transparent" points="8.5,-281.22 8.5,-299.22 195.5,-299.22 195.5,-281.22 8.5,-281.22"/>
<polygon fill="none" stroke="black" points="8.5,-281.22 8.5,-299.22 195.5,-299.22 195.5,-281.22 8.5,-281.22"/>
<polygon fill="#ffffff" stroke="transparent" points="9.5,-282.22 9.5,-298.22 57.5,-298.22 57.5,-282.22 9.5,-282.22"/>
<text text-anchor="start" x="11.5" y="-287.42" font-family="Helvetica,sans-Serif" font-size="11.00"> &#160;</text>
<polygon fill="#ffffff" stroke="transparent" points="57.5,-282.22 57.5,-298.22 134.5,-298.22 134.5,-282.22 57.5,-282.22"/>
<text text-anchor="start" x="77.5" y="-287.42" font-family="Helvetica,sans-Serif" font-size="11.00">0 rows</text>
<polygon fill="#ffffff" stroke="transparent" points="134.5,-282.22 134.5,-298.22 194.5,-298.22 194.5,-282.22 134.5,-282.22"/>
<text text-anchor="start" x="172.5" y="-287.42" font-family="Helvetica,sans-Serif" font-size="11.00">2 &gt;</text>
<polygon fill="black" stroke="black" points="57.5,-282.22 57.5,-298.22 57.5,-298.22 57.5,-282.22 57.5,-282.22"/>
<polygon fill="black" stroke="black" points="134.5,-282.22 134.5,-298.22 134.5,-298.22 134.5,-282.22 134.5,-282.22"/>
</a>
</g>
</g>
<!-- plot&#45;&gt;lookup_stand_layer -->
<g id="edge1" class="edge">
<title>plot:w&#45;&gt;lookup_stand_layer:e</title>
<path fill="none" stroke="black" d="M439.39,-568.45C350.6,-571.23 302.2,-596.94 236,-531.22 164.57,-460.3 297.15,-308.22 196.5,-308.22"/>
<polygon fill="black" stroke="black" points="446,-568.34 454.06,-571.81 450,-568.28 454,-568.22 454,-568.22 454,-568.22 450,-568.28 453.94,-564.62 446,-568.34 446,-568.34"/>
<ellipse fill="none" stroke="black" cx="442.8" cy="-568.39" rx="3.2" ry="3.2"/>
</g>
<!-- wzp_tree -->
<g id="node3" class="node">
<title>wzp_tree</title>
<g id="a_node3"><a xlink:href="../../tables/wzp_tree.html" xlink:title="wzp_tree" target="_top">
<polygon fill="#ffffff" stroke="transparent" points="819,-148.22 819,-382.22 992,-382.22 992,-148.22 819,-148.22"/>
<polygon fill="#f5f5f5" stroke="transparent" points="819.5,-360.22 819.5,-382.22 992.5,-382.22 992.5,-360.22 819.5,-360.22"/>
<polygon fill="none" stroke="black" points="819.5,-360.22 819.5,-382.22 992.5,-382.22 992.5,-360.22 819.5,-360.22"/>
<text text-anchor="start" x="824.5" y="-369.42" font-family="Helvetica,sans-Serif" font-weight="bold" font-size="11.00">wzp_tree</text>
<text text-anchor="start" x="950.5" y="-368.42" font-family="Helvetica,sans-Serif" font-size="11.00">[table]</text>
<polygon fill="none" stroke="black" points="819.5,-338.22 819.5,-360.22 992.5,-360.22 992.5,-338.22 819.5,-338.22"/>
<image xlink:href="../../images/primaryKeys.png" width="11px" height="12px" preserveAspectRatio="xMinYMin meet" x="824.5" y="-355.215"/>
<text text-anchor="start" x="839.5" y="-346.42" font-family="Helvetica,sans-Serif" font-size="11.00">id</text>
<polygon fill="none" stroke="black" points="819.5,-316.22 819.5,-338.22 992.5,-338.22 992.5,-316.22 819.5,-316.22"/>
<image xlink:href="../../images/foreignKeys.png" width="11px" height="12px" preserveAspectRatio="xMinYMin meet" x="824.5" y="-333.215"/>
<text text-anchor="start" x="839.5" y="-324.42" font-family="Helvetica,sans-Serif" font-size="11.00">plot_id</text>
<polygon fill="none" stroke="black" points="819.5,-294.22 819.5,-316.22 992.5,-316.22 992.5,-294.22 819.5,-294.22"/>
<image xlink:href="../../images/foreignKeys.png" width="11px" height="12px" preserveAspectRatio="xMinYMin meet" x="824.5" y="-311.215"/>
<text text-anchor="start" x="839.5" y="-302.42" font-family="Helvetica,sans-Serif" font-size="11.00">tree_state</text>
<polygon fill="none" stroke="black" points="819.5,-272.22 819.5,-294.22 992.5,-294.22 992.5,-272.22 819.5,-272.22"/>
<image xlink:href="../../images/foreignKeys.png" width="11px" height="12px" preserveAspectRatio="xMinYMin meet" x="824.5" y="-289.215"/>
<text text-anchor="start" x="839.5" y="-280.42" font-family="Helvetica,sans-Serif" font-size="11.00">tree_species</text>
<polygon fill="none" stroke="black" points="819.5,-250.22 819.5,-272.22 992.5,-272.22 992.5,-250.22 819.5,-250.22"/>
<image xlink:href="../../images/foreignKeys.png" width="11px" height="12px" preserveAspectRatio="xMinYMin meet" x="824.5" y="-267.215"/>
<text text-anchor="start" x="839.5" y="-258.42" font-family="Helvetica,sans-Serif" font-size="11.00">stem_breakage</text>
<polygon fill="none" stroke="black" points="819.5,-228.22 819.5,-250.22 992.5,-250.22 992.5,-228.22 819.5,-228.22"/>
<image xlink:href="../../images/foreignKeys.png" width="11px" height="12px" preserveAspectRatio="xMinYMin meet" x="824.5" y="-245.215"/>
<text text-anchor="start" x="839.5" y="-236.42" font-family="Helvetica,sans-Serif" font-size="11.00">stem_form</text>
<polygon fill="none" stroke="black" points="819.5,-206.22 819.5,-228.22 992.5,-228.22 992.5,-206.22 819.5,-206.22"/>
<image xlink:href="../../images/foreignKeys.png" width="11px" height="12px" preserveAspectRatio="xMinYMin meet" x="824.5" y="-223.215"/>
<text text-anchor="start" x="839.5" y="-214.42" font-family="Helvetica,sans-Serif" font-size="11.00">pruning</text>
<polygon fill="none" stroke="black" points="819.5,-184.22 819.5,-206.22 992.5,-206.22 992.5,-184.22 819.5,-184.22"/>
<image xlink:href="../../images/foreignKeys.png" width="11px" height="12px" preserveAspectRatio="xMinYMin meet" x="824.5" y="-201.215"/>
<text text-anchor="start" x="839.5" y="-192.42" font-family="Helvetica,sans-Serif" font-size="11.00">inventory_layer</text>
<polygon fill="none" stroke="black" points="819.5,-166.22 819.5,-184.22 992.5,-184.22 992.5,-166.22 819.5,-166.22"/>
<text text-anchor="start" x="822.5" y="-172.42" font-family="Helvetica,sans-Serif" font-size="11.00">...</text>
<polygon fill="#ffffff" stroke="transparent" points="819.5,-148.22 819.5,-166.22 992.5,-166.22 992.5,-148.22 819.5,-148.22"/>
<polygon fill="none" stroke="black" points="819.5,-148.22 819.5,-166.22 992.5,-166.22 992.5,-148.22 819.5,-148.22"/>
<polygon fill="#ffffff" stroke="transparent" points="820.5,-149.22 820.5,-165.22 871.5,-165.22 871.5,-149.22 820.5,-149.22"/>
<text text-anchor="start" x="822.5" y="-154.42" font-family="Helvetica,sans-Serif" font-size="11.00">&lt; 7</text>
<polygon fill="#ffffff" stroke="transparent" points="871.5,-149.22 871.5,-165.22 953.5,-165.22 953.5,-149.22 871.5,-149.22"/>
<text text-anchor="start" x="887" y="-154.42" font-family="Helvetica,sans-Serif" font-size="11.00">747 rows</text>
<polygon fill="#ffffff" stroke="transparent" points="953.5,-149.22 953.5,-165.22 991.5,-165.22 991.5,-149.22 953.5,-149.22"/>
<text text-anchor="start" x="981.5" y="-154.42" font-family="Helvetica,sans-Serif" font-size="11.00"> &#160;</text>
<polygon fill="black" stroke="black" points="871.5,-149.22 871.5,-165.22 871.5,-165.22 871.5,-149.22 871.5,-149.22"/>
<polygon fill="black" stroke="black" points="953.5,-149.22 953.5,-165.22 953.5,-165.22 953.5,-149.22 953.5,-149.22"/>
</a>
</g>
</g>
<!-- wzp_tree&#45;&gt;plot -->
<g id="edge3" class="edge">
<title>wzp_tree:w&#45;&gt;plot:e</title>
<path fill="none" stroke="black" d="M803.94,-328.7C739.7,-343.84 840.23,-470.65 778,-531.22 707.89,-599.45 658.84,-568.22 561,-568.22"/>
<polygon fill="black" stroke="black" points="810.54,-328.03 818.87,-330.8 814.52,-327.62 818.5,-327.22 818.5,-327.22 818.5,-327.22 814.52,-327.62 818.13,-323.63 810.54,-328.03 810.54,-328.03"/>
<ellipse fill="none" stroke="black" cx="807.36" cy="-328.35" rx="3.2" ry="3.2"/>
</g>
<!-- wzp_tree&#45;&gt;lookup_stand_layer -->
<g id="edge2" class="edge">
<title>wzp_tree:w&#45;&gt;lookup_stand_layer:e</title>
<path fill="none" stroke="black" d="M803.87,-192.59C769.12,-176.86 823.08,-94.68 778,-61.22 729.65,-25.32 281.82,-22.14 236,-61.22 193.7,-97.28 252.09,-308.22 196.5,-308.22"/>
<polygon fill="black" stroke="black" points="810.63,-193.8 817.86,-198.76 814.56,-194.51 818.5,-195.22 818.5,-195.22 818.5,-195.22 814.56,-194.51 819.14,-191.67 810.63,-193.8 810.63,-193.8"/>
<ellipse fill="none" stroke="black" cx="807.48" cy="-193.24" rx="3.2" ry="3.2"/>
</g>
<!-- lookup_pruning -->
<g id="node4" class="node">
<title>lookup_pruning</title>
<g id="a_node4"><a xlink:href="../../tables/lookup_pruning.html" xlink:title="lookup_pruning" target="_top">
<polygon fill="#ffffff" stroke="transparent" points="427,-72.22 427,-130.22 587,-130.22 587,-72.22 427,-72.22"/>
<polygon fill="#f5f5f5" stroke="transparent" points="427,-108.22 427,-130.22 587,-130.22 587,-108.22 427,-108.22"/>
<polygon fill="none" stroke="black" points="427,-108.22 427,-130.22 587,-130.22 587,-108.22 427,-108.22"/>
<text text-anchor="start" x="432" y="-117.42" font-family="Helvetica,sans-Serif" font-weight="bold" font-size="11.00">lookup_pruning</text>
<text text-anchor="start" x="545" y="-116.42" font-family="Helvetica,sans-Serif" font-size="11.00">[table]</text>
<polygon fill="none" stroke="black" points="427,-90.22 427,-108.22 587,-108.22 587,-90.22 427,-90.22"/>
<text text-anchor="start" x="430" y="-96.42" font-family="Helvetica,sans-Serif" font-size="11.00">...</text>
<polygon fill="#ffffff" stroke="transparent" points="427,-72.22 427,-90.22 587,-90.22 587,-72.22 427,-72.22"/>
<polygon fill="none" stroke="black" points="427,-72.22 427,-90.22 587,-90.22 587,-72.22 427,-72.22"/>
<polygon fill="#ffffff" stroke="transparent" points="428,-73.22 428,-89.22 467,-89.22 467,-73.22 428,-73.22"/>
<text text-anchor="start" x="430" y="-78.42" font-family="Helvetica,sans-Serif" font-size="11.00"> &#160;</text>
<polygon fill="#ffffff" stroke="transparent" points="467,-73.22 467,-89.22 535,-89.22 535,-73.22 467,-73.22"/>
<text text-anchor="start" x="482.5" y="-78.42" font-family="Helvetica,sans-Serif" font-size="11.00">0 rows</text>
<polygon fill="#ffffff" stroke="transparent" points="535,-73.22 535,-89.22 586,-89.22 586,-73.22 535,-73.22"/>
<text text-anchor="start" x="564" y="-78.42" font-family="Helvetica,sans-Serif" font-size="11.00">1 &gt;</text>
<polygon fill="black" stroke="black" points="467,-73.22 467,-89.22 467,-89.22 467,-73.22 467,-73.22"/>
<polygon fill="black" stroke="black" points="535,-73.22 535,-89.22 535,-89.22 535,-73.22 535,-73.22"/>
</a>
</g>
</g>
<!-- wzp_tree&#45;&gt;lookup_pruning -->
<g id="edge4" class="edge">
<title>wzp_tree:w&#45;&gt;lookup_pruning:e</title>
<path fill="none" stroke="black" d="M804.37,-213.26C787.73,-200.44 803.74,-159.77 778,-140.22 709.2,-87.96 674.39,-99.22 588,-99.22"/>
<polygon fill="black" stroke="black" points="810.8,-215.06 817.53,-220.68 814.65,-216.14 818.5,-217.22 818.5,-217.22 818.5,-217.22 814.65,-216.14 819.47,-213.75 810.8,-215.06 810.8,-215.06"/>
<ellipse fill="none" stroke="black" cx="807.72" cy="-214.19" rx="3.2" ry="3.2"/>
</g>
<!-- lookup_stem_breakage -->
<g id="node5" class="node">
<title>lookup_stem_breakage</title>
<g id="a_node5"><a xlink:href="../../tables/lookup_stem_breakage.html" xlink:title="lookup_stem_breakage" target="_top">
<polygon fill="#ffffff" stroke="transparent" points="244,-230.22 244,-362.22 770,-362.22 770,-230.22 244,-230.22"/>
<polygon fill="#f5f5f5" stroke="transparent" points="246,-338.22 246,-360.22 768,-360.22 768,-338.22 246,-338.22"/>
<polygon fill="none" stroke="black" points="246,-338.22 246,-360.22 768,-360.22 768,-338.22 246,-338.22"/>
<text text-anchor="start" x="251" y="-347.42" font-family="Helvetica,sans-Serif" font-weight="bold" font-size="11.00">lookup_stem_breakage</text>
<text text-anchor="start" x="726" y="-346.42" font-family="Helvetica,sans-Serif" font-size="11.00">[table]</text>
<polygon fill="none" stroke="black" points="246,-316.22 246,-338.22 434,-338.22 434,-316.22 246,-316.22"/>
<text text-anchor="start" x="266" y="-324.42" font-family="Helvetica,sans-Serif" font-size="11.00">name_de</text>
<polygon fill="none" stroke="black" points="434,-316.22 434,-338.22 768,-338.22 768,-316.22 434,-316.22"/>
<text text-anchor="start" x="437" y="-324.42" font-family="Helvetica,sans-Serif" font-size="11.00">varchar[150]</text>
<polygon fill="none" stroke="black" points="246,-294.22 246,-316.22 434,-316.22 434,-294.22 246,-294.22"/>
<text text-anchor="start" x="266" y="-302.42" font-family="Helvetica,sans-Serif" font-size="11.00">name_en</text>
<polygon fill="none" stroke="black" points="434,-294.22 434,-316.22 768,-316.22 768,-294.22 434,-294.22"/>
<text text-anchor="start" x="437" y="-302.42" font-family="Helvetica,sans-Serif" font-size="11.00">varchar[150]</text>
<polygon fill="none" stroke="black" points="246,-272.22 246,-294.22 434,-294.22 434,-272.22 246,-272.22"/>
<text text-anchor="start" x="266" y="-280.42" font-family="Helvetica,sans-Serif" font-size="11.00">sort</text>
<polygon fill="none" stroke="black" points="434,-272.22 434,-294.22 768,-294.22 768,-272.22 434,-272.22"/>
<text text-anchor="start" x="437" y="-280.42" font-family="Helvetica,sans-Serif" font-size="11.00">int4[10]</text>
<polygon fill="#ffffff" stroke="transparent" points="246,-250.22 246,-272.22 434,-272.22 434,-250.22 246,-250.22"/>
<polygon fill="none" stroke="black" points="246,-250.22 246,-272.22 434,-272.22 434,-250.22 246,-250.22"/>
<text text-anchor="start" x="266" y="-258.42" font-family="Helvetica,sans-Serif" font-size="11.00">abbreviation</text>
<polygon fill="none" stroke="black" points="434,-250.22 434,-272.22 768,-272.22 768,-250.22 434,-250.22"/>
<text text-anchor="start" x="437" y="-258.42" font-family="Helvetica,sans-Serif" font-size="11.00">&quot;private_ci2027_001&quot;.&quot;enum_stem_breakage&quot;[2147483647]</text>
<polygon fill="#ffffff" stroke="transparent" points="246,-232.22 246,-250.22 768,-250.22 768,-232.22 246,-232.22"/>
<polygon fill="none" stroke="black" points="246,-232.22 246,-250.22 768,-250.22 768,-232.22 246,-232.22"/>
<polygon fill="#ffffff" stroke="transparent" points="247,-233.22 247,-249.22 415,-249.22 415,-233.22 247,-233.22"/>
<text text-anchor="start" x="249" y="-238.42" font-family="Helvetica,sans-Serif" font-size="11.00">&lt; 0</text>
<polygon fill="#ffffff" stroke="transparent" points="415,-233.22 415,-249.22 600,-249.22 600,-233.22 415,-233.22"/>
<text text-anchor="start" x="489" y="-238.42" font-family="Helvetica,sans-Serif" font-size="11.00">0 rows</text>
<polygon fill="#ffffff" stroke="transparent" points="600,-233.22 600,-249.22 767,-249.22 767,-233.22 600,-233.22"/>
<text text-anchor="start" x="745" y="-238.42" font-family="Helvetica,sans-Serif" font-size="11.00">1 &gt;</text>
<polygon fill="black" stroke="black" points="415,-233.22 415,-249.22 415,-249.22 415,-233.22 415,-233.22"/>
<polygon fill="black" stroke="black" points="600,-233.22 600,-249.22 600,-249.22 600,-233.22 600,-233.22"/>
<polygon fill="none" stroke="black" stroke-width="2" points="245,-231.22 245,-361.22 769,-361.22 769,-231.22 245,-231.22"/>
</a>
</g>
</g>
<!-- wzp_tree&#45;&gt;lookup_stem_breakage -->
<g id="edge5" class="edge">
<title>wzp_tree:w&#45;&gt;lookup_stem_breakage:e</title>
<path fill="none" stroke="black" d="M803.84,-261.22C792.41,-261.22 785.16,-261.22 769,-261.22"/>
<polygon fill="black" stroke="black" points="810.5,-261.22 818.5,-264.82 814.5,-261.22 818.5,-261.22 818.5,-261.22 818.5,-261.22 814.5,-261.22 818.5,-257.62 810.5,-261.22 810.5,-261.22"/>
<ellipse fill="none" stroke="black" cx="807.3" cy="-261.22" rx="3.2" ry="3.2"/>
</g>
<!-- lookup_stem_form -->
<g id="node6" class="node">
<title>lookup_stem_form</title>
<g id="a_node6"><a xlink:href="../../tables/lookup_stem_form.html" xlink:title="lookup_stem_form" target="_top">
<polygon fill="#ffffff" stroke="transparent" points="417,-151.22 417,-209.22 597,-209.22 597,-151.22 417,-151.22"/>
<polygon fill="#f5f5f5" stroke="transparent" points="417,-187.22 417,-209.22 597,-209.22 597,-187.22 417,-187.22"/>
<polygon fill="none" stroke="black" points="417,-187.22 417,-209.22 597,-209.22 597,-187.22 417,-187.22"/>
<text text-anchor="start" x="422" y="-196.42" font-family="Helvetica,sans-Serif" font-weight="bold" font-size="11.00">lookup_stem_form</text>
<text text-anchor="start" x="555" y="-195.42" font-family="Helvetica,sans-Serif" font-size="11.00">[table]</text>
<polygon fill="none" stroke="black" points="417,-169.22 417,-187.22 597,-187.22 597,-169.22 417,-169.22"/>
<text text-anchor="start" x="420" y="-175.42" font-family="Helvetica,sans-Serif" font-size="11.00">...</text>
<polygon fill="#ffffff" stroke="transparent" points="417,-151.22 417,-169.22 597,-169.22 597,-151.22 417,-151.22"/>
<polygon fill="none" stroke="black" points="417,-151.22 417,-169.22 597,-169.22 597,-151.22 417,-151.22"/>
<polygon fill="#ffffff" stroke="transparent" points="418,-152.22 418,-168.22 464,-168.22 464,-152.22 418,-152.22"/>
<text text-anchor="start" x="420" y="-157.42" font-family="Helvetica,sans-Serif" font-size="11.00"> &#160;</text>
<polygon fill="#ffffff" stroke="transparent" points="464,-152.22 464,-168.22 539,-168.22 539,-152.22 464,-152.22"/>
<text text-anchor="start" x="483" y="-157.42" font-family="Helvetica,sans-Serif" font-size="11.00">0 rows</text>
<polygon fill="#ffffff" stroke="transparent" points="539,-152.22 539,-168.22 596,-168.22 596,-152.22 539,-152.22"/>
<text text-anchor="start" x="574" y="-157.42" font-family="Helvetica,sans-Serif" font-size="11.00">1 &gt;</text>
<polygon fill="black" stroke="black" points="464,-152.22 464,-168.22 464,-168.22 464,-152.22 464,-152.22"/>
<polygon fill="black" stroke="black" points="539,-152.22 539,-168.22 539,-168.22 539,-152.22 539,-152.22"/>
</a>
</g>
</g>
<!-- wzp_tree&#45;&gt;lookup_stem_form -->
<g id="edge6" class="edge">
<title>wzp_tree:w&#45;&gt;lookup_stem_form:e</title>
<path fill="none" stroke="black" d="M804.36,-236.26C795.93,-232.16 791.06,-224.75 778,-220.22 700.39,-193.29 680.15,-178.22 598,-178.22"/>
<polygon fill="black" stroke="black" points="810.67,-237.58 817.76,-242.74 814.58,-238.4 818.5,-239.22 818.5,-239.22 818.5,-239.22 814.58,-238.4 819.24,-235.69 810.67,-237.58 810.67,-237.58"/>
<ellipse fill="none" stroke="black" cx="807.54" cy="-236.92" rx="3.2" ry="3.2"/>
</g>
<!-- lookup_tree_species -->
<g id="node7" class="node">
<title>lookup_tree_species</title>
<g id="a_node7"><a xlink:href="../../tables/lookup_tree_species.html" xlink:title="lookup_tree_species" target="_top">
<polygon fill="#ffffff" stroke="transparent" points="410,-383.22 410,-441.22 604,-441.22 604,-383.22 410,-383.22"/>
<polygon fill="#f5f5f5" stroke="transparent" points="410,-419.22 410,-441.22 604,-441.22 604,-419.22 410,-419.22"/>
<polygon fill="none" stroke="black" points="410,-419.22 410,-441.22 604,-441.22 604,-419.22 410,-419.22"/>
<text text-anchor="start" x="415" y="-428.42" font-family="Helvetica,sans-Serif" font-weight="bold" font-size="11.00">lookup_tree_species</text>
<text text-anchor="start" x="562" y="-427.42" font-family="Helvetica,sans-Serif" font-size="11.00">[table]</text>
<polygon fill="none" stroke="black" points="410,-401.22 410,-419.22 604,-419.22 604,-401.22 410,-401.22"/>
<text text-anchor="start" x="413" y="-407.42" font-family="Helvetica,sans-Serif" font-size="11.00">...</text>
<polygon fill="#ffffff" stroke="transparent" points="410,-383.22 410,-401.22 604,-401.22 604,-383.22 410,-383.22"/>
<polygon fill="none" stroke="black" points="410,-383.22 410,-401.22 604,-401.22 604,-383.22 410,-383.22"/>
<polygon fill="#ffffff" stroke="transparent" points="411,-384.22 411,-400.22 457,-400.22 457,-384.22 411,-384.22"/>
<text text-anchor="start" x="413" y="-389.42" font-family="Helvetica,sans-Serif" font-size="11.00"> &#160;</text>
<polygon fill="#ffffff" stroke="transparent" points="457,-384.22 457,-400.22 546,-400.22 546,-384.22 457,-384.22"/>
<text text-anchor="start" x="476" y="-389.42" font-family="Helvetica,sans-Serif" font-size="11.00">125 rows</text>
<polygon fill="#ffffff" stroke="transparent" points="546,-384.22 546,-400.22 603,-400.22 603,-384.22 546,-384.22"/>
<text text-anchor="start" x="581" y="-389.42" font-family="Helvetica,sans-Serif" font-size="11.00">3 &gt;</text>
<polygon fill="black" stroke="black" points="457,-384.22 457,-400.22 457,-400.22 457,-384.22 457,-384.22"/>
<polygon fill="black" stroke="black" points="546,-384.22 546,-400.22 546,-400.22 546,-384.22 546,-384.22"/>
</a>
</g>
</g>
<!-- wzp_tree&#45;&gt;lookup_tree_species -->
<g id="edge7" class="edge">
<title>wzp_tree:w&#45;&gt;lookup_tree_species:e</title>
<path fill="none" stroke="black" d="M804.4,-286.65C783.76,-300.09 807.33,-349.53 778,-373.22 716.83,-422.61 683.63,-410.22 605,-410.22"/>
<polygon fill="black" stroke="black" points="810.73,-285.11 819.35,-286.71 814.61,-284.16 818.5,-283.22 818.5,-283.22 818.5,-283.22 814.61,-284.16 817.65,-279.72 810.73,-285.11 810.73,-285.11"/>
<ellipse fill="none" stroke="black" cx="807.62" cy="-285.86" rx="3.2" ry="3.2"/>
</g>
<!-- lookup_tree_state -->
<g id="node8" class="node">
<title>lookup_tree_state</title>
<g id="a_node8"><a xlink:href="../../tables/lookup_tree_state.html" xlink:title="lookup_tree_state" target="_top">
<polygon fill="#ffffff" stroke="transparent" points="418.5,-462.22 418.5,-520.22 595.5,-520.22 595.5,-462.22 418.5,-462.22"/>
<polygon fill="#f5f5f5" stroke="transparent" points="419,-498.22 419,-520.22 596,-520.22 596,-498.22 419,-498.22"/>
<polygon fill="none" stroke="black" points="419,-498.22 419,-520.22 596,-520.22 596,-498.22 419,-498.22"/>
<text text-anchor="start" x="424" y="-507.42" font-family="Helvetica,sans-Serif" font-weight="bold" font-size="11.00">lookup_tree_state</text>
<text text-anchor="start" x="554" y="-506.42" font-family="Helvetica,sans-Serif" font-size="11.00">[table]</text>
<polygon fill="none" stroke="black" points="419,-480.22 419,-498.22 596,-498.22 596,-480.22 419,-480.22"/>
<text text-anchor="start" x="422" y="-486.42" font-family="Helvetica,sans-Serif" font-size="11.00">...</text>
<polygon fill="#ffffff" stroke="transparent" points="419,-462.22 419,-480.22 596,-480.22 596,-462.22 419,-462.22"/>
<polygon fill="none" stroke="black" points="419,-462.22 419,-480.22 596,-480.22 596,-462.22 419,-462.22"/>
<polygon fill="#ffffff" stroke="transparent" points="420,-463.22 420,-479.22 465,-479.22 465,-463.22 420,-463.22"/>
<text text-anchor="start" x="422" y="-468.42" font-family="Helvetica,sans-Serif" font-size="11.00"> &#160;</text>
<polygon fill="#ffffff" stroke="transparent" points="465,-463.22 465,-479.22 539,-479.22 539,-463.22 465,-463.22"/>
<text text-anchor="start" x="483.5" y="-468.42" font-family="Helvetica,sans-Serif" font-size="11.00">0 rows</text>
<polygon fill="#ffffff" stroke="transparent" points="539,-463.22 539,-479.22 595,-479.22 595,-463.22 539,-463.22"/>
<text text-anchor="start" x="573" y="-468.42" font-family="Helvetica,sans-Serif" font-size="11.00">1 &gt;</text>
<polygon fill="black" stroke="black" points="465,-463.22 465,-479.22 465,-479.22 465,-463.22 465,-463.22"/>
<polygon fill="black" stroke="black" points="539,-463.22 539,-479.22 539,-479.22 539,-463.22 539,-463.22"/>
</a>
</g>
</g>
<!-- wzp_tree&#45;&gt;lookup_tree_state -->
<g id="edge8" class="edge">
<title>wzp_tree:w&#45;&gt;lookup_tree_state:e</title>
<path fill="none" stroke="black" d="M804.06,-307.35C762.99,-322.12 823.25,-409.91 778,-452.22 718.02,-508.29 679.11,-489.22 597,-489.22"/>
<polygon fill="black" stroke="black" points="810.59,-306.38 819.03,-308.78 814.54,-305.8 818.5,-305.22 818.5,-305.22 818.5,-305.22 814.54,-305.8 817.97,-301.65 810.59,-306.38 810.59,-306.38"/>
<ellipse fill="none" stroke="black" cx="807.42" cy="-306.85" rx="3.2" ry="3.2"/>
</g>
</g>
</svg>
