<?xml version="1.0" encoding="UTF-8" standalone="no"?>
<!DOCTYPE svg PUBLIC "-//W3C//DTD SVG 1.1//EN"
 "http://www.w3.org/Graphics/SVG/1.1/DTD/svg11.dtd">
<!-- Generated by graphviz version 2.43.0 (0)
 -->
<!-- Title: twoDegreesRelationshipsDiagram Pages: 1 -->
<svg width="684pt" height="440pt"
 viewBox="0.00 0.00 684.00 440.00" xmlns="http://www.w3.org/2000/svg" xmlns:xlink="http://www.w3.org/1999/xlink">
<g id="graph0" class="graph" transform="scale(1 1) rotate(0) translate(4 436)">
<title>twoDegreesRelationshipsDiagram</title>
<polygon fill="#ffffff" stroke="transparent" points="-4,4 -4,-436 680,-436 680,4 -4,4"/>
<text text-anchor="middle" x="79.5" y="-7.2" font-family="Helvetica,sans-Serif" font-size="11.00">Generated by SchemaSpy</text>
<!-- edges -->
<g id="node1" class="node">
<title>edges</title>
<g id="a_node1"><a xlink:href="../../tables/edges.html" xlink:title="edges" target="_top">
<polygon fill="#ffffff" stroke="transparent" points="559,-104 559,-272 668,-272 668,-104 559,-104"/>
<polygon fill="#f5f5f5" stroke="transparent" points="559.5,-250 559.5,-272 668.5,-272 668.5,-250 559.5,-250"/>
<polygon fill="none" stroke="black" points="559.5,-250 559.5,-272 668.5,-272 668.5,-250 559.5,-250"/>
<text text-anchor="start" x="564.5" y="-259.2" font-family="Helvetica,sans-Serif" font-weight="bold" font-size="11.00">edges</text>
<text text-anchor="start" x="626.5" y="-258.2" font-family="Helvetica,sans-Serif" font-size="11.00">[table]</text>
<polygon fill="none" stroke="black" points="559.5,-228 559.5,-250 668.5,-250 668.5,-228 559.5,-228"/>
<image xlink:href="../../images/primaryKeys.png" width="11px" height="12px" preserveAspectRatio="xMinYMin meet" x="564.5" y="-245"/>
<text text-anchor="start" x="579.5" y="-236.2" font-family="Helvetica,sans-Serif" font-size="11.00">id</text>
<polygon fill="none" stroke="black" points="559.5,-206 559.5,-228 668.5,-228 668.5,-206 559.5,-206"/>
<image xlink:href="../../images/foreignKeys.png" width="11px" height="12px" preserveAspectRatio="xMinYMin meet" x="564.5" y="-223"/>
<text text-anchor="start" x="579.5" y="-214.2" font-family="Helvetica,sans-Serif" font-size="11.00">plot_id</text>
<polygon fill="none" stroke="black" points="559.5,-184 559.5,-206 668.5,-206 668.5,-184 559.5,-184"/>
<image xlink:href="../../images/foreignKeys.png" width="11px" height="12px" preserveAspectRatio="xMinYMin meet" x="564.5" y="-201"/>
<text text-anchor="start" x="579.5" y="-192.2" font-family="Helvetica,sans-Serif" font-size="11.00">edge_status</text>
<polygon fill="none" stroke="black" points="559.5,-162 559.5,-184 668.5,-184 668.5,-162 559.5,-162"/>
<image xlink:href="../../images/foreignKeys.png" width="11px" height="12px" preserveAspectRatio="xMinYMin meet" x="564.5" y="-179"/>
<text text-anchor="start" x="579.5" y="-170.2" font-family="Helvetica,sans-Serif" font-size="11.00">edge_type</text>
<polygon fill="none" stroke="black" points="559.5,-140 559.5,-162 668.5,-162 668.5,-140 559.5,-140"/>
<image xlink:href="../../images/foreignKeys.png" width="11px" height="12px" preserveAspectRatio="xMinYMin meet" x="564.5" y="-157"/>
<text text-anchor="start" x="579.5" y="-148.2" font-family="Helvetica,sans-Serif" font-size="11.00">terrain</text>
<polygon fill="none" stroke="black" points="559.5,-122 559.5,-140 668.5,-140 668.5,-122 559.5,-122"/>
<text text-anchor="start" x="562.5" y="-128.2" font-family="Helvetica,sans-Serif" font-size="11.00">...</text>
<polygon fill="#ffffff" stroke="transparent" points="559.5,-104 559.5,-122 668.5,-122 668.5,-104 559.5,-104"/>
<polygon fill="none" stroke="black" points="559.5,-104 559.5,-122 668.5,-122 668.5,-104 559.5,-104"/>
<polygon fill="#ffffff" stroke="transparent" points="560.5,-105 560.5,-121 594.5,-121 594.5,-105 560.5,-105"/>
<text text-anchor="start" x="562.5" y="-110.2" font-family="Helvetica,sans-Serif" font-size="11.00">&lt; 4</text>
<polygon fill="#ffffff" stroke="transparent" points="594.5,-105 594.5,-121 645.5,-121 645.5,-105 594.5,-105"/>
<text text-anchor="start" x="601.5" y="-110.2" font-family="Helvetica,sans-Serif" font-size="11.00">0 rows</text>
<polygon fill="#ffffff" stroke="transparent" points="645.5,-105 645.5,-121 667.5,-121 667.5,-105 645.5,-105"/>
<text text-anchor="start" x="657.5" y="-110.2" font-family="Helvetica,sans-Serif" font-size="11.00"> &#160;</text>
<polygon fill="black" stroke="black" points="594.5,-105 594.5,-121 594.5,-121 594.5,-105 594.5,-105"/>
<polygon fill="black" stroke="black" points="645.5,-105 645.5,-121 645.5,-121 645.5,-105 645.5,-105"/>
</a>
</g>
</g>
<!-- lookup_edge_status -->
<g id="node2" class="node">
<title>lookup_edge_status</title>
<g id="a_node2"><a xlink:href="../../tables/lookup_edge_status.html" xlink:title="lookup_edge_status" target="_top">
<polygon fill="#ffffff" stroke="transparent" points="8,-195 8,-349 510,-349 510,-195 8,-195"/>
<polygon fill="#f5f5f5" stroke="transparent" points="10,-325 10,-347 508,-347 508,-325 10,-325"/>
<polygon fill="none" stroke="black" points="10,-325 10,-347 508,-347 508,-325 10,-325"/>
<text text-anchor="start" x="15" y="-334.2" font-family="Helvetica,sans-Serif" font-weight="bold" font-size="11.00">lookup_edge_status</text>
<text text-anchor="start" x="466" y="-333.2" font-family="Helvetica,sans-Serif" font-size="11.00">[table]</text>
<polygon fill="none" stroke="black" points="10,-303 10,-325 175,-325 175,-303 10,-303"/>
<text text-anchor="start" x="30" y="-311.2" font-family="Helvetica,sans-Serif" font-size="11.00">name_de</text>
<polygon fill="none" stroke="black" points="175,-303 175,-325 508,-325 508,-303 175,-303"/>
<text text-anchor="start" x="178" y="-311.2" font-family="Helvetica,sans-Serif" font-size="11.00">varchar[150]</text>
<polygon fill="none" stroke="black" points="10,-281 10,-303 175,-303 175,-281 10,-281"/>
<text text-anchor="start" x="30" y="-289.2" font-family="Helvetica,sans-Serif" font-size="11.00">name_en</text>
<polygon fill="none" stroke="black" points="175,-281 175,-303 508,-303 508,-281 175,-281"/>
<text text-anchor="start" x="178" y="-289.2" font-family="Helvetica,sans-Serif" font-size="11.00">varchar[150]</text>
<polygon fill="none" stroke="black" points="10,-259 10,-281 175,-281 175,-259 10,-259"/>
<text text-anchor="start" x="30" y="-267.2" font-family="Helvetica,sans-Serif" font-size="11.00">interval</text>
<polygon fill="none" stroke="black" points="175,-259 175,-281 508,-281 508,-259 175,-259"/>
<text text-anchor="start" x="178" y="-267.2" font-family="Helvetica,sans-Serif" font-size="11.00">&quot;private_ci2027_001&quot;.&quot;_enum_interval_name&quot;[2147483647]</text>
<polygon fill="none" stroke="black" points="10,-237 10,-259 175,-259 175,-237 10,-237"/>
<text text-anchor="start" x="30" y="-245.2" font-family="Helvetica,sans-Serif" font-size="11.00">sort</text>
<polygon fill="none" stroke="black" points="175,-237 175,-259 508,-259 508,-237 175,-237"/>
<text text-anchor="start" x="178" y="-245.2" font-family="Helvetica,sans-Serif" font-size="11.00">int4[10]</text>
<polygon fill="#ffffff" stroke="transparent" points="10,-215 10,-237 175,-237 175,-215 10,-215"/>
<polygon fill="none" stroke="black" points="10,-215 10,-237 175,-237 175,-215 10,-215"/>
<text text-anchor="start" x="30" y="-223.2" font-family="Helvetica,sans-Serif" font-size="11.00">abbreviation</text>
<polygon fill="none" stroke="black" points="175,-215 175,-237 508,-237 508,-215 175,-215"/>
<text text-anchor="start" x="178" y="-223.2" font-family="Helvetica,sans-Serif" font-size="11.00">&quot;private_ci2027_001&quot;.&quot;enum_edge_status&quot;[2147483647]</text>
<polygon fill="#ffffff" stroke="transparent" points="10,-197 10,-215 508,-215 508,-197 10,-197"/>
<polygon fill="none" stroke="black" points="10,-197 10,-215 508,-215 508,-197 10,-197"/>
<polygon fill="#ffffff" stroke="transparent" points="11,-198 11,-214 171,-214 171,-198 11,-198"/>
<text text-anchor="start" x="13" y="-203.2" font-family="Helvetica,sans-Serif" font-size="11.00">&lt; 0</text>
<polygon fill="#ffffff" stroke="transparent" points="171,-198 171,-214 348,-214 348,-198 171,-198"/>
<text text-anchor="start" x="241" y="-203.2" font-family="Helvetica,sans-Serif" font-size="11.00">0 rows</text>
<polygon fill="#ffffff" stroke="transparent" points="348,-198 348,-214 507,-214 507,-198 348,-198"/>
<text text-anchor="start" x="485" y="-203.2" font-family="Helvetica,sans-Serif" font-size="11.00">1 &gt;</text>
<polygon fill="black" stroke="black" points="171,-198 171,-214 171,-214 171,-198 171,-198"/>
<polygon fill="black" stroke="black" points="348,-198 348,-214 348,-214 348,-198 348,-198"/>
<polygon fill="none" stroke="black" stroke-width="2" points="9,-196 9,-348 509,-348 509,-196 9,-196"/>
</a>
</g>
</g>
<!-- edges&#45;&gt;lookup_edge_status -->
<g id="edge1" class="edge">
<title>edges:w&#45;&gt;lookup_edge_status:e</title>
<path fill="none" stroke="black" d="M544.57,-199.05C532.18,-207.46 529.08,-226 509,-226"/>
<polygon fill="black" stroke="black" points="550.82,-197.23 559.51,-198.46 554.66,-196.12 558.5,-195 558.5,-195 558.5,-195 554.66,-196.12 557.49,-191.54 550.82,-197.23 550.82,-197.23"/>
<ellipse fill="none" stroke="black" cx="547.75" cy="-198.13" rx="3.2" ry="3.2"/>
</g>
<!-- lookup_edge_type -->
<g id="node3" class="node">
<title>lookup_edge_type</title>
<g id="a_node3"><a xlink:href="../../tables/lookup_edge_type.html" xlink:title="lookup_edge_type" target="_top">
<polygon fill="#ffffff" stroke="transparent" points="170,-116 170,-174 348,-174 348,-116 170,-116"/>
<polygon fill="#f5f5f5" stroke="transparent" points="170,-152 170,-174 348,-174 348,-152 170,-152"/>
<polygon fill="none" stroke="black" points="170,-152 170,-174 348,-174 348,-152 170,-152"/>
<text text-anchor="start" x="175" y="-161.2" font-family="Helvetica,sans-Serif" font-weight="bold" font-size="11.00">lookup_edge_type</text>
<text text-anchor="start" x="306" y="-160.2" font-family="Helvetica,sans-Serif" font-size="11.00">[table]</text>
<polygon fill="none" stroke="black" points="170,-134 170,-152 348,-152 348,-134 170,-134"/>
<text text-anchor="start" x="173" y="-140.2" font-family="Helvetica,sans-Serif" font-size="11.00">...</text>
<polygon fill="#ffffff" stroke="transparent" points="170,-116 170,-134 348,-134 348,-116 170,-116"/>
<polygon fill="none" stroke="black" points="170,-116 170,-134 348,-134 348,-116 170,-116"/>
<polygon fill="#ffffff" stroke="transparent" points="171,-117 171,-133 216,-133 216,-117 171,-117"/>
<text text-anchor="start" x="173" y="-122.2" font-family="Helvetica,sans-Serif" font-size="11.00"> &#160;</text>
<polygon fill="#ffffff" stroke="transparent" points="216,-117 216,-133 290,-133 290,-117 216,-117"/>
<text text-anchor="start" x="234.5" y="-122.2" font-family="Helvetica,sans-Serif" font-size="11.00">0 rows</text>
<polygon fill="#ffffff" stroke="transparent" points="290,-117 290,-133 347,-133 347,-117 290,-117"/>
<text text-anchor="start" x="325" y="-122.2" font-family="Helvetica,sans-Serif" font-size="11.00">1 &gt;</text>
<polygon fill="black" stroke="black" points="216,-117 216,-133 216,-133 216,-117 216,-117"/>
<polygon fill="black" stroke="black" points="290,-117 290,-133 290,-133 290,-117 290,-117"/>
</a>
</g>
</g>
<!-- edges&#45;&gt;lookup_edge_type -->
<g id="edge2" class="edge">
<title>edges:w&#45;&gt;lookup_edge_type:e</title>
<path fill="none" stroke="black" d="M543.95,-172.75C461.93,-169.86 438.01,-143 349,-143"/>
<polygon fill="black" stroke="black" points="550.5,-172.86 558.44,-176.6 554.5,-172.93 558.5,-173 558.5,-173 558.5,-173 554.5,-172.93 558.56,-169.4 550.5,-172.86 550.5,-172.86"/>
<ellipse fill="none" stroke="black" cx="547.3" cy="-172.81" rx="3.2" ry="3.2"/>
</g>
<!-- plot -->
<g id="node4" class="node">
<title>plot</title>
<g id="a_node4"><a xlink:href="../../tables/plot.html" xlink:title="plot" target="_top">
<polygon fill="#ffffff" stroke="transparent" points="210,-370 210,-428 308,-428 308,-370 210,-370"/>
<polygon fill="#f5f5f5" stroke="transparent" points="210,-406 210,-428 308,-428 308,-406 210,-406"/>
<polygon fill="none" stroke="black" points="210,-406 210,-428 308,-428 308,-406 210,-406"/>
<text text-anchor="start" x="214.5" y="-415.2" font-family="Helvetica,sans-Serif" font-weight="bold" font-size="11.00">plot</text>
<text text-anchor="start" x="266" y="-414.2" font-family="Helvetica,sans-Serif" font-size="11.00">[table]</text>
<polygon fill="none" stroke="black" points="210,-388 210,-406 308,-406 308,-388 210,-388"/>
<text text-anchor="start" x="213" y="-394.2" font-family="Helvetica,sans-Serif" font-size="11.00">...</text>
<polygon fill="#ffffff" stroke="transparent" points="210,-370 210,-388 308,-388 308,-370 210,-370"/>
<polygon fill="none" stroke="black" points="210,-370 210,-388 308,-388 308,-370 210,-370"/>
<polygon fill="#ffffff" stroke="transparent" points="211,-371 211,-387 242,-387 242,-371 211,-371"/>
<text text-anchor="start" x="213" y="-376.2" font-family="Helvetica,sans-Serif" font-size="11.00">&lt; 16</text>
<polygon fill="#ffffff" stroke="transparent" points="242,-371 242,-387 283,-387 283,-371 242,-371"/>
<text text-anchor="start" x="244" y="-376.2" font-family="Helvetica,sans-Serif" font-size="11.00">0 rows</text>
<polygon fill="#ffffff" stroke="transparent" points="283,-371 283,-387 307,-387 307,-371 283,-371"/>
<text text-anchor="start" x="285" y="-376.2" font-family="Helvetica,sans-Serif" font-size="11.00">7 &gt;</text>
<polygon fill="black" stroke="black" points="242,-371 242,-387 242,-387 242,-371 242,-371"/>
<polygon fill="black" stroke="black" points="283,-371 283,-387 283,-387 283,-371 283,-371"/>
</a>
</g>
</g>
<!-- edges&#45;&gt;plot -->
<g id="edge3" class="edge">
<title>edges:w&#45;&gt;plot:e</title>
<path fill="none" stroke="black" d="M544.16,-219.18C504.6,-233.93 562.69,-319.6 518,-360 448.02,-423.26 403.33,-397 309,-397"/>
<polygon fill="black" stroke="black" points="550.59,-218.2 559.04,-220.56 554.55,-217.6 558.5,-217 558.5,-217 558.5,-217 554.55,-217.6 557.96,-213.44 550.59,-218.2 550.59,-218.2"/>
<ellipse fill="none" stroke="black" cx="547.43" cy="-218.69" rx="3.2" ry="3.2"/>
</g>
<!-- lookup_terrain -->
<g id="node5" class="node">
<title>lookup_terrain</title>
<g id="a_node5"><a xlink:href="../../tables/lookup_terrain.html" xlink:title="lookup_terrain" target="_top">
<polygon fill="#ffffff" stroke="transparent" points="182.5,-37 182.5,-95 335.5,-95 335.5,-37 182.5,-37"/>
<polygon fill="#f5f5f5" stroke="transparent" points="183,-73 183,-95 336,-95 336,-73 183,-73"/>
<polygon fill="none" stroke="black" points="183,-73 183,-95 336,-95 336,-73 183,-73"/>
<text text-anchor="start" x="188" y="-82.2" font-family="Helvetica,sans-Serif" font-weight="bold" font-size="11.00">lookup_terrain</text>
<text text-anchor="start" x="294" y="-81.2" font-family="Helvetica,sans-Serif" font-size="11.00">[table]</text>
<polygon fill="none" stroke="black" points="183,-55 183,-73 336,-73 336,-55 183,-55"/>
<text text-anchor="start" x="186" y="-61.2" font-family="Helvetica,sans-Serif" font-size="11.00">...</text>
<polygon fill="#ffffff" stroke="transparent" points="183,-37 183,-55 336,-55 336,-37 183,-37"/>
<polygon fill="none" stroke="black" points="183,-37 183,-55 336,-55 336,-37 183,-37"/>
<polygon fill="#ffffff" stroke="transparent" points="184,-38 184,-54 221,-54 221,-38 184,-38"/>
<text text-anchor="start" x="186" y="-43.2" font-family="Helvetica,sans-Serif" font-size="11.00"> &#160;</text>
<polygon fill="#ffffff" stroke="transparent" points="221,-38 221,-54 287,-54 287,-38 221,-38"/>
<text text-anchor="start" x="235.5" y="-43.2" font-family="Helvetica,sans-Serif" font-size="11.00">0 rows</text>
<polygon fill="#ffffff" stroke="transparent" points="287,-38 287,-54 335,-54 335,-38 287,-38"/>
<text text-anchor="start" x="313" y="-43.2" font-family="Helvetica,sans-Serif" font-size="11.00">1 &gt;</text>
<polygon fill="black" stroke="black" points="221,-38 221,-54 221,-54 221,-38 221,-38"/>
<polygon fill="black" stroke="black" points="287,-38 287,-54 287,-54 287,-38 287,-38"/>
</a>
</g>
</g>
<!-- edges&#45;&gt;lookup_terrain -->
<g id="edge4" class="edge">
<title>edges:w&#45;&gt;lookup_terrain:e</title>
<path fill="none" stroke="black" d="M544.7,-146.47C534.28,-137.28 535.74,-116.47 518,-106 446.87,-64.04 419.58,-64 337,-64"/>
<polygon fill="black" stroke="black" points="550.9,-148.5 557.38,-154.42 554.7,-149.75 558.5,-151 558.5,-151 558.5,-151 554.7,-149.75 559.62,-147.58 550.9,-148.5 550.9,-148.5"/>
<ellipse fill="none" stroke="black" cx="547.86" cy="-147.5" rx="3.2" ry="3.2"/>
</g>
</g>
</svg>
