<?xml version="1.0" encoding="UTF-8" standalone="no"?>
<!DOCTYPE svg PUBLIC "-//W3C//DTD SVG 1.1//EN"
 "http://www.w3.org/Graphics/SVG/1.1/DTD/svg11.dtd">
<!-- Generated by graphviz version 2.43.0 (0)
 -->
<!-- Title: oneDegreeRelationshipsDiagram Pages: 1 -->
<svg width="770pt" height="239pt"
 viewBox="0.00 0.00 770.00 239.00" xmlns="http://www.w3.org/2000/svg" xmlns:xlink="http://www.w3.org/1999/xlink">
<g id="graph0" class="graph" transform="scale(1 1) rotate(0) translate(4 235)">
<title>oneDegreeRelationshipsDiagram</title>
<polygon fill="#ffffff" stroke="transparent" points="-4,4 -4,-235 766,-235 766,4 -4,4"/>
<text text-anchor="middle" x="79.5" y="-7.2" font-family="Helvetica,sans-Serif" font-size="11.00">Generated by SchemaSpy</text>
<!-- regeneration -->
<g id="node1" class="node">
<title>regeneration</title>
<g id="a_node1"><a xlink:href="../../tables/regeneration.html" xlink:title="regeneration" target="_top">
<polygon fill="#ffffff" stroke="transparent" points="579,-37 579,-227 754,-227 754,-37 579,-37"/>
<polygon fill="#f5f5f5" stroke="transparent" points="579.5,-205 579.5,-227 754.5,-227 754.5,-205 579.5,-205"/>
<polygon fill="none" stroke="black" points="579.5,-205 579.5,-227 754.5,-227 754.5,-205 579.5,-205"/>
<text text-anchor="start" x="584.5" y="-214.2" font-family="Helvetica,sans-Serif" font-weight="bold" font-size="11.00">regeneration</text>
<text text-anchor="start" x="712.5" y="-213.2" font-family="Helvetica,sans-Serif" font-size="11.00">[table]</text>
<polygon fill="none" stroke="black" points="579.5,-183 579.5,-205 754.5,-205 754.5,-183 579.5,-183"/>
<image xlink:href="../../images/primaryKeys.png" width="11px" height="12px" preserveAspectRatio="xMinYMin meet" x="584.5" y="-200"/>
<text text-anchor="start" x="599.5" y="-191.2" font-family="Helvetica,sans-Serif" font-size="11.00">id</text>
<polygon fill="none" stroke="black" points="579.5,-161 579.5,-183 754.5,-183 754.5,-161 579.5,-161"/>
<image xlink:href="../../images/foreignKeys.png" width="11px" height="12px" preserveAspectRatio="xMinYMin meet" x="584.5" y="-178"/>
<text text-anchor="start" x="599.5" y="-169.2" font-family="Helvetica,sans-Serif" font-size="11.00">plot_id</text>
<polygon fill="none" stroke="black" points="579.5,-139 579.5,-161 754.5,-161 754.5,-139 579.5,-139"/>
<image xlink:href="../../images/foreignKeys.png" width="11px" height="12px" preserveAspectRatio="xMinYMin meet" x="584.5" y="-156"/>
<text text-anchor="start" x="599.5" y="-147.2" font-family="Helvetica,sans-Serif" font-size="11.00">plot_location_id</text>
<polygon fill="none" stroke="black" points="579.5,-117 579.5,-139 754.5,-139 754.5,-117 579.5,-117"/>
<image xlink:href="../../images/foreignKeys.png" width="11px" height="12px" preserveAspectRatio="xMinYMin meet" x="584.5" y="-134"/>
<text text-anchor="start" x="599.5" y="-125.2" font-family="Helvetica,sans-Serif" font-size="11.00">tree_species</text>
<polygon fill="none" stroke="black" points="579.5,-95 579.5,-117 754.5,-117 754.5,-95 579.5,-95"/>
<image xlink:href="../../images/foreignKeys.png" width="11px" height="12px" preserveAspectRatio="xMinYMin meet" x="584.5" y="-112"/>
<text text-anchor="start" x="599.5" y="-103.2" font-family="Helvetica,sans-Serif" font-size="11.00">browsing</text>
<polygon fill="none" stroke="black" points="579.5,-73 579.5,-95 754.5,-95 754.5,-73 579.5,-73"/>
<image xlink:href="../../images/foreignKeys.png" width="11px" height="12px" preserveAspectRatio="xMinYMin meet" x="584.5" y="-90"/>
<text text-anchor="start" x="599.5" y="-81.2" font-family="Helvetica,sans-Serif" font-size="11.00">tree_size_class</text>
<polygon fill="none" stroke="black" points="579.5,-55 579.5,-73 754.5,-73 754.5,-55 579.5,-55"/>
<text text-anchor="start" x="582.5" y="-61.2" font-family="Helvetica,sans-Serif" font-size="11.00">...</text>
<polygon fill="#ffffff" stroke="transparent" points="579.5,-37 579.5,-55 754.5,-55 754.5,-37 579.5,-37"/>
<polygon fill="none" stroke="black" points="579.5,-37 579.5,-55 754.5,-55 754.5,-37 579.5,-37"/>
<polygon fill="#ffffff" stroke="transparent" points="580.5,-38 580.5,-54 636.5,-54 636.5,-38 580.5,-38"/>
<text text-anchor="start" x="582.5" y="-43.2" font-family="Helvetica,sans-Serif" font-size="11.00">&lt; 5</text>
<polygon fill="#ffffff" stroke="transparent" points="636.5,-38 636.5,-54 709.5,-54 709.5,-38 636.5,-38"/>
<text text-anchor="start" x="654.5" y="-43.2" font-family="Helvetica,sans-Serif" font-size="11.00">0 rows</text>
<polygon fill="#ffffff" stroke="transparent" points="709.5,-38 709.5,-54 753.5,-54 753.5,-38 709.5,-38"/>
<text text-anchor="start" x="743.5" y="-43.2" font-family="Helvetica,sans-Serif" font-size="11.00"> &#160;</text>
<polygon fill="black" stroke="black" points="636.5,-38 636.5,-54 636.5,-54 636.5,-38 636.5,-38"/>
<polygon fill="black" stroke="black" points="709.5,-38 709.5,-54 709.5,-54 709.5,-38 709.5,-38"/>
</a>
</g>
</g>
<!-- lookup_tree_size_class -->
<g id="node2" class="node">
<title>lookup_tree_size_class</title>
<g id="a_node2"><a xlink:href="../../tables/lookup_tree_size_class.html" xlink:title="lookup_tree_size_class" target="_top">
<polygon fill="#ffffff" stroke="transparent" points="8,-53 8,-207 530,-207 530,-53 8,-53"/>
<polygon fill="#f5f5f5" stroke="transparent" points="10,-183 10,-205 528,-205 528,-183 10,-183"/>
<polygon fill="none" stroke="black" points="10,-183 10,-205 528,-205 528,-183 10,-183"/>
<text text-anchor="start" x="15" y="-192.2" font-family="Helvetica,sans-Serif" font-weight="bold" font-size="11.00">lookup_tree_size_class</text>
<text text-anchor="start" x="486" y="-191.2" font-family="Helvetica,sans-Serif" font-size="11.00">[table]</text>
<polygon fill="none" stroke="black" points="10,-161 10,-183 195,-183 195,-161 10,-161"/>
<text text-anchor="start" x="30" y="-169.2" font-family="Helvetica,sans-Serif" font-size="11.00">name_de</text>
<polygon fill="none" stroke="black" points="195,-161 195,-183 528,-183 528,-161 195,-161"/>
<text text-anchor="start" x="198" y="-169.2" font-family="Helvetica,sans-Serif" font-size="11.00">varchar[150]</text>
<polygon fill="none" stroke="black" points="10,-139 10,-161 195,-161 195,-139 10,-139"/>
<text text-anchor="start" x="30" y="-147.2" font-family="Helvetica,sans-Serif" font-size="11.00">name_en</text>
<polygon fill="none" stroke="black" points="195,-139 195,-161 528,-161 528,-139 195,-139"/>
<text text-anchor="start" x="198" y="-147.2" font-family="Helvetica,sans-Serif" font-size="11.00">varchar[150]</text>
<polygon fill="none" stroke="black" points="10,-117 10,-139 195,-139 195,-117 10,-117"/>
<text text-anchor="start" x="30" y="-125.2" font-family="Helvetica,sans-Serif" font-size="11.00">interval</text>
<polygon fill="none" stroke="black" points="195,-117 195,-139 528,-139 528,-117 195,-117"/>
<text text-anchor="start" x="198" y="-125.2" font-family="Helvetica,sans-Serif" font-size="11.00">&quot;private_ci2027_001&quot;.&quot;_enum_interval_name&quot;[2147483647]</text>
<polygon fill="none" stroke="black" points="10,-95 10,-117 195,-117 195,-95 10,-95"/>
<text text-anchor="start" x="30" y="-103.2" font-family="Helvetica,sans-Serif" font-size="11.00">sort</text>
<polygon fill="none" stroke="black" points="195,-95 195,-117 528,-117 528,-95 195,-95"/>
<text text-anchor="start" x="198" y="-103.2" font-family="Helvetica,sans-Serif" font-size="11.00">int4[10]</text>
<polygon fill="#ffffff" stroke="transparent" points="10,-73 10,-95 195,-95 195,-73 10,-73"/>
<polygon fill="none" stroke="black" points="10,-73 10,-95 195,-95 195,-73 10,-73"/>
<text text-anchor="start" x="30" y="-81.2" font-family="Helvetica,sans-Serif" font-size="11.00">abbreviation</text>
<polygon fill="none" stroke="black" points="195,-73 195,-95 528,-95 528,-73 195,-73"/>
<text text-anchor="start" x="198" y="-81.2" font-family="Helvetica,sans-Serif" font-size="11.00">&quot;private_ci2027_001&quot;.&quot;enum_tree_size_class&quot;[2147483647]</text>
<polygon fill="#ffffff" stroke="transparent" points="10,-55 10,-73 528,-73 528,-55 10,-55"/>
<polygon fill="none" stroke="black" points="10,-55 10,-73 528,-73 528,-55 10,-55"/>
<polygon fill="#ffffff" stroke="transparent" points="11,-56 11,-72 178,-72 178,-56 11,-56"/>
<text text-anchor="start" x="13" y="-61.2" font-family="Helvetica,sans-Serif" font-size="11.00">&lt; 0</text>
<polygon fill="#ffffff" stroke="transparent" points="178,-56 178,-72 361,-72 361,-56 178,-56"/>
<text text-anchor="start" x="251" y="-61.2" font-family="Helvetica,sans-Serif" font-size="11.00">0 rows</text>
<polygon fill="#ffffff" stroke="transparent" points="361,-56 361,-72 527,-72 527,-56 361,-56"/>
<text text-anchor="start" x="505" y="-61.2" font-family="Helvetica,sans-Serif" font-size="11.00">1 &gt;</text>
<polygon fill="black" stroke="black" points="178,-56 178,-72 178,-72 178,-56 178,-56"/>
<polygon fill="black" stroke="black" points="361,-56 361,-72 361,-72 361,-56 361,-56"/>
<polygon fill="none" stroke="black" stroke-width="2" points="9,-54 9,-206 529,-206 529,-54 9,-54"/>
</a>
</g>
</g>
<!-- regeneration&#45;&gt;lookup_tree_size_class -->
<g id="edge1" class="edge">
<title>regeneration:w&#45;&gt;lookup_tree_size_class:e</title>
<path fill="none" stroke="black" d="M563.84,-84C552.41,-84 545.16,-84 529,-84"/>
<polygon fill="black" stroke="black" points="570.5,-84 578.5,-87.6 574.5,-84 578.5,-84 578.5,-84 578.5,-84 574.5,-84 578.5,-80.4 570.5,-84 570.5,-84"/>
<ellipse fill="none" stroke="black" cx="567.3" cy="-84" rx="3.2" ry="3.2"/>
</g>
</g>
</svg>
