<?xml version="1.0" encoding="UTF-8" standalone="no"?>
<!DOCTYPE svg PUBLIC "-//W3C//DTD SVG 1.1//EN"
 "http://www.w3.org/Graphics/SVG/1.1/DTD/svg11.dtd">
<!-- Generated by graphviz version 2.43.0 (0)
 -->
<!-- Title: oneDegreeRelationshipsDiagram Pages: 1 -->
<svg width="837pt" height="679pt"
 viewBox="0.00 0.00 837.00 679.00" xmlns="http://www.w3.org/2000/svg" xmlns:xlink="http://www.w3.org/1999/xlink">
<g id="graph0" class="graph" transform="scale(1 1) rotate(0) translate(4 675)">
<title>oneDegreeRelationshipsDiagram</title>
<polygon fill="#ffffff" stroke="transparent" points="-4,4 -4,-675 833,-675 833,4 -4,4"/>
<text text-anchor="middle" x="79.5" y="-7.2" font-family="Helvetica,sans-Serif" font-size="11.00">Generated by SchemaSpy</text>
<!-- plot -->
<g id="node1" class="node">
<title>plot</title>
<g id="a_node1"><a xlink:href="../../tables/plot.html" xlink:title="plot" target="_top">
<polygon fill="#ffffff" stroke="transparent" points="570,-37 570,-667 821,-667 821,-37 570,-37"/>
<polygon fill="#f5f5f5" stroke="transparent" points="570.5,-645 570.5,-667 821.5,-667 821.5,-645 570.5,-645"/>
<polygon fill="none" stroke="black" points="570.5,-645 570.5,-667 821.5,-667 821.5,-645 570.5,-645"/>
<text text-anchor="start" x="575" y="-654.2" font-family="Helvetica,sans-Serif" font-weight="bold" font-size="11.00">plot</text>
<text text-anchor="start" x="779.5" y="-653.2" font-family="Helvetica,sans-Serif" font-size="11.00">[table]</text>
<polygon fill="none" stroke="black" points="570.5,-623 570.5,-645 821.5,-645 821.5,-623 570.5,-623"/>
<image xlink:href="../../images/primaryKeys.png" width="11px" height="12px" preserveAspectRatio="xMinYMin meet" x="575.5" y="-640"/>
<text text-anchor="start" x="590.5" y="-631.2" font-family="Helvetica,sans-Serif" font-size="11.00">id</text>
<polygon fill="#ffffff" stroke="transparent" points="570.5,-601 570.5,-623 821.5,-623 821.5,-601 570.5,-601"/>
<polygon fill="none" stroke="black" points="570.5,-601 570.5,-623 821.5,-623 821.5,-601 570.5,-601"/>
<image xlink:href="../../images/foreignKeys.png" width="11px" height="12px" preserveAspectRatio="xMinYMin meet" x="575.5" y="-618"/>
<text text-anchor="start" x="590.5" y="-609.2" font-family="Helvetica,sans-Serif" font-size="11.00">cluster_id</text>
<polygon fill="#ffffff" stroke="transparent" points="570.5,-579 570.5,-601 821.5,-601 821.5,-579 570.5,-579"/>
<polygon fill="none" stroke="black" points="570.5,-579 570.5,-601 821.5,-601 821.5,-579 570.5,-579"/>
<text text-anchor="start" x="590.5" y="-587.2" font-family="Helvetica,sans-Serif" font-size="11.00">plot_name</text>
<polygon fill="none" stroke="black" points="570.5,-557 570.5,-579 821.5,-579 821.5,-557 570.5,-557"/>
<image xlink:href="../../images/foreignKeys.png" width="11px" height="12px" preserveAspectRatio="xMinYMin meet" x="575.5" y="-574"/>
<text text-anchor="start" x="590.5" y="-565.2" font-family="Helvetica,sans-Serif" font-size="11.00">sampling_strata</text>
<polygon fill="none" stroke="black" points="570.5,-535 570.5,-557 821.5,-557 821.5,-535 570.5,-535"/>
<image xlink:href="../../images/foreignKeys.png" width="11px" height="12px" preserveAspectRatio="xMinYMin meet" x="575.5" y="-552"/>
<text text-anchor="start" x="590.5" y="-543.2" font-family="Helvetica,sans-Serif" font-size="11.00">growth_district</text>
<polygon fill="none" stroke="black" points="570.5,-513 570.5,-535 821.5,-535 821.5,-513 570.5,-513"/>
<image xlink:href="../../images/foreignKeys.png" width="11px" height="12px" preserveAspectRatio="xMinYMin meet" x="575.5" y="-530"/>
<text text-anchor="start" x="590.5" y="-521.2" font-family="Helvetica,sans-Serif" font-size="11.00">forest_decision</text>
<polygon fill="none" stroke="black" points="570.5,-491 570.5,-513 821.5,-513 821.5,-491 570.5,-491"/>
<image xlink:href="../../images/foreignKeys.png" width="11px" height="12px" preserveAspectRatio="xMinYMin meet" x="575.5" y="-508"/>
<text text-anchor="start" x="590.5" y="-499.2" font-family="Helvetica,sans-Serif" font-size="11.00">forestry_department</text>
<polygon fill="none" stroke="black" points="570.5,-469 570.5,-491 821.5,-491 821.5,-469 570.5,-469"/>
<image xlink:href="../../images/foreignKeys.png" width="11px" height="12px" preserveAspectRatio="xMinYMin meet" x="575.5" y="-486"/>
<text text-anchor="start" x="590.5" y="-477.2" font-family="Helvetica,sans-Serif" font-size="11.00">height_layer_class</text>
<polygon fill="none" stroke="black" points="570.5,-447 570.5,-469 821.5,-469 821.5,-447 570.5,-447"/>
<image xlink:href="../../images/foreignKeys.png" width="11px" height="12px" preserveAspectRatio="xMinYMin meet" x="575.5" y="-464"/>
<text text-anchor="start" x="590.5" y="-455.2" font-family="Helvetica,sans-Serif" font-size="11.00">property_type</text>
<polygon fill="none" stroke="black" points="570.5,-425 570.5,-447 821.5,-447 821.5,-425 570.5,-425"/>
<image xlink:href="../../images/foreignKeys.png" width="11px" height="12px" preserveAspectRatio="xMinYMin meet" x="575.5" y="-442"/>
<text text-anchor="start" x="590.5" y="-433.2" font-family="Helvetica,sans-Serif" font-size="11.00">property_size_class</text>
<polygon fill="none" stroke="black" points="570.5,-403 570.5,-425 821.5,-425 821.5,-403 570.5,-403"/>
<image xlink:href="../../images/foreignKeys.png" width="11px" height="12px" preserveAspectRatio="xMinYMin meet" x="575.5" y="-420"/>
<text text-anchor="start" x="590.5" y="-411.2" font-family="Helvetica,sans-Serif" font-size="11.00">forest_type</text>
<polygon fill="none" stroke="black" points="570.5,-381 570.5,-403 821.5,-403 821.5,-381 570.5,-381"/>
<image xlink:href="../../images/foreignKeys.png" width="11px" height="12px" preserveAspectRatio="xMinYMin meet" x="575.5" y="-398"/>
<text text-anchor="start" x="590.5" y="-389.2" font-family="Helvetica,sans-Serif" font-size="11.00">habitat_type</text>
<polygon fill="none" stroke="black" points="570.5,-359 570.5,-381 821.5,-381 821.5,-359 570.5,-359"/>
<image xlink:href="../../images/foreignKeys.png" width="11px" height="12px" preserveAspectRatio="xMinYMin meet" x="575.5" y="-376"/>
<text text-anchor="start" x="590.5" y="-367.2" font-family="Helvetica,sans-Serif" font-size="11.00">habitat_type_source</text>
<polygon fill="none" stroke="black" points="570.5,-337 570.5,-359 821.5,-359 821.5,-337 570.5,-337"/>
<image xlink:href="../../images/foreignKeys.png" width="11px" height="12px" preserveAspectRatio="xMinYMin meet" x="575.5" y="-354"/>
<text text-anchor="start" x="590.5" y="-345.2" font-family="Helvetica,sans-Serif" font-size="11.00">use_restriction</text>
<polygon fill="none" stroke="black" points="570.5,-315 570.5,-337 821.5,-337 821.5,-315 570.5,-315"/>
<image xlink:href="../../images/foreignKeys.png" width="11px" height="12px" preserveAspectRatio="xMinYMin meet" x="575.5" y="-332"/>
<text text-anchor="start" x="590.5" y="-323.2" font-family="Helvetica,sans-Serif" font-size="11.00">land_use</text>
<polygon fill="none" stroke="black" points="570.5,-293 570.5,-315 821.5,-315 821.5,-293 570.5,-293"/>
<image xlink:href="../../images/foreignKeys.png" width="11px" height="12px" preserveAspectRatio="xMinYMin meet" x="575.5" y="-310"/>
<text text-anchor="start" x="590.5" y="-301.2" font-family="Helvetica,sans-Serif" font-size="11.00">marking_state</text>
<polygon fill="none" stroke="black" points="570.5,-271 570.5,-293 821.5,-293 821.5,-271 570.5,-271"/>
<image xlink:href="../../images/foreignKeys.png" width="11px" height="12px" preserveAspectRatio="xMinYMin meet" x="575.5" y="-288"/>
<text text-anchor="start" x="590.5" y="-279.2" font-family="Helvetica,sans-Serif" font-size="11.00">marking_profile</text>
<polygon fill="none" stroke="black" points="570.5,-249 570.5,-271 821.5,-271 821.5,-249 570.5,-249"/>
<image xlink:href="../../images/foreignKeys.png" width="11px" height="12px" preserveAspectRatio="xMinYMin meet" x="575.5" y="-266"/>
<text text-anchor="start" x="590.5" y="-257.2" font-family="Helvetica,sans-Serif" font-size="11.00">terrain_form</text>
<polygon fill="none" stroke="black" points="570.5,-227 570.5,-249 821.5,-249 821.5,-227 570.5,-227"/>
<image xlink:href="../../images/foreignKeys.png" width="11px" height="12px" preserveAspectRatio="xMinYMin meet" x="575.5" y="-244"/>
<text text-anchor="start" x="590.5" y="-235.2" font-family="Helvetica,sans-Serif" font-size="11.00">management_type</text>
<polygon fill="none" stroke="black" points="570.5,-205 570.5,-227 821.5,-227 821.5,-205 570.5,-205"/>
<image xlink:href="../../images/foreignKeys.png" width="11px" height="12px" preserveAspectRatio="xMinYMin meet" x="575.5" y="-222"/>
<text text-anchor="start" x="590.5" y="-213.2" font-family="Helvetica,sans-Serif" font-size="11.00">harvesting_method</text>
<polygon fill="none" stroke="black" points="570.5,-183 570.5,-205 821.5,-205 821.5,-183 570.5,-183"/>
<image xlink:href="../../images/foreignKeys.png" width="11px" height="12px" preserveAspectRatio="xMinYMin meet" x="575.5" y="-200"/>
<text text-anchor="start" x="590.5" y="-191.2" font-family="Helvetica,sans-Serif" font-size="11.00">layer_type</text>
<polygon fill="none" stroke="black" points="570.5,-161 570.5,-183 821.5,-183 821.5,-161 570.5,-161"/>
<image xlink:href="../../images/foreignKeys.png" width="11px" height="12px" preserveAspectRatio="xMinYMin meet" x="575.5" y="-178"/>
<text text-anchor="start" x="590.5" y="-169.2" font-family="Helvetica,sans-Serif" font-size="11.00">stand_phase</text>
<polygon fill="none" stroke="black" points="570.5,-139 570.5,-161 821.5,-161 821.5,-139 570.5,-139"/>
<image xlink:href="../../images/foreignKeys.png" width="11px" height="12px" preserveAspectRatio="xMinYMin meet" x="575.5" y="-156"/>
<text text-anchor="start" x="590.5" y="-147.2" font-family="Helvetica,sans-Serif" font-size="11.00">sablings_layer</text>
<polygon fill="none" stroke="black" points="570.5,-117 570.5,-139 821.5,-139 821.5,-117 570.5,-117"/>
<image xlink:href="../../images/foreignKeys.png" width="11px" height="12px" preserveAspectRatio="xMinYMin meet" x="575.5" y="-134"/>
<text text-anchor="start" x="590.5" y="-125.2" font-family="Helvetica,sans-Serif" font-size="11.00">trees_less_4meter_mirrored</text>
<polygon fill="none" stroke="black" points="570.5,-95 570.5,-117 821.5,-117 821.5,-95 570.5,-95"/>
<image xlink:href="../../images/foreignKeys.png" width="11px" height="12px" preserveAspectRatio="xMinYMin meet" x="575.5" y="-112"/>
<text text-anchor="start" x="590.5" y="-103.2" font-family="Helvetica,sans-Serif" font-size="11.00">trees_less_4meter_count_factor</text>
<polygon fill="none" stroke="black" points="570.5,-73 570.5,-95 821.5,-95 821.5,-73 570.5,-73"/>
<image xlink:href="../../images/foreignKeys.png" width="11px" height="12px" preserveAspectRatio="xMinYMin meet" x="575.5" y="-90"/>
<text text-anchor="start" x="590.5" y="-81.2" font-family="Helvetica,sans-Serif" font-size="11.00">trees_less_4meter_layer</text>
<polygon fill="none" stroke="black" points="570.5,-55 570.5,-73 821.5,-73 821.5,-55 570.5,-55"/>
<text text-anchor="start" x="573.5" y="-61.2" font-family="Helvetica,sans-Serif" font-size="11.00">...</text>
<polygon fill="#ffffff" stroke="transparent" points="570.5,-37 570.5,-55 821.5,-55 821.5,-37 570.5,-37"/>
<polygon fill="none" stroke="black" points="570.5,-37 570.5,-55 821.5,-55 821.5,-37 570.5,-37"/>
<polygon fill="#ffffff" stroke="transparent" points="571.5,-38 571.5,-54 653.5,-54 653.5,-38 571.5,-38"/>
<text text-anchor="start" x="573.5" y="-43.2" font-family="Helvetica,sans-Serif" font-size="11.00">&lt; 24</text>
<polygon fill="#ffffff" stroke="transparent" points="653.5,-38 653.5,-54 745.5,-54 745.5,-38 653.5,-38"/>
<text text-anchor="start" x="681" y="-43.2" font-family="Helvetica,sans-Serif" font-size="11.00">0 rows</text>
<polygon fill="#ffffff" stroke="transparent" points="745.5,-38 745.5,-54 820.5,-54 820.5,-38 745.5,-38"/>
<text text-anchor="start" x="798.5" y="-43.2" font-family="Helvetica,sans-Serif" font-size="11.00">7 &gt;</text>
<polygon fill="black" stroke="black" points="653.5,-38 653.5,-54 653.5,-54 653.5,-38 653.5,-38"/>
<polygon fill="black" stroke="black" points="745.5,-38 745.5,-54 745.5,-54 745.5,-38 745.5,-38"/>
</a>
</g>
</g>
<!-- lookup_marking_state -->
<g id="node2" class="node">
<title>lookup_marking_state</title>
<g id="a_node2"><a xlink:href="../../tables/lookup_marking_state.html" xlink:title="lookup_marking_state" target="_top">
<polygon fill="#ffffff" stroke="transparent" points="8,-273 8,-405 521,-405 521,-273 8,-273"/>
<polygon fill="#f5f5f5" stroke="transparent" points="10.5,-381 10.5,-403 519.5,-403 519.5,-381 10.5,-381"/>
<polygon fill="none" stroke="black" points="10.5,-381 10.5,-403 519.5,-403 519.5,-381 10.5,-381"/>
<text text-anchor="start" x="15.5" y="-390.2" font-family="Helvetica,sans-Serif" font-weight="bold" font-size="11.00">lookup_marking_state</text>
<text text-anchor="start" x="477.5" y="-389.2" font-family="Helvetica,sans-Serif" font-size="11.00">[table]</text>
<polygon fill="none" stroke="black" points="10.5,-359 10.5,-381 191.5,-381 191.5,-359 10.5,-359"/>
<text text-anchor="start" x="30.5" y="-367.2" font-family="Helvetica,sans-Serif" font-size="11.00">name_de</text>
<polygon fill="none" stroke="black" points="191.5,-359 191.5,-381 519.5,-381 519.5,-359 191.5,-359"/>
<text text-anchor="start" x="194.5" y="-367.2" font-family="Helvetica,sans-Serif" font-size="11.00">varchar[150]</text>
<polygon fill="none" stroke="black" points="10.5,-337 10.5,-359 191.5,-359 191.5,-337 10.5,-337"/>
<text text-anchor="start" x="30.5" y="-345.2" font-family="Helvetica,sans-Serif" font-size="11.00">name_en</text>
<polygon fill="none" stroke="black" points="191.5,-337 191.5,-359 519.5,-359 519.5,-337 191.5,-337"/>
<text text-anchor="start" x="194.5" y="-345.2" font-family="Helvetica,sans-Serif" font-size="11.00">varchar[150]</text>
<polygon fill="none" stroke="black" points="10.5,-315 10.5,-337 191.5,-337 191.5,-315 10.5,-315"/>
<text text-anchor="start" x="30.5" y="-323.2" font-family="Helvetica,sans-Serif" font-size="11.00">sort</text>
<polygon fill="none" stroke="black" points="191.5,-315 191.5,-337 519.5,-337 519.5,-315 191.5,-315"/>
<text text-anchor="start" x="194.5" y="-323.2" font-family="Helvetica,sans-Serif" font-size="11.00">int4[10]</text>
<polygon fill="#ffffff" stroke="transparent" points="10.5,-293 10.5,-315 191.5,-315 191.5,-293 10.5,-293"/>
<polygon fill="none" stroke="black" points="10.5,-293 10.5,-315 191.5,-315 191.5,-293 10.5,-293"/>
<text text-anchor="start" x="30.5" y="-301.2" font-family="Helvetica,sans-Serif" font-size="11.00">abbreviation</text>
<polygon fill="none" stroke="black" points="191.5,-293 191.5,-315 519.5,-315 519.5,-293 191.5,-293"/>
<text text-anchor="start" x="194.5" y="-301.2" font-family="Helvetica,sans-Serif" font-size="11.00">&quot;private_ci2027_001&quot;.&quot;enum_marking_state&quot;[2147483647]</text>
<polygon fill="#ffffff" stroke="transparent" points="10.5,-275 10.5,-293 519.5,-293 519.5,-275 10.5,-275"/>
<polygon fill="none" stroke="black" points="10.5,-275 10.5,-293 519.5,-293 519.5,-275 10.5,-275"/>
<polygon fill="#ffffff" stroke="transparent" points="11.5,-276 11.5,-292 175.5,-292 175.5,-276 11.5,-276"/>
<text text-anchor="start" x="13.5" y="-281.2" font-family="Helvetica,sans-Serif" font-size="11.00">&lt; 0</text>
<polygon fill="#ffffff" stroke="transparent" points="175.5,-276 175.5,-292 355.5,-292 355.5,-276 175.5,-276"/>
<text text-anchor="start" x="247" y="-281.2" font-family="Helvetica,sans-Serif" font-size="11.00">0 rows</text>
<polygon fill="#ffffff" stroke="transparent" points="355.5,-276 355.5,-292 518.5,-292 518.5,-276 355.5,-276"/>
<text text-anchor="start" x="496.5" y="-281.2" font-family="Helvetica,sans-Serif" font-size="11.00">1 &gt;</text>
<polygon fill="black" stroke="black" points="175.5,-276 175.5,-292 175.5,-292 175.5,-276 175.5,-276"/>
<polygon fill="black" stroke="black" points="355.5,-276 355.5,-292 355.5,-292 355.5,-276 355.5,-276"/>
<polygon fill="none" stroke="black" stroke-width="2" points="9,-274 9,-404 520,-404 520,-274 9,-274"/>
</a>
</g>
</g>
<!-- plot&#45;&gt;lookup_marking_state -->
<g id="edge1" class="edge">
<title>plot:w&#45;&gt;lookup_marking_state:e</title>
<path fill="none" stroke="black" d="M554.99,-304C543.68,-304 536.49,-304 520.5,-304"/>
<polygon fill="black" stroke="black" points="561.5,-304 569.5,-307.6 565.5,-304 569.5,-304 569.5,-304 569.5,-304 565.5,-304 569.5,-300.4 561.5,-304 561.5,-304"/>
<ellipse fill="none" stroke="black" cx="558.3" cy="-304" rx="3.2" ry="3.2"/>
</g>
</g>
</svg>
