<?xml version="1.0" encoding="UTF-8" standalone="no"?>
<!DOCTYPE svg PUBLIC "-//W3C//DTD SVG 1.1//EN"
 "http://www.w3.org/Graphics/SVG/1.1/DTD/svg11.dtd">
<!-- Generated by graphviz version 2.43.0 (0)
 -->
<!-- Title: oneDegreeRelationshipsDiagram Pages: 1 -->
<svg width="655pt" height="428pt"
 viewBox="0.00 0.00 655.00 428.00" xmlns="http://www.w3.org/2000/svg" xmlns:xlink="http://www.w3.org/1999/xlink">
<g id="graph0" class="graph" transform="scale(1 1) rotate(0) translate(4 424)">
<title>oneDegreeRelationshipsDiagram</title>
<polygon fill="#ffffff" stroke="transparent" points="-4,4 -4,-424 651,-424 651,4 -4,4"/>
<text text-anchor="middle" x="79.5" y="-7.2" font-family="Helvetica,sans-Serif" font-size="11.00">Generated by SchemaSpy</text>
<!-- sapling_1m -->
<g id="node1" class="node">
<title>sapling_1m</title>
<g id="a_node1"><a xlink:href="../../tables/sapling_1m.html" xlink:title="sapling_1m" target="_top">
<polygon fill="#ffffff" stroke="transparent" points="464,-248 464,-416 639,-416 639,-248 464,-248"/>
<polygon fill="#f5f5f5" stroke="transparent" points="464.5,-394 464.5,-416 639.5,-416 639.5,-394 464.5,-394"/>
<polygon fill="none" stroke="black" points="464.5,-394 464.5,-416 639.5,-416 639.5,-394 464.5,-394"/>
<text text-anchor="start" x="469.5" y="-403.2" font-family="Helvetica,sans-Serif" font-weight="bold" font-size="11.00">sapling_1m</text>
<text text-anchor="start" x="597.5" y="-402.2" font-family="Helvetica,sans-Serif" font-size="11.00">[table]</text>
<polygon fill="none" stroke="black" points="464.5,-372 464.5,-394 639.5,-394 639.5,-372 464.5,-372"/>
<image xlink:href="../../images/primaryKeys.png" width="11px" height="12px" preserveAspectRatio="xMinYMin meet" x="469.5" y="-389"/>
<text text-anchor="start" x="484.5" y="-380.2" font-family="Helvetica,sans-Serif" font-size="11.00">id</text>
<polygon fill="none" stroke="black" points="464.5,-350 464.5,-372 639.5,-372 639.5,-350 464.5,-350"/>
<image xlink:href="../../images/foreignKeys.png" width="11px" height="12px" preserveAspectRatio="xMinYMin meet" x="469.5" y="-367"/>
<text text-anchor="start" x="484.5" y="-358.2" font-family="Helvetica,sans-Serif" font-size="11.00">plot_id</text>
<polygon fill="none" stroke="black" points="464.5,-328 464.5,-350 639.5,-350 639.5,-328 464.5,-328"/>
<image xlink:href="../../images/foreignKeys.png" width="11px" height="12px" preserveAspectRatio="xMinYMin meet" x="469.5" y="-345"/>
<text text-anchor="start" x="484.5" y="-336.2" font-family="Helvetica,sans-Serif" font-size="11.00">plot_location_id</text>
<polygon fill="none" stroke="black" points="464.5,-306 464.5,-328 639.5,-328 639.5,-306 464.5,-306"/>
<image xlink:href="../../images/foreignKeys.png" width="11px" height="12px" preserveAspectRatio="xMinYMin meet" x="469.5" y="-323"/>
<text text-anchor="start" x="484.5" y="-314.2" font-family="Helvetica,sans-Serif" font-size="11.00">tree_species</text>
<polygon fill="none" stroke="black" points="464.5,-284 464.5,-306 639.5,-306 639.5,-284 464.5,-284"/>
<image xlink:href="../../images/foreignKeys.png" width="11px" height="12px" preserveAspectRatio="xMinYMin meet" x="469.5" y="-301"/>
<text text-anchor="start" x="484.5" y="-292.2" font-family="Helvetica,sans-Serif" font-size="11.00">bitten</text>
<polygon fill="none" stroke="black" points="464.5,-266 464.5,-284 639.5,-284 639.5,-266 464.5,-266"/>
<text text-anchor="start" x="467.5" y="-272.2" font-family="Helvetica,sans-Serif" font-size="11.00">...</text>
<polygon fill="#ffffff" stroke="transparent" points="464.5,-248 464.5,-266 639.5,-266 639.5,-248 464.5,-248"/>
<polygon fill="none" stroke="black" points="464.5,-248 464.5,-266 639.5,-266 639.5,-248 464.5,-248"/>
<polygon fill="#ffffff" stroke="transparent" points="465.5,-249 465.5,-265 521.5,-265 521.5,-249 465.5,-249"/>
<text text-anchor="start" x="467.5" y="-254.2" font-family="Helvetica,sans-Serif" font-size="11.00">&lt; 4</text>
<polygon fill="#ffffff" stroke="transparent" points="521.5,-249 521.5,-265 594.5,-265 594.5,-249 521.5,-249"/>
<text text-anchor="start" x="539.5" y="-254.2" font-family="Helvetica,sans-Serif" font-size="11.00">0 rows</text>
<polygon fill="#ffffff" stroke="transparent" points="594.5,-249 594.5,-265 638.5,-265 638.5,-249 594.5,-249"/>
<text text-anchor="start" x="628.5" y="-254.2" font-family="Helvetica,sans-Serif" font-size="11.00"> &#160;</text>
<polygon fill="black" stroke="black" points="521.5,-249 521.5,-265 521.5,-265 521.5,-249 521.5,-249"/>
<polygon fill="black" stroke="black" points="594.5,-249 594.5,-265 594.5,-265 594.5,-249 594.5,-249"/>
</a>
</g>
</g>
<!-- lookup_bitten -->
<g id="node2" class="node">
<title>lookup_bitten</title>
<g id="a_node2"><a xlink:href="../../tables/lookup_bitten.html" xlink:title="lookup_bitten" target="_top">
<polygon fill="#ffffff" stroke="transparent" points="8,-169 8,-301 415,-301 415,-169 8,-169"/>
<polygon fill="#f5f5f5" stroke="transparent" points="10.5,-277 10.5,-299 413.5,-299 413.5,-277 10.5,-277"/>
<polygon fill="none" stroke="black" points="10.5,-277 10.5,-299 413.5,-299 413.5,-277 10.5,-277"/>
<text text-anchor="start" x="15.5" y="-286.2" font-family="Helvetica,sans-Serif" font-weight="bold" font-size="11.00">lookup_bitten</text>
<text text-anchor="start" x="371.5" y="-285.2" font-family="Helvetica,sans-Serif" font-size="11.00">[table]</text>
<polygon fill="none" stroke="black" points="10.5,-255 10.5,-277 131.5,-277 131.5,-255 10.5,-255"/>
<text text-anchor="start" x="30.5" y="-263.2" font-family="Helvetica,sans-Serif" font-size="11.00">name_de</text>
<polygon fill="none" stroke="black" points="131.5,-255 131.5,-277 413.5,-277 413.5,-255 131.5,-255"/>
<text text-anchor="start" x="134.5" y="-263.2" font-family="Helvetica,sans-Serif" font-size="11.00">varchar[150]</text>
<polygon fill="none" stroke="black" points="10.5,-233 10.5,-255 131.5,-255 131.5,-233 10.5,-233"/>
<text text-anchor="start" x="30.5" y="-241.2" font-family="Helvetica,sans-Serif" font-size="11.00">name_en</text>
<polygon fill="none" stroke="black" points="131.5,-233 131.5,-255 413.5,-255 413.5,-233 131.5,-233"/>
<text text-anchor="start" x="134.5" y="-241.2" font-family="Helvetica,sans-Serif" font-size="11.00">varchar[150]</text>
<polygon fill="none" stroke="black" points="10.5,-211 10.5,-233 131.5,-233 131.5,-211 10.5,-211"/>
<text text-anchor="start" x="30.5" y="-219.2" font-family="Helvetica,sans-Serif" font-size="11.00">sort</text>
<polygon fill="none" stroke="black" points="131.5,-211 131.5,-233 413.5,-233 413.5,-211 131.5,-211"/>
<text text-anchor="start" x="134.5" y="-219.2" font-family="Helvetica,sans-Serif" font-size="11.00">int4[10]</text>
<polygon fill="#ffffff" stroke="transparent" points="10.5,-189 10.5,-211 131.5,-211 131.5,-189 10.5,-189"/>
<polygon fill="none" stroke="black" points="10.5,-189 10.5,-211 131.5,-211 131.5,-189 10.5,-189"/>
<text text-anchor="start" x="30.5" y="-197.2" font-family="Helvetica,sans-Serif" font-size="11.00">abbreviation</text>
<polygon fill="none" stroke="black" points="131.5,-189 131.5,-211 413.5,-211 413.5,-189 131.5,-189"/>
<text text-anchor="start" x="134.5" y="-197.2" font-family="Helvetica,sans-Serif" font-size="11.00">&quot;private_ci2027_001&quot;.&quot;enum_bitten&quot;[2147483647]</text>
<polygon fill="#ffffff" stroke="transparent" points="10.5,-171 10.5,-189 413.5,-189 413.5,-171 10.5,-171"/>
<polygon fill="none" stroke="black" points="10.5,-171 10.5,-189 413.5,-189 413.5,-171 10.5,-171"/>
<polygon fill="#ffffff" stroke="transparent" points="11.5,-172 11.5,-188 139.5,-188 139.5,-172 11.5,-172"/>
<text text-anchor="start" x="13.5" y="-177.2" font-family="Helvetica,sans-Serif" font-size="11.00">&lt; 0</text>
<polygon fill="#ffffff" stroke="transparent" points="139.5,-172 139.5,-188 284.5,-188 284.5,-172 139.5,-172"/>
<text text-anchor="start" x="193.5" y="-177.2" font-family="Helvetica,sans-Serif" font-size="11.00">0 rows</text>
<polygon fill="#ffffff" stroke="transparent" points="284.5,-172 284.5,-188 412.5,-188 412.5,-172 284.5,-172"/>
<text text-anchor="start" x="390.5" y="-177.2" font-family="Helvetica,sans-Serif" font-size="11.00">2 &gt;</text>
<polygon fill="black" stroke="black" points="139.5,-172 139.5,-188 139.5,-188 139.5,-172 139.5,-172"/>
<polygon fill="black" stroke="black" points="284.5,-172 284.5,-188 284.5,-188 284.5,-172 284.5,-172"/>
<polygon fill="none" stroke="black" stroke-width="2" points="9,-170 9,-300 414,-300 414,-170 9,-170"/>
</a>
</g>
</g>
<!-- sapling_1m&#45;&gt;lookup_bitten -->
<g id="edge1" class="edge">
<title>sapling_1m:w&#45;&gt;lookup_bitten:e</title>
<path fill="none" stroke="black" d="M449.39,-290.67C426.3,-272.09 455.88,-200 414.5,-200"/>
<polygon fill="black" stroke="black" points="455.85,-292.65 462.44,-298.44 459.68,-293.83 463.5,-295 463.5,-295 463.5,-295 459.68,-293.83 464.56,-291.56 455.85,-292.65 455.85,-292.65"/>
<ellipse fill="none" stroke="black" cx="452.79" cy="-291.72" rx="3.2" ry="3.2"/>
</g>
<!-- sapling_2m -->
<g id="node3" class="node">
<title>sapling_2m</title>
<g id="a_node3"><a xlink:href="../../tables/sapling_2m.html" xlink:title="sapling_2m" target="_top">
<polygon fill="#ffffff" stroke="transparent" points="464,-37 464,-227 639,-227 639,-37 464,-37"/>
<polygon fill="#f5f5f5" stroke="transparent" points="464.5,-205 464.5,-227 639.5,-227 639.5,-205 464.5,-205"/>
<polygon fill="none" stroke="black" points="464.5,-205 464.5,-227 639.5,-227 639.5,-205 464.5,-205"/>
<text text-anchor="start" x="469.5" y="-214.2" font-family="Helvetica,sans-Serif" font-weight="bold" font-size="11.00">sapling_2m</text>
<text text-anchor="start" x="597.5" y="-213.2" font-family="Helvetica,sans-Serif" font-size="11.00">[table]</text>
<polygon fill="none" stroke="black" points="464.5,-183 464.5,-205 639.5,-205 639.5,-183 464.5,-183"/>
<image xlink:href="../../images/primaryKeys.png" width="11px" height="12px" preserveAspectRatio="xMinYMin meet" x="469.5" y="-200"/>
<text text-anchor="start" x="484.5" y="-191.2" font-family="Helvetica,sans-Serif" font-size="11.00">id</text>
<polygon fill="none" stroke="black" points="464.5,-161 464.5,-183 639.5,-183 639.5,-161 464.5,-161"/>
<image xlink:href="../../images/foreignKeys.png" width="11px" height="12px" preserveAspectRatio="xMinYMin meet" x="469.5" y="-178"/>
<text text-anchor="start" x="484.5" y="-169.2" font-family="Helvetica,sans-Serif" font-size="11.00">plot_id</text>
<polygon fill="none" stroke="black" points="464.5,-139 464.5,-161 639.5,-161 639.5,-139 464.5,-139"/>
<image xlink:href="../../images/foreignKeys.png" width="11px" height="12px" preserveAspectRatio="xMinYMin meet" x="469.5" y="-156"/>
<text text-anchor="start" x="484.5" y="-147.2" font-family="Helvetica,sans-Serif" font-size="11.00">plot_location_id</text>
<polygon fill="none" stroke="black" points="464.5,-117 464.5,-139 639.5,-139 639.5,-117 464.5,-117"/>
<image xlink:href="../../images/foreignKeys.png" width="11px" height="12px" preserveAspectRatio="xMinYMin meet" x="469.5" y="-134"/>
<text text-anchor="start" x="484.5" y="-125.2" font-family="Helvetica,sans-Serif" font-size="11.00">tree_species</text>
<polygon fill="none" stroke="black" points="464.5,-95 464.5,-117 639.5,-117 639.5,-95 464.5,-95"/>
<image xlink:href="../../images/foreignKeys.png" width="11px" height="12px" preserveAspectRatio="xMinYMin meet" x="469.5" y="-112"/>
<text text-anchor="start" x="484.5" y="-103.2" font-family="Helvetica,sans-Serif" font-size="11.00">bitten</text>
<polygon fill="none" stroke="black" points="464.5,-73 464.5,-95 639.5,-95 639.5,-73 464.5,-73"/>
<image xlink:href="../../images/foreignKeys.png" width="11px" height="12px" preserveAspectRatio="xMinYMin meet" x="469.5" y="-90"/>
<text text-anchor="start" x="484.5" y="-81.2" font-family="Helvetica,sans-Serif" font-size="11.00">tree_size_class</text>
<polygon fill="none" stroke="black" points="464.5,-55 464.5,-73 639.5,-73 639.5,-55 464.5,-55"/>
<text text-anchor="start" x="467.5" y="-61.2" font-family="Helvetica,sans-Serif" font-size="11.00">...</text>
<polygon fill="#ffffff" stroke="transparent" points="464.5,-37 464.5,-55 639.5,-55 639.5,-37 464.5,-37"/>
<polygon fill="none" stroke="black" points="464.5,-37 464.5,-55 639.5,-55 639.5,-37 464.5,-37"/>
<polygon fill="#ffffff" stroke="transparent" points="465.5,-38 465.5,-54 521.5,-54 521.5,-38 465.5,-38"/>
<text text-anchor="start" x="467.5" y="-43.2" font-family="Helvetica,sans-Serif" font-size="11.00">&lt; 5</text>
<polygon fill="#ffffff" stroke="transparent" points="521.5,-38 521.5,-54 594.5,-54 594.5,-38 521.5,-38"/>
<text text-anchor="start" x="539.5" y="-43.2" font-family="Helvetica,sans-Serif" font-size="11.00">0 rows</text>
<polygon fill="#ffffff" stroke="transparent" points="594.5,-38 594.5,-54 638.5,-54 638.5,-38 594.5,-38"/>
<text text-anchor="start" x="628.5" y="-43.2" font-family="Helvetica,sans-Serif" font-size="11.00"> &#160;</text>
<polygon fill="black" stroke="black" points="521.5,-38 521.5,-54 521.5,-54 521.5,-38 521.5,-38"/>
<polygon fill="black" stroke="black" points="594.5,-38 594.5,-54 594.5,-54 594.5,-38 594.5,-38"/>
</a>
</g>
</g>
<!-- sapling_2m&#45;&gt;lookup_bitten -->
<g id="edge2" class="edge">
<title>sapling_2m:w&#45;&gt;lookup_bitten:e</title>
<path fill="none" stroke="black" d="M449.49,-110.28C426.51,-128.67 455.54,-200 414.5,-200"/>
<polygon fill="black" stroke="black" points="455.85,-108.34 464.55,-109.44 459.67,-107.17 463.5,-106 463.5,-106 463.5,-106 459.67,-107.17 462.45,-102.56 455.85,-108.34 455.85,-108.34"/>
<ellipse fill="none" stroke="black" cx="452.79" cy="-109.27" rx="3.2" ry="3.2"/>
</g>
</g>
</svg>
