<?xml version="1.0" encoding="UTF-8" standalone="no"?>
<!DOCTYPE svg PUBLIC "-//W3C//DTD SVG 1.1//EN"
 "http://www.w3.org/Graphics/SVG/1.1/DTD/svg11.dtd">
<!-- Generated by graphviz version 2.43.0 (0)
 -->
<!-- Title: oneDegreeRelationshipsDiagram Pages: 1 -->
<svg width="886pt" height="527pt"
 viewBox="0.00 0.00 886.00 527.00" xmlns="http://www.w3.org/2000/svg" xmlns:xlink="http://www.w3.org/1999/xlink">
<g id="graph0" class="graph" transform="scale(1 1) rotate(0) translate(4 523)">
<title>oneDegreeRelationshipsDiagram</title>
<polygon fill="#ffffff" stroke="transparent" points="-4,4 -4,-523 882,-523 882,4 -4,4"/>
<text text-anchor="middle" x="79.5" y="-7.2" font-family="Helvetica,sans-Serif" font-size="11.00">Generated by SchemaSpy</text>
<!-- plot -->
<g id="node1" class="node">
<title>plot</title>
<g id="a_node1"><a xlink:href="../../tables/plot.html" xlink:title="plot" target="_top">
<polygon fill="#ffffff" stroke="transparent" points="582,-37 582,-491 870,-491 870,-37 582,-37"/>
<polygon fill="#f5f5f5" stroke="transparent" points="582,-469 582,-491 870,-491 870,-469 582,-469"/>
<polygon fill="none" stroke="black" points="582,-469 582,-491 870,-491 870,-469 582,-469"/>
<text text-anchor="start" x="586.5" y="-478.2" font-family="Helvetica,sans-Serif" font-weight="bold" font-size="11.00">plot</text>
<text text-anchor="start" x="828" y="-477.2" font-family="Helvetica,sans-Serif" font-size="11.00">[table]</text>
<polygon fill="none" stroke="black" points="582,-447 582,-469 870,-469 870,-447 582,-447"/>
<image xlink:href="../../images/primaryKeys.png" width="11px" height="12px" preserveAspectRatio="xMinYMin meet" x="587" y="-464"/>
<text text-anchor="start" x="602" y="-455.2" font-family="Helvetica,sans-Serif" font-size="11.00">id</text>
<polygon fill="#ffffff" stroke="transparent" points="582,-425 582,-447 870,-447 870,-425 582,-425"/>
<polygon fill="none" stroke="black" points="582,-425 582,-447 870,-447 870,-425 582,-425"/>
<image xlink:href="../../images/foreignKeys.png" width="11px" height="12px" preserveAspectRatio="xMinYMin meet" x="587" y="-442"/>
<text text-anchor="start" x="602" y="-433.2" font-family="Helvetica,sans-Serif" font-size="11.00">cluster_id</text>
<polygon fill="#ffffff" stroke="transparent" points="582,-403 582,-425 870,-425 870,-403 582,-403"/>
<polygon fill="none" stroke="black" points="582,-403 582,-425 870,-425 870,-403 582,-403"/>
<text text-anchor="start" x="602" y="-411.2" font-family="Helvetica,sans-Serif" font-size="11.00">plot_name</text>
<polygon fill="none" stroke="black" points="582,-381 582,-403 870,-403 870,-381 582,-381"/>
<image xlink:href="../../images/foreignKeys.png" width="11px" height="12px" preserveAspectRatio="xMinYMin meet" x="587" y="-398"/>
<text text-anchor="start" x="602" y="-389.2" font-family="Helvetica,sans-Serif" font-size="11.00">growth_district</text>
<polygon fill="none" stroke="black" points="582,-359 582,-381 870,-381 870,-359 582,-359"/>
<image xlink:href="../../images/foreignKeys.png" width="11px" height="12px" preserveAspectRatio="xMinYMin meet" x="587" y="-376"/>
<text text-anchor="start" x="602" y="-367.2" font-family="Helvetica,sans-Serif" font-size="11.00">forest_status</text>
<polygon fill="none" stroke="black" points="582,-337 582,-359 870,-359 870,-337 582,-337"/>
<image xlink:href="../../images/foreignKeys.png" width="11px" height="12px" preserveAspectRatio="xMinYMin meet" x="587" y="-354"/>
<text text-anchor="start" x="602" y="-345.2" font-family="Helvetica,sans-Serif" font-size="11.00">elevation_level</text>
<polygon fill="none" stroke="black" points="582,-315 582,-337 870,-337 870,-315 582,-315"/>
<image xlink:href="../../images/foreignKeys.png" width="11px" height="12px" preserveAspectRatio="xMinYMin meet" x="587" y="-332"/>
<text text-anchor="start" x="602" y="-323.2" font-family="Helvetica,sans-Serif" font-size="11.00">property_type</text>
<polygon fill="none" stroke="black" points="582,-293 582,-315 870,-315 870,-293 582,-293"/>
<image xlink:href="../../images/foreignKeys.png" width="11px" height="12px" preserveAspectRatio="xMinYMin meet" x="587" y="-310"/>
<text text-anchor="start" x="602" y="-301.2" font-family="Helvetica,sans-Serif" font-size="11.00">property_size_class</text>
<polygon fill="none" stroke="black" points="582,-271 582,-293 870,-293 870,-271 582,-271"/>
<image xlink:href="../../images/foreignKeys.png" width="11px" height="12px" preserveAspectRatio="xMinYMin meet" x="587" y="-288"/>
<text text-anchor="start" x="602" y="-279.2" font-family="Helvetica,sans-Serif" font-size="11.00">land_use_after</text>
<polygon fill="none" stroke="black" points="582,-249 582,-271 870,-271 870,-249 582,-249"/>
<image xlink:href="../../images/foreignKeys.png" width="11px" height="12px" preserveAspectRatio="xMinYMin meet" x="587" y="-266"/>
<text text-anchor="start" x="602" y="-257.2" font-family="Helvetica,sans-Serif" font-size="11.00">marker_status</text>
<polygon fill="none" stroke="black" points="582,-227 582,-249 870,-249 870,-227 582,-227"/>
<image xlink:href="../../images/foreignKeys.png" width="11px" height="12px" preserveAspectRatio="xMinYMin meet" x="587" y="-244"/>
<text text-anchor="start" x="602" y="-235.2" font-family="Helvetica,sans-Serif" font-size="11.00">marker_profile</text>
<polygon fill="none" stroke="black" points="582,-205 582,-227 870,-227 870,-205 582,-205"/>
<image xlink:href="../../images/foreignKeys.png" width="11px" height="12px" preserveAspectRatio="xMinYMin meet" x="587" y="-222"/>
<text text-anchor="start" x="602" y="-213.2" font-family="Helvetica,sans-Serif" font-size="11.00">terrain_form</text>
<polygon fill="none" stroke="black" points="582,-183 582,-205 870,-205 870,-183 582,-183"/>
<image xlink:href="../../images/foreignKeys.png" width="11px" height="12px" preserveAspectRatio="xMinYMin meet" x="587" y="-200"/>
<text text-anchor="start" x="602" y="-191.2" font-family="Helvetica,sans-Serif" font-size="11.00">management_type</text>
<polygon fill="none" stroke="black" points="582,-161 582,-183 870,-183 870,-161 582,-161"/>
<image xlink:href="../../images/foreignKeys.png" width="11px" height="12px" preserveAspectRatio="xMinYMin meet" x="587" y="-178"/>
<text text-anchor="start" x="602" y="-169.2" font-family="Helvetica,sans-Serif" font-size="11.00">harvesting_method</text>
<polygon fill="none" stroke="black" points="582,-139 582,-161 870,-161 870,-139 582,-139"/>
<image xlink:href="../../images/foreignKeys.png" width="11px" height="12px" preserveAspectRatio="xMinYMin meet" x="587" y="-156"/>
<text text-anchor="start" x="602" y="-147.2" font-family="Helvetica,sans-Serif" font-size="11.00">stand_structure</text>
<polygon fill="none" stroke="black" points="582,-117 582,-139 870,-139 870,-117 582,-117"/>
<image xlink:href="../../images/foreignKeys.png" width="11px" height="12px" preserveAspectRatio="xMinYMin meet" x="587" y="-134"/>
<text text-anchor="start" x="602" y="-125.2" font-family="Helvetica,sans-Serif" font-size="11.00">stand_dev_phase</text>
<polygon fill="none" stroke="black" points="582,-95 582,-117 870,-117 870,-95 582,-95"/>
<image xlink:href="../../images/foreignKeys.png" width="11px" height="12px" preserveAspectRatio="xMinYMin meet" x="587" y="-112"/>
<text text-anchor="start" x="602" y="-103.2" font-family="Helvetica,sans-Serif" font-size="11.00">stand_layer_reg</text>
<polygon fill="none" stroke="black" points="582,-73 582,-95 870,-95 870,-73 582,-73"/>
<image xlink:href="../../images/foreignKeys.png" width="11px" height="12px" preserveAspectRatio="xMinYMin meet" x="587" y="-90"/>
<text text-anchor="start" x="602" y="-81.2" font-family="Helvetica,sans-Serif" font-size="11.00">trees_less_4meter_mirrored</text>
<polygon fill="none" stroke="black" points="582,-55 582,-73 870,-73 870,-55 582,-55"/>
<text text-anchor="start" x="585" y="-61.2" font-family="Helvetica,sans-Serif" font-size="11.00">...</text>
<polygon fill="#ffffff" stroke="transparent" points="582,-37 582,-55 870,-55 870,-37 582,-37"/>
<polygon fill="none" stroke="black" points="582,-37 582,-55 870,-55 870,-37 582,-37"/>
<polygon fill="#ffffff" stroke="transparent" points="583,-38 583,-54 678,-54 678,-38 583,-38"/>
<text text-anchor="start" x="585" y="-43.2" font-family="Helvetica,sans-Serif" font-size="11.00">&lt; 16</text>
<polygon fill="#ffffff" stroke="transparent" points="678,-38 678,-54 782,-54 782,-38 678,-38"/>
<text text-anchor="start" x="711.5" y="-43.2" font-family="Helvetica,sans-Serif" font-size="11.00">0 rows</text>
<polygon fill="#ffffff" stroke="transparent" points="782,-38 782,-54 869,-54 869,-38 782,-38"/>
<text text-anchor="start" x="847" y="-43.2" font-family="Helvetica,sans-Serif" font-size="11.00">7 &gt;</text>
<polygon fill="black" stroke="black" points="678,-38 678,-54 678,-54 678,-38 678,-38"/>
<polygon fill="black" stroke="black" points="782,-38 782,-54 782,-54 782,-38 782,-38"/>
</a>
</g>
</g>
<!-- lookup_growth_district -->
<g id="node2" class="node">
<title>lookup_growth_district</title>
<g id="a_node2"><a xlink:href="../../tables/lookup_growth_district.html" xlink:title="lookup_growth_district" target="_top">
<polygon fill="#ffffff" stroke="transparent" points="8,-361 8,-515 533,-515 533,-361 8,-361"/>
<polygon fill="#f5f5f5" stroke="transparent" points="10.5,-491 10.5,-513 531.5,-513 531.5,-491 10.5,-491"/>
<polygon fill="none" stroke="black" points="10.5,-491 10.5,-513 531.5,-513 531.5,-491 10.5,-491"/>
<text text-anchor="start" x="15.5" y="-500.2" font-family="Helvetica,sans-Serif" font-weight="bold" font-size="11.00">lookup_growth_district</text>
<text text-anchor="start" x="489.5" y="-499.2" font-family="Helvetica,sans-Serif" font-size="11.00">[table]</text>
<polygon fill="none" stroke="black" points="10.5,-469 10.5,-491 198.5,-491 198.5,-469 10.5,-469"/>
<text text-anchor="start" x="30.5" y="-477.2" font-family="Helvetica,sans-Serif" font-size="11.00">name_de</text>
<polygon fill="none" stroke="black" points="198.5,-469 198.5,-491 531.5,-491 531.5,-469 198.5,-469"/>
<text text-anchor="start" x="201.5" y="-477.2" font-family="Helvetica,sans-Serif" font-size="11.00">varchar[150]</text>
<polygon fill="none" stroke="black" points="10.5,-447 10.5,-469 198.5,-469 198.5,-447 10.5,-447"/>
<text text-anchor="start" x="30.5" y="-455.2" font-family="Helvetica,sans-Serif" font-size="11.00">name_en</text>
<polygon fill="none" stroke="black" points="198.5,-447 198.5,-469 531.5,-469 531.5,-447 198.5,-447"/>
<text text-anchor="start" x="201.5" y="-455.2" font-family="Helvetica,sans-Serif" font-size="11.00">varchar[150]</text>
<polygon fill="none" stroke="black" points="10.5,-425 10.5,-447 198.5,-447 198.5,-425 10.5,-425"/>
<text text-anchor="start" x="30.5" y="-433.2" font-family="Helvetica,sans-Serif" font-size="11.00">interval</text>
<polygon fill="none" stroke="black" points="198.5,-425 198.5,-447 531.5,-447 531.5,-425 198.5,-425"/>
<text text-anchor="start" x="201.5" y="-433.2" font-family="Helvetica,sans-Serif" font-size="11.00">&quot;private_ci2027_001&quot;.&quot;_enum_interval_name&quot;[2147483647]</text>
<polygon fill="none" stroke="black" points="10.5,-403 10.5,-425 198.5,-425 198.5,-403 10.5,-403"/>
<text text-anchor="start" x="30.5" y="-411.2" font-family="Helvetica,sans-Serif" font-size="11.00">sort</text>
<polygon fill="none" stroke="black" points="198.5,-403 198.5,-425 531.5,-425 531.5,-403 198.5,-403"/>
<text text-anchor="start" x="201.5" y="-411.2" font-family="Helvetica,sans-Serif" font-size="11.00">int4[10]</text>
<polygon fill="#ffffff" stroke="transparent" points="10.5,-381 10.5,-403 198.5,-403 198.5,-381 10.5,-381"/>
<polygon fill="none" stroke="black" points="10.5,-381 10.5,-403 198.5,-403 198.5,-381 10.5,-381"/>
<text text-anchor="start" x="30.5" y="-389.2" font-family="Helvetica,sans-Serif" font-size="11.00">abbreviation</text>
<polygon fill="none" stroke="black" points="198.5,-381 198.5,-403 531.5,-403 531.5,-381 198.5,-381"/>
<text text-anchor="start" x="201.5" y="-389.2" font-family="Helvetica,sans-Serif" font-size="11.00">int2[5]</text>
<polygon fill="#ffffff" stroke="transparent" points="10.5,-363 10.5,-381 531.5,-381 531.5,-363 10.5,-363"/>
<polygon fill="none" stroke="black" points="10.5,-363 10.5,-381 531.5,-381 531.5,-363 10.5,-363"/>
<polygon fill="#ffffff" stroke="transparent" points="11.5,-364 11.5,-380 174.5,-380 174.5,-364 11.5,-364"/>
<text text-anchor="start" x="13.5" y="-369.2" font-family="Helvetica,sans-Serif" font-size="11.00">&lt; 0</text>
<polygon fill="#ffffff" stroke="transparent" points="174.5,-364 174.5,-380 368.5,-380 368.5,-364 174.5,-364"/>
<text text-anchor="start" x="246" y="-369.2" font-family="Helvetica,sans-Serif" font-size="11.00">695 rows</text>
<polygon fill="#ffffff" stroke="transparent" points="368.5,-364 368.5,-380 530.5,-380 530.5,-364 368.5,-364"/>
<text text-anchor="start" x="508.5" y="-369.2" font-family="Helvetica,sans-Serif" font-size="11.00">1 &gt;</text>
<polygon fill="black" stroke="black" points="174.5,-364 174.5,-380 174.5,-380 174.5,-364 174.5,-364"/>
<polygon fill="black" stroke="black" points="368.5,-364 368.5,-380 368.5,-380 368.5,-364 368.5,-364"/>
<polygon fill="none" stroke="black" stroke-width="2" points="9,-362 9,-514 532,-514 532,-362 9,-362"/>
</a>
</g>
</g>
<!-- plot&#45;&gt;lookup_growth_district -->
<g id="edge1" class="edge">
<title>plot:w&#45;&gt;lookup_growth_district:e</title>
<path fill="none" stroke="black" d="M566.28,-392C555.29,-392 548.16,-392 532.5,-392"/>
<polygon fill="black" stroke="black" points="573,-392 581,-395.6 577,-392 581,-392 581,-392 581,-392 577,-392 581,-388.4 573,-392 573,-392"/>
<ellipse fill="none" stroke="black" cx="569.8" cy="-392" rx="3.2" ry="3.2"/>
</g>
</g>
</svg>
