<?xml version="1.0" encoding="UTF-8" standalone="no"?>
<!DOCTYPE svg PUBLIC "-//W3C//DTD SVG 1.1//EN"
 "http://www.w3.org/Graphics/SVG/1.1/DTD/svg11.dtd">
<!-- Generated by graphviz version 2.43.0 (0)
 -->
<!-- Title: oneDegreeRelationshipsDiagram Pages: 1 -->
<svg width="712pt" height="283pt"
 viewBox="0.00 0.00 712.00 283.00" xmlns="http://www.w3.org/2000/svg" xmlns:xlink="http://www.w3.org/1999/xlink">
<g id="graph0" class="graph" transform="scale(1 1) rotate(0) translate(4 279)">
<title>oneDegreeRelationshipsDiagram</title>
<polygon fill="#ffffff" stroke="transparent" points="-4,4 -4,-279 708,-279 708,4 -4,4"/>
<text text-anchor="middle" x="79.5" y="-7.2" font-family="Helvetica,sans-Serif" font-size="11.00">Generated by SchemaSpy</text>
<!-- wzp_tree -->
<g id="node1" class="node">
<title>wzp_tree</title>
<g id="a_node1"><a xlink:href="../../tables/wzp_tree.html" xlink:title="wzp_tree" target="_top">
<polygon fill="#ffffff" stroke="transparent" points="523,-37 523,-271 696,-271 696,-37 523,-37"/>
<polygon fill="#f5f5f5" stroke="transparent" points="523.5,-249 523.5,-271 696.5,-271 696.5,-249 523.5,-249"/>
<polygon fill="none" stroke="black" points="523.5,-249 523.5,-271 696.5,-271 696.5,-249 523.5,-249"/>
<text text-anchor="start" x="528.5" y="-258.2" font-family="Helvetica,sans-Serif" font-weight="bold" font-size="11.00">wzp_tree</text>
<text text-anchor="start" x="654.5" y="-257.2" font-family="Helvetica,sans-Serif" font-size="11.00">[table]</text>
<polygon fill="none" stroke="black" points="523.5,-227 523.5,-249 696.5,-249 696.5,-227 523.5,-227"/>
<image xlink:href="../../images/primaryKeys.png" width="11px" height="12px" preserveAspectRatio="xMinYMin meet" x="528.5" y="-244"/>
<text text-anchor="start" x="543.5" y="-235.2" font-family="Helvetica,sans-Serif" font-size="11.00">id</text>
<polygon fill="none" stroke="black" points="523.5,-205 523.5,-227 696.5,-227 696.5,-205 523.5,-205"/>
<image xlink:href="../../images/foreignKeys.png" width="11px" height="12px" preserveAspectRatio="xMinYMin meet" x="528.5" y="-222"/>
<text text-anchor="start" x="543.5" y="-213.2" font-family="Helvetica,sans-Serif" font-size="11.00">plot_id</text>
<polygon fill="none" stroke="black" points="523.5,-183 523.5,-205 696.5,-205 696.5,-183 523.5,-183"/>
<image xlink:href="../../images/foreignKeys.png" width="11px" height="12px" preserveAspectRatio="xMinYMin meet" x="528.5" y="-200"/>
<text text-anchor="start" x="543.5" y="-191.2" font-family="Helvetica,sans-Serif" font-size="11.00">tree_state</text>
<polygon fill="none" stroke="black" points="523.5,-161 523.5,-183 696.5,-183 696.5,-161 523.5,-161"/>
<image xlink:href="../../images/foreignKeys.png" width="11px" height="12px" preserveAspectRatio="xMinYMin meet" x="528.5" y="-178"/>
<text text-anchor="start" x="543.5" y="-169.2" font-family="Helvetica,sans-Serif" font-size="11.00">tree_species</text>
<polygon fill="none" stroke="black" points="523.5,-139 523.5,-161 696.5,-161 696.5,-139 523.5,-139"/>
<image xlink:href="../../images/foreignKeys.png" width="11px" height="12px" preserveAspectRatio="xMinYMin meet" x="528.5" y="-156"/>
<text text-anchor="start" x="543.5" y="-147.2" font-family="Helvetica,sans-Serif" font-size="11.00">stem_breakage</text>
<polygon fill="none" stroke="black" points="523.5,-117 523.5,-139 696.5,-139 696.5,-117 523.5,-117"/>
<image xlink:href="../../images/foreignKeys.png" width="11px" height="12px" preserveAspectRatio="xMinYMin meet" x="528.5" y="-134"/>
<text text-anchor="start" x="543.5" y="-125.2" font-family="Helvetica,sans-Serif" font-size="11.00">stem_form</text>
<polygon fill="none" stroke="black" points="523.5,-95 523.5,-117 696.5,-117 696.5,-95 523.5,-95"/>
<image xlink:href="../../images/foreignKeys.png" width="11px" height="12px" preserveAspectRatio="xMinYMin meet" x="528.5" y="-112"/>
<text text-anchor="start" x="543.5" y="-103.2" font-family="Helvetica,sans-Serif" font-size="11.00">pruning</text>
<polygon fill="none" stroke="black" points="523.5,-73 523.5,-95 696.5,-95 696.5,-73 523.5,-73"/>
<image xlink:href="../../images/foreignKeys.png" width="11px" height="12px" preserveAspectRatio="xMinYMin meet" x="528.5" y="-90"/>
<text text-anchor="start" x="543.5" y="-81.2" font-family="Helvetica,sans-Serif" font-size="11.00">inventory_layer</text>
<polygon fill="none" stroke="black" points="523.5,-55 523.5,-73 696.5,-73 696.5,-55 523.5,-55"/>
<text text-anchor="start" x="526.5" y="-61.2" font-family="Helvetica,sans-Serif" font-size="11.00">...</text>
<polygon fill="#ffffff" stroke="transparent" points="523.5,-37 523.5,-55 696.5,-55 696.5,-37 523.5,-37"/>
<polygon fill="none" stroke="black" points="523.5,-37 523.5,-55 696.5,-55 696.5,-37 523.5,-37"/>
<polygon fill="#ffffff" stroke="transparent" points="524.5,-38 524.5,-54 575.5,-54 575.5,-38 524.5,-38"/>
<text text-anchor="start" x="526.5" y="-43.2" font-family="Helvetica,sans-Serif" font-size="11.00">&lt; 7</text>
<polygon fill="#ffffff" stroke="transparent" points="575.5,-38 575.5,-54 657.5,-54 657.5,-38 575.5,-38"/>
<text text-anchor="start" x="591" y="-43.2" font-family="Helvetica,sans-Serif" font-size="11.00">747 rows</text>
<polygon fill="#ffffff" stroke="transparent" points="657.5,-38 657.5,-54 695.5,-54 695.5,-38 657.5,-38"/>
<text text-anchor="start" x="685.5" y="-43.2" font-family="Helvetica,sans-Serif" font-size="11.00"> &#160;</text>
<polygon fill="black" stroke="black" points="575.5,-38 575.5,-54 575.5,-54 575.5,-38 575.5,-38"/>
<polygon fill="black" stroke="black" points="657.5,-38 657.5,-54 657.5,-54 657.5,-38 657.5,-38"/>
</a>
</g>
</g>
<!-- lookup_stem_form -->
<g id="node2" class="node">
<title>lookup_stem_form</title>
<g id="a_node2"><a xlink:href="../../tables/lookup_stem_form.html" xlink:title="lookup_stem_form" target="_top">
<polygon fill="#ffffff" stroke="transparent" points="8,-97 8,-229 474,-229 474,-97 8,-97"/>
<polygon fill="#f5f5f5" stroke="transparent" points="10,-205 10,-227 472,-227 472,-205 10,-205"/>
<polygon fill="none" stroke="black" points="10,-205 10,-227 472,-227 472,-205 10,-205"/>
<text text-anchor="start" x="15" y="-214.2" font-family="Helvetica,sans-Serif" font-weight="bold" font-size="11.00">lookup_stem_form</text>
<text text-anchor="start" x="430" y="-213.2" font-family="Helvetica,sans-Serif" font-size="11.00">[table]</text>
<polygon fill="none" stroke="black" points="10,-183 10,-205 164,-205 164,-183 10,-183"/>
<text text-anchor="start" x="30" y="-191.2" font-family="Helvetica,sans-Serif" font-size="11.00">name_de</text>
<polygon fill="none" stroke="black" points="164,-183 164,-205 472,-205 472,-183 164,-183"/>
<text text-anchor="start" x="167" y="-191.2" font-family="Helvetica,sans-Serif" font-size="11.00">varchar[150]</text>
<polygon fill="none" stroke="black" points="10,-161 10,-183 164,-183 164,-161 10,-161"/>
<text text-anchor="start" x="30" y="-169.2" font-family="Helvetica,sans-Serif" font-size="11.00">name_en</text>
<polygon fill="none" stroke="black" points="164,-161 164,-183 472,-183 472,-161 164,-161"/>
<text text-anchor="start" x="167" y="-169.2" font-family="Helvetica,sans-Serif" font-size="11.00">varchar[150]</text>
<polygon fill="none" stroke="black" points="10,-139 10,-161 164,-161 164,-139 10,-139"/>
<text text-anchor="start" x="30" y="-147.2" font-family="Helvetica,sans-Serif" font-size="11.00">sort</text>
<polygon fill="none" stroke="black" points="164,-139 164,-161 472,-161 472,-139 164,-139"/>
<text text-anchor="start" x="167" y="-147.2" font-family="Helvetica,sans-Serif" font-size="11.00">int4[10]</text>
<polygon fill="#ffffff" stroke="transparent" points="10,-117 10,-139 164,-139 164,-117 10,-117"/>
<polygon fill="none" stroke="black" points="10,-117 10,-139 164,-139 164,-117 10,-117"/>
<text text-anchor="start" x="30" y="-125.2" font-family="Helvetica,sans-Serif" font-size="11.00">abbreviation</text>
<polygon fill="none" stroke="black" points="164,-117 164,-139 472,-139 472,-117 164,-117"/>
<text text-anchor="start" x="167" y="-125.2" font-family="Helvetica,sans-Serif" font-size="11.00">&quot;private_ci2027_001&quot;.&quot;enum_stem_form&quot;[2147483647]</text>
<polygon fill="#ffffff" stroke="transparent" points="10,-99 10,-117 472,-117 472,-99 10,-99"/>
<polygon fill="none" stroke="black" points="10,-99 10,-117 472,-117 472,-99 10,-99"/>
<polygon fill="#ffffff" stroke="transparent" points="11,-100 11,-116 159,-116 159,-100 11,-100"/>
<text text-anchor="start" x="13" y="-105.2" font-family="Helvetica,sans-Serif" font-size="11.00">&lt; 0</text>
<polygon fill="#ffffff" stroke="transparent" points="159,-100 159,-116 324,-116 324,-100 159,-100"/>
<text text-anchor="start" x="223" y="-105.2" font-family="Helvetica,sans-Serif" font-size="11.00">0 rows</text>
<polygon fill="#ffffff" stroke="transparent" points="324,-100 324,-116 471,-116 471,-100 324,-100"/>
<text text-anchor="start" x="449" y="-105.2" font-family="Helvetica,sans-Serif" font-size="11.00">1 &gt;</text>
<polygon fill="black" stroke="black" points="159,-100 159,-116 159,-116 159,-100 159,-100"/>
<polygon fill="black" stroke="black" points="324,-100 324,-116 324,-116 324,-100 324,-100"/>
<polygon fill="none" stroke="black" stroke-width="2" points="9,-98 9,-228 473,-228 473,-98 9,-98"/>
</a>
</g>
</g>
<!-- wzp_tree&#45;&gt;lookup_stem_form -->
<g id="edge1" class="edge">
<title>wzp_tree:w&#45;&gt;lookup_stem_form:e</title>
<path fill="none" stroke="black" d="M507.84,-128C496.41,-128 489.16,-128 473,-128"/>
<polygon fill="black" stroke="black" points="514.5,-128 522.5,-131.6 518.5,-128 522.5,-128 522.5,-128 522.5,-128 518.5,-128 522.5,-124.4 514.5,-128 514.5,-128"/>
<ellipse fill="none" stroke="black" cx="511.3" cy="-128" rx="3.2" ry="3.2"/>
</g>
</g>
</svg>
