<?xml version="1.0" encoding="UTF-8" standalone="no"?>
<!DOCTYPE svg PUBLIC "-//W3C//DTD SVG 1.1//EN"
 "http://www.w3.org/Graphics/SVG/1.1/DTD/svg11.dtd">
<!-- Generated by graphviz version 2.43.0 (0)
 -->
<!-- Title: twoDegreesRelationshipsDiagram Pages: 1 -->
<svg width="948pt" height="635pt"
 viewBox="0.00 0.00 948.00 634.60" xmlns="http://www.w3.org/2000/svg" xmlns:xlink="http://www.w3.org/1999/xlink">
<g id="graph0" class="graph" transform="scale(1 1) rotate(0) translate(4 630.6)">
<title>twoDegreesRelationshipsDiagram</title>
<polygon fill="#ffffff" stroke="transparent" points="-4,4 -4,-630.6 944,-630.6 944,4 -4,4"/>
<text text-anchor="middle" x="79.5" y="-7.2" font-family="Helvetica,sans-Serif" font-size="11.00">Generated by SchemaSpy</text>
<!-- plot -->
<g id="node1" class="node">
<title>plot</title>
<g id="a_node1"><a xlink:href="../../tables/plot.html" xlink:title="plot" target="_top">
<polygon fill="#ffffff" stroke="transparent" points="428,-564.6 428,-622.6 526,-622.6 526,-564.6 428,-564.6"/>
<polygon fill="#f5f5f5" stroke="transparent" points="428,-600.6 428,-622.6 526,-622.6 526,-600.6 428,-600.6"/>
<polygon fill="none" stroke="black" points="428,-600.6 428,-622.6 526,-622.6 526,-600.6 428,-600.6"/>
<text text-anchor="start" x="432.5" y="-609.8" font-family="Helvetica,sans-Serif" font-weight="bold" font-size="11.00">plot</text>
<text text-anchor="start" x="484" y="-608.8" font-family="Helvetica,sans-Serif" font-size="11.00">[table]</text>
<polygon fill="none" stroke="black" points="428,-582.6 428,-600.6 526,-600.6 526,-582.6 428,-582.6"/>
<text text-anchor="start" x="431" y="-588.8" font-family="Helvetica,sans-Serif" font-size="11.00">...</text>
<polygon fill="#ffffff" stroke="transparent" points="428,-564.6 428,-582.6 526,-582.6 526,-564.6 428,-564.6"/>
<polygon fill="none" stroke="black" points="428,-564.6 428,-582.6 526,-582.6 526,-564.6 428,-564.6"/>
<polygon fill="#ffffff" stroke="transparent" points="429,-565.6 429,-581.6 460,-581.6 460,-565.6 429,-565.6"/>
<text text-anchor="start" x="431" y="-570.8" font-family="Helvetica,sans-Serif" font-size="11.00">&lt; 24</text>
<polygon fill="#ffffff" stroke="transparent" points="460,-565.6 460,-581.6 501,-581.6 501,-565.6 460,-565.6"/>
<text text-anchor="start" x="462" y="-570.8" font-family="Helvetica,sans-Serif" font-size="11.00">0 rows</text>
<polygon fill="#ffffff" stroke="transparent" points="501,-565.6 501,-581.6 525,-581.6 525,-565.6 501,-565.6"/>
<text text-anchor="start" x="503" y="-570.8" font-family="Helvetica,sans-Serif" font-size="11.00">7 &gt;</text>
<polygon fill="black" stroke="black" points="460,-565.6 460,-581.6 460,-581.6 460,-565.6 460,-565.6"/>
<polygon fill="black" stroke="black" points="501,-565.6 501,-581.6 501,-581.6 501,-565.6 501,-565.6"/>
</a>
</g>
</g>
<!-- lookup_stand_layer -->
<g id="node2" class="node">
<title>lookup_stand_layer</title>
<g id="a_node2"><a xlink:href="../../tables/lookup_stand_layer.html" xlink:title="lookup_stand_layer" target="_top">
<polygon fill="#ffffff" stroke="transparent" points="8,-304.6 8,-362.6 195,-362.6 195,-304.6 8,-304.6"/>
<polygon fill="#f5f5f5" stroke="transparent" points="8.5,-340.6 8.5,-362.6 195.5,-362.6 195.5,-340.6 8.5,-340.6"/>
<polygon fill="none" stroke="black" points="8.5,-340.6 8.5,-362.6 195.5,-362.6 195.5,-340.6 8.5,-340.6"/>
<text text-anchor="start" x="13.5" y="-349.8" font-family="Helvetica,sans-Serif" font-weight="bold" font-size="11.00">lookup_stand_layer</text>
<text text-anchor="start" x="153.5" y="-348.8" font-family="Helvetica,sans-Serif" font-size="11.00">[table]</text>
<polygon fill="none" stroke="black" points="8.5,-322.6 8.5,-340.6 195.5,-340.6 195.5,-322.6 8.5,-322.6"/>
<text text-anchor="start" x="11.5" y="-328.8" font-family="Helvetica,sans-Serif" font-size="11.00">...</text>
<polygon fill="#ffffff" stroke="transparent" points="8.5,-304.6 8.5,-322.6 195.5,-322.6 195.5,-304.6 8.5,-304.6"/>
<polygon fill="none" stroke="black" points="8.5,-304.6 8.5,-322.6 195.5,-322.6 195.5,-304.6 8.5,-304.6"/>
<polygon fill="#ffffff" stroke="transparent" points="9.5,-305.6 9.5,-321.6 57.5,-321.6 57.5,-305.6 9.5,-305.6"/>
<text text-anchor="start" x="11.5" y="-310.8" font-family="Helvetica,sans-Serif" font-size="11.00"> &#160;</text>
<polygon fill="#ffffff" stroke="transparent" points="57.5,-305.6 57.5,-321.6 134.5,-321.6 134.5,-305.6 57.5,-305.6"/>
<text text-anchor="start" x="77.5" y="-310.8" font-family="Helvetica,sans-Serif" font-size="11.00">0 rows</text>
<polygon fill="#ffffff" stroke="transparent" points="134.5,-305.6 134.5,-321.6 194.5,-321.6 194.5,-305.6 134.5,-305.6"/>
<text text-anchor="start" x="172.5" y="-310.8" font-family="Helvetica,sans-Serif" font-size="11.00">2 &gt;</text>
<polygon fill="black" stroke="black" points="57.5,-305.6 57.5,-321.6 57.5,-321.6 57.5,-305.6 57.5,-305.6"/>
<polygon fill="black" stroke="black" points="134.5,-305.6 134.5,-321.6 134.5,-321.6 134.5,-305.6 134.5,-305.6"/>
</a>
</g>
</g>
<!-- plot&#45;&gt;lookup_stand_layer -->
<g id="edge1" class="edge">
<title>plot:w&#45;&gt;lookup_stand_layer:e</title>
<path fill="none" stroke="black" d="M412.23,-591.83C335.33,-594.19 293.1,-612.62 236,-554.6 200.7,-518.73 246.83,-331.6 196.5,-331.6"/>
<polygon fill="black" stroke="black" points="419,-591.72 427.06,-595.2 423,-591.66 427,-591.6 427,-591.6 427,-591.6 423,-591.66 426.94,-588 419,-591.72 419,-591.72"/>
<ellipse fill="none" stroke="black" cx="415.8" cy="-591.77" rx="3.2" ry="3.2"/>
</g>
<!-- wzp_tree -->
<g id="node3" class="node">
<title>wzp_tree</title>
<g id="a_node3"><a xlink:href="../../tables/wzp_tree.html" xlink:title="wzp_tree" target="_top">
<polygon fill="#ffffff" stroke="transparent" points="759,-241.6 759,-475.6 932,-475.6 932,-241.6 759,-241.6"/>
<polygon fill="#f5f5f5" stroke="transparent" points="759.5,-453.6 759.5,-475.6 932.5,-475.6 932.5,-453.6 759.5,-453.6"/>
<polygon fill="none" stroke="black" points="759.5,-453.6 759.5,-475.6 932.5,-475.6 932.5,-453.6 759.5,-453.6"/>
<text text-anchor="start" x="764.5" y="-462.8" font-family="Helvetica,sans-Serif" font-weight="bold" font-size="11.00">wzp_tree</text>
<text text-anchor="start" x="890.5" y="-461.8" font-family="Helvetica,sans-Serif" font-size="11.00">[table]</text>
<polygon fill="none" stroke="black" points="759.5,-431.6 759.5,-453.6 932.5,-453.6 932.5,-431.6 759.5,-431.6"/>
<image xlink:href="../../images/primaryKeys.png" width="11px" height="12px" preserveAspectRatio="xMinYMin meet" x="764.5" y="-448.598"/>
<text text-anchor="start" x="779.5" y="-439.8" font-family="Helvetica,sans-Serif" font-size="11.00">id</text>
<polygon fill="none" stroke="black" points="759.5,-409.6 759.5,-431.6 932.5,-431.6 932.5,-409.6 759.5,-409.6"/>
<image xlink:href="../../images/foreignKeys.png" width="11px" height="12px" preserveAspectRatio="xMinYMin meet" x="764.5" y="-426.598"/>
<text text-anchor="start" x="779.5" y="-417.8" font-family="Helvetica,sans-Serif" font-size="11.00">plot_id</text>
<polygon fill="none" stroke="black" points="759.5,-387.6 759.5,-409.6 932.5,-409.6 932.5,-387.6 759.5,-387.6"/>
<image xlink:href="../../images/foreignKeys.png" width="11px" height="12px" preserveAspectRatio="xMinYMin meet" x="764.5" y="-404.598"/>
<text text-anchor="start" x="779.5" y="-395.8" font-family="Helvetica,sans-Serif" font-size="11.00">tree_state</text>
<polygon fill="none" stroke="black" points="759.5,-365.6 759.5,-387.6 932.5,-387.6 932.5,-365.6 759.5,-365.6"/>
<image xlink:href="../../images/foreignKeys.png" width="11px" height="12px" preserveAspectRatio="xMinYMin meet" x="764.5" y="-382.598"/>
<text text-anchor="start" x="779.5" y="-373.8" font-family="Helvetica,sans-Serif" font-size="11.00">tree_species</text>
<polygon fill="none" stroke="black" points="759.5,-343.6 759.5,-365.6 932.5,-365.6 932.5,-343.6 759.5,-343.6"/>
<image xlink:href="../../images/foreignKeys.png" width="11px" height="12px" preserveAspectRatio="xMinYMin meet" x="764.5" y="-360.598"/>
<text text-anchor="start" x="779.5" y="-351.8" font-family="Helvetica,sans-Serif" font-size="11.00">stem_breakage</text>
<polygon fill="none" stroke="black" points="759.5,-321.6 759.5,-343.6 932.5,-343.6 932.5,-321.6 759.5,-321.6"/>
<image xlink:href="../../images/foreignKeys.png" width="11px" height="12px" preserveAspectRatio="xMinYMin meet" x="764.5" y="-338.598"/>
<text text-anchor="start" x="779.5" y="-329.8" font-family="Helvetica,sans-Serif" font-size="11.00">stem_form</text>
<polygon fill="none" stroke="black" points="759.5,-299.6 759.5,-321.6 932.5,-321.6 932.5,-299.6 759.5,-299.6"/>
<image xlink:href="../../images/foreignKeys.png" width="11px" height="12px" preserveAspectRatio="xMinYMin meet" x="764.5" y="-316.598"/>
<text text-anchor="start" x="779.5" y="-307.8" font-family="Helvetica,sans-Serif" font-size="11.00">pruning</text>
<polygon fill="none" stroke="black" points="759.5,-277.6 759.5,-299.6 932.5,-299.6 932.5,-277.6 759.5,-277.6"/>
<image xlink:href="../../images/foreignKeys.png" width="11px" height="12px" preserveAspectRatio="xMinYMin meet" x="764.5" y="-294.598"/>
<text text-anchor="start" x="779.5" y="-285.8" font-family="Helvetica,sans-Serif" font-size="11.00">inventory_layer</text>
<polygon fill="none" stroke="black" points="759.5,-259.6 759.5,-277.6 932.5,-277.6 932.5,-259.6 759.5,-259.6"/>
<text text-anchor="start" x="762.5" y="-265.8" font-family="Helvetica,sans-Serif" font-size="11.00">...</text>
<polygon fill="#ffffff" stroke="transparent" points="759.5,-241.6 759.5,-259.6 932.5,-259.6 932.5,-241.6 759.5,-241.6"/>
<polygon fill="none" stroke="black" points="759.5,-241.6 759.5,-259.6 932.5,-259.6 932.5,-241.6 759.5,-241.6"/>
<polygon fill="#ffffff" stroke="transparent" points="760.5,-242.6 760.5,-258.6 816.5,-258.6 816.5,-242.6 760.5,-242.6"/>
<text text-anchor="start" x="762.5" y="-247.8" font-family="Helvetica,sans-Serif" font-size="11.00">&lt; 7</text>
<polygon fill="#ffffff" stroke="transparent" points="816.5,-242.6 816.5,-258.6 888.5,-258.6 888.5,-242.6 816.5,-242.6"/>
<text text-anchor="start" x="834" y="-247.8" font-family="Helvetica,sans-Serif" font-size="11.00">0 rows</text>
<polygon fill="#ffffff" stroke="transparent" points="888.5,-242.6 888.5,-258.6 931.5,-258.6 931.5,-242.6 888.5,-242.6"/>
<text text-anchor="start" x="921.5" y="-247.8" font-family="Helvetica,sans-Serif" font-size="11.00"> &#160;</text>
<polygon fill="black" stroke="black" points="816.5,-242.6 816.5,-258.6 816.5,-258.6 816.5,-242.6 816.5,-242.6"/>
<polygon fill="black" stroke="black" points="888.5,-242.6 888.5,-258.6 888.5,-258.6 888.5,-242.6 888.5,-242.6"/>
</a>
</g>
</g>
<!-- wzp_tree&#45;&gt;plot -->
<g id="edge3" class="edge">
<title>wzp_tree:w&#45;&gt;plot:e</title>
<path fill="none" stroke="black" d="M744.23,-422.91C708.01,-437.46 759.85,-516.82 718,-554.6 653.82,-612.54 613.47,-591.6 527,-591.6"/>
<polygon fill="black" stroke="black" points="750.6,-421.88 759.08,-424.15 754.55,-421.24 758.5,-420.6 758.5,-420.6 758.5,-420.6 754.55,-421.24 757.92,-417.05 750.6,-421.88 750.6,-421.88"/>
<ellipse fill="none" stroke="black" cx="747.44" cy="-422.39" rx="3.2" ry="3.2"/>
</g>
<!-- wzp_tree&#45;&gt;lookup_stand_layer -->
<g id="edge2" class="edge">
<title>wzp_tree:w&#45;&gt;lookup_stand_layer:e</title>
<path fill="none" stroke="black" d="M743.99,-287.05C680.29,-271.32 785.12,-139.7 718,-84.6 635.21,-16.63 317.5,-15.1 236,-84.6 193.7,-120.67 252.09,-331.6 196.5,-331.6"/>
<polygon fill="black" stroke="black" points="750.55,-287.75 758.12,-292.18 754.52,-288.17 758.5,-288.6 758.5,-288.6 758.5,-288.6 754.52,-288.17 758.88,-285.02 750.55,-287.75 750.55,-287.75"/>
<ellipse fill="none" stroke="black" cx="747.36" cy="-287.41" rx="3.2" ry="3.2"/>
</g>
<!-- lookup_pruning -->
<g id="node4" class="node">
<title>lookup_pruning</title>
<g id="a_node4"><a xlink:href="../../tables/lookup_pruning.html" xlink:title="lookup_pruning" target="_top">
<polygon fill="#ffffff" stroke="transparent" points="397,-95.6 397,-153.6 557,-153.6 557,-95.6 397,-95.6"/>
<polygon fill="#f5f5f5" stroke="transparent" points="397,-131.6 397,-153.6 557,-153.6 557,-131.6 397,-131.6"/>
<polygon fill="none" stroke="black" points="397,-131.6 397,-153.6 557,-153.6 557,-131.6 397,-131.6"/>
<text text-anchor="start" x="402" y="-140.8" font-family="Helvetica,sans-Serif" font-weight="bold" font-size="11.00">lookup_pruning</text>
<text text-anchor="start" x="515" y="-139.8" font-family="Helvetica,sans-Serif" font-size="11.00">[table]</text>
<polygon fill="none" stroke="black" points="397,-113.6 397,-131.6 557,-131.6 557,-113.6 397,-113.6"/>
<text text-anchor="start" x="400" y="-119.8" font-family="Helvetica,sans-Serif" font-size="11.00">...</text>
<polygon fill="#ffffff" stroke="transparent" points="397,-95.6 397,-113.6 557,-113.6 557,-95.6 397,-95.6"/>
<polygon fill="none" stroke="black" points="397,-95.6 397,-113.6 557,-113.6 557,-95.6 397,-95.6"/>
<polygon fill="#ffffff" stroke="transparent" points="398,-96.6 398,-112.6 437,-112.6 437,-96.6 398,-96.6"/>
<text text-anchor="start" x="400" y="-101.8" font-family="Helvetica,sans-Serif" font-size="11.00"> &#160;</text>
<polygon fill="#ffffff" stroke="transparent" points="437,-96.6 437,-112.6 505,-112.6 505,-96.6 437,-96.6"/>
<text text-anchor="start" x="452.5" y="-101.8" font-family="Helvetica,sans-Serif" font-size="11.00">0 rows</text>
<polygon fill="#ffffff" stroke="transparent" points="505,-96.6 505,-112.6 556,-112.6 556,-96.6 505,-96.6"/>
<text text-anchor="start" x="534" y="-101.8" font-family="Helvetica,sans-Serif" font-size="11.00">1 &gt;</text>
<polygon fill="black" stroke="black" points="437,-96.6 437,-112.6 437,-112.6 437,-96.6 437,-96.6"/>
<polygon fill="black" stroke="black" points="505,-96.6 505,-112.6 505,-112.6 505,-96.6 505,-96.6"/>
</a>
</g>
</g>
<!-- wzp_tree&#45;&gt;lookup_pruning -->
<g id="edge4" class="edge">
<title>wzp_tree:w&#45;&gt;lookup_pruning:e</title>
<path fill="none" stroke="black" d="M744.04,-308.49C702.81,-293.88 762.19,-207 718,-163.6 665.63,-112.16 631.41,-122.6 558,-122.6"/>
<polygon fill="black" stroke="black" points="750.58,-309.44 757.98,-314.16 754.54,-310.02 758.5,-310.6 758.5,-310.6 758.5,-310.6 754.54,-310.02 759.02,-307.04 750.58,-309.44 750.58,-309.44"/>
<ellipse fill="none" stroke="black" cx="747.42" cy="-308.98" rx="3.2" ry="3.2"/>
</g>
<!-- lookup_stem_breakage -->
<g id="node5" class="node">
<title>lookup_stem_breakage</title>
<g id="a_node5"><a xlink:href="../../tables/lookup_stem_breakage.html" xlink:title="lookup_stem_breakage" target="_top">
<polygon fill="#ffffff" stroke="transparent" points="370,-327.6 370,-385.6 584,-385.6 584,-327.6 370,-327.6"/>
<polygon fill="#f5f5f5" stroke="transparent" points="370,-363.6 370,-385.6 584,-385.6 584,-363.6 370,-363.6"/>
<polygon fill="none" stroke="black" points="370,-363.6 370,-385.6 584,-385.6 584,-363.6 370,-363.6"/>
<text text-anchor="start" x="375" y="-372.8" font-family="Helvetica,sans-Serif" font-weight="bold" font-size="11.00">lookup_stem_breakage</text>
<text text-anchor="start" x="542" y="-371.8" font-family="Helvetica,sans-Serif" font-size="11.00">[table]</text>
<polygon fill="none" stroke="black" points="370,-345.6 370,-363.6 584,-363.6 584,-345.6 370,-345.6"/>
<text text-anchor="start" x="373" y="-351.8" font-family="Helvetica,sans-Serif" font-size="11.00">...</text>
<polygon fill="#ffffff" stroke="transparent" points="370,-327.6 370,-345.6 584,-345.6 584,-327.6 370,-327.6"/>
<polygon fill="none" stroke="black" points="370,-327.6 370,-345.6 584,-345.6 584,-327.6 370,-327.6"/>
<polygon fill="#ffffff" stroke="transparent" points="371,-328.6 371,-344.6 428,-344.6 428,-328.6 371,-328.6"/>
<text text-anchor="start" x="373" y="-333.8" font-family="Helvetica,sans-Serif" font-size="11.00"> &#160;</text>
<polygon fill="#ffffff" stroke="transparent" points="428,-328.6 428,-344.6 514,-344.6 514,-328.6 428,-328.6"/>
<text text-anchor="start" x="452.5" y="-333.8" font-family="Helvetica,sans-Serif" font-size="11.00">0 rows</text>
<polygon fill="#ffffff" stroke="transparent" points="514,-328.6 514,-344.6 583,-344.6 583,-328.6 514,-328.6"/>
<text text-anchor="start" x="561" y="-333.8" font-family="Helvetica,sans-Serif" font-size="11.00">1 &gt;</text>
<polygon fill="black" stroke="black" points="428,-328.6 428,-344.6 428,-344.6 428,-328.6 428,-328.6"/>
<polygon fill="black" stroke="black" points="514,-328.6 514,-344.6 514,-344.6 514,-328.6 514,-328.6"/>
</a>
</g>
</g>
<!-- wzp_tree&#45;&gt;lookup_stem_breakage -->
<g id="edge5" class="edge">
<title>wzp_tree:w&#45;&gt;lookup_stem_breakage:e</title>
<path fill="none" stroke="black" d="M743.87,-354.6C678.57,-354.6 656.99,-354.6 585,-354.6"/>
<polygon fill="black" stroke="black" points="750.5,-354.6 758.5,-358.2 754.5,-354.6 758.5,-354.6 758.5,-354.6 758.5,-354.6 754.5,-354.6 758.5,-351 750.5,-354.6 750.5,-354.6"/>
<ellipse fill="none" stroke="black" cx="747.3" cy="-354.6" rx="3.2" ry="3.2"/>
</g>
<!-- lookup_stem_form -->
<g id="node6" class="node">
<title>lookup_stem_form</title>
<g id="a_node6"><a xlink:href="../../tables/lookup_stem_form.html" xlink:title="lookup_stem_form" target="_top">
<polygon fill="#ffffff" stroke="transparent" points="244,-174.6 244,-306.6 710,-306.6 710,-174.6 244,-174.6"/>
<polygon fill="#f5f5f5" stroke="transparent" points="246,-282.6 246,-304.6 708,-304.6 708,-282.6 246,-282.6"/>
<polygon fill="none" stroke="black" points="246,-282.6 246,-304.6 708,-304.6 708,-282.6 246,-282.6"/>
<text text-anchor="start" x="251" y="-291.8" font-family="Helvetica,sans-Serif" font-weight="bold" font-size="11.00">lookup_stem_form</text>
<text text-anchor="start" x="666" y="-290.8" font-family="Helvetica,sans-Serif" font-size="11.00">[table]</text>
<polygon fill="none" stroke="black" points="246,-260.6 246,-282.6 400,-282.6 400,-260.6 246,-260.6"/>
<text text-anchor="start" x="266" y="-268.8" font-family="Helvetica,sans-Serif" font-size="11.00">name_de</text>
<polygon fill="none" stroke="black" points="400,-260.6 400,-282.6 708,-282.6 708,-260.6 400,-260.6"/>
<text text-anchor="start" x="403" y="-268.8" font-family="Helvetica,sans-Serif" font-size="11.00">varchar[150]</text>
<polygon fill="none" stroke="black" points="246,-238.6 246,-260.6 400,-260.6 400,-238.6 246,-238.6"/>
<text text-anchor="start" x="266" y="-246.8" font-family="Helvetica,sans-Serif" font-size="11.00">name_en</text>
<polygon fill="none" stroke="black" points="400,-238.6 400,-260.6 708,-260.6 708,-238.6 400,-238.6"/>
<text text-anchor="start" x="403" y="-246.8" font-family="Helvetica,sans-Serif" font-size="11.00">varchar[150]</text>
<polygon fill="none" stroke="black" points="246,-216.6 246,-238.6 400,-238.6 400,-216.6 246,-216.6"/>
<text text-anchor="start" x="266" y="-224.8" font-family="Helvetica,sans-Serif" font-size="11.00">sort</text>
<polygon fill="none" stroke="black" points="400,-216.6 400,-238.6 708,-238.6 708,-216.6 400,-216.6"/>
<text text-anchor="start" x="403" y="-224.8" font-family="Helvetica,sans-Serif" font-size="11.00">int4[10]</text>
<polygon fill="#ffffff" stroke="transparent" points="246,-194.6 246,-216.6 400,-216.6 400,-194.6 246,-194.6"/>
<polygon fill="none" stroke="black" points="246,-194.6 246,-216.6 400,-216.6 400,-194.6 246,-194.6"/>
<text text-anchor="start" x="266" y="-202.8" font-family="Helvetica,sans-Serif" font-size="11.00">abbreviation</text>
<polygon fill="none" stroke="black" points="400,-194.6 400,-216.6 708,-216.6 708,-194.6 400,-194.6"/>
<text text-anchor="start" x="403" y="-202.8" font-family="Helvetica,sans-Serif" font-size="11.00">&quot;private_ci2027_001&quot;.&quot;enum_stem_form&quot;[2147483647]</text>
<polygon fill="#ffffff" stroke="transparent" points="246,-176.6 246,-194.6 708,-194.6 708,-176.6 246,-176.6"/>
<polygon fill="none" stroke="black" points="246,-176.6 246,-194.6 708,-194.6 708,-176.6 246,-176.6"/>
<polygon fill="#ffffff" stroke="transparent" points="247,-177.6 247,-193.6 395,-193.6 395,-177.6 247,-177.6"/>
<text text-anchor="start" x="249" y="-182.8" font-family="Helvetica,sans-Serif" font-size="11.00">&lt; 0</text>
<polygon fill="#ffffff" stroke="transparent" points="395,-177.6 395,-193.6 560,-193.6 560,-177.6 395,-177.6"/>
<text text-anchor="start" x="459" y="-182.8" font-family="Helvetica,sans-Serif" font-size="11.00">0 rows</text>
<polygon fill="#ffffff" stroke="transparent" points="560,-177.6 560,-193.6 707,-193.6 707,-177.6 560,-177.6"/>
<text text-anchor="start" x="685" y="-182.8" font-family="Helvetica,sans-Serif" font-size="11.00">1 &gt;</text>
<polygon fill="black" stroke="black" points="395,-177.6 395,-193.6 395,-193.6 395,-177.6 395,-177.6"/>
<polygon fill="black" stroke="black" points="560,-177.6 560,-193.6 560,-193.6 560,-177.6 560,-177.6"/>
<polygon fill="none" stroke="black" stroke-width="2" points="245,-175.6 245,-305.6 709,-305.6 709,-175.6 245,-175.6"/>
</a>
</g>
</g>
<!-- wzp_tree&#45;&gt;lookup_stem_form -->
<g id="edge6" class="edge">
<title>wzp_tree:w&#45;&gt;lookup_stem_form:e</title>
<path fill="none" stroke="black" d="M744.29,-329.2C710.65,-309 763.66,-205.6 709,-205.6"/>
<polygon fill="black" stroke="black" points="750.72,-330.74 757.66,-336.1 754.61,-331.67 758.5,-332.6 758.5,-332.6 758.5,-332.6 754.61,-331.67 759.34,-329.1 750.72,-330.74 750.72,-330.74"/>
<ellipse fill="none" stroke="black" cx="747.61" cy="-329.99" rx="3.2" ry="3.2"/>
</g>
<!-- lookup_tree_species -->
<g id="node7" class="node">
<title>lookup_tree_species</title>
<g id="a_node7"><a xlink:href="../../tables/lookup_tree_species.html" xlink:title="lookup_tree_species" target="_top">
<polygon fill="#ffffff" stroke="transparent" points="380,-406.6 380,-464.6 574,-464.6 574,-406.6 380,-406.6"/>
<polygon fill="#f5f5f5" stroke="transparent" points="380,-442.6 380,-464.6 574,-464.6 574,-442.6 380,-442.6"/>
<polygon fill="none" stroke="black" points="380,-442.6 380,-464.6 574,-464.6 574,-442.6 380,-442.6"/>
<text text-anchor="start" x="385" y="-451.8" font-family="Helvetica,sans-Serif" font-weight="bold" font-size="11.00">lookup_tree_species</text>
<text text-anchor="start" x="532" y="-450.8" font-family="Helvetica,sans-Serif" font-size="11.00">[table]</text>
<polygon fill="none" stroke="black" points="380,-424.6 380,-442.6 574,-442.6 574,-424.6 380,-424.6"/>
<text text-anchor="start" x="383" y="-430.8" font-family="Helvetica,sans-Serif" font-size="11.00">...</text>
<polygon fill="#ffffff" stroke="transparent" points="380,-406.6 380,-424.6 574,-424.6 574,-406.6 380,-406.6"/>
<polygon fill="none" stroke="black" points="380,-406.6 380,-424.6 574,-424.6 574,-406.6 380,-406.6"/>
<polygon fill="#ffffff" stroke="transparent" points="381,-407.6 381,-423.6 427,-423.6 427,-407.6 381,-407.6"/>
<text text-anchor="start" x="383" y="-412.8" font-family="Helvetica,sans-Serif" font-size="11.00"> &#160;</text>
<polygon fill="#ffffff" stroke="transparent" points="427,-407.6 427,-423.6 516,-423.6 516,-407.6 427,-407.6"/>
<text text-anchor="start" x="446" y="-412.8" font-family="Helvetica,sans-Serif" font-size="11.00">125 rows</text>
<polygon fill="#ffffff" stroke="transparent" points="516,-407.6 516,-423.6 573,-423.6 573,-407.6 516,-407.6"/>
<text text-anchor="start" x="551" y="-412.8" font-family="Helvetica,sans-Serif" font-size="11.00">3 &gt;</text>
<polygon fill="black" stroke="black" points="427,-407.6 427,-423.6 427,-423.6 427,-407.6 427,-407.6"/>
<polygon fill="black" stroke="black" points="516,-407.6 516,-423.6 516,-423.6 516,-407.6 516,-407.6"/>
</a>
</g>
</g>
<!-- wzp_tree&#45;&gt;lookup_tree_species -->
<g id="edge7" class="edge">
<title>wzp_tree:w&#45;&gt;lookup_tree_species:e</title>
<path fill="none" stroke="black" d="M744.28,-379.68C735.85,-383.97 731.08,-391.73 718,-396.6 656.47,-419.48 640.65,-433.6 575,-433.6"/>
<polygon fill="black" stroke="black" points="750.68,-378.29 759.26,-380.12 754.59,-377.45 758.5,-376.6 758.5,-376.6 758.5,-376.6 754.59,-377.45 757.74,-373.08 750.68,-378.29 750.68,-378.29"/>
<ellipse fill="none" stroke="black" cx="747.55" cy="-378.97" rx="3.2" ry="3.2"/>
</g>
<!-- lookup_tree_state -->
<g id="node8" class="node">
<title>lookup_tree_state</title>
<g id="a_node8"><a xlink:href="../../tables/lookup_tree_state.html" xlink:title="lookup_tree_state" target="_top">
<polygon fill="#ffffff" stroke="transparent" points="388.5,-485.6 388.5,-543.6 565.5,-543.6 565.5,-485.6 388.5,-485.6"/>
<polygon fill="#f5f5f5" stroke="transparent" points="389,-521.6 389,-543.6 566,-543.6 566,-521.6 389,-521.6"/>
<polygon fill="none" stroke="black" points="389,-521.6 389,-543.6 566,-543.6 566,-521.6 389,-521.6"/>
<text text-anchor="start" x="394" y="-530.8" font-family="Helvetica,sans-Serif" font-weight="bold" font-size="11.00">lookup_tree_state</text>
<text text-anchor="start" x="524" y="-529.8" font-family="Helvetica,sans-Serif" font-size="11.00">[table]</text>
<polygon fill="none" stroke="black" points="389,-503.6 389,-521.6 566,-521.6 566,-503.6 389,-503.6"/>
<text text-anchor="start" x="392" y="-509.8" font-family="Helvetica,sans-Serif" font-size="11.00">...</text>
<polygon fill="#ffffff" stroke="transparent" points="389,-485.6 389,-503.6 566,-503.6 566,-485.6 389,-485.6"/>
<polygon fill="none" stroke="black" points="389,-485.6 389,-503.6 566,-503.6 566,-485.6 389,-485.6"/>
<polygon fill="#ffffff" stroke="transparent" points="390,-486.6 390,-502.6 435,-502.6 435,-486.6 390,-486.6"/>
<text text-anchor="start" x="392" y="-491.8" font-family="Helvetica,sans-Serif" font-size="11.00"> &#160;</text>
<polygon fill="#ffffff" stroke="transparent" points="435,-486.6 435,-502.6 509,-502.6 509,-486.6 435,-486.6"/>
<text text-anchor="start" x="453.5" y="-491.8" font-family="Helvetica,sans-Serif" font-size="11.00">0 rows</text>
<polygon fill="#ffffff" stroke="transparent" points="509,-486.6 509,-502.6 565,-502.6 565,-486.6 509,-486.6"/>
<text text-anchor="start" x="543" y="-491.8" font-family="Helvetica,sans-Serif" font-size="11.00">1 &gt;</text>
<polygon fill="black" stroke="black" points="435,-486.6 435,-502.6 435,-502.6 435,-486.6 435,-486.6"/>
<polygon fill="black" stroke="black" points="509,-486.6 509,-502.6 509,-502.6 509,-486.6 509,-486.6"/>
</a>
</g>
</g>
<!-- wzp_tree&#45;&gt;lookup_tree_state -->
<g id="edge8" class="edge">
<title>wzp_tree:w&#45;&gt;lookup_tree_state:e</title>
<path fill="none" stroke="black" d="M744.34,-402.53C727.64,-415.26 743.47,-455.69 718,-475.6 663.56,-518.15 636.1,-512.6 567,-512.6"/>
<polygon fill="black" stroke="black" points="750.79,-400.74 759.46,-402.07 754.65,-399.67 758.5,-398.6 758.5,-398.6 758.5,-398.6 754.65,-399.67 757.54,-395.13 750.79,-400.74 750.79,-400.74"/>
<ellipse fill="none" stroke="black" cx="747.71" cy="-401.59" rx="3.2" ry="3.2"/>
</g>
</g>
</svg>
