<?xml version="1.0" encoding="UTF-8" standalone="no"?>
<!DOCTYPE svg PUBLIC "-//W3C//DTD SVG 1.1//EN"
 "http://www.w3.org/Graphics/SVG/1.1/DTD/svg11.dtd">
<!-- Generated by graphviz version 2.43.0 (0)
 -->
<!-- Title: oneDegreeRelationshipsDiagram Pages: 1 -->
<svg width="746pt" height="197pt"
 viewBox="0.00 0.00 746.00 197.00" xmlns="http://www.w3.org/2000/svg" xmlns:xlink="http://www.w3.org/1999/xlink">
<g id="graph0" class="graph" transform="scale(1 1) rotate(0) translate(4 193)">
<title>oneDegreeRelationshipsDiagram</title>
<polygon fill="#ffffff" stroke="transparent" points="-4,4 -4,-193 742,-193 742,4 -4,4"/>
<text text-anchor="middle" x="79.5" y="-7.2" font-family="Helvetica,sans-Serif" font-size="11.00">Generated by SchemaSpy</text>
<!-- position -->
<g id="node1" class="node">
<title>position</title>
<g id="a_node1"><a xlink:href="../../tables/position.html" xlink:title="position" target="_top">
<polygon fill="#ffffff" stroke="transparent" points="547,-37 547,-183 730,-183 730,-37 547,-37"/>
<polygon fill="#f5f5f5" stroke="transparent" points="547.5,-161 547.5,-183 730.5,-183 730.5,-161 547.5,-161"/>
<polygon fill="none" stroke="black" points="547.5,-161 547.5,-183 730.5,-183 730.5,-161 547.5,-161"/>
<text text-anchor="start" x="552.5" y="-170.2" font-family="Helvetica,sans-Serif" font-weight="bold" font-size="11.00">position</text>
<text text-anchor="start" x="688.5" y="-169.2" font-family="Helvetica,sans-Serif" font-size="11.00">[table]</text>
<polygon fill="none" stroke="black" points="547.5,-139 547.5,-161 730.5,-161 730.5,-139 547.5,-139"/>
<image xlink:href="../../images/primaryKeys.png" width="11px" height="12px" preserveAspectRatio="xMinYMin meet" x="552.5" y="-156"/>
<text text-anchor="start" x="567.5" y="-147.2" font-family="Helvetica,sans-Serif" font-size="11.00">id</text>
<polygon fill="none" stroke="black" points="547.5,-117 547.5,-139 730.5,-139 730.5,-117 547.5,-117"/>
<image xlink:href="../../images/foreignKeys.png" width="11px" height="12px" preserveAspectRatio="xMinYMin meet" x="552.5" y="-134"/>
<text text-anchor="start" x="567.5" y="-125.2" font-family="Helvetica,sans-Serif" font-size="11.00">plot_id</text>
<polygon fill="none" stroke="black" points="547.5,-95 547.5,-117 730.5,-117 730.5,-95 547.5,-95"/>
<image xlink:href="../../images/foreignKeys.png" width="11px" height="12px" preserveAspectRatio="xMinYMin meet" x="552.5" y="-112"/>
<text text-anchor="start" x="567.5" y="-103.2" font-family="Helvetica,sans-Serif" font-size="11.00">plot_location_id</text>
<polygon fill="none" stroke="black" points="547.5,-73 547.5,-95 730.5,-95 730.5,-73 547.5,-73"/>
<image xlink:href="../../images/foreignKeys.png" width="11px" height="12px" preserveAspectRatio="xMinYMin meet" x="552.5" y="-90"/>
<text text-anchor="start" x="567.5" y="-81.2" font-family="Helvetica,sans-Serif" font-size="11.00">quality</text>
<polygon fill="none" stroke="black" points="547.5,-55 547.5,-73 730.5,-73 730.5,-55 547.5,-55"/>
<text text-anchor="start" x="550.5" y="-61.2" font-family="Helvetica,sans-Serif" font-size="11.00">...</text>
<polygon fill="#ffffff" stroke="transparent" points="547.5,-37 547.5,-55 730.5,-55 730.5,-37 547.5,-37"/>
<polygon fill="none" stroke="black" points="547.5,-37 547.5,-55 730.5,-55 730.5,-37 547.5,-37"/>
<polygon fill="#ffffff" stroke="transparent" points="548.5,-38 548.5,-54 605.5,-54 605.5,-38 548.5,-38"/>
<text text-anchor="start" x="550.5" y="-43.2" font-family="Helvetica,sans-Serif" font-size="11.00">&lt; 3</text>
<polygon fill="#ffffff" stroke="transparent" points="605.5,-38 605.5,-54 685.5,-54 685.5,-38 605.5,-38"/>
<text text-anchor="start" x="623.5" y="-43.2" font-family="Helvetica,sans-Serif" font-size="11.00">81 rows</text>
<polygon fill="#ffffff" stroke="transparent" points="685.5,-38 685.5,-54 729.5,-54 729.5,-38 685.5,-38"/>
<text text-anchor="start" x="719.5" y="-43.2" font-family="Helvetica,sans-Serif" font-size="11.00"> &#160;</text>
<polygon fill="black" stroke="black" points="605.5,-38 605.5,-54 605.5,-54 605.5,-38 605.5,-38"/>
<polygon fill="black" stroke="black" points="685.5,-38 685.5,-54 685.5,-54 685.5,-38 685.5,-38"/>
</a>
</g>
</g>
<!-- lookup_gnss_quality -->
<g id="node2" class="node">
<title>lookup_gnss_quality</title>
<g id="a_node2"><a xlink:href="../../tables/lookup_gnss_quality.html" xlink:title="lookup_gnss_quality" target="_top">
<polygon fill="#ffffff" stroke="transparent" points="8,-53 8,-185 498,-185 498,-53 8,-53"/>
<polygon fill="#f5f5f5" stroke="transparent" points="10,-161 10,-183 496,-183 496,-161 10,-161"/>
<polygon fill="none" stroke="black" points="10,-161 10,-183 496,-183 496,-161 10,-161"/>
<text text-anchor="start" x="15" y="-170.2" font-family="Helvetica,sans-Serif" font-weight="bold" font-size="11.00">lookup_gnss_quality</text>
<text text-anchor="start" x="454" y="-169.2" font-family="Helvetica,sans-Serif" font-size="11.00">[table]</text>
<polygon fill="none" stroke="black" points="10,-139 10,-161 178,-161 178,-139 10,-139"/>
<text text-anchor="start" x="30" y="-147.2" font-family="Helvetica,sans-Serif" font-size="11.00">name_de</text>
<polygon fill="none" stroke="black" points="178,-139 178,-161 496,-161 496,-139 178,-139"/>
<text text-anchor="start" x="181" y="-147.2" font-family="Helvetica,sans-Serif" font-size="11.00">varchar[150]</text>
<polygon fill="none" stroke="black" points="10,-117 10,-139 178,-139 178,-117 10,-117"/>
<text text-anchor="start" x="30" y="-125.2" font-family="Helvetica,sans-Serif" font-size="11.00">name_en</text>
<polygon fill="none" stroke="black" points="178,-117 178,-139 496,-139 496,-117 178,-117"/>
<text text-anchor="start" x="181" y="-125.2" font-family="Helvetica,sans-Serif" font-size="11.00">varchar[150]</text>
<polygon fill="none" stroke="black" points="10,-95 10,-117 178,-117 178,-95 10,-95"/>
<text text-anchor="start" x="30" y="-103.2" font-family="Helvetica,sans-Serif" font-size="11.00">sort</text>
<polygon fill="none" stroke="black" points="178,-95 178,-117 496,-117 496,-95 178,-95"/>
<text text-anchor="start" x="181" y="-103.2" font-family="Helvetica,sans-Serif" font-size="11.00">int4[10]</text>
<polygon fill="#ffffff" stroke="transparent" points="10,-73 10,-95 178,-95 178,-73 10,-73"/>
<polygon fill="none" stroke="black" points="10,-73 10,-95 178,-95 178,-73 10,-73"/>
<text text-anchor="start" x="30" y="-81.2" font-family="Helvetica,sans-Serif" font-size="11.00">abbreviation</text>
<polygon fill="none" stroke="black" points="178,-73 178,-95 496,-95 496,-73 178,-73"/>
<text text-anchor="start" x="181" y="-81.2" font-family="Helvetica,sans-Serif" font-size="11.00">&quot;private_ci2027_001&quot;.&quot;enum_gnss_quality&quot;[2147483647]</text>
<polygon fill="#ffffff" stroke="transparent" points="10,-55 10,-73 496,-73 496,-55 10,-55"/>
<polygon fill="none" stroke="black" points="10,-55 10,-73 496,-73 496,-55 10,-55"/>
<polygon fill="#ffffff" stroke="transparent" points="11,-56 11,-72 167,-72 167,-56 11,-56"/>
<text text-anchor="start" x="13" y="-61.2" font-family="Helvetica,sans-Serif" font-size="11.00">&lt; 0</text>
<polygon fill="#ffffff" stroke="transparent" points="167,-56 167,-72 340,-72 340,-56 167,-56"/>
<text text-anchor="start" x="235" y="-61.2" font-family="Helvetica,sans-Serif" font-size="11.00">0 rows</text>
<polygon fill="#ffffff" stroke="transparent" points="340,-56 340,-72 495,-72 495,-56 340,-56"/>
<text text-anchor="start" x="473" y="-61.2" font-family="Helvetica,sans-Serif" font-size="11.00">1 &gt;</text>
<polygon fill="black" stroke="black" points="167,-56 167,-72 167,-72 167,-56 167,-56"/>
<polygon fill="black" stroke="black" points="340,-56 340,-72 340,-72 340,-56 340,-56"/>
<polygon fill="none" stroke="black" stroke-width="2" points="9,-54 9,-184 497,-184 497,-54 9,-54"/>
</a>
</g>
</g>
<!-- position&#45;&gt;lookup_gnss_quality -->
<g id="edge1" class="edge">
<title>position:w&#45;&gt;lookup_gnss_quality:e</title>
<path fill="none" stroke="black" d="M531.84,-84C520.41,-84 513.16,-84 497,-84"/>
<polygon fill="black" stroke="black" points="538.5,-84 546.5,-87.6 542.5,-84 546.5,-84 546.5,-84 546.5,-84 542.5,-84 546.5,-80.4 538.5,-84 538.5,-84"/>
<ellipse fill="none" stroke="black" cx="535.3" cy="-84" rx="3.2" ry="3.2"/>
</g>
</g>
</svg>
