<?xml version="1.0" encoding="UTF-8" standalone="no"?>
<!DOCTYPE svg PUBLIC "-//W3C//DTD SVG 1.1//EN"
 "http://www.w3.org/Graphics/SVG/1.1/DTD/svg11.dtd">
<!-- Generated by graphviz version 2.43.0 (0)
 -->
<!-- Title: oneDegreeRelationshipsDiagram Pages: 1 -->
<svg width="788pt" height="679pt"
 viewBox="0.00 0.00 788.00 679.00" xmlns="http://www.w3.org/2000/svg" xmlns:xlink="http://www.w3.org/1999/xlink">
<g id="graph0" class="graph" transform="scale(1 1) rotate(0) translate(4 675)">
<title>oneDegreeRelationshipsDiagram</title>
<polygon fill="#ffffff" stroke="transparent" points="-4,4 -4,-675 784,-675 784,4 -4,4"/>
<text text-anchor="middle" x="79.5" y="-7.2" font-family="Helvetica,sans-Serif" font-size="11.00">Generated by SchemaSpy</text>
<!-- plot -->
<g id="node1" class="node">
<title>plot</title>
<g id="a_node1"><a xlink:href="../../tables/plot.html" xlink:title="plot" target="_top">
<polygon fill="#ffffff" stroke="transparent" points="521,-37 521,-667 772,-667 772,-37 521,-37"/>
<polygon fill="#f5f5f5" stroke="transparent" points="521.5,-645 521.5,-667 772.5,-667 772.5,-645 521.5,-645"/>
<polygon fill="none" stroke="black" points="521.5,-645 521.5,-667 772.5,-667 772.5,-645 521.5,-645"/>
<text text-anchor="start" x="526" y="-654.2" font-family="Helvetica,sans-Serif" font-weight="bold" font-size="11.00">plot</text>
<text text-anchor="start" x="730.5" y="-653.2" font-family="Helvetica,sans-Serif" font-size="11.00">[table]</text>
<polygon fill="none" stroke="black" points="521.5,-623 521.5,-645 772.5,-645 772.5,-623 521.5,-623"/>
<image xlink:href="../../images/primaryKeys.png" width="11px" height="12px" preserveAspectRatio="xMinYMin meet" x="526.5" y="-640"/>
<text text-anchor="start" x="541.5" y="-631.2" font-family="Helvetica,sans-Serif" font-size="11.00">id</text>
<polygon fill="#ffffff" stroke="transparent" points="521.5,-601 521.5,-623 772.5,-623 772.5,-601 521.5,-601"/>
<polygon fill="none" stroke="black" points="521.5,-601 521.5,-623 772.5,-623 772.5,-601 521.5,-601"/>
<image xlink:href="../../images/foreignKeys.png" width="11px" height="12px" preserveAspectRatio="xMinYMin meet" x="526.5" y="-618"/>
<text text-anchor="start" x="541.5" y="-609.2" font-family="Helvetica,sans-Serif" font-size="11.00">cluster_id</text>
<polygon fill="#ffffff" stroke="transparent" points="521.5,-579 521.5,-601 772.5,-601 772.5,-579 521.5,-579"/>
<polygon fill="none" stroke="black" points="521.5,-579 521.5,-601 772.5,-601 772.5,-579 521.5,-579"/>
<text text-anchor="start" x="541.5" y="-587.2" font-family="Helvetica,sans-Serif" font-size="11.00">plot_name</text>
<polygon fill="none" stroke="black" points="521.5,-557 521.5,-579 772.5,-579 772.5,-557 521.5,-557"/>
<image xlink:href="../../images/foreignKeys.png" width="11px" height="12px" preserveAspectRatio="xMinYMin meet" x="526.5" y="-574"/>
<text text-anchor="start" x="541.5" y="-565.2" font-family="Helvetica,sans-Serif" font-size="11.00">sampling_strata</text>
<polygon fill="none" stroke="black" points="521.5,-535 521.5,-557 772.5,-557 772.5,-535 521.5,-535"/>
<image xlink:href="../../images/foreignKeys.png" width="11px" height="12px" preserveAspectRatio="xMinYMin meet" x="526.5" y="-552"/>
<text text-anchor="start" x="541.5" y="-543.2" font-family="Helvetica,sans-Serif" font-size="11.00">growth_district</text>
<polygon fill="none" stroke="black" points="521.5,-513 521.5,-535 772.5,-535 772.5,-513 521.5,-513"/>
<image xlink:href="../../images/foreignKeys.png" width="11px" height="12px" preserveAspectRatio="xMinYMin meet" x="526.5" y="-530"/>
<text text-anchor="start" x="541.5" y="-521.2" font-family="Helvetica,sans-Serif" font-size="11.00">forest_decision</text>
<polygon fill="none" stroke="black" points="521.5,-491 521.5,-513 772.5,-513 772.5,-491 521.5,-491"/>
<image xlink:href="../../images/foreignKeys.png" width="11px" height="12px" preserveAspectRatio="xMinYMin meet" x="526.5" y="-508"/>
<text text-anchor="start" x="541.5" y="-499.2" font-family="Helvetica,sans-Serif" font-size="11.00">forestry_department</text>
<polygon fill="none" stroke="black" points="521.5,-469 521.5,-491 772.5,-491 772.5,-469 521.5,-469"/>
<image xlink:href="../../images/foreignKeys.png" width="11px" height="12px" preserveAspectRatio="xMinYMin meet" x="526.5" y="-486"/>
<text text-anchor="start" x="541.5" y="-477.2" font-family="Helvetica,sans-Serif" font-size="11.00">height_layer_class</text>
<polygon fill="none" stroke="black" points="521.5,-447 521.5,-469 772.5,-469 772.5,-447 521.5,-447"/>
<image xlink:href="../../images/foreignKeys.png" width="11px" height="12px" preserveAspectRatio="xMinYMin meet" x="526.5" y="-464"/>
<text text-anchor="start" x="541.5" y="-455.2" font-family="Helvetica,sans-Serif" font-size="11.00">property_type</text>
<polygon fill="none" stroke="black" points="521.5,-425 521.5,-447 772.5,-447 772.5,-425 521.5,-425"/>
<image xlink:href="../../images/foreignKeys.png" width="11px" height="12px" preserveAspectRatio="xMinYMin meet" x="526.5" y="-442"/>
<text text-anchor="start" x="541.5" y="-433.2" font-family="Helvetica,sans-Serif" font-size="11.00">property_size_class</text>
<polygon fill="none" stroke="black" points="521.5,-403 521.5,-425 772.5,-425 772.5,-403 521.5,-403"/>
<image xlink:href="../../images/foreignKeys.png" width="11px" height="12px" preserveAspectRatio="xMinYMin meet" x="526.5" y="-420"/>
<text text-anchor="start" x="541.5" y="-411.2" font-family="Helvetica,sans-Serif" font-size="11.00">forest_type</text>
<polygon fill="none" stroke="black" points="521.5,-381 521.5,-403 772.5,-403 772.5,-381 521.5,-381"/>
<image xlink:href="../../images/foreignKeys.png" width="11px" height="12px" preserveAspectRatio="xMinYMin meet" x="526.5" y="-398"/>
<text text-anchor="start" x="541.5" y="-389.2" font-family="Helvetica,sans-Serif" font-size="11.00">habitat_type</text>
<polygon fill="none" stroke="black" points="521.5,-359 521.5,-381 772.5,-381 772.5,-359 521.5,-359"/>
<image xlink:href="../../images/foreignKeys.png" width="11px" height="12px" preserveAspectRatio="xMinYMin meet" x="526.5" y="-376"/>
<text text-anchor="start" x="541.5" y="-367.2" font-family="Helvetica,sans-Serif" font-size="11.00">habitat_type_source</text>
<polygon fill="none" stroke="black" points="521.5,-337 521.5,-359 772.5,-359 772.5,-337 521.5,-337"/>
<image xlink:href="../../images/foreignKeys.png" width="11px" height="12px" preserveAspectRatio="xMinYMin meet" x="526.5" y="-354"/>
<text text-anchor="start" x="541.5" y="-345.2" font-family="Helvetica,sans-Serif" font-size="11.00">use_restriction</text>
<polygon fill="none" stroke="black" points="521.5,-315 521.5,-337 772.5,-337 772.5,-315 521.5,-315"/>
<image xlink:href="../../images/foreignKeys.png" width="11px" height="12px" preserveAspectRatio="xMinYMin meet" x="526.5" y="-332"/>
<text text-anchor="start" x="541.5" y="-323.2" font-family="Helvetica,sans-Serif" font-size="11.00">land_use</text>
<polygon fill="none" stroke="black" points="521.5,-293 521.5,-315 772.5,-315 772.5,-293 521.5,-293"/>
<image xlink:href="../../images/foreignKeys.png" width="11px" height="12px" preserveAspectRatio="xMinYMin meet" x="526.5" y="-310"/>
<text text-anchor="start" x="541.5" y="-301.2" font-family="Helvetica,sans-Serif" font-size="11.00">marking_state</text>
<polygon fill="none" stroke="black" points="521.5,-271 521.5,-293 772.5,-293 772.5,-271 521.5,-271"/>
<image xlink:href="../../images/foreignKeys.png" width="11px" height="12px" preserveAspectRatio="xMinYMin meet" x="526.5" y="-288"/>
<text text-anchor="start" x="541.5" y="-279.2" font-family="Helvetica,sans-Serif" font-size="11.00">marking_profile</text>
<polygon fill="none" stroke="black" points="521.5,-249 521.5,-271 772.5,-271 772.5,-249 521.5,-249"/>
<image xlink:href="../../images/foreignKeys.png" width="11px" height="12px" preserveAspectRatio="xMinYMin meet" x="526.5" y="-266"/>
<text text-anchor="start" x="541.5" y="-257.2" font-family="Helvetica,sans-Serif" font-size="11.00">terrain_form</text>
<polygon fill="none" stroke="black" points="521.5,-227 521.5,-249 772.5,-249 772.5,-227 521.5,-227"/>
<image xlink:href="../../images/foreignKeys.png" width="11px" height="12px" preserveAspectRatio="xMinYMin meet" x="526.5" y="-244"/>
<text text-anchor="start" x="541.5" y="-235.2" font-family="Helvetica,sans-Serif" font-size="11.00">management_type</text>
<polygon fill="none" stroke="black" points="521.5,-205 521.5,-227 772.5,-227 772.5,-205 521.5,-205"/>
<image xlink:href="../../images/foreignKeys.png" width="11px" height="12px" preserveAspectRatio="xMinYMin meet" x="526.5" y="-222"/>
<text text-anchor="start" x="541.5" y="-213.2" font-family="Helvetica,sans-Serif" font-size="11.00">harvesting_method</text>
<polygon fill="none" stroke="black" points="521.5,-183 521.5,-205 772.5,-205 772.5,-183 521.5,-183"/>
<image xlink:href="../../images/foreignKeys.png" width="11px" height="12px" preserveAspectRatio="xMinYMin meet" x="526.5" y="-200"/>
<text text-anchor="start" x="541.5" y="-191.2" font-family="Helvetica,sans-Serif" font-size="11.00">layer_type</text>
<polygon fill="none" stroke="black" points="521.5,-161 521.5,-183 772.5,-183 772.5,-161 521.5,-161"/>
<image xlink:href="../../images/foreignKeys.png" width="11px" height="12px" preserveAspectRatio="xMinYMin meet" x="526.5" y="-178"/>
<text text-anchor="start" x="541.5" y="-169.2" font-family="Helvetica,sans-Serif" font-size="11.00">stand_phase</text>
<polygon fill="none" stroke="black" points="521.5,-139 521.5,-161 772.5,-161 772.5,-139 521.5,-139"/>
<image xlink:href="../../images/foreignKeys.png" width="11px" height="12px" preserveAspectRatio="xMinYMin meet" x="526.5" y="-156"/>
<text text-anchor="start" x="541.5" y="-147.2" font-family="Helvetica,sans-Serif" font-size="11.00">sablings_layer</text>
<polygon fill="none" stroke="black" points="521.5,-117 521.5,-139 772.5,-139 772.5,-117 521.5,-117"/>
<image xlink:href="../../images/foreignKeys.png" width="11px" height="12px" preserveAspectRatio="xMinYMin meet" x="526.5" y="-134"/>
<text text-anchor="start" x="541.5" y="-125.2" font-family="Helvetica,sans-Serif" font-size="11.00">trees_less_4meter_mirrored</text>
<polygon fill="none" stroke="black" points="521.5,-95 521.5,-117 772.5,-117 772.5,-95 521.5,-95"/>
<image xlink:href="../../images/foreignKeys.png" width="11px" height="12px" preserveAspectRatio="xMinYMin meet" x="526.5" y="-112"/>
<text text-anchor="start" x="541.5" y="-103.2" font-family="Helvetica,sans-Serif" font-size="11.00">trees_less_4meter_count_factor</text>
<polygon fill="none" stroke="black" points="521.5,-73 521.5,-95 772.5,-95 772.5,-73 521.5,-73"/>
<image xlink:href="../../images/foreignKeys.png" width="11px" height="12px" preserveAspectRatio="xMinYMin meet" x="526.5" y="-90"/>
<text text-anchor="start" x="541.5" y="-81.2" font-family="Helvetica,sans-Serif" font-size="11.00">trees_less_4meter_layer</text>
<polygon fill="none" stroke="black" points="521.5,-55 521.5,-73 772.5,-73 772.5,-55 521.5,-55"/>
<text text-anchor="start" x="524.5" y="-61.2" font-family="Helvetica,sans-Serif" font-size="11.00">...</text>
<polygon fill="#ffffff" stroke="transparent" points="521.5,-37 521.5,-55 772.5,-55 772.5,-37 521.5,-37"/>
<polygon fill="none" stroke="black" points="521.5,-37 521.5,-55 772.5,-55 772.5,-37 521.5,-37"/>
<polygon fill="#ffffff" stroke="transparent" points="522.5,-38 522.5,-54 602.5,-54 602.5,-38 522.5,-38"/>
<text text-anchor="start" x="524.5" y="-43.2" font-family="Helvetica,sans-Serif" font-size="11.00">&lt; 24</text>
<polygon fill="#ffffff" stroke="transparent" points="602.5,-38 602.5,-54 699.5,-54 699.5,-38 602.5,-38"/>
<text text-anchor="start" x="629" y="-43.2" font-family="Helvetica,sans-Serif" font-size="11.00">82 rows</text>
<polygon fill="#ffffff" stroke="transparent" points="699.5,-38 699.5,-54 771.5,-54 771.5,-38 699.5,-38"/>
<text text-anchor="start" x="749.5" y="-43.2" font-family="Helvetica,sans-Serif" font-size="11.00">7 &gt;</text>
<polygon fill="black" stroke="black" points="602.5,-38 602.5,-54 602.5,-54 602.5,-38 602.5,-38"/>
<polygon fill="black" stroke="black" points="699.5,-38 699.5,-54 699.5,-54 699.5,-38 699.5,-38"/>
</a>
</g>
</g>
<!-- lookup_layer_type -->
<g id="node2" class="node">
<title>lookup_layer_type</title>
<g id="a_node2"><a xlink:href="../../tables/lookup_layer_type.html" xlink:title="lookup_layer_type" target="_top">
<polygon fill="#ffffff" stroke="transparent" points="8,-163 8,-295 472,-295 472,-163 8,-163"/>
<polygon fill="#f5f5f5" stroke="transparent" points="10,-271 10,-293 470,-293 470,-271 10,-271"/>
<polygon fill="none" stroke="black" points="10,-271 10,-293 470,-293 470,-271 10,-271"/>
<text text-anchor="start" x="15" y="-280.2" font-family="Helvetica,sans-Serif" font-weight="bold" font-size="11.00">lookup_layer_type</text>
<text text-anchor="start" x="428" y="-279.2" font-family="Helvetica,sans-Serif" font-size="11.00">[table]</text>
<polygon fill="none" stroke="black" points="10,-249 10,-271 163,-271 163,-249 10,-249"/>
<text text-anchor="start" x="30" y="-257.2" font-family="Helvetica,sans-Serif" font-size="11.00">name_de</text>
<polygon fill="none" stroke="black" points="163,-249 163,-271 470,-271 470,-249 163,-249"/>
<text text-anchor="start" x="166" y="-257.2" font-family="Helvetica,sans-Serif" font-size="11.00">varchar[150]</text>
<polygon fill="none" stroke="black" points="10,-227 10,-249 163,-249 163,-227 10,-227"/>
<text text-anchor="start" x="30" y="-235.2" font-family="Helvetica,sans-Serif" font-size="11.00">name_en</text>
<polygon fill="none" stroke="black" points="163,-227 163,-249 470,-249 470,-227 163,-227"/>
<text text-anchor="start" x="166" y="-235.2" font-family="Helvetica,sans-Serif" font-size="11.00">varchar[150]</text>
<polygon fill="none" stroke="black" points="10,-205 10,-227 163,-227 163,-205 10,-205"/>
<text text-anchor="start" x="30" y="-213.2" font-family="Helvetica,sans-Serif" font-size="11.00">sort</text>
<polygon fill="none" stroke="black" points="163,-205 163,-227 470,-227 470,-205 163,-205"/>
<text text-anchor="start" x="166" y="-213.2" font-family="Helvetica,sans-Serif" font-size="11.00">int4[10]</text>
<polygon fill="#ffffff" stroke="transparent" points="10,-183 10,-205 163,-205 163,-183 10,-183"/>
<polygon fill="none" stroke="black" points="10,-183 10,-205 163,-205 163,-183 10,-183"/>
<text text-anchor="start" x="30" y="-191.2" font-family="Helvetica,sans-Serif" font-size="11.00">abbreviation</text>
<polygon fill="none" stroke="black" points="163,-183 163,-205 470,-205 470,-183 163,-183"/>
<text text-anchor="start" x="166" y="-191.2" font-family="Helvetica,sans-Serif" font-size="11.00">&quot;private_ci2027_001&quot;.&quot;enum_layer_type&quot;[2147483647]</text>
<polygon fill="#ffffff" stroke="transparent" points="10,-165 10,-183 470,-183 470,-165 10,-165"/>
<polygon fill="none" stroke="black" points="10,-165 10,-183 470,-183 470,-165 10,-165"/>
<polygon fill="#ffffff" stroke="transparent" points="11,-166 11,-182 158,-182 158,-166 11,-166"/>
<text text-anchor="start" x="13" y="-171.2" font-family="Helvetica,sans-Serif" font-size="11.00">&lt; 0</text>
<polygon fill="#ffffff" stroke="transparent" points="158,-166 158,-182 322,-182 322,-166 158,-166"/>
<text text-anchor="start" x="221.5" y="-171.2" font-family="Helvetica,sans-Serif" font-size="11.00">0 rows</text>
<polygon fill="#ffffff" stroke="transparent" points="322,-166 322,-182 469,-182 469,-166 322,-166"/>
<text text-anchor="start" x="447" y="-171.2" font-family="Helvetica,sans-Serif" font-size="11.00">1 &gt;</text>
<polygon fill="black" stroke="black" points="158,-166 158,-182 158,-182 158,-166 158,-166"/>
<polygon fill="black" stroke="black" points="322,-166 322,-182 322,-182 322,-166 322,-166"/>
<polygon fill="none" stroke="black" stroke-width="2" points="9,-164 9,-294 471,-294 471,-164 9,-164"/>
</a>
</g>
</g>
<!-- plot&#45;&gt;lookup_layer_type -->
<g id="edge1" class="edge">
<title>plot:w&#45;&gt;lookup_layer_type:e</title>
<path fill="none" stroke="black" d="M505.84,-194C494.41,-194 487.16,-194 471,-194"/>
<polygon fill="black" stroke="black" points="512.5,-194 520.5,-197.6 516.5,-194 520.5,-194 520.5,-194 520.5,-194 516.5,-194 520.5,-190.4 512.5,-194 512.5,-194"/>
<ellipse fill="none" stroke="black" cx="509.3" cy="-194" rx="3.2" ry="3.2"/>
</g>
</g>
</svg>
