<?xml version="1.0" encoding="UTF-8" standalone="no"?>
<!DOCTYPE svg PUBLIC "-//W3C//DTD SVG 1.1//EN"
 "http://www.w3.org/Graphics/SVG/1.1/DTD/svg11.dtd">
<!-- Generated by graphviz version 2.43.0 (0)
 -->
<!-- Title: twoDegreesRelationshipsDiagram Pages: 1 -->
<svg width="778pt" height="418pt"
 viewBox="0.00 0.00 778.00 418.00" xmlns="http://www.w3.org/2000/svg" xmlns:xlink="http://www.w3.org/1999/xlink">
<g id="graph0" class="graph" transform="scale(1 1) rotate(0) translate(4 414)">
<title>twoDegreesRelationshipsDiagram</title>
<polygon fill="#ffffff" stroke="transparent" points="-4,4 -4,-414 774,-414 774,4 -4,4"/>
<text text-anchor="middle" x="79.5" y="-7.2" font-family="Helvetica,sans-Serif" font-size="11.00">Generated by SchemaSpy</text>
<!-- deadwood -->
<g id="node1" class="node">
<title>deadwood</title>
<g id="a_node1"><a xlink:href="../../tables/deadwood.html" xlink:title="deadwood" target="_top">
<polygon fill="#ffffff" stroke="transparent" points="600,-141 600,-309 762,-309 762,-141 600,-141"/>
<polygon fill="#f5f5f5" stroke="transparent" points="600,-287 600,-309 762,-309 762,-287 600,-287"/>
<polygon fill="none" stroke="black" points="600,-287 600,-309 762,-309 762,-287 600,-287"/>
<text text-anchor="start" x="605" y="-296.2" font-family="Helvetica,sans-Serif" font-weight="bold" font-size="11.00">deadwood</text>
<text text-anchor="start" x="720" y="-295.2" font-family="Helvetica,sans-Serif" font-size="11.00">[table]</text>
<polygon fill="none" stroke="black" points="600,-265 600,-287 762,-287 762,-265 600,-265"/>
<image xlink:href="../../images/primaryKeys.png" width="11px" height="12px" preserveAspectRatio="xMinYMin meet" x="605" y="-282"/>
<text text-anchor="start" x="620" y="-273.2" font-family="Helvetica,sans-Serif" font-size="11.00">id</text>
<polygon fill="none" stroke="black" points="600,-243 600,-265 762,-265 762,-243 600,-243"/>
<image xlink:href="../../images/foreignKeys.png" width="11px" height="12px" preserveAspectRatio="xMinYMin meet" x="605" y="-260"/>
<text text-anchor="start" x="620" y="-251.2" font-family="Helvetica,sans-Serif" font-size="11.00">plot_id</text>
<polygon fill="none" stroke="black" points="600,-221 600,-243 762,-243 762,-221 600,-221"/>
<image xlink:href="../../images/foreignKeys.png" width="11px" height="12px" preserveAspectRatio="xMinYMin meet" x="605" y="-238"/>
<text text-anchor="start" x="620" y="-229.2" font-family="Helvetica,sans-Serif" font-size="11.00">tree_species_group</text>
<polygon fill="none" stroke="black" points="600,-199 600,-221 762,-221 762,-199 600,-199"/>
<image xlink:href="../../images/foreignKeys.png" width="11px" height="12px" preserveAspectRatio="xMinYMin meet" x="605" y="-216"/>
<text text-anchor="start" x="620" y="-207.2" font-family="Helvetica,sans-Serif" font-size="11.00">dead_wood_type</text>
<polygon fill="none" stroke="black" points="600,-177 600,-199 762,-199 762,-177 600,-177"/>
<image xlink:href="../../images/foreignKeys.png" width="11px" height="12px" preserveAspectRatio="xMinYMin meet" x="605" y="-194"/>
<text text-anchor="start" x="620" y="-185.2" font-family="Helvetica,sans-Serif" font-size="11.00">decomposition</text>
<polygon fill="none" stroke="black" points="600,-159 600,-177 762,-177 762,-159 600,-159"/>
<text text-anchor="start" x="603" y="-165.2" font-family="Helvetica,sans-Serif" font-size="11.00">...</text>
<polygon fill="#ffffff" stroke="transparent" points="600,-141 600,-159 762,-159 762,-141 600,-141"/>
<polygon fill="none" stroke="black" points="600,-141 600,-159 762,-159 762,-141 600,-141"/>
<polygon fill="#ffffff" stroke="transparent" points="601,-142 601,-158 651,-158 651,-142 601,-142"/>
<text text-anchor="start" x="603" y="-147.2" font-family="Helvetica,sans-Serif" font-size="11.00">&lt; 4</text>
<polygon fill="#ffffff" stroke="transparent" points="651,-142 651,-158 724,-158 724,-142 651,-142"/>
<text text-anchor="start" x="665.5" y="-147.2" font-family="Helvetica,sans-Serif" font-size="11.00">81 rows</text>
<polygon fill="#ffffff" stroke="transparent" points="724,-142 724,-158 761,-158 761,-142 724,-142"/>
<text text-anchor="start" x="751" y="-147.2" font-family="Helvetica,sans-Serif" font-size="11.00"> &#160;</text>
<polygon fill="black" stroke="black" points="651,-142 651,-158 651,-158 651,-142 651,-142"/>
<polygon fill="black" stroke="black" points="724,-142 724,-158 724,-158 724,-142 724,-142"/>
</a>
</g>
</g>
<!-- lookup_dead_wood_type -->
<g id="node2" class="node">
<title>lookup_dead_wood_type</title>
<g id="a_node2"><a xlink:href="../../tables/lookup_dead_wood_type.html" xlink:title="lookup_dead_wood_type" target="_top">
<polygon fill="#ffffff" stroke="transparent" points="8,-116 8,-248 551,-248 551,-116 8,-116"/>
<polygon fill="#f5f5f5" stroke="transparent" points="10.5,-224 10.5,-246 549.5,-246 549.5,-224 10.5,-224"/>
<polygon fill="none" stroke="black" points="10.5,-224 10.5,-246 549.5,-246 549.5,-224 10.5,-224"/>
<text text-anchor="start" x="15.5" y="-233.2" font-family="Helvetica,sans-Serif" font-weight="bold" font-size="11.00">lookup_dead_wood_type</text>
<text text-anchor="start" x="507.5" y="-232.2" font-family="Helvetica,sans-Serif" font-size="11.00">[table]</text>
<polygon fill="none" stroke="black" points="10.5,-202 10.5,-224 208.5,-224 208.5,-202 10.5,-202"/>
<text text-anchor="start" x="30.5" y="-210.2" font-family="Helvetica,sans-Serif" font-size="11.00">name_de</text>
<polygon fill="none" stroke="black" points="208.5,-202 208.5,-224 549.5,-224 549.5,-202 208.5,-202"/>
<text text-anchor="start" x="211.5" y="-210.2" font-family="Helvetica,sans-Serif" font-size="11.00">varchar[150]</text>
<polygon fill="none" stroke="black" points="10.5,-180 10.5,-202 208.5,-202 208.5,-180 10.5,-180"/>
<text text-anchor="start" x="30.5" y="-188.2" font-family="Helvetica,sans-Serif" font-size="11.00">name_en</text>
<polygon fill="none" stroke="black" points="208.5,-180 208.5,-202 549.5,-202 549.5,-180 208.5,-180"/>
<text text-anchor="start" x="211.5" y="-188.2" font-family="Helvetica,sans-Serif" font-size="11.00">varchar[150]</text>
<polygon fill="none" stroke="black" points="10.5,-158 10.5,-180 208.5,-180 208.5,-158 10.5,-158"/>
<text text-anchor="start" x="30.5" y="-166.2" font-family="Helvetica,sans-Serif" font-size="11.00">sort</text>
<polygon fill="none" stroke="black" points="208.5,-158 208.5,-180 549.5,-180 549.5,-158 208.5,-158"/>
<text text-anchor="start" x="211.5" y="-166.2" font-family="Helvetica,sans-Serif" font-size="11.00">int4[10]</text>
<polygon fill="#ffffff" stroke="transparent" points="10.5,-136 10.5,-158 208.5,-158 208.5,-136 10.5,-136"/>
<polygon fill="none" stroke="black" points="10.5,-136 10.5,-158 208.5,-158 208.5,-136 10.5,-136"/>
<text text-anchor="start" x="30.5" y="-144.2" font-family="Helvetica,sans-Serif" font-size="11.00">abbreviation</text>
<polygon fill="none" stroke="black" points="208.5,-136 208.5,-158 549.5,-158 549.5,-136 208.5,-136"/>
<text text-anchor="start" x="211.5" y="-144.2" font-family="Helvetica,sans-Serif" font-size="11.00">&quot;private_ci2027_001&quot;.&quot;enum_dead_wood_type&quot;[2147483647]</text>
<polygon fill="#ffffff" stroke="transparent" points="10.5,-118 10.5,-136 549.5,-136 549.5,-118 10.5,-118"/>
<polygon fill="none" stroke="black" points="10.5,-118 10.5,-136 549.5,-136 549.5,-118 10.5,-118"/>
<polygon fill="#ffffff" stroke="transparent" points="11.5,-119 11.5,-135 185.5,-135 185.5,-119 11.5,-119"/>
<text text-anchor="start" x="13.5" y="-124.2" font-family="Helvetica,sans-Serif" font-size="11.00">&lt; 0</text>
<polygon fill="#ffffff" stroke="transparent" points="185.5,-119 185.5,-135 375.5,-135 375.5,-119 185.5,-119"/>
<text text-anchor="start" x="262" y="-124.2" font-family="Helvetica,sans-Serif" font-size="11.00">0 rows</text>
<polygon fill="#ffffff" stroke="transparent" points="375.5,-119 375.5,-135 548.5,-135 548.5,-119 375.5,-119"/>
<text text-anchor="start" x="526.5" y="-124.2" font-family="Helvetica,sans-Serif" font-size="11.00">1 &gt;</text>
<polygon fill="black" stroke="black" points="185.5,-119 185.5,-135 185.5,-135 185.5,-119 185.5,-119"/>
<polygon fill="black" stroke="black" points="375.5,-119 375.5,-135 375.5,-135 375.5,-119 375.5,-119"/>
<polygon fill="none" stroke="black" stroke-width="2" points="9,-117 9,-247 550,-247 550,-117 9,-117"/>
</a>
</g>
</g>
<!-- deadwood&#45;&gt;lookup_dead_wood_type -->
<g id="edge1" class="edge">
<title>deadwood:w&#45;&gt;lookup_dead_wood_type:e</title>
<path fill="none" stroke="black" d="M585.29,-205.06C569.59,-190.2 579.76,-147 550.5,-147"/>
<polygon fill="black" stroke="black" points="591.47,-207.29 597.78,-213.39 595.24,-208.64 599,-210 599,-210 599,-210 595.24,-208.64 600.22,-206.61 591.47,-207.29 591.47,-207.29"/>
<ellipse fill="none" stroke="black" cx="588.46" cy="-206.2" rx="3.2" ry="3.2"/>
</g>
<!-- lookup_decomposition -->
<g id="node3" class="node">
<title>lookup_decomposition</title>
<g id="a_node3"><a xlink:href="../../tables/lookup_decomposition.html" xlink:title="lookup_decomposition" target="_top">
<polygon fill="#ffffff" stroke="transparent" points="174.5,-37 174.5,-95 384.5,-95 384.5,-37 174.5,-37"/>
<polygon fill="#f5f5f5" stroke="transparent" points="174.5,-73 174.5,-95 384.5,-95 384.5,-73 174.5,-73"/>
<polygon fill="none" stroke="black" points="174.5,-73 174.5,-95 384.5,-95 384.5,-73 174.5,-73"/>
<text text-anchor="start" x="179.5" y="-82.2" font-family="Helvetica,sans-Serif" font-weight="bold" font-size="11.00">lookup_decomposition</text>
<text text-anchor="start" x="342.5" y="-81.2" font-family="Helvetica,sans-Serif" font-size="11.00">[table]</text>
<polygon fill="none" stroke="black" points="174.5,-55 174.5,-73 384.5,-73 384.5,-55 174.5,-55"/>
<text text-anchor="start" x="177.5" y="-61.2" font-family="Helvetica,sans-Serif" font-size="11.00">...</text>
<polygon fill="#ffffff" stroke="transparent" points="174.5,-37 174.5,-55 384.5,-55 384.5,-37 174.5,-37"/>
<polygon fill="none" stroke="black" points="174.5,-37 174.5,-55 384.5,-55 384.5,-37 174.5,-37"/>
<polygon fill="#ffffff" stroke="transparent" points="175.5,-38 175.5,-54 231.5,-54 231.5,-38 175.5,-38"/>
<text text-anchor="start" x="177.5" y="-43.2" font-family="Helvetica,sans-Serif" font-size="11.00"> &#160;</text>
<polygon fill="#ffffff" stroke="transparent" points="231.5,-38 231.5,-54 316.5,-54 316.5,-38 231.5,-38"/>
<text text-anchor="start" x="255.5" y="-43.2" font-family="Helvetica,sans-Serif" font-size="11.00">0 rows</text>
<polygon fill="#ffffff" stroke="transparent" points="316.5,-38 316.5,-54 383.5,-54 383.5,-38 316.5,-38"/>
<text text-anchor="start" x="361.5" y="-43.2" font-family="Helvetica,sans-Serif" font-size="11.00">1 &gt;</text>
<polygon fill="black" stroke="black" points="231.5,-38 231.5,-54 231.5,-54 231.5,-38 231.5,-38"/>
<polygon fill="black" stroke="black" points="316.5,-38 316.5,-54 316.5,-54 316.5,-38 316.5,-38"/>
</a>
</g>
</g>
<!-- deadwood&#45;&gt;lookup_decomposition -->
<g id="edge2" class="edge">
<title>deadwood:w&#45;&gt;lookup_decomposition:e</title>
<path fill="none" stroke="black" d="M584.93,-184.32C566.56,-171.26 586.06,-126.74 559,-105 497.23,-55.37 464.73,-64 385.5,-64"/>
<polygon fill="black" stroke="black" points="591.26,-185.98 598.09,-191.48 595.13,-186.99 599,-188 599,-188 599,-188 595.13,-186.99 599.91,-184.52 591.26,-185.98 591.26,-185.98"/>
<ellipse fill="none" stroke="black" cx="588.16" cy="-185.17" rx="3.2" ry="3.2"/>
</g>
<!-- plot -->
<g id="node4" class="node">
<title>plot</title>
<g id="a_node4"><a xlink:href="../../tables/plot.html" xlink:title="plot" target="_top">
<polygon fill="#ffffff" stroke="transparent" points="227,-348 227,-406 332,-406 332,-348 227,-348"/>
<polygon fill="#f5f5f5" stroke="transparent" points="227.5,-384 227.5,-406 332.5,-406 332.5,-384 227.5,-384"/>
<polygon fill="none" stroke="black" points="227.5,-384 227.5,-406 332.5,-406 332.5,-384 227.5,-384"/>
<text text-anchor="start" x="232" y="-393.2" font-family="Helvetica,sans-Serif" font-weight="bold" font-size="11.00">plot</text>
<text text-anchor="start" x="290.5" y="-392.2" font-family="Helvetica,sans-Serif" font-size="11.00">[table]</text>
<polygon fill="none" stroke="black" points="227.5,-366 227.5,-384 332.5,-384 332.5,-366 227.5,-366"/>
<text text-anchor="start" x="230.5" y="-372.2" font-family="Helvetica,sans-Serif" font-size="11.00">...</text>
<polygon fill="#ffffff" stroke="transparent" points="227.5,-348 227.5,-366 332.5,-366 332.5,-348 227.5,-348"/>
<polygon fill="none" stroke="black" points="227.5,-348 227.5,-366 332.5,-366 332.5,-348 227.5,-348"/>
<polygon fill="#ffffff" stroke="transparent" points="228.5,-349 228.5,-365 259.5,-365 259.5,-349 228.5,-349"/>
<text text-anchor="start" x="230.5" y="-354.2" font-family="Helvetica,sans-Serif" font-size="11.00">&lt; 24</text>
<polygon fill="#ffffff" stroke="transparent" points="259.5,-349 259.5,-365 307.5,-365 307.5,-349 259.5,-349"/>
<text text-anchor="start" x="261.5" y="-354.2" font-family="Helvetica,sans-Serif" font-size="11.00">82 rows</text>
<polygon fill="#ffffff" stroke="transparent" points="307.5,-349 307.5,-365 331.5,-365 331.5,-349 307.5,-349"/>
<text text-anchor="start" x="309.5" y="-354.2" font-family="Helvetica,sans-Serif" font-size="11.00">7 &gt;</text>
<polygon fill="black" stroke="black" points="259.5,-349 259.5,-365 259.5,-365 259.5,-349 259.5,-349"/>
<polygon fill="black" stroke="black" points="307.5,-349 307.5,-365 307.5,-365 307.5,-349 307.5,-349"/>
</a>
</g>
</g>
<!-- deadwood&#45;&gt;plot -->
<g id="edge3" class="edge">
<title>deadwood:w&#45;&gt;plot:e</title>
<path fill="none" stroke="black" d="M584.87,-257.79C566.57,-271.23 587.02,-316.94 559,-338 477.81,-399.02 435.06,-375 333.5,-375"/>
<polygon fill="black" stroke="black" points="591.27,-256.07 599.93,-257.48 595.14,-255.04 599,-254 599,-254 599,-254 595.14,-255.04 598.07,-250.52 591.27,-256.07 591.27,-256.07"/>
<ellipse fill="none" stroke="black" cx="588.18" cy="-256.9" rx="3.2" ry="3.2"/>
</g>
<!-- lookup_tree_species_group -->
<g id="node5" class="node">
<title>lookup_tree_species_group</title>
<g id="a_node5"><a xlink:href="../../tables/lookup_tree_species_group.html" xlink:title="lookup_tree_species_group" target="_top">
<polygon fill="#ffffff" stroke="transparent" points="157.5,-269 157.5,-327 401.5,-327 401.5,-269 157.5,-269"/>
<polygon fill="#f5f5f5" stroke="transparent" points="157.5,-305 157.5,-327 401.5,-327 401.5,-305 157.5,-305"/>
<polygon fill="none" stroke="black" points="157.5,-305 157.5,-327 401.5,-327 401.5,-305 157.5,-305"/>
<text text-anchor="start" x="162.5" y="-314.2" font-family="Helvetica,sans-Serif" font-weight="bold" font-size="11.00">lookup_tree_species_group</text>
<text text-anchor="start" x="359.5" y="-313.2" font-family="Helvetica,sans-Serif" font-size="11.00">[table]</text>
<polygon fill="none" stroke="black" points="157.5,-287 157.5,-305 401.5,-305 401.5,-287 157.5,-287"/>
<text text-anchor="start" x="160.5" y="-293.2" font-family="Helvetica,sans-Serif" font-size="11.00">...</text>
<polygon fill="#ffffff" stroke="transparent" points="157.5,-269 157.5,-287 401.5,-287 401.5,-269 157.5,-269"/>
<polygon fill="none" stroke="black" points="157.5,-269 157.5,-287 401.5,-287 401.5,-269 157.5,-269"/>
<polygon fill="#ffffff" stroke="transparent" points="158.5,-270 158.5,-286 225.5,-286 225.5,-270 158.5,-270"/>
<text text-anchor="start" x="160.5" y="-275.2" font-family="Helvetica,sans-Serif" font-size="11.00"> &#160;</text>
<polygon fill="#ffffff" stroke="transparent" points="225.5,-270 225.5,-286 321.5,-286 321.5,-270 225.5,-270"/>
<text text-anchor="start" x="255" y="-275.2" font-family="Helvetica,sans-Serif" font-size="11.00">0 rows</text>
<polygon fill="#ffffff" stroke="transparent" points="321.5,-270 321.5,-286 400.5,-286 400.5,-270 321.5,-270"/>
<text text-anchor="start" x="378.5" y="-275.2" font-family="Helvetica,sans-Serif" font-size="11.00">1 &gt;</text>
<polygon fill="black" stroke="black" points="225.5,-270 225.5,-286 225.5,-286 225.5,-270 225.5,-270"/>
<polygon fill="black" stroke="black" points="321.5,-270 321.5,-286 321.5,-286 321.5,-270 321.5,-270"/>
</a>
</g>
</g>
<!-- deadwood&#45;&gt;lookup_tree_species_group -->
<g id="edge4" class="edge">
<title>deadwood:w&#45;&gt;lookup_tree_species_group:e</title>
<path fill="none" stroke="black" d="M585.01,-235.93C576.45,-241.82 572.97,-252.88 559,-259 493.54,-287.68 473.97,-296 402.5,-296"/>
<polygon fill="black" stroke="black" points="591.3,-234.16 599.97,-235.47 595.15,-233.08 599,-232 599,-232 599,-232 595.15,-233.08 598.03,-228.53 591.3,-234.16 591.3,-234.16"/>
<ellipse fill="none" stroke="black" cx="588.22" cy="-235.03" rx="3.2" ry="3.2"/>
</g>
</g>
</svg>
