<?xml version="1.0" encoding="UTF-8" standalone="no"?>
<!DOCTYPE svg PUBLIC "-//W3C//DTD SVG 1.1//EN"
 "http://www.w3.org/Graphics/SVG/1.1/DTD/svg11.dtd">
<!-- Generated by graphviz version 2.43.0 (0)
 -->
<!-- Title: oneDegreeRelationshipsDiagram Pages: 1 -->
<svg width="675pt" height="283pt"
 viewBox="0.00 0.00 675.00 283.00" xmlns="http://www.w3.org/2000/svg" xmlns:xlink="http://www.w3.org/1999/xlink">
<g id="graph0" class="graph" transform="scale(1 1) rotate(0) translate(4 279)">
<title>oneDegreeRelationshipsDiagram</title>
<polygon fill="#ffffff" stroke="transparent" points="-4,4 -4,-279 671,-279 671,4 -4,4"/>
<text text-anchor="middle" x="79.5" y="-7.2" font-family="Helvetica,sans-Serif" font-size="11.00">Generated by SchemaSpy</text>
<!-- wzp_tree -->
<g id="node1" class="node">
<title>wzp_tree</title>
<g id="a_node1"><a xlink:href="../../tables/wzp_tree.html" xlink:title="wzp_tree" target="_top">
<polygon fill="#ffffff" stroke="transparent" points="486,-37 486,-271 659,-271 659,-37 486,-37"/>
<polygon fill="#f5f5f5" stroke="transparent" points="486.5,-249 486.5,-271 659.5,-271 659.5,-249 486.5,-249"/>
<polygon fill="none" stroke="black" points="486.5,-249 486.5,-271 659.5,-271 659.5,-249 486.5,-249"/>
<text text-anchor="start" x="491.5" y="-258.2" font-family="Helvetica,sans-Serif" font-weight="bold" font-size="11.00">wzp_tree</text>
<text text-anchor="start" x="617.5" y="-257.2" font-family="Helvetica,sans-Serif" font-size="11.00">[table]</text>
<polygon fill="none" stroke="black" points="486.5,-227 486.5,-249 659.5,-249 659.5,-227 486.5,-227"/>
<image xlink:href="../../images/primaryKeys.png" width="11px" height="12px" preserveAspectRatio="xMinYMin meet" x="491.5" y="-244"/>
<text text-anchor="start" x="506.5" y="-235.2" font-family="Helvetica,sans-Serif" font-size="11.00">id</text>
<polygon fill="none" stroke="black" points="486.5,-205 486.5,-227 659.5,-227 659.5,-205 486.5,-205"/>
<image xlink:href="../../images/foreignKeys.png" width="11px" height="12px" preserveAspectRatio="xMinYMin meet" x="491.5" y="-222"/>
<text text-anchor="start" x="506.5" y="-213.2" font-family="Helvetica,sans-Serif" font-size="11.00">plot_id</text>
<polygon fill="none" stroke="black" points="486.5,-183 486.5,-205 659.5,-205 659.5,-183 486.5,-183"/>
<image xlink:href="../../images/foreignKeys.png" width="11px" height="12px" preserveAspectRatio="xMinYMin meet" x="491.5" y="-200"/>
<text text-anchor="start" x="506.5" y="-191.2" font-family="Helvetica,sans-Serif" font-size="11.00">tree_state</text>
<polygon fill="none" stroke="black" points="486.5,-161 486.5,-183 659.5,-183 659.5,-161 486.5,-161"/>
<image xlink:href="../../images/foreignKeys.png" width="11px" height="12px" preserveAspectRatio="xMinYMin meet" x="491.5" y="-178"/>
<text text-anchor="start" x="506.5" y="-169.2" font-family="Helvetica,sans-Serif" font-size="11.00">tree_species</text>
<polygon fill="none" stroke="black" points="486.5,-139 486.5,-161 659.5,-161 659.5,-139 486.5,-139"/>
<image xlink:href="../../images/foreignKeys.png" width="11px" height="12px" preserveAspectRatio="xMinYMin meet" x="491.5" y="-156"/>
<text text-anchor="start" x="506.5" y="-147.2" font-family="Helvetica,sans-Serif" font-size="11.00">stem_breakage</text>
<polygon fill="none" stroke="black" points="486.5,-117 486.5,-139 659.5,-139 659.5,-117 486.5,-117"/>
<image xlink:href="../../images/foreignKeys.png" width="11px" height="12px" preserveAspectRatio="xMinYMin meet" x="491.5" y="-134"/>
<text text-anchor="start" x="506.5" y="-125.2" font-family="Helvetica,sans-Serif" font-size="11.00">stem_form</text>
<polygon fill="none" stroke="black" points="486.5,-95 486.5,-117 659.5,-117 659.5,-95 486.5,-95"/>
<image xlink:href="../../images/foreignKeys.png" width="11px" height="12px" preserveAspectRatio="xMinYMin meet" x="491.5" y="-112"/>
<text text-anchor="start" x="506.5" y="-103.2" font-family="Helvetica,sans-Serif" font-size="11.00">pruning</text>
<polygon fill="none" stroke="black" points="486.5,-73 486.5,-95 659.5,-95 659.5,-73 486.5,-73"/>
<image xlink:href="../../images/foreignKeys.png" width="11px" height="12px" preserveAspectRatio="xMinYMin meet" x="491.5" y="-90"/>
<text text-anchor="start" x="506.5" y="-81.2" font-family="Helvetica,sans-Serif" font-size="11.00">inventory_layer</text>
<polygon fill="none" stroke="black" points="486.5,-55 486.5,-73 659.5,-73 659.5,-55 486.5,-55"/>
<text text-anchor="start" x="489.5" y="-61.2" font-family="Helvetica,sans-Serif" font-size="11.00">...</text>
<polygon fill="#ffffff" stroke="transparent" points="486.5,-37 486.5,-55 659.5,-55 659.5,-37 486.5,-37"/>
<polygon fill="none" stroke="black" points="486.5,-37 486.5,-55 659.5,-55 659.5,-37 486.5,-37"/>
<polygon fill="#ffffff" stroke="transparent" points="487.5,-38 487.5,-54 543.5,-54 543.5,-38 487.5,-38"/>
<text text-anchor="start" x="489.5" y="-43.2" font-family="Helvetica,sans-Serif" font-size="11.00">&lt; 7</text>
<polygon fill="#ffffff" stroke="transparent" points="543.5,-38 543.5,-54 615.5,-54 615.5,-38 543.5,-38"/>
<text text-anchor="start" x="561" y="-43.2" font-family="Helvetica,sans-Serif" font-size="11.00">0 rows</text>
<polygon fill="#ffffff" stroke="transparent" points="615.5,-38 615.5,-54 658.5,-54 658.5,-38 615.5,-38"/>
<text text-anchor="start" x="648.5" y="-43.2" font-family="Helvetica,sans-Serif" font-size="11.00"> &#160;</text>
<polygon fill="black" stroke="black" points="543.5,-38 543.5,-54 543.5,-54 543.5,-38 543.5,-38"/>
<polygon fill="black" stroke="black" points="615.5,-38 615.5,-54 615.5,-54 615.5,-38 615.5,-38"/>
</a>
</g>
</g>
<!-- lookup_pruning -->
<g id="node2" class="node">
<title>lookup_pruning</title>
<g id="a_node2"><a xlink:href="../../tables/lookup_pruning.html" xlink:title="lookup_pruning" target="_top">
<polygon fill="#ffffff" stroke="transparent" points="8,-75 8,-207 437,-207 437,-75 8,-75"/>
<polygon fill="#f5f5f5" stroke="transparent" points="10.5,-183 10.5,-205 435.5,-205 435.5,-183 10.5,-183"/>
<polygon fill="none" stroke="black" points="10.5,-183 10.5,-205 435.5,-205 435.5,-183 10.5,-183"/>
<text text-anchor="start" x="15.5" y="-192.2" font-family="Helvetica,sans-Serif" font-weight="bold" font-size="11.00">lookup_pruning</text>
<text text-anchor="start" x="393.5" y="-191.2" font-family="Helvetica,sans-Serif" font-size="11.00">[table]</text>
<polygon fill="none" stroke="black" points="10.5,-161 10.5,-183 144.5,-183 144.5,-161 10.5,-161"/>
<text text-anchor="start" x="30.5" y="-169.2" font-family="Helvetica,sans-Serif" font-size="11.00">name_de</text>
<polygon fill="none" stroke="black" points="144.5,-161 144.5,-183 435.5,-183 435.5,-161 144.5,-161"/>
<text text-anchor="start" x="147.5" y="-169.2" font-family="Helvetica,sans-Serif" font-size="11.00">varchar[150]</text>
<polygon fill="none" stroke="black" points="10.5,-139 10.5,-161 144.5,-161 144.5,-139 10.5,-139"/>
<text text-anchor="start" x="30.5" y="-147.2" font-family="Helvetica,sans-Serif" font-size="11.00">name_en</text>
<polygon fill="none" stroke="black" points="144.5,-139 144.5,-161 435.5,-161 435.5,-139 144.5,-139"/>
<text text-anchor="start" x="147.5" y="-147.2" font-family="Helvetica,sans-Serif" font-size="11.00">varchar[150]</text>
<polygon fill="none" stroke="black" points="10.5,-117 10.5,-139 144.5,-139 144.5,-117 10.5,-117"/>
<text text-anchor="start" x="30.5" y="-125.2" font-family="Helvetica,sans-Serif" font-size="11.00">sort</text>
<polygon fill="none" stroke="black" points="144.5,-117 144.5,-139 435.5,-139 435.5,-117 144.5,-117"/>
<text text-anchor="start" x="147.5" y="-125.2" font-family="Helvetica,sans-Serif" font-size="11.00">int4[10]</text>
<polygon fill="#ffffff" stroke="transparent" points="10.5,-95 10.5,-117 144.5,-117 144.5,-95 10.5,-95"/>
<polygon fill="none" stroke="black" points="10.5,-95 10.5,-117 144.5,-117 144.5,-95 10.5,-95"/>
<text text-anchor="start" x="30.5" y="-103.2" font-family="Helvetica,sans-Serif" font-size="11.00">abbreviation</text>
<polygon fill="none" stroke="black" points="144.5,-95 144.5,-117 435.5,-117 435.5,-95 144.5,-95"/>
<text text-anchor="start" x="147.5" y="-103.2" font-family="Helvetica,sans-Serif" font-size="11.00">&quot;private_ci2027_001&quot;.&quot;enum_pruning&quot;[2147483647]</text>
<polygon fill="#ffffff" stroke="transparent" points="10.5,-77 10.5,-95 435.5,-95 435.5,-77 10.5,-77"/>
<polygon fill="none" stroke="black" points="10.5,-77 10.5,-95 435.5,-95 435.5,-77 10.5,-77"/>
<polygon fill="#ffffff" stroke="transparent" points="11.5,-78 11.5,-94 147.5,-94 147.5,-78 11.5,-78"/>
<text text-anchor="start" x="13.5" y="-83.2" font-family="Helvetica,sans-Serif" font-size="11.00">&lt; 0</text>
<polygon fill="#ffffff" stroke="transparent" points="147.5,-78 147.5,-94 299.5,-94 299.5,-78 147.5,-78"/>
<text text-anchor="start" x="205" y="-83.2" font-family="Helvetica,sans-Serif" font-size="11.00">0 rows</text>
<polygon fill="#ffffff" stroke="transparent" points="299.5,-78 299.5,-94 434.5,-94 434.5,-78 299.5,-78"/>
<text text-anchor="start" x="412.5" y="-83.2" font-family="Helvetica,sans-Serif" font-size="11.00">1 &gt;</text>
<polygon fill="black" stroke="black" points="147.5,-78 147.5,-94 147.5,-94 147.5,-78 147.5,-78"/>
<polygon fill="black" stroke="black" points="299.5,-78 299.5,-94 299.5,-94 299.5,-78 299.5,-78"/>
<polygon fill="none" stroke="black" stroke-width="2" points="9,-76 9,-206 436,-206 436,-76 9,-76"/>
</a>
</g>
</g>
<!-- wzp_tree&#45;&gt;lookup_pruning -->
<g id="edge1" class="edge">
<title>wzp_tree:w&#45;&gt;lookup_pruning:e</title>
<path fill="none" stroke="black" d="M470.99,-106C459.68,-106 452.49,-106 436.5,-106"/>
<polygon fill="black" stroke="black" points="477.5,-106 485.5,-109.6 481.5,-106 485.5,-106 485.5,-106 485.5,-106 481.5,-106 485.5,-102.4 477.5,-106 477.5,-106"/>
<ellipse fill="none" stroke="black" cx="474.3" cy="-106" rx="3.2" ry="3.2"/>
</g>
</g>
</svg>
