<?xml version="1.0" encoding="UTF-8" standalone="no"?>
<!DOCTYPE svg PUBLIC "-//W3C//DTD SVG 1.1//EN"
 "http://www.w3.org/Graphics/SVG/1.1/DTD/svg11.dtd">
<!-- Generated by graphviz version 2.43.0 (0)
 -->
<!-- Title: twoDegreesRelationshipsDiagram Pages: 1 -->
<svg width="900pt" height="306pt"
 viewBox="0.00 0.00 900.00 306.00" xmlns="http://www.w3.org/2000/svg" xmlns:xlink="http://www.w3.org/1999/xlink">
<g id="graph0" class="graph" transform="scale(1 1) rotate(0) translate(4 302)">
<title>twoDegreesRelationshipsDiagram</title>
<polygon fill="#ffffff" stroke="transparent" points="-4,4 -4,-302 896,-302 896,4 -4,4"/>
<text text-anchor="middle" x="79.5" y="-7.2" font-family="Helvetica,sans-Serif" font-size="11.00">Generated by SchemaSpy</text>
<!-- plot_location -->
<g id="node1" class="node">
<title>plot_location</title>
<g id="a_node1"><a xlink:href="../../tables/plot_location.html" xlink:title="plot_location" target="_top">
<polygon fill="#ffffff" stroke="transparent" points="336.5,-190 336.5,-248 477.5,-248 477.5,-190 336.5,-190"/>
<polygon fill="#f5f5f5" stroke="transparent" points="337,-226 337,-248 478,-248 478,-226 337,-226"/>
<polygon fill="none" stroke="black" points="337,-226 337,-248 478,-248 478,-226 337,-226"/>
<text text-anchor="start" x="342" y="-235.2" font-family="Helvetica,sans-Serif" font-weight="bold" font-size="11.00">plot_location</text>
<text text-anchor="start" x="436" y="-234.2" font-family="Helvetica,sans-Serif" font-size="11.00">[table]</text>
<polygon fill="none" stroke="black" points="337,-208 337,-226 478,-226 478,-208 337,-208"/>
<text text-anchor="start" x="340" y="-214.2" font-family="Helvetica,sans-Serif" font-size="11.00">...</text>
<polygon fill="#ffffff" stroke="transparent" points="337,-190 337,-208 478,-208 478,-190 337,-190"/>
<polygon fill="none" stroke="black" points="337,-190 337,-208 478,-208 478,-190 337,-190"/>
<polygon fill="#ffffff" stroke="transparent" points="338,-191 338,-207 374,-207 374,-191 338,-191"/>
<text text-anchor="start" x="340" y="-196.2" font-family="Helvetica,sans-Serif" font-size="11.00">&lt; 1</text>
<polygon fill="#ffffff" stroke="transparent" points="374,-191 374,-207 441,-207 441,-191 374,-191"/>
<text text-anchor="start" x="382" y="-196.2" font-family="Helvetica,sans-Serif" font-size="11.00">406 rows</text>
<polygon fill="#ffffff" stroke="transparent" points="441,-191 441,-207 477,-207 477,-191 441,-191"/>
<text text-anchor="start" x="455" y="-196.2" font-family="Helvetica,sans-Serif" font-size="11.00">3 &gt;</text>
<polygon fill="black" stroke="black" points="374,-191 374,-207 374,-207 374,-191 374,-191"/>
<polygon fill="black" stroke="black" points="441,-191 441,-207 441,-207 441,-191 441,-191"/>
</a>
</g>
</g>
<!-- plot -->
<g id="node2" class="node">
<title>plot</title>
<g id="a_node2"><a xlink:href="../../tables/plot.html" xlink:title="plot" target="_top">
<polygon fill="#ffffff" stroke="transparent" points="8,-217 8,-275 113,-275 113,-217 8,-217"/>
<polygon fill="#f5f5f5" stroke="transparent" points="8.5,-253 8.5,-275 113.5,-275 113.5,-253 8.5,-253"/>
<polygon fill="none" stroke="black" points="8.5,-253 8.5,-275 113.5,-275 113.5,-253 8.5,-253"/>
<text text-anchor="start" x="13" y="-262.2" font-family="Helvetica,sans-Serif" font-weight="bold" font-size="11.00">plot</text>
<text text-anchor="start" x="71.5" y="-261.2" font-family="Helvetica,sans-Serif" font-size="11.00">[table]</text>
<polygon fill="none" stroke="black" points="8.5,-235 8.5,-253 113.5,-253 113.5,-235 8.5,-235"/>
<text text-anchor="start" x="11.5" y="-241.2" font-family="Helvetica,sans-Serif" font-size="11.00">...</text>
<polygon fill="#ffffff" stroke="transparent" points="8.5,-217 8.5,-235 113.5,-235 113.5,-217 8.5,-217"/>
<polygon fill="none" stroke="black" points="8.5,-217 8.5,-235 113.5,-235 113.5,-217 8.5,-217"/>
<polygon fill="#ffffff" stroke="transparent" points="9.5,-218 9.5,-234 40.5,-234 40.5,-218 9.5,-218"/>
<text text-anchor="start" x="11.5" y="-223.2" font-family="Helvetica,sans-Serif" font-size="11.00">&lt; 24</text>
<polygon fill="#ffffff" stroke="transparent" points="40.5,-218 40.5,-234 88.5,-234 88.5,-218 40.5,-218"/>
<text text-anchor="start" x="42.5" y="-223.2" font-family="Helvetica,sans-Serif" font-size="11.00">82 rows</text>
<polygon fill="#ffffff" stroke="transparent" points="88.5,-218 88.5,-234 112.5,-234 112.5,-218 88.5,-218"/>
<text text-anchor="start" x="90.5" y="-223.2" font-family="Helvetica,sans-Serif" font-size="11.00">7 &gt;</text>
<polygon fill="black" stroke="black" points="40.5,-218 40.5,-234 40.5,-234 40.5,-218 40.5,-218"/>
<polygon fill="black" stroke="black" points="88.5,-218 88.5,-234 88.5,-234 88.5,-218 88.5,-218"/>
</a>
</g>
</g>
<!-- plot_location&#45;&gt;plot -->
<g id="edge1" class="edge">
<title>plot_location:w&#45;&gt;plot:e</title>
<path fill="none" stroke="black" d="M321.46,-217.2C234.28,-219.67 208.64,-244 114.5,-244"/>
<polygon fill="black" stroke="black" points="328,-217.11 336.05,-220.6 332,-217.06 336,-217 336,-217 336,-217 332,-217.06 335.95,-213.4 328,-217.11 328,-217.11"/>
<ellipse fill="none" stroke="black" cx="324.8" cy="-217.16" rx="3.2" ry="3.2"/>
</g>
<!-- position -->
<g id="node3" class="node">
<title>position</title>
<g id="a_node3"><a xlink:href="../../tables/position.html" xlink:title="position" target="_top">
<polygon fill="#ffffff" stroke="transparent" points="701,-148 701,-294 884,-294 884,-148 701,-148"/>
<polygon fill="#f5f5f5" stroke="transparent" points="701.5,-272 701.5,-294 884.5,-294 884.5,-272 701.5,-272"/>
<polygon fill="none" stroke="black" points="701.5,-272 701.5,-294 884.5,-294 884.5,-272 701.5,-272"/>
<text text-anchor="start" x="706.5" y="-281.2" font-family="Helvetica,sans-Serif" font-weight="bold" font-size="11.00">position</text>
<text text-anchor="start" x="842.5" y="-280.2" font-family="Helvetica,sans-Serif" font-size="11.00">[table]</text>
<polygon fill="none" stroke="black" points="701.5,-250 701.5,-272 884.5,-272 884.5,-250 701.5,-250"/>
<image xlink:href="../../images/primaryKeys.png" width="11px" height="12px" preserveAspectRatio="xMinYMin meet" x="706.5" y="-267"/>
<text text-anchor="start" x="721.5" y="-258.2" font-family="Helvetica,sans-Serif" font-size="11.00">id</text>
<polygon fill="none" stroke="black" points="701.5,-228 701.5,-250 884.5,-250 884.5,-228 701.5,-228"/>
<image xlink:href="../../images/foreignKeys.png" width="11px" height="12px" preserveAspectRatio="xMinYMin meet" x="706.5" y="-245"/>
<text text-anchor="start" x="721.5" y="-236.2" font-family="Helvetica,sans-Serif" font-size="11.00">plot_id</text>
<polygon fill="none" stroke="black" points="701.5,-206 701.5,-228 884.5,-228 884.5,-206 701.5,-206"/>
<image xlink:href="../../images/foreignKeys.png" width="11px" height="12px" preserveAspectRatio="xMinYMin meet" x="706.5" y="-223"/>
<text text-anchor="start" x="721.5" y="-214.2" font-family="Helvetica,sans-Serif" font-size="11.00">plot_location_id</text>
<polygon fill="none" stroke="black" points="701.5,-184 701.5,-206 884.5,-206 884.5,-184 701.5,-184"/>
<image xlink:href="../../images/foreignKeys.png" width="11px" height="12px" preserveAspectRatio="xMinYMin meet" x="706.5" y="-201"/>
<text text-anchor="start" x="721.5" y="-192.2" font-family="Helvetica,sans-Serif" font-size="11.00">quality</text>
<polygon fill="none" stroke="black" points="701.5,-166 701.5,-184 884.5,-184 884.5,-166 701.5,-166"/>
<text text-anchor="start" x="704.5" y="-172.2" font-family="Helvetica,sans-Serif" font-size="11.00">...</text>
<polygon fill="#ffffff" stroke="transparent" points="701.5,-148 701.5,-166 884.5,-166 884.5,-148 701.5,-148"/>
<polygon fill="none" stroke="black" points="701.5,-148 701.5,-166 884.5,-166 884.5,-148 701.5,-148"/>
<polygon fill="#ffffff" stroke="transparent" points="702.5,-149 702.5,-165 759.5,-165 759.5,-149 702.5,-149"/>
<text text-anchor="start" x="704.5" y="-154.2" font-family="Helvetica,sans-Serif" font-size="11.00">&lt; 3</text>
<polygon fill="#ffffff" stroke="transparent" points="759.5,-149 759.5,-165 839.5,-165 839.5,-149 759.5,-149"/>
<text text-anchor="start" x="777.5" y="-154.2" font-family="Helvetica,sans-Serif" font-size="11.00">81 rows</text>
<polygon fill="#ffffff" stroke="transparent" points="839.5,-149 839.5,-165 883.5,-165 883.5,-149 839.5,-149"/>
<text text-anchor="start" x="873.5" y="-154.2" font-family="Helvetica,sans-Serif" font-size="11.00"> &#160;</text>
<polygon fill="black" stroke="black" points="759.5,-149 759.5,-165 759.5,-165 759.5,-149 759.5,-149"/>
<polygon fill="black" stroke="black" points="839.5,-149 839.5,-165 839.5,-165 839.5,-149 839.5,-149"/>
</a>
</g>
</g>
<!-- position&#45;&gt;plot_location -->
<g id="edge3" class="edge">
<title>position:w&#45;&gt;plot_location:e</title>
<path fill="none" stroke="black" d="M686.05,-217C599.37,-217 572.45,-217 479,-217"/>
<polygon fill="black" stroke="black" points="692.5,-217 700.5,-220.6 696.5,-217 700.5,-217 700.5,-217 700.5,-217 696.5,-217 700.5,-213.4 692.5,-217 692.5,-217"/>
<ellipse fill="none" stroke="black" cx="689.3" cy="-217" rx="3.2" ry="3.2"/>
</g>
<!-- position&#45;&gt;plot -->
<g id="edge2" class="edge">
<title>position:w&#45;&gt;plot:e</title>
<path fill="none" stroke="black" d="M686.43,-242.55C678.16,-247.4 673.59,-255.83 660,-259 441,-310.13 375.2,-299.59 154,-259 135.53,-255.61 133.28,-244 114.5,-244"/>
<polygon fill="black" stroke="black" points="692.74,-240.96 701.38,-242.49 696.62,-239.98 700.5,-239 700.5,-239 700.5,-239 696.62,-239.98 699.62,-235.51 692.74,-240.96 692.74,-240.96"/>
<ellipse fill="none" stroke="black" cx="689.64" cy="-241.74" rx="3.2" ry="3.2"/>
</g>
<!-- lookup_gnss_quality -->
<g id="node4" class="node">
<title>lookup_gnss_quality</title>
<g id="a_node4"><a xlink:href="../../tables/lookup_gnss_quality.html" xlink:title="lookup_gnss_quality" target="_top">
<polygon fill="#ffffff" stroke="transparent" points="162,-37 162,-169 652,-169 652,-37 162,-37"/>
<polygon fill="#f5f5f5" stroke="transparent" points="164,-145 164,-167 650,-167 650,-145 164,-145"/>
<polygon fill="none" stroke="black" points="164,-145 164,-167 650,-167 650,-145 164,-145"/>
<text text-anchor="start" x="169" y="-154.2" font-family="Helvetica,sans-Serif" font-weight="bold" font-size="11.00">lookup_gnss_quality</text>
<text text-anchor="start" x="608" y="-153.2" font-family="Helvetica,sans-Serif" font-size="11.00">[table]</text>
<polygon fill="none" stroke="black" points="164,-123 164,-145 332,-145 332,-123 164,-123"/>
<text text-anchor="start" x="184" y="-131.2" font-family="Helvetica,sans-Serif" font-size="11.00">name_de</text>
<polygon fill="none" stroke="black" points="332,-123 332,-145 650,-145 650,-123 332,-123"/>
<text text-anchor="start" x="335" y="-131.2" font-family="Helvetica,sans-Serif" font-size="11.00">varchar[150]</text>
<polygon fill="none" stroke="black" points="164,-101 164,-123 332,-123 332,-101 164,-101"/>
<text text-anchor="start" x="184" y="-109.2" font-family="Helvetica,sans-Serif" font-size="11.00">name_en</text>
<polygon fill="none" stroke="black" points="332,-101 332,-123 650,-123 650,-101 332,-101"/>
<text text-anchor="start" x="335" y="-109.2" font-family="Helvetica,sans-Serif" font-size="11.00">varchar[150]</text>
<polygon fill="none" stroke="black" points="164,-79 164,-101 332,-101 332,-79 164,-79"/>
<text text-anchor="start" x="184" y="-87.2" font-family="Helvetica,sans-Serif" font-size="11.00">sort</text>
<polygon fill="none" stroke="black" points="332,-79 332,-101 650,-101 650,-79 332,-79"/>
<text text-anchor="start" x="335" y="-87.2" font-family="Helvetica,sans-Serif" font-size="11.00">int4[10]</text>
<polygon fill="#ffffff" stroke="transparent" points="164,-57 164,-79 332,-79 332,-57 164,-57"/>
<polygon fill="none" stroke="black" points="164,-57 164,-79 332,-79 332,-57 164,-57"/>
<text text-anchor="start" x="184" y="-65.2" font-family="Helvetica,sans-Serif" font-size="11.00">abbreviation</text>
<polygon fill="none" stroke="black" points="332,-57 332,-79 650,-79 650,-57 332,-57"/>
<text text-anchor="start" x="335" y="-65.2" font-family="Helvetica,sans-Serif" font-size="11.00">&quot;private_ci2027_001&quot;.&quot;enum_gnss_quality&quot;[2147483647]</text>
<polygon fill="#ffffff" stroke="transparent" points="164,-39 164,-57 650,-57 650,-39 164,-39"/>
<polygon fill="none" stroke="black" points="164,-39 164,-57 650,-57 650,-39 164,-39"/>
<polygon fill="#ffffff" stroke="transparent" points="165,-40 165,-56 321,-56 321,-40 165,-40"/>
<text text-anchor="start" x="167" y="-45.2" font-family="Helvetica,sans-Serif" font-size="11.00">&lt; 0</text>
<polygon fill="#ffffff" stroke="transparent" points="321,-40 321,-56 494,-56 494,-40 321,-40"/>
<text text-anchor="start" x="389" y="-45.2" font-family="Helvetica,sans-Serif" font-size="11.00">0 rows</text>
<polygon fill="#ffffff" stroke="transparent" points="494,-40 494,-56 649,-56 649,-40 494,-40"/>
<text text-anchor="start" x="627" y="-45.2" font-family="Helvetica,sans-Serif" font-size="11.00">1 &gt;</text>
<polygon fill="black" stroke="black" points="321,-40 321,-56 321,-56 321,-40 321,-40"/>
<polygon fill="black" stroke="black" points="494,-40 494,-56 494,-56 494,-40 494,-40"/>
<polygon fill="none" stroke="black" stroke-width="2" points="163,-38 163,-168 651,-168 651,-38 163,-38"/>
</a>
</g>
</g>
<!-- position&#45;&gt;lookup_gnss_quality -->
<g id="edge4" class="edge">
<title>position:w&#45;&gt;lookup_gnss_quality:e</title>
<path fill="none" stroke="black" d="M686.29,-191.6C652.65,-171.41 705.66,-68 651,-68"/>
<polygon fill="black" stroke="black" points="692.72,-193.14 699.66,-198.5 696.61,-194.07 700.5,-195 700.5,-195 700.5,-195 696.61,-194.07 701.34,-191.5 692.72,-193.14 692.72,-193.14"/>
<ellipse fill="none" stroke="black" cx="689.61" cy="-192.4" rx="3.2" ry="3.2"/>
</g>
</g>
</svg>
