<?xml version="1.0" encoding="UTF-8" standalone="no"?>
<!DOCTYPE svg PUBLIC "-//W3C//DTD SVG 1.1//EN"
 "http://www.w3.org/Graphics/SVG/1.1/DTD/svg11.dtd">
<!-- Generated by graphviz version 2.43.0 (0)
 -->
<!-- Title: oneDegreeRelationshipsDiagram Pages: 1 -->
<svg width="913pt" height="679pt"
 viewBox="0.00 0.00 913.00 679.00" xmlns="http://www.w3.org/2000/svg" xmlns:xlink="http://www.w3.org/1999/xlink">
<g id="graph0" class="graph" transform="scale(1 1) rotate(0) translate(4 675)">
<title>oneDegreeRelationshipsDiagram</title>
<polygon fill="#ffffff" stroke="transparent" points="-4,4 -4,-675 909,-675 909,4 -4,4"/>
<text text-anchor="middle" x="79.5" y="-7.2" font-family="Helvetica,sans-Serif" font-size="11.00">Generated by SchemaSpy</text>
<!-- plot -->
<g id="node1" class="node">
<title>plot</title>
<g id="a_node1"><a xlink:href="../../tables/plot.html" xlink:title="plot" target="_top">
<polygon fill="#ffffff" stroke="transparent" points="646,-37 646,-667 897,-667 897,-37 646,-37"/>
<polygon fill="#f5f5f5" stroke="transparent" points="646.5,-645 646.5,-667 897.5,-667 897.5,-645 646.5,-645"/>
<polygon fill="none" stroke="black" points="646.5,-645 646.5,-667 897.5,-667 897.5,-645 646.5,-645"/>
<text text-anchor="start" x="651" y="-654.2" font-family="Helvetica,sans-Serif" font-weight="bold" font-size="11.00">plot</text>
<text text-anchor="start" x="855.5" y="-653.2" font-family="Helvetica,sans-Serif" font-size="11.00">[table]</text>
<polygon fill="none" stroke="black" points="646.5,-623 646.5,-645 897.5,-645 897.5,-623 646.5,-623"/>
<image xlink:href="../../images/primaryKeys.png" width="11px" height="12px" preserveAspectRatio="xMinYMin meet" x="651.5" y="-640"/>
<text text-anchor="start" x="666.5" y="-631.2" font-family="Helvetica,sans-Serif" font-size="11.00">id</text>
<polygon fill="#ffffff" stroke="transparent" points="646.5,-601 646.5,-623 897.5,-623 897.5,-601 646.5,-601"/>
<polygon fill="none" stroke="black" points="646.5,-601 646.5,-623 897.5,-623 897.5,-601 646.5,-601"/>
<image xlink:href="../../images/foreignKeys.png" width="11px" height="12px" preserveAspectRatio="xMinYMin meet" x="651.5" y="-618"/>
<text text-anchor="start" x="666.5" y="-609.2" font-family="Helvetica,sans-Serif" font-size="11.00">cluster_id</text>
<polygon fill="#ffffff" stroke="transparent" points="646.5,-579 646.5,-601 897.5,-601 897.5,-579 646.5,-579"/>
<polygon fill="none" stroke="black" points="646.5,-579 646.5,-601 897.5,-601 897.5,-579 646.5,-579"/>
<text text-anchor="start" x="666.5" y="-587.2" font-family="Helvetica,sans-Serif" font-size="11.00">plot_name</text>
<polygon fill="none" stroke="black" points="646.5,-557 646.5,-579 897.5,-579 897.5,-557 646.5,-557"/>
<image xlink:href="../../images/foreignKeys.png" width="11px" height="12px" preserveAspectRatio="xMinYMin meet" x="651.5" y="-574"/>
<text text-anchor="start" x="666.5" y="-565.2" font-family="Helvetica,sans-Serif" font-size="11.00">sampling_strata</text>
<polygon fill="none" stroke="black" points="646.5,-535 646.5,-557 897.5,-557 897.5,-535 646.5,-535"/>
<image xlink:href="../../images/foreignKeys.png" width="11px" height="12px" preserveAspectRatio="xMinYMin meet" x="651.5" y="-552"/>
<text text-anchor="start" x="666.5" y="-543.2" font-family="Helvetica,sans-Serif" font-size="11.00">growth_district</text>
<polygon fill="none" stroke="black" points="646.5,-513 646.5,-535 897.5,-535 897.5,-513 646.5,-513"/>
<image xlink:href="../../images/foreignKeys.png" width="11px" height="12px" preserveAspectRatio="xMinYMin meet" x="651.5" y="-530"/>
<text text-anchor="start" x="666.5" y="-521.2" font-family="Helvetica,sans-Serif" font-size="11.00">forest_decision</text>
<polygon fill="none" stroke="black" points="646.5,-491 646.5,-513 897.5,-513 897.5,-491 646.5,-491"/>
<image xlink:href="../../images/foreignKeys.png" width="11px" height="12px" preserveAspectRatio="xMinYMin meet" x="651.5" y="-508"/>
<text text-anchor="start" x="666.5" y="-499.2" font-family="Helvetica,sans-Serif" font-size="11.00">forestry_department</text>
<polygon fill="none" stroke="black" points="646.5,-469 646.5,-491 897.5,-491 897.5,-469 646.5,-469"/>
<image xlink:href="../../images/foreignKeys.png" width="11px" height="12px" preserveAspectRatio="xMinYMin meet" x="651.5" y="-486"/>
<text text-anchor="start" x="666.5" y="-477.2" font-family="Helvetica,sans-Serif" font-size="11.00">height_layer_class</text>
<polygon fill="none" stroke="black" points="646.5,-447 646.5,-469 897.5,-469 897.5,-447 646.5,-447"/>
<image xlink:href="../../images/foreignKeys.png" width="11px" height="12px" preserveAspectRatio="xMinYMin meet" x="651.5" y="-464"/>
<text text-anchor="start" x="666.5" y="-455.2" font-family="Helvetica,sans-Serif" font-size="11.00">property_type</text>
<polygon fill="none" stroke="black" points="646.5,-425 646.5,-447 897.5,-447 897.5,-425 646.5,-425"/>
<image xlink:href="../../images/foreignKeys.png" width="11px" height="12px" preserveAspectRatio="xMinYMin meet" x="651.5" y="-442"/>
<text text-anchor="start" x="666.5" y="-433.2" font-family="Helvetica,sans-Serif" font-size="11.00">property_size_class</text>
<polygon fill="none" stroke="black" points="646.5,-403 646.5,-425 897.5,-425 897.5,-403 646.5,-403"/>
<image xlink:href="../../images/foreignKeys.png" width="11px" height="12px" preserveAspectRatio="xMinYMin meet" x="651.5" y="-420"/>
<text text-anchor="start" x="666.5" y="-411.2" font-family="Helvetica,sans-Serif" font-size="11.00">forest_type</text>
<polygon fill="none" stroke="black" points="646.5,-381 646.5,-403 897.5,-403 897.5,-381 646.5,-381"/>
<image xlink:href="../../images/foreignKeys.png" width="11px" height="12px" preserveAspectRatio="xMinYMin meet" x="651.5" y="-398"/>
<text text-anchor="start" x="666.5" y="-389.2" font-family="Helvetica,sans-Serif" font-size="11.00">habitat_type</text>
<polygon fill="none" stroke="black" points="646.5,-359 646.5,-381 897.5,-381 897.5,-359 646.5,-359"/>
<image xlink:href="../../images/foreignKeys.png" width="11px" height="12px" preserveAspectRatio="xMinYMin meet" x="651.5" y="-376"/>
<text text-anchor="start" x="666.5" y="-367.2" font-family="Helvetica,sans-Serif" font-size="11.00">habitat_type_source</text>
<polygon fill="none" stroke="black" points="646.5,-337 646.5,-359 897.5,-359 897.5,-337 646.5,-337"/>
<image xlink:href="../../images/foreignKeys.png" width="11px" height="12px" preserveAspectRatio="xMinYMin meet" x="651.5" y="-354"/>
<text text-anchor="start" x="666.5" y="-345.2" font-family="Helvetica,sans-Serif" font-size="11.00">use_restriction</text>
<polygon fill="none" stroke="black" points="646.5,-315 646.5,-337 897.5,-337 897.5,-315 646.5,-315"/>
<image xlink:href="../../images/foreignKeys.png" width="11px" height="12px" preserveAspectRatio="xMinYMin meet" x="651.5" y="-332"/>
<text text-anchor="start" x="666.5" y="-323.2" font-family="Helvetica,sans-Serif" font-size="11.00">land_use</text>
<polygon fill="none" stroke="black" points="646.5,-293 646.5,-315 897.5,-315 897.5,-293 646.5,-293"/>
<image xlink:href="../../images/foreignKeys.png" width="11px" height="12px" preserveAspectRatio="xMinYMin meet" x="651.5" y="-310"/>
<text text-anchor="start" x="666.5" y="-301.2" font-family="Helvetica,sans-Serif" font-size="11.00">marking_state</text>
<polygon fill="none" stroke="black" points="646.5,-271 646.5,-293 897.5,-293 897.5,-271 646.5,-271"/>
<image xlink:href="../../images/foreignKeys.png" width="11px" height="12px" preserveAspectRatio="xMinYMin meet" x="651.5" y="-288"/>
<text text-anchor="start" x="666.5" y="-279.2" font-family="Helvetica,sans-Serif" font-size="11.00">marking_profile</text>
<polygon fill="none" stroke="black" points="646.5,-249 646.5,-271 897.5,-271 897.5,-249 646.5,-249"/>
<image xlink:href="../../images/foreignKeys.png" width="11px" height="12px" preserveAspectRatio="xMinYMin meet" x="651.5" y="-266"/>
<text text-anchor="start" x="666.5" y="-257.2" font-family="Helvetica,sans-Serif" font-size="11.00">terrain_form</text>
<polygon fill="none" stroke="black" points="646.5,-227 646.5,-249 897.5,-249 897.5,-227 646.5,-227"/>
<image xlink:href="../../images/foreignKeys.png" width="11px" height="12px" preserveAspectRatio="xMinYMin meet" x="651.5" y="-244"/>
<text text-anchor="start" x="666.5" y="-235.2" font-family="Helvetica,sans-Serif" font-size="11.00">management_type</text>
<polygon fill="none" stroke="black" points="646.5,-205 646.5,-227 897.5,-227 897.5,-205 646.5,-205"/>
<image xlink:href="../../images/foreignKeys.png" width="11px" height="12px" preserveAspectRatio="xMinYMin meet" x="651.5" y="-222"/>
<text text-anchor="start" x="666.5" y="-213.2" font-family="Helvetica,sans-Serif" font-size="11.00">harvesting_method</text>
<polygon fill="none" stroke="black" points="646.5,-183 646.5,-205 897.5,-205 897.5,-183 646.5,-183"/>
<image xlink:href="../../images/foreignKeys.png" width="11px" height="12px" preserveAspectRatio="xMinYMin meet" x="651.5" y="-200"/>
<text text-anchor="start" x="666.5" y="-191.2" font-family="Helvetica,sans-Serif" font-size="11.00">layer_type</text>
<polygon fill="none" stroke="black" points="646.5,-161 646.5,-183 897.5,-183 897.5,-161 646.5,-161"/>
<image xlink:href="../../images/foreignKeys.png" width="11px" height="12px" preserveAspectRatio="xMinYMin meet" x="651.5" y="-178"/>
<text text-anchor="start" x="666.5" y="-169.2" font-family="Helvetica,sans-Serif" font-size="11.00">stand_phase</text>
<polygon fill="none" stroke="black" points="646.5,-139 646.5,-161 897.5,-161 897.5,-139 646.5,-139"/>
<image xlink:href="../../images/foreignKeys.png" width="11px" height="12px" preserveAspectRatio="xMinYMin meet" x="651.5" y="-156"/>
<text text-anchor="start" x="666.5" y="-147.2" font-family="Helvetica,sans-Serif" font-size="11.00">sablings_layer</text>
<polygon fill="none" stroke="black" points="646.5,-117 646.5,-139 897.5,-139 897.5,-117 646.5,-117"/>
<image xlink:href="../../images/foreignKeys.png" width="11px" height="12px" preserveAspectRatio="xMinYMin meet" x="651.5" y="-134"/>
<text text-anchor="start" x="666.5" y="-125.2" font-family="Helvetica,sans-Serif" font-size="11.00">trees_less_4meter_mirrored</text>
<polygon fill="none" stroke="black" points="646.5,-95 646.5,-117 897.5,-117 897.5,-95 646.5,-95"/>
<image xlink:href="../../images/foreignKeys.png" width="11px" height="12px" preserveAspectRatio="xMinYMin meet" x="651.5" y="-112"/>
<text text-anchor="start" x="666.5" y="-103.2" font-family="Helvetica,sans-Serif" font-size="11.00">trees_less_4meter_count_factor</text>
<polygon fill="none" stroke="black" points="646.5,-73 646.5,-95 897.5,-95 897.5,-73 646.5,-73"/>
<image xlink:href="../../images/foreignKeys.png" width="11px" height="12px" preserveAspectRatio="xMinYMin meet" x="651.5" y="-90"/>
<text text-anchor="start" x="666.5" y="-81.2" font-family="Helvetica,sans-Serif" font-size="11.00">trees_less_4meter_layer</text>
<polygon fill="none" stroke="black" points="646.5,-55 646.5,-73 897.5,-73 897.5,-55 646.5,-55"/>
<text text-anchor="start" x="649.5" y="-61.2" font-family="Helvetica,sans-Serif" font-size="11.00">...</text>
<polygon fill="#ffffff" stroke="transparent" points="646.5,-37 646.5,-55 897.5,-55 897.5,-37 646.5,-37"/>
<polygon fill="none" stroke="black" points="646.5,-37 646.5,-55 897.5,-55 897.5,-37 646.5,-37"/>
<polygon fill="#ffffff" stroke="transparent" points="647.5,-38 647.5,-54 729.5,-54 729.5,-38 647.5,-38"/>
<text text-anchor="start" x="649.5" y="-43.2" font-family="Helvetica,sans-Serif" font-size="11.00">&lt; 24</text>
<polygon fill="#ffffff" stroke="transparent" points="729.5,-38 729.5,-54 821.5,-54 821.5,-38 729.5,-38"/>
<text text-anchor="start" x="757" y="-43.2" font-family="Helvetica,sans-Serif" font-size="11.00">0 rows</text>
<polygon fill="#ffffff" stroke="transparent" points="821.5,-38 821.5,-54 896.5,-54 896.5,-38 821.5,-38"/>
<text text-anchor="start" x="874.5" y="-43.2" font-family="Helvetica,sans-Serif" font-size="11.00">7 &gt;</text>
<polygon fill="black" stroke="black" points="729.5,-38 729.5,-54 729.5,-54 729.5,-38 729.5,-38"/>
<polygon fill="black" stroke="black" points="821.5,-38 821.5,-54 821.5,-54 821.5,-38 821.5,-38"/>
</a>
</g>
</g>
<!-- lookup_habitat_type_source -->
<g id="node2" class="node">
<title>lookup_habitat_type_source</title>
<g id="a_node2"><a xlink:href="../../tables/lookup_habitat_type_source.html" xlink:title="lookup_habitat_type_source" target="_top">
<polygon fill="#ffffff" stroke="transparent" points="8,-339 8,-471 597,-471 597,-339 8,-339"/>
<polygon fill="#f5f5f5" stroke="transparent" points="10.5,-447 10.5,-469 595.5,-469 595.5,-447 10.5,-447"/>
<polygon fill="none" stroke="black" points="10.5,-447 10.5,-469 595.5,-469 595.5,-447 10.5,-447"/>
<text text-anchor="start" x="15.5" y="-456.2" font-family="Helvetica,sans-Serif" font-weight="bold" font-size="11.00">lookup_habitat_type_source</text>
<text text-anchor="start" x="553.5" y="-455.2" font-family="Helvetica,sans-Serif" font-size="11.00">[table]</text>
<polygon fill="none" stroke="black" points="10.5,-425 10.5,-447 234.5,-447 234.5,-425 10.5,-425"/>
<text text-anchor="start" x="30.5" y="-433.2" font-family="Helvetica,sans-Serif" font-size="11.00">name_de</text>
<polygon fill="none" stroke="black" points="234.5,-425 234.5,-447 595.5,-447 595.5,-425 234.5,-425"/>
<text text-anchor="start" x="237.5" y="-433.2" font-family="Helvetica,sans-Serif" font-size="11.00">varchar[150]</text>
<polygon fill="none" stroke="black" points="10.5,-403 10.5,-425 234.5,-425 234.5,-403 10.5,-403"/>
<text text-anchor="start" x="30.5" y="-411.2" font-family="Helvetica,sans-Serif" font-size="11.00">name_en</text>
<polygon fill="none" stroke="black" points="234.5,-403 234.5,-425 595.5,-425 595.5,-403 234.5,-403"/>
<text text-anchor="start" x="237.5" y="-411.2" font-family="Helvetica,sans-Serif" font-size="11.00">varchar[150]</text>
<polygon fill="none" stroke="black" points="10.5,-381 10.5,-403 234.5,-403 234.5,-381 10.5,-381"/>
<text text-anchor="start" x="30.5" y="-389.2" font-family="Helvetica,sans-Serif" font-size="11.00">sort</text>
<polygon fill="none" stroke="black" points="234.5,-381 234.5,-403 595.5,-403 595.5,-381 234.5,-381"/>
<text text-anchor="start" x="237.5" y="-389.2" font-family="Helvetica,sans-Serif" font-size="11.00">int4[10]</text>
<polygon fill="#ffffff" stroke="transparent" points="10.5,-359 10.5,-381 234.5,-381 234.5,-359 10.5,-359"/>
<polygon fill="none" stroke="black" points="10.5,-359 10.5,-381 234.5,-381 234.5,-359 10.5,-359"/>
<text text-anchor="start" x="30.5" y="-367.2" font-family="Helvetica,sans-Serif" font-size="11.00">abbreviation</text>
<polygon fill="none" stroke="black" points="234.5,-359 234.5,-381 595.5,-381 595.5,-359 234.5,-359"/>
<text text-anchor="start" x="237.5" y="-367.2" font-family="Helvetica,sans-Serif" font-size="11.00">&quot;private_ci2027_001&quot;.&quot;enum_habitat_type_source&quot;[2147483647]</text>
<polygon fill="#ffffff" stroke="transparent" points="10.5,-341 10.5,-359 595.5,-359 595.5,-341 10.5,-341"/>
<polygon fill="none" stroke="black" points="10.5,-341 10.5,-359 595.5,-359 595.5,-341 10.5,-341"/>
<polygon fill="#ffffff" stroke="transparent" points="11.5,-342 11.5,-358 200.5,-358 200.5,-342 11.5,-342"/>
<text text-anchor="start" x="13.5" y="-347.2" font-family="Helvetica,sans-Serif" font-size="11.00">&lt; 0</text>
<polygon fill="#ffffff" stroke="transparent" points="200.5,-342 200.5,-358 406.5,-358 406.5,-342 200.5,-342"/>
<text text-anchor="start" x="285" y="-347.2" font-family="Helvetica,sans-Serif" font-size="11.00">0 rows</text>
<polygon fill="#ffffff" stroke="transparent" points="406.5,-342 406.5,-358 594.5,-358 594.5,-342 406.5,-342"/>
<text text-anchor="start" x="572.5" y="-347.2" font-family="Helvetica,sans-Serif" font-size="11.00">1 &gt;</text>
<polygon fill="black" stroke="black" points="200.5,-342 200.5,-358 200.5,-358 200.5,-342 200.5,-342"/>
<polygon fill="black" stroke="black" points="406.5,-342 406.5,-358 406.5,-358 406.5,-342 406.5,-342"/>
<polygon fill="none" stroke="black" stroke-width="2" points="9,-340 9,-470 596,-470 596,-340 9,-340"/>
</a>
</g>
</g>
<!-- plot&#45;&gt;lookup_habitat_type_source -->
<g id="edge1" class="edge">
<title>plot:w&#45;&gt;lookup_habitat_type_source:e</title>
<path fill="none" stroke="black" d="M630.99,-370C619.68,-370 612.49,-370 596.5,-370"/>
<polygon fill="black" stroke="black" points="637.5,-370 645.5,-373.6 641.5,-370 645.5,-370 645.5,-370 645.5,-370 641.5,-370 645.5,-366.4 637.5,-370 637.5,-370"/>
<ellipse fill="none" stroke="black" cx="634.3" cy="-370" rx="3.2" ry="3.2"/>
</g>
</g>
</svg>
