<?xml version="1.0" encoding="UTF-8" standalone="no"?>
<!DOCTYPE svg PUBLIC "-//W3C//DTD SVG 1.1//EN"
 "http://www.w3.org/Graphics/SVG/1.1/DTD/svg11.dtd">
<!-- Generated by graphviz version 2.43.0 (0)
 -->
<!-- Title: oneDegreeRelationshipsDiagram Pages: 1 -->
<svg width="853pt" height="679pt"
 viewBox="0.00 0.00 853.00 679.00" xmlns="http://www.w3.org/2000/svg" xmlns:xlink="http://www.w3.org/1999/xlink">
<g id="graph0" class="graph" transform="scale(1 1) rotate(0) translate(4 675)">
<title>oneDegreeRelationshipsDiagram</title>
<polygon fill="#ffffff" stroke="transparent" points="-4,4 -4,-675 849,-675 849,4 -4,4"/>
<text text-anchor="middle" x="79.5" y="-7.2" font-family="Helvetica,sans-Serif" font-size="11.00">Generated by SchemaSpy</text>
<!-- plot -->
<g id="node1" class="node">
<title>plot</title>
<g id="a_node1"><a xlink:href="../../tables/plot.html" xlink:title="plot" target="_top">
<polygon fill="#ffffff" stroke="transparent" points="586,-37 586,-667 837,-667 837,-37 586,-37"/>
<polygon fill="#f5f5f5" stroke="transparent" points="586.5,-645 586.5,-667 837.5,-667 837.5,-645 586.5,-645"/>
<polygon fill="none" stroke="black" points="586.5,-645 586.5,-667 837.5,-667 837.5,-645 586.5,-645"/>
<text text-anchor="start" x="591" y="-654.2" font-family="Helvetica,sans-Serif" font-weight="bold" font-size="11.00">plot</text>
<text text-anchor="start" x="795.5" y="-653.2" font-family="Helvetica,sans-Serif" font-size="11.00">[table]</text>
<polygon fill="none" stroke="black" points="586.5,-623 586.5,-645 837.5,-645 837.5,-623 586.5,-623"/>
<image xlink:href="../../images/primaryKeys.png" width="11px" height="12px" preserveAspectRatio="xMinYMin meet" x="591.5" y="-640"/>
<text text-anchor="start" x="606.5" y="-631.2" font-family="Helvetica,sans-Serif" font-size="11.00">id</text>
<polygon fill="#ffffff" stroke="transparent" points="586.5,-601 586.5,-623 837.5,-623 837.5,-601 586.5,-601"/>
<polygon fill="none" stroke="black" points="586.5,-601 586.5,-623 837.5,-623 837.5,-601 586.5,-601"/>
<image xlink:href="../../images/foreignKeys.png" width="11px" height="12px" preserveAspectRatio="xMinYMin meet" x="591.5" y="-618"/>
<text text-anchor="start" x="606.5" y="-609.2" font-family="Helvetica,sans-Serif" font-size="11.00">cluster_id</text>
<polygon fill="#ffffff" stroke="transparent" points="586.5,-579 586.5,-601 837.5,-601 837.5,-579 586.5,-579"/>
<polygon fill="none" stroke="black" points="586.5,-579 586.5,-601 837.5,-601 837.5,-579 586.5,-579"/>
<text text-anchor="start" x="606.5" y="-587.2" font-family="Helvetica,sans-Serif" font-size="11.00">plot_name</text>
<polygon fill="none" stroke="black" points="586.5,-557 586.5,-579 837.5,-579 837.5,-557 586.5,-557"/>
<image xlink:href="../../images/foreignKeys.png" width="11px" height="12px" preserveAspectRatio="xMinYMin meet" x="591.5" y="-574"/>
<text text-anchor="start" x="606.5" y="-565.2" font-family="Helvetica,sans-Serif" font-size="11.00">sampling_strata</text>
<polygon fill="none" stroke="black" points="586.5,-535 586.5,-557 837.5,-557 837.5,-535 586.5,-535"/>
<image xlink:href="../../images/foreignKeys.png" width="11px" height="12px" preserveAspectRatio="xMinYMin meet" x="591.5" y="-552"/>
<text text-anchor="start" x="606.5" y="-543.2" font-family="Helvetica,sans-Serif" font-size="11.00">growth_district</text>
<polygon fill="none" stroke="black" points="586.5,-513 586.5,-535 837.5,-535 837.5,-513 586.5,-513"/>
<image xlink:href="../../images/foreignKeys.png" width="11px" height="12px" preserveAspectRatio="xMinYMin meet" x="591.5" y="-530"/>
<text text-anchor="start" x="606.5" y="-521.2" font-family="Helvetica,sans-Serif" font-size="11.00">forest_decision</text>
<polygon fill="none" stroke="black" points="586.5,-491 586.5,-513 837.5,-513 837.5,-491 586.5,-491"/>
<image xlink:href="../../images/foreignKeys.png" width="11px" height="12px" preserveAspectRatio="xMinYMin meet" x="591.5" y="-508"/>
<text text-anchor="start" x="606.5" y="-499.2" font-family="Helvetica,sans-Serif" font-size="11.00">forestry_department</text>
<polygon fill="none" stroke="black" points="586.5,-469 586.5,-491 837.5,-491 837.5,-469 586.5,-469"/>
<image xlink:href="../../images/foreignKeys.png" width="11px" height="12px" preserveAspectRatio="xMinYMin meet" x="591.5" y="-486"/>
<text text-anchor="start" x="606.5" y="-477.2" font-family="Helvetica,sans-Serif" font-size="11.00">height_layer_class</text>
<polygon fill="none" stroke="black" points="586.5,-447 586.5,-469 837.5,-469 837.5,-447 586.5,-447"/>
<image xlink:href="../../images/foreignKeys.png" width="11px" height="12px" preserveAspectRatio="xMinYMin meet" x="591.5" y="-464"/>
<text text-anchor="start" x="606.5" y="-455.2" font-family="Helvetica,sans-Serif" font-size="11.00">property_type</text>
<polygon fill="none" stroke="black" points="586.5,-425 586.5,-447 837.5,-447 837.5,-425 586.5,-425"/>
<image xlink:href="../../images/foreignKeys.png" width="11px" height="12px" preserveAspectRatio="xMinYMin meet" x="591.5" y="-442"/>
<text text-anchor="start" x="606.5" y="-433.2" font-family="Helvetica,sans-Serif" font-size="11.00">property_size_class</text>
<polygon fill="none" stroke="black" points="586.5,-403 586.5,-425 837.5,-425 837.5,-403 586.5,-403"/>
<image xlink:href="../../images/foreignKeys.png" width="11px" height="12px" preserveAspectRatio="xMinYMin meet" x="591.5" y="-420"/>
<text text-anchor="start" x="606.5" y="-411.2" font-family="Helvetica,sans-Serif" font-size="11.00">forest_type</text>
<polygon fill="none" stroke="black" points="586.5,-381 586.5,-403 837.5,-403 837.5,-381 586.5,-381"/>
<image xlink:href="../../images/foreignKeys.png" width="11px" height="12px" preserveAspectRatio="xMinYMin meet" x="591.5" y="-398"/>
<text text-anchor="start" x="606.5" y="-389.2" font-family="Helvetica,sans-Serif" font-size="11.00">habitat_type</text>
<polygon fill="none" stroke="black" points="586.5,-359 586.5,-381 837.5,-381 837.5,-359 586.5,-359"/>
<image xlink:href="../../images/foreignKeys.png" width="11px" height="12px" preserveAspectRatio="xMinYMin meet" x="591.5" y="-376"/>
<text text-anchor="start" x="606.5" y="-367.2" font-family="Helvetica,sans-Serif" font-size="11.00">habitat_type_source</text>
<polygon fill="none" stroke="black" points="586.5,-337 586.5,-359 837.5,-359 837.5,-337 586.5,-337"/>
<image xlink:href="../../images/foreignKeys.png" width="11px" height="12px" preserveAspectRatio="xMinYMin meet" x="591.5" y="-354"/>
<text text-anchor="start" x="606.5" y="-345.2" font-family="Helvetica,sans-Serif" font-size="11.00">use_restriction</text>
<polygon fill="none" stroke="black" points="586.5,-315 586.5,-337 837.5,-337 837.5,-315 586.5,-315"/>
<image xlink:href="../../images/foreignKeys.png" width="11px" height="12px" preserveAspectRatio="xMinYMin meet" x="591.5" y="-332"/>
<text text-anchor="start" x="606.5" y="-323.2" font-family="Helvetica,sans-Serif" font-size="11.00">land_use</text>
<polygon fill="none" stroke="black" points="586.5,-293 586.5,-315 837.5,-315 837.5,-293 586.5,-293"/>
<image xlink:href="../../images/foreignKeys.png" width="11px" height="12px" preserveAspectRatio="xMinYMin meet" x="591.5" y="-310"/>
<text text-anchor="start" x="606.5" y="-301.2" font-family="Helvetica,sans-Serif" font-size="11.00">marking_state</text>
<polygon fill="none" stroke="black" points="586.5,-271 586.5,-293 837.5,-293 837.5,-271 586.5,-271"/>
<image xlink:href="../../images/foreignKeys.png" width="11px" height="12px" preserveAspectRatio="xMinYMin meet" x="591.5" y="-288"/>
<text text-anchor="start" x="606.5" y="-279.2" font-family="Helvetica,sans-Serif" font-size="11.00">marking_profile</text>
<polygon fill="none" stroke="black" points="586.5,-249 586.5,-271 837.5,-271 837.5,-249 586.5,-249"/>
<image xlink:href="../../images/foreignKeys.png" width="11px" height="12px" preserveAspectRatio="xMinYMin meet" x="591.5" y="-266"/>
<text text-anchor="start" x="606.5" y="-257.2" font-family="Helvetica,sans-Serif" font-size="11.00">terrain_form</text>
<polygon fill="none" stroke="black" points="586.5,-227 586.5,-249 837.5,-249 837.5,-227 586.5,-227"/>
<image xlink:href="../../images/foreignKeys.png" width="11px" height="12px" preserveAspectRatio="xMinYMin meet" x="591.5" y="-244"/>
<text text-anchor="start" x="606.5" y="-235.2" font-family="Helvetica,sans-Serif" font-size="11.00">management_type</text>
<polygon fill="none" stroke="black" points="586.5,-205 586.5,-227 837.5,-227 837.5,-205 586.5,-205"/>
<image xlink:href="../../images/foreignKeys.png" width="11px" height="12px" preserveAspectRatio="xMinYMin meet" x="591.5" y="-222"/>
<text text-anchor="start" x="606.5" y="-213.2" font-family="Helvetica,sans-Serif" font-size="11.00">harvesting_method</text>
<polygon fill="none" stroke="black" points="586.5,-183 586.5,-205 837.5,-205 837.5,-183 586.5,-183"/>
<image xlink:href="../../images/foreignKeys.png" width="11px" height="12px" preserveAspectRatio="xMinYMin meet" x="591.5" y="-200"/>
<text text-anchor="start" x="606.5" y="-191.2" font-family="Helvetica,sans-Serif" font-size="11.00">layer_type</text>
<polygon fill="none" stroke="black" points="586.5,-161 586.5,-183 837.5,-183 837.5,-161 586.5,-161"/>
<image xlink:href="../../images/foreignKeys.png" width="11px" height="12px" preserveAspectRatio="xMinYMin meet" x="591.5" y="-178"/>
<text text-anchor="start" x="606.5" y="-169.2" font-family="Helvetica,sans-Serif" font-size="11.00">stand_phase</text>
<polygon fill="none" stroke="black" points="586.5,-139 586.5,-161 837.5,-161 837.5,-139 586.5,-139"/>
<image xlink:href="../../images/foreignKeys.png" width="11px" height="12px" preserveAspectRatio="xMinYMin meet" x="591.5" y="-156"/>
<text text-anchor="start" x="606.5" y="-147.2" font-family="Helvetica,sans-Serif" font-size="11.00">sablings_layer</text>
<polygon fill="none" stroke="black" points="586.5,-117 586.5,-139 837.5,-139 837.5,-117 586.5,-117"/>
<image xlink:href="../../images/foreignKeys.png" width="11px" height="12px" preserveAspectRatio="xMinYMin meet" x="591.5" y="-134"/>
<text text-anchor="start" x="606.5" y="-125.2" font-family="Helvetica,sans-Serif" font-size="11.00">trees_less_4meter_mirrored</text>
<polygon fill="none" stroke="black" points="586.5,-95 586.5,-117 837.5,-117 837.5,-95 586.5,-95"/>
<image xlink:href="../../images/foreignKeys.png" width="11px" height="12px" preserveAspectRatio="xMinYMin meet" x="591.5" y="-112"/>
<text text-anchor="start" x="606.5" y="-103.2" font-family="Helvetica,sans-Serif" font-size="11.00">trees_less_4meter_count_factor</text>
<polygon fill="none" stroke="black" points="586.5,-73 586.5,-95 837.5,-95 837.5,-73 586.5,-73"/>
<image xlink:href="../../images/foreignKeys.png" width="11px" height="12px" preserveAspectRatio="xMinYMin meet" x="591.5" y="-90"/>
<text text-anchor="start" x="606.5" y="-81.2" font-family="Helvetica,sans-Serif" font-size="11.00">trees_less_4meter_layer</text>
<polygon fill="none" stroke="black" points="586.5,-55 586.5,-73 837.5,-73 837.5,-55 586.5,-55"/>
<text text-anchor="start" x="589.5" y="-61.2" font-family="Helvetica,sans-Serif" font-size="11.00">...</text>
<polygon fill="#ffffff" stroke="transparent" points="586.5,-37 586.5,-55 837.5,-55 837.5,-37 586.5,-37"/>
<polygon fill="none" stroke="black" points="586.5,-37 586.5,-55 837.5,-55 837.5,-37 586.5,-37"/>
<polygon fill="#ffffff" stroke="transparent" points="587.5,-38 587.5,-54 669.5,-54 669.5,-38 587.5,-38"/>
<text text-anchor="start" x="589.5" y="-43.2" font-family="Helvetica,sans-Serif" font-size="11.00">&lt; 24</text>
<polygon fill="#ffffff" stroke="transparent" points="669.5,-38 669.5,-54 761.5,-54 761.5,-38 669.5,-38"/>
<text text-anchor="start" x="697" y="-43.2" font-family="Helvetica,sans-Serif" font-size="11.00">0 rows</text>
<polygon fill="#ffffff" stroke="transparent" points="761.5,-38 761.5,-54 836.5,-54 836.5,-38 761.5,-38"/>
<text text-anchor="start" x="814.5" y="-43.2" font-family="Helvetica,sans-Serif" font-size="11.00">7 &gt;</text>
<polygon fill="black" stroke="black" points="669.5,-38 669.5,-54 669.5,-54 669.5,-38 669.5,-38"/>
<polygon fill="black" stroke="black" points="761.5,-38 761.5,-54 761.5,-54 761.5,-38 761.5,-38"/>
</a>
</g>
</g>
<!-- lookup_marking_profile -->
<g id="node2" class="node">
<title>lookup_marking_profile</title>
<g id="a_node2"><a xlink:href="../../tables/lookup_marking_profile.html" xlink:title="lookup_marking_profile" target="_top">
<polygon fill="#ffffff" stroke="transparent" points="8,-251 8,-383 537,-383 537,-251 8,-251"/>
<polygon fill="#f5f5f5" stroke="transparent" points="10.5,-359 10.5,-381 535.5,-381 535.5,-359 10.5,-359"/>
<polygon fill="none" stroke="black" points="10.5,-359 10.5,-381 535.5,-381 535.5,-359 10.5,-359"/>
<text text-anchor="start" x="15.5" y="-368.2" font-family="Helvetica,sans-Serif" font-weight="bold" font-size="11.00">lookup_marking_profile</text>
<text text-anchor="start" x="493.5" y="-367.2" font-family="Helvetica,sans-Serif" font-size="11.00">[table]</text>
<polygon fill="none" stroke="black" points="10.5,-337 10.5,-359 201.5,-359 201.5,-337 10.5,-337"/>
<text text-anchor="start" x="30.5" y="-345.2" font-family="Helvetica,sans-Serif" font-size="11.00">name_de</text>
<polygon fill="none" stroke="black" points="201.5,-337 201.5,-359 535.5,-359 535.5,-337 201.5,-337"/>
<text text-anchor="start" x="204.5" y="-345.2" font-family="Helvetica,sans-Serif" font-size="11.00">varchar[150]</text>
<polygon fill="none" stroke="black" points="10.5,-315 10.5,-337 201.5,-337 201.5,-315 10.5,-315"/>
<text text-anchor="start" x="30.5" y="-323.2" font-family="Helvetica,sans-Serif" font-size="11.00">name_en</text>
<polygon fill="none" stroke="black" points="201.5,-315 201.5,-337 535.5,-337 535.5,-315 201.5,-315"/>
<text text-anchor="start" x="204.5" y="-323.2" font-family="Helvetica,sans-Serif" font-size="11.00">varchar[150]</text>
<polygon fill="none" stroke="black" points="10.5,-293 10.5,-315 201.5,-315 201.5,-293 10.5,-293"/>
<text text-anchor="start" x="30.5" y="-301.2" font-family="Helvetica,sans-Serif" font-size="11.00">sort</text>
<polygon fill="none" stroke="black" points="201.5,-293 201.5,-315 535.5,-315 535.5,-293 201.5,-293"/>
<text text-anchor="start" x="204.5" y="-301.2" font-family="Helvetica,sans-Serif" font-size="11.00">int4[10]</text>
<polygon fill="#ffffff" stroke="transparent" points="10.5,-271 10.5,-293 201.5,-293 201.5,-271 10.5,-271"/>
<polygon fill="none" stroke="black" points="10.5,-271 10.5,-293 201.5,-293 201.5,-271 10.5,-271"/>
<text text-anchor="start" x="30.5" y="-279.2" font-family="Helvetica,sans-Serif" font-size="11.00">abbreviation</text>
<polygon fill="none" stroke="black" points="201.5,-271 201.5,-293 535.5,-293 535.5,-271 201.5,-271"/>
<text text-anchor="start" x="204.5" y="-279.2" font-family="Helvetica,sans-Serif" font-size="11.00">&quot;private_ci2027_001&quot;.&quot;enum_marking_profile&quot;[2147483647]</text>
<polygon fill="#ffffff" stroke="transparent" points="10.5,-253 10.5,-271 535.5,-271 535.5,-253 10.5,-253"/>
<polygon fill="none" stroke="black" points="10.5,-253 10.5,-271 535.5,-271 535.5,-253 10.5,-253"/>
<polygon fill="#ffffff" stroke="transparent" points="11.5,-254 11.5,-270 180.5,-270 180.5,-254 11.5,-254"/>
<text text-anchor="start" x="13.5" y="-259.2" font-family="Helvetica,sans-Serif" font-size="11.00">&lt; 0</text>
<polygon fill="#ffffff" stroke="transparent" points="180.5,-254 180.5,-270 366.5,-270 366.5,-254 180.5,-254"/>
<text text-anchor="start" x="255" y="-259.2" font-family="Helvetica,sans-Serif" font-size="11.00">0 rows</text>
<polygon fill="#ffffff" stroke="transparent" points="366.5,-254 366.5,-270 534.5,-270 534.5,-254 366.5,-254"/>
<text text-anchor="start" x="512.5" y="-259.2" font-family="Helvetica,sans-Serif" font-size="11.00">1 &gt;</text>
<polygon fill="black" stroke="black" points="180.5,-254 180.5,-270 180.5,-270 180.5,-254 180.5,-254"/>
<polygon fill="black" stroke="black" points="366.5,-254 366.5,-270 366.5,-270 366.5,-254 366.5,-254"/>
<polygon fill="none" stroke="black" stroke-width="2" points="9,-252 9,-382 536,-382 536,-252 9,-252"/>
</a>
</g>
</g>
<!-- plot&#45;&gt;lookup_marking_profile -->
<g id="edge1" class="edge">
<title>plot:w&#45;&gt;lookup_marking_profile:e</title>
<path fill="none" stroke="black" d="M570.99,-282C559.68,-282 552.49,-282 536.5,-282"/>
<polygon fill="black" stroke="black" points="577.5,-282 585.5,-285.6 581.5,-282 585.5,-282 585.5,-282 585.5,-282 581.5,-282 585.5,-278.4 577.5,-282 577.5,-282"/>
<ellipse fill="none" stroke="black" cx="574.3" cy="-282" rx="3.2" ry="3.2"/>
</g>
</g>
</svg>
