<?xml version="1.0" encoding="UTF-8" standalone="no"?>
<!DOCTYPE svg PUBLIC "-//W3C//DTD SVG 1.1//EN"
 "http://www.w3.org/Graphics/SVG/1.1/DTD/svg11.dtd">
<!-- Generated by graphviz version 2.43.0 (0)
 -->
<!-- Title: twoDegreesRelationshipsDiagram Pages: 1 -->
<svg width="778pt" height="440pt"
 viewBox="0.00 0.00 778.00 440.00" xmlns="http://www.w3.org/2000/svg" xmlns:xlink="http://www.w3.org/1999/xlink">
<g id="graph0" class="graph" transform="scale(1 1) rotate(0) translate(4 436)">
<title>twoDegreesRelationshipsDiagram</title>
<polygon fill="#ffffff" stroke="transparent" points="-4,4 -4,-436 774,-436 774,4 -4,4"/>
<text text-anchor="middle" x="79.5" y="-7.2" font-family="Helvetica,sans-Serif" font-size="11.00">Generated by SchemaSpy</text>
<!-- deadwood -->
<g id="node1" class="node">
<title>deadwood</title>
<g id="a_node1"><a xlink:href="../../tables/deadwood.html" xlink:title="deadwood" target="_top">
<polygon fill="#ffffff" stroke="transparent" points="600,-152 600,-320 762,-320 762,-152 600,-152"/>
<polygon fill="#f5f5f5" stroke="transparent" points="600,-298 600,-320 762,-320 762,-298 600,-298"/>
<polygon fill="none" stroke="black" points="600,-298 600,-320 762,-320 762,-298 600,-298"/>
<text text-anchor="start" x="605" y="-307.2" font-family="Helvetica,sans-Serif" font-weight="bold" font-size="11.00">deadwood</text>
<text text-anchor="start" x="720" y="-306.2" font-family="Helvetica,sans-Serif" font-size="11.00">[table]</text>
<polygon fill="none" stroke="black" points="600,-276 600,-298 762,-298 762,-276 600,-276"/>
<image xlink:href="../../images/primaryKeys.png" width="11px" height="12px" preserveAspectRatio="xMinYMin meet" x="605" y="-293"/>
<text text-anchor="start" x="620" y="-284.2" font-family="Helvetica,sans-Serif" font-size="11.00">id</text>
<polygon fill="none" stroke="black" points="600,-254 600,-276 762,-276 762,-254 600,-254"/>
<image xlink:href="../../images/foreignKeys.png" width="11px" height="12px" preserveAspectRatio="xMinYMin meet" x="605" y="-271"/>
<text text-anchor="start" x="620" y="-262.2" font-family="Helvetica,sans-Serif" font-size="11.00">plot_id</text>
<polygon fill="none" stroke="black" points="600,-232 600,-254 762,-254 762,-232 600,-232"/>
<image xlink:href="../../images/foreignKeys.png" width="11px" height="12px" preserveAspectRatio="xMinYMin meet" x="605" y="-249"/>
<text text-anchor="start" x="620" y="-240.2" font-family="Helvetica,sans-Serif" font-size="11.00">tree_species_group</text>
<polygon fill="none" stroke="black" points="600,-210 600,-232 762,-232 762,-210 600,-210"/>
<image xlink:href="../../images/foreignKeys.png" width="11px" height="12px" preserveAspectRatio="xMinYMin meet" x="605" y="-227"/>
<text text-anchor="start" x="620" y="-218.2" font-family="Helvetica,sans-Serif" font-size="11.00">dead_wood_type</text>
<polygon fill="none" stroke="black" points="600,-188 600,-210 762,-210 762,-188 600,-188"/>
<image xlink:href="../../images/foreignKeys.png" width="11px" height="12px" preserveAspectRatio="xMinYMin meet" x="605" y="-205"/>
<text text-anchor="start" x="620" y="-196.2" font-family="Helvetica,sans-Serif" font-size="11.00">decomposition</text>
<polygon fill="none" stroke="black" points="600,-170 600,-188 762,-188 762,-170 600,-170"/>
<text text-anchor="start" x="603" y="-176.2" font-family="Helvetica,sans-Serif" font-size="11.00">...</text>
<polygon fill="#ffffff" stroke="transparent" points="600,-152 600,-170 762,-170 762,-152 600,-152"/>
<polygon fill="none" stroke="black" points="600,-152 600,-170 762,-170 762,-152 600,-152"/>
<polygon fill="#ffffff" stroke="transparent" points="601,-153 601,-169 653,-169 653,-153 601,-153"/>
<text text-anchor="start" x="603" y="-158.2" font-family="Helvetica,sans-Serif" font-size="11.00">&lt; 4</text>
<polygon fill="#ffffff" stroke="transparent" points="653,-153 653,-169 722,-169 722,-153 653,-153"/>
<text text-anchor="start" x="669" y="-158.2" font-family="Helvetica,sans-Serif" font-size="11.00">0 rows</text>
<polygon fill="#ffffff" stroke="transparent" points="722,-153 722,-169 761,-169 761,-153 722,-153"/>
<text text-anchor="start" x="751" y="-158.2" font-family="Helvetica,sans-Serif" font-size="11.00"> &#160;</text>
<polygon fill="black" stroke="black" points="653,-153 653,-169 653,-169 653,-153 653,-153"/>
<polygon fill="black" stroke="black" points="722,-153 722,-169 722,-169 722,-153 722,-153"/>
</a>
</g>
</g>
<!-- lookup_dead_wood_type -->
<g id="node2" class="node">
<title>lookup_dead_wood_type</title>
<g id="a_node2"><a xlink:href="../../tables/lookup_dead_wood_type.html" xlink:title="lookup_dead_wood_type" target="_top">
<polygon fill="#ffffff" stroke="transparent" points="8,-116 8,-270 551,-270 551,-116 8,-116"/>
<polygon fill="#f5f5f5" stroke="transparent" points="10.5,-246 10.5,-268 549.5,-268 549.5,-246 10.5,-246"/>
<polygon fill="none" stroke="black" points="10.5,-246 10.5,-268 549.5,-268 549.5,-246 10.5,-246"/>
<text text-anchor="start" x="15.5" y="-255.2" font-family="Helvetica,sans-Serif" font-weight="bold" font-size="11.00">lookup_dead_wood_type</text>
<text text-anchor="start" x="507.5" y="-254.2" font-family="Helvetica,sans-Serif" font-size="11.00">[table]</text>
<polygon fill="none" stroke="black" points="10.5,-224 10.5,-246 208.5,-246 208.5,-224 10.5,-224"/>
<text text-anchor="start" x="30.5" y="-232.2" font-family="Helvetica,sans-Serif" font-size="11.00">name_de</text>
<polygon fill="none" stroke="black" points="208.5,-224 208.5,-246 549.5,-246 549.5,-224 208.5,-224"/>
<text text-anchor="start" x="211.5" y="-232.2" font-family="Helvetica,sans-Serif" font-size="11.00">varchar[150]</text>
<polygon fill="none" stroke="black" points="10.5,-202 10.5,-224 208.5,-224 208.5,-202 10.5,-202"/>
<text text-anchor="start" x="30.5" y="-210.2" font-family="Helvetica,sans-Serif" font-size="11.00">name_en</text>
<polygon fill="none" stroke="black" points="208.5,-202 208.5,-224 549.5,-224 549.5,-202 208.5,-202"/>
<text text-anchor="start" x="211.5" y="-210.2" font-family="Helvetica,sans-Serif" font-size="11.00">varchar[150]</text>
<polygon fill="none" stroke="black" points="10.5,-180 10.5,-202 208.5,-202 208.5,-180 10.5,-180"/>
<text text-anchor="start" x="30.5" y="-188.2" font-family="Helvetica,sans-Serif" font-size="11.00">interval</text>
<polygon fill="none" stroke="black" points="208.5,-180 208.5,-202 549.5,-202 549.5,-180 208.5,-180"/>
<text text-anchor="start" x="211.5" y="-188.2" font-family="Helvetica,sans-Serif" font-size="11.00">&quot;private_ci2027_001&quot;.&quot;_enum_interval_name&quot;[2147483647]</text>
<polygon fill="none" stroke="black" points="10.5,-158 10.5,-180 208.5,-180 208.5,-158 10.5,-158"/>
<text text-anchor="start" x="30.5" y="-166.2" font-family="Helvetica,sans-Serif" font-size="11.00">sort</text>
<polygon fill="none" stroke="black" points="208.5,-158 208.5,-180 549.5,-180 549.5,-158 208.5,-158"/>
<text text-anchor="start" x="211.5" y="-166.2" font-family="Helvetica,sans-Serif" font-size="11.00">int4[10]</text>
<polygon fill="#ffffff" stroke="transparent" points="10.5,-136 10.5,-158 208.5,-158 208.5,-136 10.5,-136"/>
<polygon fill="none" stroke="black" points="10.5,-136 10.5,-158 208.5,-158 208.5,-136 10.5,-136"/>
<text text-anchor="start" x="30.5" y="-144.2" font-family="Helvetica,sans-Serif" font-size="11.00">abbreviation</text>
<polygon fill="none" stroke="black" points="208.5,-136 208.5,-158 549.5,-158 549.5,-136 208.5,-136"/>
<text text-anchor="start" x="211.5" y="-144.2" font-family="Helvetica,sans-Serif" font-size="11.00">&quot;private_ci2027_001&quot;.&quot;enum_dead_wood_type&quot;[2147483647]</text>
<polygon fill="#ffffff" stroke="transparent" points="10.5,-118 10.5,-136 549.5,-136 549.5,-118 10.5,-118"/>
<polygon fill="none" stroke="black" points="10.5,-118 10.5,-136 549.5,-136 549.5,-118 10.5,-118"/>
<polygon fill="#ffffff" stroke="transparent" points="11.5,-119 11.5,-135 185.5,-135 185.5,-119 11.5,-119"/>
<text text-anchor="start" x="13.5" y="-124.2" font-family="Helvetica,sans-Serif" font-size="11.00">&lt; 0</text>
<polygon fill="#ffffff" stroke="transparent" points="185.5,-119 185.5,-135 375.5,-135 375.5,-119 185.5,-119"/>
<text text-anchor="start" x="262" y="-124.2" font-family="Helvetica,sans-Serif" font-size="11.00">0 rows</text>
<polygon fill="#ffffff" stroke="transparent" points="375.5,-119 375.5,-135 548.5,-135 548.5,-119 375.5,-119"/>
<text text-anchor="start" x="526.5" y="-124.2" font-family="Helvetica,sans-Serif" font-size="11.00">1 &gt;</text>
<polygon fill="black" stroke="black" points="185.5,-119 185.5,-135 185.5,-135 185.5,-119 185.5,-119"/>
<polygon fill="black" stroke="black" points="375.5,-119 375.5,-135 375.5,-135 375.5,-119 375.5,-119"/>
<polygon fill="none" stroke="black" stroke-width="2" points="9,-117 9,-269 550,-269 550,-117 9,-117"/>
</a>
</g>
</g>
<!-- deadwood&#45;&gt;lookup_dead_wood_type -->
<g id="edge1" class="edge">
<title>deadwood:w&#45;&gt;lookup_dead_wood_type:e</title>
<path fill="none" stroke="black" d="M585.13,-216.14C567.4,-199.68 583.68,-147 550.5,-147"/>
<polygon fill="black" stroke="black" points="591.45,-218.36 597.81,-224.4 595.22,-219.68 599,-221 599,-221 599,-221 595.22,-219.68 600.19,-217.6 591.45,-218.36 591.45,-218.36"/>
<ellipse fill="none" stroke="black" cx="588.43" cy="-217.3" rx="3.2" ry="3.2"/>
</g>
<!-- lookup_decomposition -->
<g id="node3" class="node">
<title>lookup_decomposition</title>
<g id="a_node3"><a xlink:href="../../tables/lookup_decomposition.html" xlink:title="lookup_decomposition" target="_top">
<polygon fill="#ffffff" stroke="transparent" points="174.5,-37 174.5,-95 384.5,-95 384.5,-37 174.5,-37"/>
<polygon fill="#f5f5f5" stroke="transparent" points="174.5,-73 174.5,-95 384.5,-95 384.5,-73 174.5,-73"/>
<polygon fill="none" stroke="black" points="174.5,-73 174.5,-95 384.5,-95 384.5,-73 174.5,-73"/>
<text text-anchor="start" x="179.5" y="-82.2" font-family="Helvetica,sans-Serif" font-weight="bold" font-size="11.00">lookup_decomposition</text>
<text text-anchor="start" x="342.5" y="-81.2" font-family="Helvetica,sans-Serif" font-size="11.00">[table]</text>
<polygon fill="none" stroke="black" points="174.5,-55 174.5,-73 384.5,-73 384.5,-55 174.5,-55"/>
<text text-anchor="start" x="177.5" y="-61.2" font-family="Helvetica,sans-Serif" font-size="11.00">...</text>
<polygon fill="#ffffff" stroke="transparent" points="174.5,-37 174.5,-55 384.5,-55 384.5,-37 174.5,-37"/>
<polygon fill="none" stroke="black" points="174.5,-37 174.5,-55 384.5,-55 384.5,-37 174.5,-37"/>
<polygon fill="#ffffff" stroke="transparent" points="175.5,-38 175.5,-54 231.5,-54 231.5,-38 175.5,-38"/>
<text text-anchor="start" x="177.5" y="-43.2" font-family="Helvetica,sans-Serif" font-size="11.00"> &#160;</text>
<polygon fill="#ffffff" stroke="transparent" points="231.5,-38 231.5,-54 316.5,-54 316.5,-38 231.5,-38"/>
<text text-anchor="start" x="255.5" y="-43.2" font-family="Helvetica,sans-Serif" font-size="11.00">0 rows</text>
<polygon fill="#ffffff" stroke="transparent" points="316.5,-38 316.5,-54 383.5,-54 383.5,-38 316.5,-38"/>
<text text-anchor="start" x="361.5" y="-43.2" font-family="Helvetica,sans-Serif" font-size="11.00">1 &gt;</text>
<polygon fill="black" stroke="black" points="231.5,-38 231.5,-54 231.5,-54 231.5,-38 231.5,-38"/>
<polygon fill="black" stroke="black" points="316.5,-38 316.5,-54 316.5,-54 316.5,-38 316.5,-38"/>
</a>
</g>
</g>
<!-- deadwood&#45;&gt;lookup_decomposition -->
<g id="edge2" class="edge">
<title>deadwood:w&#45;&gt;lookup_decomposition:e</title>
<path fill="none" stroke="black" d="M584.76,-195.63C563.17,-181.96 588.97,-130.26 559,-105 498.41,-53.94 464.73,-64 385.5,-64"/>
<polygon fill="black" stroke="black" points="591.22,-197.15 598.17,-202.5 595.11,-198.08 599,-199 599,-199 599,-199 595.11,-198.08 599.83,-195.5 591.22,-197.15 591.22,-197.15"/>
<ellipse fill="none" stroke="black" cx="588.1" cy="-196.42" rx="3.2" ry="3.2"/>
</g>
<!-- plot -->
<g id="node4" class="node">
<title>plot</title>
<g id="a_node4"><a xlink:href="../../tables/plot.html" xlink:title="plot" target="_top">
<polygon fill="#ffffff" stroke="transparent" points="230.5,-370 230.5,-428 328.5,-428 328.5,-370 230.5,-370"/>
<polygon fill="#f5f5f5" stroke="transparent" points="230.5,-406 230.5,-428 328.5,-428 328.5,-406 230.5,-406"/>
<polygon fill="none" stroke="black" points="230.5,-406 230.5,-428 328.5,-428 328.5,-406 230.5,-406"/>
<text text-anchor="start" x="235" y="-415.2" font-family="Helvetica,sans-Serif" font-weight="bold" font-size="11.00">plot</text>
<text text-anchor="start" x="286.5" y="-414.2" font-family="Helvetica,sans-Serif" font-size="11.00">[table]</text>
<polygon fill="none" stroke="black" points="230.5,-388 230.5,-406 328.5,-406 328.5,-388 230.5,-388"/>
<text text-anchor="start" x="233.5" y="-394.2" font-family="Helvetica,sans-Serif" font-size="11.00">...</text>
<polygon fill="#ffffff" stroke="transparent" points="230.5,-370 230.5,-388 328.5,-388 328.5,-370 230.5,-370"/>
<polygon fill="none" stroke="black" points="230.5,-370 230.5,-388 328.5,-388 328.5,-370 230.5,-370"/>
<polygon fill="#ffffff" stroke="transparent" points="231.5,-371 231.5,-387 262.5,-387 262.5,-371 231.5,-371"/>
<text text-anchor="start" x="233.5" y="-376.2" font-family="Helvetica,sans-Serif" font-size="11.00">&lt; 16</text>
<polygon fill="#ffffff" stroke="transparent" points="262.5,-371 262.5,-387 303.5,-387 303.5,-371 262.5,-371"/>
<text text-anchor="start" x="264.5" y="-376.2" font-family="Helvetica,sans-Serif" font-size="11.00">0 rows</text>
<polygon fill="#ffffff" stroke="transparent" points="303.5,-371 303.5,-387 327.5,-387 327.5,-371 303.5,-371"/>
<text text-anchor="start" x="305.5" y="-376.2" font-family="Helvetica,sans-Serif" font-size="11.00">7 &gt;</text>
<polygon fill="black" stroke="black" points="262.5,-371 262.5,-387 262.5,-387 262.5,-371 262.5,-371"/>
<polygon fill="black" stroke="black" points="303.5,-371 303.5,-387 303.5,-387 303.5,-371 303.5,-371"/>
</a>
</g>
</g>
<!-- deadwood&#45;&gt;plot -->
<g id="edge3" class="edge">
<title>deadwood:w&#45;&gt;plot:e</title>
<path fill="none" stroke="black" d="M584.7,-268.47C563.17,-282.52 590.1,-335.56 559,-360 477.77,-423.84 432.82,-397 329.5,-397"/>
<polygon fill="black" stroke="black" points="591.23,-266.89 599.85,-268.5 595.11,-265.94 599,-265 599,-265 599,-265 595.11,-265.94 598.15,-261.5 591.23,-266.89 591.23,-266.89"/>
<ellipse fill="none" stroke="black" cx="588.12" cy="-267.64" rx="3.2" ry="3.2"/>
</g>
<!-- lookup_tree_species_group -->
<g id="node5" class="node">
<title>lookup_tree_species_group</title>
<g id="a_node5"><a xlink:href="../../tables/lookup_tree_species_group.html" xlink:title="lookup_tree_species_group" target="_top">
<polygon fill="#ffffff" stroke="transparent" points="157.5,-291 157.5,-349 401.5,-349 401.5,-291 157.5,-291"/>
<polygon fill="#f5f5f5" stroke="transparent" points="157.5,-327 157.5,-349 401.5,-349 401.5,-327 157.5,-327"/>
<polygon fill="none" stroke="black" points="157.5,-327 157.5,-349 401.5,-349 401.5,-327 157.5,-327"/>
<text text-anchor="start" x="162.5" y="-336.2" font-family="Helvetica,sans-Serif" font-weight="bold" font-size="11.00">lookup_tree_species_group</text>
<text text-anchor="start" x="359.5" y="-335.2" font-family="Helvetica,sans-Serif" font-size="11.00">[table]</text>
<polygon fill="none" stroke="black" points="157.5,-309 157.5,-327 401.5,-327 401.5,-309 157.5,-309"/>
<text text-anchor="start" x="160.5" y="-315.2" font-family="Helvetica,sans-Serif" font-size="11.00">...</text>
<polygon fill="#ffffff" stroke="transparent" points="157.5,-291 157.5,-309 401.5,-309 401.5,-291 157.5,-291"/>
<polygon fill="none" stroke="black" points="157.5,-291 157.5,-309 401.5,-309 401.5,-291 157.5,-291"/>
<polygon fill="#ffffff" stroke="transparent" points="158.5,-292 158.5,-308 225.5,-308 225.5,-292 158.5,-292"/>
<text text-anchor="start" x="160.5" y="-297.2" font-family="Helvetica,sans-Serif" font-size="11.00"> &#160;</text>
<polygon fill="#ffffff" stroke="transparent" points="225.5,-292 225.5,-308 321.5,-308 321.5,-292 225.5,-292"/>
<text text-anchor="start" x="255" y="-297.2" font-family="Helvetica,sans-Serif" font-size="11.00">0 rows</text>
<polygon fill="#ffffff" stroke="transparent" points="321.5,-292 321.5,-308 400.5,-308 400.5,-292 321.5,-292"/>
<text text-anchor="start" x="378.5" y="-297.2" font-family="Helvetica,sans-Serif" font-size="11.00">1 &gt;</text>
<polygon fill="black" stroke="black" points="225.5,-292 225.5,-308 225.5,-308 225.5,-292 225.5,-292"/>
<polygon fill="black" stroke="black" points="321.5,-292 321.5,-308 321.5,-308 321.5,-292 321.5,-292"/>
</a>
</g>
</g>
<!-- deadwood&#45;&gt;lookup_tree_species_group -->
<g id="edge4" class="edge">
<title>deadwood:w&#45;&gt;lookup_tree_species_group:e</title>
<path fill="none" stroke="black" d="M585.14,-247.55C575.78,-255.6 575.01,-272.34 559,-281 496.14,-315.01 473.97,-318 402.5,-318"/>
<polygon fill="black" stroke="black" points="591.4,-245.49 600.12,-246.42 595.2,-244.25 599,-243 599,-243 599,-243 595.2,-244.25 597.88,-239.58 591.4,-245.49 591.4,-245.49"/>
<ellipse fill="none" stroke="black" cx="588.36" cy="-246.49" rx="3.2" ry="3.2"/>
</g>
</g>
</svg>
