<?xml version="1.0" encoding="UTF-8" standalone="no"?>
<!DOCTYPE svg PUBLIC "-//W3C//DTD SVG 1.1//EN"
 "http://www.w3.org/Graphics/SVG/1.1/DTD/svg11.dtd">
<!-- Generated by graphviz version 2.43.0 (0)
 -->
<!-- Title: twoDegreesRelationshipsDiagram Pages: 1 -->
<svg width="876pt" height="506pt"
 viewBox="0.00 0.00 876.00 506.12" xmlns="http://www.w3.org/2000/svg" xmlns:xlink="http://www.w3.org/1999/xlink">
<g id="graph0" class="graph" transform="scale(1 1) rotate(0) translate(4 502.12)">
<title>twoDegreesRelationshipsDiagram</title>
<polygon fill="#ffffff" stroke="transparent" points="-4,4 -4,-502.12 872,-502.12 872,4 -4,4"/>
<text text-anchor="middle" x="79.5" y="-7.2" font-family="Helvetica,sans-Serif" font-size="11.00">Generated by SchemaSpy</text>
<!-- plot_location -->
<g id="node1" class="node">
<title>plot_location</title>
<g id="a_node1"><a xlink:href="../../tables/plot_location.html" xlink:title="plot_location" target="_top">
<polygon fill="#ffffff" stroke="transparent" points="325,-370 325,-428 466,-428 466,-370 325,-370"/>
<polygon fill="#f5f5f5" stroke="transparent" points="325.5,-406 325.5,-428 466.5,-428 466.5,-406 325.5,-406"/>
<polygon fill="none" stroke="black" points="325.5,-406 325.5,-428 466.5,-428 466.5,-406 325.5,-406"/>
<text text-anchor="start" x="330.5" y="-415.2" font-family="Helvetica,sans-Serif" font-weight="bold" font-size="11.00">plot_location</text>
<text text-anchor="start" x="424.5" y="-414.2" font-family="Helvetica,sans-Serif" font-size="11.00">[table]</text>
<polygon fill="none" stroke="black" points="325.5,-388 325.5,-406 466.5,-406 466.5,-388 325.5,-388"/>
<text text-anchor="start" x="328.5" y="-394.2" font-family="Helvetica,sans-Serif" font-size="11.00">...</text>
<polygon fill="#ffffff" stroke="transparent" points="325.5,-370 325.5,-388 466.5,-388 466.5,-370 325.5,-370"/>
<polygon fill="none" stroke="black" points="325.5,-370 325.5,-388 466.5,-388 466.5,-370 325.5,-370"/>
<polygon fill="#ffffff" stroke="transparent" points="326.5,-371 326.5,-387 367.5,-387 367.5,-371 326.5,-371"/>
<text text-anchor="start" x="328.5" y="-376.2" font-family="Helvetica,sans-Serif" font-size="11.00">&lt; 1</text>
<polygon fill="#ffffff" stroke="transparent" points="367.5,-371 367.5,-387 425.5,-387 425.5,-371 367.5,-371"/>
<text text-anchor="start" x="378" y="-376.2" font-family="Helvetica,sans-Serif" font-size="11.00">0 rows</text>
<polygon fill="#ffffff" stroke="transparent" points="425.5,-371 425.5,-387 465.5,-387 465.5,-371 425.5,-371"/>
<text text-anchor="start" x="443.5" y="-376.2" font-family="Helvetica,sans-Serif" font-size="11.00">3 &gt;</text>
<polygon fill="black" stroke="black" points="367.5,-371 367.5,-387 367.5,-387 367.5,-371 367.5,-371"/>
<polygon fill="black" stroke="black" points="425.5,-371 425.5,-387 425.5,-387 425.5,-371 425.5,-371"/>
</a>
</g>
</g>
<!-- plot -->
<g id="node2" class="node">
<title>plot</title>
<g id="a_node2"><a xlink:href="../../tables/plot.html" xlink:title="plot" target="_top">
<polygon fill="#ffffff" stroke="transparent" points="8,-397 8,-455 106,-455 106,-397 8,-397"/>
<polygon fill="#f5f5f5" stroke="transparent" points="8,-433 8,-455 106,-455 106,-433 8,-433"/>
<polygon fill="none" stroke="black" points="8,-433 8,-455 106,-455 106,-433 8,-433"/>
<text text-anchor="start" x="12.5" y="-442.2" font-family="Helvetica,sans-Serif" font-weight="bold" font-size="11.00">plot</text>
<text text-anchor="start" x="64" y="-441.2" font-family="Helvetica,sans-Serif" font-size="11.00">[table]</text>
<polygon fill="none" stroke="black" points="8,-415 8,-433 106,-433 106,-415 8,-415"/>
<text text-anchor="start" x="11" y="-421.2" font-family="Helvetica,sans-Serif" font-size="11.00">...</text>
<polygon fill="#ffffff" stroke="transparent" points="8,-397 8,-415 106,-415 106,-397 8,-397"/>
<polygon fill="none" stroke="black" points="8,-397 8,-415 106,-415 106,-397 8,-397"/>
<polygon fill="#ffffff" stroke="transparent" points="9,-398 9,-414 40,-414 40,-398 9,-398"/>
<text text-anchor="start" x="11" y="-403.2" font-family="Helvetica,sans-Serif" font-size="11.00">&lt; 16</text>
<polygon fill="#ffffff" stroke="transparent" points="40,-398 40,-414 81,-414 81,-398 40,-398"/>
<text text-anchor="start" x="42" y="-403.2" font-family="Helvetica,sans-Serif" font-size="11.00">0 rows</text>
<polygon fill="#ffffff" stroke="transparent" points="81,-398 81,-414 105,-414 105,-398 81,-398"/>
<text text-anchor="start" x="83" y="-403.2" font-family="Helvetica,sans-Serif" font-size="11.00">7 &gt;</text>
<polygon fill="black" stroke="black" points="40,-398 40,-414 40,-414 40,-398 40,-398"/>
<polygon fill="black" stroke="black" points="81,-398 81,-414 81,-414 81,-398 81,-398"/>
</a>
</g>
</g>
<!-- plot_location&#45;&gt;plot -->
<g id="edge1" class="edge">
<title>plot_location:w&#45;&gt;plot:e</title>
<path fill="none" stroke="black" d="M309.95,-397.21C224.54,-399.72 199.37,-424 107,-424"/>
<polygon fill="black" stroke="black" points="316.5,-397.12 324.55,-400.6 320.5,-397.06 324.5,-397 324.5,-397 324.5,-397 320.5,-397.06 324.45,-393.4 316.5,-397.12 316.5,-397.12"/>
<ellipse fill="none" stroke="black" cx="313.3" cy="-397.16" rx="3.2" ry="3.2"/>
</g>
<!-- regeneration -->
<g id="node3" class="node">
<title>regeneration</title>
<g id="a_node3"><a xlink:href="../../tables/regeneration.html" xlink:title="regeneration" target="_top">
<polygon fill="#ffffff" stroke="transparent" points="685,-227 685,-417 860,-417 860,-227 685,-227"/>
<polygon fill="#f5f5f5" stroke="transparent" points="685.5,-395 685.5,-417 860.5,-417 860.5,-395 685.5,-395"/>
<polygon fill="none" stroke="black" points="685.5,-395 685.5,-417 860.5,-417 860.5,-395 685.5,-395"/>
<text text-anchor="start" x="690.5" y="-404.2" font-family="Helvetica,sans-Serif" font-weight="bold" font-size="11.00">regeneration</text>
<text text-anchor="start" x="818.5" y="-403.2" font-family="Helvetica,sans-Serif" font-size="11.00">[table]</text>
<polygon fill="none" stroke="black" points="685.5,-373 685.5,-395 860.5,-395 860.5,-373 685.5,-373"/>
<image xlink:href="../../images/primaryKeys.png" width="11px" height="12px" preserveAspectRatio="xMinYMin meet" x="690.5" y="-390"/>
<text text-anchor="start" x="705.5" y="-381.2" font-family="Helvetica,sans-Serif" font-size="11.00">id</text>
<polygon fill="none" stroke="black" points="685.5,-351 685.5,-373 860.5,-373 860.5,-351 685.5,-351"/>
<image xlink:href="../../images/foreignKeys.png" width="11px" height="12px" preserveAspectRatio="xMinYMin meet" x="690.5" y="-368"/>
<text text-anchor="start" x="705.5" y="-359.2" font-family="Helvetica,sans-Serif" font-size="11.00">plot_id</text>
<polygon fill="none" stroke="black" points="685.5,-329 685.5,-351 860.5,-351 860.5,-329 685.5,-329"/>
<image xlink:href="../../images/foreignKeys.png" width="11px" height="12px" preserveAspectRatio="xMinYMin meet" x="690.5" y="-346"/>
<text text-anchor="start" x="705.5" y="-337.2" font-family="Helvetica,sans-Serif" font-size="11.00">plot_location_id</text>
<polygon fill="none" stroke="black" points="685.5,-307 685.5,-329 860.5,-329 860.5,-307 685.5,-307"/>
<image xlink:href="../../images/foreignKeys.png" width="11px" height="12px" preserveAspectRatio="xMinYMin meet" x="690.5" y="-324"/>
<text text-anchor="start" x="705.5" y="-315.2" font-family="Helvetica,sans-Serif" font-size="11.00">tree_species</text>
<polygon fill="none" stroke="black" points="685.5,-285 685.5,-307 860.5,-307 860.5,-285 685.5,-285"/>
<image xlink:href="../../images/foreignKeys.png" width="11px" height="12px" preserveAspectRatio="xMinYMin meet" x="690.5" y="-302"/>
<text text-anchor="start" x="705.5" y="-293.2" font-family="Helvetica,sans-Serif" font-size="11.00">browsing</text>
<polygon fill="none" stroke="black" points="685.5,-263 685.5,-285 860.5,-285 860.5,-263 685.5,-263"/>
<image xlink:href="../../images/foreignKeys.png" width="11px" height="12px" preserveAspectRatio="xMinYMin meet" x="690.5" y="-280"/>
<text text-anchor="start" x="705.5" y="-271.2" font-family="Helvetica,sans-Serif" font-size="11.00">tree_size_class</text>
<polygon fill="none" stroke="black" points="685.5,-245 685.5,-263 860.5,-263 860.5,-245 685.5,-245"/>
<text text-anchor="start" x="688.5" y="-251.2" font-family="Helvetica,sans-Serif" font-size="11.00">...</text>
<polygon fill="#ffffff" stroke="transparent" points="685.5,-227 685.5,-245 860.5,-245 860.5,-227 685.5,-227"/>
<polygon fill="none" stroke="black" points="685.5,-227 685.5,-245 860.5,-245 860.5,-227 685.5,-227"/>
<polygon fill="#ffffff" stroke="transparent" points="686.5,-228 686.5,-244 742.5,-244 742.5,-228 686.5,-228"/>
<text text-anchor="start" x="688.5" y="-233.2" font-family="Helvetica,sans-Serif" font-size="11.00">&lt; 5</text>
<polygon fill="#ffffff" stroke="transparent" points="742.5,-228 742.5,-244 815.5,-244 815.5,-228 742.5,-228"/>
<text text-anchor="start" x="760.5" y="-233.2" font-family="Helvetica,sans-Serif" font-size="11.00">0 rows</text>
<polygon fill="#ffffff" stroke="transparent" points="815.5,-228 815.5,-244 859.5,-244 859.5,-228 815.5,-228"/>
<text text-anchor="start" x="849.5" y="-233.2" font-family="Helvetica,sans-Serif" font-size="11.00"> &#160;</text>
<polygon fill="black" stroke="black" points="742.5,-228 742.5,-244 742.5,-244 742.5,-228 742.5,-228"/>
<polygon fill="black" stroke="black" points="815.5,-228 815.5,-244 815.5,-244 815.5,-228 815.5,-228"/>
</a>
</g>
</g>
<!-- regeneration&#45;&gt;plot_location -->
<g id="edge4" class="edge">
<title>regeneration:w&#45;&gt;plot_location:e</title>
<path fill="none" stroke="black" d="M670.37,-342.99C661.95,-347.12 657.1,-354.58 644,-359 567.97,-384.65 547.74,-397 467.5,-397"/>
<polygon fill="black" stroke="black" points="676.67,-341.65 685.24,-343.52 680.59,-340.83 684.5,-340 684.5,-340 684.5,-340 680.59,-340.83 683.76,-336.48 676.67,-341.65 676.67,-341.65"/>
<ellipse fill="none" stroke="black" cx="673.54" cy="-342.32" rx="3.2" ry="3.2"/>
</g>
<!-- regeneration&#45;&gt;plot -->
<g id="edge3" class="edge">
<title>regeneration:w&#45;&gt;plot:e</title>
<path fill="none" stroke="black" d="M670.64,-366.14C654.56,-379.49 671.43,-421.53 644,-438 454.61,-551.68 364.77,-475.01 147,-438 128.43,-434.84 125.84,-424 107,-424"/>
<polygon fill="black" stroke="black" points="676.83,-364.29 685.53,-365.45 680.67,-363.14 684.5,-362 684.5,-362 684.5,-362 680.67,-363.14 683.47,-358.55 676.83,-364.29 676.83,-364.29"/>
<ellipse fill="none" stroke="black" cx="673.77" cy="-365.2" rx="3.2" ry="3.2"/>
</g>
<!-- lookup_browsing -->
<g id="node4" class="node">
<title>lookup_browsing</title>
<g id="a_node4"><a xlink:href="../../tables/lookup_browsing.html" xlink:title="lookup_browsing" target="_top">
<polygon fill="#ffffff" stroke="transparent" points="155,-116 155,-270 636,-270 636,-116 155,-116"/>
<polygon fill="#f5f5f5" stroke="transparent" points="157.5,-246 157.5,-268 634.5,-268 634.5,-246 157.5,-246"/>
<polygon fill="none" stroke="black" points="157.5,-246 157.5,-268 634.5,-268 634.5,-246 157.5,-246"/>
<text text-anchor="start" x="162.5" y="-255.2" font-family="Helvetica,sans-Serif" font-weight="bold" font-size="11.00">lookup_browsing</text>
<text text-anchor="start" x="592.5" y="-254.2" font-family="Helvetica,sans-Serif" font-size="11.00">[table]</text>
<polygon fill="none" stroke="black" points="157.5,-224 157.5,-246 301.5,-246 301.5,-224 157.5,-224"/>
<text text-anchor="start" x="177.5" y="-232.2" font-family="Helvetica,sans-Serif" font-size="11.00">name_de</text>
<polygon fill="none" stroke="black" points="301.5,-224 301.5,-246 634.5,-246 634.5,-224 301.5,-224"/>
<text text-anchor="start" x="304.5" y="-232.2" font-family="Helvetica,sans-Serif" font-size="11.00">varchar[150]</text>
<polygon fill="none" stroke="black" points="157.5,-202 157.5,-224 301.5,-224 301.5,-202 157.5,-202"/>
<text text-anchor="start" x="177.5" y="-210.2" font-family="Helvetica,sans-Serif" font-size="11.00">name_en</text>
<polygon fill="none" stroke="black" points="301.5,-202 301.5,-224 634.5,-224 634.5,-202 301.5,-202"/>
<text text-anchor="start" x="304.5" y="-210.2" font-family="Helvetica,sans-Serif" font-size="11.00">varchar[150]</text>
<polygon fill="none" stroke="black" points="157.5,-180 157.5,-202 301.5,-202 301.5,-180 157.5,-180"/>
<text text-anchor="start" x="177.5" y="-188.2" font-family="Helvetica,sans-Serif" font-size="11.00">interval</text>
<polygon fill="none" stroke="black" points="301.5,-180 301.5,-202 634.5,-202 634.5,-180 301.5,-180"/>
<text text-anchor="start" x="304.5" y="-188.2" font-family="Helvetica,sans-Serif" font-size="11.00">&quot;private_ci2027_001&quot;.&quot;_enum_interval_name&quot;[2147483647]</text>
<polygon fill="none" stroke="black" points="157.5,-158 157.5,-180 301.5,-180 301.5,-158 157.5,-158"/>
<text text-anchor="start" x="177.5" y="-166.2" font-family="Helvetica,sans-Serif" font-size="11.00">sort</text>
<polygon fill="none" stroke="black" points="301.5,-158 301.5,-180 634.5,-180 634.5,-158 301.5,-158"/>
<text text-anchor="start" x="304.5" y="-166.2" font-family="Helvetica,sans-Serif" font-size="11.00">int4[10]</text>
<polygon fill="#ffffff" stroke="transparent" points="157.5,-136 157.5,-158 301.5,-158 301.5,-136 157.5,-136"/>
<polygon fill="none" stroke="black" points="157.5,-136 157.5,-158 301.5,-158 301.5,-136 157.5,-136"/>
<text text-anchor="start" x="177.5" y="-144.2" font-family="Helvetica,sans-Serif" font-size="11.00">abbreviation</text>
<polygon fill="none" stroke="black" points="301.5,-136 301.5,-158 634.5,-158 634.5,-136 301.5,-136"/>
<text text-anchor="start" x="304.5" y="-144.2" font-family="Helvetica,sans-Serif" font-size="11.00">&quot;private_ci2027_001&quot;.&quot;enum_browsing&quot;[2147483647]</text>
<polygon fill="#ffffff" stroke="transparent" points="157.5,-118 157.5,-136 634.5,-136 634.5,-118 157.5,-118"/>
<polygon fill="none" stroke="black" points="157.5,-118 157.5,-136 634.5,-136 634.5,-118 157.5,-118"/>
<polygon fill="#ffffff" stroke="transparent" points="158.5,-119 158.5,-135 311.5,-135 311.5,-119 158.5,-119"/>
<text text-anchor="start" x="160.5" y="-124.2" font-family="Helvetica,sans-Serif" font-size="11.00">&lt; 0</text>
<polygon fill="#ffffff" stroke="transparent" points="311.5,-119 311.5,-135 481.5,-135 481.5,-119 311.5,-119"/>
<text text-anchor="start" x="378" y="-124.2" font-family="Helvetica,sans-Serif" font-size="11.00">0 rows</text>
<polygon fill="#ffffff" stroke="transparent" points="481.5,-119 481.5,-135 633.5,-135 633.5,-119 481.5,-119"/>
<text text-anchor="start" x="611.5" y="-124.2" font-family="Helvetica,sans-Serif" font-size="11.00">1 &gt;</text>
<polygon fill="black" stroke="black" points="311.5,-119 311.5,-135 311.5,-135 311.5,-119 311.5,-119"/>
<polygon fill="black" stroke="black" points="481.5,-119 481.5,-135 481.5,-135 481.5,-119 481.5,-119"/>
<polygon fill="none" stroke="black" stroke-width="2" points="156,-117 156,-269 635,-269 635,-117 156,-117"/>
</a>
</g>
</g>
<!-- regeneration&#45;&gt;lookup_browsing -->
<g id="edge2" class="edge">
<title>regeneration:w&#45;&gt;lookup_browsing:e</title>
<path fill="none" stroke="black" d="M670.13,-293.02C628.85,-272.02 699.36,-147 635.5,-147"/>
<polygon fill="black" stroke="black" points="676.67,-294.38 683.77,-299.53 680.58,-295.19 684.5,-296 684.5,-296 684.5,-296 680.58,-295.19 685.23,-292.47 676.67,-294.38 676.67,-294.38"/>
<ellipse fill="none" stroke="black" cx="673.53" cy="-293.73" rx="3.2" ry="3.2"/>
</g>
<!-- lookup_tree_size_class -->
<g id="node5" class="node">
<title>lookup_tree_size_class</title>
<g id="a_node5"><a xlink:href="../../tables/lookup_tree_size_class.html" xlink:title="lookup_tree_size_class" target="_top">
<polygon fill="#ffffff" stroke="transparent" points="290,-37 290,-95 501,-95 501,-37 290,-37"/>
<polygon fill="#f5f5f5" stroke="transparent" points="290.5,-73 290.5,-95 501.5,-95 501.5,-73 290.5,-73"/>
<polygon fill="none" stroke="black" points="290.5,-73 290.5,-95 501.5,-95 501.5,-73 290.5,-73"/>
<text text-anchor="start" x="295.5" y="-82.2" font-family="Helvetica,sans-Serif" font-weight="bold" font-size="11.00">lookup_tree_size_class</text>
<text text-anchor="start" x="459.5" y="-81.2" font-family="Helvetica,sans-Serif" font-size="11.00">[table]</text>
<polygon fill="none" stroke="black" points="290.5,-55 290.5,-73 501.5,-73 501.5,-55 290.5,-55"/>
<text text-anchor="start" x="293.5" y="-61.2" font-family="Helvetica,sans-Serif" font-size="11.00">...</text>
<polygon fill="#ffffff" stroke="transparent" points="290.5,-37 290.5,-55 501.5,-55 501.5,-37 290.5,-37"/>
<polygon fill="none" stroke="black" points="290.5,-37 290.5,-55 501.5,-55 501.5,-37 290.5,-37"/>
<polygon fill="#ffffff" stroke="transparent" points="291.5,-38 291.5,-54 347.5,-54 347.5,-38 291.5,-38"/>
<text text-anchor="start" x="293.5" y="-43.2" font-family="Helvetica,sans-Serif" font-size="11.00"> &#160;</text>
<polygon fill="#ffffff" stroke="transparent" points="347.5,-38 347.5,-54 432.5,-54 432.5,-38 347.5,-38"/>
<text text-anchor="start" x="371.5" y="-43.2" font-family="Helvetica,sans-Serif" font-size="11.00">0 rows</text>
<polygon fill="#ffffff" stroke="transparent" points="432.5,-38 432.5,-54 500.5,-54 500.5,-38 432.5,-38"/>
<text text-anchor="start" x="478.5" y="-43.2" font-family="Helvetica,sans-Serif" font-size="11.00">1 &gt;</text>
<polygon fill="black" stroke="black" points="347.5,-38 347.5,-54 347.5,-54 347.5,-38 347.5,-38"/>
<polygon fill="black" stroke="black" points="432.5,-38 432.5,-54 432.5,-54 432.5,-38 432.5,-38"/>
</a>
</g>
</g>
<!-- regeneration&#45;&gt;lookup_tree_size_class -->
<g id="edge5" class="edge">
<title>regeneration:w&#45;&gt;lookup_tree_size_class:e</title>
<path fill="none" stroke="black" d="M669.94,-272.2C619.84,-257.52 693.36,-156.73 644,-105 598.8,-57.63 567.98,-64 502.5,-64"/>
<polygon fill="black" stroke="black" points="676.56,-273.02 684.06,-277.57 680.53,-273.51 684.5,-274 684.5,-274 684.5,-274 680.53,-273.51 684.94,-270.43 676.56,-273.02 676.56,-273.02"/>
<ellipse fill="none" stroke="black" cx="673.38" cy="-272.63" rx="3.2" ry="3.2"/>
</g>
<!-- lookup_tree_species -->
<g id="node6" class="node">
<title>lookup_tree_species</title>
<g id="a_node6"><a xlink:href="../../tables/lookup_tree_species.html" xlink:title="lookup_tree_species" target="_top">
<polygon fill="#ffffff" stroke="transparent" points="298.5,-291 298.5,-349 492.5,-349 492.5,-291 298.5,-291"/>
<polygon fill="#f5f5f5" stroke="transparent" points="298.5,-327 298.5,-349 492.5,-349 492.5,-327 298.5,-327"/>
<polygon fill="none" stroke="black" points="298.5,-327 298.5,-349 492.5,-349 492.5,-327 298.5,-327"/>
<text text-anchor="start" x="303.5" y="-336.2" font-family="Helvetica,sans-Serif" font-weight="bold" font-size="11.00">lookup_tree_species</text>
<text text-anchor="start" x="450.5" y="-335.2" font-family="Helvetica,sans-Serif" font-size="11.00">[table]</text>
<polygon fill="none" stroke="black" points="298.5,-309 298.5,-327 492.5,-327 492.5,-309 298.5,-309"/>
<text text-anchor="start" x="301.5" y="-315.2" font-family="Helvetica,sans-Serif" font-size="11.00">...</text>
<polygon fill="#ffffff" stroke="transparent" points="298.5,-291 298.5,-309 492.5,-309 492.5,-291 298.5,-291"/>
<polygon fill="none" stroke="black" points="298.5,-291 298.5,-309 492.5,-309 492.5,-291 298.5,-291"/>
<polygon fill="#ffffff" stroke="transparent" points="299.5,-292 299.5,-308 345.5,-308 345.5,-292 299.5,-292"/>
<text text-anchor="start" x="301.5" y="-297.2" font-family="Helvetica,sans-Serif" font-size="11.00"> &#160;</text>
<polygon fill="#ffffff" stroke="transparent" points="345.5,-292 345.5,-308 434.5,-308 434.5,-292 345.5,-292"/>
<text text-anchor="start" x="364.5" y="-297.2" font-family="Helvetica,sans-Serif" font-size="11.00">125 rows</text>
<polygon fill="#ffffff" stroke="transparent" points="434.5,-292 434.5,-308 491.5,-308 491.5,-292 434.5,-292"/>
<text text-anchor="start" x="469.5" y="-297.2" font-family="Helvetica,sans-Serif" font-size="11.00">3 &gt;</text>
<polygon fill="black" stroke="black" points="345.5,-292 345.5,-308 345.5,-308 345.5,-292 345.5,-292"/>
<polygon fill="black" stroke="black" points="434.5,-292 434.5,-308 434.5,-308 434.5,-292 434.5,-292"/>
</a>
</g>
</g>
<!-- regeneration&#45;&gt;lookup_tree_species -->
<g id="edge6" class="edge">
<title>regeneration:w&#45;&gt;lookup_tree_species:e</title>
<path fill="none" stroke="black" d="M669.75,-318C596.81,-318 573.25,-318 493.5,-318"/>
<polygon fill="black" stroke="black" points="676.5,-318 684.5,-321.6 680.5,-318 684.5,-318 684.5,-318 684.5,-318 680.5,-318 684.5,-314.4 676.5,-318 676.5,-318"/>
<ellipse fill="none" stroke="black" cx="673.3" cy="-318" rx="3.2" ry="3.2"/>
</g>
</g>
</svg>
