<?xml version="1.0" encoding="UTF-8" standalone="no"?>
<!DOCTYPE svg PUBLIC "-//W3C//DTD SVG 1.1//EN"
 "http://www.w3.org/Graphics/SVG/1.1/DTD/svg11.dtd">
<!-- Generated by graphviz version 2.43.0 (0)
 -->
<!-- Title: oneDegreeRelationshipsDiagram Pages: 1 -->
<svg width="884pt" height="503pt"
 viewBox="0.00 0.00 884.00 503.00" xmlns="http://www.w3.org/2000/svg" xmlns:xlink="http://www.w3.org/1999/xlink">
<g id="graph0" class="graph" transform="scale(1 1) rotate(0) translate(4 499)">
<title>oneDegreeRelationshipsDiagram</title>
<polygon fill="#ffffff" stroke="transparent" points="-4,4 -4,-499 880,-499 880,4 -4,4"/>
<text text-anchor="middle" x="79.5" y="-7.2" font-family="Helvetica,sans-Serif" font-size="11.00">Generated by SchemaSpy</text>
<!-- plot -->
<g id="node1" class="node">
<title>plot</title>
<g id="a_node1"><a xlink:href="../../tables/plot.html" xlink:title="plot" target="_top">
<polygon fill="#ffffff" stroke="transparent" points="580,-37 580,-491 868,-491 868,-37 580,-37"/>
<polygon fill="#f5f5f5" stroke="transparent" points="580,-469 580,-491 868,-491 868,-469 580,-469"/>
<polygon fill="none" stroke="black" points="580,-469 580,-491 868,-491 868,-469 580,-469"/>
<text text-anchor="start" x="584.5" y="-478.2" font-family="Helvetica,sans-Serif" font-weight="bold" font-size="11.00">plot</text>
<text text-anchor="start" x="826" y="-477.2" font-family="Helvetica,sans-Serif" font-size="11.00">[table]</text>
<polygon fill="none" stroke="black" points="580,-447 580,-469 868,-469 868,-447 580,-447"/>
<image xlink:href="../../images/primaryKeys.png" width="11px" height="12px" preserveAspectRatio="xMinYMin meet" x="585" y="-464"/>
<text text-anchor="start" x="600" y="-455.2" font-family="Helvetica,sans-Serif" font-size="11.00">id</text>
<polygon fill="#ffffff" stroke="transparent" points="580,-425 580,-447 868,-447 868,-425 580,-425"/>
<polygon fill="none" stroke="black" points="580,-425 580,-447 868,-447 868,-425 580,-425"/>
<image xlink:href="../../images/foreignKeys.png" width="11px" height="12px" preserveAspectRatio="xMinYMin meet" x="585" y="-442"/>
<text text-anchor="start" x="600" y="-433.2" font-family="Helvetica,sans-Serif" font-size="11.00">cluster_id</text>
<polygon fill="#ffffff" stroke="transparent" points="580,-403 580,-425 868,-425 868,-403 580,-403"/>
<polygon fill="none" stroke="black" points="580,-403 580,-425 868,-425 868,-403 580,-403"/>
<text text-anchor="start" x="600" y="-411.2" font-family="Helvetica,sans-Serif" font-size="11.00">plot_name</text>
<polygon fill="none" stroke="black" points="580,-381 580,-403 868,-403 868,-381 580,-381"/>
<image xlink:href="../../images/foreignKeys.png" width="11px" height="12px" preserveAspectRatio="xMinYMin meet" x="585" y="-398"/>
<text text-anchor="start" x="600" y="-389.2" font-family="Helvetica,sans-Serif" font-size="11.00">growth_district</text>
<polygon fill="none" stroke="black" points="580,-359 580,-381 868,-381 868,-359 580,-359"/>
<image xlink:href="../../images/foreignKeys.png" width="11px" height="12px" preserveAspectRatio="xMinYMin meet" x="585" y="-376"/>
<text text-anchor="start" x="600" y="-367.2" font-family="Helvetica,sans-Serif" font-size="11.00">forest_status</text>
<polygon fill="none" stroke="black" points="580,-337 580,-359 868,-359 868,-337 580,-337"/>
<image xlink:href="../../images/foreignKeys.png" width="11px" height="12px" preserveAspectRatio="xMinYMin meet" x="585" y="-354"/>
<text text-anchor="start" x="600" y="-345.2" font-family="Helvetica,sans-Serif" font-size="11.00">elevation_level</text>
<polygon fill="none" stroke="black" points="580,-315 580,-337 868,-337 868,-315 580,-315"/>
<image xlink:href="../../images/foreignKeys.png" width="11px" height="12px" preserveAspectRatio="xMinYMin meet" x="585" y="-332"/>
<text text-anchor="start" x="600" y="-323.2" font-family="Helvetica,sans-Serif" font-size="11.00">property_type</text>
<polygon fill="none" stroke="black" points="580,-293 580,-315 868,-315 868,-293 580,-293"/>
<image xlink:href="../../images/foreignKeys.png" width="11px" height="12px" preserveAspectRatio="xMinYMin meet" x="585" y="-310"/>
<text text-anchor="start" x="600" y="-301.2" font-family="Helvetica,sans-Serif" font-size="11.00">property_size_class</text>
<polygon fill="none" stroke="black" points="580,-271 580,-293 868,-293 868,-271 580,-271"/>
<image xlink:href="../../images/foreignKeys.png" width="11px" height="12px" preserveAspectRatio="xMinYMin meet" x="585" y="-288"/>
<text text-anchor="start" x="600" y="-279.2" font-family="Helvetica,sans-Serif" font-size="11.00">land_use_after</text>
<polygon fill="none" stroke="black" points="580,-249 580,-271 868,-271 868,-249 580,-249"/>
<image xlink:href="../../images/foreignKeys.png" width="11px" height="12px" preserveAspectRatio="xMinYMin meet" x="585" y="-266"/>
<text text-anchor="start" x="600" y="-257.2" font-family="Helvetica,sans-Serif" font-size="11.00">marker_status</text>
<polygon fill="none" stroke="black" points="580,-227 580,-249 868,-249 868,-227 580,-227"/>
<image xlink:href="../../images/foreignKeys.png" width="11px" height="12px" preserveAspectRatio="xMinYMin meet" x="585" y="-244"/>
<text text-anchor="start" x="600" y="-235.2" font-family="Helvetica,sans-Serif" font-size="11.00">marker_profile</text>
<polygon fill="none" stroke="black" points="580,-205 580,-227 868,-227 868,-205 580,-205"/>
<image xlink:href="../../images/foreignKeys.png" width="11px" height="12px" preserveAspectRatio="xMinYMin meet" x="585" y="-222"/>
<text text-anchor="start" x="600" y="-213.2" font-family="Helvetica,sans-Serif" font-size="11.00">terrain_form</text>
<polygon fill="none" stroke="black" points="580,-183 580,-205 868,-205 868,-183 580,-183"/>
<image xlink:href="../../images/foreignKeys.png" width="11px" height="12px" preserveAspectRatio="xMinYMin meet" x="585" y="-200"/>
<text text-anchor="start" x="600" y="-191.2" font-family="Helvetica,sans-Serif" font-size="11.00">management_type</text>
<polygon fill="none" stroke="black" points="580,-161 580,-183 868,-183 868,-161 580,-161"/>
<image xlink:href="../../images/foreignKeys.png" width="11px" height="12px" preserveAspectRatio="xMinYMin meet" x="585" y="-178"/>
<text text-anchor="start" x="600" y="-169.2" font-family="Helvetica,sans-Serif" font-size="11.00">harvesting_method</text>
<polygon fill="none" stroke="black" points="580,-139 580,-161 868,-161 868,-139 580,-139"/>
<image xlink:href="../../images/foreignKeys.png" width="11px" height="12px" preserveAspectRatio="xMinYMin meet" x="585" y="-156"/>
<text text-anchor="start" x="600" y="-147.2" font-family="Helvetica,sans-Serif" font-size="11.00">stand_structure</text>
<polygon fill="none" stroke="black" points="580,-117 580,-139 868,-139 868,-117 580,-117"/>
<image xlink:href="../../images/foreignKeys.png" width="11px" height="12px" preserveAspectRatio="xMinYMin meet" x="585" y="-134"/>
<text text-anchor="start" x="600" y="-125.2" font-family="Helvetica,sans-Serif" font-size="11.00">stand_dev_phase</text>
<polygon fill="none" stroke="black" points="580,-95 580,-117 868,-117 868,-95 580,-95"/>
<image xlink:href="../../images/foreignKeys.png" width="11px" height="12px" preserveAspectRatio="xMinYMin meet" x="585" y="-112"/>
<text text-anchor="start" x="600" y="-103.2" font-family="Helvetica,sans-Serif" font-size="11.00">stand_layer_reg</text>
<polygon fill="none" stroke="black" points="580,-73 580,-95 868,-95 868,-73 580,-73"/>
<image xlink:href="../../images/foreignKeys.png" width="11px" height="12px" preserveAspectRatio="xMinYMin meet" x="585" y="-90"/>
<text text-anchor="start" x="600" y="-81.2" font-family="Helvetica,sans-Serif" font-size="11.00">trees_less_4meter_mirrored</text>
<polygon fill="none" stroke="black" points="580,-55 580,-73 868,-73 868,-55 580,-55"/>
<text text-anchor="start" x="583" y="-61.2" font-family="Helvetica,sans-Serif" font-size="11.00">...</text>
<polygon fill="#ffffff" stroke="transparent" points="580,-37 580,-55 868,-55 868,-37 580,-37"/>
<polygon fill="none" stroke="black" points="580,-37 580,-55 868,-55 868,-37 580,-37"/>
<polygon fill="#ffffff" stroke="transparent" points="581,-38 581,-54 676,-54 676,-38 581,-38"/>
<text text-anchor="start" x="583" y="-43.2" font-family="Helvetica,sans-Serif" font-size="11.00">&lt; 16</text>
<polygon fill="#ffffff" stroke="transparent" points="676,-38 676,-54 780,-54 780,-38 676,-38"/>
<text text-anchor="start" x="709.5" y="-43.2" font-family="Helvetica,sans-Serif" font-size="11.00">0 rows</text>
<polygon fill="#ffffff" stroke="transparent" points="780,-38 780,-54 867,-54 867,-38 780,-38"/>
<text text-anchor="start" x="845" y="-43.2" font-family="Helvetica,sans-Serif" font-size="11.00">7 &gt;</text>
<polygon fill="black" stroke="black" points="676,-38 676,-54 676,-54 676,-38 676,-38"/>
<polygon fill="black" stroke="black" points="780,-38 780,-54 780,-54 780,-38 780,-38"/>
</a>
</g>
</g>
<!-- lookup_elevation_level -->
<g id="node2" class="node">
<title>lookup_elevation_level</title>
<g id="a_node2"><a xlink:href="../../tables/lookup_elevation_level.html" xlink:title="lookup_elevation_level" target="_top">
<polygon fill="#ffffff" stroke="transparent" points="8,-317 8,-471 531,-471 531,-317 8,-317"/>
<polygon fill="#f5f5f5" stroke="transparent" points="10.5,-447 10.5,-469 529.5,-469 529.5,-447 10.5,-447"/>
<polygon fill="none" stroke="black" points="10.5,-447 10.5,-469 529.5,-469 529.5,-447 10.5,-447"/>
<text text-anchor="start" x="15.5" y="-456.2" font-family="Helvetica,sans-Serif" font-weight="bold" font-size="11.00">lookup_elevation_level</text>
<text text-anchor="start" x="487.5" y="-455.2" font-family="Helvetica,sans-Serif" font-size="11.00">[table]</text>
<polygon fill="none" stroke="black" points="10.5,-425 10.5,-447 196.5,-447 196.5,-425 10.5,-425"/>
<text text-anchor="start" x="30.5" y="-433.2" font-family="Helvetica,sans-Serif" font-size="11.00">name_de</text>
<polygon fill="none" stroke="black" points="196.5,-425 196.5,-447 529.5,-447 529.5,-425 196.5,-425"/>
<text text-anchor="start" x="199.5" y="-433.2" font-family="Helvetica,sans-Serif" font-size="11.00">varchar[150]</text>
<polygon fill="none" stroke="black" points="10.5,-403 10.5,-425 196.5,-425 196.5,-403 10.5,-403"/>
<text text-anchor="start" x="30.5" y="-411.2" font-family="Helvetica,sans-Serif" font-size="11.00">name_en</text>
<polygon fill="none" stroke="black" points="196.5,-403 196.5,-425 529.5,-425 529.5,-403 196.5,-403"/>
<text text-anchor="start" x="199.5" y="-411.2" font-family="Helvetica,sans-Serif" font-size="11.00">varchar[150]</text>
<polygon fill="none" stroke="black" points="10.5,-381 10.5,-403 196.5,-403 196.5,-381 10.5,-381"/>
<text text-anchor="start" x="30.5" y="-389.2" font-family="Helvetica,sans-Serif" font-size="11.00">interval</text>
<polygon fill="none" stroke="black" points="196.5,-381 196.5,-403 529.5,-403 529.5,-381 196.5,-381"/>
<text text-anchor="start" x="199.5" y="-389.2" font-family="Helvetica,sans-Serif" font-size="11.00">&quot;private_ci2027_001&quot;.&quot;_enum_interval_name&quot;[2147483647]</text>
<polygon fill="none" stroke="black" points="10.5,-359 10.5,-381 196.5,-381 196.5,-359 10.5,-359"/>
<text text-anchor="start" x="30.5" y="-367.2" font-family="Helvetica,sans-Serif" font-size="11.00">sort</text>
<polygon fill="none" stroke="black" points="196.5,-359 196.5,-381 529.5,-381 529.5,-359 196.5,-359"/>
<text text-anchor="start" x="199.5" y="-367.2" font-family="Helvetica,sans-Serif" font-size="11.00">int4[10]</text>
<polygon fill="#ffffff" stroke="transparent" points="10.5,-337 10.5,-359 196.5,-359 196.5,-337 10.5,-337"/>
<polygon fill="none" stroke="black" points="10.5,-337 10.5,-359 196.5,-359 196.5,-337 10.5,-337"/>
<text text-anchor="start" x="30.5" y="-345.2" font-family="Helvetica,sans-Serif" font-size="11.00">abbreviation</text>
<polygon fill="none" stroke="black" points="196.5,-337 196.5,-359 529.5,-359 529.5,-337 196.5,-337"/>
<text text-anchor="start" x="199.5" y="-345.2" font-family="Helvetica,sans-Serif" font-size="11.00">&quot;private_ci2027_001&quot;.&quot;enum_elevation_level&quot;[2147483647]</text>
<polygon fill="#ffffff" stroke="transparent" points="10.5,-319 10.5,-337 529.5,-337 529.5,-319 10.5,-319"/>
<polygon fill="none" stroke="black" points="10.5,-319 10.5,-337 529.5,-337 529.5,-319 10.5,-319"/>
<polygon fill="#ffffff" stroke="transparent" points="11.5,-320 11.5,-336 178.5,-336 178.5,-320 11.5,-320"/>
<text text-anchor="start" x="13.5" y="-325.2" font-family="Helvetica,sans-Serif" font-size="11.00">&lt; 0</text>
<polygon fill="#ffffff" stroke="transparent" points="178.5,-320 178.5,-336 362.5,-336 362.5,-320 178.5,-320"/>
<text text-anchor="start" x="252" y="-325.2" font-family="Helvetica,sans-Serif" font-size="11.00">0 rows</text>
<polygon fill="#ffffff" stroke="transparent" points="362.5,-320 362.5,-336 528.5,-336 528.5,-320 362.5,-320"/>
<text text-anchor="start" x="506.5" y="-325.2" font-family="Helvetica,sans-Serif" font-size="11.00">1 &gt;</text>
<polygon fill="black" stroke="black" points="178.5,-320 178.5,-336 178.5,-336 178.5,-320 178.5,-320"/>
<polygon fill="black" stroke="black" points="362.5,-320 362.5,-336 362.5,-336 362.5,-320 362.5,-320"/>
<polygon fill="none" stroke="black" stroke-width="2" points="9,-318 9,-470 530,-470 530,-318 9,-318"/>
</a>
</g>
</g>
<!-- plot&#45;&gt;lookup_elevation_level -->
<g id="edge1" class="edge">
<title>plot:w&#45;&gt;lookup_elevation_level:e</title>
<path fill="none" stroke="black" d="M564.28,-348C553.29,-348 546.16,-348 530.5,-348"/>
<polygon fill="black" stroke="black" points="571,-348 579,-351.6 575,-348 579,-348 579,-348 579,-348 575,-348 579,-344.4 571,-348 571,-348"/>
<ellipse fill="none" stroke="black" cx="567.8" cy="-348" rx="3.2" ry="3.2"/>
</g>
</g>
</svg>
