<?xml version="1.0" encoding="UTF-8" standalone="no"?>
<!DOCTYPE svg PUBLIC "-//W3C//DTD SVG 1.1//EN"
 "http://www.w3.org/Graphics/SVG/1.1/DTD/svg11.dtd">
<!-- Generated by graphviz version 2.43.0 (0)
 -->
<!-- Title: oneDegreeRelationshipsDiagram Pages: 1 -->
<svg width="672pt" height="181pt"
 viewBox="0.00 0.00 672.00 181.00" xmlns="http://www.w3.org/2000/svg" xmlns:xlink="http://www.w3.org/1999/xlink">
<g id="graph0" class="graph" transform="scale(1 1) rotate(0) translate(4 177)">
<title>oneDegreeRelationshipsDiagram</title>
<polygon fill="#ffffff" stroke="transparent" points="-4,4 -4,-177 668,-177 668,4 -4,4"/>
<text text-anchor="middle" x="79.5" y="-7.2" font-family="Helvetica,sans-Serif" font-size="11.00">Generated by SchemaSpy</text>
<!-- lookup_trees_less_4meter_origin -->
<g id="node1" class="node">
<title>lookup_trees_less_4meter_origin</title>
<g id="a_node1"><a xlink:href="../../tables/lookup_trees_less_4meter_origin.html" xlink:title="lookup_trees_less_4meter_origin" target="_top">
<polygon fill="#ffffff" stroke="transparent" points="8,-37 8,-169 656,-169 656,-37 8,-37"/>
<polygon fill="#f5f5f5" stroke="transparent" points="10,-145 10,-167 654,-167 654,-145 10,-145"/>
<polygon fill="none" stroke="black" points="10,-145 10,-167 654,-167 654,-145 10,-145"/>
<text text-anchor="start" x="15" y="-154.2" font-family="Helvetica,sans-Serif" font-weight="bold" font-size="11.00">lookup_trees_less_4meter_origin</text>
<text text-anchor="start" x="612" y="-153.2" font-family="Helvetica,sans-Serif" font-size="11.00">[table]</text>
<polygon fill="none" stroke="black" points="10,-123 10,-145 268,-145 268,-123 10,-123"/>
<text text-anchor="start" x="30" y="-131.2" font-family="Helvetica,sans-Serif" font-size="11.00">name_de</text>
<polygon fill="none" stroke="black" points="268,-123 268,-145 654,-145 654,-123 268,-123"/>
<text text-anchor="start" x="271" y="-131.2" font-family="Helvetica,sans-Serif" font-size="11.00">varchar[150]</text>
<polygon fill="none" stroke="black" points="10,-101 10,-123 268,-123 268,-101 10,-101"/>
<text text-anchor="start" x="30" y="-109.2" font-family="Helvetica,sans-Serif" font-size="11.00">name_en</text>
<polygon fill="none" stroke="black" points="268,-101 268,-123 654,-123 654,-101 268,-101"/>
<text text-anchor="start" x="271" y="-109.2" font-family="Helvetica,sans-Serif" font-size="11.00">varchar[150]</text>
<polygon fill="none" stroke="black" points="10,-79 10,-101 268,-101 268,-79 10,-79"/>
<text text-anchor="start" x="30" y="-87.2" font-family="Helvetica,sans-Serif" font-size="11.00">sort</text>
<polygon fill="none" stroke="black" points="268,-79 268,-101 654,-101 654,-79 268,-79"/>
<text text-anchor="start" x="271" y="-87.2" font-family="Helvetica,sans-Serif" font-size="11.00">int4[10]</text>
<polygon fill="#ffffff" stroke="transparent" points="10,-57 10,-79 268,-79 268,-57 10,-57"/>
<polygon fill="none" stroke="black" points="10,-57 10,-79 268,-79 268,-57 10,-57"/>
<text text-anchor="start" x="30" y="-65.2" font-family="Helvetica,sans-Serif" font-size="11.00">abbreviation</text>
<polygon fill="none" stroke="black" points="268,-57 268,-79 654,-79 654,-57 268,-57"/>
<text text-anchor="start" x="271" y="-65.2" font-family="Helvetica,sans-Serif" font-size="11.00">&quot;private_ci2027_001&quot;.&quot;enum_trees_less_4meter_origin&quot;[2147483647]</text>
<polygon fill="#ffffff" stroke="transparent" points="10,-39 10,-57 654,-57 654,-39 10,-39"/>
<polygon fill="none" stroke="black" points="10,-39 10,-57 654,-57 654,-39 10,-39"/>
<polygon fill="#ffffff" stroke="transparent" points="11,-40 11,-56 220,-56 220,-40 11,-40"/>
<text text-anchor="start" x="13" y="-45.2" font-family="Helvetica,sans-Serif" font-size="11.00">&lt; 0</text>
<polygon fill="#ffffff" stroke="transparent" points="220,-40 220,-56 445,-56 445,-40 220,-40"/>
<text text-anchor="start" x="314" y="-45.2" font-family="Helvetica,sans-Serif" font-size="11.00">0 rows</text>
<polygon fill="#ffffff" stroke="transparent" points="445,-40 445,-56 653,-56 653,-40 445,-40"/>
<text text-anchor="start" x="631" y="-45.2" font-family="Helvetica,sans-Serif" font-size="11.00">0 &gt;</text>
<polygon fill="black" stroke="black" points="220,-40 220,-56 220,-56 220,-40 220,-40"/>
<polygon fill="black" stroke="black" points="445,-40 445,-56 445,-56 445,-40 445,-40"/>
<polygon fill="none" stroke="black" stroke-width="2" points="9,-38 9,-168 655,-168 655,-38 9,-38"/>
</a>
</g>
</g>
</g>
</svg>
