<?xml version="1.0" encoding="UTF-8" standalone="no"?>
<!DOCTYPE svg PUBLIC "-//W3C//DTD SVG 1.1//EN"
 "http://www.w3.org/Graphics/SVG/1.1/DTD/svg11.dtd">
<!-- Generated by graphviz version 2.43.0 (0)
 -->
<!-- Title: oneDegreeRelationshipsDiagram Pages: 1 -->
<svg width="653pt" height="241pt"
 viewBox="0.00 0.00 653.00 241.00" xmlns="http://www.w3.org/2000/svg" xmlns:xlink="http://www.w3.org/1999/xlink">
<g id="graph0" class="graph" transform="scale(1 1) rotate(0) translate(4 237)">
<title>oneDegreeRelationshipsDiagram</title>
<polygon fill="#ffffff" stroke="transparent" points="-4,4 -4,-237 649,-237 649,4 -4,4"/>
<text text-anchor="middle" x="79.5" y="-7.2" font-family="Helvetica,sans-Serif" font-size="11.00">Generated by SchemaSpy</text>
<!-- edges -->
<g id="node1" class="node">
<title>edges</title>
<g id="a_node1"><a xlink:href="../../tables/edges.html" xlink:title="edges" target="_top">
<polygon fill="#ffffff" stroke="transparent" points="528,-37 528,-205 637,-205 637,-37 528,-37"/>
<polygon fill="#f5f5f5" stroke="transparent" points="528.5,-183 528.5,-205 637.5,-205 637.5,-183 528.5,-183"/>
<polygon fill="none" stroke="black" points="528.5,-183 528.5,-205 637.5,-205 637.5,-183 528.5,-183"/>
<text text-anchor="start" x="533.5" y="-192.2" font-family="Helvetica,sans-Serif" font-weight="bold" font-size="11.00">edges</text>
<text text-anchor="start" x="595.5" y="-191.2" font-family="Helvetica,sans-Serif" font-size="11.00">[table]</text>
<polygon fill="none" stroke="black" points="528.5,-161 528.5,-183 637.5,-183 637.5,-161 528.5,-161"/>
<image xlink:href="../../images/primaryKeys.png" width="11px" height="12px" preserveAspectRatio="xMinYMin meet" x="533.5" y="-178"/>
<text text-anchor="start" x="548.5" y="-169.2" font-family="Helvetica,sans-Serif" font-size="11.00">id</text>
<polygon fill="none" stroke="black" points="528.5,-139 528.5,-161 637.5,-161 637.5,-139 528.5,-139"/>
<image xlink:href="../../images/foreignKeys.png" width="11px" height="12px" preserveAspectRatio="xMinYMin meet" x="533.5" y="-156"/>
<text text-anchor="start" x="548.5" y="-147.2" font-family="Helvetica,sans-Serif" font-size="11.00">plot_id</text>
<polygon fill="none" stroke="black" points="528.5,-117 528.5,-139 637.5,-139 637.5,-117 528.5,-117"/>
<image xlink:href="../../images/foreignKeys.png" width="11px" height="12px" preserveAspectRatio="xMinYMin meet" x="533.5" y="-134"/>
<text text-anchor="start" x="548.5" y="-125.2" font-family="Helvetica,sans-Serif" font-size="11.00">edge_state</text>
<polygon fill="none" stroke="black" points="528.5,-95 528.5,-117 637.5,-117 637.5,-95 528.5,-95"/>
<image xlink:href="../../images/foreignKeys.png" width="11px" height="12px" preserveAspectRatio="xMinYMin meet" x="533.5" y="-112"/>
<text text-anchor="start" x="548.5" y="-103.2" font-family="Helvetica,sans-Serif" font-size="11.00">edge_type</text>
<polygon fill="none" stroke="black" points="528.5,-73 528.5,-95 637.5,-95 637.5,-73 528.5,-73"/>
<image xlink:href="../../images/foreignKeys.png" width="11px" height="12px" preserveAspectRatio="xMinYMin meet" x="533.5" y="-90"/>
<text text-anchor="start" x="548.5" y="-81.2" font-family="Helvetica,sans-Serif" font-size="11.00">terrain</text>
<polygon fill="none" stroke="black" points="528.5,-55 528.5,-73 637.5,-73 637.5,-55 528.5,-55"/>
<text text-anchor="start" x="531.5" y="-61.2" font-family="Helvetica,sans-Serif" font-size="11.00">...</text>
<polygon fill="#ffffff" stroke="transparent" points="528.5,-37 528.5,-55 637.5,-55 637.5,-37 528.5,-37"/>
<polygon fill="none" stroke="black" points="528.5,-37 528.5,-55 637.5,-55 637.5,-37 528.5,-37"/>
<polygon fill="#ffffff" stroke="transparent" points="529.5,-38 529.5,-54 563.5,-54 563.5,-38 529.5,-38"/>
<text text-anchor="start" x="531.5" y="-43.2" font-family="Helvetica,sans-Serif" font-size="11.00">&lt; 4</text>
<polygon fill="#ffffff" stroke="transparent" points="563.5,-38 563.5,-54 614.5,-54 614.5,-38 563.5,-38"/>
<text text-anchor="start" x="570.5" y="-43.2" font-family="Helvetica,sans-Serif" font-size="11.00">0 rows</text>
<polygon fill="#ffffff" stroke="transparent" points="614.5,-38 614.5,-54 636.5,-54 636.5,-38 614.5,-38"/>
<text text-anchor="start" x="626.5" y="-43.2" font-family="Helvetica,sans-Serif" font-size="11.00"> &#160;</text>
<polygon fill="black" stroke="black" points="563.5,-38 563.5,-54 563.5,-54 563.5,-38 563.5,-38"/>
<polygon fill="black" stroke="black" points="614.5,-38 614.5,-54 614.5,-54 614.5,-38 614.5,-38"/>
</a>
</g>
</g>
<!-- lookup_edge_state -->
<g id="node2" class="node">
<title>lookup_edge_state</title>
<g id="a_node2"><a xlink:href="../../tables/lookup_edge_state.html" xlink:title="lookup_edge_state" target="_top">
<polygon fill="#ffffff" stroke="transparent" points="8,-97 8,-229 479,-229 479,-97 8,-97"/>
<polygon fill="#f5f5f5" stroke="transparent" points="10.5,-205 10.5,-227 477.5,-227 477.5,-205 10.5,-205"/>
<polygon fill="none" stroke="black" points="10.5,-205 10.5,-227 477.5,-227 477.5,-205 10.5,-205"/>
<text text-anchor="start" x="15.5" y="-214.2" font-family="Helvetica,sans-Serif" font-weight="bold" font-size="11.00">lookup_edge_state</text>
<text text-anchor="start" x="435.5" y="-213.2" font-family="Helvetica,sans-Serif" font-size="11.00">[table]</text>
<polygon fill="none" stroke="black" points="10.5,-183 10.5,-205 167.5,-205 167.5,-183 10.5,-183"/>
<text text-anchor="start" x="30.5" y="-191.2" font-family="Helvetica,sans-Serif" font-size="11.00">name_de</text>
<polygon fill="none" stroke="black" points="167.5,-183 167.5,-205 477.5,-205 477.5,-183 167.5,-183"/>
<text text-anchor="start" x="170.5" y="-191.2" font-family="Helvetica,sans-Serif" font-size="11.00">varchar[150]</text>
<polygon fill="none" stroke="black" points="10.5,-161 10.5,-183 167.5,-183 167.5,-161 10.5,-161"/>
<text text-anchor="start" x="30.5" y="-169.2" font-family="Helvetica,sans-Serif" font-size="11.00">name_en</text>
<polygon fill="none" stroke="black" points="167.5,-161 167.5,-183 477.5,-183 477.5,-161 167.5,-161"/>
<text text-anchor="start" x="170.5" y="-169.2" font-family="Helvetica,sans-Serif" font-size="11.00">varchar[150]</text>
<polygon fill="none" stroke="black" points="10.5,-139 10.5,-161 167.5,-161 167.5,-139 10.5,-139"/>
<text text-anchor="start" x="30.5" y="-147.2" font-family="Helvetica,sans-Serif" font-size="11.00">sort</text>
<polygon fill="none" stroke="black" points="167.5,-139 167.5,-161 477.5,-161 477.5,-139 167.5,-139"/>
<text text-anchor="start" x="170.5" y="-147.2" font-family="Helvetica,sans-Serif" font-size="11.00">int4[10]</text>
<polygon fill="#ffffff" stroke="transparent" points="10.5,-117 10.5,-139 167.5,-139 167.5,-117 10.5,-117"/>
<polygon fill="none" stroke="black" points="10.5,-117 10.5,-139 167.5,-139 167.5,-117 10.5,-117"/>
<text text-anchor="start" x="30.5" y="-125.2" font-family="Helvetica,sans-Serif" font-size="11.00">abbreviation</text>
<polygon fill="none" stroke="black" points="167.5,-117 167.5,-139 477.5,-139 477.5,-117 167.5,-117"/>
<text text-anchor="start" x="170.5" y="-125.2" font-family="Helvetica,sans-Serif" font-size="11.00">&quot;private_ci2027_001&quot;.&quot;enum_edge_state&quot;[2147483647]</text>
<polygon fill="#ffffff" stroke="transparent" points="10.5,-99 10.5,-117 477.5,-117 477.5,-99 10.5,-99"/>
<polygon fill="none" stroke="black" points="10.5,-99 10.5,-117 477.5,-117 477.5,-99 10.5,-99"/>
<polygon fill="#ffffff" stroke="transparent" points="11.5,-100 11.5,-116 161.5,-116 161.5,-100 11.5,-100"/>
<text text-anchor="start" x="13.5" y="-105.2" font-family="Helvetica,sans-Serif" font-size="11.00">&lt; 0</text>
<polygon fill="#ffffff" stroke="transparent" points="161.5,-100 161.5,-116 327.5,-116 327.5,-100 161.5,-100"/>
<text text-anchor="start" x="226" y="-105.2" font-family="Helvetica,sans-Serif" font-size="11.00">0 rows</text>
<polygon fill="#ffffff" stroke="transparent" points="327.5,-100 327.5,-116 476.5,-116 476.5,-100 327.5,-100"/>
<text text-anchor="start" x="454.5" y="-105.2" font-family="Helvetica,sans-Serif" font-size="11.00">1 &gt;</text>
<polygon fill="black" stroke="black" points="161.5,-100 161.5,-116 161.5,-116 161.5,-100 161.5,-100"/>
<polygon fill="black" stroke="black" points="327.5,-100 327.5,-116 327.5,-116 327.5,-100 327.5,-100"/>
<polygon fill="none" stroke="black" stroke-width="2" points="9,-98 9,-228 478,-228 478,-98 9,-98"/>
</a>
</g>
</g>
<!-- edges&#45;&gt;lookup_edge_state -->
<g id="edge1" class="edge">
<title>edges:w&#45;&gt;lookup_edge_state:e</title>
<path fill="none" stroke="black" d="M512.99,-128C501.68,-128 494.49,-128 478.5,-128"/>
<polygon fill="black" stroke="black" points="519.5,-128 527.5,-131.6 523.5,-128 527.5,-128 527.5,-128 527.5,-128 523.5,-128 527.5,-124.4 519.5,-128 519.5,-128"/>
<ellipse fill="none" stroke="black" cx="516.3" cy="-128" rx="3.2" ry="3.2"/>
</g>
</g>
</svg>
