<?xml version="1.0" encoding="UTF-8" standalone="no"?>
<!DOCTYPE svg PUBLIC "-//W3C//DTD SVG 1.1//EN"
 "http://www.w3.org/Graphics/SVG/1.1/DTD/svg11.dtd">
<!-- Generated by graphviz version 2.43.0 (0)
 -->
<!-- Title: oneDegreeRelationshipsDiagram Pages: 1 -->
<svg width="940pt" height="503pt"
 viewBox="0.00 0.00 940.00 503.00" xmlns="http://www.w3.org/2000/svg" xmlns:xlink="http://www.w3.org/1999/xlink">
<g id="graph0" class="graph" transform="scale(1 1) rotate(0) translate(4 499)">
<title>oneDegreeRelationshipsDiagram</title>
<polygon fill="#ffffff" stroke="transparent" points="-4,4 -4,-499 936,-499 936,4 -4,4"/>
<text text-anchor="middle" x="79.5" y="-7.2" font-family="Helvetica,sans-Serif" font-size="11.00">Generated by SchemaSpy</text>
<!-- plot -->
<g id="node1" class="node">
<title>plot</title>
<g id="a_node1"><a xlink:href="../../tables/plot.html" xlink:title="plot" target="_top">
<polygon fill="#ffffff" stroke="transparent" points="636,-37 636,-491 924,-491 924,-37 636,-37"/>
<polygon fill="#f5f5f5" stroke="transparent" points="636,-469 636,-491 924,-491 924,-469 636,-469"/>
<polygon fill="none" stroke="black" points="636,-469 636,-491 924,-491 924,-469 636,-469"/>
<text text-anchor="start" x="640.5" y="-478.2" font-family="Helvetica,sans-Serif" font-weight="bold" font-size="11.00">plot</text>
<text text-anchor="start" x="882" y="-477.2" font-family="Helvetica,sans-Serif" font-size="11.00">[table]</text>
<polygon fill="none" stroke="black" points="636,-447 636,-469 924,-469 924,-447 636,-447"/>
<image xlink:href="../../images/primaryKeys.png" width="11px" height="12px" preserveAspectRatio="xMinYMin meet" x="641" y="-464"/>
<text text-anchor="start" x="656" y="-455.2" font-family="Helvetica,sans-Serif" font-size="11.00">id</text>
<polygon fill="#ffffff" stroke="transparent" points="636,-425 636,-447 924,-447 924,-425 636,-425"/>
<polygon fill="none" stroke="black" points="636,-425 636,-447 924,-447 924,-425 636,-425"/>
<image xlink:href="../../images/foreignKeys.png" width="11px" height="12px" preserveAspectRatio="xMinYMin meet" x="641" y="-442"/>
<text text-anchor="start" x="656" y="-433.2" font-family="Helvetica,sans-Serif" font-size="11.00">cluster_id</text>
<polygon fill="#ffffff" stroke="transparent" points="636,-403 636,-425 924,-425 924,-403 636,-403"/>
<polygon fill="none" stroke="black" points="636,-403 636,-425 924,-425 924,-403 636,-403"/>
<text text-anchor="start" x="656" y="-411.2" font-family="Helvetica,sans-Serif" font-size="11.00">plot_name</text>
<polygon fill="none" stroke="black" points="636,-381 636,-403 924,-403 924,-381 636,-381"/>
<image xlink:href="../../images/foreignKeys.png" width="11px" height="12px" preserveAspectRatio="xMinYMin meet" x="641" y="-398"/>
<text text-anchor="start" x="656" y="-389.2" font-family="Helvetica,sans-Serif" font-size="11.00">growth_district</text>
<polygon fill="none" stroke="black" points="636,-359 636,-381 924,-381 924,-359 636,-359"/>
<image xlink:href="../../images/foreignKeys.png" width="11px" height="12px" preserveAspectRatio="xMinYMin meet" x="641" y="-376"/>
<text text-anchor="start" x="656" y="-367.2" font-family="Helvetica,sans-Serif" font-size="11.00">forest_status</text>
<polygon fill="none" stroke="black" points="636,-337 636,-359 924,-359 924,-337 636,-337"/>
<image xlink:href="../../images/foreignKeys.png" width="11px" height="12px" preserveAspectRatio="xMinYMin meet" x="641" y="-354"/>
<text text-anchor="start" x="656" y="-345.2" font-family="Helvetica,sans-Serif" font-size="11.00">elevation_level</text>
<polygon fill="none" stroke="black" points="636,-315 636,-337 924,-337 924,-315 636,-315"/>
<image xlink:href="../../images/foreignKeys.png" width="11px" height="12px" preserveAspectRatio="xMinYMin meet" x="641" y="-332"/>
<text text-anchor="start" x="656" y="-323.2" font-family="Helvetica,sans-Serif" font-size="11.00">property_type</text>
<polygon fill="none" stroke="black" points="636,-293 636,-315 924,-315 924,-293 636,-293"/>
<image xlink:href="../../images/foreignKeys.png" width="11px" height="12px" preserveAspectRatio="xMinYMin meet" x="641" y="-310"/>
<text text-anchor="start" x="656" y="-301.2" font-family="Helvetica,sans-Serif" font-size="11.00">property_size_class</text>
<polygon fill="none" stroke="black" points="636,-271 636,-293 924,-293 924,-271 636,-271"/>
<image xlink:href="../../images/foreignKeys.png" width="11px" height="12px" preserveAspectRatio="xMinYMin meet" x="641" y="-288"/>
<text text-anchor="start" x="656" y="-279.2" font-family="Helvetica,sans-Serif" font-size="11.00">land_use_after</text>
<polygon fill="none" stroke="black" points="636,-249 636,-271 924,-271 924,-249 636,-249"/>
<image xlink:href="../../images/foreignKeys.png" width="11px" height="12px" preserveAspectRatio="xMinYMin meet" x="641" y="-266"/>
<text text-anchor="start" x="656" y="-257.2" font-family="Helvetica,sans-Serif" font-size="11.00">marker_status</text>
<polygon fill="none" stroke="black" points="636,-227 636,-249 924,-249 924,-227 636,-227"/>
<image xlink:href="../../images/foreignKeys.png" width="11px" height="12px" preserveAspectRatio="xMinYMin meet" x="641" y="-244"/>
<text text-anchor="start" x="656" y="-235.2" font-family="Helvetica,sans-Serif" font-size="11.00">marker_profile</text>
<polygon fill="none" stroke="black" points="636,-205 636,-227 924,-227 924,-205 636,-205"/>
<image xlink:href="../../images/foreignKeys.png" width="11px" height="12px" preserveAspectRatio="xMinYMin meet" x="641" y="-222"/>
<text text-anchor="start" x="656" y="-213.2" font-family="Helvetica,sans-Serif" font-size="11.00">terrain_form</text>
<polygon fill="none" stroke="black" points="636,-183 636,-205 924,-205 924,-183 636,-183"/>
<image xlink:href="../../images/foreignKeys.png" width="11px" height="12px" preserveAspectRatio="xMinYMin meet" x="641" y="-200"/>
<text text-anchor="start" x="656" y="-191.2" font-family="Helvetica,sans-Serif" font-size="11.00">management_type</text>
<polygon fill="none" stroke="black" points="636,-161 636,-183 924,-183 924,-161 636,-161"/>
<image xlink:href="../../images/foreignKeys.png" width="11px" height="12px" preserveAspectRatio="xMinYMin meet" x="641" y="-178"/>
<text text-anchor="start" x="656" y="-169.2" font-family="Helvetica,sans-Serif" font-size="11.00">harvesting_method</text>
<polygon fill="none" stroke="black" points="636,-139 636,-161 924,-161 924,-139 636,-139"/>
<image xlink:href="../../images/foreignKeys.png" width="11px" height="12px" preserveAspectRatio="xMinYMin meet" x="641" y="-156"/>
<text text-anchor="start" x="656" y="-147.2" font-family="Helvetica,sans-Serif" font-size="11.00">stand_structure</text>
<polygon fill="none" stroke="black" points="636,-117 636,-139 924,-139 924,-117 636,-117"/>
<image xlink:href="../../images/foreignKeys.png" width="11px" height="12px" preserveAspectRatio="xMinYMin meet" x="641" y="-134"/>
<text text-anchor="start" x="656" y="-125.2" font-family="Helvetica,sans-Serif" font-size="11.00">stand_dev_phase</text>
<polygon fill="none" stroke="black" points="636,-95 636,-117 924,-117 924,-95 636,-95"/>
<image xlink:href="../../images/foreignKeys.png" width="11px" height="12px" preserveAspectRatio="xMinYMin meet" x="641" y="-112"/>
<text text-anchor="start" x="656" y="-103.2" font-family="Helvetica,sans-Serif" font-size="11.00">stand_layer_reg</text>
<polygon fill="none" stroke="black" points="636,-73 636,-95 924,-95 924,-73 636,-73"/>
<image xlink:href="../../images/foreignKeys.png" width="11px" height="12px" preserveAspectRatio="xMinYMin meet" x="641" y="-90"/>
<text text-anchor="start" x="656" y="-81.2" font-family="Helvetica,sans-Serif" font-size="11.00">trees_less_4meter_mirrored</text>
<polygon fill="none" stroke="black" points="636,-55 636,-73 924,-73 924,-55 636,-55"/>
<text text-anchor="start" x="639" y="-61.2" font-family="Helvetica,sans-Serif" font-size="11.00">...</text>
<polygon fill="#ffffff" stroke="transparent" points="636,-37 636,-55 924,-55 924,-37 636,-37"/>
<polygon fill="none" stroke="black" points="636,-37 636,-55 924,-55 924,-37 636,-37"/>
<polygon fill="#ffffff" stroke="transparent" points="637,-38 637,-54 732,-54 732,-38 637,-38"/>
<text text-anchor="start" x="639" y="-43.2" font-family="Helvetica,sans-Serif" font-size="11.00">&lt; 16</text>
<polygon fill="#ffffff" stroke="transparent" points="732,-38 732,-54 836,-54 836,-38 732,-38"/>
<text text-anchor="start" x="765.5" y="-43.2" font-family="Helvetica,sans-Serif" font-size="11.00">0 rows</text>
<polygon fill="#ffffff" stroke="transparent" points="836,-38 836,-54 923,-54 923,-38 836,-38"/>
<text text-anchor="start" x="901" y="-43.2" font-family="Helvetica,sans-Serif" font-size="11.00">7 &gt;</text>
<polygon fill="black" stroke="black" points="732,-38 732,-54 732,-54 732,-38 732,-38"/>
<polygon fill="black" stroke="black" points="836,-38 836,-54 836,-54 836,-38 836,-38"/>
</a>
</g>
</g>
<!-- lookup_property_size_class -->
<g id="node2" class="node">
<title>lookup_property_size_class</title>
<g id="a_node2"><a xlink:href="../../tables/lookup_property_size_class.html" xlink:title="lookup_property_size_class" target="_top">
<polygon fill="#ffffff" stroke="transparent" points="8,-273 8,-427 587,-427 587,-273 8,-273"/>
<polygon fill="#f5f5f5" stroke="transparent" points="10.5,-403 10.5,-425 585.5,-425 585.5,-403 10.5,-403"/>
<polygon fill="none" stroke="black" points="10.5,-403 10.5,-425 585.5,-425 585.5,-403 10.5,-403"/>
<text text-anchor="start" x="15.5" y="-412.2" font-family="Helvetica,sans-Serif" font-weight="bold" font-size="11.00">lookup_property_size_class</text>
<text text-anchor="start" x="543.5" y="-411.2" font-family="Helvetica,sans-Serif" font-size="11.00">[table]</text>
<polygon fill="none" stroke="black" points="10.5,-381 10.5,-403 228.5,-403 228.5,-381 10.5,-381"/>
<text text-anchor="start" x="30.5" y="-389.2" font-family="Helvetica,sans-Serif" font-size="11.00">name_de</text>
<polygon fill="none" stroke="black" points="228.5,-381 228.5,-403 585.5,-403 585.5,-381 228.5,-381"/>
<text text-anchor="start" x="231.5" y="-389.2" font-family="Helvetica,sans-Serif" font-size="11.00">varchar[150]</text>
<polygon fill="none" stroke="black" points="10.5,-359 10.5,-381 228.5,-381 228.5,-359 10.5,-359"/>
<text text-anchor="start" x="30.5" y="-367.2" font-family="Helvetica,sans-Serif" font-size="11.00">name_en</text>
<polygon fill="none" stroke="black" points="228.5,-359 228.5,-381 585.5,-381 585.5,-359 228.5,-359"/>
<text text-anchor="start" x="231.5" y="-367.2" font-family="Helvetica,sans-Serif" font-size="11.00">varchar[150]</text>
<polygon fill="none" stroke="black" points="10.5,-337 10.5,-359 228.5,-359 228.5,-337 10.5,-337"/>
<text text-anchor="start" x="30.5" y="-345.2" font-family="Helvetica,sans-Serif" font-size="11.00">interval</text>
<polygon fill="none" stroke="black" points="228.5,-337 228.5,-359 585.5,-359 585.5,-337 228.5,-337"/>
<text text-anchor="start" x="231.5" y="-345.2" font-family="Helvetica,sans-Serif" font-size="11.00">&quot;private_ci2027_001&quot;.&quot;_enum_interval_name&quot;[2147483647]</text>
<polygon fill="none" stroke="black" points="10.5,-315 10.5,-337 228.5,-337 228.5,-315 10.5,-315"/>
<text text-anchor="start" x="30.5" y="-323.2" font-family="Helvetica,sans-Serif" font-size="11.00">sort</text>
<polygon fill="none" stroke="black" points="228.5,-315 228.5,-337 585.5,-337 585.5,-315 228.5,-315"/>
<text text-anchor="start" x="231.5" y="-323.2" font-family="Helvetica,sans-Serif" font-size="11.00">int4[10]</text>
<polygon fill="#ffffff" stroke="transparent" points="10.5,-293 10.5,-315 228.5,-315 228.5,-293 10.5,-293"/>
<polygon fill="none" stroke="black" points="10.5,-293 10.5,-315 228.5,-315 228.5,-293 10.5,-293"/>
<text text-anchor="start" x="30.5" y="-301.2" font-family="Helvetica,sans-Serif" font-size="11.00">abbreviation</text>
<polygon fill="none" stroke="black" points="228.5,-293 228.5,-315 585.5,-315 585.5,-293 228.5,-293"/>
<text text-anchor="start" x="231.5" y="-301.2" font-family="Helvetica,sans-Serif" font-size="11.00">&quot;private_ci2027_001&quot;.&quot;enum_property_size_class&quot;[2147483647]</text>
<polygon fill="#ffffff" stroke="transparent" points="10.5,-275 10.5,-293 585.5,-293 585.5,-275 10.5,-275"/>
<polygon fill="none" stroke="black" points="10.5,-275 10.5,-293 585.5,-293 585.5,-275 10.5,-275"/>
<polygon fill="#ffffff" stroke="transparent" points="11.5,-276 11.5,-292 197.5,-292 197.5,-276 11.5,-276"/>
<text text-anchor="start" x="13.5" y="-281.2" font-family="Helvetica,sans-Serif" font-size="11.00">&lt; 0</text>
<polygon fill="#ffffff" stroke="transparent" points="197.5,-276 197.5,-292 399.5,-292 399.5,-276 197.5,-276"/>
<text text-anchor="start" x="280" y="-281.2" font-family="Helvetica,sans-Serif" font-size="11.00">0 rows</text>
<polygon fill="#ffffff" stroke="transparent" points="399.5,-276 399.5,-292 584.5,-292 584.5,-276 399.5,-276"/>
<text text-anchor="start" x="562.5" y="-281.2" font-family="Helvetica,sans-Serif" font-size="11.00">1 &gt;</text>
<polygon fill="black" stroke="black" points="197.5,-276 197.5,-292 197.5,-292 197.5,-276 197.5,-276"/>
<polygon fill="black" stroke="black" points="399.5,-276 399.5,-292 399.5,-292 399.5,-276 399.5,-276"/>
<polygon fill="none" stroke="black" stroke-width="2" points="9,-274 9,-426 586,-426 586,-274 9,-274"/>
</a>
</g>
</g>
<!-- plot&#45;&gt;lookup_property_size_class -->
<g id="edge1" class="edge">
<title>plot:w&#45;&gt;lookup_property_size_class:e</title>
<path fill="none" stroke="black" d="M620.28,-304C609.29,-304 602.16,-304 586.5,-304"/>
<polygon fill="black" stroke="black" points="627,-304 635,-307.6 631,-304 635,-304 635,-304 635,-304 631,-304 635,-300.4 627,-304 627,-304"/>
<ellipse fill="none" stroke="black" cx="623.8" cy="-304" rx="3.2" ry="3.2"/>
</g>
</g>
</svg>
