<?xml version="1.0" encoding="UTF-8" standalone="no"?>
<!DOCTYPE svg PUBLIC "-//W3C//DTD SVG 1.1//EN"
 "http://www.w3.org/Graphics/SVG/1.1/DTD/svg11.dtd">
<!-- Generated by graphviz version 2.43.0 (0)
 -->
<!-- Title: twoDegreesRelationshipsDiagram Pages: 1 -->
<svg width="923pt" height="489pt"
 viewBox="0.00 0.00 923.00 489.10" xmlns="http://www.w3.org/2000/svg" xmlns:xlink="http://www.w3.org/1999/xlink">
<g id="graph0" class="graph" transform="scale(1 1) rotate(0) translate(4 485.1)">
<title>twoDegreesRelationshipsDiagram</title>
<polygon fill="#ffffff" stroke="transparent" points="-4,4 -4,-485.1 919,-485.1 919,4 -4,4"/>
<text text-anchor="middle" x="79.5" y="-7.2" font-family="Helvetica,sans-Serif" font-size="11.00">Generated by SchemaSpy</text>
<!-- plot_location -->
<g id="node1" class="node">
<title>plot_location</title>
<g id="a_node1"><a xlink:href="../../tables/plot_location.html" xlink:title="plot_location" target="_top">
<polygon fill="#ffffff" stroke="transparent" points="352,-348 352,-406 493,-406 493,-348 352,-348"/>
<polygon fill="#f5f5f5" stroke="transparent" points="352.5,-384 352.5,-406 493.5,-406 493.5,-384 352.5,-384"/>
<polygon fill="none" stroke="black" points="352.5,-384 352.5,-406 493.5,-406 493.5,-384 352.5,-384"/>
<text text-anchor="start" x="357.5" y="-393.2" font-family="Helvetica,sans-Serif" font-weight="bold" font-size="11.00">plot_location</text>
<text text-anchor="start" x="451.5" y="-392.2" font-family="Helvetica,sans-Serif" font-size="11.00">[table]</text>
<polygon fill="none" stroke="black" points="352.5,-366 352.5,-384 493.5,-384 493.5,-366 352.5,-366"/>
<text text-anchor="start" x="355.5" y="-372.2" font-family="Helvetica,sans-Serif" font-size="11.00">...</text>
<polygon fill="#ffffff" stroke="transparent" points="352.5,-348 352.5,-366 493.5,-366 493.5,-348 352.5,-348"/>
<polygon fill="none" stroke="black" points="352.5,-348 352.5,-366 493.5,-366 493.5,-348 352.5,-348"/>
<polygon fill="#ffffff" stroke="transparent" points="353.5,-349 353.5,-365 389.5,-365 389.5,-349 353.5,-349"/>
<text text-anchor="start" x="355.5" y="-354.2" font-family="Helvetica,sans-Serif" font-size="11.00">&lt; 1</text>
<polygon fill="#ffffff" stroke="transparent" points="389.5,-349 389.5,-365 456.5,-365 456.5,-349 389.5,-349"/>
<text text-anchor="start" x="397.5" y="-354.2" font-family="Helvetica,sans-Serif" font-size="11.00">406 rows</text>
<polygon fill="#ffffff" stroke="transparent" points="456.5,-349 456.5,-365 492.5,-365 492.5,-349 456.5,-349"/>
<text text-anchor="start" x="470.5" y="-354.2" font-family="Helvetica,sans-Serif" font-size="11.00">3 &gt;</text>
<polygon fill="black" stroke="black" points="389.5,-349 389.5,-365 389.5,-365 389.5,-349 389.5,-349"/>
<polygon fill="black" stroke="black" points="456.5,-349 456.5,-365 456.5,-365 456.5,-349 456.5,-349"/>
</a>
</g>
</g>
<!-- plot -->
<g id="node2" class="node">
<title>plot</title>
<g id="a_node2"><a xlink:href="../../tables/plot.html" xlink:title="plot" target="_top">
<polygon fill="#ffffff" stroke="transparent" points="8,-375 8,-433 113,-433 113,-375 8,-375"/>
<polygon fill="#f5f5f5" stroke="transparent" points="8.5,-411 8.5,-433 113.5,-433 113.5,-411 8.5,-411"/>
<polygon fill="none" stroke="black" points="8.5,-411 8.5,-433 113.5,-433 113.5,-411 8.5,-411"/>
<text text-anchor="start" x="13" y="-420.2" font-family="Helvetica,sans-Serif" font-weight="bold" font-size="11.00">plot</text>
<text text-anchor="start" x="71.5" y="-419.2" font-family="Helvetica,sans-Serif" font-size="11.00">[table]</text>
<polygon fill="none" stroke="black" points="8.5,-393 8.5,-411 113.5,-411 113.5,-393 8.5,-393"/>
<text text-anchor="start" x="11.5" y="-399.2" font-family="Helvetica,sans-Serif" font-size="11.00">...</text>
<polygon fill="#ffffff" stroke="transparent" points="8.5,-375 8.5,-393 113.5,-393 113.5,-375 8.5,-375"/>
<polygon fill="none" stroke="black" points="8.5,-375 8.5,-393 113.5,-393 113.5,-375 8.5,-375"/>
<polygon fill="#ffffff" stroke="transparent" points="9.5,-376 9.5,-392 40.5,-392 40.5,-376 9.5,-376"/>
<text text-anchor="start" x="11.5" y="-381.2" font-family="Helvetica,sans-Serif" font-size="11.00">&lt; 24</text>
<polygon fill="#ffffff" stroke="transparent" points="40.5,-376 40.5,-392 88.5,-392 88.5,-376 40.5,-376"/>
<text text-anchor="start" x="42.5" y="-381.2" font-family="Helvetica,sans-Serif" font-size="11.00">82 rows</text>
<polygon fill="#ffffff" stroke="transparent" points="88.5,-376 88.5,-392 112.5,-392 112.5,-376 88.5,-376"/>
<text text-anchor="start" x="90.5" y="-381.2" font-family="Helvetica,sans-Serif" font-size="11.00">7 &gt;</text>
<polygon fill="black" stroke="black" points="40.5,-376 40.5,-392 40.5,-392 40.5,-376 40.5,-376"/>
<polygon fill="black" stroke="black" points="88.5,-376 88.5,-392 88.5,-392 88.5,-376 88.5,-376"/>
</a>
</g>
</g>
<!-- plot_location&#45;&gt;plot -->
<g id="edge1" class="edge">
<title>plot_location:w&#45;&gt;plot:e</title>
<path fill="none" stroke="black" d="M336.82,-375.18C242.91,-377.52 215.44,-402 114.5,-402"/>
<polygon fill="black" stroke="black" points="343.5,-375.1 351.54,-378.6 347.5,-375.05 351.5,-375 351.5,-375 351.5,-375 347.5,-375.05 351.46,-371.4 343.5,-375.1 343.5,-375.1"/>
<ellipse fill="none" stroke="black" cx="340.3" cy="-375.14" rx="3.2" ry="3.2"/>
</g>
<!-- sapling_2m -->
<g id="node3" class="node">
<title>sapling_2m</title>
<g id="a_node3"><a xlink:href="../../tables/sapling_2m.html" xlink:title="sapling_2m" target="_top">
<polygon fill="#ffffff" stroke="transparent" points="732,-205 732,-395 907,-395 907,-205 732,-205"/>
<polygon fill="#f5f5f5" stroke="transparent" points="732.5,-373 732.5,-395 907.5,-395 907.5,-373 732.5,-373"/>
<polygon fill="none" stroke="black" points="732.5,-373 732.5,-395 907.5,-395 907.5,-373 732.5,-373"/>
<text text-anchor="start" x="737.5" y="-382.2" font-family="Helvetica,sans-Serif" font-weight="bold" font-size="11.00">sapling_2m</text>
<text text-anchor="start" x="865.5" y="-381.2" font-family="Helvetica,sans-Serif" font-size="11.00">[table]</text>
<polygon fill="none" stroke="black" points="732.5,-351 732.5,-373 907.5,-373 907.5,-351 732.5,-351"/>
<image xlink:href="../../images/primaryKeys.png" width="11px" height="12px" preserveAspectRatio="xMinYMin meet" x="737.5" y="-368"/>
<text text-anchor="start" x="752.5" y="-359.2" font-family="Helvetica,sans-Serif" font-size="11.00">id</text>
<polygon fill="none" stroke="black" points="732.5,-329 732.5,-351 907.5,-351 907.5,-329 732.5,-329"/>
<image xlink:href="../../images/foreignKeys.png" width="11px" height="12px" preserveAspectRatio="xMinYMin meet" x="737.5" y="-346"/>
<text text-anchor="start" x="752.5" y="-337.2" font-family="Helvetica,sans-Serif" font-size="11.00">plot_id</text>
<polygon fill="none" stroke="black" points="732.5,-307 732.5,-329 907.5,-329 907.5,-307 732.5,-307"/>
<image xlink:href="../../images/foreignKeys.png" width="11px" height="12px" preserveAspectRatio="xMinYMin meet" x="737.5" y="-324"/>
<text text-anchor="start" x="752.5" y="-315.2" font-family="Helvetica,sans-Serif" font-size="11.00">plot_location_id</text>
<polygon fill="none" stroke="black" points="732.5,-285 732.5,-307 907.5,-307 907.5,-285 732.5,-285"/>
<image xlink:href="../../images/foreignKeys.png" width="11px" height="12px" preserveAspectRatio="xMinYMin meet" x="737.5" y="-302"/>
<text text-anchor="start" x="752.5" y="-293.2" font-family="Helvetica,sans-Serif" font-size="11.00">tree_species</text>
<polygon fill="none" stroke="black" points="732.5,-263 732.5,-285 907.5,-285 907.5,-263 732.5,-263"/>
<image xlink:href="../../images/foreignKeys.png" width="11px" height="12px" preserveAspectRatio="xMinYMin meet" x="737.5" y="-280"/>
<text text-anchor="start" x="752.5" y="-271.2" font-family="Helvetica,sans-Serif" font-size="11.00">bitten</text>
<polygon fill="none" stroke="black" points="732.5,-241 732.5,-263 907.5,-263 907.5,-241 732.5,-241"/>
<image xlink:href="../../images/foreignKeys.png" width="11px" height="12px" preserveAspectRatio="xMinYMin meet" x="737.5" y="-258"/>
<text text-anchor="start" x="752.5" y="-249.2" font-family="Helvetica,sans-Serif" font-size="11.00">tree_size_class</text>
<polygon fill="none" stroke="black" points="732.5,-223 732.5,-241 907.5,-241 907.5,-223 732.5,-223"/>
<text text-anchor="start" x="735.5" y="-229.2" font-family="Helvetica,sans-Serif" font-size="11.00">...</text>
<polygon fill="#ffffff" stroke="transparent" points="732.5,-205 732.5,-223 907.5,-223 907.5,-205 732.5,-205"/>
<polygon fill="none" stroke="black" points="732.5,-205 732.5,-223 907.5,-223 907.5,-205 732.5,-205"/>
<polygon fill="#ffffff" stroke="transparent" points="733.5,-206 733.5,-222 789.5,-222 789.5,-206 733.5,-206"/>
<text text-anchor="start" x="735.5" y="-211.2" font-family="Helvetica,sans-Serif" font-size="11.00">&lt; 5</text>
<polygon fill="#ffffff" stroke="transparent" points="789.5,-206 789.5,-222 862.5,-222 862.5,-206 789.5,-206"/>
<text text-anchor="start" x="807.5" y="-211.2" font-family="Helvetica,sans-Serif" font-size="11.00">0 rows</text>
<polygon fill="#ffffff" stroke="transparent" points="862.5,-206 862.5,-222 906.5,-222 906.5,-206 862.5,-206"/>
<text text-anchor="start" x="896.5" y="-211.2" font-family="Helvetica,sans-Serif" font-size="11.00"> &#160;</text>
<polygon fill="black" stroke="black" points="789.5,-206 789.5,-222 789.5,-222 789.5,-206 789.5,-206"/>
<polygon fill="black" stroke="black" points="862.5,-206 862.5,-222 862.5,-222 862.5,-206 862.5,-206"/>
</a>
</g>
</g>
<!-- sapling_2m&#45;&gt;plot_location -->
<g id="edge4" class="edge">
<title>sapling_2m:w&#45;&gt;plot_location:e</title>
<path fill="none" stroke="black" d="M717.39,-321.02C708.98,-325.21 704.14,-332.72 691,-337 606.42,-364.55 583.45,-375 494.5,-375"/>
<polygon fill="black" stroke="black" points="723.68,-319.68 732.25,-321.52 727.59,-318.84 731.5,-318 731.5,-318 731.5,-318 727.59,-318.84 730.75,-314.48 723.68,-319.68 723.68,-319.68"/>
<ellipse fill="none" stroke="black" cx="720.55" cy="-320.35" rx="3.2" ry="3.2"/>
</g>
<!-- sapling_2m&#45;&gt;plot -->
<g id="edge3" class="edge">
<title>sapling_2m:w&#45;&gt;plot:e</title>
<path fill="none" stroke="black" d="M717.64,-344.14C701.56,-357.49 718.43,-399.53 691,-416 486.37,-538.83 389.21,-456.45 154,-416 135.64,-412.84 133.13,-402 114.5,-402"/>
<polygon fill="black" stroke="black" points="723.83,-342.29 732.53,-343.45 727.67,-341.14 731.5,-340 731.5,-340 731.5,-340 727.67,-341.14 730.47,-336.55 723.83,-342.29 723.83,-342.29"/>
<ellipse fill="none" stroke="black" cx="720.77" cy="-343.2" rx="3.2" ry="3.2"/>
</g>
<!-- lookup_bitten -->
<g id="node4" class="node">
<title>lookup_bitten</title>
<g id="a_node4"><a xlink:href="../../tables/lookup_bitten.html" xlink:title="lookup_bitten" target="_top">
<polygon fill="#ffffff" stroke="transparent" points="349,-190 349,-248 496,-248 496,-190 349,-190"/>
<polygon fill="#f5f5f5" stroke="transparent" points="349.5,-226 349.5,-248 496.5,-248 496.5,-226 349.5,-226"/>
<polygon fill="none" stroke="black" points="349.5,-226 349.5,-248 496.5,-248 496.5,-226 349.5,-226"/>
<text text-anchor="start" x="354.5" y="-235.2" font-family="Helvetica,sans-Serif" font-weight="bold" font-size="11.00">lookup_bitten</text>
<text text-anchor="start" x="454.5" y="-234.2" font-family="Helvetica,sans-Serif" font-size="11.00">[table]</text>
<polygon fill="none" stroke="black" points="349.5,-208 349.5,-226 496.5,-226 496.5,-208 349.5,-208"/>
<text text-anchor="start" x="352.5" y="-214.2" font-family="Helvetica,sans-Serif" font-size="11.00">...</text>
<polygon fill="#ffffff" stroke="transparent" points="349.5,-190 349.5,-208 496.5,-208 496.5,-190 349.5,-190"/>
<polygon fill="none" stroke="black" points="349.5,-190 349.5,-208 496.5,-208 496.5,-190 349.5,-190"/>
<polygon fill="#ffffff" stroke="transparent" points="350.5,-191 350.5,-207 385.5,-207 385.5,-191 350.5,-191"/>
<text text-anchor="start" x="352.5" y="-196.2" font-family="Helvetica,sans-Serif" font-size="11.00"> &#160;</text>
<polygon fill="#ffffff" stroke="transparent" points="385.5,-191 385.5,-207 449.5,-207 449.5,-191 385.5,-191"/>
<text text-anchor="start" x="399" y="-196.2" font-family="Helvetica,sans-Serif" font-size="11.00">0 rows</text>
<polygon fill="#ffffff" stroke="transparent" points="449.5,-191 449.5,-207 495.5,-207 495.5,-191 449.5,-191"/>
<text text-anchor="start" x="473.5" y="-196.2" font-family="Helvetica,sans-Serif" font-size="11.00">2 &gt;</text>
<polygon fill="black" stroke="black" points="385.5,-191 385.5,-207 385.5,-207 385.5,-191 385.5,-191"/>
<polygon fill="black" stroke="black" points="449.5,-191 449.5,-207 449.5,-207 449.5,-191 449.5,-191"/>
</a>
</g>
</g>
<!-- sapling_2m&#45;&gt;lookup_bitten -->
<g id="edge2" class="edge">
<title>sapling_2m:w&#45;&gt;lookup_bitten:e</title>
<path fill="none" stroke="black" d="M717.26,-271.41C708.96,-267.96 703.74,-261.84 691,-258 606.83,-232.65 585.41,-217 497.5,-217"/>
<polygon fill="black" stroke="black" points="723.63,-272.57 730.86,-277.54 727.56,-273.28 731.5,-274 731.5,-274 731.5,-274 727.56,-273.28 732.14,-270.46 723.63,-272.57 723.63,-272.57"/>
<ellipse fill="none" stroke="black" cx="720.48" cy="-272" rx="3.2" ry="3.2"/>
</g>
<!-- lookup_tree_size_class -->
<g id="node5" class="node">
<title>lookup_tree_size_class</title>
<g id="a_node5"><a xlink:href="../../tables/lookup_tree_size_class.html" xlink:title="lookup_tree_size_class" target="_top">
<polygon fill="#ffffff" stroke="transparent" points="162,-37 162,-169 683,-169 683,-37 162,-37"/>
<polygon fill="#f5f5f5" stroke="transparent" points="164.5,-145 164.5,-167 681.5,-167 681.5,-145 164.5,-145"/>
<polygon fill="none" stroke="black" points="164.5,-145 164.5,-167 681.5,-167 681.5,-145 164.5,-145"/>
<text text-anchor="start" x="169.5" y="-154.2" font-family="Helvetica,sans-Serif" font-weight="bold" font-size="11.00">lookup_tree_size_class</text>
<text text-anchor="start" x="639.5" y="-153.2" font-family="Helvetica,sans-Serif" font-size="11.00">[table]</text>
<polygon fill="none" stroke="black" points="164.5,-123 164.5,-145 349.5,-145 349.5,-123 164.5,-123"/>
<text text-anchor="start" x="184.5" y="-131.2" font-family="Helvetica,sans-Serif" font-size="11.00">name_de</text>
<polygon fill="none" stroke="black" points="349.5,-123 349.5,-145 681.5,-145 681.5,-123 349.5,-123"/>
<text text-anchor="start" x="352.5" y="-131.2" font-family="Helvetica,sans-Serif" font-size="11.00">varchar[150]</text>
<polygon fill="none" stroke="black" points="164.5,-101 164.5,-123 349.5,-123 349.5,-101 164.5,-101"/>
<text text-anchor="start" x="184.5" y="-109.2" font-family="Helvetica,sans-Serif" font-size="11.00">name_en</text>
<polygon fill="none" stroke="black" points="349.5,-101 349.5,-123 681.5,-123 681.5,-101 349.5,-101"/>
<text text-anchor="start" x="352.5" y="-109.2" font-family="Helvetica,sans-Serif" font-size="11.00">varchar[150]</text>
<polygon fill="none" stroke="black" points="164.5,-79 164.5,-101 349.5,-101 349.5,-79 164.5,-79"/>
<text text-anchor="start" x="184.5" y="-87.2" font-family="Helvetica,sans-Serif" font-size="11.00">sort</text>
<polygon fill="none" stroke="black" points="349.5,-79 349.5,-101 681.5,-101 681.5,-79 349.5,-79"/>
<text text-anchor="start" x="352.5" y="-87.2" font-family="Helvetica,sans-Serif" font-size="11.00">int4[10]</text>
<polygon fill="#ffffff" stroke="transparent" points="164.5,-57 164.5,-79 349.5,-79 349.5,-57 164.5,-57"/>
<polygon fill="none" stroke="black" points="164.5,-57 164.5,-79 349.5,-79 349.5,-57 164.5,-57"/>
<text text-anchor="start" x="184.5" y="-65.2" font-family="Helvetica,sans-Serif" font-size="11.00">abbreviation</text>
<polygon fill="none" stroke="black" points="349.5,-57 349.5,-79 681.5,-79 681.5,-57 349.5,-57"/>
<text text-anchor="start" x="352.5" y="-65.2" font-family="Helvetica,sans-Serif" font-size="11.00">&quot;private_ci2027_001&quot;.&quot;enum_tree_size_class&quot;[2147483647]</text>
<polygon fill="#ffffff" stroke="transparent" points="164.5,-39 164.5,-57 681.5,-57 681.5,-39 164.5,-39"/>
<polygon fill="none" stroke="black" points="164.5,-39 164.5,-57 681.5,-57 681.5,-39 164.5,-39"/>
<polygon fill="#ffffff" stroke="transparent" points="165.5,-40 165.5,-56 331.5,-56 331.5,-40 165.5,-40"/>
<text text-anchor="start" x="167.5" y="-45.2" font-family="Helvetica,sans-Serif" font-size="11.00">&lt; 0</text>
<polygon fill="#ffffff" stroke="transparent" points="331.5,-40 331.5,-56 514.5,-56 514.5,-40 331.5,-40"/>
<text text-anchor="start" x="404.5" y="-45.2" font-family="Helvetica,sans-Serif" font-size="11.00">0 rows</text>
<polygon fill="#ffffff" stroke="transparent" points="514.5,-40 514.5,-56 680.5,-56 680.5,-40 514.5,-40"/>
<text text-anchor="start" x="658.5" y="-45.2" font-family="Helvetica,sans-Serif" font-size="11.00">1 &gt;</text>
<polygon fill="black" stroke="black" points="331.5,-40 331.5,-56 331.5,-56 331.5,-40 331.5,-40"/>
<polygon fill="black" stroke="black" points="514.5,-40 514.5,-56 514.5,-56 514.5,-40 514.5,-40"/>
<polygon fill="none" stroke="black" stroke-width="2" points="163,-38 163,-168 682,-168 682,-38 163,-38"/>
</a>
</g>
</g>
<!-- sapling_2m&#45;&gt;lookup_tree_size_class -->
<g id="edge5" class="edge">
<title>sapling_2m:w&#45;&gt;lookup_tree_size_class:e</title>
<path fill="none" stroke="black" d="M717.23,-249.67C661.94,-228.37 761.51,-68 682.5,-68"/>
<polygon fill="black" stroke="black" points="723.6,-250.71 730.92,-255.55 727.55,-251.36 731.5,-252 731.5,-252 731.5,-252 727.55,-251.36 732.08,-248.45 723.6,-250.71 723.6,-250.71"/>
<ellipse fill="none" stroke="black" cx="720.45" cy="-250.2" rx="3.2" ry="3.2"/>
</g>
<!-- lookup_tree_species -->
<g id="node6" class="node">
<title>lookup_tree_species</title>
<g id="a_node6"><a xlink:href="../../tables/lookup_tree_species.html" xlink:title="lookup_tree_species" target="_top">
<polygon fill="#ffffff" stroke="transparent" points="325.5,-269 325.5,-327 519.5,-327 519.5,-269 325.5,-269"/>
<polygon fill="#f5f5f5" stroke="transparent" points="325.5,-305 325.5,-327 519.5,-327 519.5,-305 325.5,-305"/>
<polygon fill="none" stroke="black" points="325.5,-305 325.5,-327 519.5,-327 519.5,-305 325.5,-305"/>
<text text-anchor="start" x="330.5" y="-314.2" font-family="Helvetica,sans-Serif" font-weight="bold" font-size="11.00">lookup_tree_species</text>
<text text-anchor="start" x="477.5" y="-313.2" font-family="Helvetica,sans-Serif" font-size="11.00">[table]</text>
<polygon fill="none" stroke="black" points="325.5,-287 325.5,-305 519.5,-305 519.5,-287 325.5,-287"/>
<text text-anchor="start" x="328.5" y="-293.2" font-family="Helvetica,sans-Serif" font-size="11.00">...</text>
<polygon fill="#ffffff" stroke="transparent" points="325.5,-269 325.5,-287 519.5,-287 519.5,-269 325.5,-269"/>
<polygon fill="none" stroke="black" points="325.5,-269 325.5,-287 519.5,-287 519.5,-269 325.5,-269"/>
<polygon fill="#ffffff" stroke="transparent" points="326.5,-270 326.5,-286 372.5,-286 372.5,-270 326.5,-270"/>
<text text-anchor="start" x="328.5" y="-275.2" font-family="Helvetica,sans-Serif" font-size="11.00"> &#160;</text>
<polygon fill="#ffffff" stroke="transparent" points="372.5,-270 372.5,-286 461.5,-286 461.5,-270 372.5,-270"/>
<text text-anchor="start" x="391.5" y="-275.2" font-family="Helvetica,sans-Serif" font-size="11.00">125 rows</text>
<polygon fill="#ffffff" stroke="transparent" points="461.5,-270 461.5,-286 518.5,-286 518.5,-270 461.5,-270"/>
<text text-anchor="start" x="496.5" y="-275.2" font-family="Helvetica,sans-Serif" font-size="11.00">3 &gt;</text>
<polygon fill="black" stroke="black" points="372.5,-270 372.5,-286 372.5,-286 372.5,-270 372.5,-270"/>
<polygon fill="black" stroke="black" points="461.5,-270 461.5,-286 461.5,-286 461.5,-270 461.5,-270"/>
</a>
</g>
</g>
<!-- sapling_2m&#45;&gt;lookup_tree_species -->
<g id="edge6" class="edge">
<title>sapling_2m:w&#45;&gt;lookup_tree_species:e</title>
<path fill="none" stroke="black" d="M716.98,-296C635,-296 609.24,-296 520.5,-296"/>
<polygon fill="black" stroke="black" points="723.5,-296 731.5,-299.6 727.5,-296 731.5,-296 731.5,-296 731.5,-296 727.5,-296 731.5,-292.4 723.5,-296 723.5,-296"/>
<ellipse fill="none" stroke="black" cx="720.3" cy="-296" rx="3.2" ry="3.2"/>
</g>
</g>
</svg>
