<?xml version="1.0" encoding="UTF-8" standalone="no"?>
<!DOCTYPE svg PUBLIC "-//W3C//DTD SVG 1.1//EN"
 "http://www.w3.org/Graphics/SVG/1.1/DTD/svg11.dtd">
<!-- Generated by graphviz version 2.43.0 (0)
 -->
<!-- Title: oneDegreeRelationshipsDiagram Pages: 1 -->
<svg width="717pt" height="283pt"
 viewBox="0.00 0.00 717.00 283.00" xmlns="http://www.w3.org/2000/svg" xmlns:xlink="http://www.w3.org/1999/xlink">
<g id="graph0" class="graph" transform="scale(1 1) rotate(0) translate(4 279)">
<title>oneDegreeRelationshipsDiagram</title>
<polygon fill="#ffffff" stroke="transparent" points="-4,4 -4,-279 713,-279 713,4 -4,4"/>
<text text-anchor="middle" x="79.5" y="-7.2" font-family="Helvetica,sans-Serif" font-size="11.00">Generated by SchemaSpy</text>
<!-- wzp_tree -->
<g id="node1" class="node">
<title>wzp_tree</title>
<g id="a_node1"><a xlink:href="../../tables/wzp_tree.html" xlink:title="wzp_tree" target="_top">
<polygon fill="#ffffff" stroke="transparent" points="528,-37 528,-271 701,-271 701,-37 528,-37"/>
<polygon fill="#f5f5f5" stroke="transparent" points="528.5,-249 528.5,-271 701.5,-271 701.5,-249 528.5,-249"/>
<polygon fill="none" stroke="black" points="528.5,-249 528.5,-271 701.5,-271 701.5,-249 528.5,-249"/>
<text text-anchor="start" x="533.5" y="-258.2" font-family="Helvetica,sans-Serif" font-weight="bold" font-size="11.00">wzp_tree</text>
<text text-anchor="start" x="659.5" y="-257.2" font-family="Helvetica,sans-Serif" font-size="11.00">[table]</text>
<polygon fill="none" stroke="black" points="528.5,-227 528.5,-249 701.5,-249 701.5,-227 528.5,-227"/>
<image xlink:href="../../images/primaryKeys.png" width="11px" height="12px" preserveAspectRatio="xMinYMin meet" x="533.5" y="-244"/>
<text text-anchor="start" x="548.5" y="-235.2" font-family="Helvetica,sans-Serif" font-size="11.00">id</text>
<polygon fill="none" stroke="black" points="528.5,-205 528.5,-227 701.5,-227 701.5,-205 528.5,-205"/>
<image xlink:href="../../images/foreignKeys.png" width="11px" height="12px" preserveAspectRatio="xMinYMin meet" x="533.5" y="-222"/>
<text text-anchor="start" x="548.5" y="-213.2" font-family="Helvetica,sans-Serif" font-size="11.00">plot_id</text>
<polygon fill="none" stroke="black" points="528.5,-183 528.5,-205 701.5,-205 701.5,-183 528.5,-183"/>
<image xlink:href="../../images/foreignKeys.png" width="11px" height="12px" preserveAspectRatio="xMinYMin meet" x="533.5" y="-200"/>
<text text-anchor="start" x="548.5" y="-191.2" font-family="Helvetica,sans-Serif" font-size="11.00">tree_status</text>
<polygon fill="none" stroke="black" points="528.5,-161 528.5,-183 701.5,-183 701.5,-161 528.5,-161"/>
<image xlink:href="../../images/foreignKeys.png" width="11px" height="12px" preserveAspectRatio="xMinYMin meet" x="533.5" y="-178"/>
<text text-anchor="start" x="548.5" y="-169.2" font-family="Helvetica,sans-Serif" font-size="11.00">tree_species</text>
<polygon fill="none" stroke="black" points="528.5,-139 528.5,-161 701.5,-161 701.5,-139 528.5,-139"/>
<image xlink:href="../../images/foreignKeys.png" width="11px" height="12px" preserveAspectRatio="xMinYMin meet" x="533.5" y="-156"/>
<text text-anchor="start" x="548.5" y="-147.2" font-family="Helvetica,sans-Serif" font-size="11.00">stem_breakage</text>
<polygon fill="none" stroke="black" points="528.5,-117 528.5,-139 701.5,-139 701.5,-117 528.5,-117"/>
<image xlink:href="../../images/foreignKeys.png" width="11px" height="12px" preserveAspectRatio="xMinYMin meet" x="533.5" y="-134"/>
<text text-anchor="start" x="548.5" y="-125.2" font-family="Helvetica,sans-Serif" font-size="11.00">stem_form</text>
<polygon fill="none" stroke="black" points="528.5,-95 528.5,-117 701.5,-117 701.5,-95 528.5,-95"/>
<image xlink:href="../../images/foreignKeys.png" width="11px" height="12px" preserveAspectRatio="xMinYMin meet" x="533.5" y="-112"/>
<text text-anchor="start" x="548.5" y="-103.2" font-family="Helvetica,sans-Serif" font-size="11.00">pruning</text>
<polygon fill="none" stroke="black" points="528.5,-73 528.5,-95 701.5,-95 701.5,-73 528.5,-73"/>
<image xlink:href="../../images/foreignKeys.png" width="11px" height="12px" preserveAspectRatio="xMinYMin meet" x="533.5" y="-90"/>
<text text-anchor="start" x="548.5" y="-81.2" font-family="Helvetica,sans-Serif" font-size="11.00">stand_layer</text>
<polygon fill="none" stroke="black" points="528.5,-55 528.5,-73 701.5,-73 701.5,-55 528.5,-55"/>
<text text-anchor="start" x="531.5" y="-61.2" font-family="Helvetica,sans-Serif" font-size="11.00">...</text>
<polygon fill="#ffffff" stroke="transparent" points="528.5,-37 528.5,-55 701.5,-55 701.5,-37 528.5,-37"/>
<polygon fill="none" stroke="black" points="528.5,-37 528.5,-55 701.5,-55 701.5,-37 528.5,-37"/>
<polygon fill="#ffffff" stroke="transparent" points="529.5,-38 529.5,-54 585.5,-54 585.5,-38 529.5,-38"/>
<text text-anchor="start" x="531.5" y="-43.2" font-family="Helvetica,sans-Serif" font-size="11.00">&lt; 7</text>
<polygon fill="#ffffff" stroke="transparent" points="585.5,-38 585.5,-54 657.5,-54 657.5,-38 585.5,-38"/>
<text text-anchor="start" x="603" y="-43.2" font-family="Helvetica,sans-Serif" font-size="11.00">0 rows</text>
<polygon fill="#ffffff" stroke="transparent" points="657.5,-38 657.5,-54 700.5,-54 700.5,-38 657.5,-38"/>
<text text-anchor="start" x="690.5" y="-43.2" font-family="Helvetica,sans-Serif" font-size="11.00"> &#160;</text>
<polygon fill="black" stroke="black" points="585.5,-38 585.5,-54 585.5,-54 585.5,-38 585.5,-38"/>
<polygon fill="black" stroke="black" points="657.5,-38 657.5,-54 657.5,-54 657.5,-38 657.5,-38"/>
</a>
</g>
</g>
<!-- lookup_pruning -->
<g id="node2" class="node">
<title>lookup_pruning</title>
<g id="a_node2"><a xlink:href="../../tables/lookup_pruning.html" xlink:title="lookup_pruning" target="_top">
<polygon fill="#ffffff" stroke="transparent" points="8,-75 8,-229 479,-229 479,-75 8,-75"/>
<polygon fill="#f5f5f5" stroke="transparent" points="10.5,-205 10.5,-227 477.5,-227 477.5,-205 10.5,-205"/>
<polygon fill="none" stroke="black" points="10.5,-205 10.5,-227 477.5,-227 477.5,-205 10.5,-205"/>
<text text-anchor="start" x="15.5" y="-214.2" font-family="Helvetica,sans-Serif" font-weight="bold" font-size="11.00">lookup_pruning</text>
<text text-anchor="start" x="435.5" y="-213.2" font-family="Helvetica,sans-Serif" font-size="11.00">[table]</text>
<polygon fill="none" stroke="black" points="10.5,-183 10.5,-205 144.5,-205 144.5,-183 10.5,-183"/>
<text text-anchor="start" x="30.5" y="-191.2" font-family="Helvetica,sans-Serif" font-size="11.00">name_de</text>
<polygon fill="none" stroke="black" points="144.5,-183 144.5,-205 477.5,-205 477.5,-183 144.5,-183"/>
<text text-anchor="start" x="147.5" y="-191.2" font-family="Helvetica,sans-Serif" font-size="11.00">varchar[150]</text>
<polygon fill="none" stroke="black" points="10.5,-161 10.5,-183 144.5,-183 144.5,-161 10.5,-161"/>
<text text-anchor="start" x="30.5" y="-169.2" font-family="Helvetica,sans-Serif" font-size="11.00">name_en</text>
<polygon fill="none" stroke="black" points="144.5,-161 144.5,-183 477.5,-183 477.5,-161 144.5,-161"/>
<text text-anchor="start" x="147.5" y="-169.2" font-family="Helvetica,sans-Serif" font-size="11.00">varchar[150]</text>
<polygon fill="none" stroke="black" points="10.5,-139 10.5,-161 144.5,-161 144.5,-139 10.5,-139"/>
<text text-anchor="start" x="30.5" y="-147.2" font-family="Helvetica,sans-Serif" font-size="11.00">interval</text>
<polygon fill="none" stroke="black" points="144.5,-139 144.5,-161 477.5,-161 477.5,-139 144.5,-139"/>
<text text-anchor="start" x="147.5" y="-147.2" font-family="Helvetica,sans-Serif" font-size="11.00">&quot;private_ci2027_001&quot;.&quot;_enum_interval_name&quot;[2147483647]</text>
<polygon fill="none" stroke="black" points="10.5,-117 10.5,-139 144.5,-139 144.5,-117 10.5,-117"/>
<text text-anchor="start" x="30.5" y="-125.2" font-family="Helvetica,sans-Serif" font-size="11.00">sort</text>
<polygon fill="none" stroke="black" points="144.5,-117 144.5,-139 477.5,-139 477.5,-117 144.5,-117"/>
<text text-anchor="start" x="147.5" y="-125.2" font-family="Helvetica,sans-Serif" font-size="11.00">int4[10]</text>
<polygon fill="#ffffff" stroke="transparent" points="10.5,-95 10.5,-117 144.5,-117 144.5,-95 10.5,-95"/>
<polygon fill="none" stroke="black" points="10.5,-95 10.5,-117 144.5,-117 144.5,-95 10.5,-95"/>
<text text-anchor="start" x="30.5" y="-103.2" font-family="Helvetica,sans-Serif" font-size="11.00">abbreviation</text>
<polygon fill="none" stroke="black" points="144.5,-95 144.5,-117 477.5,-117 477.5,-95 144.5,-95"/>
<text text-anchor="start" x="147.5" y="-103.2" font-family="Helvetica,sans-Serif" font-size="11.00">&quot;private_ci2027_001&quot;.&quot;enum_pruning&quot;[2147483647]</text>
<polygon fill="#ffffff" stroke="transparent" points="10.5,-77 10.5,-95 477.5,-95 477.5,-77 10.5,-77"/>
<polygon fill="none" stroke="black" points="10.5,-77 10.5,-95 477.5,-95 477.5,-77 10.5,-77"/>
<polygon fill="#ffffff" stroke="transparent" points="11.5,-78 11.5,-94 161.5,-94 161.5,-78 11.5,-78"/>
<text text-anchor="start" x="13.5" y="-83.2" font-family="Helvetica,sans-Serif" font-size="11.00">&lt; 0</text>
<polygon fill="#ffffff" stroke="transparent" points="161.5,-78 161.5,-94 327.5,-94 327.5,-78 161.5,-78"/>
<text text-anchor="start" x="226" y="-83.2" font-family="Helvetica,sans-Serif" font-size="11.00">0 rows</text>
<polygon fill="#ffffff" stroke="transparent" points="327.5,-78 327.5,-94 476.5,-94 476.5,-78 327.5,-78"/>
<text text-anchor="start" x="454.5" y="-83.2" font-family="Helvetica,sans-Serif" font-size="11.00">1 &gt;</text>
<polygon fill="black" stroke="black" points="161.5,-78 161.5,-94 161.5,-94 161.5,-78 161.5,-78"/>
<polygon fill="black" stroke="black" points="327.5,-78 327.5,-94 327.5,-94 327.5,-78 327.5,-78"/>
<polygon fill="none" stroke="black" stroke-width="2" points="9,-76 9,-228 478,-228 478,-76 9,-76"/>
</a>
</g>
</g>
<!-- wzp_tree&#45;&gt;lookup_pruning -->
<g id="edge1" class="edge">
<title>wzp_tree:w&#45;&gt;lookup_pruning:e</title>
<path fill="none" stroke="black" d="M512.99,-106C501.68,-106 494.49,-106 478.5,-106"/>
<polygon fill="black" stroke="black" points="519.5,-106 527.5,-109.6 523.5,-106 527.5,-106 527.5,-106 527.5,-106 523.5,-106 527.5,-102.4 519.5,-106 519.5,-106"/>
<ellipse fill="none" stroke="black" cx="516.3" cy="-106" rx="3.2" ry="3.2"/>
</g>
</g>
</svg>
