<?xml version="1.0" encoding="UTF-8" standalone="no"?>
<!DOCTYPE svg PUBLIC "-//W3C//DTD SVG 1.1//EN"
 "http://www.w3.org/Graphics/SVG/1.1/DTD/svg11.dtd">
<!-- Generated by graphviz version 2.43.0 (0)
 -->
<!-- Title: twoDegreesRelationshipsDiagram Pages: 1 -->
<svg width="908pt" height="328pt"
 viewBox="0.00 0.00 908.00 328.00" xmlns="http://www.w3.org/2000/svg" xmlns:xlink="http://www.w3.org/1999/xlink">
<g id="graph0" class="graph" transform="scale(1 1) rotate(0) translate(4 324)">
<title>twoDegreesRelationshipsDiagram</title>
<polygon fill="#ffffff" stroke="transparent" points="-4,4 -4,-324 904,-324 904,4 -4,4"/>
<text text-anchor="middle" x="79.5" y="-7.2" font-family="Helvetica,sans-Serif" font-size="11.00">Generated by SchemaSpy</text>
<!-- plot_location -->
<g id="node1" class="node">
<title>plot_location</title>
<g id="a_node1"><a xlink:href="../../tables/plot_location.html" xlink:title="plot_location" target="_top">
<polygon fill="#ffffff" stroke="transparent" points="337,-212 337,-270 478,-270 478,-212 337,-212"/>
<polygon fill="#f5f5f5" stroke="transparent" points="337.5,-248 337.5,-270 478.5,-270 478.5,-248 337.5,-248"/>
<polygon fill="none" stroke="black" points="337.5,-248 337.5,-270 478.5,-270 478.5,-248 337.5,-248"/>
<text text-anchor="start" x="342.5" y="-257.2" font-family="Helvetica,sans-Serif" font-weight="bold" font-size="11.00">plot_location</text>
<text text-anchor="start" x="436.5" y="-256.2" font-family="Helvetica,sans-Serif" font-size="11.00">[table]</text>
<polygon fill="none" stroke="black" points="337.5,-230 337.5,-248 478.5,-248 478.5,-230 337.5,-230"/>
<text text-anchor="start" x="340.5" y="-236.2" font-family="Helvetica,sans-Serif" font-size="11.00">...</text>
<polygon fill="#ffffff" stroke="transparent" points="337.5,-212 337.5,-230 478.5,-230 478.5,-212 337.5,-212"/>
<polygon fill="none" stroke="black" points="337.5,-212 337.5,-230 478.5,-230 478.5,-212 337.5,-212"/>
<polygon fill="#ffffff" stroke="transparent" points="338.5,-213 338.5,-229 379.5,-229 379.5,-213 338.5,-213"/>
<text text-anchor="start" x="340.5" y="-218.2" font-family="Helvetica,sans-Serif" font-size="11.00">&lt; 1</text>
<polygon fill="#ffffff" stroke="transparent" points="379.5,-213 379.5,-229 437.5,-229 437.5,-213 379.5,-213"/>
<text text-anchor="start" x="390" y="-218.2" font-family="Helvetica,sans-Serif" font-size="11.00">0 rows</text>
<polygon fill="#ffffff" stroke="transparent" points="437.5,-213 437.5,-229 477.5,-229 477.5,-213 437.5,-213"/>
<text text-anchor="start" x="455.5" y="-218.2" font-family="Helvetica,sans-Serif" font-size="11.00">3 &gt;</text>
<polygon fill="black" stroke="black" points="379.5,-213 379.5,-229 379.5,-229 379.5,-213 379.5,-213"/>
<polygon fill="black" stroke="black" points="437.5,-213 437.5,-229 437.5,-229 437.5,-213 437.5,-213"/>
</a>
</g>
</g>
<!-- plot -->
<g id="node2" class="node">
<title>plot</title>
<g id="a_node2"><a xlink:href="../../tables/plot.html" xlink:title="plot" target="_top">
<polygon fill="#ffffff" stroke="transparent" points="8,-239 8,-297 106,-297 106,-239 8,-239"/>
<polygon fill="#f5f5f5" stroke="transparent" points="8,-275 8,-297 106,-297 106,-275 8,-275"/>
<polygon fill="none" stroke="black" points="8,-275 8,-297 106,-297 106,-275 8,-275"/>
<text text-anchor="start" x="12.5" y="-284.2" font-family="Helvetica,sans-Serif" font-weight="bold" font-size="11.00">plot</text>
<text text-anchor="start" x="64" y="-283.2" font-family="Helvetica,sans-Serif" font-size="11.00">[table]</text>
<polygon fill="none" stroke="black" points="8,-257 8,-275 106,-275 106,-257 8,-257"/>
<text text-anchor="start" x="11" y="-263.2" font-family="Helvetica,sans-Serif" font-size="11.00">...</text>
<polygon fill="#ffffff" stroke="transparent" points="8,-239 8,-257 106,-257 106,-239 8,-239"/>
<polygon fill="none" stroke="black" points="8,-239 8,-257 106,-257 106,-239 8,-239"/>
<polygon fill="#ffffff" stroke="transparent" points="9,-240 9,-256 40,-256 40,-240 9,-240"/>
<text text-anchor="start" x="11" y="-245.2" font-family="Helvetica,sans-Serif" font-size="11.00">&lt; 16</text>
<polygon fill="#ffffff" stroke="transparent" points="40,-240 40,-256 81,-256 81,-240 40,-240"/>
<text text-anchor="start" x="42" y="-245.2" font-family="Helvetica,sans-Serif" font-size="11.00">0 rows</text>
<polygon fill="#ffffff" stroke="transparent" points="81,-240 81,-256 105,-256 105,-240 81,-240"/>
<text text-anchor="start" x="83" y="-245.2" font-family="Helvetica,sans-Serif" font-size="11.00">7 &gt;</text>
<polygon fill="black" stroke="black" points="40,-240 40,-256 40,-256 40,-240 40,-240"/>
<polygon fill="black" stroke="black" points="81,-240 81,-256 81,-256 81,-240 81,-240"/>
</a>
</g>
</g>
<!-- plot_location&#45;&gt;plot -->
<g id="edge1" class="edge">
<title>plot_location:w&#45;&gt;plot:e</title>
<path fill="none" stroke="black" d="M322,-239.19C231.26,-241.57 204.69,-266 107,-266"/>
<polygon fill="black" stroke="black" points="328.5,-239.1 336.55,-242.6 332.5,-239.05 336.5,-239 336.5,-239 336.5,-239 332.5,-239.05 336.45,-235.4 328.5,-239.1 328.5,-239.1"/>
<ellipse fill="none" stroke="black" cx="325.3" cy="-239.14" rx="3.2" ry="3.2"/>
</g>
<!-- position -->
<g id="node3" class="node">
<title>position</title>
<g id="a_node3"><a xlink:href="../../tables/position.html" xlink:title="position" target="_top">
<polygon fill="#ffffff" stroke="transparent" points="709,-170 709,-316 892,-316 892,-170 709,-170"/>
<polygon fill="#f5f5f5" stroke="transparent" points="709.5,-294 709.5,-316 892.5,-316 892.5,-294 709.5,-294"/>
<polygon fill="none" stroke="black" points="709.5,-294 709.5,-316 892.5,-316 892.5,-294 709.5,-294"/>
<text text-anchor="start" x="714.5" y="-303.2" font-family="Helvetica,sans-Serif" font-weight="bold" font-size="11.00">position</text>
<text text-anchor="start" x="850.5" y="-302.2" font-family="Helvetica,sans-Serif" font-size="11.00">[table]</text>
<polygon fill="none" stroke="black" points="709.5,-272 709.5,-294 892.5,-294 892.5,-272 709.5,-272"/>
<image xlink:href="../../images/primaryKeys.png" width="11px" height="12px" preserveAspectRatio="xMinYMin meet" x="714.5" y="-289"/>
<text text-anchor="start" x="729.5" y="-280.2" font-family="Helvetica,sans-Serif" font-size="11.00">id</text>
<polygon fill="none" stroke="black" points="709.5,-250 709.5,-272 892.5,-272 892.5,-250 709.5,-250"/>
<image xlink:href="../../images/foreignKeys.png" width="11px" height="12px" preserveAspectRatio="xMinYMin meet" x="714.5" y="-267"/>
<text text-anchor="start" x="729.5" y="-258.2" font-family="Helvetica,sans-Serif" font-size="11.00">plot_id</text>
<polygon fill="none" stroke="black" points="709.5,-228 709.5,-250 892.5,-250 892.5,-228 709.5,-228"/>
<image xlink:href="../../images/foreignKeys.png" width="11px" height="12px" preserveAspectRatio="xMinYMin meet" x="714.5" y="-245"/>
<text text-anchor="start" x="729.5" y="-236.2" font-family="Helvetica,sans-Serif" font-size="11.00">plot_location_id</text>
<polygon fill="none" stroke="black" points="709.5,-206 709.5,-228 892.5,-228 892.5,-206 709.5,-206"/>
<image xlink:href="../../images/foreignKeys.png" width="11px" height="12px" preserveAspectRatio="xMinYMin meet" x="714.5" y="-223"/>
<text text-anchor="start" x="729.5" y="-214.2" font-family="Helvetica,sans-Serif" font-size="11.00">quality</text>
<polygon fill="none" stroke="black" points="709.5,-188 709.5,-206 892.5,-206 892.5,-188 709.5,-188"/>
<text text-anchor="start" x="712.5" y="-194.2" font-family="Helvetica,sans-Serif" font-size="11.00">...</text>
<polygon fill="#ffffff" stroke="transparent" points="709.5,-170 709.5,-188 892.5,-188 892.5,-170 709.5,-170"/>
<polygon fill="none" stroke="black" points="709.5,-170 709.5,-188 892.5,-188 892.5,-170 709.5,-170"/>
<polygon fill="#ffffff" stroke="transparent" points="710.5,-171 710.5,-187 769.5,-187 769.5,-171 710.5,-171"/>
<text text-anchor="start" x="712.5" y="-176.2" font-family="Helvetica,sans-Serif" font-size="11.00">&lt; 3</text>
<polygon fill="#ffffff" stroke="transparent" points="769.5,-171 769.5,-187 845.5,-187 845.5,-171 769.5,-171"/>
<text text-anchor="start" x="789" y="-176.2" font-family="Helvetica,sans-Serif" font-size="11.00">0 rows</text>
<polygon fill="#ffffff" stroke="transparent" points="845.5,-171 845.5,-187 891.5,-187 891.5,-171 845.5,-171"/>
<text text-anchor="start" x="881.5" y="-176.2" font-family="Helvetica,sans-Serif" font-size="11.00"> &#160;</text>
<polygon fill="black" stroke="black" points="769.5,-171 769.5,-187 769.5,-187 769.5,-171 769.5,-171"/>
<polygon fill="black" stroke="black" points="845.5,-171 845.5,-187 845.5,-187 845.5,-171 845.5,-171"/>
</a>
</g>
</g>
<!-- position&#45;&gt;plot_location -->
<g id="edge3" class="edge">
<title>position:w&#45;&gt;plot_location:e</title>
<path fill="none" stroke="black" d="M693.84,-239C604,-239 576.21,-239 479.5,-239"/>
<polygon fill="black" stroke="black" points="700.5,-239 708.5,-242.6 704.5,-239 708.5,-239 708.5,-239 708.5,-239 704.5,-239 708.5,-235.4 700.5,-239 700.5,-239"/>
<ellipse fill="none" stroke="black" cx="697.3" cy="-239" rx="3.2" ry="3.2"/>
</g>
<!-- position&#45;&gt;plot -->
<g id="edge2" class="edge">
<title>position:w&#45;&gt;plot:e</title>
<path fill="none" stroke="black" d="M694.43,-264.55C686.16,-269.4 681.59,-277.83 668,-281 442.51,-333.64 374.84,-322.32 147,-281 128.32,-277.61 125.99,-266 107,-266"/>
<polygon fill="black" stroke="black" points="700.74,-262.96 709.38,-264.49 704.62,-261.98 708.5,-261 708.5,-261 708.5,-261 704.62,-261.98 707.62,-257.51 700.74,-262.96 700.74,-262.96"/>
<ellipse fill="none" stroke="black" cx="697.64" cy="-263.74" rx="3.2" ry="3.2"/>
</g>
<!-- lookup_gnss_quality -->
<g id="node4" class="node">
<title>lookup_gnss_quality</title>
<g id="a_node4"><a xlink:href="../../tables/lookup_gnss_quality.html" xlink:title="lookup_gnss_quality" target="_top">
<polygon fill="#ffffff" stroke="transparent" points="155,-37 155,-191 660,-191 660,-37 155,-37"/>
<polygon fill="#f5f5f5" stroke="transparent" points="157.5,-167 157.5,-189 658.5,-189 658.5,-167 157.5,-167"/>
<polygon fill="none" stroke="black" points="157.5,-167 157.5,-189 658.5,-189 658.5,-167 157.5,-167"/>
<text text-anchor="start" x="162.5" y="-176.2" font-family="Helvetica,sans-Serif" font-weight="bold" font-size="11.00">lookup_gnss_quality</text>
<text text-anchor="start" x="616.5" y="-175.2" font-family="Helvetica,sans-Serif" font-size="11.00">[table]</text>
<polygon fill="none" stroke="black" points="157.5,-145 157.5,-167 325.5,-167 325.5,-145 157.5,-145"/>
<text text-anchor="start" x="177.5" y="-153.2" font-family="Helvetica,sans-Serif" font-size="11.00">name_de</text>
<polygon fill="none" stroke="black" points="325.5,-145 325.5,-167 658.5,-167 658.5,-145 325.5,-145"/>
<text text-anchor="start" x="328.5" y="-153.2" font-family="Helvetica,sans-Serif" font-size="11.00">varchar[150]</text>
<polygon fill="none" stroke="black" points="157.5,-123 157.5,-145 325.5,-145 325.5,-123 157.5,-123"/>
<text text-anchor="start" x="177.5" y="-131.2" font-family="Helvetica,sans-Serif" font-size="11.00">name_en</text>
<polygon fill="none" stroke="black" points="325.5,-123 325.5,-145 658.5,-145 658.5,-123 325.5,-123"/>
<text text-anchor="start" x="328.5" y="-131.2" font-family="Helvetica,sans-Serif" font-size="11.00">varchar[150]</text>
<polygon fill="none" stroke="black" points="157.5,-101 157.5,-123 325.5,-123 325.5,-101 157.5,-101"/>
<text text-anchor="start" x="177.5" y="-109.2" font-family="Helvetica,sans-Serif" font-size="11.00">interval</text>
<polygon fill="none" stroke="black" points="325.5,-101 325.5,-123 658.5,-123 658.5,-101 325.5,-101"/>
<text text-anchor="start" x="328.5" y="-109.2" font-family="Helvetica,sans-Serif" font-size="11.00">&quot;private_ci2027_001&quot;.&quot;_enum_interval_name&quot;[2147483647]</text>
<polygon fill="none" stroke="black" points="157.5,-79 157.5,-101 325.5,-101 325.5,-79 157.5,-79"/>
<text text-anchor="start" x="177.5" y="-87.2" font-family="Helvetica,sans-Serif" font-size="11.00">sort</text>
<polygon fill="none" stroke="black" points="325.5,-79 325.5,-101 658.5,-101 658.5,-79 325.5,-79"/>
<text text-anchor="start" x="328.5" y="-87.2" font-family="Helvetica,sans-Serif" font-size="11.00">int4[10]</text>
<polygon fill="#ffffff" stroke="transparent" points="157.5,-57 157.5,-79 325.5,-79 325.5,-57 157.5,-57"/>
<polygon fill="none" stroke="black" points="157.5,-57 157.5,-79 325.5,-79 325.5,-57 157.5,-57"/>
<text text-anchor="start" x="177.5" y="-65.2" font-family="Helvetica,sans-Serif" font-size="11.00">abbreviation</text>
<polygon fill="none" stroke="black" points="325.5,-57 325.5,-79 658.5,-79 658.5,-57 325.5,-57"/>
<text text-anchor="start" x="328.5" y="-65.2" font-family="Helvetica,sans-Serif" font-size="11.00">&quot;private_ci2027_001&quot;.&quot;enum_gnss_quality&quot;[2147483647]</text>
<polygon fill="#ffffff" stroke="transparent" points="157.5,-39 157.5,-57 658.5,-57 658.5,-39 157.5,-39"/>
<polygon fill="none" stroke="black" points="157.5,-39 157.5,-57 658.5,-57 658.5,-39 157.5,-39"/>
<polygon fill="#ffffff" stroke="transparent" points="158.5,-40 158.5,-56 319.5,-56 319.5,-40 158.5,-40"/>
<text text-anchor="start" x="160.5" y="-45.2" font-family="Helvetica,sans-Serif" font-size="11.00">&lt; 0</text>
<polygon fill="#ffffff" stroke="transparent" points="319.5,-40 319.5,-56 497.5,-56 497.5,-40 319.5,-40"/>
<text text-anchor="start" x="390" y="-45.2" font-family="Helvetica,sans-Serif" font-size="11.00">0 rows</text>
<polygon fill="#ffffff" stroke="transparent" points="497.5,-40 497.5,-56 657.5,-56 657.5,-40 497.5,-40"/>
<text text-anchor="start" x="635.5" y="-45.2" font-family="Helvetica,sans-Serif" font-size="11.00">1 &gt;</text>
<polygon fill="black" stroke="black" points="319.5,-40 319.5,-56 319.5,-56 319.5,-40 319.5,-40"/>
<polygon fill="black" stroke="black" points="497.5,-40 497.5,-56 497.5,-56 497.5,-40 497.5,-40"/>
<polygon fill="none" stroke="black" stroke-width="2" points="156,-38 156,-190 659,-190 659,-38 156,-38"/>
</a>
</g>
</g>
<!-- position&#45;&gt;lookup_gnss_quality -->
<g id="edge4" class="edge">
<title>position:w&#45;&gt;lookup_gnss_quality:e</title>
<path fill="none" stroke="black" d="M694.13,-214.02C652.85,-193.02 723.36,-68 659.5,-68"/>
<polygon fill="black" stroke="black" points="700.67,-215.38 707.77,-220.53 704.58,-216.19 708.5,-217 708.5,-217 708.5,-217 704.58,-216.19 709.23,-213.47 700.67,-215.38 700.67,-215.38"/>
<ellipse fill="none" stroke="black" cx="697.53" cy="-214.73" rx="3.2" ry="3.2"/>
</g>
</g>
</svg>
