<?xml version="1.0" encoding="UTF-8" standalone="no"?>
<!DOCTYPE svg PUBLIC "-//W3C//DTD SVG 1.1//EN"
 "http://www.w3.org/Graphics/SVG/1.1/DTD/svg11.dtd">
<!-- Generated by graphviz version 2.43.0 (0)
 -->
<!-- Title: oneDegreeRelationshipsDiagram Pages: 1 -->
<svg width="498pt" height="683pt"
 viewBox="0.00 0.00 498.00 683.00" xmlns="http://www.w3.org/2000/svg" xmlns:xlink="http://www.w3.org/1999/xlink">
<g id="graph0" class="graph" transform="scale(1 1) rotate(0) translate(4 679)">
<title>oneDegreeRelationshipsDiagram</title>
<polygon fill="#ffffff" stroke="transparent" points="-4,4 -4,-679 494,-679 494,4 -4,4"/>
<text text-anchor="middle" x="79.5" y="-7.2" font-family="Helvetica,sans-Serif" font-size="11.00">Generated by SchemaSpy</text>
<!-- sapling_1m -->
<g id="node1" class="node">
<title>sapling_1m</title>
<g id="a_node1"><a xlink:href="../../tables/sapling_1m.html" xlink:title="sapling_1m" target="_top">
<polygon fill="#ffffff" stroke="transparent" points="307,-503 307,-671 482,-671 482,-503 307,-503"/>
<polygon fill="#f5f5f5" stroke="transparent" points="307.5,-649 307.5,-671 482.5,-671 482.5,-649 307.5,-649"/>
<polygon fill="none" stroke="black" points="307.5,-649 307.5,-671 482.5,-671 482.5,-649 307.5,-649"/>
<text text-anchor="start" x="312.5" y="-658.2" font-family="Helvetica,sans-Serif" font-weight="bold" font-size="11.00">sapling_1m</text>
<text text-anchor="start" x="440.5" y="-657.2" font-family="Helvetica,sans-Serif" font-size="11.00">[table]</text>
<polygon fill="none" stroke="black" points="307.5,-627 307.5,-649 482.5,-649 482.5,-627 307.5,-627"/>
<image xlink:href="../../images/primaryKeys.png" width="11px" height="12px" preserveAspectRatio="xMinYMin meet" x="312.5" y="-644"/>
<text text-anchor="start" x="327.5" y="-635.2" font-family="Helvetica,sans-Serif" font-size="11.00">id</text>
<polygon fill="none" stroke="black" points="307.5,-605 307.5,-627 482.5,-627 482.5,-605 307.5,-605"/>
<image xlink:href="../../images/foreignKeys.png" width="11px" height="12px" preserveAspectRatio="xMinYMin meet" x="312.5" y="-622"/>
<text text-anchor="start" x="327.5" y="-613.2" font-family="Helvetica,sans-Serif" font-size="11.00">plot_id</text>
<polygon fill="none" stroke="black" points="307.5,-583 307.5,-605 482.5,-605 482.5,-583 307.5,-583"/>
<image xlink:href="../../images/foreignKeys.png" width="11px" height="12px" preserveAspectRatio="xMinYMin meet" x="312.5" y="-600"/>
<text text-anchor="start" x="327.5" y="-591.2" font-family="Helvetica,sans-Serif" font-size="11.00">plot_location_id</text>
<polygon fill="none" stroke="black" points="307.5,-561 307.5,-583 482.5,-583 482.5,-561 307.5,-561"/>
<image xlink:href="../../images/foreignKeys.png" width="11px" height="12px" preserveAspectRatio="xMinYMin meet" x="312.5" y="-578"/>
<text text-anchor="start" x="327.5" y="-569.2" font-family="Helvetica,sans-Serif" font-size="11.00">tree_species</text>
<polygon fill="none" stroke="black" points="307.5,-539 307.5,-561 482.5,-561 482.5,-539 307.5,-539"/>
<image xlink:href="../../images/foreignKeys.png" width="11px" height="12px" preserveAspectRatio="xMinYMin meet" x="312.5" y="-556"/>
<text text-anchor="start" x="327.5" y="-547.2" font-family="Helvetica,sans-Serif" font-size="11.00">bitten</text>
<polygon fill="none" stroke="black" points="307.5,-521 307.5,-539 482.5,-539 482.5,-521 307.5,-521"/>
<text text-anchor="start" x="310.5" y="-527.2" font-family="Helvetica,sans-Serif" font-size="11.00">...</text>
<polygon fill="#ffffff" stroke="transparent" points="307.5,-503 307.5,-521 482.5,-521 482.5,-503 307.5,-503"/>
<polygon fill="none" stroke="black" points="307.5,-503 307.5,-521 482.5,-521 482.5,-503 307.5,-503"/>
<polygon fill="#ffffff" stroke="transparent" points="308.5,-504 308.5,-520 364.5,-520 364.5,-504 308.5,-504"/>
<text text-anchor="start" x="310.5" y="-509.2" font-family="Helvetica,sans-Serif" font-size="11.00">&lt; 4</text>
<polygon fill="#ffffff" stroke="transparent" points="364.5,-504 364.5,-520 437.5,-520 437.5,-504 364.5,-504"/>
<text text-anchor="start" x="382.5" y="-509.2" font-family="Helvetica,sans-Serif" font-size="11.00">0 rows</text>
<polygon fill="#ffffff" stroke="transparent" points="437.5,-504 437.5,-520 481.5,-520 481.5,-504 437.5,-504"/>
<text text-anchor="start" x="471.5" y="-509.2" font-family="Helvetica,sans-Serif" font-size="11.00"> &#160;</text>
<polygon fill="black" stroke="black" points="364.5,-504 364.5,-520 364.5,-520 364.5,-504 364.5,-504"/>
<polygon fill="black" stroke="black" points="437.5,-504 437.5,-520 437.5,-520 437.5,-504 437.5,-504"/>
</a>
</g>
</g>
<!-- lookup_tree_species -->
<g id="node2" class="node">
<title>lookup_tree_species</title>
<g id="a_node2"><a xlink:href="../../tables/lookup_tree_species.html" xlink:title="lookup_tree_species" target="_top">
<polygon fill="#ffffff" stroke="transparent" points="8,-352 8,-484 258,-484 258,-352 8,-352"/>
<polygon fill="#f5f5f5" stroke="transparent" points="10,-460 10,-482 256,-482 256,-460 10,-460"/>
<polygon fill="none" stroke="black" points="10,-460 10,-482 256,-482 256,-460 10,-460"/>
<text text-anchor="start" x="15" y="-469.2" font-family="Helvetica,sans-Serif" font-weight="bold" font-size="11.00">lookup_tree_species</text>
<text text-anchor="start" x="214" y="-468.2" font-family="Helvetica,sans-Serif" font-size="11.00">[table]</text>
<polygon fill="none" stroke="black" points="10,-438 10,-460 178,-460 178,-438 10,-438"/>
<text text-anchor="start" x="30" y="-446.2" font-family="Helvetica,sans-Serif" font-size="11.00">name_de</text>
<polygon fill="none" stroke="black" points="178,-438 178,-460 256,-460 256,-438 178,-438"/>
<text text-anchor="start" x="181" y="-446.2" font-family="Helvetica,sans-Serif" font-size="11.00">varchar[150]</text>
<polygon fill="none" stroke="black" points="10,-416 10,-438 178,-438 178,-416 10,-416"/>
<text text-anchor="start" x="30" y="-424.2" font-family="Helvetica,sans-Serif" font-size="11.00">name_en</text>
<polygon fill="none" stroke="black" points="178,-416 178,-438 256,-438 256,-416 178,-416"/>
<text text-anchor="start" x="181" y="-424.2" font-family="Helvetica,sans-Serif" font-size="11.00">varchar[150]</text>
<polygon fill="none" stroke="black" points="10,-394 10,-416 178,-416 178,-394 10,-394"/>
<text text-anchor="start" x="30" y="-402.2" font-family="Helvetica,sans-Serif" font-size="11.00">sort</text>
<polygon fill="none" stroke="black" points="178,-394 178,-416 256,-416 256,-394 178,-394"/>
<text text-anchor="start" x="181" y="-402.2" font-family="Helvetica,sans-Serif" font-size="11.00">int4[10]</text>
<polygon fill="#ffffff" stroke="transparent" points="10,-372 10,-394 178,-394 178,-372 10,-372"/>
<polygon fill="none" stroke="black" points="10,-372 10,-394 178,-394 178,-372 10,-372"/>
<text text-anchor="start" x="30" y="-380.2" font-family="Helvetica,sans-Serif" font-size="11.00">abbreviation</text>
<polygon fill="none" stroke="black" points="178,-372 178,-394 256,-394 256,-372 178,-372"/>
<text text-anchor="start" x="181" y="-380.2" font-family="Helvetica,sans-Serif" font-size="11.00">int2[5]</text>
<polygon fill="#ffffff" stroke="transparent" points="10,-354 10,-372 256,-372 256,-354 10,-354"/>
<polygon fill="none" stroke="black" points="10,-354 10,-372 256,-372 256,-354 10,-354"/>
<polygon fill="#ffffff" stroke="transparent" points="11,-355 11,-371 82,-371 82,-355 11,-355"/>
<text text-anchor="start" x="13" y="-360.2" font-family="Helvetica,sans-Serif" font-size="11.00">&lt; 0</text>
<polygon fill="#ffffff" stroke="transparent" points="82,-355 82,-371 184,-371 184,-355 82,-355"/>
<text text-anchor="start" x="107.5" y="-360.2" font-family="Helvetica,sans-Serif" font-size="11.00">125 rows</text>
<polygon fill="#ffffff" stroke="transparent" points="184,-355 184,-371 255,-371 255,-355 184,-355"/>
<text text-anchor="start" x="233" y="-360.2" font-family="Helvetica,sans-Serif" font-size="11.00">3 &gt;</text>
<polygon fill="black" stroke="black" points="82,-355 82,-371 82,-371 82,-355 82,-355"/>
<polygon fill="black" stroke="black" points="184,-355 184,-371 184,-371 184,-355 184,-355"/>
<polygon fill="none" stroke="black" stroke-width="2" points="9,-353 9,-483 257,-483 257,-353 9,-353"/>
</a>
</g>
</g>
<!-- sapling_1m&#45;&gt;lookup_tree_species -->
<g id="edge1" class="edge">
<title>sapling_1m:w&#45;&gt;lookup_tree_species:e</title>
<path fill="none" stroke="black" d="M292.23,-569.75C234.8,-548.42 338.24,-383 257,-383"/>
<polygon fill="black" stroke="black" points="298.6,-570.75 305.94,-575.56 302.55,-571.38 306.5,-572 306.5,-572 306.5,-572 302.55,-571.38 307.06,-568.44 298.6,-570.75 298.6,-570.75"/>
<ellipse fill="none" stroke="black" cx="295.44" cy="-570.25" rx="3.2" ry="3.2"/>
</g>
<!-- sapling_2m -->
<g id="node3" class="node">
<title>sapling_2m</title>
<g id="a_node3"><a xlink:href="../../tables/sapling_2m.html" xlink:title="sapling_2m" target="_top">
<polygon fill="#ffffff" stroke="transparent" points="307,-292 307,-482 482,-482 482,-292 307,-292"/>
<polygon fill="#f5f5f5" stroke="transparent" points="307.5,-460 307.5,-482 482.5,-482 482.5,-460 307.5,-460"/>
<polygon fill="none" stroke="black" points="307.5,-460 307.5,-482 482.5,-482 482.5,-460 307.5,-460"/>
<text text-anchor="start" x="312.5" y="-469.2" font-family="Helvetica,sans-Serif" font-weight="bold" font-size="11.00">sapling_2m</text>
<text text-anchor="start" x="440.5" y="-468.2" font-family="Helvetica,sans-Serif" font-size="11.00">[table]</text>
<polygon fill="none" stroke="black" points="307.5,-438 307.5,-460 482.5,-460 482.5,-438 307.5,-438"/>
<image xlink:href="../../images/primaryKeys.png" width="11px" height="12px" preserveAspectRatio="xMinYMin meet" x="312.5" y="-455"/>
<text text-anchor="start" x="327.5" y="-446.2" font-family="Helvetica,sans-Serif" font-size="11.00">id</text>
<polygon fill="none" stroke="black" points="307.5,-416 307.5,-438 482.5,-438 482.5,-416 307.5,-416"/>
<image xlink:href="../../images/foreignKeys.png" width="11px" height="12px" preserveAspectRatio="xMinYMin meet" x="312.5" y="-433"/>
<text text-anchor="start" x="327.5" y="-424.2" font-family="Helvetica,sans-Serif" font-size="11.00">plot_id</text>
<polygon fill="none" stroke="black" points="307.5,-394 307.5,-416 482.5,-416 482.5,-394 307.5,-394"/>
<image xlink:href="../../images/foreignKeys.png" width="11px" height="12px" preserveAspectRatio="xMinYMin meet" x="312.5" y="-411"/>
<text text-anchor="start" x="327.5" y="-402.2" font-family="Helvetica,sans-Serif" font-size="11.00">plot_location_id</text>
<polygon fill="none" stroke="black" points="307.5,-372 307.5,-394 482.5,-394 482.5,-372 307.5,-372"/>
<image xlink:href="../../images/foreignKeys.png" width="11px" height="12px" preserveAspectRatio="xMinYMin meet" x="312.5" y="-389"/>
<text text-anchor="start" x="327.5" y="-380.2" font-family="Helvetica,sans-Serif" font-size="11.00">tree_species</text>
<polygon fill="none" stroke="black" points="307.5,-350 307.5,-372 482.5,-372 482.5,-350 307.5,-350"/>
<image xlink:href="../../images/foreignKeys.png" width="11px" height="12px" preserveAspectRatio="xMinYMin meet" x="312.5" y="-367"/>
<text text-anchor="start" x="327.5" y="-358.2" font-family="Helvetica,sans-Serif" font-size="11.00">bitten</text>
<polygon fill="none" stroke="black" points="307.5,-328 307.5,-350 482.5,-350 482.5,-328 307.5,-328"/>
<image xlink:href="../../images/foreignKeys.png" width="11px" height="12px" preserveAspectRatio="xMinYMin meet" x="312.5" y="-345"/>
<text text-anchor="start" x="327.5" y="-336.2" font-family="Helvetica,sans-Serif" font-size="11.00">tree_size_class</text>
<polygon fill="none" stroke="black" points="307.5,-310 307.5,-328 482.5,-328 482.5,-310 307.5,-310"/>
<text text-anchor="start" x="310.5" y="-316.2" font-family="Helvetica,sans-Serif" font-size="11.00">...</text>
<polygon fill="#ffffff" stroke="transparent" points="307.5,-292 307.5,-310 482.5,-310 482.5,-292 307.5,-292"/>
<polygon fill="none" stroke="black" points="307.5,-292 307.5,-310 482.5,-310 482.5,-292 307.5,-292"/>
<polygon fill="#ffffff" stroke="transparent" points="308.5,-293 308.5,-309 364.5,-309 364.5,-293 308.5,-293"/>
<text text-anchor="start" x="310.5" y="-298.2" font-family="Helvetica,sans-Serif" font-size="11.00">&lt; 5</text>
<polygon fill="#ffffff" stroke="transparent" points="364.5,-293 364.5,-309 437.5,-309 437.5,-293 364.5,-293"/>
<text text-anchor="start" x="382.5" y="-298.2" font-family="Helvetica,sans-Serif" font-size="11.00">0 rows</text>
<polygon fill="#ffffff" stroke="transparent" points="437.5,-293 437.5,-309 481.5,-309 481.5,-293 437.5,-293"/>
<text text-anchor="start" x="471.5" y="-298.2" font-family="Helvetica,sans-Serif" font-size="11.00"> &#160;</text>
<polygon fill="black" stroke="black" points="364.5,-293 364.5,-309 364.5,-309 364.5,-293 364.5,-293"/>
<polygon fill="black" stroke="black" points="437.5,-293 437.5,-309 437.5,-309 437.5,-293 437.5,-293"/>
</a>
</g>
</g>
<!-- sapling_2m&#45;&gt;lookup_tree_species -->
<g id="edge2" class="edge">
<title>sapling_2m:w&#45;&gt;lookup_tree_species:e</title>
<path fill="none" stroke="black" d="M291.84,-383C280.41,-383 273.16,-383 257,-383"/>
<polygon fill="black" stroke="black" points="298.5,-383 306.5,-386.6 302.5,-383 306.5,-383 306.5,-383 306.5,-383 302.5,-383 306.5,-379.4 298.5,-383 298.5,-383"/>
<ellipse fill="none" stroke="black" cx="295.3" cy="-383" rx="3.2" ry="3.2"/>
</g>
<!-- wzp_tree -->
<g id="node4" class="node">
<title>wzp_tree</title>
<g id="a_node4"><a xlink:href="../../tables/wzp_tree.html" xlink:title="wzp_tree" target="_top">
<polygon fill="#ffffff" stroke="transparent" points="308,-37 308,-271 481,-271 481,-37 308,-37"/>
<polygon fill="#f5f5f5" stroke="transparent" points="308.5,-249 308.5,-271 481.5,-271 481.5,-249 308.5,-249"/>
<polygon fill="none" stroke="black" points="308.5,-249 308.5,-271 481.5,-271 481.5,-249 308.5,-249"/>
<text text-anchor="start" x="313.5" y="-258.2" font-family="Helvetica,sans-Serif" font-weight="bold" font-size="11.00">wzp_tree</text>
<text text-anchor="start" x="439.5" y="-257.2" font-family="Helvetica,sans-Serif" font-size="11.00">[table]</text>
<polygon fill="none" stroke="black" points="308.5,-227 308.5,-249 481.5,-249 481.5,-227 308.5,-227"/>
<image xlink:href="../../images/primaryKeys.png" width="11px" height="12px" preserveAspectRatio="xMinYMin meet" x="313.5" y="-244"/>
<text text-anchor="start" x="328.5" y="-235.2" font-family="Helvetica,sans-Serif" font-size="11.00">id</text>
<polygon fill="none" stroke="black" points="308.5,-205 308.5,-227 481.5,-227 481.5,-205 308.5,-205"/>
<image xlink:href="../../images/foreignKeys.png" width="11px" height="12px" preserveAspectRatio="xMinYMin meet" x="313.5" y="-222"/>
<text text-anchor="start" x="328.5" y="-213.2" font-family="Helvetica,sans-Serif" font-size="11.00">plot_id</text>
<polygon fill="none" stroke="black" points="308.5,-183 308.5,-205 481.5,-205 481.5,-183 308.5,-183"/>
<image xlink:href="../../images/foreignKeys.png" width="11px" height="12px" preserveAspectRatio="xMinYMin meet" x="313.5" y="-200"/>
<text text-anchor="start" x="328.5" y="-191.2" font-family="Helvetica,sans-Serif" font-size="11.00">tree_state</text>
<polygon fill="none" stroke="black" points="308.5,-161 308.5,-183 481.5,-183 481.5,-161 308.5,-161"/>
<image xlink:href="../../images/foreignKeys.png" width="11px" height="12px" preserveAspectRatio="xMinYMin meet" x="313.5" y="-178"/>
<text text-anchor="start" x="328.5" y="-169.2" font-family="Helvetica,sans-Serif" font-size="11.00">tree_species</text>
<polygon fill="none" stroke="black" points="308.5,-139 308.5,-161 481.5,-161 481.5,-139 308.5,-139"/>
<image xlink:href="../../images/foreignKeys.png" width="11px" height="12px" preserveAspectRatio="xMinYMin meet" x="313.5" y="-156"/>
<text text-anchor="start" x="328.5" y="-147.2" font-family="Helvetica,sans-Serif" font-size="11.00">stem_breakage</text>
<polygon fill="none" stroke="black" points="308.5,-117 308.5,-139 481.5,-139 481.5,-117 308.5,-117"/>
<image xlink:href="../../images/foreignKeys.png" width="11px" height="12px" preserveAspectRatio="xMinYMin meet" x="313.5" y="-134"/>
<text text-anchor="start" x="328.5" y="-125.2" font-family="Helvetica,sans-Serif" font-size="11.00">stem_form</text>
<polygon fill="none" stroke="black" points="308.5,-95 308.5,-117 481.5,-117 481.5,-95 308.5,-95"/>
<image xlink:href="../../images/foreignKeys.png" width="11px" height="12px" preserveAspectRatio="xMinYMin meet" x="313.5" y="-112"/>
<text text-anchor="start" x="328.5" y="-103.2" font-family="Helvetica,sans-Serif" font-size="11.00">pruning</text>
<polygon fill="none" stroke="black" points="308.5,-73 308.5,-95 481.5,-95 481.5,-73 308.5,-73"/>
<image xlink:href="../../images/foreignKeys.png" width="11px" height="12px" preserveAspectRatio="xMinYMin meet" x="313.5" y="-90"/>
<text text-anchor="start" x="328.5" y="-81.2" font-family="Helvetica,sans-Serif" font-size="11.00">inventory_layer</text>
<polygon fill="none" stroke="black" points="308.5,-55 308.5,-73 481.5,-73 481.5,-55 308.5,-55"/>
<text text-anchor="start" x="311.5" y="-61.2" font-family="Helvetica,sans-Serif" font-size="11.00">...</text>
<polygon fill="#ffffff" stroke="transparent" points="308.5,-37 308.5,-55 481.5,-55 481.5,-37 308.5,-37"/>
<polygon fill="none" stroke="black" points="308.5,-37 308.5,-55 481.5,-55 481.5,-37 308.5,-37"/>
<polygon fill="#ffffff" stroke="transparent" points="309.5,-38 309.5,-54 365.5,-54 365.5,-38 309.5,-38"/>
<text text-anchor="start" x="311.5" y="-43.2" font-family="Helvetica,sans-Serif" font-size="11.00">&lt; 7</text>
<polygon fill="#ffffff" stroke="transparent" points="365.5,-38 365.5,-54 437.5,-54 437.5,-38 365.5,-38"/>
<text text-anchor="start" x="383" y="-43.2" font-family="Helvetica,sans-Serif" font-size="11.00">0 rows</text>
<polygon fill="#ffffff" stroke="transparent" points="437.5,-38 437.5,-54 480.5,-54 480.5,-38 437.5,-38"/>
<text text-anchor="start" x="470.5" y="-43.2" font-family="Helvetica,sans-Serif" font-size="11.00"> &#160;</text>
<polygon fill="black" stroke="black" points="365.5,-38 365.5,-54 365.5,-54 365.5,-38 365.5,-38"/>
<polygon fill="black" stroke="black" points="437.5,-38 437.5,-54 437.5,-54 437.5,-38 437.5,-38"/>
</a>
</g>
</g>
<!-- wzp_tree&#45;&gt;lookup_tree_species -->
<g id="edge3" class="edge">
<title>wzp_tree:w&#45;&gt;lookup_tree_species:e</title>
<path fill="none" stroke="black" d="M292.91,-174.09C226.94,-196 347.78,-383 257,-383"/>
<polygon fill="black" stroke="black" points="299.58,-173.13 308.01,-175.56 303.54,-172.57 307.5,-172 307.5,-172 307.5,-172 303.54,-172.57 306.99,-168.44 299.58,-173.13 299.58,-173.13"/>
<ellipse fill="none" stroke="black" cx="296.41" cy="-173.59" rx="3.2" ry="3.2"/>
</g>
</g>
</svg>
