<?xml version="1.0" encoding="UTF-8" standalone="no"?>
<!DOCTYPE svg PUBLIC "-//W3C//DTD SVG 1.1//EN"
 "http://www.w3.org/Graphics/SVG/1.1/DTD/svg11.dtd">
<!-- Generated by graphviz version 2.43.0 (0)
 -->
<!-- Title: twoDegreesRelationshipsDiagram Pages: 1 -->
<svg width="881pt" height="890pt"
 viewBox="0.00 0.00 881.00 889.74" xmlns="http://www.w3.org/2000/svg" xmlns:xlink="http://www.w3.org/1999/xlink">
<g id="graph0" class="graph" transform="scale(1 1) rotate(0) translate(4 885.74)">
<title>twoDegreesRelationshipsDiagram</title>
<polygon fill="#ffffff" stroke="transparent" points="-4,4 -4,-885.74 877,-885.74 877,4 -4,4"/>
<text text-anchor="middle" x="79.5" y="-7.2" font-family="Helvetica,sans-Serif" font-size="11.00">Generated by SchemaSpy</text>
<!-- plot -->
<g id="node1" class="node">
<title>plot</title>
<g id="a_node1"><a xlink:href="../../tables/plot.html" xlink:title="plot" target="_top">
<polygon fill="#ffffff" stroke="transparent" points="244,-722.74 244,-780.74 342,-780.74 342,-722.74 244,-722.74"/>
<polygon fill="#f5f5f5" stroke="transparent" points="244,-758.74 244,-780.74 342,-780.74 342,-758.74 244,-758.74"/>
<polygon fill="none" stroke="black" points="244,-758.74 244,-780.74 342,-780.74 342,-758.74 244,-758.74"/>
<text text-anchor="start" x="248.5" y="-767.94" font-family="Helvetica,sans-Serif" font-weight="bold" font-size="11.00">plot</text>
<text text-anchor="start" x="300" y="-766.94" font-family="Helvetica,sans-Serif" font-size="11.00">[table]</text>
<polygon fill="none" stroke="black" points="244,-740.74 244,-758.74 342,-758.74 342,-740.74 244,-740.74"/>
<text text-anchor="start" x="247" y="-746.94" font-family="Helvetica,sans-Serif" font-size="11.00">...</text>
<polygon fill="#ffffff" stroke="transparent" points="244,-722.74 244,-740.74 342,-740.74 342,-722.74 244,-722.74"/>
<polygon fill="none" stroke="black" points="244,-722.74 244,-740.74 342,-740.74 342,-722.74 244,-722.74"/>
<polygon fill="#ffffff" stroke="transparent" points="245,-723.74 245,-739.74 276,-739.74 276,-723.74 245,-723.74"/>
<text text-anchor="start" x="247" y="-728.94" font-family="Helvetica,sans-Serif" font-size="11.00">&lt; 24</text>
<polygon fill="#ffffff" stroke="transparent" points="276,-723.74 276,-739.74 317,-739.74 317,-723.74 276,-723.74"/>
<text text-anchor="start" x="278" y="-728.94" font-family="Helvetica,sans-Serif" font-size="11.00">0 rows</text>
<polygon fill="#ffffff" stroke="transparent" points="317,-723.74 317,-739.74 341,-739.74 341,-723.74 317,-723.74"/>
<text text-anchor="start" x="319" y="-728.94" font-family="Helvetica,sans-Serif" font-size="11.00">7 &gt;</text>
<polygon fill="black" stroke="black" points="276,-723.74 276,-739.74 276,-739.74 276,-723.74 276,-723.74"/>
<polygon fill="black" stroke="black" points="317,-723.74 317,-739.74 317,-739.74 317,-723.74 317,-723.74"/>
</a>
</g>
</g>
<!-- lookup_stand_layer -->
<g id="node2" class="node">
<title>lookup_stand_layer</title>
<g id="a_node2"><a xlink:href="../../tables/lookup_stand_layer.html" xlink:title="lookup_stand_layer" target="_top">
<polygon fill="#ffffff" stroke="transparent" points="8,-381.74 8,-439.74 195,-439.74 195,-381.74 8,-381.74"/>
<polygon fill="#f5f5f5" stroke="transparent" points="8.5,-417.74 8.5,-439.74 195.5,-439.74 195.5,-417.74 8.5,-417.74"/>
<polygon fill="none" stroke="black" points="8.5,-417.74 8.5,-439.74 195.5,-439.74 195.5,-417.74 8.5,-417.74"/>
<text text-anchor="start" x="13.5" y="-426.94" font-family="Helvetica,sans-Serif" font-weight="bold" font-size="11.00">lookup_stand_layer</text>
<text text-anchor="start" x="153.5" y="-425.94" font-family="Helvetica,sans-Serif" font-size="11.00">[table]</text>
<polygon fill="none" stroke="black" points="8.5,-399.74 8.5,-417.74 195.5,-417.74 195.5,-399.74 8.5,-399.74"/>
<text text-anchor="start" x="11.5" y="-405.94" font-family="Helvetica,sans-Serif" font-size="11.00">...</text>
<polygon fill="#ffffff" stroke="transparent" points="8.5,-381.74 8.5,-399.74 195.5,-399.74 195.5,-381.74 8.5,-381.74"/>
<polygon fill="none" stroke="black" points="8.5,-381.74 8.5,-399.74 195.5,-399.74 195.5,-381.74 8.5,-381.74"/>
<polygon fill="#ffffff" stroke="transparent" points="9.5,-382.74 9.5,-398.74 57.5,-398.74 57.5,-382.74 9.5,-382.74"/>
<text text-anchor="start" x="11.5" y="-387.94" font-family="Helvetica,sans-Serif" font-size="11.00"> &#160;</text>
<polygon fill="#ffffff" stroke="transparent" points="57.5,-382.74 57.5,-398.74 134.5,-398.74 134.5,-382.74 57.5,-382.74"/>
<text text-anchor="start" x="77.5" y="-387.94" font-family="Helvetica,sans-Serif" font-size="11.00">0 rows</text>
<polygon fill="#ffffff" stroke="transparent" points="134.5,-382.74 134.5,-398.74 194.5,-398.74 194.5,-382.74 134.5,-382.74"/>
<text text-anchor="start" x="172.5" y="-387.94" font-family="Helvetica,sans-Serif" font-size="11.00">2 &gt;</text>
<polygon fill="black" stroke="black" points="57.5,-382.74 57.5,-398.74 57.5,-398.74 57.5,-382.74 57.5,-382.74"/>
<polygon fill="black" stroke="black" points="134.5,-382.74 134.5,-398.74 134.5,-398.74 134.5,-382.74 134.5,-382.74"/>
</a>
</g>
</g>
<!-- plot&#45;&gt;lookup_stand_layer -->
<g id="edge1" class="edge">
<title>plot:w&#45;&gt;lookup_stand_layer:e</title>
<path fill="none" stroke="black" d="M228.36,-748.51C107.77,-726.19 344.08,-408.74 196.5,-408.74"/>
<polygon fill="black" stroke="black" points="235.03,-749.07 242.7,-753.33 239.01,-749.41 243,-749.74 243,-749.74 243,-749.74 239.01,-749.41 243.3,-746.16 235.03,-749.07 235.03,-749.07"/>
<ellipse fill="none" stroke="black" cx="231.84" cy="-748.8" rx="3.2" ry="3.2"/>
</g>
<!-- plot_location -->
<g id="node3" class="node">
<title>plot_location</title>
<g id="a_node3"><a xlink:href="../../tables/plot_location.html" xlink:title="plot_location" target="_top">
<polygon fill="#ffffff" stroke="transparent" points="445.5,-773.74 445.5,-831.74 586.5,-831.74 586.5,-773.74 445.5,-773.74"/>
<polygon fill="#f5f5f5" stroke="transparent" points="446,-809.74 446,-831.74 587,-831.74 587,-809.74 446,-809.74"/>
<polygon fill="none" stroke="black" points="446,-809.74 446,-831.74 587,-831.74 587,-809.74 446,-809.74"/>
<text text-anchor="start" x="451" y="-818.94" font-family="Helvetica,sans-Serif" font-weight="bold" font-size="11.00">plot_location</text>
<text text-anchor="start" x="545" y="-817.94" font-family="Helvetica,sans-Serif" font-size="11.00">[table]</text>
<polygon fill="none" stroke="black" points="446,-791.74 446,-809.74 587,-809.74 587,-791.74 446,-791.74"/>
<text text-anchor="start" x="449" y="-797.94" font-family="Helvetica,sans-Serif" font-size="11.00">...</text>
<polygon fill="#ffffff" stroke="transparent" points="446,-773.74 446,-791.74 587,-791.74 587,-773.74 446,-773.74"/>
<polygon fill="none" stroke="black" points="446,-773.74 446,-791.74 587,-791.74 587,-773.74 446,-773.74"/>
<polygon fill="#ffffff" stroke="transparent" points="447,-774.74 447,-790.74 488,-790.74 488,-774.74 447,-774.74"/>
<text text-anchor="start" x="449" y="-779.94" font-family="Helvetica,sans-Serif" font-size="11.00">&lt; 1</text>
<polygon fill="#ffffff" stroke="transparent" points="488,-774.74 488,-790.74 546,-790.74 546,-774.74 488,-774.74"/>
<text text-anchor="start" x="498.5" y="-779.94" font-family="Helvetica,sans-Serif" font-size="11.00">0 rows</text>
<polygon fill="#ffffff" stroke="transparent" points="546,-774.74 546,-790.74 586,-790.74 586,-774.74 546,-774.74"/>
<text text-anchor="start" x="564" y="-779.94" font-family="Helvetica,sans-Serif" font-size="11.00">3 &gt;</text>
<polygon fill="black" stroke="black" points="488,-774.74 488,-790.74 488,-790.74 488,-774.74 488,-774.74"/>
<polygon fill="black" stroke="black" points="546,-774.74 546,-790.74 546,-790.74 546,-774.74 546,-774.74"/>
</a>
</g>
</g>
<!-- plot_location&#45;&gt;plot -->
<g id="edge2" class="edge">
<title>plot_location:w&#45;&gt;plot:e</title>
<path fill="none" stroke="black" d="M430.52,-799.16C393.63,-790.55 388.34,-749.74 343,-749.74"/>
<polygon fill="black" stroke="black" points="437.05,-799.87 444.61,-804.32 441.02,-800.31 445,-800.74 445,-800.74 445,-800.74 441.02,-800.31 445.39,-797.16 437.05,-799.87 437.05,-799.87"/>
<ellipse fill="none" stroke="black" cx="433.87" cy="-799.53" rx="3.2" ry="3.2"/>
</g>
<!-- sapling_1m -->
<g id="node4" class="node">
<title>sapling_1m</title>
<g id="a_node4"><a xlink:href="../../tables/sapling_1m.html" xlink:title="sapling_1m" target="_top">
<polygon fill="#ffffff" stroke="transparent" points="690,-709.74 690,-877.74 865,-877.74 865,-709.74 690,-709.74"/>
<polygon fill="#f5f5f5" stroke="transparent" points="690.5,-855.74 690.5,-877.74 865.5,-877.74 865.5,-855.74 690.5,-855.74"/>
<polygon fill="none" stroke="black" points="690.5,-855.74 690.5,-877.74 865.5,-877.74 865.5,-855.74 690.5,-855.74"/>
<text text-anchor="start" x="695.5" y="-864.94" font-family="Helvetica,sans-Serif" font-weight="bold" font-size="11.00">sapling_1m</text>
<text text-anchor="start" x="823.5" y="-863.94" font-family="Helvetica,sans-Serif" font-size="11.00">[table]</text>
<polygon fill="none" stroke="black" points="690.5,-833.74 690.5,-855.74 865.5,-855.74 865.5,-833.74 690.5,-833.74"/>
<image xlink:href="../../images/primaryKeys.png" width="11px" height="12px" preserveAspectRatio="xMinYMin meet" x="695.5" y="-850.742"/>
<text text-anchor="start" x="710.5" y="-841.94" font-family="Helvetica,sans-Serif" font-size="11.00">id</text>
<polygon fill="none" stroke="black" points="690.5,-811.74 690.5,-833.74 865.5,-833.74 865.5,-811.74 690.5,-811.74"/>
<image xlink:href="../../images/foreignKeys.png" width="11px" height="12px" preserveAspectRatio="xMinYMin meet" x="695.5" y="-828.742"/>
<text text-anchor="start" x="710.5" y="-819.94" font-family="Helvetica,sans-Serif" font-size="11.00">plot_id</text>
<polygon fill="none" stroke="black" points="690.5,-789.74 690.5,-811.74 865.5,-811.74 865.5,-789.74 690.5,-789.74"/>
<image xlink:href="../../images/foreignKeys.png" width="11px" height="12px" preserveAspectRatio="xMinYMin meet" x="695.5" y="-806.742"/>
<text text-anchor="start" x="710.5" y="-797.94" font-family="Helvetica,sans-Serif" font-size="11.00">plot_location_id</text>
<polygon fill="none" stroke="black" points="690.5,-767.74 690.5,-789.74 865.5,-789.74 865.5,-767.74 690.5,-767.74"/>
<image xlink:href="../../images/foreignKeys.png" width="11px" height="12px" preserveAspectRatio="xMinYMin meet" x="695.5" y="-784.742"/>
<text text-anchor="start" x="710.5" y="-775.94" font-family="Helvetica,sans-Serif" font-size="11.00">tree_species</text>
<polygon fill="none" stroke="black" points="690.5,-745.74 690.5,-767.74 865.5,-767.74 865.5,-745.74 690.5,-745.74"/>
<image xlink:href="../../images/foreignKeys.png" width="11px" height="12px" preserveAspectRatio="xMinYMin meet" x="695.5" y="-762.742"/>
<text text-anchor="start" x="710.5" y="-753.94" font-family="Helvetica,sans-Serif" font-size="11.00">bitten</text>
<polygon fill="none" stroke="black" points="690.5,-727.74 690.5,-745.74 865.5,-745.74 865.5,-727.74 690.5,-727.74"/>
<text text-anchor="start" x="693.5" y="-733.94" font-family="Helvetica,sans-Serif" font-size="11.00">...</text>
<polygon fill="#ffffff" stroke="transparent" points="690.5,-709.74 690.5,-727.74 865.5,-727.74 865.5,-709.74 690.5,-709.74"/>
<polygon fill="none" stroke="black" points="690.5,-709.74 690.5,-727.74 865.5,-727.74 865.5,-709.74 690.5,-709.74"/>
<polygon fill="#ffffff" stroke="transparent" points="691.5,-710.74 691.5,-726.74 747.5,-726.74 747.5,-710.74 691.5,-710.74"/>
<text text-anchor="start" x="693.5" y="-715.94" font-family="Helvetica,sans-Serif" font-size="11.00">&lt; 4</text>
<polygon fill="#ffffff" stroke="transparent" points="747.5,-710.74 747.5,-726.74 820.5,-726.74 820.5,-710.74 747.5,-710.74"/>
<text text-anchor="start" x="765.5" y="-715.94" font-family="Helvetica,sans-Serif" font-size="11.00">0 rows</text>
<polygon fill="#ffffff" stroke="transparent" points="820.5,-710.74 820.5,-726.74 864.5,-726.74 864.5,-710.74 820.5,-710.74"/>
<text text-anchor="start" x="854.5" y="-715.94" font-family="Helvetica,sans-Serif" font-size="11.00"> &#160;</text>
<polygon fill="black" stroke="black" points="747.5,-710.74 747.5,-726.74 747.5,-726.74 747.5,-710.74 747.5,-710.74"/>
<polygon fill="black" stroke="black" points="820.5,-710.74 820.5,-726.74 820.5,-726.74 820.5,-710.74 820.5,-710.74"/>
</a>
</g>
</g>
<!-- sapling_1m&#45;&gt;plot -->
<g id="edge4" class="edge">
<title>sapling_1m:w&#45;&gt;plot:e</title>
<path fill="none" stroke="black" d="M675.43,-826.3C667.16,-831.14 662.59,-839.57 649,-842.74 533.87,-869.62 481.74,-907.76 383,-842.74 345.42,-818 387.99,-749.74 343,-749.74"/>
<polygon fill="black" stroke="black" points="681.74,-824.7 690.38,-826.23 685.62,-823.72 689.5,-822.74 689.5,-822.74 689.5,-822.74 685.62,-823.72 688.62,-819.25 681.74,-824.7 681.74,-824.7"/>
<ellipse fill="none" stroke="black" cx="678.64" cy="-825.49" rx="3.2" ry="3.2"/>
</g>
<!-- sapling_1m&#45;&gt;plot_location -->
<g id="edge5" class="edge">
<title>sapling_1m:w&#45;&gt;plot_location:e</title>
<path fill="none" stroke="black" d="M674.93,-800.74C641.28,-800.74 627.82,-800.74 588,-800.74"/>
<polygon fill="black" stroke="black" points="681.5,-800.74 689.5,-804.34 685.5,-800.74 689.5,-800.74 689.5,-800.74 689.5,-800.74 685.5,-800.74 689.5,-797.14 681.5,-800.74 681.5,-800.74"/>
<ellipse fill="none" stroke="black" cx="678.3" cy="-800.74" rx="3.2" ry="3.2"/>
</g>
<!-- lookup_bitten -->
<g id="node5" class="node">
<title>lookup_bitten</title>
<g id="a_node5"><a xlink:href="../../tables/lookup_bitten.html" xlink:title="lookup_bitten" target="_top">
<polygon fill="#ffffff" stroke="transparent" points="442.5,-514.74 442.5,-572.74 589.5,-572.74 589.5,-514.74 442.5,-514.74"/>
<polygon fill="#f5f5f5" stroke="transparent" points="443,-550.74 443,-572.74 590,-572.74 590,-550.74 443,-550.74"/>
<polygon fill="none" stroke="black" points="443,-550.74 443,-572.74 590,-572.74 590,-550.74 443,-550.74"/>
<text text-anchor="start" x="448" y="-559.94" font-family="Helvetica,sans-Serif" font-weight="bold" font-size="11.00">lookup_bitten</text>
<text text-anchor="start" x="548" y="-558.94" font-family="Helvetica,sans-Serif" font-size="11.00">[table]</text>
<polygon fill="none" stroke="black" points="443,-532.74 443,-550.74 590,-550.74 590,-532.74 443,-532.74"/>
<text text-anchor="start" x="446" y="-538.94" font-family="Helvetica,sans-Serif" font-size="11.00">...</text>
<polygon fill="#ffffff" stroke="transparent" points="443,-514.74 443,-532.74 590,-532.74 590,-514.74 443,-514.74"/>
<polygon fill="none" stroke="black" points="443,-514.74 443,-532.74 590,-532.74 590,-514.74 443,-514.74"/>
<polygon fill="#ffffff" stroke="transparent" points="444,-515.74 444,-531.74 479,-531.74 479,-515.74 444,-515.74"/>
<text text-anchor="start" x="446" y="-520.94" font-family="Helvetica,sans-Serif" font-size="11.00"> &#160;</text>
<polygon fill="#ffffff" stroke="transparent" points="479,-515.74 479,-531.74 543,-531.74 543,-515.74 479,-515.74"/>
<text text-anchor="start" x="492.5" y="-520.94" font-family="Helvetica,sans-Serif" font-size="11.00">0 rows</text>
<polygon fill="#ffffff" stroke="transparent" points="543,-515.74 543,-531.74 589,-531.74 589,-515.74 543,-515.74"/>
<text text-anchor="start" x="567" y="-520.94" font-family="Helvetica,sans-Serif" font-size="11.00">2 &gt;</text>
<polygon fill="black" stroke="black" points="479,-515.74 479,-531.74 479,-531.74 479,-515.74 479,-515.74"/>
<polygon fill="black" stroke="black" points="543,-515.74 543,-531.74 543,-531.74 543,-515.74 543,-515.74"/>
</a>
</g>
</g>
<!-- sapling_1m&#45;&gt;lookup_bitten -->
<g id="edge3" class="edge">
<title>sapling_1m:w&#45;&gt;lookup_bitten:e</title>
<path fill="none" stroke="black" d="M675.06,-755.19C621.17,-741.75 690.2,-644 649,-582.74 631.38,-556.55 622.57,-541.74 591,-541.74"/>
<polygon fill="black" stroke="black" points="681.55,-755.89 689.12,-760.32 685.52,-756.31 689.5,-756.74 689.5,-756.74 689.5,-756.74 685.52,-756.31 689.88,-753.16 681.55,-755.89 681.55,-755.89"/>
<ellipse fill="none" stroke="black" cx="678.36" cy="-755.55" rx="3.2" ry="3.2"/>
</g>
<!-- lookup_tree_species -->
<g id="node6" class="node">
<title>lookup_tree_species</title>
<g id="a_node6"><a xlink:href="../../tables/lookup_tree_species.html" xlink:title="lookup_tree_species" target="_top">
<polygon fill="#ffffff" stroke="transparent" points="391,-593.74 391,-725.74 641,-725.74 641,-593.74 391,-593.74"/>
<polygon fill="#f5f5f5" stroke="transparent" points="393,-701.74 393,-723.74 639,-723.74 639,-701.74 393,-701.74"/>
<polygon fill="none" stroke="black" points="393,-701.74 393,-723.74 639,-723.74 639,-701.74 393,-701.74"/>
<text text-anchor="start" x="398" y="-710.94" font-family="Helvetica,sans-Serif" font-weight="bold" font-size="11.00">lookup_tree_species</text>
<text text-anchor="start" x="597" y="-709.94" font-family="Helvetica,sans-Serif" font-size="11.00">[table]</text>
<polygon fill="none" stroke="black" points="393,-679.74 393,-701.74 561,-701.74 561,-679.74 393,-679.74"/>
<text text-anchor="start" x="413" y="-687.94" font-family="Helvetica,sans-Serif" font-size="11.00">name_de</text>
<polygon fill="none" stroke="black" points="561,-679.74 561,-701.74 639,-701.74 639,-679.74 561,-679.74"/>
<text text-anchor="start" x="564" y="-687.94" font-family="Helvetica,sans-Serif" font-size="11.00">varchar[150]</text>
<polygon fill="none" stroke="black" points="393,-657.74 393,-679.74 561,-679.74 561,-657.74 393,-657.74"/>
<text text-anchor="start" x="413" y="-665.94" font-family="Helvetica,sans-Serif" font-size="11.00">name_en</text>
<polygon fill="none" stroke="black" points="561,-657.74 561,-679.74 639,-679.74 639,-657.74 561,-657.74"/>
<text text-anchor="start" x="564" y="-665.94" font-family="Helvetica,sans-Serif" font-size="11.00">varchar[150]</text>
<polygon fill="none" stroke="black" points="393,-635.74 393,-657.74 561,-657.74 561,-635.74 393,-635.74"/>
<text text-anchor="start" x="413" y="-643.94" font-family="Helvetica,sans-Serif" font-size="11.00">sort</text>
<polygon fill="none" stroke="black" points="561,-635.74 561,-657.74 639,-657.74 639,-635.74 561,-635.74"/>
<text text-anchor="start" x="564" y="-643.94" font-family="Helvetica,sans-Serif" font-size="11.00">int4[10]</text>
<polygon fill="#ffffff" stroke="transparent" points="393,-613.74 393,-635.74 561,-635.74 561,-613.74 393,-613.74"/>
<polygon fill="none" stroke="black" points="393,-613.74 393,-635.74 561,-635.74 561,-613.74 393,-613.74"/>
<text text-anchor="start" x="413" y="-621.94" font-family="Helvetica,sans-Serif" font-size="11.00">abbreviation</text>
<polygon fill="none" stroke="black" points="561,-613.74 561,-635.74 639,-635.74 639,-613.74 561,-613.74"/>
<text text-anchor="start" x="564" y="-621.94" font-family="Helvetica,sans-Serif" font-size="11.00">int2[5]</text>
<polygon fill="#ffffff" stroke="transparent" points="393,-595.74 393,-613.74 639,-613.74 639,-595.74 393,-595.74"/>
<polygon fill="none" stroke="black" points="393,-595.74 393,-613.74 639,-613.74 639,-595.74 393,-595.74"/>
<polygon fill="#ffffff" stroke="transparent" points="394,-596.74 394,-612.74 465,-612.74 465,-596.74 394,-596.74"/>
<text text-anchor="start" x="396" y="-601.94" font-family="Helvetica,sans-Serif" font-size="11.00">&lt; 0</text>
<polygon fill="#ffffff" stroke="transparent" points="465,-596.74 465,-612.74 567,-612.74 567,-596.74 465,-596.74"/>
<text text-anchor="start" x="490.5" y="-601.94" font-family="Helvetica,sans-Serif" font-size="11.00">125 rows</text>
<polygon fill="#ffffff" stroke="transparent" points="567,-596.74 567,-612.74 638,-612.74 638,-596.74 567,-596.74"/>
<text text-anchor="start" x="616" y="-601.94" font-family="Helvetica,sans-Serif" font-size="11.00">3 &gt;</text>
<polygon fill="black" stroke="black" points="465,-596.74 465,-612.74 465,-612.74 465,-596.74 465,-596.74"/>
<polygon fill="black" stroke="black" points="567,-596.74 567,-612.74 567,-612.74 567,-596.74 567,-596.74"/>
<polygon fill="none" stroke="black" stroke-width="2" points="392,-594.74 392,-724.74 640,-724.74 640,-594.74 392,-594.74"/>
</a>
</g>
</g>
<!-- sapling_1m&#45;&gt;lookup_tree_species -->
<g id="edge6" class="edge">
<title>sapling_1m:w&#45;&gt;lookup_tree_species:e</title>
<path fill="none" stroke="black" d="M675.25,-775.94C631.64,-755.07 706.14,-624.74 640,-624.74"/>
<polygon fill="black" stroke="black" points="681.65,-777.2 688.8,-782.27 685.58,-777.97 689.5,-778.74 689.5,-778.74 689.5,-778.74 685.58,-777.97 690.2,-775.21 681.65,-777.2 681.65,-777.2"/>
<ellipse fill="none" stroke="black" cx="678.51" cy="-776.58" rx="3.2" ry="3.2"/>
</g>
<!-- sapling_2m -->
<g id="node7" class="node">
<title>sapling_2m</title>
<g id="a_node7"><a xlink:href="../../tables/sapling_2m.html" xlink:title="sapling_2m" target="_top">
<polygon fill="#ffffff" stroke="transparent" points="690,-498.74 690,-688.74 865,-688.74 865,-498.74 690,-498.74"/>
<polygon fill="#f5f5f5" stroke="transparent" points="690.5,-666.74 690.5,-688.74 865.5,-688.74 865.5,-666.74 690.5,-666.74"/>
<polygon fill="none" stroke="black" points="690.5,-666.74 690.5,-688.74 865.5,-688.74 865.5,-666.74 690.5,-666.74"/>
<text text-anchor="start" x="695.5" y="-675.94" font-family="Helvetica,sans-Serif" font-weight="bold" font-size="11.00">sapling_2m</text>
<text text-anchor="start" x="823.5" y="-674.94" font-family="Helvetica,sans-Serif" font-size="11.00">[table]</text>
<polygon fill="none" stroke="black" points="690.5,-644.74 690.5,-666.74 865.5,-666.74 865.5,-644.74 690.5,-644.74"/>
<image xlink:href="../../images/primaryKeys.png" width="11px" height="12px" preserveAspectRatio="xMinYMin meet" x="695.5" y="-661.742"/>
<text text-anchor="start" x="710.5" y="-652.94" font-family="Helvetica,sans-Serif" font-size="11.00">id</text>
<polygon fill="none" stroke="black" points="690.5,-622.74 690.5,-644.74 865.5,-644.74 865.5,-622.74 690.5,-622.74"/>
<image xlink:href="../../images/foreignKeys.png" width="11px" height="12px" preserveAspectRatio="xMinYMin meet" x="695.5" y="-639.742"/>
<text text-anchor="start" x="710.5" y="-630.94" font-family="Helvetica,sans-Serif" font-size="11.00">plot_id</text>
<polygon fill="none" stroke="black" points="690.5,-600.74 690.5,-622.74 865.5,-622.74 865.5,-600.74 690.5,-600.74"/>
<image xlink:href="../../images/foreignKeys.png" width="11px" height="12px" preserveAspectRatio="xMinYMin meet" x="695.5" y="-617.742"/>
<text text-anchor="start" x="710.5" y="-608.94" font-family="Helvetica,sans-Serif" font-size="11.00">plot_location_id</text>
<polygon fill="none" stroke="black" points="690.5,-578.74 690.5,-600.74 865.5,-600.74 865.5,-578.74 690.5,-578.74"/>
<image xlink:href="../../images/foreignKeys.png" width="11px" height="12px" preserveAspectRatio="xMinYMin meet" x="695.5" y="-595.742"/>
<text text-anchor="start" x="710.5" y="-586.94" font-family="Helvetica,sans-Serif" font-size="11.00">tree_species</text>
<polygon fill="none" stroke="black" points="690.5,-556.74 690.5,-578.74 865.5,-578.74 865.5,-556.74 690.5,-556.74"/>
<image xlink:href="../../images/foreignKeys.png" width="11px" height="12px" preserveAspectRatio="xMinYMin meet" x="695.5" y="-573.742"/>
<text text-anchor="start" x="710.5" y="-564.94" font-family="Helvetica,sans-Serif" font-size="11.00">bitten</text>
<polygon fill="none" stroke="black" points="690.5,-534.74 690.5,-556.74 865.5,-556.74 865.5,-534.74 690.5,-534.74"/>
<image xlink:href="../../images/foreignKeys.png" width="11px" height="12px" preserveAspectRatio="xMinYMin meet" x="695.5" y="-551.742"/>
<text text-anchor="start" x="710.5" y="-542.94" font-family="Helvetica,sans-Serif" font-size="11.00">tree_size_class</text>
<polygon fill="none" stroke="black" points="690.5,-516.74 690.5,-534.74 865.5,-534.74 865.5,-516.74 690.5,-516.74"/>
<text text-anchor="start" x="693.5" y="-522.94" font-family="Helvetica,sans-Serif" font-size="11.00">...</text>
<polygon fill="#ffffff" stroke="transparent" points="690.5,-498.74 690.5,-516.74 865.5,-516.74 865.5,-498.74 690.5,-498.74"/>
<polygon fill="none" stroke="black" points="690.5,-498.74 690.5,-516.74 865.5,-516.74 865.5,-498.74 690.5,-498.74"/>
<polygon fill="#ffffff" stroke="transparent" points="691.5,-499.74 691.5,-515.74 747.5,-515.74 747.5,-499.74 691.5,-499.74"/>
<text text-anchor="start" x="693.5" y="-504.94" font-family="Helvetica,sans-Serif" font-size="11.00">&lt; 5</text>
<polygon fill="#ffffff" stroke="transparent" points="747.5,-499.74 747.5,-515.74 820.5,-515.74 820.5,-499.74 747.5,-499.74"/>
<text text-anchor="start" x="765.5" y="-504.94" font-family="Helvetica,sans-Serif" font-size="11.00">0 rows</text>
<polygon fill="#ffffff" stroke="transparent" points="820.5,-499.74 820.5,-515.74 864.5,-515.74 864.5,-499.74 820.5,-499.74"/>
<text text-anchor="start" x="854.5" y="-504.94" font-family="Helvetica,sans-Serif" font-size="11.00"> &#160;</text>
<polygon fill="black" stroke="black" points="747.5,-499.74 747.5,-515.74 747.5,-515.74 747.5,-499.74 747.5,-499.74"/>
<polygon fill="black" stroke="black" points="820.5,-499.74 820.5,-515.74 820.5,-515.74 820.5,-499.74 820.5,-499.74"/>
</a>
</g>
</g>
<!-- sapling_2m&#45;&gt;plot -->
<g id="edge8" class="edge">
<title>sapling_2m:w&#45;&gt;plot:e</title>
<path fill="none" stroke="black" d="M675.38,-636.96C651.35,-651.46 683.75,-710.97 649,-735.74 593.57,-775.25 411.07,-749.74 343,-749.74"/>
<polygon fill="black" stroke="black" points="681.7,-635.52 690.3,-637.25 685.6,-634.63 689.5,-633.74 689.5,-633.74 689.5,-633.74 685.6,-634.63 688.7,-630.23 681.7,-635.52 681.7,-635.52"/>
<ellipse fill="none" stroke="black" cx="678.58" cy="-636.23" rx="3.2" ry="3.2"/>
</g>
<!-- sapling_2m&#45;&gt;plot_location -->
<g id="edge9" class="edge">
<title>sapling_2m:w&#45;&gt;plot_location:e</title>
<path fill="none" stroke="black" d="M675.04,-613.63C631.88,-627.04 685.45,-709.01 649,-759.74 629.94,-786.27 620.67,-800.74 588,-800.74"/>
<polygon fill="black" stroke="black" points="681.57,-612.78 689.97,-615.31 685.53,-612.26 689.5,-611.74 689.5,-611.74 689.5,-611.74 685.53,-612.26 689.03,-608.17 681.57,-612.78 681.57,-612.78"/>
<ellipse fill="none" stroke="black" cx="678.39" cy="-613.19" rx="3.2" ry="3.2"/>
</g>
<!-- sapling_2m&#45;&gt;lookup_bitten -->
<g id="edge7" class="edge">
<title>sapling_2m:w&#45;&gt;lookup_bitten:e</title>
<path fill="none" stroke="black" d="M675,-566.75C641.85,-562.01 630.97,-541.74 591,-541.74"/>
<polygon fill="black" stroke="black" points="681.52,-567.2 689.26,-571.33 685.51,-567.47 689.5,-567.74 689.5,-567.74 689.5,-567.74 685.51,-567.47 689.74,-564.15 681.52,-567.2 681.52,-567.2"/>
<ellipse fill="none" stroke="black" cx="678.33" cy="-566.98" rx="3.2" ry="3.2"/>
</g>
<!-- sapling_2m&#45;&gt;lookup_tree_species -->
<g id="edge11" class="edge">
<title>sapling_2m:w&#45;&gt;lookup_tree_species:e</title>
<path fill="none" stroke="black" d="M675.66,-594.03C662.98,-603.38 661.05,-624.74 640,-624.74"/>
<polygon fill="black" stroke="black" points="681.86,-592.11 690.57,-593.18 685.68,-590.93 689.5,-589.74 689.5,-589.74 689.5,-589.74 685.68,-590.93 688.43,-586.3 681.86,-592.11 681.86,-592.11"/>
<ellipse fill="none" stroke="black" cx="678.8" cy="-593.06" rx="3.2" ry="3.2"/>
</g>
<!-- lookup_tree_size_class -->
<g id="node8" class="node">
<title>lookup_tree_size_class</title>
<g id="a_node8"><a xlink:href="../../tables/lookup_tree_size_class.html" xlink:title="lookup_tree_size_class" target="_top">
<polygon fill="#ffffff" stroke="transparent" points="410.5,-435.74 410.5,-493.74 621.5,-493.74 621.5,-435.74 410.5,-435.74"/>
<polygon fill="#f5f5f5" stroke="transparent" points="411,-471.74 411,-493.74 622,-493.74 622,-471.74 411,-471.74"/>
<polygon fill="none" stroke="black" points="411,-471.74 411,-493.74 622,-493.74 622,-471.74 411,-471.74"/>
<text text-anchor="start" x="416" y="-480.94" font-family="Helvetica,sans-Serif" font-weight="bold" font-size="11.00">lookup_tree_size_class</text>
<text text-anchor="start" x="580" y="-479.94" font-family="Helvetica,sans-Serif" font-size="11.00">[table]</text>
<polygon fill="none" stroke="black" points="411,-453.74 411,-471.74 622,-471.74 622,-453.74 411,-453.74"/>
<text text-anchor="start" x="414" y="-459.94" font-family="Helvetica,sans-Serif" font-size="11.00">...</text>
<polygon fill="#ffffff" stroke="transparent" points="411,-435.74 411,-453.74 622,-453.74 622,-435.74 411,-435.74"/>
<polygon fill="none" stroke="black" points="411,-435.74 411,-453.74 622,-453.74 622,-435.74 411,-435.74"/>
<polygon fill="#ffffff" stroke="transparent" points="412,-436.74 412,-452.74 468,-452.74 468,-436.74 412,-436.74"/>
<text text-anchor="start" x="414" y="-441.94" font-family="Helvetica,sans-Serif" font-size="11.00"> &#160;</text>
<polygon fill="#ffffff" stroke="transparent" points="468,-436.74 468,-452.74 553,-452.74 553,-436.74 468,-436.74"/>
<text text-anchor="start" x="492" y="-441.94" font-family="Helvetica,sans-Serif" font-size="11.00">0 rows</text>
<polygon fill="#ffffff" stroke="transparent" points="553,-436.74 553,-452.74 621,-452.74 621,-436.74 553,-436.74"/>
<text text-anchor="start" x="599" y="-441.94" font-family="Helvetica,sans-Serif" font-size="11.00">1 &gt;</text>
<polygon fill="black" stroke="black" points="468,-436.74 468,-452.74 468,-452.74 468,-436.74 468,-436.74"/>
<polygon fill="black" stroke="black" points="553,-436.74 553,-452.74 553,-452.74 553,-436.74 553,-436.74"/>
</a>
</g>
</g>
<!-- sapling_2m&#45;&gt;lookup_tree_size_class -->
<g id="edge10" class="edge">
<title>sapling_2m:w&#45;&gt;lookup_tree_size_class:e</title>
<path fill="none" stroke="black" d="M675.37,-542.39C647.92,-526.86 664.54,-462.74 623,-462.74"/>
<polygon fill="black" stroke="black" points="681.72,-543.89 688.67,-549.24 685.61,-544.82 689.5,-545.74 689.5,-545.74 689.5,-545.74 685.61,-544.82 690.33,-542.24 681.72,-543.89 681.72,-543.89"/>
<ellipse fill="none" stroke="black" cx="678.6" cy="-543.15" rx="3.2" ry="3.2"/>
</g>
<!-- wzp_tree -->
<g id="node9" class="node">
<title>wzp_tree</title>
<g id="a_node9"><a xlink:href="../../tables/wzp_tree.html" xlink:title="wzp_tree" target="_top">
<polygon fill="#ffffff" stroke="transparent" points="691,-164.74 691,-398.74 864,-398.74 864,-164.74 691,-164.74"/>
<polygon fill="#f5f5f5" stroke="transparent" points="691.5,-376.74 691.5,-398.74 864.5,-398.74 864.5,-376.74 691.5,-376.74"/>
<polygon fill="none" stroke="black" points="691.5,-376.74 691.5,-398.74 864.5,-398.74 864.5,-376.74 691.5,-376.74"/>
<text text-anchor="start" x="696.5" y="-385.94" font-family="Helvetica,sans-Serif" font-weight="bold" font-size="11.00">wzp_tree</text>
<text text-anchor="start" x="822.5" y="-384.94" font-family="Helvetica,sans-Serif" font-size="11.00">[table]</text>
<polygon fill="none" stroke="black" points="691.5,-354.74 691.5,-376.74 864.5,-376.74 864.5,-354.74 691.5,-354.74"/>
<image xlink:href="../../images/primaryKeys.png" width="11px" height="12px" preserveAspectRatio="xMinYMin meet" x="696.5" y="-371.742"/>
<text text-anchor="start" x="711.5" y="-362.94" font-family="Helvetica,sans-Serif" font-size="11.00">id</text>
<polygon fill="none" stroke="black" points="691.5,-332.74 691.5,-354.74 864.5,-354.74 864.5,-332.74 691.5,-332.74"/>
<image xlink:href="../../images/foreignKeys.png" width="11px" height="12px" preserveAspectRatio="xMinYMin meet" x="696.5" y="-349.742"/>
<text text-anchor="start" x="711.5" y="-340.94" font-family="Helvetica,sans-Serif" font-size="11.00">plot_id</text>
<polygon fill="none" stroke="black" points="691.5,-310.74 691.5,-332.74 864.5,-332.74 864.5,-310.74 691.5,-310.74"/>
<image xlink:href="../../images/foreignKeys.png" width="11px" height="12px" preserveAspectRatio="xMinYMin meet" x="696.5" y="-327.742"/>
<text text-anchor="start" x="711.5" y="-318.94" font-family="Helvetica,sans-Serif" font-size="11.00">tree_state</text>
<polygon fill="none" stroke="black" points="691.5,-288.74 691.5,-310.74 864.5,-310.74 864.5,-288.74 691.5,-288.74"/>
<image xlink:href="../../images/foreignKeys.png" width="11px" height="12px" preserveAspectRatio="xMinYMin meet" x="696.5" y="-305.742"/>
<text text-anchor="start" x="711.5" y="-296.94" font-family="Helvetica,sans-Serif" font-size="11.00">tree_species</text>
<polygon fill="none" stroke="black" points="691.5,-266.74 691.5,-288.74 864.5,-288.74 864.5,-266.74 691.5,-266.74"/>
<image xlink:href="../../images/foreignKeys.png" width="11px" height="12px" preserveAspectRatio="xMinYMin meet" x="696.5" y="-283.742"/>
<text text-anchor="start" x="711.5" y="-274.94" font-family="Helvetica,sans-Serif" font-size="11.00">stem_breakage</text>
<polygon fill="none" stroke="black" points="691.5,-244.74 691.5,-266.74 864.5,-266.74 864.5,-244.74 691.5,-244.74"/>
<image xlink:href="../../images/foreignKeys.png" width="11px" height="12px" preserveAspectRatio="xMinYMin meet" x="696.5" y="-261.742"/>
<text text-anchor="start" x="711.5" y="-252.94" font-family="Helvetica,sans-Serif" font-size="11.00">stem_form</text>
<polygon fill="none" stroke="black" points="691.5,-222.74 691.5,-244.74 864.5,-244.74 864.5,-222.74 691.5,-222.74"/>
<image xlink:href="../../images/foreignKeys.png" width="11px" height="12px" preserveAspectRatio="xMinYMin meet" x="696.5" y="-239.742"/>
<text text-anchor="start" x="711.5" y="-230.94" font-family="Helvetica,sans-Serif" font-size="11.00">pruning</text>
<polygon fill="none" stroke="black" points="691.5,-200.74 691.5,-222.74 864.5,-222.74 864.5,-200.74 691.5,-200.74"/>
<image xlink:href="../../images/foreignKeys.png" width="11px" height="12px" preserveAspectRatio="xMinYMin meet" x="696.5" y="-217.742"/>
<text text-anchor="start" x="711.5" y="-208.94" font-family="Helvetica,sans-Serif" font-size="11.00">inventory_layer</text>
<polygon fill="none" stroke="black" points="691.5,-182.74 691.5,-200.74 864.5,-200.74 864.5,-182.74 691.5,-182.74"/>
<text text-anchor="start" x="694.5" y="-188.94" font-family="Helvetica,sans-Serif" font-size="11.00">...</text>
<polygon fill="#ffffff" stroke="transparent" points="691.5,-164.74 691.5,-182.74 864.5,-182.74 864.5,-164.74 691.5,-164.74"/>
<polygon fill="none" stroke="black" points="691.5,-164.74 691.5,-182.74 864.5,-182.74 864.5,-164.74 691.5,-164.74"/>
<polygon fill="#ffffff" stroke="transparent" points="692.5,-165.74 692.5,-181.74 748.5,-181.74 748.5,-165.74 692.5,-165.74"/>
<text text-anchor="start" x="694.5" y="-170.94" font-family="Helvetica,sans-Serif" font-size="11.00">&lt; 7</text>
<polygon fill="#ffffff" stroke="transparent" points="748.5,-165.74 748.5,-181.74 820.5,-181.74 820.5,-165.74 748.5,-165.74"/>
<text text-anchor="start" x="766" y="-170.94" font-family="Helvetica,sans-Serif" font-size="11.00">0 rows</text>
<polygon fill="#ffffff" stroke="transparent" points="820.5,-165.74 820.5,-181.74 863.5,-181.74 863.5,-165.74 820.5,-165.74"/>
<text text-anchor="start" x="853.5" y="-170.94" font-family="Helvetica,sans-Serif" font-size="11.00"> &#160;</text>
<polygon fill="black" stroke="black" points="748.5,-165.74 748.5,-181.74 748.5,-181.74 748.5,-165.74 748.5,-165.74"/>
<polygon fill="black" stroke="black" points="820.5,-165.74 820.5,-181.74 820.5,-181.74 820.5,-165.74 820.5,-165.74"/>
</a>
</g>
</g>
<!-- wzp_tree&#45;&gt;plot -->
<g id="edge13" class="edge">
<title>wzp_tree:w&#45;&gt;plot:e</title>
<path fill="none" stroke="black" d="M676.6,-348.38C664.79,-359.22 669.86,-386.12 649,-397.74 597.1,-426.66 425.46,-383.18 383,-424.74 331,-475.65 415.77,-749.74 343,-749.74"/>
<polygon fill="black" stroke="black" points="682.91,-346.28 691.64,-347.16 686.71,-345.01 690.5,-343.74 690.5,-343.74 690.5,-343.74 686.71,-345.01 689.36,-340.33 682.91,-346.28 682.91,-346.28"/>
<ellipse fill="none" stroke="black" cx="679.88" cy="-347.29" rx="3.2" ry="3.2"/>
</g>
<!-- wzp_tree&#45;&gt;lookup_stand_layer -->
<g id="edge12" class="edge">
<title>wzp_tree:w&#45;&gt;lookup_stand_layer:e</title>
<path fill="none" stroke="black" d="M676.19,-209.19C642.04,-193.9 693.19,-114.02 649,-81.74 553.54,-12.01 485.23,-22.36 383,-81.74 238.33,-165.78 363.81,-408.74 196.5,-408.74"/>
<polygon fill="black" stroke="black" points="682.62,-210.34 689.87,-215.29 686.56,-211.04 690.5,-211.74 690.5,-211.74 690.5,-211.74 686.56,-211.04 691.13,-208.2 682.62,-210.34 682.62,-210.34"/>
<ellipse fill="none" stroke="black" cx="679.47" cy="-209.78" rx="3.2" ry="3.2"/>
</g>
<!-- wzp_tree&#45;&gt;lookup_tree_species -->
<g id="edge17" class="edge">
<title>wzp_tree:w&#45;&gt;lookup_tree_species:e</title>
<path fill="none" stroke="black" d="M676.88,-304.85C630.68,-346.19 707.66,-624.74 640,-624.74"/>
<polygon fill="black" stroke="black" points="683.01,-302.55 691.76,-303.11 686.75,-301.15 690.5,-299.74 690.5,-299.74 690.5,-299.74 686.75,-301.15 689.24,-296.37 683.01,-302.55 683.01,-302.55"/>
<ellipse fill="none" stroke="black" cx="680.01" cy="-303.67" rx="3.2" ry="3.2"/>
</g>
<!-- lookup_pruning -->
<g id="node10" class="node">
<title>lookup_pruning</title>
<g id="a_node10"><a xlink:href="../../tables/lookup_pruning.html" xlink:title="lookup_pruning" target="_top">
<polygon fill="#ffffff" stroke="transparent" points="436,-92.74 436,-150.74 596,-150.74 596,-92.74 436,-92.74"/>
<polygon fill="#f5f5f5" stroke="transparent" points="436,-128.74 436,-150.74 596,-150.74 596,-128.74 436,-128.74"/>
<polygon fill="none" stroke="black" points="436,-128.74 436,-150.74 596,-150.74 596,-128.74 436,-128.74"/>
<text text-anchor="start" x="441" y="-137.94" font-family="Helvetica,sans-Serif" font-weight="bold" font-size="11.00">lookup_pruning</text>
<text text-anchor="start" x="554" y="-136.94" font-family="Helvetica,sans-Serif" font-size="11.00">[table]</text>
<polygon fill="none" stroke="black" points="436,-110.74 436,-128.74 596,-128.74 596,-110.74 436,-110.74"/>
<text text-anchor="start" x="439" y="-116.94" font-family="Helvetica,sans-Serif" font-size="11.00">...</text>
<polygon fill="#ffffff" stroke="transparent" points="436,-92.74 436,-110.74 596,-110.74 596,-92.74 436,-92.74"/>
<polygon fill="none" stroke="black" points="436,-92.74 436,-110.74 596,-110.74 596,-92.74 436,-92.74"/>
<polygon fill="#ffffff" stroke="transparent" points="437,-93.74 437,-109.74 476,-109.74 476,-93.74 437,-93.74"/>
<text text-anchor="start" x="439" y="-98.94" font-family="Helvetica,sans-Serif" font-size="11.00"> &#160;</text>
<polygon fill="#ffffff" stroke="transparent" points="476,-93.74 476,-109.74 544,-109.74 544,-93.74 476,-93.74"/>
<text text-anchor="start" x="491.5" y="-98.94" font-family="Helvetica,sans-Serif" font-size="11.00">0 rows</text>
<polygon fill="#ffffff" stroke="transparent" points="544,-93.74 544,-109.74 595,-109.74 595,-93.74 544,-93.74"/>
<text text-anchor="start" x="573" y="-98.94" font-family="Helvetica,sans-Serif" font-size="11.00">1 &gt;</text>
<polygon fill="black" stroke="black" points="476,-93.74 476,-109.74 476,-109.74 476,-93.74 476,-93.74"/>
<polygon fill="black" stroke="black" points="544,-93.74 544,-109.74 544,-109.74 544,-93.74 544,-93.74"/>
</a>
</g>
</g>
<!-- wzp_tree&#45;&gt;lookup_pruning -->
<g id="edge14" class="edge">
<title>wzp_tree:w&#45;&gt;lookup_pruning:e</title>
<path fill="none" stroke="black" d="M676.32,-230.4C658.59,-219.52 669.34,-184.4 649,-160.74 629.82,-138.42 626.43,-119.74 597,-119.74"/>
<polygon fill="black" stroke="black" points="682.71,-231.91 689.67,-237.25 686.61,-232.83 690.5,-233.74 690.5,-233.74 690.5,-233.74 686.61,-232.83 691.33,-230.24 682.71,-231.91 682.71,-231.91"/>
<ellipse fill="none" stroke="black" cx="679.6" cy="-231.17" rx="3.2" ry="3.2"/>
</g>
<!-- lookup_stem_breakage -->
<g id="node11" class="node">
<title>lookup_stem_breakage</title>
<g id="a_node11"><a xlink:href="../../tables/lookup_stem_breakage.html" xlink:title="lookup_stem_breakage" target="_top">
<polygon fill="#ffffff" stroke="transparent" points="409,-250.74 409,-308.74 623,-308.74 623,-250.74 409,-250.74"/>
<polygon fill="#f5f5f5" stroke="transparent" points="409,-286.74 409,-308.74 623,-308.74 623,-286.74 409,-286.74"/>
<polygon fill="none" stroke="black" points="409,-286.74 409,-308.74 623,-308.74 623,-286.74 409,-286.74"/>
<text text-anchor="start" x="414" y="-295.94" font-family="Helvetica,sans-Serif" font-weight="bold" font-size="11.00">lookup_stem_breakage</text>
<text text-anchor="start" x="581" y="-294.94" font-family="Helvetica,sans-Serif" font-size="11.00">[table]</text>
<polygon fill="none" stroke="black" points="409,-268.74 409,-286.74 623,-286.74 623,-268.74 409,-268.74"/>
<text text-anchor="start" x="412" y="-274.94" font-family="Helvetica,sans-Serif" font-size="11.00">...</text>
<polygon fill="#ffffff" stroke="transparent" points="409,-250.74 409,-268.74 623,-268.74 623,-250.74 409,-250.74"/>
<polygon fill="none" stroke="black" points="409,-250.74 409,-268.74 623,-268.74 623,-250.74 409,-250.74"/>
<polygon fill="#ffffff" stroke="transparent" points="410,-251.74 410,-267.74 467,-267.74 467,-251.74 410,-251.74"/>
<text text-anchor="start" x="412" y="-256.94" font-family="Helvetica,sans-Serif" font-size="11.00"> &#160;</text>
<polygon fill="#ffffff" stroke="transparent" points="467,-251.74 467,-267.74 553,-267.74 553,-251.74 467,-251.74"/>
<text text-anchor="start" x="491.5" y="-256.94" font-family="Helvetica,sans-Serif" font-size="11.00">0 rows</text>
<polygon fill="#ffffff" stroke="transparent" points="553,-251.74 553,-267.74 622,-267.74 622,-251.74 553,-251.74"/>
<text text-anchor="start" x="600" y="-256.94" font-family="Helvetica,sans-Serif" font-size="11.00">1 &gt;</text>
<polygon fill="black" stroke="black" points="467,-251.74 467,-267.74 467,-267.74 467,-251.74 467,-251.74"/>
<polygon fill="black" stroke="black" points="553,-251.74 553,-267.74 553,-267.74 553,-251.74 553,-251.74"/>
</a>
</g>
</g>
<!-- wzp_tree&#45;&gt;lookup_stem_breakage -->
<g id="edge15" class="edge">
<title>wzp_tree:w&#45;&gt;lookup_stem_breakage:e</title>
<path fill="none" stroke="black" d="M675.92,-277.74C657.39,-277.74 648.01,-277.74 624,-277.74"/>
<polygon fill="black" stroke="black" points="682.5,-277.74 690.5,-281.34 686.5,-277.74 690.5,-277.74 690.5,-277.74 690.5,-277.74 686.5,-277.74 690.5,-274.14 682.5,-277.74 682.5,-277.74"/>
<ellipse fill="none" stroke="black" cx="679.3" cy="-277.74" rx="3.2" ry="3.2"/>
</g>
<!-- lookup_stem_form -->
<g id="node12" class="node">
<title>lookup_stem_form</title>
<g id="a_node12"><a xlink:href="../../tables/lookup_stem_form.html" xlink:title="lookup_stem_form" target="_top">
<polygon fill="#ffffff" stroke="transparent" points="426,-171.74 426,-229.74 606,-229.74 606,-171.74 426,-171.74"/>
<polygon fill="#f5f5f5" stroke="transparent" points="426,-207.74 426,-229.74 606,-229.74 606,-207.74 426,-207.74"/>
<polygon fill="none" stroke="black" points="426,-207.74 426,-229.74 606,-229.74 606,-207.74 426,-207.74"/>
<text text-anchor="start" x="431" y="-216.94" font-family="Helvetica,sans-Serif" font-weight="bold" font-size="11.00">lookup_stem_form</text>
<text text-anchor="start" x="564" y="-215.94" font-family="Helvetica,sans-Serif" font-size="11.00">[table]</text>
<polygon fill="none" stroke="black" points="426,-189.74 426,-207.74 606,-207.74 606,-189.74 426,-189.74"/>
<text text-anchor="start" x="429" y="-195.94" font-family="Helvetica,sans-Serif" font-size="11.00">...</text>
<polygon fill="#ffffff" stroke="transparent" points="426,-171.74 426,-189.74 606,-189.74 606,-171.74 426,-171.74"/>
<polygon fill="none" stroke="black" points="426,-171.74 426,-189.74 606,-189.74 606,-171.74 426,-171.74"/>
<polygon fill="#ffffff" stroke="transparent" points="427,-172.74 427,-188.74 473,-188.74 473,-172.74 427,-172.74"/>
<text text-anchor="start" x="429" y="-177.94" font-family="Helvetica,sans-Serif" font-size="11.00"> &#160;</text>
<polygon fill="#ffffff" stroke="transparent" points="473,-172.74 473,-188.74 548,-188.74 548,-172.74 473,-172.74"/>
<text text-anchor="start" x="492" y="-177.94" font-family="Helvetica,sans-Serif" font-size="11.00">0 rows</text>
<polygon fill="#ffffff" stroke="transparent" points="548,-172.74 548,-188.74 605,-188.74 605,-172.74 548,-172.74"/>
<text text-anchor="start" x="583" y="-177.94" font-family="Helvetica,sans-Serif" font-size="11.00">1 &gt;</text>
<polygon fill="black" stroke="black" points="473,-172.74 473,-188.74 473,-188.74 473,-172.74 473,-172.74"/>
<polygon fill="black" stroke="black" points="548,-172.74 548,-188.74 548,-188.74 548,-172.74 548,-172.74"/>
</a>
</g>
</g>
<!-- wzp_tree&#45;&gt;lookup_stem_form -->
<g id="edge16" class="edge">
<title>wzp_tree:w&#45;&gt;lookup_stem_form:e</title>
<path fill="none" stroke="black" d="M676.25,-253.44C646.36,-242.77 646.49,-198.74 607,-198.74"/>
<polygon fill="black" stroke="black" points="682.6,-254.46 689.93,-259.3 686.55,-255.1 690.5,-255.74 690.5,-255.74 690.5,-255.74 686.55,-255.1 691.07,-252.19 682.6,-254.46 682.6,-254.46"/>
<ellipse fill="none" stroke="black" cx="679.44" cy="-253.95" rx="3.2" ry="3.2"/>
</g>
<!-- lookup_tree_state -->
<g id="node13" class="node">
<title>lookup_tree_state</title>
<g id="a_node13"><a xlink:href="../../tables/lookup_tree_state.html" xlink:title="lookup_tree_state" target="_top">
<polygon fill="#ffffff" stroke="transparent" points="427.5,-329.74 427.5,-387.74 604.5,-387.74 604.5,-329.74 427.5,-329.74"/>
<polygon fill="#f5f5f5" stroke="transparent" points="428,-365.74 428,-387.74 605,-387.74 605,-365.74 428,-365.74"/>
<polygon fill="none" stroke="black" points="428,-365.74 428,-387.74 605,-387.74 605,-365.74 428,-365.74"/>
<text text-anchor="start" x="433" y="-374.94" font-family="Helvetica,sans-Serif" font-weight="bold" font-size="11.00">lookup_tree_state</text>
<text text-anchor="start" x="563" y="-373.94" font-family="Helvetica,sans-Serif" font-size="11.00">[table]</text>
<polygon fill="none" stroke="black" points="428,-347.74 428,-365.74 605,-365.74 605,-347.74 428,-347.74"/>
<text text-anchor="start" x="431" y="-353.94" font-family="Helvetica,sans-Serif" font-size="11.00">...</text>
<polygon fill="#ffffff" stroke="transparent" points="428,-329.74 428,-347.74 605,-347.74 605,-329.74 428,-329.74"/>
<polygon fill="none" stroke="black" points="428,-329.74 428,-347.74 605,-347.74 605,-329.74 428,-329.74"/>
<polygon fill="#ffffff" stroke="transparent" points="429,-330.74 429,-346.74 474,-346.74 474,-330.74 429,-330.74"/>
<text text-anchor="start" x="431" y="-335.94" font-family="Helvetica,sans-Serif" font-size="11.00"> &#160;</text>
<polygon fill="#ffffff" stroke="transparent" points="474,-330.74 474,-346.74 548,-346.74 548,-330.74 474,-330.74"/>
<text text-anchor="start" x="492.5" y="-335.94" font-family="Helvetica,sans-Serif" font-size="11.00">0 rows</text>
<polygon fill="#ffffff" stroke="transparent" points="548,-330.74 548,-346.74 604,-346.74 604,-330.74 548,-330.74"/>
<text text-anchor="start" x="582" y="-335.94" font-family="Helvetica,sans-Serif" font-size="11.00">1 &gt;</text>
<polygon fill="black" stroke="black" points="474,-330.74 474,-346.74 474,-346.74 474,-330.74 474,-330.74"/>
<polygon fill="black" stroke="black" points="548,-330.74 548,-346.74 548,-346.74 548,-330.74 548,-330.74"/>
</a>
</g>
</g>
<!-- wzp_tree&#45;&gt;lookup_tree_state -->
<g id="edge18" class="edge">
<title>wzp_tree:w&#45;&gt;lookup_tree_state:e</title>
<path fill="none" stroke="black" d="M676.11,-323.43C648.34,-330.42 641.25,-356.74 606,-356.74"/>
<polygon fill="black" stroke="black" points="682.55,-322.67 690.92,-325.32 686.53,-322.21 690.5,-321.74 690.5,-321.74 690.5,-321.74 686.53,-322.21 690.08,-318.17 682.55,-322.67 682.55,-322.67"/>
<ellipse fill="none" stroke="black" cx="679.38" cy="-323.05" rx="3.2" ry="3.2"/>
</g>
</g>
</svg>
