<?xml version="1.0" encoding="UTF-8" standalone="no"?>
<!DOCTYPE svg PUBLIC "-//W3C//DTD SVG 1.1//EN"
 "http://www.w3.org/Graphics/SVG/1.1/DTD/svg11.dtd">
<!-- Generated by graphviz version 2.43.0 (0)
 -->
<!-- Title: oneDegreeRelationshipsDiagram Pages: 1 -->
<svg width="753pt" height="661pt"
 viewBox="0.00 0.00 753.00 661.00" xmlns="http://www.w3.org/2000/svg" xmlns:xlink="http://www.w3.org/1999/xlink">
<g id="graph0" class="graph" transform="scale(1 1) rotate(0) translate(4 657)">
<title>oneDegreeRelationshipsDiagram</title>
<polygon fill="#ffffff" stroke="transparent" points="-4,4 -4,-657 749,-657 749,4 -4,4"/>
<text text-anchor="middle" x="79.5" y="-7.2" font-family="Helvetica,sans-Serif" font-size="11.00">Generated by SchemaSpy</text>
<!-- regeneration -->
<g id="node1" class="node">
<title>regeneration</title>
<g id="a_node1"><a xlink:href="../../tables/regeneration.html" xlink:title="regeneration" target="_top">
<polygon fill="#ffffff" stroke="transparent" points="562,-459 562,-649 737,-649 737,-459 562,-459"/>
<polygon fill="#f5f5f5" stroke="transparent" points="562.5,-627 562.5,-649 737.5,-649 737.5,-627 562.5,-627"/>
<polygon fill="none" stroke="black" points="562.5,-627 562.5,-649 737.5,-649 737.5,-627 562.5,-627"/>
<text text-anchor="start" x="567.5" y="-636.2" font-family="Helvetica,sans-Serif" font-weight="bold" font-size="11.00">regeneration</text>
<text text-anchor="start" x="695.5" y="-635.2" font-family="Helvetica,sans-Serif" font-size="11.00">[table]</text>
<polygon fill="none" stroke="black" points="562.5,-605 562.5,-627 737.5,-627 737.5,-605 562.5,-605"/>
<image xlink:href="../../images/primaryKeys.png" width="11px" height="12px" preserveAspectRatio="xMinYMin meet" x="567.5" y="-622"/>
<text text-anchor="start" x="582.5" y="-613.2" font-family="Helvetica,sans-Serif" font-size="11.00">id</text>
<polygon fill="none" stroke="black" points="562.5,-583 562.5,-605 737.5,-605 737.5,-583 562.5,-583"/>
<image xlink:href="../../images/foreignKeys.png" width="11px" height="12px" preserveAspectRatio="xMinYMin meet" x="567.5" y="-600"/>
<text text-anchor="start" x="582.5" y="-591.2" font-family="Helvetica,sans-Serif" font-size="11.00">plot_id</text>
<polygon fill="none" stroke="black" points="562.5,-561 562.5,-583 737.5,-583 737.5,-561 562.5,-561"/>
<image xlink:href="../../images/foreignKeys.png" width="11px" height="12px" preserveAspectRatio="xMinYMin meet" x="567.5" y="-578"/>
<text text-anchor="start" x="582.5" y="-569.2" font-family="Helvetica,sans-Serif" font-size="11.00">plot_location_id</text>
<polygon fill="none" stroke="black" points="562.5,-539 562.5,-561 737.5,-561 737.5,-539 562.5,-539"/>
<image xlink:href="../../images/foreignKeys.png" width="11px" height="12px" preserveAspectRatio="xMinYMin meet" x="567.5" y="-556"/>
<text text-anchor="start" x="582.5" y="-547.2" font-family="Helvetica,sans-Serif" font-size="11.00">tree_species</text>
<polygon fill="none" stroke="black" points="562.5,-517 562.5,-539 737.5,-539 737.5,-517 562.5,-517"/>
<image xlink:href="../../images/foreignKeys.png" width="11px" height="12px" preserveAspectRatio="xMinYMin meet" x="567.5" y="-534"/>
<text text-anchor="start" x="582.5" y="-525.2" font-family="Helvetica,sans-Serif" font-size="11.00">browsing</text>
<polygon fill="none" stroke="black" points="562.5,-495 562.5,-517 737.5,-517 737.5,-495 562.5,-495"/>
<image xlink:href="../../images/foreignKeys.png" width="11px" height="12px" preserveAspectRatio="xMinYMin meet" x="567.5" y="-512"/>
<text text-anchor="start" x="582.5" y="-503.2" font-family="Helvetica,sans-Serif" font-size="11.00">tree_size_class</text>
<polygon fill="none" stroke="black" points="562.5,-477 562.5,-495 737.5,-495 737.5,-477 562.5,-477"/>
<text text-anchor="start" x="565.5" y="-483.2" font-family="Helvetica,sans-Serif" font-size="11.00">...</text>
<polygon fill="#ffffff" stroke="transparent" points="562.5,-459 562.5,-477 737.5,-477 737.5,-459 562.5,-459"/>
<polygon fill="none" stroke="black" points="562.5,-459 562.5,-477 737.5,-477 737.5,-459 562.5,-459"/>
<polygon fill="#ffffff" stroke="transparent" points="563.5,-460 563.5,-476 619.5,-476 619.5,-460 563.5,-460"/>
<text text-anchor="start" x="565.5" y="-465.2" font-family="Helvetica,sans-Serif" font-size="11.00">&lt; 5</text>
<polygon fill="#ffffff" stroke="transparent" points="619.5,-460 619.5,-476 692.5,-476 692.5,-460 619.5,-460"/>
<text text-anchor="start" x="637.5" y="-465.2" font-family="Helvetica,sans-Serif" font-size="11.00">0 rows</text>
<polygon fill="#ffffff" stroke="transparent" points="692.5,-460 692.5,-476 736.5,-476 736.5,-460 692.5,-460"/>
<text text-anchor="start" x="726.5" y="-465.2" font-family="Helvetica,sans-Serif" font-size="11.00"> &#160;</text>
<polygon fill="black" stroke="black" points="619.5,-460 619.5,-476 619.5,-476 619.5,-460 619.5,-460"/>
<polygon fill="black" stroke="black" points="692.5,-460 692.5,-476 692.5,-476 692.5,-460 692.5,-460"/>
</a>
</g>
</g>
<!-- lookup_tree_species -->
<g id="node2" class="node">
<title>lookup_tree_species</title>
<g id="a_node2"><a xlink:href="../../tables/lookup_tree_species.html" xlink:title="lookup_tree_species" target="_top">
<polygon fill="#ffffff" stroke="transparent" points="8,-308 8,-462 513,-462 513,-308 8,-308"/>
<polygon fill="#f5f5f5" stroke="transparent" points="10.5,-438 10.5,-460 511.5,-460 511.5,-438 10.5,-438"/>
<polygon fill="none" stroke="black" points="10.5,-438 10.5,-460 511.5,-460 511.5,-438 10.5,-438"/>
<text text-anchor="start" x="15.5" y="-447.2" font-family="Helvetica,sans-Serif" font-weight="bold" font-size="11.00">lookup_tree_species</text>
<text text-anchor="start" x="469.5" y="-446.2" font-family="Helvetica,sans-Serif" font-size="11.00">[table]</text>
<polygon fill="none" stroke="black" points="10.5,-416 10.5,-438 178.5,-438 178.5,-416 10.5,-416"/>
<text text-anchor="start" x="30.5" y="-424.2" font-family="Helvetica,sans-Serif" font-size="11.00">name_de</text>
<polygon fill="none" stroke="black" points="178.5,-416 178.5,-438 511.5,-438 511.5,-416 178.5,-416"/>
<text text-anchor="start" x="181.5" y="-424.2" font-family="Helvetica,sans-Serif" font-size="11.00">varchar[150]</text>
<polygon fill="none" stroke="black" points="10.5,-394 10.5,-416 178.5,-416 178.5,-394 10.5,-394"/>
<text text-anchor="start" x="30.5" y="-402.2" font-family="Helvetica,sans-Serif" font-size="11.00">name_en</text>
<polygon fill="none" stroke="black" points="178.5,-394 178.5,-416 511.5,-416 511.5,-394 178.5,-394"/>
<text text-anchor="start" x="181.5" y="-402.2" font-family="Helvetica,sans-Serif" font-size="11.00">varchar[150]</text>
<polygon fill="none" stroke="black" points="10.5,-372 10.5,-394 178.5,-394 178.5,-372 10.5,-372"/>
<text text-anchor="start" x="30.5" y="-380.2" font-family="Helvetica,sans-Serif" font-size="11.00">interval</text>
<polygon fill="none" stroke="black" points="178.5,-372 178.5,-394 511.5,-394 511.5,-372 178.5,-372"/>
<text text-anchor="start" x="181.5" y="-380.2" font-family="Helvetica,sans-Serif" font-size="11.00">&quot;private_ci2027_001&quot;.&quot;_enum_interval_name&quot;[2147483647]</text>
<polygon fill="none" stroke="black" points="10.5,-350 10.5,-372 178.5,-372 178.5,-350 10.5,-350"/>
<text text-anchor="start" x="30.5" y="-358.2" font-family="Helvetica,sans-Serif" font-size="11.00">sort</text>
<polygon fill="none" stroke="black" points="178.5,-350 178.5,-372 511.5,-372 511.5,-350 178.5,-350"/>
<text text-anchor="start" x="181.5" y="-358.2" font-family="Helvetica,sans-Serif" font-size="11.00">int4[10]</text>
<polygon fill="#ffffff" stroke="transparent" points="10.5,-328 10.5,-350 178.5,-350 178.5,-328 10.5,-328"/>
<polygon fill="none" stroke="black" points="10.5,-328 10.5,-350 178.5,-350 178.5,-328 10.5,-328"/>
<text text-anchor="start" x="30.5" y="-336.2" font-family="Helvetica,sans-Serif" font-size="11.00">abbreviation</text>
<polygon fill="none" stroke="black" points="178.5,-328 178.5,-350 511.5,-350 511.5,-328 178.5,-328"/>
<text text-anchor="start" x="181.5" y="-336.2" font-family="Helvetica,sans-Serif" font-size="11.00">int2[5]</text>
<polygon fill="#ffffff" stroke="transparent" points="10.5,-310 10.5,-328 511.5,-328 511.5,-310 10.5,-310"/>
<polygon fill="none" stroke="black" points="10.5,-310 10.5,-328 511.5,-328 511.5,-310 10.5,-310"/>
<polygon fill="#ffffff" stroke="transparent" points="11.5,-311 11.5,-327 167.5,-327 167.5,-311 11.5,-311"/>
<text text-anchor="start" x="13.5" y="-316.2" font-family="Helvetica,sans-Serif" font-size="11.00">&lt; 0</text>
<polygon fill="#ffffff" stroke="transparent" points="167.5,-311 167.5,-327 354.5,-327 354.5,-311 167.5,-311"/>
<text text-anchor="start" x="235.5" y="-316.2" font-family="Helvetica,sans-Serif" font-size="11.00">125 rows</text>
<polygon fill="#ffffff" stroke="transparent" points="354.5,-311 354.5,-327 510.5,-327 510.5,-311 354.5,-311"/>
<text text-anchor="start" x="488.5" y="-316.2" font-family="Helvetica,sans-Serif" font-size="11.00">3 &gt;</text>
<polygon fill="black" stroke="black" points="167.5,-311 167.5,-327 167.5,-327 167.5,-311 167.5,-311"/>
<polygon fill="black" stroke="black" points="354.5,-311 354.5,-327 354.5,-327 354.5,-311 354.5,-311"/>
<polygon fill="none" stroke="black" stroke-width="2" points="9,-309 9,-461 512,-461 512,-309 9,-309"/>
</a>
</g>
</g>
<!-- regeneration&#45;&gt;lookup_tree_species -->
<g id="edge1" class="edge">
<title>regeneration:w&#45;&gt;lookup_tree_species:e</title>
<path fill="none" stroke="black" d="M546.95,-547.91C481.23,-526 603.13,-339 512.5,-339"/>
<polygon fill="black" stroke="black" points="553.58,-548.86 560.99,-553.56 557.54,-549.43 561.5,-550 561.5,-550 561.5,-550 557.54,-549.43 562.01,-546.44 553.58,-548.86 553.58,-548.86"/>
<ellipse fill="none" stroke="black" cx="550.41" cy="-548.41" rx="3.2" ry="3.2"/>
</g>
<!-- structure_lt4m -->
<g id="node3" class="node">
<title>structure_lt4m</title>
<g id="a_node3"><a xlink:href="../../tables/structure_lt4m.html" xlink:title="structure_lt4m" target="_top">
<polygon fill="#ffffff" stroke="transparent" points="572,-292 572,-438 727,-438 727,-292 572,-292"/>
<polygon fill="#f5f5f5" stroke="transparent" points="572.5,-416 572.5,-438 727.5,-438 727.5,-416 572.5,-416"/>
<polygon fill="none" stroke="black" points="572.5,-416 572.5,-438 727.5,-438 727.5,-416 572.5,-416"/>
<text text-anchor="start" x="577.5" y="-425.2" font-family="Helvetica,sans-Serif" font-weight="bold" font-size="11.00">structure_lt4m</text>
<text text-anchor="start" x="685.5" y="-424.2" font-family="Helvetica,sans-Serif" font-size="11.00">[table]</text>
<polygon fill="none" stroke="black" points="572.5,-394 572.5,-416 727.5,-416 727.5,-394 572.5,-394"/>
<image xlink:href="../../images/primaryKeys.png" width="11px" height="12px" preserveAspectRatio="xMinYMin meet" x="577.5" y="-411"/>
<text text-anchor="start" x="592.5" y="-402.2" font-family="Helvetica,sans-Serif" font-size="11.00">id</text>
<polygon fill="none" stroke="black" points="572.5,-372 572.5,-394 727.5,-394 727.5,-372 572.5,-372"/>
<image xlink:href="../../images/foreignKeys.png" width="11px" height="12px" preserveAspectRatio="xMinYMin meet" x="577.5" y="-389"/>
<text text-anchor="start" x="592.5" y="-380.2" font-family="Helvetica,sans-Serif" font-size="11.00">plot_id</text>
<polygon fill="none" stroke="black" points="572.5,-350 572.5,-372 727.5,-372 727.5,-350 572.5,-350"/>
<image xlink:href="../../images/foreignKeys.png" width="11px" height="12px" preserveAspectRatio="xMinYMin meet" x="577.5" y="-367"/>
<text text-anchor="start" x="592.5" y="-358.2" font-family="Helvetica,sans-Serif" font-size="11.00">plot_location_id</text>
<polygon fill="none" stroke="black" points="572.5,-328 572.5,-350 727.5,-350 727.5,-328 572.5,-328"/>
<image xlink:href="../../images/foreignKeys.png" width="11px" height="12px" preserveAspectRatio="xMinYMin meet" x="577.5" y="-345"/>
<text text-anchor="start" x="592.5" y="-336.2" font-family="Helvetica,sans-Serif" font-size="11.00">tree_species</text>
<polygon fill="none" stroke="black" points="572.5,-310 572.5,-328 727.5,-328 727.5,-310 572.5,-310"/>
<text text-anchor="start" x="575.5" y="-316.2" font-family="Helvetica,sans-Serif" font-size="11.00">...</text>
<polygon fill="#ffffff" stroke="transparent" points="572.5,-292 572.5,-310 727.5,-310 727.5,-292 572.5,-292"/>
<polygon fill="none" stroke="black" points="572.5,-292 572.5,-310 727.5,-310 727.5,-292 572.5,-292"/>
<polygon fill="#ffffff" stroke="transparent" points="573.5,-293 573.5,-309 623.5,-309 623.5,-293 573.5,-293"/>
<text text-anchor="start" x="575.5" y="-298.2" font-family="Helvetica,sans-Serif" font-size="11.00">&lt; 3</text>
<polygon fill="#ffffff" stroke="transparent" points="623.5,-293 623.5,-309 689.5,-309 689.5,-293 623.5,-293"/>
<text text-anchor="start" x="638" y="-298.2" font-family="Helvetica,sans-Serif" font-size="11.00">0 rows</text>
<polygon fill="#ffffff" stroke="transparent" points="689.5,-293 689.5,-309 726.5,-309 726.5,-293 689.5,-293"/>
<text text-anchor="start" x="716.5" y="-298.2" font-family="Helvetica,sans-Serif" font-size="11.00"> &#160;</text>
<polygon fill="black" stroke="black" points="623.5,-293 623.5,-309 623.5,-309 623.5,-293 623.5,-293"/>
<polygon fill="black" stroke="black" points="689.5,-293 689.5,-309 689.5,-309 689.5,-293 689.5,-293"/>
</a>
</g>
</g>
<!-- structure_lt4m&#45;&gt;lookup_tree_species -->
<g id="edge2" class="edge">
<title>structure_lt4m:w&#45;&gt;lookup_tree_species:e</title>
<path fill="none" stroke="black" d="M556.7,-339C541.47,-339 532.99,-339 512.5,-339"/>
<polygon fill="black" stroke="black" points="563.5,-339 571.5,-342.6 567.5,-339 571.5,-339 571.5,-339 571.5,-339 567.5,-339 571.5,-335.4 563.5,-339 563.5,-339"/>
<ellipse fill="none" stroke="black" cx="560.3" cy="-339" rx="3.2" ry="3.2"/>
</g>
<!-- wzp_tree -->
<g id="node4" class="node">
<title>wzp_tree</title>
<g id="a_node4"><a xlink:href="../../tables/wzp_tree.html" xlink:title="wzp_tree" target="_top">
<polygon fill="#ffffff" stroke="transparent" points="563,-37 563,-271 736,-271 736,-37 563,-37"/>
<polygon fill="#f5f5f5" stroke="transparent" points="563.5,-249 563.5,-271 736.5,-271 736.5,-249 563.5,-249"/>
<polygon fill="none" stroke="black" points="563.5,-249 563.5,-271 736.5,-271 736.5,-249 563.5,-249"/>
<text text-anchor="start" x="568.5" y="-258.2" font-family="Helvetica,sans-Serif" font-weight="bold" font-size="11.00">wzp_tree</text>
<text text-anchor="start" x="694.5" y="-257.2" font-family="Helvetica,sans-Serif" font-size="11.00">[table]</text>
<polygon fill="none" stroke="black" points="563.5,-227 563.5,-249 736.5,-249 736.5,-227 563.5,-227"/>
<image xlink:href="../../images/primaryKeys.png" width="11px" height="12px" preserveAspectRatio="xMinYMin meet" x="568.5" y="-244"/>
<text text-anchor="start" x="583.5" y="-235.2" font-family="Helvetica,sans-Serif" font-size="11.00">id</text>
<polygon fill="none" stroke="black" points="563.5,-205 563.5,-227 736.5,-227 736.5,-205 563.5,-205"/>
<image xlink:href="../../images/foreignKeys.png" width="11px" height="12px" preserveAspectRatio="xMinYMin meet" x="568.5" y="-222"/>
<text text-anchor="start" x="583.5" y="-213.2" font-family="Helvetica,sans-Serif" font-size="11.00">plot_id</text>
<polygon fill="none" stroke="black" points="563.5,-183 563.5,-205 736.5,-205 736.5,-183 563.5,-183"/>
<image xlink:href="../../images/foreignKeys.png" width="11px" height="12px" preserveAspectRatio="xMinYMin meet" x="568.5" y="-200"/>
<text text-anchor="start" x="583.5" y="-191.2" font-family="Helvetica,sans-Serif" font-size="11.00">tree_status</text>
<polygon fill="none" stroke="black" points="563.5,-161 563.5,-183 736.5,-183 736.5,-161 563.5,-161"/>
<image xlink:href="../../images/foreignKeys.png" width="11px" height="12px" preserveAspectRatio="xMinYMin meet" x="568.5" y="-178"/>
<text text-anchor="start" x="583.5" y="-169.2" font-family="Helvetica,sans-Serif" font-size="11.00">tree_species</text>
<polygon fill="none" stroke="black" points="563.5,-139 563.5,-161 736.5,-161 736.5,-139 563.5,-139"/>
<image xlink:href="../../images/foreignKeys.png" width="11px" height="12px" preserveAspectRatio="xMinYMin meet" x="568.5" y="-156"/>
<text text-anchor="start" x="583.5" y="-147.2" font-family="Helvetica,sans-Serif" font-size="11.00">stem_breakage</text>
<polygon fill="none" stroke="black" points="563.5,-117 563.5,-139 736.5,-139 736.5,-117 563.5,-117"/>
<image xlink:href="../../images/foreignKeys.png" width="11px" height="12px" preserveAspectRatio="xMinYMin meet" x="568.5" y="-134"/>
<text text-anchor="start" x="583.5" y="-125.2" font-family="Helvetica,sans-Serif" font-size="11.00">stem_form</text>
<polygon fill="none" stroke="black" points="563.5,-95 563.5,-117 736.5,-117 736.5,-95 563.5,-95"/>
<image xlink:href="../../images/foreignKeys.png" width="11px" height="12px" preserveAspectRatio="xMinYMin meet" x="568.5" y="-112"/>
<text text-anchor="start" x="583.5" y="-103.2" font-family="Helvetica,sans-Serif" font-size="11.00">pruning</text>
<polygon fill="none" stroke="black" points="563.5,-73 563.5,-95 736.5,-95 736.5,-73 563.5,-73"/>
<image xlink:href="../../images/foreignKeys.png" width="11px" height="12px" preserveAspectRatio="xMinYMin meet" x="568.5" y="-90"/>
<text text-anchor="start" x="583.5" y="-81.2" font-family="Helvetica,sans-Serif" font-size="11.00">stand_layer</text>
<polygon fill="none" stroke="black" points="563.5,-55 563.5,-73 736.5,-73 736.5,-55 563.5,-55"/>
<text text-anchor="start" x="566.5" y="-61.2" font-family="Helvetica,sans-Serif" font-size="11.00">...</text>
<polygon fill="#ffffff" stroke="transparent" points="563.5,-37 563.5,-55 736.5,-55 736.5,-37 563.5,-37"/>
<polygon fill="none" stroke="black" points="563.5,-37 563.5,-55 736.5,-55 736.5,-37 563.5,-37"/>
<polygon fill="#ffffff" stroke="transparent" points="564.5,-38 564.5,-54 620.5,-54 620.5,-38 564.5,-38"/>
<text text-anchor="start" x="566.5" y="-43.2" font-family="Helvetica,sans-Serif" font-size="11.00">&lt; 7</text>
<polygon fill="#ffffff" stroke="transparent" points="620.5,-38 620.5,-54 692.5,-54 692.5,-38 620.5,-38"/>
<text text-anchor="start" x="638" y="-43.2" font-family="Helvetica,sans-Serif" font-size="11.00">0 rows</text>
<polygon fill="#ffffff" stroke="transparent" points="692.5,-38 692.5,-54 735.5,-54 735.5,-38 692.5,-38"/>
<text text-anchor="start" x="725.5" y="-43.2" font-family="Helvetica,sans-Serif" font-size="11.00"> &#160;</text>
<polygon fill="black" stroke="black" points="620.5,-38 620.5,-54 620.5,-54 620.5,-38 620.5,-38"/>
<polygon fill="black" stroke="black" points="692.5,-38 692.5,-54 692.5,-54 692.5,-38 692.5,-38"/>
</a>
</g>
</g>
<!-- wzp_tree&#45;&gt;lookup_tree_species -->
<g id="edge3" class="edge">
<title>wzp_tree:w&#45;&gt;lookup_tree_species:e</title>
<path fill="none" stroke="black" d="M548.11,-174.62C499.6,-195.87 584.23,-339 512.5,-339"/>
<polygon fill="black" stroke="black" points="554.63,-173.44 563.15,-175.54 558.56,-172.72 562.5,-172 562.5,-172 562.5,-172 558.56,-172.72 561.85,-168.46 554.63,-173.44 554.63,-173.44"/>
<ellipse fill="none" stroke="black" cx="551.48" cy="-174.01" rx="3.2" ry="3.2"/>
</g>
</g>
</svg>
