<?xml version="1.0" encoding="UTF-8" standalone="no"?>
<!DOCTYPE svg PUBLIC "-//W3C//DTD SVG 1.1//EN"
 "http://www.w3.org/Graphics/SVG/1.1/DTD/svg11.dtd">
<!-- Generated by graphviz version 2.43.0 (0)
 -->
<!-- Title: oneDegreeRelationshipsDiagram Pages: 1 -->
<svg width="528pt" height="203pt"
 viewBox="0.00 0.00 528.00 203.00" xmlns="http://www.w3.org/2000/svg" xmlns:xlink="http://www.w3.org/1999/xlink">
<g id="graph0" class="graph" transform="scale(1 1) rotate(0) translate(4 199)">
<title>oneDegreeRelationshipsDiagram</title>
<polygon fill="#ffffff" stroke="transparent" points="-4,4 -4,-199 524,-199 524,4 -4,4"/>
<text text-anchor="middle" x="79.5" y="-7.2" font-family="Helvetica,sans-Serif" font-size="11.00">Generated by SchemaSpy</text>
<!-- lookup_grid_density -->
<g id="node1" class="node">
<title>lookup_grid_density</title>
<g id="a_node1"><a xlink:href="../../tables/lookup_grid_density.html" xlink:title="lookup_grid_density" target="_top">
<polygon fill="#ffffff" stroke="transparent" points="8,-37 8,-191 512,-191 512,-37 8,-37"/>
<polygon fill="#f5f5f5" stroke="transparent" points="10,-167 10,-189 510,-189 510,-167 10,-167"/>
<polygon fill="none" stroke="black" points="10,-167 10,-189 510,-189 510,-167 10,-167"/>
<text text-anchor="start" x="15" y="-176.2" font-family="Helvetica,sans-Serif" font-weight="bold" font-size="11.00">lookup_grid_density</text>
<text text-anchor="start" x="468" y="-175.2" font-family="Helvetica,sans-Serif" font-size="11.00">[table]</text>
<polygon fill="none" stroke="black" points="10,-145 10,-167 177,-167 177,-145 10,-145"/>
<text text-anchor="start" x="30" y="-153.2" font-family="Helvetica,sans-Serif" font-size="11.00">name_de</text>
<polygon fill="none" stroke="black" points="177,-145 177,-167 510,-167 510,-145 177,-145"/>
<text text-anchor="start" x="180" y="-153.2" font-family="Helvetica,sans-Serif" font-size="11.00">varchar[150]</text>
<polygon fill="none" stroke="black" points="10,-123 10,-145 177,-145 177,-123 10,-123"/>
<text text-anchor="start" x="30" y="-131.2" font-family="Helvetica,sans-Serif" font-size="11.00">name_en</text>
<polygon fill="none" stroke="black" points="177,-123 177,-145 510,-145 510,-123 177,-123"/>
<text text-anchor="start" x="180" y="-131.2" font-family="Helvetica,sans-Serif" font-size="11.00">varchar[150]</text>
<polygon fill="none" stroke="black" points="10,-101 10,-123 177,-123 177,-101 10,-101"/>
<text text-anchor="start" x="30" y="-109.2" font-family="Helvetica,sans-Serif" font-size="11.00">interval</text>
<polygon fill="none" stroke="black" points="177,-101 177,-123 510,-123 510,-101 177,-101"/>
<text text-anchor="start" x="180" y="-109.2" font-family="Helvetica,sans-Serif" font-size="11.00">&quot;private_ci2027_001&quot;.&quot;_enum_interval_name&quot;[2147483647]</text>
<polygon fill="none" stroke="black" points="10,-79 10,-101 177,-101 177,-79 10,-79"/>
<text text-anchor="start" x="30" y="-87.2" font-family="Helvetica,sans-Serif" font-size="11.00">sort</text>
<polygon fill="none" stroke="black" points="177,-79 177,-101 510,-101 510,-79 177,-79"/>
<text text-anchor="start" x="180" y="-87.2" font-family="Helvetica,sans-Serif" font-size="11.00">int4[10]</text>
<polygon fill="#ffffff" stroke="transparent" points="10,-57 10,-79 177,-79 177,-57 10,-57"/>
<polygon fill="none" stroke="black" points="10,-57 10,-79 177,-79 177,-57 10,-57"/>
<text text-anchor="start" x="30" y="-65.2" font-family="Helvetica,sans-Serif" font-size="11.00">abbreviation</text>
<polygon fill="none" stroke="black" points="177,-57 177,-79 510,-79 510,-57 177,-57"/>
<text text-anchor="start" x="180" y="-65.2" font-family="Helvetica,sans-Serif" font-size="11.00">&quot;private_ci2027_001&quot;.&quot;enum_grid_density&quot;[2147483647]</text>
<polygon fill="#ffffff" stroke="transparent" points="10,-39 10,-57 510,-57 510,-39 10,-39"/>
<polygon fill="none" stroke="black" points="10,-39 10,-57 510,-57 510,-39 10,-39"/>
<polygon fill="#ffffff" stroke="transparent" points="11,-40 11,-56 172,-56 172,-40 11,-40"/>
<text text-anchor="start" x="13" y="-45.2" font-family="Helvetica,sans-Serif" font-size="11.00">&lt; 0</text>
<polygon fill="#ffffff" stroke="transparent" points="172,-40 172,-56 349,-56 349,-40 172,-40"/>
<text text-anchor="start" x="242" y="-45.2" font-family="Helvetica,sans-Serif" font-size="11.00">0 rows</text>
<polygon fill="#ffffff" stroke="transparent" points="349,-40 349,-56 509,-56 509,-40 349,-40"/>
<text text-anchor="start" x="487" y="-45.2" font-family="Helvetica,sans-Serif" font-size="11.00">0 &gt;</text>
<polygon fill="black" stroke="black" points="172,-40 172,-56 172,-56 172,-40 172,-40"/>
<polygon fill="black" stroke="black" points="349,-40 349,-56 349,-56 349,-40 349,-40"/>
<polygon fill="none" stroke="black" stroke-width="2" points="9,-38 9,-190 511,-190 511,-38 9,-38"/>
</a>
</g>
</g>
</g>
</svg>
