<?xml version="1.0" encoding="UTF-8" standalone="no"?>
<!DOCTYPE svg PUBLIC "-//W3C//DTD SVG 1.1//EN"
 "http://www.w3.org/Graphics/SVG/1.1/DTD/svg11.dtd">
<!-- Generated by graphviz version 2.43.0 (0)
 -->
<!-- Title: oneDegreeRelationshipsDiagram Pages: 1 -->
<svg width="938pt" height="503pt"
 viewBox="0.00 0.00 938.00 503.00" xmlns="http://www.w3.org/2000/svg" xmlns:xlink="http://www.w3.org/1999/xlink">
<g id="graph0" class="graph" transform="scale(1 1) rotate(0) translate(4 499)">
<title>oneDegreeRelationshipsDiagram</title>
<polygon fill="#ffffff" stroke="transparent" points="-4,4 -4,-499 934,-499 934,4 -4,4"/>
<text text-anchor="middle" x="79.5" y="-7.2" font-family="Helvetica,sans-Serif" font-size="11.00">Generated by SchemaSpy</text>
<!-- plot -->
<g id="node1" class="node">
<title>plot</title>
<g id="a_node1"><a xlink:href="../../tables/plot.html" xlink:title="plot" target="_top">
<polygon fill="#ffffff" stroke="transparent" points="634,-37 634,-491 922,-491 922,-37 634,-37"/>
<polygon fill="#f5f5f5" stroke="transparent" points="634,-469 634,-491 922,-491 922,-469 634,-469"/>
<polygon fill="none" stroke="black" points="634,-469 634,-491 922,-491 922,-469 634,-469"/>
<text text-anchor="start" x="638.5" y="-478.2" font-family="Helvetica,sans-Serif" font-weight="bold" font-size="11.00">plot</text>
<text text-anchor="start" x="880" y="-477.2" font-family="Helvetica,sans-Serif" font-size="11.00">[table]</text>
<polygon fill="none" stroke="black" points="634,-447 634,-469 922,-469 922,-447 634,-447"/>
<image xlink:href="../../images/primaryKeys.png" width="11px" height="12px" preserveAspectRatio="xMinYMin meet" x="639" y="-464"/>
<text text-anchor="start" x="654" y="-455.2" font-family="Helvetica,sans-Serif" font-size="11.00">id</text>
<polygon fill="#ffffff" stroke="transparent" points="634,-425 634,-447 922,-447 922,-425 634,-425"/>
<polygon fill="none" stroke="black" points="634,-425 634,-447 922,-447 922,-425 634,-425"/>
<image xlink:href="../../images/foreignKeys.png" width="11px" height="12px" preserveAspectRatio="xMinYMin meet" x="639" y="-442"/>
<text text-anchor="start" x="654" y="-433.2" font-family="Helvetica,sans-Serif" font-size="11.00">cluster_id</text>
<polygon fill="#ffffff" stroke="transparent" points="634,-403 634,-425 922,-425 922,-403 634,-403"/>
<polygon fill="none" stroke="black" points="634,-403 634,-425 922,-425 922,-403 634,-403"/>
<text text-anchor="start" x="654" y="-411.2" font-family="Helvetica,sans-Serif" font-size="11.00">plot_name</text>
<polygon fill="none" stroke="black" points="634,-381 634,-403 922,-403 922,-381 634,-381"/>
<image xlink:href="../../images/foreignKeys.png" width="11px" height="12px" preserveAspectRatio="xMinYMin meet" x="639" y="-398"/>
<text text-anchor="start" x="654" y="-389.2" font-family="Helvetica,sans-Serif" font-size="11.00">growth_district</text>
<polygon fill="none" stroke="black" points="634,-359 634,-381 922,-381 922,-359 634,-359"/>
<image xlink:href="../../images/foreignKeys.png" width="11px" height="12px" preserveAspectRatio="xMinYMin meet" x="639" y="-376"/>
<text text-anchor="start" x="654" y="-367.2" font-family="Helvetica,sans-Serif" font-size="11.00">forest_status</text>
<polygon fill="none" stroke="black" points="634,-337 634,-359 922,-359 922,-337 634,-337"/>
<image xlink:href="../../images/foreignKeys.png" width="11px" height="12px" preserveAspectRatio="xMinYMin meet" x="639" y="-354"/>
<text text-anchor="start" x="654" y="-345.2" font-family="Helvetica,sans-Serif" font-size="11.00">elevation_level</text>
<polygon fill="none" stroke="black" points="634,-315 634,-337 922,-337 922,-315 634,-315"/>
<image xlink:href="../../images/foreignKeys.png" width="11px" height="12px" preserveAspectRatio="xMinYMin meet" x="639" y="-332"/>
<text text-anchor="start" x="654" y="-323.2" font-family="Helvetica,sans-Serif" font-size="11.00">property_type</text>
<polygon fill="none" stroke="black" points="634,-293 634,-315 922,-315 922,-293 634,-293"/>
<image xlink:href="../../images/foreignKeys.png" width="11px" height="12px" preserveAspectRatio="xMinYMin meet" x="639" y="-310"/>
<text text-anchor="start" x="654" y="-301.2" font-family="Helvetica,sans-Serif" font-size="11.00">property_size_class</text>
<polygon fill="none" stroke="black" points="634,-271 634,-293 922,-293 922,-271 634,-271"/>
<image xlink:href="../../images/foreignKeys.png" width="11px" height="12px" preserveAspectRatio="xMinYMin meet" x="639" y="-288"/>
<text text-anchor="start" x="654" y="-279.2" font-family="Helvetica,sans-Serif" font-size="11.00">land_use_after</text>
<polygon fill="none" stroke="black" points="634,-249 634,-271 922,-271 922,-249 634,-249"/>
<image xlink:href="../../images/foreignKeys.png" width="11px" height="12px" preserveAspectRatio="xMinYMin meet" x="639" y="-266"/>
<text text-anchor="start" x="654" y="-257.2" font-family="Helvetica,sans-Serif" font-size="11.00">marker_status</text>
<polygon fill="none" stroke="black" points="634,-227 634,-249 922,-249 922,-227 634,-227"/>
<image xlink:href="../../images/foreignKeys.png" width="11px" height="12px" preserveAspectRatio="xMinYMin meet" x="639" y="-244"/>
<text text-anchor="start" x="654" y="-235.2" font-family="Helvetica,sans-Serif" font-size="11.00">marker_profile</text>
<polygon fill="none" stroke="black" points="634,-205 634,-227 922,-227 922,-205 634,-205"/>
<image xlink:href="../../images/foreignKeys.png" width="11px" height="12px" preserveAspectRatio="xMinYMin meet" x="639" y="-222"/>
<text text-anchor="start" x="654" y="-213.2" font-family="Helvetica,sans-Serif" font-size="11.00">terrain_form</text>
<polygon fill="none" stroke="black" points="634,-183 634,-205 922,-205 922,-183 634,-183"/>
<image xlink:href="../../images/foreignKeys.png" width="11px" height="12px" preserveAspectRatio="xMinYMin meet" x="639" y="-200"/>
<text text-anchor="start" x="654" y="-191.2" font-family="Helvetica,sans-Serif" font-size="11.00">management_type</text>
<polygon fill="none" stroke="black" points="634,-161 634,-183 922,-183 922,-161 634,-161"/>
<image xlink:href="../../images/foreignKeys.png" width="11px" height="12px" preserveAspectRatio="xMinYMin meet" x="639" y="-178"/>
<text text-anchor="start" x="654" y="-169.2" font-family="Helvetica,sans-Serif" font-size="11.00">harvesting_method</text>
<polygon fill="none" stroke="black" points="634,-139 634,-161 922,-161 922,-139 634,-139"/>
<image xlink:href="../../images/foreignKeys.png" width="11px" height="12px" preserveAspectRatio="xMinYMin meet" x="639" y="-156"/>
<text text-anchor="start" x="654" y="-147.2" font-family="Helvetica,sans-Serif" font-size="11.00">stand_structure</text>
<polygon fill="none" stroke="black" points="634,-117 634,-139 922,-139 922,-117 634,-117"/>
<image xlink:href="../../images/foreignKeys.png" width="11px" height="12px" preserveAspectRatio="xMinYMin meet" x="639" y="-134"/>
<text text-anchor="start" x="654" y="-125.2" font-family="Helvetica,sans-Serif" font-size="11.00">stand_dev_phase</text>
<polygon fill="none" stroke="black" points="634,-95 634,-117 922,-117 922,-95 634,-95"/>
<image xlink:href="../../images/foreignKeys.png" width="11px" height="12px" preserveAspectRatio="xMinYMin meet" x="639" y="-112"/>
<text text-anchor="start" x="654" y="-103.2" font-family="Helvetica,sans-Serif" font-size="11.00">stand_layer_reg</text>
<polygon fill="none" stroke="black" points="634,-73 634,-95 922,-95 922,-73 634,-73"/>
<image xlink:href="../../images/foreignKeys.png" width="11px" height="12px" preserveAspectRatio="xMinYMin meet" x="639" y="-90"/>
<text text-anchor="start" x="654" y="-81.2" font-family="Helvetica,sans-Serif" font-size="11.00">trees_less_4meter_mirrored</text>
<polygon fill="none" stroke="black" points="634,-55 634,-73 922,-73 922,-55 634,-55"/>
<text text-anchor="start" x="637" y="-61.2" font-family="Helvetica,sans-Serif" font-size="11.00">...</text>
<polygon fill="#ffffff" stroke="transparent" points="634,-37 634,-55 922,-55 922,-37 634,-37"/>
<polygon fill="none" stroke="black" points="634,-37 634,-55 922,-55 922,-37 634,-37"/>
<polygon fill="#ffffff" stroke="transparent" points="635,-38 635,-54 730,-54 730,-38 635,-38"/>
<text text-anchor="start" x="637" y="-43.2" font-family="Helvetica,sans-Serif" font-size="11.00">&lt; 16</text>
<polygon fill="#ffffff" stroke="transparent" points="730,-38 730,-54 834,-54 834,-38 730,-38"/>
<text text-anchor="start" x="763.5" y="-43.2" font-family="Helvetica,sans-Serif" font-size="11.00">0 rows</text>
<polygon fill="#ffffff" stroke="transparent" points="834,-38 834,-54 921,-54 921,-38 834,-38"/>
<text text-anchor="start" x="899" y="-43.2" font-family="Helvetica,sans-Serif" font-size="11.00">7 &gt;</text>
<polygon fill="black" stroke="black" points="730,-38 730,-54 730,-54 730,-38 730,-38"/>
<polygon fill="black" stroke="black" points="834,-38 834,-54 834,-54 834,-38 834,-38"/>
</a>
</g>
</g>
<!-- lookup_harvesting_method -->
<g id="node2" class="node">
<title>lookup_harvesting_method</title>
<g id="a_node2"><a xlink:href="../../tables/lookup_harvesting_method.html" xlink:title="lookup_harvesting_method" target="_top">
<polygon fill="#ffffff" stroke="transparent" points="8,-141 8,-295 585,-295 585,-141 8,-141"/>
<polygon fill="#f5f5f5" stroke="transparent" points="10.5,-271 10.5,-293 583.5,-293 583.5,-271 10.5,-271"/>
<polygon fill="none" stroke="black" points="10.5,-271 10.5,-293 583.5,-293 583.5,-271 10.5,-271"/>
<text text-anchor="start" x="15.5" y="-280.2" font-family="Helvetica,sans-Serif" font-weight="bold" font-size="11.00">lookup_harvesting_method</text>
<text text-anchor="start" x="541.5" y="-279.2" font-family="Helvetica,sans-Serif" font-size="11.00">[table]</text>
<polygon fill="none" stroke="black" points="10.5,-249 10.5,-271 228.5,-271 228.5,-249 10.5,-249"/>
<text text-anchor="start" x="30.5" y="-257.2" font-family="Helvetica,sans-Serif" font-size="11.00">name_de</text>
<polygon fill="none" stroke="black" points="228.5,-249 228.5,-271 583.5,-271 583.5,-249 228.5,-249"/>
<text text-anchor="start" x="231.5" y="-257.2" font-family="Helvetica,sans-Serif" font-size="11.00">varchar[150]</text>
<polygon fill="none" stroke="black" points="10.5,-227 10.5,-249 228.5,-249 228.5,-227 10.5,-227"/>
<text text-anchor="start" x="30.5" y="-235.2" font-family="Helvetica,sans-Serif" font-size="11.00">name_en</text>
<polygon fill="none" stroke="black" points="228.5,-227 228.5,-249 583.5,-249 583.5,-227 228.5,-227"/>
<text text-anchor="start" x="231.5" y="-235.2" font-family="Helvetica,sans-Serif" font-size="11.00">varchar[150]</text>
<polygon fill="none" stroke="black" points="10.5,-205 10.5,-227 228.5,-227 228.5,-205 10.5,-205"/>
<text text-anchor="start" x="30.5" y="-213.2" font-family="Helvetica,sans-Serif" font-size="11.00">interval</text>
<polygon fill="none" stroke="black" points="228.5,-205 228.5,-227 583.5,-227 583.5,-205 228.5,-205"/>
<text text-anchor="start" x="231.5" y="-213.2" font-family="Helvetica,sans-Serif" font-size="11.00">&quot;private_ci2027_001&quot;.&quot;_enum_interval_name&quot;[2147483647]</text>
<polygon fill="none" stroke="black" points="10.5,-183 10.5,-205 228.5,-205 228.5,-183 10.5,-183"/>
<text text-anchor="start" x="30.5" y="-191.2" font-family="Helvetica,sans-Serif" font-size="11.00">sort</text>
<polygon fill="none" stroke="black" points="228.5,-183 228.5,-205 583.5,-205 583.5,-183 228.5,-183"/>
<text text-anchor="start" x="231.5" y="-191.2" font-family="Helvetica,sans-Serif" font-size="11.00">int4[10]</text>
<polygon fill="#ffffff" stroke="transparent" points="10.5,-161 10.5,-183 228.5,-183 228.5,-161 10.5,-161"/>
<polygon fill="none" stroke="black" points="10.5,-161 10.5,-183 228.5,-183 228.5,-161 10.5,-161"/>
<text text-anchor="start" x="30.5" y="-169.2" font-family="Helvetica,sans-Serif" font-size="11.00">abbreviation</text>
<polygon fill="none" stroke="black" points="228.5,-161 228.5,-183 583.5,-183 583.5,-161 228.5,-161"/>
<text text-anchor="start" x="231.5" y="-169.2" font-family="Helvetica,sans-Serif" font-size="11.00">&quot;private_ci2027_001&quot;.&quot;enum_harvesting_method&quot;[2147483647]</text>
<polygon fill="#ffffff" stroke="transparent" points="10.5,-143 10.5,-161 583.5,-161 583.5,-143 10.5,-143"/>
<polygon fill="none" stroke="black" points="10.5,-143 10.5,-161 583.5,-161 583.5,-143 10.5,-143"/>
<polygon fill="#ffffff" stroke="transparent" points="11.5,-144 11.5,-160 196.5,-160 196.5,-144 11.5,-144"/>
<text text-anchor="start" x="13.5" y="-149.2" font-family="Helvetica,sans-Serif" font-size="11.00">&lt; 0</text>
<polygon fill="#ffffff" stroke="transparent" points="196.5,-144 196.5,-160 398.5,-160 398.5,-144 196.5,-144"/>
<text text-anchor="start" x="279" y="-149.2" font-family="Helvetica,sans-Serif" font-size="11.00">0 rows</text>
<polygon fill="#ffffff" stroke="transparent" points="398.5,-144 398.5,-160 582.5,-160 582.5,-144 398.5,-144"/>
<text text-anchor="start" x="560.5" y="-149.2" font-family="Helvetica,sans-Serif" font-size="11.00">1 &gt;</text>
<polygon fill="black" stroke="black" points="196.5,-144 196.5,-160 196.5,-160 196.5,-144 196.5,-144"/>
<polygon fill="black" stroke="black" points="398.5,-144 398.5,-160 398.5,-160 398.5,-144 398.5,-144"/>
<polygon fill="none" stroke="black" stroke-width="2" points="9,-142 9,-294 584,-294 584,-142 9,-142"/>
</a>
</g>
</g>
<!-- plot&#45;&gt;lookup_harvesting_method -->
<g id="edge1" class="edge">
<title>plot:w&#45;&gt;lookup_harvesting_method:e</title>
<path fill="none" stroke="black" d="M618.28,-172C607.29,-172 600.16,-172 584.5,-172"/>
<polygon fill="black" stroke="black" points="625,-172 633,-175.6 629,-172 633,-172 633,-172 633,-172 629,-172 633,-168.4 625,-172 625,-172"/>
<ellipse fill="none" stroke="black" cx="621.8" cy="-172" rx="3.2" ry="3.2"/>
</g>
</g>
</svg>
