<?xml version="1.0" encoding="UTF-8" standalone="no"?>
<!DOCTYPE svg PUBLIC "-//W3C//DTD SVG 1.1//EN"
 "http://www.w3.org/Graphics/SVG/1.1/DTD/svg11.dtd">
<!-- Generated by graphviz version 2.43.0 (0)
 -->
<!-- Title: oneDegreeRelationshipsDiagram Pages: 1 -->
<svg width="1069pt" height="846pt"
 viewBox="0.00 0.00 1069.00 846.00" xmlns="http://www.w3.org/2000/svg" xmlns:xlink="http://www.w3.org/1999/xlink">
<g id="graph0" class="graph" transform="scale(1 1) rotate(0) translate(4 842)">
<title>oneDegreeRelationshipsDiagram</title>
<polygon fill="#ffffff" stroke="transparent" points="-4,4 -4,-842 1065,-842 1065,4 -4,4"/>
<text text-anchor="middle" x="79.5" y="-7.2" font-family="Helvetica,sans-Serif" font-size="11.00">Generated by SchemaSpy</text>
<!-- plot_location -->
<g id="node1" class="node">
<title>plot_location</title>
<g id="a_node1"><a xlink:href="../../tables/plot_location.html" xlink:title="plot_location" target="_top">
<polygon fill="#ffffff" stroke="transparent" points="308,-365 308,-651 821,-651 821,-365 308,-365"/>
<polygon fill="#f5f5f5" stroke="transparent" points="310.5,-627 310.5,-649 819.5,-649 819.5,-627 310.5,-627"/>
<polygon fill="none" stroke="black" points="310.5,-627 310.5,-649 819.5,-649 819.5,-627 310.5,-627"/>
<text text-anchor="start" x="315.5" y="-636.2" font-family="Helvetica,sans-Serif" font-weight="bold" font-size="11.00">plot_location</text>
<text text-anchor="start" x="777.5" y="-635.2" font-family="Helvetica,sans-Serif" font-size="11.00">[table]</text>
<polygon fill="none" stroke="black" points="310.5,-605 310.5,-627 425.5,-627 425.5,-605 310.5,-605"/>
<image xlink:href="../../images/primaryKeys.png" width="11px" height="12px" preserveAspectRatio="xMinYMin meet" x="315.5" y="-622"/>
<text text-anchor="start" x="330.5" y="-613.2" font-family="Helvetica,sans-Serif" font-size="11.00">id</text>
<polygon fill="none" stroke="black" points="425.5,-605 425.5,-627 819.5,-627 819.5,-605 425.5,-605"/>
<text text-anchor="start" x="428.5" y="-613.2" font-family="Helvetica,sans-Serif" font-size="11.00">serial[10]</text>
<polygon fill="#ffffff" stroke="transparent" points="310.5,-583 310.5,-605 425.5,-605 425.5,-583 310.5,-583"/>
<polygon fill="none" stroke="black" points="310.5,-583 310.5,-605 425.5,-605 425.5,-583 310.5,-583"/>
<image xlink:href="../../images/foreignKeys.png" width="11px" height="12px" preserveAspectRatio="xMinYMin meet" x="315.5" y="-600"/>
<text text-anchor="start" x="330.5" y="-591.2" font-family="Helvetica,sans-Serif" font-size="11.00">plot_id</text>
<polygon fill="none" stroke="black" points="425.5,-583 425.5,-605 819.5,-605 819.5,-583 425.5,-583"/>
<text text-anchor="start" x="428.5" y="-591.2" font-family="Helvetica,sans-Serif" font-size="11.00">int4[10]</text>
<polygon fill="#ffffff" stroke="transparent" points="310.5,-561 310.5,-583 425.5,-583 425.5,-561 310.5,-561"/>
<polygon fill="none" stroke="black" points="310.5,-561 310.5,-583 425.5,-583 425.5,-561 310.5,-561"/>
<text text-anchor="start" x="330.5" y="-569.2" font-family="Helvetica,sans-Serif" font-size="11.00">parent_table</text>
<polygon fill="none" stroke="black" points="425.5,-561 425.5,-583 819.5,-583 819.5,-561 425.5,-561"/>
<text text-anchor="start" x="428.5" y="-569.2" font-family="Helvetica,sans-Serif" font-size="11.00">&quot;private_ci2027_001&quot;.&quot;enum_plot_location_parent_table&quot;[2147483647]</text>
<polygon fill="none" stroke="black" points="310.5,-539 310.5,-561 425.5,-561 425.5,-539 310.5,-539"/>
<text text-anchor="start" x="330.5" y="-547.2" font-family="Helvetica,sans-Serif" font-size="11.00">created_at</text>
<polygon fill="none" stroke="black" points="425.5,-539 425.5,-561 819.5,-561 819.5,-539 425.5,-539"/>
<text text-anchor="start" x="428.5" y="-547.2" font-family="Helvetica,sans-Serif" font-size="11.00">timestamp[29,6]</text>
<polygon fill="none" stroke="black" points="310.5,-517 310.5,-539 425.5,-539 425.5,-517 310.5,-517"/>
<text text-anchor="start" x="330.5" y="-525.2" font-family="Helvetica,sans-Serif" font-size="11.00">modified_at</text>
<polygon fill="none" stroke="black" points="425.5,-517 425.5,-539 819.5,-539 819.5,-517 425.5,-517"/>
<text text-anchor="start" x="428.5" y="-525.2" font-family="Helvetica,sans-Serif" font-size="11.00">timestamp[29,6]</text>
<polygon fill="none" stroke="black" points="310.5,-495 310.5,-517 425.5,-517 425.5,-495 310.5,-495"/>
<text text-anchor="start" x="330.5" y="-503.2" font-family="Helvetica,sans-Serif" font-size="11.00">modified_by</text>
<polygon fill="none" stroke="black" points="425.5,-495 425.5,-517 819.5,-517 819.5,-495 425.5,-495"/>
<text text-anchor="start" x="428.5" y="-503.2" font-family="Helvetica,sans-Serif" font-size="11.00">regrole[2147483647]</text>
<polygon fill="none" stroke="black" points="310.5,-473 310.5,-495 425.5,-495 425.5,-473 310.5,-473"/>
<text text-anchor="start" x="330.5" y="-481.2" font-family="Helvetica,sans-Serif" font-size="11.00">azimuth</text>
<polygon fill="none" stroke="black" points="425.5,-473 425.5,-495 819.5,-495 819.5,-473 425.5,-473"/>
<text text-anchor="start" x="428.5" y="-481.2" font-family="Helvetica,sans-Serif" font-size="11.00">&quot;private_ci2027_001&quot;.&quot;ck_gon&quot;[5]</text>
<polygon fill="none" stroke="black" points="310.5,-451 310.5,-473 425.5,-473 425.5,-451 310.5,-451"/>
<text text-anchor="start" x="330.5" y="-459.2" font-family="Helvetica,sans-Serif" font-size="11.00">distance</text>
<polygon fill="none" stroke="black" points="425.5,-451 425.5,-473 819.5,-473 819.5,-451 425.5,-451"/>
<text text-anchor="start" x="428.5" y="-459.2" font-family="Helvetica,sans-Serif" font-size="11.00">int2[5]</text>
<polygon fill="none" stroke="black" points="310.5,-429 310.5,-451 425.5,-451 425.5,-429 310.5,-429"/>
<text text-anchor="start" x="330.5" y="-437.2" font-family="Helvetica,sans-Serif" font-size="11.00">radius</text>
<polygon fill="none" stroke="black" points="425.5,-429 425.5,-451 819.5,-451 819.5,-429 425.5,-429"/>
<text text-anchor="start" x="428.5" y="-437.2" font-family="Helvetica,sans-Serif" font-size="11.00">int2[5]</text>
<polygon fill="none" stroke="black" points="310.5,-407 310.5,-429 425.5,-429 425.5,-407 310.5,-407"/>
<text text-anchor="start" x="330.5" y="-415.2" font-family="Helvetica,sans-Serif" font-size="11.00">geometry</text>
<polygon fill="none" stroke="black" points="425.5,-407 425.5,-429 819.5,-429 819.5,-407 425.5,-407"/>
<text text-anchor="start" x="428.5" y="-415.2" font-family="Helvetica,sans-Serif" font-size="11.00">geometry[2147483647]</text>
<polygon fill="none" stroke="black" points="310.5,-385 310.5,-407 425.5,-407 425.5,-385 310.5,-385"/>
<text text-anchor="start" x="330.5" y="-393.2" font-family="Helvetica,sans-Serif" font-size="11.00">no_entities</text>
<polygon fill="none" stroke="black" points="425.5,-385 425.5,-407 819.5,-407 819.5,-385 425.5,-385"/>
<text text-anchor="start" x="428.5" y="-393.2" font-family="Helvetica,sans-Serif" font-size="11.00">bool[1]</text>
<polygon fill="#ffffff" stroke="transparent" points="310.5,-367 310.5,-385 819.5,-385 819.5,-367 310.5,-367"/>
<polygon fill="none" stroke="black" points="310.5,-367 310.5,-385 819.5,-385 819.5,-367 310.5,-367"/>
<polygon fill="#ffffff" stroke="transparent" points="311.5,-368 311.5,-384 470.5,-384 470.5,-368 311.5,-368"/>
<text text-anchor="start" x="313.5" y="-373.2" font-family="Helvetica,sans-Serif" font-size="11.00">&lt; 1</text>
<polygon fill="#ffffff" stroke="transparent" points="470.5,-368 470.5,-384 660.5,-384 660.5,-368 470.5,-368"/>
<text text-anchor="start" x="540" y="-373.2" font-family="Helvetica,sans-Serif" font-size="11.00">406 rows</text>
<polygon fill="#ffffff" stroke="transparent" points="660.5,-368 660.5,-384 818.5,-384 818.5,-368 660.5,-368"/>
<text text-anchor="start" x="796.5" y="-373.2" font-family="Helvetica,sans-Serif" font-size="11.00">3 &gt;</text>
<polygon fill="black" stroke="black" points="470.5,-368 470.5,-384 470.5,-384 470.5,-368 470.5,-368"/>
<polygon fill="black" stroke="black" points="660.5,-368 660.5,-384 660.5,-384 660.5,-368 660.5,-368"/>
<polygon fill="none" stroke="black" stroke-width="2" points="309,-366 309,-650 820,-650 820,-366 309,-366"/>
</a>
</g>
</g>
<!-- plot -->
<g id="node2" class="node">
<title>plot</title>
<g id="a_node2"><a xlink:href="../../tables/plot.html" xlink:title="plot" target="_top">
<polygon fill="#ffffff" stroke="transparent" points="8,-37 8,-667 259,-667 259,-37 8,-37"/>
<polygon fill="#f5f5f5" stroke="transparent" points="8.5,-645 8.5,-667 259.5,-667 259.5,-645 8.5,-645"/>
<polygon fill="none" stroke="black" points="8.5,-645 8.5,-667 259.5,-667 259.5,-645 8.5,-645"/>
<text text-anchor="start" x="13" y="-654.2" font-family="Helvetica,sans-Serif" font-weight="bold" font-size="11.00">plot</text>
<text text-anchor="start" x="217.5" y="-653.2" font-family="Helvetica,sans-Serif" font-size="11.00">[table]</text>
<polygon fill="none" stroke="black" points="8.5,-623 8.5,-645 259.5,-645 259.5,-623 8.5,-623"/>
<image xlink:href="../../images/primaryKeys.png" width="11px" height="12px" preserveAspectRatio="xMinYMin meet" x="13.5" y="-640"/>
<text text-anchor="start" x="28.5" y="-631.2" font-family="Helvetica,sans-Serif" font-size="11.00">id</text>
<polygon fill="#ffffff" stroke="transparent" points="8.5,-601 8.5,-623 259.5,-623 259.5,-601 8.5,-601"/>
<polygon fill="none" stroke="black" points="8.5,-601 8.5,-623 259.5,-623 259.5,-601 8.5,-601"/>
<image xlink:href="../../images/foreignKeys.png" width="11px" height="12px" preserveAspectRatio="xMinYMin meet" x="13.5" y="-618"/>
<text text-anchor="start" x="28.5" y="-609.2" font-family="Helvetica,sans-Serif" font-size="11.00">cluster_id</text>
<polygon fill="#ffffff" stroke="transparent" points="8.5,-579 8.5,-601 259.5,-601 259.5,-579 8.5,-579"/>
<polygon fill="none" stroke="black" points="8.5,-579 8.5,-601 259.5,-601 259.5,-579 8.5,-579"/>
<text text-anchor="start" x="28.5" y="-587.2" font-family="Helvetica,sans-Serif" font-size="11.00">plot_name</text>
<polygon fill="none" stroke="black" points="8.5,-557 8.5,-579 259.5,-579 259.5,-557 8.5,-557"/>
<image xlink:href="../../images/foreignKeys.png" width="11px" height="12px" preserveAspectRatio="xMinYMin meet" x="13.5" y="-574"/>
<text text-anchor="start" x="28.5" y="-565.2" font-family="Helvetica,sans-Serif" font-size="11.00">sampling_strata</text>
<polygon fill="none" stroke="black" points="8.5,-535 8.5,-557 259.5,-557 259.5,-535 8.5,-535"/>
<image xlink:href="../../images/foreignKeys.png" width="11px" height="12px" preserveAspectRatio="xMinYMin meet" x="13.5" y="-552"/>
<text text-anchor="start" x="28.5" y="-543.2" font-family="Helvetica,sans-Serif" font-size="11.00">growth_district</text>
<polygon fill="none" stroke="black" points="8.5,-513 8.5,-535 259.5,-535 259.5,-513 8.5,-513"/>
<image xlink:href="../../images/foreignKeys.png" width="11px" height="12px" preserveAspectRatio="xMinYMin meet" x="13.5" y="-530"/>
<text text-anchor="start" x="28.5" y="-521.2" font-family="Helvetica,sans-Serif" font-size="11.00">forest_decision</text>
<polygon fill="none" stroke="black" points="8.5,-491 8.5,-513 259.5,-513 259.5,-491 8.5,-491"/>
<image xlink:href="../../images/foreignKeys.png" width="11px" height="12px" preserveAspectRatio="xMinYMin meet" x="13.5" y="-508"/>
<text text-anchor="start" x="28.5" y="-499.2" font-family="Helvetica,sans-Serif" font-size="11.00">forestry_department</text>
<polygon fill="none" stroke="black" points="8.5,-469 8.5,-491 259.5,-491 259.5,-469 8.5,-469"/>
<image xlink:href="../../images/foreignKeys.png" width="11px" height="12px" preserveAspectRatio="xMinYMin meet" x="13.5" y="-486"/>
<text text-anchor="start" x="28.5" y="-477.2" font-family="Helvetica,sans-Serif" font-size="11.00">height_layer_class</text>
<polygon fill="none" stroke="black" points="8.5,-447 8.5,-469 259.5,-469 259.5,-447 8.5,-447"/>
<image xlink:href="../../images/foreignKeys.png" width="11px" height="12px" preserveAspectRatio="xMinYMin meet" x="13.5" y="-464"/>
<text text-anchor="start" x="28.5" y="-455.2" font-family="Helvetica,sans-Serif" font-size="11.00">property_type</text>
<polygon fill="none" stroke="black" points="8.5,-425 8.5,-447 259.5,-447 259.5,-425 8.5,-425"/>
<image xlink:href="../../images/foreignKeys.png" width="11px" height="12px" preserveAspectRatio="xMinYMin meet" x="13.5" y="-442"/>
<text text-anchor="start" x="28.5" y="-433.2" font-family="Helvetica,sans-Serif" font-size="11.00">property_size_class</text>
<polygon fill="none" stroke="black" points="8.5,-403 8.5,-425 259.5,-425 259.5,-403 8.5,-403"/>
<image xlink:href="../../images/foreignKeys.png" width="11px" height="12px" preserveAspectRatio="xMinYMin meet" x="13.5" y="-420"/>
<text text-anchor="start" x="28.5" y="-411.2" font-family="Helvetica,sans-Serif" font-size="11.00">forest_type</text>
<polygon fill="none" stroke="black" points="8.5,-381 8.5,-403 259.5,-403 259.5,-381 8.5,-381"/>
<image xlink:href="../../images/foreignKeys.png" width="11px" height="12px" preserveAspectRatio="xMinYMin meet" x="13.5" y="-398"/>
<text text-anchor="start" x="28.5" y="-389.2" font-family="Helvetica,sans-Serif" font-size="11.00">habitat_type</text>
<polygon fill="none" stroke="black" points="8.5,-359 8.5,-381 259.5,-381 259.5,-359 8.5,-359"/>
<image xlink:href="../../images/foreignKeys.png" width="11px" height="12px" preserveAspectRatio="xMinYMin meet" x="13.5" y="-376"/>
<text text-anchor="start" x="28.5" y="-367.2" font-family="Helvetica,sans-Serif" font-size="11.00">habitat_type_source</text>
<polygon fill="none" stroke="black" points="8.5,-337 8.5,-359 259.5,-359 259.5,-337 8.5,-337"/>
<image xlink:href="../../images/foreignKeys.png" width="11px" height="12px" preserveAspectRatio="xMinYMin meet" x="13.5" y="-354"/>
<text text-anchor="start" x="28.5" y="-345.2" font-family="Helvetica,sans-Serif" font-size="11.00">use_restriction</text>
<polygon fill="none" stroke="black" points="8.5,-315 8.5,-337 259.5,-337 259.5,-315 8.5,-315"/>
<image xlink:href="../../images/foreignKeys.png" width="11px" height="12px" preserveAspectRatio="xMinYMin meet" x="13.5" y="-332"/>
<text text-anchor="start" x="28.5" y="-323.2" font-family="Helvetica,sans-Serif" font-size="11.00">land_use</text>
<polygon fill="none" stroke="black" points="8.5,-293 8.5,-315 259.5,-315 259.5,-293 8.5,-293"/>
<image xlink:href="../../images/foreignKeys.png" width="11px" height="12px" preserveAspectRatio="xMinYMin meet" x="13.5" y="-310"/>
<text text-anchor="start" x="28.5" y="-301.2" font-family="Helvetica,sans-Serif" font-size="11.00">marking_state</text>
<polygon fill="none" stroke="black" points="8.5,-271 8.5,-293 259.5,-293 259.5,-271 8.5,-271"/>
<image xlink:href="../../images/foreignKeys.png" width="11px" height="12px" preserveAspectRatio="xMinYMin meet" x="13.5" y="-288"/>
<text text-anchor="start" x="28.5" y="-279.2" font-family="Helvetica,sans-Serif" font-size="11.00">marking_profile</text>
<polygon fill="none" stroke="black" points="8.5,-249 8.5,-271 259.5,-271 259.5,-249 8.5,-249"/>
<image xlink:href="../../images/foreignKeys.png" width="11px" height="12px" preserveAspectRatio="xMinYMin meet" x="13.5" y="-266"/>
<text text-anchor="start" x="28.5" y="-257.2" font-family="Helvetica,sans-Serif" font-size="11.00">terrain_form</text>
<polygon fill="none" stroke="black" points="8.5,-227 8.5,-249 259.5,-249 259.5,-227 8.5,-227"/>
<image xlink:href="../../images/foreignKeys.png" width="11px" height="12px" preserveAspectRatio="xMinYMin meet" x="13.5" y="-244"/>
<text text-anchor="start" x="28.5" y="-235.2" font-family="Helvetica,sans-Serif" font-size="11.00">management_type</text>
<polygon fill="none" stroke="black" points="8.5,-205 8.5,-227 259.5,-227 259.5,-205 8.5,-205"/>
<image xlink:href="../../images/foreignKeys.png" width="11px" height="12px" preserveAspectRatio="xMinYMin meet" x="13.5" y="-222"/>
<text text-anchor="start" x="28.5" y="-213.2" font-family="Helvetica,sans-Serif" font-size="11.00">harvesting_method</text>
<polygon fill="none" stroke="black" points="8.5,-183 8.5,-205 259.5,-205 259.5,-183 8.5,-183"/>
<image xlink:href="../../images/foreignKeys.png" width="11px" height="12px" preserveAspectRatio="xMinYMin meet" x="13.5" y="-200"/>
<text text-anchor="start" x="28.5" y="-191.2" font-family="Helvetica,sans-Serif" font-size="11.00">layer_type</text>
<polygon fill="none" stroke="black" points="8.5,-161 8.5,-183 259.5,-183 259.5,-161 8.5,-161"/>
<image xlink:href="../../images/foreignKeys.png" width="11px" height="12px" preserveAspectRatio="xMinYMin meet" x="13.5" y="-178"/>
<text text-anchor="start" x="28.5" y="-169.2" font-family="Helvetica,sans-Serif" font-size="11.00">stand_phase</text>
<polygon fill="none" stroke="black" points="8.5,-139 8.5,-161 259.5,-161 259.5,-139 8.5,-139"/>
<image xlink:href="../../images/foreignKeys.png" width="11px" height="12px" preserveAspectRatio="xMinYMin meet" x="13.5" y="-156"/>
<text text-anchor="start" x="28.5" y="-147.2" font-family="Helvetica,sans-Serif" font-size="11.00">sablings_layer</text>
<polygon fill="none" stroke="black" points="8.5,-117 8.5,-139 259.5,-139 259.5,-117 8.5,-117"/>
<image xlink:href="../../images/foreignKeys.png" width="11px" height="12px" preserveAspectRatio="xMinYMin meet" x="13.5" y="-134"/>
<text text-anchor="start" x="28.5" y="-125.2" font-family="Helvetica,sans-Serif" font-size="11.00">trees_less_4meter_mirrored</text>
<polygon fill="none" stroke="black" points="8.5,-95 8.5,-117 259.5,-117 259.5,-95 8.5,-95"/>
<image xlink:href="../../images/foreignKeys.png" width="11px" height="12px" preserveAspectRatio="xMinYMin meet" x="13.5" y="-112"/>
<text text-anchor="start" x="28.5" y="-103.2" font-family="Helvetica,sans-Serif" font-size="11.00">trees_less_4meter_count_factor</text>
<polygon fill="none" stroke="black" points="8.5,-73 8.5,-95 259.5,-95 259.5,-73 8.5,-73"/>
<image xlink:href="../../images/foreignKeys.png" width="11px" height="12px" preserveAspectRatio="xMinYMin meet" x="13.5" y="-90"/>
<text text-anchor="start" x="28.5" y="-81.2" font-family="Helvetica,sans-Serif" font-size="11.00">trees_less_4meter_layer</text>
<polygon fill="none" stroke="black" points="8.5,-55 8.5,-73 259.5,-73 259.5,-55 8.5,-55"/>
<text text-anchor="start" x="11.5" y="-61.2" font-family="Helvetica,sans-Serif" font-size="11.00">...</text>
<polygon fill="#ffffff" stroke="transparent" points="8.5,-37 8.5,-55 259.5,-55 259.5,-37 8.5,-37"/>
<polygon fill="none" stroke="black" points="8.5,-37 8.5,-55 259.5,-55 259.5,-37 8.5,-37"/>
<polygon fill="#ffffff" stroke="transparent" points="9.5,-38 9.5,-54 89.5,-54 89.5,-38 9.5,-38"/>
<text text-anchor="start" x="11.5" y="-43.2" font-family="Helvetica,sans-Serif" font-size="11.00">&lt; 24</text>
<polygon fill="#ffffff" stroke="transparent" points="89.5,-38 89.5,-54 186.5,-54 186.5,-38 89.5,-38"/>
<text text-anchor="start" x="116" y="-43.2" font-family="Helvetica,sans-Serif" font-size="11.00">82 rows</text>
<polygon fill="#ffffff" stroke="transparent" points="186.5,-38 186.5,-54 258.5,-54 258.5,-38 186.5,-38"/>
<text text-anchor="start" x="236.5" y="-43.2" font-family="Helvetica,sans-Serif" font-size="11.00">7 &gt;</text>
<polygon fill="black" stroke="black" points="89.5,-38 89.5,-54 89.5,-54 89.5,-38 89.5,-38"/>
<polygon fill="black" stroke="black" points="186.5,-38 186.5,-54 186.5,-54 186.5,-38 186.5,-38"/>
</a>
</g>
</g>
<!-- plot_location&#45;&gt;plot -->
<g id="edge1" class="edge">
<title>plot_location:w&#45;&gt;plot:e</title>
<path fill="none" stroke="black" d="M295.76,-598.59C282.86,-609.1 282.68,-634 260.5,-634"/>
<polygon fill="black" stroke="black" points="301.91,-596.53 310.64,-597.41 305.71,-595.27 309.5,-594 309.5,-594 309.5,-594 305.71,-595.27 308.36,-590.59 301.91,-596.53 301.91,-596.53"/>
<ellipse fill="none" stroke="black" cx="298.88" cy="-597.55" rx="3.2" ry="3.2"/>
</g>
<!-- position -->
<g id="node3" class="node">
<title>position</title>
<g id="a_node3"><a xlink:href="../../tables/position.html" xlink:title="position" target="_top">
<polygon fill="#ffffff" stroke="transparent" points="870,-688 870,-834 1053,-834 1053,-688 870,-688"/>
<polygon fill="#f5f5f5" stroke="transparent" points="870.5,-812 870.5,-834 1053.5,-834 1053.5,-812 870.5,-812"/>
<polygon fill="none" stroke="black" points="870.5,-812 870.5,-834 1053.5,-834 1053.5,-812 870.5,-812"/>
<text text-anchor="start" x="875.5" y="-821.2" font-family="Helvetica,sans-Serif" font-weight="bold" font-size="11.00">position</text>
<text text-anchor="start" x="1011.5" y="-820.2" font-family="Helvetica,sans-Serif" font-size="11.00">[table]</text>
<polygon fill="none" stroke="black" points="870.5,-790 870.5,-812 1053.5,-812 1053.5,-790 870.5,-790"/>
<image xlink:href="../../images/primaryKeys.png" width="11px" height="12px" preserveAspectRatio="xMinYMin meet" x="875.5" y="-807"/>
<text text-anchor="start" x="890.5" y="-798.2" font-family="Helvetica,sans-Serif" font-size="11.00">id</text>
<polygon fill="none" stroke="black" points="870.5,-768 870.5,-790 1053.5,-790 1053.5,-768 870.5,-768"/>
<image xlink:href="../../images/foreignKeys.png" width="11px" height="12px" preserveAspectRatio="xMinYMin meet" x="875.5" y="-785"/>
<text text-anchor="start" x="890.5" y="-776.2" font-family="Helvetica,sans-Serif" font-size="11.00">plot_id</text>
<polygon fill="none" stroke="black" points="870.5,-746 870.5,-768 1053.5,-768 1053.5,-746 870.5,-746"/>
<image xlink:href="../../images/foreignKeys.png" width="11px" height="12px" preserveAspectRatio="xMinYMin meet" x="875.5" y="-763"/>
<text text-anchor="start" x="890.5" y="-754.2" font-family="Helvetica,sans-Serif" font-size="11.00">plot_location_id</text>
<polygon fill="none" stroke="black" points="870.5,-724 870.5,-746 1053.5,-746 1053.5,-724 870.5,-724"/>
<image xlink:href="../../images/foreignKeys.png" width="11px" height="12px" preserveAspectRatio="xMinYMin meet" x="875.5" y="-741"/>
<text text-anchor="start" x="890.5" y="-732.2" font-family="Helvetica,sans-Serif" font-size="11.00">quality</text>
<polygon fill="none" stroke="black" points="870.5,-706 870.5,-724 1053.5,-724 1053.5,-706 870.5,-706"/>
<text text-anchor="start" x="873.5" y="-712.2" font-family="Helvetica,sans-Serif" font-size="11.00">...</text>
<polygon fill="#ffffff" stroke="transparent" points="870.5,-688 870.5,-706 1053.5,-706 1053.5,-688 870.5,-688"/>
<polygon fill="none" stroke="black" points="870.5,-688 870.5,-706 1053.5,-706 1053.5,-688 870.5,-688"/>
<polygon fill="#ffffff" stroke="transparent" points="871.5,-689 871.5,-705 928.5,-705 928.5,-689 871.5,-689"/>
<text text-anchor="start" x="873.5" y="-694.2" font-family="Helvetica,sans-Serif" font-size="11.00">&lt; 3</text>
<polygon fill="#ffffff" stroke="transparent" points="928.5,-689 928.5,-705 1008.5,-705 1008.5,-689 928.5,-689"/>
<text text-anchor="start" x="946.5" y="-694.2" font-family="Helvetica,sans-Serif" font-size="11.00">81 rows</text>
<polygon fill="#ffffff" stroke="transparent" points="1008.5,-689 1008.5,-705 1052.5,-705 1052.5,-689 1008.5,-689"/>
<text text-anchor="start" x="1042.5" y="-694.2" font-family="Helvetica,sans-Serif" font-size="11.00"> &#160;</text>
<polygon fill="black" stroke="black" points="928.5,-689 928.5,-705 928.5,-705 928.5,-689 928.5,-689"/>
<polygon fill="black" stroke="black" points="1008.5,-689 1008.5,-705 1008.5,-705 1008.5,-689 1008.5,-689"/>
</a>
</g>
</g>
<!-- position&#45;&gt;plot_location -->
<g id="edge3" class="edge">
<title>position:w&#45;&gt;plot_location:e</title>
<path fill="none" stroke="black" d="M855.03,-753.79C816.98,-732.8 880.88,-616 820.5,-616"/>
<polygon fill="black" stroke="black" points="861.69,-755.27 868.72,-760.51 865.59,-756.13 869.5,-757 869.5,-757 869.5,-757 865.59,-756.13 870.28,-753.49 861.69,-755.27 861.69,-755.27"/>
<ellipse fill="none" stroke="black" cx="858.57" cy="-754.57" rx="3.2" ry="3.2"/>
</g>
<!-- position&#45;&gt;plot -->
<g id="edge2" class="edge">
<title>position:w&#45;&gt;plot:e</title>
<path fill="none" stroke="black" d="M855.08,-779.07C610.21,-781.45 507.9,-842.73 300,-703 270.67,-683.29 295.84,-634 260.5,-634"/>
<polygon fill="black" stroke="black" points="861.5,-779.04 869.52,-782.6 865.5,-779.02 869.5,-779 869.5,-779 869.5,-779 865.5,-779.02 869.48,-775.4 861.5,-779.04 861.5,-779.04"/>
<ellipse fill="none" stroke="black" cx="858.3" cy="-779.05" rx="3.2" ry="3.2"/>
</g>
<!-- sapling_1m -->
<g id="node4" class="node">
<title>sapling_1m</title>
<g id="a_node4"><a xlink:href="../../tables/sapling_1m.html" xlink:title="sapling_1m" target="_top">
<polygon fill="#ffffff" stroke="transparent" points="874,-499 874,-667 1049,-667 1049,-499 874,-499"/>
<polygon fill="#f5f5f5" stroke="transparent" points="874.5,-645 874.5,-667 1049.5,-667 1049.5,-645 874.5,-645"/>
<polygon fill="none" stroke="black" points="874.5,-645 874.5,-667 1049.5,-667 1049.5,-645 874.5,-645"/>
<text text-anchor="start" x="879.5" y="-654.2" font-family="Helvetica,sans-Serif" font-weight="bold" font-size="11.00">sapling_1m</text>
<text text-anchor="start" x="1007.5" y="-653.2" font-family="Helvetica,sans-Serif" font-size="11.00">[table]</text>
<polygon fill="none" stroke="black" points="874.5,-623 874.5,-645 1049.5,-645 1049.5,-623 874.5,-623"/>
<image xlink:href="../../images/primaryKeys.png" width="11px" height="12px" preserveAspectRatio="xMinYMin meet" x="879.5" y="-640"/>
<text text-anchor="start" x="894.5" y="-631.2" font-family="Helvetica,sans-Serif" font-size="11.00">id</text>
<polygon fill="none" stroke="black" points="874.5,-601 874.5,-623 1049.5,-623 1049.5,-601 874.5,-601"/>
<image xlink:href="../../images/foreignKeys.png" width="11px" height="12px" preserveAspectRatio="xMinYMin meet" x="879.5" y="-618"/>
<text text-anchor="start" x="894.5" y="-609.2" font-family="Helvetica,sans-Serif" font-size="11.00">plot_id</text>
<polygon fill="none" stroke="black" points="874.5,-579 874.5,-601 1049.5,-601 1049.5,-579 874.5,-579"/>
<image xlink:href="../../images/foreignKeys.png" width="11px" height="12px" preserveAspectRatio="xMinYMin meet" x="879.5" y="-596"/>
<text text-anchor="start" x="894.5" y="-587.2" font-family="Helvetica,sans-Serif" font-size="11.00">plot_location_id</text>
<polygon fill="none" stroke="black" points="874.5,-557 874.5,-579 1049.5,-579 1049.5,-557 874.5,-557"/>
<image xlink:href="../../images/foreignKeys.png" width="11px" height="12px" preserveAspectRatio="xMinYMin meet" x="879.5" y="-574"/>
<text text-anchor="start" x="894.5" y="-565.2" font-family="Helvetica,sans-Serif" font-size="11.00">tree_species</text>
<polygon fill="none" stroke="black" points="874.5,-535 874.5,-557 1049.5,-557 1049.5,-535 874.5,-535"/>
<image xlink:href="../../images/foreignKeys.png" width="11px" height="12px" preserveAspectRatio="xMinYMin meet" x="879.5" y="-552"/>
<text text-anchor="start" x="894.5" y="-543.2" font-family="Helvetica,sans-Serif" font-size="11.00">bitten</text>
<polygon fill="none" stroke="black" points="874.5,-517 874.5,-535 1049.5,-535 1049.5,-517 874.5,-517"/>
<text text-anchor="start" x="877.5" y="-523.2" font-family="Helvetica,sans-Serif" font-size="11.00">...</text>
<polygon fill="#ffffff" stroke="transparent" points="874.5,-499 874.5,-517 1049.5,-517 1049.5,-499 874.5,-499"/>
<polygon fill="none" stroke="black" points="874.5,-499 874.5,-517 1049.5,-517 1049.5,-499 874.5,-499"/>
<polygon fill="#ffffff" stroke="transparent" points="875.5,-500 875.5,-516 931.5,-516 931.5,-500 875.5,-500"/>
<text text-anchor="start" x="877.5" y="-505.2" font-family="Helvetica,sans-Serif" font-size="11.00">&lt; 4</text>
<polygon fill="#ffffff" stroke="transparent" points="931.5,-500 931.5,-516 1004.5,-516 1004.5,-500 931.5,-500"/>
<text text-anchor="start" x="949.5" y="-505.2" font-family="Helvetica,sans-Serif" font-size="11.00">0 rows</text>
<polygon fill="#ffffff" stroke="transparent" points="1004.5,-500 1004.5,-516 1048.5,-516 1048.5,-500 1004.5,-500"/>
<text text-anchor="start" x="1038.5" y="-505.2" font-family="Helvetica,sans-Serif" font-size="11.00"> &#160;</text>
<polygon fill="black" stroke="black" points="931.5,-500 931.5,-516 931.5,-516 931.5,-500 931.5,-500"/>
<polygon fill="black" stroke="black" points="1004.5,-500 1004.5,-516 1004.5,-516 1004.5,-500 1004.5,-500"/>
</a>
</g>
</g>
<!-- sapling_1m&#45;&gt;plot_location -->
<g id="edge5" class="edge">
<title>sapling_1m:w&#45;&gt;plot_location:e</title>
<path fill="none" stroke="black" d="M859.43,-593.19C845.8,-600.13 841,-616 820.5,-616"/>
<polygon fill="black" stroke="black" points="865.7,-591.77 874.3,-593.51 869.6,-590.88 873.5,-590 873.5,-590 873.5,-590 869.6,-590.88 872.7,-586.49 865.7,-591.77 865.7,-591.77"/>
<ellipse fill="none" stroke="black" cx="862.58" cy="-592.48" rx="3.2" ry="3.2"/>
</g>
<!-- sapling_1m&#45;&gt;plot -->
<g id="edge4" class="edge">
<title>sapling_1m:w&#45;&gt;plot:e</title>
<path fill="none" stroke="black" d="M859.53,-616.45C847.22,-626.82 850.42,-652.39 829,-662 614.49,-758.25 524.02,-733.35 300,-662 279.5,-655.47 282.02,-634 260.5,-634"/>
<polygon fill="black" stroke="black" points="865.88,-614.43 874.59,-615.43 869.69,-613.22 873.5,-612 873.5,-612 873.5,-612 869.69,-613.22 872.41,-608.57 865.88,-614.43 865.88,-614.43"/>
<ellipse fill="none" stroke="black" cx="862.83" cy="-615.4" rx="3.2" ry="3.2"/>
</g>
<!-- sapling_2m -->
<g id="node5" class="node">
<title>sapling_2m</title>
<g id="a_node5"><a xlink:href="../../tables/sapling_2m.html" xlink:title="sapling_2m" target="_top">
<polygon fill="#ffffff" stroke="transparent" points="874,-260 874,-450 1049,-450 1049,-260 874,-260"/>
<polygon fill="#f5f5f5" stroke="transparent" points="874.5,-428 874.5,-450 1049.5,-450 1049.5,-428 874.5,-428"/>
<polygon fill="none" stroke="black" points="874.5,-428 874.5,-450 1049.5,-450 1049.5,-428 874.5,-428"/>
<text text-anchor="start" x="879.5" y="-437.2" font-family="Helvetica,sans-Serif" font-weight="bold" font-size="11.00">sapling_2m</text>
<text text-anchor="start" x="1007.5" y="-436.2" font-family="Helvetica,sans-Serif" font-size="11.00">[table]</text>
<polygon fill="none" stroke="black" points="874.5,-406 874.5,-428 1049.5,-428 1049.5,-406 874.5,-406"/>
<image xlink:href="../../images/primaryKeys.png" width="11px" height="12px" preserveAspectRatio="xMinYMin meet" x="879.5" y="-423"/>
<text text-anchor="start" x="894.5" y="-414.2" font-family="Helvetica,sans-Serif" font-size="11.00">id</text>
<polygon fill="none" stroke="black" points="874.5,-384 874.5,-406 1049.5,-406 1049.5,-384 874.5,-384"/>
<image xlink:href="../../images/foreignKeys.png" width="11px" height="12px" preserveAspectRatio="xMinYMin meet" x="879.5" y="-401"/>
<text text-anchor="start" x="894.5" y="-392.2" font-family="Helvetica,sans-Serif" font-size="11.00">plot_id</text>
<polygon fill="none" stroke="black" points="874.5,-362 874.5,-384 1049.5,-384 1049.5,-362 874.5,-362"/>
<image xlink:href="../../images/foreignKeys.png" width="11px" height="12px" preserveAspectRatio="xMinYMin meet" x="879.5" y="-379"/>
<text text-anchor="start" x="894.5" y="-370.2" font-family="Helvetica,sans-Serif" font-size="11.00">plot_location_id</text>
<polygon fill="none" stroke="black" points="874.5,-340 874.5,-362 1049.5,-362 1049.5,-340 874.5,-340"/>
<image xlink:href="../../images/foreignKeys.png" width="11px" height="12px" preserveAspectRatio="xMinYMin meet" x="879.5" y="-357"/>
<text text-anchor="start" x="894.5" y="-348.2" font-family="Helvetica,sans-Serif" font-size="11.00">tree_species</text>
<polygon fill="none" stroke="black" points="874.5,-318 874.5,-340 1049.5,-340 1049.5,-318 874.5,-318"/>
<image xlink:href="../../images/foreignKeys.png" width="11px" height="12px" preserveAspectRatio="xMinYMin meet" x="879.5" y="-335"/>
<text text-anchor="start" x="894.5" y="-326.2" font-family="Helvetica,sans-Serif" font-size="11.00">bitten</text>
<polygon fill="none" stroke="black" points="874.5,-296 874.5,-318 1049.5,-318 1049.5,-296 874.5,-296"/>
<image xlink:href="../../images/foreignKeys.png" width="11px" height="12px" preserveAspectRatio="xMinYMin meet" x="879.5" y="-313"/>
<text text-anchor="start" x="894.5" y="-304.2" font-family="Helvetica,sans-Serif" font-size="11.00">tree_size_class</text>
<polygon fill="none" stroke="black" points="874.5,-278 874.5,-296 1049.5,-296 1049.5,-278 874.5,-278"/>
<text text-anchor="start" x="877.5" y="-284.2" font-family="Helvetica,sans-Serif" font-size="11.00">...</text>
<polygon fill="#ffffff" stroke="transparent" points="874.5,-260 874.5,-278 1049.5,-278 1049.5,-260 874.5,-260"/>
<polygon fill="none" stroke="black" points="874.5,-260 874.5,-278 1049.5,-278 1049.5,-260 874.5,-260"/>
<polygon fill="#ffffff" stroke="transparent" points="875.5,-261 875.5,-277 931.5,-277 931.5,-261 875.5,-261"/>
<text text-anchor="start" x="877.5" y="-266.2" font-family="Helvetica,sans-Serif" font-size="11.00">&lt; 5</text>
<polygon fill="#ffffff" stroke="transparent" points="931.5,-261 931.5,-277 1004.5,-277 1004.5,-261 931.5,-261"/>
<text text-anchor="start" x="949.5" y="-266.2" font-family="Helvetica,sans-Serif" font-size="11.00">0 rows</text>
<polygon fill="#ffffff" stroke="transparent" points="1004.5,-261 1004.5,-277 1048.5,-277 1048.5,-261 1004.5,-261"/>
<text text-anchor="start" x="1038.5" y="-266.2" font-family="Helvetica,sans-Serif" font-size="11.00"> &#160;</text>
<polygon fill="black" stroke="black" points="931.5,-261 931.5,-277 931.5,-277 931.5,-261 931.5,-261"/>
<polygon fill="black" stroke="black" points="1004.5,-261 1004.5,-277 1004.5,-277 1004.5,-261 1004.5,-261"/>
</a>
</g>
</g>
<!-- sapling_2m&#45;&gt;plot_location -->
<g id="edge7" class="edge">
<title>sapling_2m:w&#45;&gt;plot_location:e</title>
<path fill="none" stroke="black" d="M858.74,-374.82C779.31,-397.05 925.43,-616 820.5,-616"/>
<polygon fill="black" stroke="black" points="865.56,-373.98 873.94,-376.57 869.53,-373.49 873.5,-373 873.5,-373 873.5,-373 869.53,-373.49 873.06,-369.43 865.56,-373.98 865.56,-373.98"/>
<ellipse fill="none" stroke="black" cx="862.38" cy="-374.37" rx="3.2" ry="3.2"/>
</g>
<!-- sapling_2m&#45;&gt;plot -->
<g id="edge6" class="edge">
<title>sapling_2m:w&#45;&gt;plot:e</title>
<path fill="none" stroke="black" d="M859.48,-390.64C848.41,-381.86 848.01,-362.29 829,-355 609.47,-270.84 477.52,-200.84 300,-355 252.72,-396.06 323.12,-634 260.5,-634"/>
<polygon fill="black" stroke="black" points="865.86,-392.62 872.43,-398.44 869.68,-393.81 873.5,-395 873.5,-395 873.5,-395 869.68,-393.81 874.57,-391.56 865.86,-392.62 865.86,-392.62"/>
<ellipse fill="none" stroke="black" cx="862.81" cy="-391.67" rx="3.2" ry="3.2"/>
</g>
</g>
</svg>
