<?xml version="1.0" encoding="UTF-8" standalone="no"?>
<!DOCTYPE svg PUBLIC "-//W3C//DTD SVG 1.1//EN"
 "http://www.w3.org/Graphics/SVG/1.1/DTD/svg11.dtd">
<!-- Generated by graphviz version 2.43.0 (0)
 -->
<!-- Title: oneDegreeRelationshipsDiagram Pages: 1 -->
<svg width="1106pt" height="674pt"
 viewBox="0.00 0.00 1106.00 674.00" xmlns="http://www.w3.org/2000/svg" xmlns:xlink="http://www.w3.org/1999/xlink">
<g id="graph0" class="graph" transform="scale(1 1) rotate(0) translate(4 670)">
<title>oneDegreeRelationshipsDiagram</title>
<polygon fill="#ffffff" stroke="transparent" points="-4,4 -4,-670 1102,-670 1102,4 -4,4"/>
<text text-anchor="middle" x="79.5" y="-7.2" font-family="Helvetica,sans-Serif" font-size="11.00">Generated by SchemaSpy</text>
<!-- plot_location -->
<g id="node1" class="node">
<title>plot_location</title>
<g id="a_node1"><a xlink:href="../../tables/plot_location.html" xlink:title="plot_location" target="_top">
<polygon fill="#ffffff" stroke="transparent" points="345,-189 345,-475 858,-475 858,-189 345,-189"/>
<polygon fill="#f5f5f5" stroke="transparent" points="347.5,-451 347.5,-473 856.5,-473 856.5,-451 347.5,-451"/>
<polygon fill="none" stroke="black" points="347.5,-451 347.5,-473 856.5,-473 856.5,-451 347.5,-451"/>
<text text-anchor="start" x="352.5" y="-460.2" font-family="Helvetica,sans-Serif" font-weight="bold" font-size="11.00">plot_location</text>
<text text-anchor="start" x="814.5" y="-459.2" font-family="Helvetica,sans-Serif" font-size="11.00">[table]</text>
<polygon fill="none" stroke="black" points="347.5,-429 347.5,-451 462.5,-451 462.5,-429 347.5,-429"/>
<image xlink:href="../../images/primaryKeys.png" width="11px" height="12px" preserveAspectRatio="xMinYMin meet" x="352.5" y="-446"/>
<text text-anchor="start" x="367.5" y="-437.2" font-family="Helvetica,sans-Serif" font-size="11.00">id</text>
<polygon fill="none" stroke="black" points="462.5,-429 462.5,-451 856.5,-451 856.5,-429 462.5,-429"/>
<text text-anchor="start" x="465.5" y="-437.2" font-family="Helvetica,sans-Serif" font-size="11.00">serial[10]</text>
<polygon fill="#ffffff" stroke="transparent" points="347.5,-407 347.5,-429 462.5,-429 462.5,-407 347.5,-407"/>
<polygon fill="none" stroke="black" points="347.5,-407 347.5,-429 462.5,-429 462.5,-407 347.5,-407"/>
<image xlink:href="../../images/foreignKeys.png" width="11px" height="12px" preserveAspectRatio="xMinYMin meet" x="352.5" y="-424"/>
<text text-anchor="start" x="367.5" y="-415.2" font-family="Helvetica,sans-Serif" font-size="11.00">plot_id</text>
<polygon fill="none" stroke="black" points="462.5,-407 462.5,-429 856.5,-429 856.5,-407 462.5,-407"/>
<text text-anchor="start" x="465.5" y="-415.2" font-family="Helvetica,sans-Serif" font-size="11.00">int4[10]</text>
<polygon fill="#ffffff" stroke="transparent" points="347.5,-385 347.5,-407 462.5,-407 462.5,-385 347.5,-385"/>
<polygon fill="none" stroke="black" points="347.5,-385 347.5,-407 462.5,-407 462.5,-385 347.5,-385"/>
<text text-anchor="start" x="367.5" y="-393.2" font-family="Helvetica,sans-Serif" font-size="11.00">parent_table</text>
<polygon fill="none" stroke="black" points="462.5,-385 462.5,-407 856.5,-407 856.5,-385 462.5,-385"/>
<text text-anchor="start" x="465.5" y="-393.2" font-family="Helvetica,sans-Serif" font-size="11.00">&quot;private_ci2027_001&quot;.&quot;enum_plot_location_parent_table&quot;[2147483647]</text>
<polygon fill="none" stroke="black" points="347.5,-363 347.5,-385 462.5,-385 462.5,-363 347.5,-363"/>
<text text-anchor="start" x="367.5" y="-371.2" font-family="Helvetica,sans-Serif" font-size="11.00">created_at</text>
<polygon fill="none" stroke="black" points="462.5,-363 462.5,-385 856.5,-385 856.5,-363 462.5,-363"/>
<text text-anchor="start" x="465.5" y="-371.2" font-family="Helvetica,sans-Serif" font-size="11.00">timestamp[29,6]</text>
<polygon fill="none" stroke="black" points="347.5,-341 347.5,-363 462.5,-363 462.5,-341 347.5,-341"/>
<text text-anchor="start" x="367.5" y="-349.2" font-family="Helvetica,sans-Serif" font-size="11.00">modified_at</text>
<polygon fill="none" stroke="black" points="462.5,-341 462.5,-363 856.5,-363 856.5,-341 462.5,-341"/>
<text text-anchor="start" x="465.5" y="-349.2" font-family="Helvetica,sans-Serif" font-size="11.00">timestamp[29,6]</text>
<polygon fill="none" stroke="black" points="347.5,-319 347.5,-341 462.5,-341 462.5,-319 347.5,-319"/>
<text text-anchor="start" x="367.5" y="-327.2" font-family="Helvetica,sans-Serif" font-size="11.00">modified_by</text>
<polygon fill="none" stroke="black" points="462.5,-319 462.5,-341 856.5,-341 856.5,-319 462.5,-319"/>
<text text-anchor="start" x="465.5" y="-327.2" font-family="Helvetica,sans-Serif" font-size="11.00">regrole[2147483647]</text>
<polygon fill="none" stroke="black" points="347.5,-297 347.5,-319 462.5,-319 462.5,-297 347.5,-297"/>
<text text-anchor="start" x="367.5" y="-305.2" font-family="Helvetica,sans-Serif" font-size="11.00">azimuth</text>
<polygon fill="none" stroke="black" points="462.5,-297 462.5,-319 856.5,-319 856.5,-297 462.5,-297"/>
<text text-anchor="start" x="465.5" y="-305.2" font-family="Helvetica,sans-Serif" font-size="11.00">&quot;private_ci2027_001&quot;.&quot;ck_gon&quot;[5]</text>
<polygon fill="none" stroke="black" points="347.5,-275 347.5,-297 462.5,-297 462.5,-275 347.5,-275"/>
<text text-anchor="start" x="367.5" y="-283.2" font-family="Helvetica,sans-Serif" font-size="11.00">distance</text>
<polygon fill="none" stroke="black" points="462.5,-275 462.5,-297 856.5,-297 856.5,-275 462.5,-275"/>
<text text-anchor="start" x="465.5" y="-283.2" font-family="Helvetica,sans-Serif" font-size="11.00">int2[5]</text>
<polygon fill="none" stroke="black" points="347.5,-253 347.5,-275 462.5,-275 462.5,-253 347.5,-253"/>
<text text-anchor="start" x="367.5" y="-261.2" font-family="Helvetica,sans-Serif" font-size="11.00">radius</text>
<polygon fill="none" stroke="black" points="462.5,-253 462.5,-275 856.5,-275 856.5,-253 462.5,-253"/>
<text text-anchor="start" x="465.5" y="-261.2" font-family="Helvetica,sans-Serif" font-size="11.00">int2[5]</text>
<polygon fill="none" stroke="black" points="347.5,-231 347.5,-253 462.5,-253 462.5,-231 347.5,-231"/>
<text text-anchor="start" x="367.5" y="-239.2" font-family="Helvetica,sans-Serif" font-size="11.00">geometry</text>
<polygon fill="none" stroke="black" points="462.5,-231 462.5,-253 856.5,-253 856.5,-231 462.5,-231"/>
<text text-anchor="start" x="465.5" y="-239.2" font-family="Helvetica,sans-Serif" font-size="11.00">geometry[2147483647]</text>
<polygon fill="none" stroke="black" points="347.5,-209 347.5,-231 462.5,-231 462.5,-209 347.5,-209"/>
<text text-anchor="start" x="367.5" y="-217.2" font-family="Helvetica,sans-Serif" font-size="11.00">no_entities</text>
<polygon fill="none" stroke="black" points="462.5,-209 462.5,-231 856.5,-231 856.5,-209 462.5,-209"/>
<text text-anchor="start" x="465.5" y="-217.2" font-family="Helvetica,sans-Serif" font-size="11.00">bool[1]</text>
<polygon fill="#ffffff" stroke="transparent" points="347.5,-191 347.5,-209 856.5,-209 856.5,-191 347.5,-191"/>
<polygon fill="none" stroke="black" points="347.5,-191 347.5,-209 856.5,-209 856.5,-191 347.5,-191"/>
<polygon fill="#ffffff" stroke="transparent" points="348.5,-192 348.5,-208 512.5,-208 512.5,-192 348.5,-192"/>
<text text-anchor="start" x="350.5" y="-197.2" font-family="Helvetica,sans-Serif" font-size="11.00">&lt; 1</text>
<polygon fill="#ffffff" stroke="transparent" points="512.5,-192 512.5,-208 692.5,-208 692.5,-192 512.5,-192"/>
<text text-anchor="start" x="584" y="-197.2" font-family="Helvetica,sans-Serif" font-size="11.00">0 rows</text>
<polygon fill="#ffffff" stroke="transparent" points="692.5,-192 692.5,-208 855.5,-208 855.5,-192 692.5,-192"/>
<text text-anchor="start" x="833.5" y="-197.2" font-family="Helvetica,sans-Serif" font-size="11.00">3 &gt;</text>
<polygon fill="black" stroke="black" points="512.5,-192 512.5,-208 512.5,-208 512.5,-192 512.5,-192"/>
<polygon fill="black" stroke="black" points="692.5,-192 692.5,-208 692.5,-208 692.5,-192 692.5,-192"/>
<polygon fill="none" stroke="black" stroke-width="2" points="346,-190 346,-474 857,-474 857,-190 346,-190"/>
</a>
</g>
</g>
<!-- plot -->
<g id="node2" class="node">
<title>plot</title>
<g id="a_node2"><a xlink:href="../../tables/plot.html" xlink:title="plot" target="_top">
<polygon fill="#ffffff" stroke="transparent" points="8,-37 8,-491 296,-491 296,-37 8,-37"/>
<polygon fill="#f5f5f5" stroke="transparent" points="8,-469 8,-491 296,-491 296,-469 8,-469"/>
<polygon fill="none" stroke="black" points="8,-469 8,-491 296,-491 296,-469 8,-469"/>
<text text-anchor="start" x="12.5" y="-478.2" font-family="Helvetica,sans-Serif" font-weight="bold" font-size="11.00">plot</text>
<text text-anchor="start" x="254" y="-477.2" font-family="Helvetica,sans-Serif" font-size="11.00">[table]</text>
<polygon fill="none" stroke="black" points="8,-447 8,-469 296,-469 296,-447 8,-447"/>
<image xlink:href="../../images/primaryKeys.png" width="11px" height="12px" preserveAspectRatio="xMinYMin meet" x="13" y="-464"/>
<text text-anchor="start" x="28" y="-455.2" font-family="Helvetica,sans-Serif" font-size="11.00">id</text>
<polygon fill="#ffffff" stroke="transparent" points="8,-425 8,-447 296,-447 296,-425 8,-425"/>
<polygon fill="none" stroke="black" points="8,-425 8,-447 296,-447 296,-425 8,-425"/>
<image xlink:href="../../images/foreignKeys.png" width="11px" height="12px" preserveAspectRatio="xMinYMin meet" x="13" y="-442"/>
<text text-anchor="start" x="28" y="-433.2" font-family="Helvetica,sans-Serif" font-size="11.00">cluster_id</text>
<polygon fill="#ffffff" stroke="transparent" points="8,-403 8,-425 296,-425 296,-403 8,-403"/>
<polygon fill="none" stroke="black" points="8,-403 8,-425 296,-425 296,-403 8,-403"/>
<text text-anchor="start" x="28" y="-411.2" font-family="Helvetica,sans-Serif" font-size="11.00">plot_name</text>
<polygon fill="none" stroke="black" points="8,-381 8,-403 296,-403 296,-381 8,-381"/>
<image xlink:href="../../images/foreignKeys.png" width="11px" height="12px" preserveAspectRatio="xMinYMin meet" x="13" y="-398"/>
<text text-anchor="start" x="28" y="-389.2" font-family="Helvetica,sans-Serif" font-size="11.00">growth_district</text>
<polygon fill="none" stroke="black" points="8,-359 8,-381 296,-381 296,-359 8,-359"/>
<image xlink:href="../../images/foreignKeys.png" width="11px" height="12px" preserveAspectRatio="xMinYMin meet" x="13" y="-376"/>
<text text-anchor="start" x="28" y="-367.2" font-family="Helvetica,sans-Serif" font-size="11.00">forest_status</text>
<polygon fill="none" stroke="black" points="8,-337 8,-359 296,-359 296,-337 8,-337"/>
<image xlink:href="../../images/foreignKeys.png" width="11px" height="12px" preserveAspectRatio="xMinYMin meet" x="13" y="-354"/>
<text text-anchor="start" x="28" y="-345.2" font-family="Helvetica,sans-Serif" font-size="11.00">elevation_level</text>
<polygon fill="none" stroke="black" points="8,-315 8,-337 296,-337 296,-315 8,-315"/>
<image xlink:href="../../images/foreignKeys.png" width="11px" height="12px" preserveAspectRatio="xMinYMin meet" x="13" y="-332"/>
<text text-anchor="start" x="28" y="-323.2" font-family="Helvetica,sans-Serif" font-size="11.00">property_type</text>
<polygon fill="none" stroke="black" points="8,-293 8,-315 296,-315 296,-293 8,-293"/>
<image xlink:href="../../images/foreignKeys.png" width="11px" height="12px" preserveAspectRatio="xMinYMin meet" x="13" y="-310"/>
<text text-anchor="start" x="28" y="-301.2" font-family="Helvetica,sans-Serif" font-size="11.00">property_size_class</text>
<polygon fill="none" stroke="black" points="8,-271 8,-293 296,-293 296,-271 8,-271"/>
<image xlink:href="../../images/foreignKeys.png" width="11px" height="12px" preserveAspectRatio="xMinYMin meet" x="13" y="-288"/>
<text text-anchor="start" x="28" y="-279.2" font-family="Helvetica,sans-Serif" font-size="11.00">land_use_after</text>
<polygon fill="none" stroke="black" points="8,-249 8,-271 296,-271 296,-249 8,-249"/>
<image xlink:href="../../images/foreignKeys.png" width="11px" height="12px" preserveAspectRatio="xMinYMin meet" x="13" y="-266"/>
<text text-anchor="start" x="28" y="-257.2" font-family="Helvetica,sans-Serif" font-size="11.00">marker_status</text>
<polygon fill="none" stroke="black" points="8,-227 8,-249 296,-249 296,-227 8,-227"/>
<image xlink:href="../../images/foreignKeys.png" width="11px" height="12px" preserveAspectRatio="xMinYMin meet" x="13" y="-244"/>
<text text-anchor="start" x="28" y="-235.2" font-family="Helvetica,sans-Serif" font-size="11.00">marker_profile</text>
<polygon fill="none" stroke="black" points="8,-205 8,-227 296,-227 296,-205 8,-205"/>
<image xlink:href="../../images/foreignKeys.png" width="11px" height="12px" preserveAspectRatio="xMinYMin meet" x="13" y="-222"/>
<text text-anchor="start" x="28" y="-213.2" font-family="Helvetica,sans-Serif" font-size="11.00">terrain_form</text>
<polygon fill="none" stroke="black" points="8,-183 8,-205 296,-205 296,-183 8,-183"/>
<image xlink:href="../../images/foreignKeys.png" width="11px" height="12px" preserveAspectRatio="xMinYMin meet" x="13" y="-200"/>
<text text-anchor="start" x="28" y="-191.2" font-family="Helvetica,sans-Serif" font-size="11.00">management_type</text>
<polygon fill="none" stroke="black" points="8,-161 8,-183 296,-183 296,-161 8,-161"/>
<image xlink:href="../../images/foreignKeys.png" width="11px" height="12px" preserveAspectRatio="xMinYMin meet" x="13" y="-178"/>
<text text-anchor="start" x="28" y="-169.2" font-family="Helvetica,sans-Serif" font-size="11.00">harvesting_method</text>
<polygon fill="none" stroke="black" points="8,-139 8,-161 296,-161 296,-139 8,-139"/>
<image xlink:href="../../images/foreignKeys.png" width="11px" height="12px" preserveAspectRatio="xMinYMin meet" x="13" y="-156"/>
<text text-anchor="start" x="28" y="-147.2" font-family="Helvetica,sans-Serif" font-size="11.00">stand_structure</text>
<polygon fill="none" stroke="black" points="8,-117 8,-139 296,-139 296,-117 8,-117"/>
<image xlink:href="../../images/foreignKeys.png" width="11px" height="12px" preserveAspectRatio="xMinYMin meet" x="13" y="-134"/>
<text text-anchor="start" x="28" y="-125.2" font-family="Helvetica,sans-Serif" font-size="11.00">stand_dev_phase</text>
<polygon fill="none" stroke="black" points="8,-95 8,-117 296,-117 296,-95 8,-95"/>
<image xlink:href="../../images/foreignKeys.png" width="11px" height="12px" preserveAspectRatio="xMinYMin meet" x="13" y="-112"/>
<text text-anchor="start" x="28" y="-103.2" font-family="Helvetica,sans-Serif" font-size="11.00">stand_layer_reg</text>
<polygon fill="none" stroke="black" points="8,-73 8,-95 296,-95 296,-73 8,-73"/>
<image xlink:href="../../images/foreignKeys.png" width="11px" height="12px" preserveAspectRatio="xMinYMin meet" x="13" y="-90"/>
<text text-anchor="start" x="28" y="-81.2" font-family="Helvetica,sans-Serif" font-size="11.00">trees_less_4meter_mirrored</text>
<polygon fill="none" stroke="black" points="8,-55 8,-73 296,-73 296,-55 8,-55"/>
<text text-anchor="start" x="11" y="-61.2" font-family="Helvetica,sans-Serif" font-size="11.00">...</text>
<polygon fill="#ffffff" stroke="transparent" points="8,-37 8,-55 296,-55 296,-37 8,-37"/>
<polygon fill="none" stroke="black" points="8,-37 8,-55 296,-55 296,-37 8,-37"/>
<polygon fill="#ffffff" stroke="transparent" points="9,-38 9,-54 104,-54 104,-38 9,-38"/>
<text text-anchor="start" x="11" y="-43.2" font-family="Helvetica,sans-Serif" font-size="11.00">&lt; 16</text>
<polygon fill="#ffffff" stroke="transparent" points="104,-38 104,-54 208,-54 208,-38 104,-38"/>
<text text-anchor="start" x="137.5" y="-43.2" font-family="Helvetica,sans-Serif" font-size="11.00">0 rows</text>
<polygon fill="#ffffff" stroke="transparent" points="208,-38 208,-54 295,-54 295,-38 208,-38"/>
<text text-anchor="start" x="273" y="-43.2" font-family="Helvetica,sans-Serif" font-size="11.00">7 &gt;</text>
<polygon fill="black" stroke="black" points="104,-38 104,-54 104,-54 104,-38 104,-38"/>
<polygon fill="black" stroke="black" points="208,-38 208,-54 208,-54 208,-38 208,-38"/>
</a>
</g>
</g>
<!-- plot_location&#45;&gt;plot -->
<g id="edge1" class="edge">
<title>plot_location:w&#45;&gt;plot:e</title>
<path fill="none" stroke="black" d="M332.66,-422.59C319.62,-433.1 319.32,-458 297,-458"/>
<polygon fill="black" stroke="black" points="338.91,-420.52 347.63,-421.42 342.7,-419.26 346.5,-418 346.5,-418 346.5,-418 342.7,-419.26 345.37,-414.58 338.91,-420.52 338.91,-420.52"/>
<ellipse fill="none" stroke="black" cx="335.87" cy="-421.52" rx="3.2" ry="3.2"/>
</g>
<!-- position -->
<g id="node3" class="node">
<title>position</title>
<g id="a_node3"><a xlink:href="../../tables/position.html" xlink:title="position" target="_top">
<polygon fill="#ffffff" stroke="transparent" points="907,-516 907,-662 1090,-662 1090,-516 907,-516"/>
<polygon fill="#f5f5f5" stroke="transparent" points="907.5,-640 907.5,-662 1090.5,-662 1090.5,-640 907.5,-640"/>
<polygon fill="none" stroke="black" points="907.5,-640 907.5,-662 1090.5,-662 1090.5,-640 907.5,-640"/>
<text text-anchor="start" x="912.5" y="-649.2" font-family="Helvetica,sans-Serif" font-weight="bold" font-size="11.00">position</text>
<text text-anchor="start" x="1048.5" y="-648.2" font-family="Helvetica,sans-Serif" font-size="11.00">[table]</text>
<polygon fill="none" stroke="black" points="907.5,-618 907.5,-640 1090.5,-640 1090.5,-618 907.5,-618"/>
<image xlink:href="../../images/primaryKeys.png" width="11px" height="12px" preserveAspectRatio="xMinYMin meet" x="912.5" y="-635"/>
<text text-anchor="start" x="927.5" y="-626.2" font-family="Helvetica,sans-Serif" font-size="11.00">id</text>
<polygon fill="none" stroke="black" points="907.5,-596 907.5,-618 1090.5,-618 1090.5,-596 907.5,-596"/>
<image xlink:href="../../images/foreignKeys.png" width="11px" height="12px" preserveAspectRatio="xMinYMin meet" x="912.5" y="-613"/>
<text text-anchor="start" x="927.5" y="-604.2" font-family="Helvetica,sans-Serif" font-size="11.00">plot_id</text>
<polygon fill="none" stroke="black" points="907.5,-574 907.5,-596 1090.5,-596 1090.5,-574 907.5,-574"/>
<image xlink:href="../../images/foreignKeys.png" width="11px" height="12px" preserveAspectRatio="xMinYMin meet" x="912.5" y="-591"/>
<text text-anchor="start" x="927.5" y="-582.2" font-family="Helvetica,sans-Serif" font-size="11.00">plot_location_id</text>
<polygon fill="none" stroke="black" points="907.5,-552 907.5,-574 1090.5,-574 1090.5,-552 907.5,-552"/>
<image xlink:href="../../images/foreignKeys.png" width="11px" height="12px" preserveAspectRatio="xMinYMin meet" x="912.5" y="-569"/>
<text text-anchor="start" x="927.5" y="-560.2" font-family="Helvetica,sans-Serif" font-size="11.00">quality</text>
<polygon fill="none" stroke="black" points="907.5,-534 907.5,-552 1090.5,-552 1090.5,-534 907.5,-534"/>
<text text-anchor="start" x="910.5" y="-540.2" font-family="Helvetica,sans-Serif" font-size="11.00">...</text>
<polygon fill="#ffffff" stroke="transparent" points="907.5,-516 907.5,-534 1090.5,-534 1090.5,-516 907.5,-516"/>
<polygon fill="none" stroke="black" points="907.5,-516 907.5,-534 1090.5,-534 1090.5,-516 907.5,-516"/>
<polygon fill="#ffffff" stroke="transparent" points="908.5,-517 908.5,-533 967.5,-533 967.5,-517 908.5,-517"/>
<text text-anchor="start" x="910.5" y="-522.2" font-family="Helvetica,sans-Serif" font-size="11.00">&lt; 3</text>
<polygon fill="#ffffff" stroke="transparent" points="967.5,-517 967.5,-533 1043.5,-533 1043.5,-517 967.5,-517"/>
<text text-anchor="start" x="987" y="-522.2" font-family="Helvetica,sans-Serif" font-size="11.00">0 rows</text>
<polygon fill="#ffffff" stroke="transparent" points="1043.5,-517 1043.5,-533 1089.5,-533 1089.5,-517 1043.5,-517"/>
<text text-anchor="start" x="1079.5" y="-522.2" font-family="Helvetica,sans-Serif" font-size="11.00"> &#160;</text>
<polygon fill="black" stroke="black" points="967.5,-517 967.5,-533 967.5,-533 967.5,-517 967.5,-517"/>
<polygon fill="black" stroke="black" points="1043.5,-517 1043.5,-533 1043.5,-533 1043.5,-517 1043.5,-517"/>
</a>
</g>
</g>
<!-- position&#45;&gt;plot_location -->
<g id="edge3" class="edge">
<title>position:w&#45;&gt;plot_location:e</title>
<path fill="none" stroke="black" d="M892.2,-581.97C852.29,-561.15 919.68,-440 857.5,-440"/>
<polygon fill="black" stroke="black" points="898.67,-583.34 905.75,-588.52 902.59,-584.17 906.5,-585 906.5,-585 906.5,-585 902.59,-584.17 907.25,-581.48 898.67,-583.34 898.67,-583.34"/>
<ellipse fill="none" stroke="black" cx="895.54" cy="-582.68" rx="3.2" ry="3.2"/>
</g>
<!-- position&#45;&gt;plot -->
<g id="edge2" class="edge">
<title>position:w&#45;&gt;plot:e</title>
<path fill="none" stroke="black" d="M892.01,-607.04C646.21,-608.36 552.23,-641.67 337,-511 311.77,-495.68 326.51,-458 297,-458"/>
<polygon fill="black" stroke="black" points="898.5,-607.02 906.51,-610.6 902.5,-607.01 906.5,-607 906.5,-607 906.5,-607 902.5,-607.01 906.49,-603.4 898.5,-607.02 898.5,-607.02"/>
<ellipse fill="none" stroke="black" cx="895.3" cy="-607.03" rx="3.2" ry="3.2"/>
</g>
<!-- regeneration -->
<g id="node4" class="node">
<title>regeneration</title>
<g id="a_node4"><a xlink:href="../../tables/regeneration.html" xlink:title="regeneration" target="_top">
<polygon fill="#ffffff" stroke="transparent" points="911,-305 911,-495 1086,-495 1086,-305 911,-305"/>
<polygon fill="#f5f5f5" stroke="transparent" points="911.5,-473 911.5,-495 1086.5,-495 1086.5,-473 911.5,-473"/>
<polygon fill="none" stroke="black" points="911.5,-473 911.5,-495 1086.5,-495 1086.5,-473 911.5,-473"/>
<text text-anchor="start" x="916.5" y="-482.2" font-family="Helvetica,sans-Serif" font-weight="bold" font-size="11.00">regeneration</text>
<text text-anchor="start" x="1044.5" y="-481.2" font-family="Helvetica,sans-Serif" font-size="11.00">[table]</text>
<polygon fill="none" stroke="black" points="911.5,-451 911.5,-473 1086.5,-473 1086.5,-451 911.5,-451"/>
<image xlink:href="../../images/primaryKeys.png" width="11px" height="12px" preserveAspectRatio="xMinYMin meet" x="916.5" y="-468"/>
<text text-anchor="start" x="931.5" y="-459.2" font-family="Helvetica,sans-Serif" font-size="11.00">id</text>
<polygon fill="none" stroke="black" points="911.5,-429 911.5,-451 1086.5,-451 1086.5,-429 911.5,-429"/>
<image xlink:href="../../images/foreignKeys.png" width="11px" height="12px" preserveAspectRatio="xMinYMin meet" x="916.5" y="-446"/>
<text text-anchor="start" x="931.5" y="-437.2" font-family="Helvetica,sans-Serif" font-size="11.00">plot_id</text>
<polygon fill="none" stroke="black" points="911.5,-407 911.5,-429 1086.5,-429 1086.5,-407 911.5,-407"/>
<image xlink:href="../../images/foreignKeys.png" width="11px" height="12px" preserveAspectRatio="xMinYMin meet" x="916.5" y="-424"/>
<text text-anchor="start" x="931.5" y="-415.2" font-family="Helvetica,sans-Serif" font-size="11.00">plot_location_id</text>
<polygon fill="none" stroke="black" points="911.5,-385 911.5,-407 1086.5,-407 1086.5,-385 911.5,-385"/>
<image xlink:href="../../images/foreignKeys.png" width="11px" height="12px" preserveAspectRatio="xMinYMin meet" x="916.5" y="-402"/>
<text text-anchor="start" x="931.5" y="-393.2" font-family="Helvetica,sans-Serif" font-size="11.00">tree_species</text>
<polygon fill="none" stroke="black" points="911.5,-363 911.5,-385 1086.5,-385 1086.5,-363 911.5,-363"/>
<image xlink:href="../../images/foreignKeys.png" width="11px" height="12px" preserveAspectRatio="xMinYMin meet" x="916.5" y="-380"/>
<text text-anchor="start" x="931.5" y="-371.2" font-family="Helvetica,sans-Serif" font-size="11.00">browsing</text>
<polygon fill="none" stroke="black" points="911.5,-341 911.5,-363 1086.5,-363 1086.5,-341 911.5,-341"/>
<image xlink:href="../../images/foreignKeys.png" width="11px" height="12px" preserveAspectRatio="xMinYMin meet" x="916.5" y="-358"/>
<text text-anchor="start" x="931.5" y="-349.2" font-family="Helvetica,sans-Serif" font-size="11.00">tree_size_class</text>
<polygon fill="none" stroke="black" points="911.5,-323 911.5,-341 1086.5,-341 1086.5,-323 911.5,-323"/>
<text text-anchor="start" x="914.5" y="-329.2" font-family="Helvetica,sans-Serif" font-size="11.00">...</text>
<polygon fill="#ffffff" stroke="transparent" points="911.5,-305 911.5,-323 1086.5,-323 1086.5,-305 911.5,-305"/>
<polygon fill="none" stroke="black" points="911.5,-305 911.5,-323 1086.5,-323 1086.5,-305 911.5,-305"/>
<polygon fill="#ffffff" stroke="transparent" points="912.5,-306 912.5,-322 968.5,-322 968.5,-306 912.5,-306"/>
<text text-anchor="start" x="914.5" y="-311.2" font-family="Helvetica,sans-Serif" font-size="11.00">&lt; 5</text>
<polygon fill="#ffffff" stroke="transparent" points="968.5,-306 968.5,-322 1041.5,-322 1041.5,-306 968.5,-306"/>
<text text-anchor="start" x="986.5" y="-311.2" font-family="Helvetica,sans-Serif" font-size="11.00">0 rows</text>
<polygon fill="#ffffff" stroke="transparent" points="1041.5,-306 1041.5,-322 1085.5,-322 1085.5,-306 1041.5,-306"/>
<text text-anchor="start" x="1075.5" y="-311.2" font-family="Helvetica,sans-Serif" font-size="11.00"> &#160;</text>
<polygon fill="black" stroke="black" points="968.5,-306 968.5,-322 968.5,-322 968.5,-306 968.5,-306"/>
<polygon fill="black" stroke="black" points="1041.5,-306 1041.5,-322 1041.5,-322 1041.5,-306 1041.5,-306"/>
</a>
</g>
</g>
<!-- regeneration&#45;&gt;plot_location -->
<g id="edge5" class="edge">
<title>regeneration:w&#45;&gt;plot_location:e</title>
<path fill="none" stroke="black" d="M896.24,-420.88C882.89,-426.84 877.23,-440 857.5,-440"/>
<polygon fill="black" stroke="black" points="902.66,-419.58 911.21,-421.53 906.58,-418.79 910.5,-418 910.5,-418 910.5,-418 906.58,-418.79 909.79,-414.47 902.66,-419.58 902.66,-419.58"/>
<ellipse fill="none" stroke="black" cx="899.52" cy="-420.21" rx="3.2" ry="3.2"/>
</g>
<!-- regeneration&#45;&gt;plot -->
<g id="edge4" class="edge">
<title>regeneration:w&#45;&gt;plot:e</title>
<path fill="none" stroke="black" d="M896.59,-444.4C884.75,-454.13 886.46,-477.33 866,-486 757.77,-531.88 449.12,-521.34 337,-486 316.3,-479.48 318.7,-458 297,-458"/>
<polygon fill="black" stroke="black" points="902.87,-442.41 911.58,-443.43 906.69,-441.2 910.5,-440 910.5,-440 910.5,-440 906.69,-441.2 909.42,-436.57 902.87,-442.41 902.87,-442.41"/>
<ellipse fill="none" stroke="black" cx="899.82" cy="-443.37" rx="3.2" ry="3.2"/>
</g>
<!-- structure_lt4m -->
<g id="node5" class="node">
<title>structure_lt4m</title>
<g id="a_node5"><a xlink:href="../../tables/structure_lt4m.html" xlink:title="structure_lt4m" target="_top">
<polygon fill="#ffffff" stroke="transparent" points="921,-95 921,-241 1076,-241 1076,-95 921,-95"/>
<polygon fill="#f5f5f5" stroke="transparent" points="921.5,-219 921.5,-241 1076.5,-241 1076.5,-219 921.5,-219"/>
<polygon fill="none" stroke="black" points="921.5,-219 921.5,-241 1076.5,-241 1076.5,-219 921.5,-219"/>
<text text-anchor="start" x="926.5" y="-228.2" font-family="Helvetica,sans-Serif" font-weight="bold" font-size="11.00">structure_lt4m</text>
<text text-anchor="start" x="1034.5" y="-227.2" font-family="Helvetica,sans-Serif" font-size="11.00">[table]</text>
<polygon fill="none" stroke="black" points="921.5,-197 921.5,-219 1076.5,-219 1076.5,-197 921.5,-197"/>
<image xlink:href="../../images/primaryKeys.png" width="11px" height="12px" preserveAspectRatio="xMinYMin meet" x="926.5" y="-214"/>
<text text-anchor="start" x="941.5" y="-205.2" font-family="Helvetica,sans-Serif" font-size="11.00">id</text>
<polygon fill="none" stroke="black" points="921.5,-175 921.5,-197 1076.5,-197 1076.5,-175 921.5,-175"/>
<image xlink:href="../../images/foreignKeys.png" width="11px" height="12px" preserveAspectRatio="xMinYMin meet" x="926.5" y="-192"/>
<text text-anchor="start" x="941.5" y="-183.2" font-family="Helvetica,sans-Serif" font-size="11.00">plot_id</text>
<polygon fill="none" stroke="black" points="921.5,-153 921.5,-175 1076.5,-175 1076.5,-153 921.5,-153"/>
<image xlink:href="../../images/foreignKeys.png" width="11px" height="12px" preserveAspectRatio="xMinYMin meet" x="926.5" y="-170"/>
<text text-anchor="start" x="941.5" y="-161.2" font-family="Helvetica,sans-Serif" font-size="11.00">plot_location_id</text>
<polygon fill="none" stroke="black" points="921.5,-131 921.5,-153 1076.5,-153 1076.5,-131 921.5,-131"/>
<image xlink:href="../../images/foreignKeys.png" width="11px" height="12px" preserveAspectRatio="xMinYMin meet" x="926.5" y="-148"/>
<text text-anchor="start" x="941.5" y="-139.2" font-family="Helvetica,sans-Serif" font-size="11.00">tree_species</text>
<polygon fill="none" stroke="black" points="921.5,-113 921.5,-131 1076.5,-131 1076.5,-113 921.5,-113"/>
<text text-anchor="start" x="924.5" y="-119.2" font-family="Helvetica,sans-Serif" font-size="11.00">...</text>
<polygon fill="#ffffff" stroke="transparent" points="921.5,-95 921.5,-113 1076.5,-113 1076.5,-95 921.5,-95"/>
<polygon fill="none" stroke="black" points="921.5,-95 921.5,-113 1076.5,-113 1076.5,-95 921.5,-95"/>
<polygon fill="#ffffff" stroke="transparent" points="922.5,-96 922.5,-112 972.5,-112 972.5,-96 922.5,-96"/>
<text text-anchor="start" x="924.5" y="-101.2" font-family="Helvetica,sans-Serif" font-size="11.00">&lt; 3</text>
<polygon fill="#ffffff" stroke="transparent" points="972.5,-96 972.5,-112 1038.5,-112 1038.5,-96 972.5,-96"/>
<text text-anchor="start" x="987" y="-101.2" font-family="Helvetica,sans-Serif" font-size="11.00">0 rows</text>
<polygon fill="#ffffff" stroke="transparent" points="1038.5,-96 1038.5,-112 1075.5,-112 1075.5,-96 1038.5,-96"/>
<text text-anchor="start" x="1065.5" y="-101.2" font-family="Helvetica,sans-Serif" font-size="11.00"> &#160;</text>
<polygon fill="black" stroke="black" points="972.5,-96 972.5,-112 972.5,-112 972.5,-96 972.5,-96"/>
<polygon fill="black" stroke="black" points="1038.5,-96 1038.5,-112 1038.5,-112 1038.5,-96 1038.5,-96"/>
</a>
</g>
</g>
<!-- structure_lt4m&#45;&gt;plot_location -->
<g id="edge7" class="edge">
<title>structure_lt4m:w&#45;&gt;plot_location:e</title>
<path fill="none" stroke="black" d="M907.16,-169.51C867.25,-208.41 915.13,-440 857.5,-440"/>
<polygon fill="black" stroke="black" points="913.11,-167.06 921.88,-167.33 916.8,-165.53 920.5,-164 920.5,-164 920.5,-164 916.8,-165.53 919.12,-160.67 913.11,-167.06 913.11,-167.06"/>
<ellipse fill="none" stroke="black" cx="910.15" cy="-168.28" rx="3.2" ry="3.2"/>
</g>
<!-- structure_lt4m&#45;&gt;plot -->
<g id="edge6" class="edge">
<title>structure_lt4m:w&#45;&gt;plot:e</title>
<path fill="none" stroke="black" d="M905.93,-185.22C892.38,-183.66 884.66,-180.19 866,-179 631.37,-163.99 514.65,-25 337,-179 289.67,-220.03 359.63,-458 297,-458"/>
<polygon fill="black" stroke="black" points="912.51,-185.57 920.31,-189.59 916.51,-185.79 920.5,-186 920.5,-186 920.5,-186 916.51,-185.79 920.69,-182.41 912.51,-185.57 912.51,-185.57"/>
<ellipse fill="none" stroke="black" cx="909.32" cy="-185.4" rx="3.2" ry="3.2"/>
</g>
</g>
</svg>
