<?xml version="1.0" encoding="UTF-8" standalone="no"?>
<!DOCTYPE svg PUBLIC "-//W3C//DTD SVG 1.1//EN"
 "http://www.w3.org/Graphics/SVG/1.1/DTD/svg11.dtd">
<!-- Generated by graphviz version 2.43.0 (0)
 -->
<!-- Title: oneDegreeRelationshipsDiagram Pages: 1 -->
<svg width="1072pt" height="725pt"
 viewBox="0.00 0.00 1072.00 725.00" xmlns="http://www.w3.org/2000/svg" xmlns:xlink="http://www.w3.org/1999/xlink">
<g id="graph0" class="graph" transform="scale(1 1) rotate(0) translate(4 721)">
<title>oneDegreeRelationshipsDiagram</title>
<polygon fill="#ffffff" stroke="transparent" points="-4,4 -4,-721 1068,-721 1068,4 -4,4"/>
<text text-anchor="middle" x="79.5" y="-7.2" font-family="Helvetica,sans-Serif" font-size="11.00">Generated by SchemaSpy</text>
<!-- plot_location -->
<g id="node1" class="node">
<title>plot_location</title>
<g id="a_node1"><a xlink:href="../../tables/plot_location.html" xlink:title="plot_location" target="_top">
<polygon fill="#ffffff" stroke="transparent" points="334.5,-525 334.5,-649 475.5,-649 475.5,-525 334.5,-525"/>
<polygon fill="#f5f5f5" stroke="transparent" points="335,-627 335,-649 476,-649 476,-627 335,-627"/>
<polygon fill="none" stroke="black" points="335,-627 335,-649 476,-649 476,-627 335,-627"/>
<text text-anchor="start" x="340" y="-636.2" font-family="Helvetica,sans-Serif" font-weight="bold" font-size="11.00">plot_location</text>
<text text-anchor="start" x="434" y="-635.2" font-family="Helvetica,sans-Serif" font-size="11.00">[table]</text>
<polygon fill="none" stroke="black" points="335,-605 335,-627 476,-627 476,-605 335,-605"/>
<image xlink:href="../../images/primaryKeys.png" width="11px" height="12px" preserveAspectRatio="xMinYMin meet" x="340" y="-622"/>
<text text-anchor="start" x="368" y="-613.2" font-family="Helvetica,sans-Serif" font-size="11.00">id</text>
<polygon fill="#ffffff" stroke="transparent" points="335,-583 335,-605 476,-605 476,-583 335,-583"/>
<polygon fill="none" stroke="black" points="335,-583 335,-605 476,-605 476,-583 335,-583"/>
<image xlink:href="../../images/foreignKeys.png" width="11px" height="12px" preserveAspectRatio="xMinYMin meet" x="340" y="-600"/>
<text text-anchor="start" x="368" y="-591.2" font-family="Helvetica,sans-Serif" font-size="11.00">plot_id</text>
<polygon fill="#ffffff" stroke="transparent" points="335,-561 335,-583 476,-583 476,-561 335,-561"/>
<polygon fill="none" stroke="black" points="335,-561 335,-583 476,-583 476,-561 335,-561"/>
<text text-anchor="start" x="368" y="-569.2" font-family="Helvetica,sans-Serif" font-size="11.00">parent_table</text>
<polygon fill="none" stroke="black" points="335,-543 335,-561 476,-561 476,-543 335,-543"/>
<text text-anchor="start" x="338" y="-549.2" font-family="Helvetica,sans-Serif" font-size="11.00">...</text>
<polygon fill="#ffffff" stroke="transparent" points="335,-525 335,-543 476,-543 476,-525 335,-525"/>
<polygon fill="none" stroke="black" points="335,-525 335,-543 476,-543 476,-525 335,-525"/>
<polygon fill="#ffffff" stroke="transparent" points="336,-526 336,-542 372,-542 372,-526 336,-526"/>
<text text-anchor="start" x="338" y="-531.2" font-family="Helvetica,sans-Serif" font-size="11.00">&lt; 1</text>
<polygon fill="#ffffff" stroke="transparent" points="372,-526 372,-542 439,-542 439,-526 372,-526"/>
<text text-anchor="start" x="380" y="-531.2" font-family="Helvetica,sans-Serif" font-size="11.00">406 rows</text>
<polygon fill="#ffffff" stroke="transparent" points="439,-526 439,-542 475,-542 475,-526 439,-526"/>
<text text-anchor="start" x="453" y="-531.2" font-family="Helvetica,sans-Serif" font-size="11.00">3 &gt;</text>
<polygon fill="black" stroke="black" points="372,-526 372,-542 372,-542 372,-526 372,-526"/>
<polygon fill="black" stroke="black" points="439,-526 439,-542 439,-542 439,-526 439,-526"/>
</a>
</g>
</g>
<!-- plot -->
<g id="node2" class="node">
<title>plot</title>
<g id="a_node2"><a xlink:href="../../tables/plot.html" xlink:title="plot" target="_top">
<polygon fill="#ffffff" stroke="transparent" points="8,-37 8,-667 259,-667 259,-37 8,-37"/>
<polygon fill="#f5f5f5" stroke="transparent" points="8.5,-645 8.5,-667 259.5,-667 259.5,-645 8.5,-645"/>
<polygon fill="none" stroke="black" points="8.5,-645 8.5,-667 259.5,-667 259.5,-645 8.5,-645"/>
<text text-anchor="start" x="13" y="-654.2" font-family="Helvetica,sans-Serif" font-weight="bold" font-size="11.00">plot</text>
<text text-anchor="start" x="217.5" y="-653.2" font-family="Helvetica,sans-Serif" font-size="11.00">[table]</text>
<polygon fill="none" stroke="black" points="8.5,-623 8.5,-645 259.5,-645 259.5,-623 8.5,-623"/>
<image xlink:href="../../images/primaryKeys.png" width="11px" height="12px" preserveAspectRatio="xMinYMin meet" x="13.5" y="-640"/>
<text text-anchor="start" x="28.5" y="-631.2" font-family="Helvetica,sans-Serif" font-size="11.00">id</text>
<polygon fill="#ffffff" stroke="transparent" points="8.5,-601 8.5,-623 259.5,-623 259.5,-601 8.5,-601"/>
<polygon fill="none" stroke="black" points="8.5,-601 8.5,-623 259.5,-623 259.5,-601 8.5,-601"/>
<image xlink:href="../../images/foreignKeys.png" width="11px" height="12px" preserveAspectRatio="xMinYMin meet" x="13.5" y="-618"/>
<text text-anchor="start" x="28.5" y="-609.2" font-family="Helvetica,sans-Serif" font-size="11.00">cluster_id</text>
<polygon fill="#ffffff" stroke="transparent" points="8.5,-579 8.5,-601 259.5,-601 259.5,-579 8.5,-579"/>
<polygon fill="none" stroke="black" points="8.5,-579 8.5,-601 259.5,-601 259.5,-579 8.5,-579"/>
<text text-anchor="start" x="28.5" y="-587.2" font-family="Helvetica,sans-Serif" font-size="11.00">plot_name</text>
<polygon fill="none" stroke="black" points="8.5,-557 8.5,-579 259.5,-579 259.5,-557 8.5,-557"/>
<image xlink:href="../../images/foreignKeys.png" width="11px" height="12px" preserveAspectRatio="xMinYMin meet" x="13.5" y="-574"/>
<text text-anchor="start" x="28.5" y="-565.2" font-family="Helvetica,sans-Serif" font-size="11.00">sampling_strata</text>
<polygon fill="none" stroke="black" points="8.5,-535 8.5,-557 259.5,-557 259.5,-535 8.5,-535"/>
<image xlink:href="../../images/foreignKeys.png" width="11px" height="12px" preserveAspectRatio="xMinYMin meet" x="13.5" y="-552"/>
<text text-anchor="start" x="28.5" y="-543.2" font-family="Helvetica,sans-Serif" font-size="11.00">growth_district</text>
<polygon fill="none" stroke="black" points="8.5,-513 8.5,-535 259.5,-535 259.5,-513 8.5,-513"/>
<image xlink:href="../../images/foreignKeys.png" width="11px" height="12px" preserveAspectRatio="xMinYMin meet" x="13.5" y="-530"/>
<text text-anchor="start" x="28.5" y="-521.2" font-family="Helvetica,sans-Serif" font-size="11.00">forest_decision</text>
<polygon fill="none" stroke="black" points="8.5,-491 8.5,-513 259.5,-513 259.5,-491 8.5,-491"/>
<image xlink:href="../../images/foreignKeys.png" width="11px" height="12px" preserveAspectRatio="xMinYMin meet" x="13.5" y="-508"/>
<text text-anchor="start" x="28.5" y="-499.2" font-family="Helvetica,sans-Serif" font-size="11.00">forestry_department</text>
<polygon fill="none" stroke="black" points="8.5,-469 8.5,-491 259.5,-491 259.5,-469 8.5,-469"/>
<image xlink:href="../../images/foreignKeys.png" width="11px" height="12px" preserveAspectRatio="xMinYMin meet" x="13.5" y="-486"/>
<text text-anchor="start" x="28.5" y="-477.2" font-family="Helvetica,sans-Serif" font-size="11.00">height_layer_class</text>
<polygon fill="none" stroke="black" points="8.5,-447 8.5,-469 259.5,-469 259.5,-447 8.5,-447"/>
<image xlink:href="../../images/foreignKeys.png" width="11px" height="12px" preserveAspectRatio="xMinYMin meet" x="13.5" y="-464"/>
<text text-anchor="start" x="28.5" y="-455.2" font-family="Helvetica,sans-Serif" font-size="11.00">property_type</text>
<polygon fill="none" stroke="black" points="8.5,-425 8.5,-447 259.5,-447 259.5,-425 8.5,-425"/>
<image xlink:href="../../images/foreignKeys.png" width="11px" height="12px" preserveAspectRatio="xMinYMin meet" x="13.5" y="-442"/>
<text text-anchor="start" x="28.5" y="-433.2" font-family="Helvetica,sans-Serif" font-size="11.00">property_size_class</text>
<polygon fill="none" stroke="black" points="8.5,-403 8.5,-425 259.5,-425 259.5,-403 8.5,-403"/>
<image xlink:href="../../images/foreignKeys.png" width="11px" height="12px" preserveAspectRatio="xMinYMin meet" x="13.5" y="-420"/>
<text text-anchor="start" x="28.5" y="-411.2" font-family="Helvetica,sans-Serif" font-size="11.00">forest_type</text>
<polygon fill="none" stroke="black" points="8.5,-381 8.5,-403 259.5,-403 259.5,-381 8.5,-381"/>
<image xlink:href="../../images/foreignKeys.png" width="11px" height="12px" preserveAspectRatio="xMinYMin meet" x="13.5" y="-398"/>
<text text-anchor="start" x="28.5" y="-389.2" font-family="Helvetica,sans-Serif" font-size="11.00">habitat_type</text>
<polygon fill="none" stroke="black" points="8.5,-359 8.5,-381 259.5,-381 259.5,-359 8.5,-359"/>
<image xlink:href="../../images/foreignKeys.png" width="11px" height="12px" preserveAspectRatio="xMinYMin meet" x="13.5" y="-376"/>
<text text-anchor="start" x="28.5" y="-367.2" font-family="Helvetica,sans-Serif" font-size="11.00">habitat_type_source</text>
<polygon fill="none" stroke="black" points="8.5,-337 8.5,-359 259.5,-359 259.5,-337 8.5,-337"/>
<image xlink:href="../../images/foreignKeys.png" width="11px" height="12px" preserveAspectRatio="xMinYMin meet" x="13.5" y="-354"/>
<text text-anchor="start" x="28.5" y="-345.2" font-family="Helvetica,sans-Serif" font-size="11.00">use_restriction</text>
<polygon fill="none" stroke="black" points="8.5,-315 8.5,-337 259.5,-337 259.5,-315 8.5,-315"/>
<image xlink:href="../../images/foreignKeys.png" width="11px" height="12px" preserveAspectRatio="xMinYMin meet" x="13.5" y="-332"/>
<text text-anchor="start" x="28.5" y="-323.2" font-family="Helvetica,sans-Serif" font-size="11.00">land_use</text>
<polygon fill="none" stroke="black" points="8.5,-293 8.5,-315 259.5,-315 259.5,-293 8.5,-293"/>
<image xlink:href="../../images/foreignKeys.png" width="11px" height="12px" preserveAspectRatio="xMinYMin meet" x="13.5" y="-310"/>
<text text-anchor="start" x="28.5" y="-301.2" font-family="Helvetica,sans-Serif" font-size="11.00">marking_state</text>
<polygon fill="none" stroke="black" points="8.5,-271 8.5,-293 259.5,-293 259.5,-271 8.5,-271"/>
<image xlink:href="../../images/foreignKeys.png" width="11px" height="12px" preserveAspectRatio="xMinYMin meet" x="13.5" y="-288"/>
<text text-anchor="start" x="28.5" y="-279.2" font-family="Helvetica,sans-Serif" font-size="11.00">marking_profile</text>
<polygon fill="none" stroke="black" points="8.5,-249 8.5,-271 259.5,-271 259.5,-249 8.5,-249"/>
<image xlink:href="../../images/foreignKeys.png" width="11px" height="12px" preserveAspectRatio="xMinYMin meet" x="13.5" y="-266"/>
<text text-anchor="start" x="28.5" y="-257.2" font-family="Helvetica,sans-Serif" font-size="11.00">terrain_form</text>
<polygon fill="none" stroke="black" points="8.5,-227 8.5,-249 259.5,-249 259.5,-227 8.5,-227"/>
<image xlink:href="../../images/foreignKeys.png" width="11px" height="12px" preserveAspectRatio="xMinYMin meet" x="13.5" y="-244"/>
<text text-anchor="start" x="28.5" y="-235.2" font-family="Helvetica,sans-Serif" font-size="11.00">management_type</text>
<polygon fill="none" stroke="black" points="8.5,-205 8.5,-227 259.5,-227 259.5,-205 8.5,-205"/>
<image xlink:href="../../images/foreignKeys.png" width="11px" height="12px" preserveAspectRatio="xMinYMin meet" x="13.5" y="-222"/>
<text text-anchor="start" x="28.5" y="-213.2" font-family="Helvetica,sans-Serif" font-size="11.00">harvesting_method</text>
<polygon fill="none" stroke="black" points="8.5,-183 8.5,-205 259.5,-205 259.5,-183 8.5,-183"/>
<image xlink:href="../../images/foreignKeys.png" width="11px" height="12px" preserveAspectRatio="xMinYMin meet" x="13.5" y="-200"/>
<text text-anchor="start" x="28.5" y="-191.2" font-family="Helvetica,sans-Serif" font-size="11.00">layer_type</text>
<polygon fill="none" stroke="black" points="8.5,-161 8.5,-183 259.5,-183 259.5,-161 8.5,-161"/>
<image xlink:href="../../images/foreignKeys.png" width="11px" height="12px" preserveAspectRatio="xMinYMin meet" x="13.5" y="-178"/>
<text text-anchor="start" x="28.5" y="-169.2" font-family="Helvetica,sans-Serif" font-size="11.00">stand_phase</text>
<polygon fill="none" stroke="black" points="8.5,-139 8.5,-161 259.5,-161 259.5,-139 8.5,-139"/>
<image xlink:href="../../images/foreignKeys.png" width="11px" height="12px" preserveAspectRatio="xMinYMin meet" x="13.5" y="-156"/>
<text text-anchor="start" x="28.5" y="-147.2" font-family="Helvetica,sans-Serif" font-size="11.00">sablings_layer</text>
<polygon fill="none" stroke="black" points="8.5,-117 8.5,-139 259.5,-139 259.5,-117 8.5,-117"/>
<image xlink:href="../../images/foreignKeys.png" width="11px" height="12px" preserveAspectRatio="xMinYMin meet" x="13.5" y="-134"/>
<text text-anchor="start" x="28.5" y="-125.2" font-family="Helvetica,sans-Serif" font-size="11.00">trees_less_4meter_mirrored</text>
<polygon fill="none" stroke="black" points="8.5,-95 8.5,-117 259.5,-117 259.5,-95 8.5,-95"/>
<image xlink:href="../../images/foreignKeys.png" width="11px" height="12px" preserveAspectRatio="xMinYMin meet" x="13.5" y="-112"/>
<text text-anchor="start" x="28.5" y="-103.2" font-family="Helvetica,sans-Serif" font-size="11.00">trees_less_4meter_count_factor</text>
<polygon fill="none" stroke="black" points="8.5,-73 8.5,-95 259.5,-95 259.5,-73 8.5,-73"/>
<image xlink:href="../../images/foreignKeys.png" width="11px" height="12px" preserveAspectRatio="xMinYMin meet" x="13.5" y="-90"/>
<text text-anchor="start" x="28.5" y="-81.2" font-family="Helvetica,sans-Serif" font-size="11.00">trees_less_4meter_layer</text>
<polygon fill="none" stroke="black" points="8.5,-55 8.5,-73 259.5,-73 259.5,-55 8.5,-55"/>
<text text-anchor="start" x="11.5" y="-61.2" font-family="Helvetica,sans-Serif" font-size="11.00">...</text>
<polygon fill="#ffffff" stroke="transparent" points="8.5,-37 8.5,-55 259.5,-55 259.5,-37 8.5,-37"/>
<polygon fill="none" stroke="black" points="8.5,-37 8.5,-55 259.5,-55 259.5,-37 8.5,-37"/>
<polygon fill="#ffffff" stroke="transparent" points="9.5,-38 9.5,-54 89.5,-54 89.5,-38 9.5,-38"/>
<text text-anchor="start" x="11.5" y="-43.2" font-family="Helvetica,sans-Serif" font-size="11.00">&lt; 24</text>
<polygon fill="#ffffff" stroke="transparent" points="89.5,-38 89.5,-54 186.5,-54 186.5,-38 89.5,-38"/>
<text text-anchor="start" x="116" y="-43.2" font-family="Helvetica,sans-Serif" font-size="11.00">82 rows</text>
<polygon fill="#ffffff" stroke="transparent" points="186.5,-38 186.5,-54 258.5,-54 258.5,-38 186.5,-38"/>
<text text-anchor="start" x="236.5" y="-43.2" font-family="Helvetica,sans-Serif" font-size="11.00">7 &gt;</text>
<polygon fill="black" stroke="black" points="89.5,-38 89.5,-54 89.5,-54 89.5,-38 89.5,-38"/>
<polygon fill="black" stroke="black" points="186.5,-38 186.5,-54 186.5,-54 186.5,-38 186.5,-38"/>
</a>
</g>
</g>
<!-- plot_location&#45;&gt;plot -->
<g id="edge1" class="edge">
<title>plot_location:w&#45;&gt;plot:e</title>
<path fill="none" stroke="black" d="M319.71,-596.38C296.23,-604.99 292.17,-634 260.5,-634"/>
<polygon fill="black" stroke="black" points="326.11,-595.32 334.59,-597.55 330.05,-594.66 334,-594 334,-594 334,-594 330.05,-594.66 333.41,-590.45 326.11,-595.32 326.11,-595.32"/>
<ellipse fill="none" stroke="black" cx="322.95" cy="-595.84" rx="3.2" ry="3.2"/>
</g>
<!-- position -->
<g id="node3" class="node">
<title>position</title>
<g id="a_node3"><a xlink:href="../../tables/position.html" xlink:title="position" target="_top">
<polygon fill="#ffffff" stroke="transparent" points="551,-295 551,-713 1056,-713 1056,-295 551,-295"/>
<polygon fill="#f5f5f5" stroke="transparent" points="553.5,-689 553.5,-711 1054.5,-711 1054.5,-689 553.5,-689"/>
<polygon fill="none" stroke="black" points="553.5,-689 553.5,-711 1054.5,-711 1054.5,-689 553.5,-689"/>
<text text-anchor="start" x="558.5" y="-698.2" font-family="Helvetica,sans-Serif" font-weight="bold" font-size="11.00">position</text>
<text text-anchor="start" x="1012.5" y="-697.2" font-family="Helvetica,sans-Serif" font-size="11.00">[table]</text>
<polygon fill="none" stroke="black" points="553.5,-667 553.5,-689 736.5,-689 736.5,-667 553.5,-667"/>
<image xlink:href="../../images/primaryKeys.png" width="11px" height="12px" preserveAspectRatio="xMinYMin meet" x="558.5" y="-684"/>
<text text-anchor="start" x="573.5" y="-675.2" font-family="Helvetica,sans-Serif" font-size="11.00">id</text>
<polygon fill="none" stroke="black" points="736.5,-667 736.5,-689 1054.5,-689 1054.5,-667 736.5,-667"/>
<text text-anchor="start" x="739.5" y="-675.2" font-family="Helvetica,sans-Serif" font-size="11.00">serial[10]</text>
<polygon fill="none" stroke="black" points="553.5,-645 553.5,-667 736.5,-667 736.5,-645 553.5,-645"/>
<image xlink:href="../../images/foreignKeys.png" width="11px" height="12px" preserveAspectRatio="xMinYMin meet" x="558.5" y="-662"/>
<text text-anchor="start" x="573.5" y="-653.2" font-family="Helvetica,sans-Serif" font-size="11.00">plot_id</text>
<polygon fill="none" stroke="black" points="736.5,-645 736.5,-667 1054.5,-667 1054.5,-645 736.5,-645"/>
<text text-anchor="start" x="739.5" y="-653.2" font-family="Helvetica,sans-Serif" font-size="11.00">int4[10]</text>
<polygon fill="none" stroke="black" points="553.5,-623 553.5,-645 736.5,-645 736.5,-623 553.5,-623"/>
<image xlink:href="../../images/foreignKeys.png" width="11px" height="12px" preserveAspectRatio="xMinYMin meet" x="558.5" y="-640"/>
<text text-anchor="start" x="573.5" y="-631.2" font-family="Helvetica,sans-Serif" font-size="11.00">plot_location_id</text>
<polygon fill="none" stroke="black" points="736.5,-623 736.5,-645 1054.5,-645 1054.5,-623 736.5,-623"/>
<text text-anchor="start" x="739.5" y="-631.2" font-family="Helvetica,sans-Serif" font-size="11.00">int4[10]</text>
<polygon fill="none" stroke="black" points="553.5,-601 553.5,-623 736.5,-623 736.5,-601 553.5,-601"/>
<text text-anchor="start" x="573.5" y="-609.2" font-family="Helvetica,sans-Serif" font-size="11.00">created_at</text>
<polygon fill="none" stroke="black" points="736.5,-601 736.5,-623 1054.5,-623 1054.5,-601 736.5,-601"/>
<text text-anchor="start" x="739.5" y="-609.2" font-family="Helvetica,sans-Serif" font-size="11.00">timestamp[29,6]</text>
<polygon fill="none" stroke="black" points="553.5,-579 553.5,-601 736.5,-601 736.5,-579 553.5,-579"/>
<text text-anchor="start" x="573.5" y="-587.2" font-family="Helvetica,sans-Serif" font-size="11.00">modified_at</text>
<polygon fill="none" stroke="black" points="736.5,-579 736.5,-601 1054.5,-601 1054.5,-579 736.5,-579"/>
<text text-anchor="start" x="739.5" y="-587.2" font-family="Helvetica,sans-Serif" font-size="11.00">timestamp[29,6]</text>
<polygon fill="none" stroke="black" points="553.5,-557 553.5,-579 736.5,-579 736.5,-557 553.5,-557"/>
<text text-anchor="start" x="573.5" y="-565.2" font-family="Helvetica,sans-Serif" font-size="11.00">modified_by</text>
<polygon fill="none" stroke="black" points="736.5,-557 736.5,-579 1054.5,-579 1054.5,-557 736.5,-557"/>
<text text-anchor="start" x="739.5" y="-565.2" font-family="Helvetica,sans-Serif" font-size="11.00">regrole[2147483647]</text>
<polygon fill="none" stroke="black" points="553.5,-535 553.5,-557 736.5,-557 736.5,-535 553.5,-535"/>
<text text-anchor="start" x="573.5" y="-543.2" font-family="Helvetica,sans-Serif" font-size="11.00">position_median</text>
<polygon fill="none" stroke="black" points="736.5,-535 736.5,-557 1054.5,-557 1054.5,-535 736.5,-535"/>
<text text-anchor="start" x="739.5" y="-543.2" font-family="Helvetica,sans-Serif" font-size="11.00">geometry[2147483647]</text>
<polygon fill="none" stroke="black" points="553.5,-513 553.5,-535 736.5,-535 736.5,-513 553.5,-513"/>
<text text-anchor="start" x="573.5" y="-521.2" font-family="Helvetica,sans-Serif" font-size="11.00">position_mean</text>
<polygon fill="none" stroke="black" points="736.5,-513 736.5,-535 1054.5,-535 1054.5,-513 736.5,-513"/>
<text text-anchor="start" x="739.5" y="-521.2" font-family="Helvetica,sans-Serif" font-size="11.00">geometry[2147483647]</text>
<polygon fill="none" stroke="black" points="553.5,-491 553.5,-513 736.5,-513 736.5,-491 553.5,-491"/>
<text text-anchor="start" x="573.5" y="-499.2" font-family="Helvetica,sans-Serif" font-size="11.00">hdop_mean</text>
<polygon fill="none" stroke="black" points="736.5,-491 736.5,-513 1054.5,-513 1054.5,-491 736.5,-491"/>
<text text-anchor="start" x="739.5" y="-499.2" font-family="Helvetica,sans-Serif" font-size="11.00">float8[17,17]</text>
<polygon fill="none" stroke="black" points="553.5,-469 553.5,-491 736.5,-491 736.5,-469 553.5,-469"/>
<text text-anchor="start" x="573.5" y="-477.2" font-family="Helvetica,sans-Serif" font-size="11.00">pdop_mean</text>
<polygon fill="none" stroke="black" points="736.5,-469 736.5,-491 1054.5,-491 1054.5,-469 736.5,-469"/>
<text text-anchor="start" x="739.5" y="-477.2" font-family="Helvetica,sans-Serif" font-size="11.00">float8[17,17]</text>
<polygon fill="none" stroke="black" points="553.5,-447 553.5,-469 736.5,-469 736.5,-447 553.5,-447"/>
<text text-anchor="start" x="573.5" y="-455.2" font-family="Helvetica,sans-Serif" font-size="11.00">satellites_count_mean</text>
<polygon fill="none" stroke="black" points="736.5,-447 736.5,-469 1054.5,-469 1054.5,-447 736.5,-447"/>
<text text-anchor="start" x="739.5" y="-455.2" font-family="Helvetica,sans-Serif" font-size="11.00">float8[17,17]</text>
<polygon fill="none" stroke="black" points="553.5,-425 553.5,-447 736.5,-447 736.5,-425 553.5,-425"/>
<text text-anchor="start" x="573.5" y="-433.2" font-family="Helvetica,sans-Serif" font-size="11.00">measurement_count</text>
<polygon fill="none" stroke="black" points="736.5,-425 736.5,-447 1054.5,-447 1054.5,-425 736.5,-425"/>
<text text-anchor="start" x="739.5" y="-433.2" font-family="Helvetica,sans-Serif" font-size="11.00">int2[5]</text>
<polygon fill="none" stroke="black" points="553.5,-403 553.5,-425 736.5,-425 736.5,-403 553.5,-403"/>
<text text-anchor="start" x="573.5" y="-411.2" font-family="Helvetica,sans-Serif" font-size="11.00">rtcm_age</text>
<polygon fill="none" stroke="black" points="736.5,-403 736.5,-425 1054.5,-425 1054.5,-403 736.5,-403"/>
<text text-anchor="start" x="739.5" y="-411.2" font-family="Helvetica,sans-Serif" font-size="11.00">float8[17,17]</text>
<polygon fill="none" stroke="black" points="553.5,-381 553.5,-403 736.5,-403 736.5,-381 553.5,-381"/>
<text text-anchor="start" x="573.5" y="-389.2" font-family="Helvetica,sans-Serif" font-size="11.00">start_measurement</text>
<polygon fill="none" stroke="black" points="736.5,-381 736.5,-403 1054.5,-403 1054.5,-381 736.5,-381"/>
<text text-anchor="start" x="739.5" y="-389.2" font-family="Helvetica,sans-Serif" font-size="11.00">timestamp[29,6]</text>
<polygon fill="none" stroke="black" points="553.5,-359 553.5,-381 736.5,-381 736.5,-359 553.5,-359"/>
<text text-anchor="start" x="573.5" y="-367.2" font-family="Helvetica,sans-Serif" font-size="11.00">stop_measurement</text>
<polygon fill="none" stroke="black" points="736.5,-359 736.5,-381 1054.5,-381 1054.5,-359 736.5,-359"/>
<text text-anchor="start" x="739.5" y="-367.2" font-family="Helvetica,sans-Serif" font-size="11.00">timestamp[29,6]</text>
<polygon fill="none" stroke="black" points="553.5,-337 553.5,-359 736.5,-359 736.5,-337 553.5,-337"/>
<text text-anchor="start" x="573.5" y="-345.2" font-family="Helvetica,sans-Serif" font-size="11.00">device_gps</text>
<polygon fill="none" stroke="black" points="736.5,-337 736.5,-359 1054.5,-359 1054.5,-337 736.5,-337"/>
<text text-anchor="start" x="739.5" y="-345.2" font-family="Helvetica,sans-Serif" font-size="11.00">varchar[150]</text>
<polygon fill="none" stroke="black" points="553.5,-315 553.5,-337 736.5,-337 736.5,-315 553.5,-315"/>
<image xlink:href="../../images/foreignKeys.png" width="11px" height="12px" preserveAspectRatio="xMinYMin meet" x="558.5" y="-332"/>
<text text-anchor="start" x="573.5" y="-323.2" font-family="Helvetica,sans-Serif" font-size="11.00">quality</text>
<polygon fill="none" stroke="black" points="736.5,-315 736.5,-337 1054.5,-337 1054.5,-315 736.5,-315"/>
<text text-anchor="start" x="739.5" y="-323.2" font-family="Helvetica,sans-Serif" font-size="11.00">&quot;private_ci2027_001&quot;.&quot;enum_gnss_quality&quot;[2147483647]</text>
<polygon fill="#ffffff" stroke="transparent" points="553.5,-297 553.5,-315 1054.5,-315 1054.5,-297 553.5,-297"/>
<polygon fill="none" stroke="black" points="553.5,-297 553.5,-315 1054.5,-315 1054.5,-297 553.5,-297"/>
<polygon fill="#ffffff" stroke="transparent" points="554.5,-298 554.5,-314 713.5,-314 713.5,-298 554.5,-298"/>
<text text-anchor="start" x="556.5" y="-303.2" font-family="Helvetica,sans-Serif" font-size="11.00">&lt; 3</text>
<polygon fill="#ffffff" stroke="transparent" points="713.5,-298 713.5,-314 895.5,-314 895.5,-298 713.5,-298"/>
<text text-anchor="start" x="782.5" y="-303.2" font-family="Helvetica,sans-Serif" font-size="11.00">81 rows</text>
<polygon fill="#ffffff" stroke="transparent" points="895.5,-298 895.5,-314 1053.5,-314 1053.5,-298 895.5,-298"/>
<text text-anchor="start" x="1031.5" y="-303.2" font-family="Helvetica,sans-Serif" font-size="11.00">0 &gt;</text>
<polygon fill="black" stroke="black" points="713.5,-298 713.5,-314 713.5,-314 713.5,-298 713.5,-298"/>
<polygon fill="black" stroke="black" points="895.5,-298 895.5,-314 895.5,-314 895.5,-298 895.5,-298"/>
<polygon fill="none" stroke="black" stroke-width="2" points="552,-296 552,-712 1055,-712 1055,-296 552,-296"/>
</a>
</g>
</g>
<!-- position&#45;&gt;plot_location -->
<g id="edge3" class="edge">
<title>position:w&#45;&gt;plot_location:e</title>
<path fill="none" stroke="black" d="M537.85,-632.76C515.2,-628.7 505.97,-616 477,-616"/>
<polygon fill="black" stroke="black" points="544.53,-633.33 552.2,-637.59 548.51,-633.66 552.5,-634 552.5,-634 552.5,-634 548.51,-633.66 552.8,-630.41 544.53,-633.33 544.53,-633.33"/>
<ellipse fill="none" stroke="black" cx="541.34" cy="-633.06" rx="3.2" ry="3.2"/>
</g>
<!-- position&#45;&gt;plot -->
<g id="edge2" class="edge">
<title>position:w&#45;&gt;plot:e</title>
<path fill="none" stroke="black" d="M538.05,-656.75C529.26,-657.73 523.03,-659.39 510,-660 416.77,-664.38 389.41,-686.78 300,-660 279.87,-653.97 281.52,-634 260.5,-634"/>
<polygon fill="black" stroke="black" points="544.51,-656.41 552.69,-659.6 548.51,-656.21 552.5,-656 552.5,-656 552.5,-656 548.51,-656.21 552.31,-652.4 544.51,-656.41 544.51,-656.41"/>
<ellipse fill="none" stroke="black" cx="541.32" cy="-656.58" rx="3.2" ry="3.2"/>
</g>
<!-- lookup_gnss_quality -->
<g id="node4" class="node">
<title>lookup_gnss_quality</title>
<g id="a_node4"><a xlink:href="../../tables/lookup_gnss_quality.html" xlink:title="lookup_gnss_quality" target="_top">
<polygon fill="#ffffff" stroke="transparent" points="308,-279 308,-359 502,-359 502,-279 308,-279"/>
<polygon fill="#f5f5f5" stroke="transparent" points="308,-337 308,-359 502,-359 502,-337 308,-337"/>
<polygon fill="none" stroke="black" points="308,-337 308,-359 502,-359 502,-337 308,-337"/>
<text text-anchor="start" x="313" y="-346.2" font-family="Helvetica,sans-Serif" font-weight="bold" font-size="11.00">lookup_gnss_quality</text>
<text text-anchor="start" x="460" y="-345.2" font-family="Helvetica,sans-Serif" font-size="11.00">[table]</text>
<polygon fill="#ffffff" stroke="transparent" points="308,-315 308,-337 502,-337 502,-315 308,-315"/>
<polygon fill="none" stroke="black" points="308,-315 308,-337 502,-337 502,-315 308,-315"/>
<text text-anchor="start" x="341" y="-323.2" font-family="Helvetica,sans-Serif" font-size="11.00">abbreviation</text>
<polygon fill="none" stroke="black" points="308,-297 308,-315 502,-315 502,-297 308,-297"/>
<text text-anchor="start" x="311" y="-303.2" font-family="Helvetica,sans-Serif" font-size="11.00">...</text>
<polygon fill="#ffffff" stroke="transparent" points="308,-279 308,-297 502,-297 502,-279 308,-279"/>
<polygon fill="none" stroke="black" points="308,-279 308,-297 502,-297 502,-279 308,-279"/>
<polygon fill="#ffffff" stroke="transparent" points="309,-280 309,-296 360,-296 360,-280 309,-280"/>
<text text-anchor="start" x="311" y="-285.2" font-family="Helvetica,sans-Serif" font-size="11.00"> &#160;</text>
<polygon fill="#ffffff" stroke="transparent" points="360,-280 360,-296 439,-296 439,-280 360,-280"/>
<text text-anchor="start" x="381" y="-285.2" font-family="Helvetica,sans-Serif" font-size="11.00">0 rows</text>
<polygon fill="#ffffff" stroke="transparent" points="439,-280 439,-296 501,-296 501,-280 439,-280"/>
<text text-anchor="start" x="479" y="-285.2" font-family="Helvetica,sans-Serif" font-size="11.00">1 &gt;</text>
<polygon fill="black" stroke="black" points="360,-280 360,-296 360,-296 360,-280 360,-280"/>
<polygon fill="black" stroke="black" points="439,-280 439,-296 439,-296 439,-280 439,-280"/>
</a>
</g>
</g>
<!-- position&#45;&gt;lookup_gnss_quality -->
<g id="edge4" class="edge">
<title>position:w&#45;&gt;lookup_gnss_quality:e</title>
<path fill="none" stroke="black" d="M537.84,-326C526.41,-326 519.16,-326 503,-326"/>
<polygon fill="black" stroke="black" points="544.5,-326 552.5,-329.6 548.5,-326 552.5,-326 552.5,-326 552.5,-326 548.5,-326 552.5,-322.4 544.5,-326 544.5,-326"/>
<ellipse fill="none" stroke="black" cx="541.3" cy="-326" rx="3.2" ry="3.2"/>
</g>
</g>
</svg>
