<?xml version="1.0" encoding="UTF-8" standalone="no"?>
<!DOCTYPE svg PUBLIC "-//W3C//DTD SVG 1.1//EN"
 "http://www.w3.org/Graphics/SVG/1.1/DTD/svg11.dtd">
<!-- Generated by graphviz version 2.43.0 (0)
 -->
<!-- Title: oneDegreeRelationshipsDiagram Pages: 1 -->
<svg width="1109pt" height="549pt"
 viewBox="0.00 0.00 1109.00 549.00" xmlns="http://www.w3.org/2000/svg" xmlns:xlink="http://www.w3.org/1999/xlink">
<g id="graph0" class="graph" transform="scale(1 1) rotate(0) translate(4 545)">
<title>oneDegreeRelationshipsDiagram</title>
<polygon fill="#ffffff" stroke="transparent" points="-4,4 -4,-545 1105,-545 1105,4 -4,4"/>
<text text-anchor="middle" x="79.5" y="-7.2" font-family="Helvetica,sans-Serif" font-size="11.00">Generated by SchemaSpy</text>
<!-- plot_location -->
<g id="node1" class="node">
<title>plot_location</title>
<g id="a_node1"><a xlink:href="../../tables/plot_location.html" xlink:title="plot_location" target="_top">
<polygon fill="#ffffff" stroke="transparent" points="371.5,-349 371.5,-473 512.5,-473 512.5,-349 371.5,-349"/>
<polygon fill="#f5f5f5" stroke="transparent" points="372,-451 372,-473 513,-473 513,-451 372,-451"/>
<polygon fill="none" stroke="black" points="372,-451 372,-473 513,-473 513,-451 372,-451"/>
<text text-anchor="start" x="377" y="-460.2" font-family="Helvetica,sans-Serif" font-weight="bold" font-size="11.00">plot_location</text>
<text text-anchor="start" x="471" y="-459.2" font-family="Helvetica,sans-Serif" font-size="11.00">[table]</text>
<polygon fill="none" stroke="black" points="372,-429 372,-451 513,-451 513,-429 372,-429"/>
<image xlink:href="../../images/primaryKeys.png" width="11px" height="12px" preserveAspectRatio="xMinYMin meet" x="377" y="-446"/>
<text text-anchor="start" x="405" y="-437.2" font-family="Helvetica,sans-Serif" font-size="11.00">id</text>
<polygon fill="#ffffff" stroke="transparent" points="372,-407 372,-429 513,-429 513,-407 372,-407"/>
<polygon fill="none" stroke="black" points="372,-407 372,-429 513,-429 513,-407 372,-407"/>
<image xlink:href="../../images/foreignKeys.png" width="11px" height="12px" preserveAspectRatio="xMinYMin meet" x="377" y="-424"/>
<text text-anchor="start" x="405" y="-415.2" font-family="Helvetica,sans-Serif" font-size="11.00">plot_id</text>
<polygon fill="#ffffff" stroke="transparent" points="372,-385 372,-407 513,-407 513,-385 372,-385"/>
<polygon fill="none" stroke="black" points="372,-385 372,-407 513,-407 513,-385 372,-385"/>
<text text-anchor="start" x="405" y="-393.2" font-family="Helvetica,sans-Serif" font-size="11.00">parent_table</text>
<polygon fill="none" stroke="black" points="372,-367 372,-385 513,-385 513,-367 372,-367"/>
<text text-anchor="start" x="375" y="-373.2" font-family="Helvetica,sans-Serif" font-size="11.00">...</text>
<polygon fill="#ffffff" stroke="transparent" points="372,-349 372,-367 513,-367 513,-349 372,-349"/>
<polygon fill="none" stroke="black" points="372,-349 372,-367 513,-367 513,-349 372,-349"/>
<polygon fill="#ffffff" stroke="transparent" points="373,-350 373,-366 414,-366 414,-350 373,-350"/>
<text text-anchor="start" x="375" y="-355.2" font-family="Helvetica,sans-Serif" font-size="11.00">&lt; 1</text>
<polygon fill="#ffffff" stroke="transparent" points="414,-350 414,-366 472,-366 472,-350 414,-350"/>
<text text-anchor="start" x="424.5" y="-355.2" font-family="Helvetica,sans-Serif" font-size="11.00">0 rows</text>
<polygon fill="#ffffff" stroke="transparent" points="472,-350 472,-366 512,-366 512,-350 472,-350"/>
<text text-anchor="start" x="490" y="-355.2" font-family="Helvetica,sans-Serif" font-size="11.00">3 &gt;</text>
<polygon fill="black" stroke="black" points="414,-350 414,-366 414,-366 414,-350 414,-350"/>
<polygon fill="black" stroke="black" points="472,-350 472,-366 472,-366 472,-350 472,-350"/>
</a>
</g>
</g>
<!-- plot -->
<g id="node2" class="node">
<title>plot</title>
<g id="a_node2"><a xlink:href="../../tables/plot.html" xlink:title="plot" target="_top">
<polygon fill="#ffffff" stroke="transparent" points="8,-37 8,-491 296,-491 296,-37 8,-37"/>
<polygon fill="#f5f5f5" stroke="transparent" points="8,-469 8,-491 296,-491 296,-469 8,-469"/>
<polygon fill="none" stroke="black" points="8,-469 8,-491 296,-491 296,-469 8,-469"/>
<text text-anchor="start" x="12.5" y="-478.2" font-family="Helvetica,sans-Serif" font-weight="bold" font-size="11.00">plot</text>
<text text-anchor="start" x="254" y="-477.2" font-family="Helvetica,sans-Serif" font-size="11.00">[table]</text>
<polygon fill="none" stroke="black" points="8,-447 8,-469 296,-469 296,-447 8,-447"/>
<image xlink:href="../../images/primaryKeys.png" width="11px" height="12px" preserveAspectRatio="xMinYMin meet" x="13" y="-464"/>
<text text-anchor="start" x="28" y="-455.2" font-family="Helvetica,sans-Serif" font-size="11.00">id</text>
<polygon fill="#ffffff" stroke="transparent" points="8,-425 8,-447 296,-447 296,-425 8,-425"/>
<polygon fill="none" stroke="black" points="8,-425 8,-447 296,-447 296,-425 8,-425"/>
<image xlink:href="../../images/foreignKeys.png" width="11px" height="12px" preserveAspectRatio="xMinYMin meet" x="13" y="-442"/>
<text text-anchor="start" x="28" y="-433.2" font-family="Helvetica,sans-Serif" font-size="11.00">cluster_id</text>
<polygon fill="#ffffff" stroke="transparent" points="8,-403 8,-425 296,-425 296,-403 8,-403"/>
<polygon fill="none" stroke="black" points="8,-403 8,-425 296,-425 296,-403 8,-403"/>
<text text-anchor="start" x="28" y="-411.2" font-family="Helvetica,sans-Serif" font-size="11.00">plot_name</text>
<polygon fill="none" stroke="black" points="8,-381 8,-403 296,-403 296,-381 8,-381"/>
<image xlink:href="../../images/foreignKeys.png" width="11px" height="12px" preserveAspectRatio="xMinYMin meet" x="13" y="-398"/>
<text text-anchor="start" x="28" y="-389.2" font-family="Helvetica,sans-Serif" font-size="11.00">growth_district</text>
<polygon fill="none" stroke="black" points="8,-359 8,-381 296,-381 296,-359 8,-359"/>
<image xlink:href="../../images/foreignKeys.png" width="11px" height="12px" preserveAspectRatio="xMinYMin meet" x="13" y="-376"/>
<text text-anchor="start" x="28" y="-367.2" font-family="Helvetica,sans-Serif" font-size="11.00">forest_status</text>
<polygon fill="none" stroke="black" points="8,-337 8,-359 296,-359 296,-337 8,-337"/>
<image xlink:href="../../images/foreignKeys.png" width="11px" height="12px" preserveAspectRatio="xMinYMin meet" x="13" y="-354"/>
<text text-anchor="start" x="28" y="-345.2" font-family="Helvetica,sans-Serif" font-size="11.00">elevation_level</text>
<polygon fill="none" stroke="black" points="8,-315 8,-337 296,-337 296,-315 8,-315"/>
<image xlink:href="../../images/foreignKeys.png" width="11px" height="12px" preserveAspectRatio="xMinYMin meet" x="13" y="-332"/>
<text text-anchor="start" x="28" y="-323.2" font-family="Helvetica,sans-Serif" font-size="11.00">property_type</text>
<polygon fill="none" stroke="black" points="8,-293 8,-315 296,-315 296,-293 8,-293"/>
<image xlink:href="../../images/foreignKeys.png" width="11px" height="12px" preserveAspectRatio="xMinYMin meet" x="13" y="-310"/>
<text text-anchor="start" x="28" y="-301.2" font-family="Helvetica,sans-Serif" font-size="11.00">property_size_class</text>
<polygon fill="none" stroke="black" points="8,-271 8,-293 296,-293 296,-271 8,-271"/>
<image xlink:href="../../images/foreignKeys.png" width="11px" height="12px" preserveAspectRatio="xMinYMin meet" x="13" y="-288"/>
<text text-anchor="start" x="28" y="-279.2" font-family="Helvetica,sans-Serif" font-size="11.00">land_use_after</text>
<polygon fill="none" stroke="black" points="8,-249 8,-271 296,-271 296,-249 8,-249"/>
<image xlink:href="../../images/foreignKeys.png" width="11px" height="12px" preserveAspectRatio="xMinYMin meet" x="13" y="-266"/>
<text text-anchor="start" x="28" y="-257.2" font-family="Helvetica,sans-Serif" font-size="11.00">marker_status</text>
<polygon fill="none" stroke="black" points="8,-227 8,-249 296,-249 296,-227 8,-227"/>
<image xlink:href="../../images/foreignKeys.png" width="11px" height="12px" preserveAspectRatio="xMinYMin meet" x="13" y="-244"/>
<text text-anchor="start" x="28" y="-235.2" font-family="Helvetica,sans-Serif" font-size="11.00">marker_profile</text>
<polygon fill="none" stroke="black" points="8,-205 8,-227 296,-227 296,-205 8,-205"/>
<image xlink:href="../../images/foreignKeys.png" width="11px" height="12px" preserveAspectRatio="xMinYMin meet" x="13" y="-222"/>
<text text-anchor="start" x="28" y="-213.2" font-family="Helvetica,sans-Serif" font-size="11.00">terrain_form</text>
<polygon fill="none" stroke="black" points="8,-183 8,-205 296,-205 296,-183 8,-183"/>
<image xlink:href="../../images/foreignKeys.png" width="11px" height="12px" preserveAspectRatio="xMinYMin meet" x="13" y="-200"/>
<text text-anchor="start" x="28" y="-191.2" font-family="Helvetica,sans-Serif" font-size="11.00">management_type</text>
<polygon fill="none" stroke="black" points="8,-161 8,-183 296,-183 296,-161 8,-161"/>
<image xlink:href="../../images/foreignKeys.png" width="11px" height="12px" preserveAspectRatio="xMinYMin meet" x="13" y="-178"/>
<text text-anchor="start" x="28" y="-169.2" font-family="Helvetica,sans-Serif" font-size="11.00">harvesting_method</text>
<polygon fill="none" stroke="black" points="8,-139 8,-161 296,-161 296,-139 8,-139"/>
<image xlink:href="../../images/foreignKeys.png" width="11px" height="12px" preserveAspectRatio="xMinYMin meet" x="13" y="-156"/>
<text text-anchor="start" x="28" y="-147.2" font-family="Helvetica,sans-Serif" font-size="11.00">stand_structure</text>
<polygon fill="none" stroke="black" points="8,-117 8,-139 296,-139 296,-117 8,-117"/>
<image xlink:href="../../images/foreignKeys.png" width="11px" height="12px" preserveAspectRatio="xMinYMin meet" x="13" y="-134"/>
<text text-anchor="start" x="28" y="-125.2" font-family="Helvetica,sans-Serif" font-size="11.00">stand_dev_phase</text>
<polygon fill="none" stroke="black" points="8,-95 8,-117 296,-117 296,-95 8,-95"/>
<image xlink:href="../../images/foreignKeys.png" width="11px" height="12px" preserveAspectRatio="xMinYMin meet" x="13" y="-112"/>
<text text-anchor="start" x="28" y="-103.2" font-family="Helvetica,sans-Serif" font-size="11.00">stand_layer_reg</text>
<polygon fill="none" stroke="black" points="8,-73 8,-95 296,-95 296,-73 8,-73"/>
<image xlink:href="../../images/foreignKeys.png" width="11px" height="12px" preserveAspectRatio="xMinYMin meet" x="13" y="-90"/>
<text text-anchor="start" x="28" y="-81.2" font-family="Helvetica,sans-Serif" font-size="11.00">trees_less_4meter_mirrored</text>
<polygon fill="none" stroke="black" points="8,-55 8,-73 296,-73 296,-55 8,-55"/>
<text text-anchor="start" x="11" y="-61.2" font-family="Helvetica,sans-Serif" font-size="11.00">...</text>
<polygon fill="#ffffff" stroke="transparent" points="8,-37 8,-55 296,-55 296,-37 8,-37"/>
<polygon fill="none" stroke="black" points="8,-37 8,-55 296,-55 296,-37 8,-37"/>
<polygon fill="#ffffff" stroke="transparent" points="9,-38 9,-54 104,-54 104,-38 9,-38"/>
<text text-anchor="start" x="11" y="-43.2" font-family="Helvetica,sans-Serif" font-size="11.00">&lt; 16</text>
<polygon fill="#ffffff" stroke="transparent" points="104,-38 104,-54 208,-54 208,-38 104,-38"/>
<text text-anchor="start" x="137.5" y="-43.2" font-family="Helvetica,sans-Serif" font-size="11.00">0 rows</text>
<polygon fill="#ffffff" stroke="transparent" points="208,-38 208,-54 295,-54 295,-38 208,-38"/>
<text text-anchor="start" x="273" y="-43.2" font-family="Helvetica,sans-Serif" font-size="11.00">7 &gt;</text>
<polygon fill="black" stroke="black" points="104,-38 104,-54 104,-54 104,-38 104,-38"/>
<polygon fill="black" stroke="black" points="208,-38 208,-54 208,-54 208,-38 208,-38"/>
</a>
</g>
</g>
<!-- plot_location&#45;&gt;plot -->
<g id="edge1" class="edge">
<title>plot_location:w&#45;&gt;plot:e</title>
<path fill="none" stroke="black" d="M356.62,-420.38C333,-428.99 328.84,-458 297,-458"/>
<polygon fill="black" stroke="black" points="363.11,-419.31 371.59,-421.55 367.05,-418.65 371,-418 371,-418 371,-418 367.05,-418.65 370.41,-414.45 363.11,-419.31 363.11,-419.31"/>
<ellipse fill="none" stroke="black" cx="359.95" cy="-419.83" rx="3.2" ry="3.2"/>
</g>
<!-- position -->
<g id="node3" class="node">
<title>position</title>
<g id="a_node3"><a xlink:href="../../tables/position.html" xlink:title="position" target="_top">
<polygon fill="#ffffff" stroke="transparent" points="588,-119 588,-537 1093,-537 1093,-119 588,-119"/>
<polygon fill="#f5f5f5" stroke="transparent" points="590.5,-513 590.5,-535 1091.5,-535 1091.5,-513 590.5,-513"/>
<polygon fill="none" stroke="black" points="590.5,-513 590.5,-535 1091.5,-535 1091.5,-513 590.5,-513"/>
<text text-anchor="start" x="595.5" y="-522.2" font-family="Helvetica,sans-Serif" font-weight="bold" font-size="11.00">position</text>
<text text-anchor="start" x="1049.5" y="-521.2" font-family="Helvetica,sans-Serif" font-size="11.00">[table]</text>
<polygon fill="none" stroke="black" points="590.5,-491 590.5,-513 773.5,-513 773.5,-491 590.5,-491"/>
<image xlink:href="../../images/primaryKeys.png" width="11px" height="12px" preserveAspectRatio="xMinYMin meet" x="595.5" y="-508"/>
<text text-anchor="start" x="610.5" y="-499.2" font-family="Helvetica,sans-Serif" font-size="11.00">id</text>
<polygon fill="none" stroke="black" points="773.5,-491 773.5,-513 1091.5,-513 1091.5,-491 773.5,-491"/>
<text text-anchor="start" x="776.5" y="-499.2" font-family="Helvetica,sans-Serif" font-size="11.00">serial[10]</text>
<polygon fill="none" stroke="black" points="590.5,-469 590.5,-491 773.5,-491 773.5,-469 590.5,-469"/>
<image xlink:href="../../images/foreignKeys.png" width="11px" height="12px" preserveAspectRatio="xMinYMin meet" x="595.5" y="-486"/>
<text text-anchor="start" x="610.5" y="-477.2" font-family="Helvetica,sans-Serif" font-size="11.00">plot_id</text>
<polygon fill="none" stroke="black" points="773.5,-469 773.5,-491 1091.5,-491 1091.5,-469 773.5,-469"/>
<text text-anchor="start" x="776.5" y="-477.2" font-family="Helvetica,sans-Serif" font-size="11.00">int4[10]</text>
<polygon fill="none" stroke="black" points="590.5,-447 590.5,-469 773.5,-469 773.5,-447 590.5,-447"/>
<image xlink:href="../../images/foreignKeys.png" width="11px" height="12px" preserveAspectRatio="xMinYMin meet" x="595.5" y="-464"/>
<text text-anchor="start" x="610.5" y="-455.2" font-family="Helvetica,sans-Serif" font-size="11.00">plot_location_id</text>
<polygon fill="none" stroke="black" points="773.5,-447 773.5,-469 1091.5,-469 1091.5,-447 773.5,-447"/>
<text text-anchor="start" x="776.5" y="-455.2" font-family="Helvetica,sans-Serif" font-size="11.00">int4[10]</text>
<polygon fill="none" stroke="black" points="590.5,-425 590.5,-447 773.5,-447 773.5,-425 590.5,-425"/>
<text text-anchor="start" x="610.5" y="-433.2" font-family="Helvetica,sans-Serif" font-size="11.00">created_at</text>
<polygon fill="none" stroke="black" points="773.5,-425 773.5,-447 1091.5,-447 1091.5,-425 773.5,-425"/>
<text text-anchor="start" x="776.5" y="-433.2" font-family="Helvetica,sans-Serif" font-size="11.00">timestamp[29,6]</text>
<polygon fill="none" stroke="black" points="590.5,-403 590.5,-425 773.5,-425 773.5,-403 590.5,-403"/>
<text text-anchor="start" x="610.5" y="-411.2" font-family="Helvetica,sans-Serif" font-size="11.00">modified_at</text>
<polygon fill="none" stroke="black" points="773.5,-403 773.5,-425 1091.5,-425 1091.5,-403 773.5,-403"/>
<text text-anchor="start" x="776.5" y="-411.2" font-family="Helvetica,sans-Serif" font-size="11.00">timestamp[29,6]</text>
<polygon fill="none" stroke="black" points="590.5,-381 590.5,-403 773.5,-403 773.5,-381 590.5,-381"/>
<text text-anchor="start" x="610.5" y="-389.2" font-family="Helvetica,sans-Serif" font-size="11.00">modified_by</text>
<polygon fill="none" stroke="black" points="773.5,-381 773.5,-403 1091.5,-403 1091.5,-381 773.5,-381"/>
<text text-anchor="start" x="776.5" y="-389.2" font-family="Helvetica,sans-Serif" font-size="11.00">regrole[2147483647]</text>
<polygon fill="none" stroke="black" points="590.5,-359 590.5,-381 773.5,-381 773.5,-359 590.5,-359"/>
<text text-anchor="start" x="610.5" y="-367.2" font-family="Helvetica,sans-Serif" font-size="11.00">position_median</text>
<polygon fill="none" stroke="black" points="773.5,-359 773.5,-381 1091.5,-381 1091.5,-359 773.5,-359"/>
<text text-anchor="start" x="776.5" y="-367.2" font-family="Helvetica,sans-Serif" font-size="11.00">geometry[2147483647]</text>
<polygon fill="none" stroke="black" points="590.5,-337 590.5,-359 773.5,-359 773.5,-337 590.5,-337"/>
<text text-anchor="start" x="610.5" y="-345.2" font-family="Helvetica,sans-Serif" font-size="11.00">position_mean</text>
<polygon fill="none" stroke="black" points="773.5,-337 773.5,-359 1091.5,-359 1091.5,-337 773.5,-337"/>
<text text-anchor="start" x="776.5" y="-345.2" font-family="Helvetica,sans-Serif" font-size="11.00">geometry[2147483647]</text>
<polygon fill="none" stroke="black" points="590.5,-315 590.5,-337 773.5,-337 773.5,-315 590.5,-315"/>
<text text-anchor="start" x="610.5" y="-323.2" font-family="Helvetica,sans-Serif" font-size="11.00">hdop_mean</text>
<polygon fill="none" stroke="black" points="773.5,-315 773.5,-337 1091.5,-337 1091.5,-315 773.5,-315"/>
<text text-anchor="start" x="776.5" y="-323.2" font-family="Helvetica,sans-Serif" font-size="11.00">float8[17,17]</text>
<polygon fill="none" stroke="black" points="590.5,-293 590.5,-315 773.5,-315 773.5,-293 590.5,-293"/>
<text text-anchor="start" x="610.5" y="-301.2" font-family="Helvetica,sans-Serif" font-size="11.00">pdop_mean</text>
<polygon fill="none" stroke="black" points="773.5,-293 773.5,-315 1091.5,-315 1091.5,-293 773.5,-293"/>
<text text-anchor="start" x="776.5" y="-301.2" font-family="Helvetica,sans-Serif" font-size="11.00">float8[17,17]</text>
<polygon fill="none" stroke="black" points="590.5,-271 590.5,-293 773.5,-293 773.5,-271 590.5,-271"/>
<text text-anchor="start" x="610.5" y="-279.2" font-family="Helvetica,sans-Serif" font-size="11.00">satellites_count_mean</text>
<polygon fill="none" stroke="black" points="773.5,-271 773.5,-293 1091.5,-293 1091.5,-271 773.5,-271"/>
<text text-anchor="start" x="776.5" y="-279.2" font-family="Helvetica,sans-Serif" font-size="11.00">float8[17,17]</text>
<polygon fill="none" stroke="black" points="590.5,-249 590.5,-271 773.5,-271 773.5,-249 590.5,-249"/>
<text text-anchor="start" x="610.5" y="-257.2" font-family="Helvetica,sans-Serif" font-size="11.00">measurement_count</text>
<polygon fill="none" stroke="black" points="773.5,-249 773.5,-271 1091.5,-271 1091.5,-249 773.5,-249"/>
<text text-anchor="start" x="776.5" y="-257.2" font-family="Helvetica,sans-Serif" font-size="11.00">int2[5]</text>
<polygon fill="none" stroke="black" points="590.5,-227 590.5,-249 773.5,-249 773.5,-227 590.5,-227"/>
<text text-anchor="start" x="610.5" y="-235.2" font-family="Helvetica,sans-Serif" font-size="11.00">rtcm_age</text>
<polygon fill="none" stroke="black" points="773.5,-227 773.5,-249 1091.5,-249 1091.5,-227 773.5,-227"/>
<text text-anchor="start" x="776.5" y="-235.2" font-family="Helvetica,sans-Serif" font-size="11.00">float8[17,17]</text>
<polygon fill="none" stroke="black" points="590.5,-205 590.5,-227 773.5,-227 773.5,-205 590.5,-205"/>
<text text-anchor="start" x="610.5" y="-213.2" font-family="Helvetica,sans-Serif" font-size="11.00">start_measurement</text>
<polygon fill="none" stroke="black" points="773.5,-205 773.5,-227 1091.5,-227 1091.5,-205 773.5,-205"/>
<text text-anchor="start" x="776.5" y="-213.2" font-family="Helvetica,sans-Serif" font-size="11.00">timestamp[29,6]</text>
<polygon fill="none" stroke="black" points="590.5,-183 590.5,-205 773.5,-205 773.5,-183 590.5,-183"/>
<text text-anchor="start" x="610.5" y="-191.2" font-family="Helvetica,sans-Serif" font-size="11.00">stop_measurement</text>
<polygon fill="none" stroke="black" points="773.5,-183 773.5,-205 1091.5,-205 1091.5,-183 773.5,-183"/>
<text text-anchor="start" x="776.5" y="-191.2" font-family="Helvetica,sans-Serif" font-size="11.00">timestamp[29,6]</text>
<polygon fill="none" stroke="black" points="590.5,-161 590.5,-183 773.5,-183 773.5,-161 590.5,-161"/>
<text text-anchor="start" x="610.5" y="-169.2" font-family="Helvetica,sans-Serif" font-size="11.00">device_gnss</text>
<polygon fill="none" stroke="black" points="773.5,-161 773.5,-183 1091.5,-183 1091.5,-161 773.5,-161"/>
<text text-anchor="start" x="776.5" y="-169.2" font-family="Helvetica,sans-Serif" font-size="11.00">varchar[150]</text>
<polygon fill="none" stroke="black" points="590.5,-139 590.5,-161 773.5,-161 773.5,-139 590.5,-139"/>
<image xlink:href="../../images/foreignKeys.png" width="11px" height="12px" preserveAspectRatio="xMinYMin meet" x="595.5" y="-156"/>
<text text-anchor="start" x="610.5" y="-147.2" font-family="Helvetica,sans-Serif" font-size="11.00">quality</text>
<polygon fill="none" stroke="black" points="773.5,-139 773.5,-161 1091.5,-161 1091.5,-139 773.5,-139"/>
<text text-anchor="start" x="776.5" y="-147.2" font-family="Helvetica,sans-Serif" font-size="11.00">&quot;private_ci2027_001&quot;.&quot;enum_gnss_quality&quot;[2147483647]</text>
<polygon fill="#ffffff" stroke="transparent" points="590.5,-121 590.5,-139 1091.5,-139 1091.5,-121 590.5,-121"/>
<polygon fill="none" stroke="black" points="590.5,-121 590.5,-139 1091.5,-139 1091.5,-121 590.5,-121"/>
<polygon fill="#ffffff" stroke="transparent" points="591.5,-122 591.5,-138 752.5,-138 752.5,-122 591.5,-122"/>
<text text-anchor="start" x="593.5" y="-127.2" font-family="Helvetica,sans-Serif" font-size="11.00">&lt; 3</text>
<polygon fill="#ffffff" stroke="transparent" points="752.5,-122 752.5,-138 930.5,-138 930.5,-122 752.5,-122"/>
<text text-anchor="start" x="823" y="-127.2" font-family="Helvetica,sans-Serif" font-size="11.00">0 rows</text>
<polygon fill="#ffffff" stroke="transparent" points="930.5,-122 930.5,-138 1090.5,-138 1090.5,-122 930.5,-122"/>
<text text-anchor="start" x="1068.5" y="-127.2" font-family="Helvetica,sans-Serif" font-size="11.00">0 &gt;</text>
<polygon fill="black" stroke="black" points="752.5,-122 752.5,-138 752.5,-138 752.5,-122 752.5,-122"/>
<polygon fill="black" stroke="black" points="930.5,-122 930.5,-138 930.5,-138 930.5,-122 930.5,-122"/>
<polygon fill="none" stroke="black" stroke-width="2" points="589,-120 589,-536 1092,-536 1092,-120 589,-120"/>
</a>
</g>
</g>
<!-- position&#45;&gt;plot_location -->
<g id="edge3" class="edge">
<title>position:w&#45;&gt;plot_location:e</title>
<path fill="none" stroke="black" d="M574.85,-456.76C552.2,-452.7 542.97,-440 514,-440"/>
<polygon fill="black" stroke="black" points="581.53,-457.33 589.2,-461.59 585.51,-457.66 589.5,-458 589.5,-458 589.5,-458 585.51,-457.66 589.8,-454.41 581.53,-457.33 581.53,-457.33"/>
<ellipse fill="none" stroke="black" cx="578.34" cy="-457.06" rx="3.2" ry="3.2"/>
</g>
<!-- position&#45;&gt;plot -->
<g id="edge2" class="edge">
<title>position:w&#45;&gt;plot:e</title>
<path fill="none" stroke="black" d="M575.05,-480.75C566.26,-481.73 560.03,-483.39 547,-484 453.77,-488.38 426.48,-510.53 337,-484 316.67,-477.97 318.2,-458 297,-458"/>
<polygon fill="black" stroke="black" points="581.51,-480.41 589.69,-483.6 585.51,-480.21 589.5,-480 589.5,-480 589.5,-480 585.51,-480.21 589.31,-476.4 581.51,-480.41 581.51,-480.41"/>
<ellipse fill="none" stroke="black" cx="578.32" cy="-480.58" rx="3.2" ry="3.2"/>
</g>
<!-- lookup_gnss_quality -->
<g id="node4" class="node">
<title>lookup_gnss_quality</title>
<g id="a_node4"><a xlink:href="../../tables/lookup_gnss_quality.html" xlink:title="lookup_gnss_quality" target="_top">
<polygon fill="#ffffff" stroke="transparent" points="345,-103 345,-183 539,-183 539,-103 345,-103"/>
<polygon fill="#f5f5f5" stroke="transparent" points="345,-161 345,-183 539,-183 539,-161 345,-161"/>
<polygon fill="none" stroke="black" points="345,-161 345,-183 539,-183 539,-161 345,-161"/>
<text text-anchor="start" x="350" y="-170.2" font-family="Helvetica,sans-Serif" font-weight="bold" font-size="11.00">lookup_gnss_quality</text>
<text text-anchor="start" x="497" y="-169.2" font-family="Helvetica,sans-Serif" font-size="11.00">[table]</text>
<polygon fill="#ffffff" stroke="transparent" points="345,-139 345,-161 539,-161 539,-139 345,-139"/>
<polygon fill="none" stroke="black" points="345,-139 345,-161 539,-161 539,-139 345,-139"/>
<text text-anchor="start" x="378" y="-147.2" font-family="Helvetica,sans-Serif" font-size="11.00">abbreviation</text>
<polygon fill="none" stroke="black" points="345,-121 345,-139 539,-139 539,-121 345,-121"/>
<text text-anchor="start" x="348" y="-127.2" font-family="Helvetica,sans-Serif" font-size="11.00">...</text>
<polygon fill="#ffffff" stroke="transparent" points="345,-103 345,-121 539,-121 539,-103 345,-103"/>
<polygon fill="none" stroke="black" points="345,-103 345,-121 539,-121 539,-103 345,-103"/>
<polygon fill="#ffffff" stroke="transparent" points="346,-104 346,-120 397,-120 397,-104 346,-104"/>
<text text-anchor="start" x="348" y="-109.2" font-family="Helvetica,sans-Serif" font-size="11.00"> &#160;</text>
<polygon fill="#ffffff" stroke="transparent" points="397,-104 397,-120 476,-120 476,-104 397,-104"/>
<text text-anchor="start" x="418" y="-109.2" font-family="Helvetica,sans-Serif" font-size="11.00">0 rows</text>
<polygon fill="#ffffff" stroke="transparent" points="476,-104 476,-120 538,-120 538,-104 476,-104"/>
<text text-anchor="start" x="516" y="-109.2" font-family="Helvetica,sans-Serif" font-size="11.00">1 &gt;</text>
<polygon fill="black" stroke="black" points="397,-104 397,-120 397,-120 397,-104 397,-104"/>
<polygon fill="black" stroke="black" points="476,-104 476,-120 476,-120 476,-104 476,-104"/>
</a>
</g>
</g>
<!-- position&#45;&gt;lookup_gnss_quality -->
<g id="edge4" class="edge">
<title>position:w&#45;&gt;lookup_gnss_quality:e</title>
<path fill="none" stroke="black" d="M574.84,-150C563.41,-150 556.16,-150 540,-150"/>
<polygon fill="black" stroke="black" points="581.5,-150 589.5,-153.6 585.5,-150 589.5,-150 589.5,-150 589.5,-150 585.5,-150 589.5,-146.4 581.5,-150 581.5,-150"/>
<ellipse fill="none" stroke="black" cx="578.3" cy="-150" rx="3.2" ry="3.2"/>
</g>
</g>
</svg>
