<?xml version="1.0" encoding="UTF-8" standalone="no"?>
<!DOCTYPE svg PUBLIC "-//W3C//DTD SVG 1.1//EN"
 "http://www.w3.org/Graphics/SVG/1.1/DTD/svg11.dtd">
<!-- Generated by graphviz version 2.43.0 (0)
 -->
<!-- Title: oneDegreeRelationshipsDiagram Pages: 1 -->
<svg width="1132pt" height="524pt"
 viewBox="0.00 0.00 1132.00 524.23" xmlns="http://www.w3.org/2000/svg" xmlns:xlink="http://www.w3.org/1999/xlink">
<g id="graph0" class="graph" transform="scale(1 1) rotate(0) translate(4 520.23)">
<title>oneDegreeRelationshipsDiagram</title>
<polygon fill="#ffffff" stroke="transparent" points="-4,4 -4,-520.23 1128,-520.23 1128,4 -4,4"/>
<text text-anchor="middle" x="79.5" y="-7.2" font-family="Helvetica,sans-Serif" font-size="11.00">Generated by SchemaSpy</text>
<!-- plot_location -->
<g id="node1" class="node">
<title>plot_location</title>
<g id="a_node1"><a xlink:href="../../tables/plot_location.html" xlink:title="plot_location" target="_top">
<polygon fill="#ffffff" stroke="transparent" points="380,-350 380,-474 521,-474 521,-350 380,-350"/>
<polygon fill="#f5f5f5" stroke="transparent" points="380.5,-452 380.5,-474 521.5,-474 521.5,-452 380.5,-452"/>
<polygon fill="none" stroke="black" points="380.5,-452 380.5,-474 521.5,-474 521.5,-452 380.5,-452"/>
<text text-anchor="start" x="385.5" y="-461.2" font-family="Helvetica,sans-Serif" font-weight="bold" font-size="11.00">plot_location</text>
<text text-anchor="start" x="479.5" y="-460.2" font-family="Helvetica,sans-Serif" font-size="11.00">[table]</text>
<polygon fill="none" stroke="black" points="380.5,-430 380.5,-452 521.5,-452 521.5,-430 380.5,-430"/>
<image xlink:href="../../images/primaryKeys.png" width="11px" height="12px" preserveAspectRatio="xMinYMin meet" x="385.5" y="-447"/>
<text text-anchor="start" x="413.5" y="-438.2" font-family="Helvetica,sans-Serif" font-size="11.00">id</text>
<polygon fill="#ffffff" stroke="transparent" points="380.5,-408 380.5,-430 521.5,-430 521.5,-408 380.5,-408"/>
<polygon fill="none" stroke="black" points="380.5,-408 380.5,-430 521.5,-430 521.5,-408 380.5,-408"/>
<image xlink:href="../../images/foreignKeys.png" width="11px" height="12px" preserveAspectRatio="xMinYMin meet" x="385.5" y="-425"/>
<text text-anchor="start" x="413.5" y="-416.2" font-family="Helvetica,sans-Serif" font-size="11.00">plot_id</text>
<polygon fill="#ffffff" stroke="transparent" points="380.5,-386 380.5,-408 521.5,-408 521.5,-386 380.5,-386"/>
<polygon fill="none" stroke="black" points="380.5,-386 380.5,-408 521.5,-408 521.5,-386 380.5,-386"/>
<text text-anchor="start" x="413.5" y="-394.2" font-family="Helvetica,sans-Serif" font-size="11.00">parent_table</text>
<polygon fill="none" stroke="black" points="380.5,-368 380.5,-386 521.5,-386 521.5,-368 380.5,-368"/>
<text text-anchor="start" x="383.5" y="-374.2" font-family="Helvetica,sans-Serif" font-size="11.00">...</text>
<polygon fill="#ffffff" stroke="transparent" points="380.5,-350 380.5,-368 521.5,-368 521.5,-350 380.5,-350"/>
<polygon fill="none" stroke="black" points="380.5,-350 380.5,-368 521.5,-368 521.5,-350 380.5,-350"/>
<polygon fill="#ffffff" stroke="transparent" points="381.5,-351 381.5,-367 422.5,-367 422.5,-351 381.5,-351"/>
<text text-anchor="start" x="383.5" y="-356.2" font-family="Helvetica,sans-Serif" font-size="11.00">&lt; 1</text>
<polygon fill="#ffffff" stroke="transparent" points="422.5,-351 422.5,-367 480.5,-367 480.5,-351 422.5,-351"/>
<text text-anchor="start" x="433" y="-356.2" font-family="Helvetica,sans-Serif" font-size="11.00">0 rows</text>
<polygon fill="#ffffff" stroke="transparent" points="480.5,-351 480.5,-367 520.5,-367 520.5,-351 480.5,-351"/>
<text text-anchor="start" x="498.5" y="-356.2" font-family="Helvetica,sans-Serif" font-size="11.00">3 &gt;</text>
<polygon fill="black" stroke="black" points="422.5,-351 422.5,-367 422.5,-367 422.5,-351 422.5,-351"/>
<polygon fill="black" stroke="black" points="480.5,-351 480.5,-367 480.5,-367 480.5,-351 480.5,-351"/>
</a>
</g>
</g>
<!-- plot -->
<g id="node2" class="node">
<title>plot</title>
<g id="a_node2"><a xlink:href="../../tables/plot.html" xlink:title="plot" target="_top">
<polygon fill="#ffffff" stroke="transparent" points="8,-37 8,-491 296,-491 296,-37 8,-37"/>
<polygon fill="#f5f5f5" stroke="transparent" points="8,-469 8,-491 296,-491 296,-469 8,-469"/>
<polygon fill="none" stroke="black" points="8,-469 8,-491 296,-491 296,-469 8,-469"/>
<text text-anchor="start" x="12.5" y="-478.2" font-family="Helvetica,sans-Serif" font-weight="bold" font-size="11.00">plot</text>
<text text-anchor="start" x="254" y="-477.2" font-family="Helvetica,sans-Serif" font-size="11.00">[table]</text>
<polygon fill="none" stroke="black" points="8,-447 8,-469 296,-469 296,-447 8,-447"/>
<image xlink:href="../../images/primaryKeys.png" width="11px" height="12px" preserveAspectRatio="xMinYMin meet" x="13" y="-464"/>
<text text-anchor="start" x="28" y="-455.2" font-family="Helvetica,sans-Serif" font-size="11.00">id</text>
<polygon fill="#ffffff" stroke="transparent" points="8,-425 8,-447 296,-447 296,-425 8,-425"/>
<polygon fill="none" stroke="black" points="8,-425 8,-447 296,-447 296,-425 8,-425"/>
<image xlink:href="../../images/foreignKeys.png" width="11px" height="12px" preserveAspectRatio="xMinYMin meet" x="13" y="-442"/>
<text text-anchor="start" x="28" y="-433.2" font-family="Helvetica,sans-Serif" font-size="11.00">cluster_id</text>
<polygon fill="#ffffff" stroke="transparent" points="8,-403 8,-425 296,-425 296,-403 8,-403"/>
<polygon fill="none" stroke="black" points="8,-403 8,-425 296,-425 296,-403 8,-403"/>
<text text-anchor="start" x="28" y="-411.2" font-family="Helvetica,sans-Serif" font-size="11.00">plot_name</text>
<polygon fill="none" stroke="black" points="8,-381 8,-403 296,-403 296,-381 8,-381"/>
<image xlink:href="../../images/foreignKeys.png" width="11px" height="12px" preserveAspectRatio="xMinYMin meet" x="13" y="-398"/>
<text text-anchor="start" x="28" y="-389.2" font-family="Helvetica,sans-Serif" font-size="11.00">growth_district</text>
<polygon fill="none" stroke="black" points="8,-359 8,-381 296,-381 296,-359 8,-359"/>
<image xlink:href="../../images/foreignKeys.png" width="11px" height="12px" preserveAspectRatio="xMinYMin meet" x="13" y="-376"/>
<text text-anchor="start" x="28" y="-367.2" font-family="Helvetica,sans-Serif" font-size="11.00">forest_status</text>
<polygon fill="none" stroke="black" points="8,-337 8,-359 296,-359 296,-337 8,-337"/>
<image xlink:href="../../images/foreignKeys.png" width="11px" height="12px" preserveAspectRatio="xMinYMin meet" x="13" y="-354"/>
<text text-anchor="start" x="28" y="-345.2" font-family="Helvetica,sans-Serif" font-size="11.00">elevation_level</text>
<polygon fill="none" stroke="black" points="8,-315 8,-337 296,-337 296,-315 8,-315"/>
<image xlink:href="../../images/foreignKeys.png" width="11px" height="12px" preserveAspectRatio="xMinYMin meet" x="13" y="-332"/>
<text text-anchor="start" x="28" y="-323.2" font-family="Helvetica,sans-Serif" font-size="11.00">property_type</text>
<polygon fill="none" stroke="black" points="8,-293 8,-315 296,-315 296,-293 8,-293"/>
<image xlink:href="../../images/foreignKeys.png" width="11px" height="12px" preserveAspectRatio="xMinYMin meet" x="13" y="-310"/>
<text text-anchor="start" x="28" y="-301.2" font-family="Helvetica,sans-Serif" font-size="11.00">property_size_class</text>
<polygon fill="none" stroke="black" points="8,-271 8,-293 296,-293 296,-271 8,-271"/>
<image xlink:href="../../images/foreignKeys.png" width="11px" height="12px" preserveAspectRatio="xMinYMin meet" x="13" y="-288"/>
<text text-anchor="start" x="28" y="-279.2" font-family="Helvetica,sans-Serif" font-size="11.00">land_use_after</text>
<polygon fill="none" stroke="black" points="8,-249 8,-271 296,-271 296,-249 8,-249"/>
<image xlink:href="../../images/foreignKeys.png" width="11px" height="12px" preserveAspectRatio="xMinYMin meet" x="13" y="-266"/>
<text text-anchor="start" x="28" y="-257.2" font-family="Helvetica,sans-Serif" font-size="11.00">marker_status</text>
<polygon fill="none" stroke="black" points="8,-227 8,-249 296,-249 296,-227 8,-227"/>
<image xlink:href="../../images/foreignKeys.png" width="11px" height="12px" preserveAspectRatio="xMinYMin meet" x="13" y="-244"/>
<text text-anchor="start" x="28" y="-235.2" font-family="Helvetica,sans-Serif" font-size="11.00">marker_profile</text>
<polygon fill="none" stroke="black" points="8,-205 8,-227 296,-227 296,-205 8,-205"/>
<image xlink:href="../../images/foreignKeys.png" width="11px" height="12px" preserveAspectRatio="xMinYMin meet" x="13" y="-222"/>
<text text-anchor="start" x="28" y="-213.2" font-family="Helvetica,sans-Serif" font-size="11.00">terrain_form</text>
<polygon fill="none" stroke="black" points="8,-183 8,-205 296,-205 296,-183 8,-183"/>
<image xlink:href="../../images/foreignKeys.png" width="11px" height="12px" preserveAspectRatio="xMinYMin meet" x="13" y="-200"/>
<text text-anchor="start" x="28" y="-191.2" font-family="Helvetica,sans-Serif" font-size="11.00">management_type</text>
<polygon fill="none" stroke="black" points="8,-161 8,-183 296,-183 296,-161 8,-161"/>
<image xlink:href="../../images/foreignKeys.png" width="11px" height="12px" preserveAspectRatio="xMinYMin meet" x="13" y="-178"/>
<text text-anchor="start" x="28" y="-169.2" font-family="Helvetica,sans-Serif" font-size="11.00">harvesting_method</text>
<polygon fill="none" stroke="black" points="8,-139 8,-161 296,-161 296,-139 8,-139"/>
<image xlink:href="../../images/foreignKeys.png" width="11px" height="12px" preserveAspectRatio="xMinYMin meet" x="13" y="-156"/>
<text text-anchor="start" x="28" y="-147.2" font-family="Helvetica,sans-Serif" font-size="11.00">stand_structure</text>
<polygon fill="none" stroke="black" points="8,-117 8,-139 296,-139 296,-117 8,-117"/>
<image xlink:href="../../images/foreignKeys.png" width="11px" height="12px" preserveAspectRatio="xMinYMin meet" x="13" y="-134"/>
<text text-anchor="start" x="28" y="-125.2" font-family="Helvetica,sans-Serif" font-size="11.00">stand_dev_phase</text>
<polygon fill="none" stroke="black" points="8,-95 8,-117 296,-117 296,-95 8,-95"/>
<image xlink:href="../../images/foreignKeys.png" width="11px" height="12px" preserveAspectRatio="xMinYMin meet" x="13" y="-112"/>
<text text-anchor="start" x="28" y="-103.2" font-family="Helvetica,sans-Serif" font-size="11.00">stand_layer_reg</text>
<polygon fill="none" stroke="black" points="8,-73 8,-95 296,-95 296,-73 8,-73"/>
<image xlink:href="../../images/foreignKeys.png" width="11px" height="12px" preserveAspectRatio="xMinYMin meet" x="13" y="-90"/>
<text text-anchor="start" x="28" y="-81.2" font-family="Helvetica,sans-Serif" font-size="11.00">trees_less_4meter_mirrored</text>
<polygon fill="none" stroke="black" points="8,-55 8,-73 296,-73 296,-55 8,-55"/>
<text text-anchor="start" x="11" y="-61.2" font-family="Helvetica,sans-Serif" font-size="11.00">...</text>
<polygon fill="#ffffff" stroke="transparent" points="8,-37 8,-55 296,-55 296,-37 8,-37"/>
<polygon fill="none" stroke="black" points="8,-37 8,-55 296,-55 296,-37 8,-37"/>
<polygon fill="#ffffff" stroke="transparent" points="9,-38 9,-54 104,-54 104,-38 9,-38"/>
<text text-anchor="start" x="11" y="-43.2" font-family="Helvetica,sans-Serif" font-size="11.00">&lt; 16</text>
<polygon fill="#ffffff" stroke="transparent" points="104,-38 104,-54 208,-54 208,-38 104,-38"/>
<text text-anchor="start" x="137.5" y="-43.2" font-family="Helvetica,sans-Serif" font-size="11.00">0 rows</text>
<polygon fill="#ffffff" stroke="transparent" points="208,-38 208,-54 295,-54 295,-38 208,-38"/>
<text text-anchor="start" x="273" y="-43.2" font-family="Helvetica,sans-Serif" font-size="11.00">7 &gt;</text>
<polygon fill="black" stroke="black" points="104,-38 104,-54 104,-54 104,-38 104,-38"/>
<polygon fill="black" stroke="black" points="208,-38 208,-54 208,-54 208,-38 208,-38"/>
</a>
</g>
</g>
<!-- plot_location&#45;&gt;plot -->
<g id="edge1" class="edge">
<title>plot_location:w&#45;&gt;plot:e</title>
<path fill="none" stroke="black" d="M364.86,-420.99C337.83,-428.94 332.01,-458 297,-458"/>
<polygon fill="black" stroke="black" points="371.57,-420.08 379.98,-422.57 375.54,-419.54 379.5,-419 379.5,-419 379.5,-419 375.54,-419.54 379.02,-415.43 371.57,-420.08 371.57,-420.08"/>
<ellipse fill="none" stroke="black" cx="368.4" cy="-420.51" rx="3.2" ry="3.2"/>
</g>
<!-- regeneration -->
<g id="node3" class="node">
<title>regeneration</title>
<g id="a_node3"><a xlink:href="../../tables/regeneration.html" xlink:title="regeneration" target="_top">
<polygon fill="#ffffff" stroke="transparent" points="605,-155 605,-463 1116,-463 1116,-155 605,-155"/>
<polygon fill="#f5f5f5" stroke="transparent" points="607.5,-439 607.5,-461 1114.5,-461 1114.5,-439 607.5,-439"/>
<polygon fill="none" stroke="black" points="607.5,-439 607.5,-461 1114.5,-461 1114.5,-439 607.5,-439"/>
<text text-anchor="start" x="612.5" y="-448.2" font-family="Helvetica,sans-Serif" font-weight="bold" font-size="11.00">regeneration</text>
<text text-anchor="start" x="1072.5" y="-447.2" font-family="Helvetica,sans-Serif" font-size="11.00">[table]</text>
<polygon fill="none" stroke="black" points="607.5,-417 607.5,-439 782.5,-439 782.5,-417 607.5,-417"/>
<image xlink:href="../../images/primaryKeys.png" width="11px" height="12px" preserveAspectRatio="xMinYMin meet" x="612.5" y="-434"/>
<text text-anchor="start" x="627.5" y="-425.2" font-family="Helvetica,sans-Serif" font-size="11.00">id</text>
<polygon fill="none" stroke="black" points="782.5,-417 782.5,-439 1114.5,-439 1114.5,-417 782.5,-417"/>
<text text-anchor="start" x="785.5" y="-425.2" font-family="Helvetica,sans-Serif" font-size="11.00">serial[10]</text>
<polygon fill="none" stroke="black" points="607.5,-395 607.5,-417 782.5,-417 782.5,-395 607.5,-395"/>
<image xlink:href="../../images/foreignKeys.png" width="11px" height="12px" preserveAspectRatio="xMinYMin meet" x="612.5" y="-412"/>
<text text-anchor="start" x="627.5" y="-403.2" font-family="Helvetica,sans-Serif" font-size="11.00">plot_id</text>
<polygon fill="none" stroke="black" points="782.5,-395 782.5,-417 1114.5,-417 1114.5,-395 782.5,-395"/>
<text text-anchor="start" x="785.5" y="-403.2" font-family="Helvetica,sans-Serif" font-size="11.00">int4[10]</text>
<polygon fill="none" stroke="black" points="607.5,-373 607.5,-395 782.5,-395 782.5,-373 607.5,-373"/>
<image xlink:href="../../images/foreignKeys.png" width="11px" height="12px" preserveAspectRatio="xMinYMin meet" x="612.5" y="-390"/>
<text text-anchor="start" x="627.5" y="-381.2" font-family="Helvetica,sans-Serif" font-size="11.00">plot_location_id</text>
<polygon fill="none" stroke="black" points="782.5,-373 782.5,-395 1114.5,-395 1114.5,-373 782.5,-373"/>
<text text-anchor="start" x="785.5" y="-381.2" font-family="Helvetica,sans-Serif" font-size="11.00">int4[10]</text>
<polygon fill="none" stroke="black" points="607.5,-351 607.5,-373 782.5,-373 782.5,-351 607.5,-351"/>
<text text-anchor="start" x="627.5" y="-359.2" font-family="Helvetica,sans-Serif" font-size="11.00">created_at</text>
<polygon fill="none" stroke="black" points="782.5,-351 782.5,-373 1114.5,-373 1114.5,-351 782.5,-351"/>
<text text-anchor="start" x="785.5" y="-359.2" font-family="Helvetica,sans-Serif" font-size="11.00">timestamp[29,6]</text>
<polygon fill="none" stroke="black" points="607.5,-329 607.5,-351 782.5,-351 782.5,-329 607.5,-329"/>
<text text-anchor="start" x="627.5" y="-337.2" font-family="Helvetica,sans-Serif" font-size="11.00">modified_at</text>
<polygon fill="none" stroke="black" points="782.5,-329 782.5,-351 1114.5,-351 1114.5,-329 782.5,-329"/>
<text text-anchor="start" x="785.5" y="-337.2" font-family="Helvetica,sans-Serif" font-size="11.00">timestamp[29,6]</text>
<polygon fill="none" stroke="black" points="607.5,-307 607.5,-329 782.5,-329 782.5,-307 607.5,-307"/>
<text text-anchor="start" x="627.5" y="-315.2" font-family="Helvetica,sans-Serif" font-size="11.00">modified_by</text>
<polygon fill="none" stroke="black" points="782.5,-307 782.5,-329 1114.5,-329 1114.5,-307 782.5,-307"/>
<text text-anchor="start" x="785.5" y="-315.2" font-family="Helvetica,sans-Serif" font-size="11.00">regrole[2147483647]</text>
<polygon fill="none" stroke="black" points="607.5,-285 607.5,-307 782.5,-307 782.5,-285 607.5,-285"/>
<image xlink:href="../../images/foreignKeys.png" width="11px" height="12px" preserveAspectRatio="xMinYMin meet" x="612.5" y="-302"/>
<text text-anchor="start" x="627.5" y="-293.2" font-family="Helvetica,sans-Serif" font-size="11.00">tree_species</text>
<polygon fill="none" stroke="black" points="782.5,-285 782.5,-307 1114.5,-307 1114.5,-285 782.5,-285"/>
<text text-anchor="start" x="785.5" y="-293.2" font-family="Helvetica,sans-Serif" font-size="11.00">int2[5]</text>
<polygon fill="none" stroke="black" points="607.5,-263 607.5,-285 782.5,-285 782.5,-263 607.5,-263"/>
<image xlink:href="../../images/foreignKeys.png" width="11px" height="12px" preserveAspectRatio="xMinYMin meet" x="612.5" y="-280"/>
<text text-anchor="start" x="627.5" y="-271.2" font-family="Helvetica,sans-Serif" font-size="11.00">browsing</text>
<polygon fill="none" stroke="black" points="782.5,-263 782.5,-285 1114.5,-285 1114.5,-263 782.5,-263"/>
<text text-anchor="start" x="785.5" y="-271.2" font-family="Helvetica,sans-Serif" font-size="11.00">&quot;private_ci2027_001&quot;.&quot;enum_browsing&quot;[2147483647]</text>
<polygon fill="none" stroke="black" points="607.5,-241 607.5,-263 782.5,-263 782.5,-241 607.5,-241"/>
<image xlink:href="../../images/foreignKeys.png" width="11px" height="12px" preserveAspectRatio="xMinYMin meet" x="612.5" y="-258"/>
<text text-anchor="start" x="627.5" y="-249.2" font-family="Helvetica,sans-Serif" font-size="11.00">tree_size_class</text>
<polygon fill="none" stroke="black" points="782.5,-241 782.5,-263 1114.5,-263 1114.5,-241 782.5,-241"/>
<text text-anchor="start" x="785.5" y="-249.2" font-family="Helvetica,sans-Serif" font-size="11.00">&quot;private_ci2027_001&quot;.&quot;enum_tree_size_class&quot;[2147483647]</text>
<polygon fill="none" stroke="black" points="607.5,-219 607.5,-241 782.5,-241 782.5,-219 607.5,-219"/>
<text text-anchor="start" x="627.5" y="-227.2" font-family="Helvetica,sans-Serif" font-size="11.00">damage_peel</text>
<polygon fill="none" stroke="black" points="782.5,-219 782.5,-241 1114.5,-241 1114.5,-219 782.5,-219"/>
<text text-anchor="start" x="785.5" y="-227.2" font-family="Helvetica,sans-Serif" font-size="11.00">int2[5]</text>
<polygon fill="none" stroke="black" points="607.5,-197 607.5,-219 782.5,-219 782.5,-197 607.5,-197"/>
<text text-anchor="start" x="627.5" y="-205.2" font-family="Helvetica,sans-Serif" font-size="11.00">protection_individual</text>
<polygon fill="none" stroke="black" points="782.5,-197 782.5,-219 1114.5,-219 1114.5,-197 782.5,-197"/>
<text text-anchor="start" x="785.5" y="-205.2" font-family="Helvetica,sans-Serif" font-size="11.00">bool[1]</text>
<polygon fill="none" stroke="black" points="607.5,-175 607.5,-197 782.5,-197 782.5,-175 607.5,-175"/>
<text text-anchor="start" x="627.5" y="-183.2" font-family="Helvetica,sans-Serif" font-size="11.00">count</text>
<polygon fill="none" stroke="black" points="782.5,-175 782.5,-197 1114.5,-197 1114.5,-175 782.5,-175"/>
<text text-anchor="start" x="785.5" y="-183.2" font-family="Helvetica,sans-Serif" font-size="11.00">int2[5]</text>
<polygon fill="#ffffff" stroke="transparent" points="607.5,-157 607.5,-175 1114.5,-175 1114.5,-157 607.5,-157"/>
<polygon fill="none" stroke="black" points="607.5,-157 607.5,-175 1114.5,-175 1114.5,-157 607.5,-157"/>
<polygon fill="#ffffff" stroke="transparent" points="608.5,-158 608.5,-174 771.5,-174 771.5,-158 608.5,-158"/>
<text text-anchor="start" x="610.5" y="-163.2" font-family="Helvetica,sans-Serif" font-size="11.00">&lt; 5</text>
<polygon fill="#ffffff" stroke="transparent" points="771.5,-158 771.5,-174 951.5,-174 951.5,-158 771.5,-158"/>
<text text-anchor="start" x="843" y="-163.2" font-family="Helvetica,sans-Serif" font-size="11.00">0 rows</text>
<polygon fill="#ffffff" stroke="transparent" points="951.5,-158 951.5,-174 1113.5,-174 1113.5,-158 951.5,-158"/>
<text text-anchor="start" x="1091.5" y="-163.2" font-family="Helvetica,sans-Serif" font-size="11.00">0 &gt;</text>
<polygon fill="black" stroke="black" points="771.5,-158 771.5,-174 771.5,-174 771.5,-158 771.5,-158"/>
<polygon fill="black" stroke="black" points="951.5,-158 951.5,-174 951.5,-174 951.5,-158 951.5,-158"/>
<polygon fill="none" stroke="black" stroke-width="2" points="606,-156 606,-462 1115,-462 1115,-156 606,-156"/>
</a>
</g>
</g>
<!-- regeneration&#45;&gt;plot_location -->
<g id="edge4" class="edge">
<title>regeneration:w&#45;&gt;plot_location:e</title>
<path fill="none" stroke="black" d="M592.19,-386.31C562.14,-396.97 562.15,-441 522.5,-441"/>
<polygon fill="black" stroke="black" points="598.6,-385.27 607.07,-387.55 602.55,-384.64 606.5,-384 606.5,-384 606.5,-384 602.55,-384.64 605.93,-380.45 598.6,-385.27 598.6,-385.27"/>
<ellipse fill="none" stroke="black" cx="595.44" cy="-385.78" rx="3.2" ry="3.2"/>
</g>
<!-- regeneration&#45;&gt;plot -->
<g id="edge3" class="edge">
<title>regeneration:w&#45;&gt;plot:e</title>
<path fill="none" stroke="black" d="M592.52,-409.92C574.9,-423.37 592.88,-467.74 564,-485 477.4,-536.75 433.48,-514.51 337,-485 316.49,-478.73 318.45,-458 297,-458"/>
<polygon fill="black" stroke="black" points="598.8,-408.16 607.47,-409.47 602.65,-407.08 606.5,-406 606.5,-406 606.5,-406 602.65,-407.08 605.53,-402.53 598.8,-408.16 598.8,-408.16"/>
<ellipse fill="none" stroke="black" cx="595.72" cy="-409.02" rx="3.2" ry="3.2"/>
</g>
<!-- lookup_browsing -->
<g id="node4" class="node">
<title>lookup_browsing</title>
<g id="a_node4"><a xlink:href="../../tables/lookup_browsing.html" xlink:title="lookup_browsing" target="_top">
<polygon fill="#ffffff" stroke="transparent" points="365.5,-148 365.5,-228 535.5,-228 535.5,-148 365.5,-148"/>
<polygon fill="#f5f5f5" stroke="transparent" points="365.5,-206 365.5,-228 535.5,-228 535.5,-206 365.5,-206"/>
<polygon fill="none" stroke="black" points="365.5,-206 365.5,-228 535.5,-228 535.5,-206 365.5,-206"/>
<text text-anchor="start" x="370.5" y="-215.2" font-family="Helvetica,sans-Serif" font-weight="bold" font-size="11.00">lookup_browsing</text>
<text text-anchor="start" x="493.5" y="-214.2" font-family="Helvetica,sans-Serif" font-size="11.00">[table]</text>
<polygon fill="#ffffff" stroke="transparent" points="365.5,-184 365.5,-206 535.5,-206 535.5,-184 365.5,-184"/>
<polygon fill="none" stroke="black" points="365.5,-184 365.5,-206 535.5,-206 535.5,-184 365.5,-184"/>
<text text-anchor="start" x="398.5" y="-192.2" font-family="Helvetica,sans-Serif" font-size="11.00">abbreviation</text>
<polygon fill="none" stroke="black" points="365.5,-166 365.5,-184 535.5,-184 535.5,-166 365.5,-166"/>
<text text-anchor="start" x="368.5" y="-172.2" font-family="Helvetica,sans-Serif" font-size="11.00">...</text>
<polygon fill="#ffffff" stroke="transparent" points="365.5,-148 365.5,-166 535.5,-166 535.5,-148 365.5,-148"/>
<polygon fill="none" stroke="black" points="365.5,-148 365.5,-166 535.5,-166 535.5,-148 365.5,-148"/>
<polygon fill="#ffffff" stroke="transparent" points="366.5,-149 366.5,-165 409.5,-165 409.5,-149 366.5,-149"/>
<text text-anchor="start" x="368.5" y="-154.2" font-family="Helvetica,sans-Serif" font-size="11.00"> &#160;</text>
<polygon fill="#ffffff" stroke="transparent" points="409.5,-149 409.5,-165 480.5,-165 480.5,-149 409.5,-149"/>
<text text-anchor="start" x="426.5" y="-154.2" font-family="Helvetica,sans-Serif" font-size="11.00">0 rows</text>
<polygon fill="#ffffff" stroke="transparent" points="480.5,-149 480.5,-165 534.5,-165 534.5,-149 480.5,-149"/>
<text text-anchor="start" x="512.5" y="-154.2" font-family="Helvetica,sans-Serif" font-size="11.00">1 &gt;</text>
<polygon fill="black" stroke="black" points="409.5,-149 409.5,-165 409.5,-165 409.5,-149 409.5,-149"/>
<polygon fill="black" stroke="black" points="480.5,-149 480.5,-165 480.5,-165 480.5,-149 480.5,-149"/>
</a>
</g>
</g>
<!-- regeneration&#45;&gt;lookup_browsing -->
<g id="edge2" class="edge">
<title>regeneration:w&#45;&gt;lookup_browsing:e</title>
<path fill="none" stroke="black" d="M592.32,-270.81C564.32,-256.03 577.73,-195 536.5,-195"/>
<polygon fill="black" stroke="black" points="598.7,-272.24 605.71,-277.51 602.6,-273.12 606.5,-274 606.5,-274 606.5,-274 602.6,-273.12 607.29,-270.49 598.7,-272.24 598.7,-272.24"/>
<ellipse fill="none" stroke="black" cx="595.57" cy="-271.54" rx="3.2" ry="3.2"/>
</g>
<!-- lookup_tree_size_class -->
<g id="node5" class="node">
<title>lookup_tree_size_class</title>
<g id="a_node5"><a xlink:href="../../tables/lookup_tree_size_class.html" xlink:title="lookup_tree_size_class" target="_top">
<polygon fill="#ffffff" stroke="transparent" points="345,-47 345,-127 556,-127 556,-47 345,-47"/>
<polygon fill="#f5f5f5" stroke="transparent" points="345.5,-105 345.5,-127 556.5,-127 556.5,-105 345.5,-105"/>
<polygon fill="none" stroke="black" points="345.5,-105 345.5,-127 556.5,-127 556.5,-105 345.5,-105"/>
<text text-anchor="start" x="350.5" y="-114.2" font-family="Helvetica,sans-Serif" font-weight="bold" font-size="11.00">lookup_tree_size_class</text>
<text text-anchor="start" x="514.5" y="-113.2" font-family="Helvetica,sans-Serif" font-size="11.00">[table]</text>
<polygon fill="#ffffff" stroke="transparent" points="345.5,-83 345.5,-105 556.5,-105 556.5,-83 345.5,-83"/>
<polygon fill="none" stroke="black" points="345.5,-83 345.5,-105 556.5,-105 556.5,-83 345.5,-83"/>
<text text-anchor="start" x="378.5" y="-91.2" font-family="Helvetica,sans-Serif" font-size="11.00">abbreviation</text>
<polygon fill="none" stroke="black" points="345.5,-65 345.5,-83 556.5,-83 556.5,-65 345.5,-65"/>
<text text-anchor="start" x="348.5" y="-71.2" font-family="Helvetica,sans-Serif" font-size="11.00">...</text>
<polygon fill="#ffffff" stroke="transparent" points="345.5,-47 345.5,-65 556.5,-65 556.5,-47 345.5,-47"/>
<polygon fill="none" stroke="black" points="345.5,-47 345.5,-65 556.5,-65 556.5,-47 345.5,-47"/>
<polygon fill="#ffffff" stroke="transparent" points="346.5,-48 346.5,-64 402.5,-64 402.5,-48 346.5,-48"/>
<text text-anchor="start" x="348.5" y="-53.2" font-family="Helvetica,sans-Serif" font-size="11.00"> &#160;</text>
<polygon fill="#ffffff" stroke="transparent" points="402.5,-48 402.5,-64 487.5,-64 487.5,-48 402.5,-48"/>
<text text-anchor="start" x="426.5" y="-53.2" font-family="Helvetica,sans-Serif" font-size="11.00">0 rows</text>
<polygon fill="#ffffff" stroke="transparent" points="487.5,-48 487.5,-64 555.5,-64 555.5,-48 487.5,-48"/>
<text text-anchor="start" x="533.5" y="-53.2" font-family="Helvetica,sans-Serif" font-size="11.00">1 &gt;</text>
<polygon fill="black" stroke="black" points="402.5,-48 402.5,-64 402.5,-64 402.5,-48 402.5,-48"/>
<polygon fill="black" stroke="black" points="487.5,-48 487.5,-64 487.5,-64 487.5,-48 487.5,-48"/>
</a>
</g>
</g>
<!-- regeneration&#45;&gt;lookup_tree_size_class -->
<g id="edge5" class="edge">
<title>regeneration:w&#45;&gt;lookup_tree_size_class:e</title>
<path fill="none" stroke="black" d="M592.25,-249.26C547.25,-228.28 625.28,-94 557.5,-94"/>
<polygon fill="black" stroke="black" points="598.64,-250.49 605.82,-255.54 602.57,-251.24 606.5,-252 606.5,-252 606.5,-252 602.57,-251.24 607.18,-248.46 598.64,-250.49 598.64,-250.49"/>
<ellipse fill="none" stroke="black" cx="595.5" cy="-249.88" rx="3.2" ry="3.2"/>
</g>
<!-- lookup_tree_species -->
<g id="node6" class="node">
<title>lookup_tree_species</title>
<g id="a_node6"><a xlink:href="../../tables/lookup_tree_species.html" xlink:title="lookup_tree_species" target="_top">
<polygon fill="#ffffff" stroke="transparent" points="353.5,-249 353.5,-329 547.5,-329 547.5,-249 353.5,-249"/>
<polygon fill="#f5f5f5" stroke="transparent" points="353.5,-307 353.5,-329 547.5,-329 547.5,-307 353.5,-307"/>
<polygon fill="none" stroke="black" points="353.5,-307 353.5,-329 547.5,-329 547.5,-307 353.5,-307"/>
<text text-anchor="start" x="358.5" y="-316.2" font-family="Helvetica,sans-Serif" font-weight="bold" font-size="11.00">lookup_tree_species</text>
<text text-anchor="start" x="505.5" y="-315.2" font-family="Helvetica,sans-Serif" font-size="11.00">[table]</text>
<polygon fill="#ffffff" stroke="transparent" points="353.5,-285 353.5,-307 547.5,-307 547.5,-285 353.5,-285"/>
<polygon fill="none" stroke="black" points="353.5,-285 353.5,-307 547.5,-307 547.5,-285 353.5,-285"/>
<text text-anchor="start" x="386.5" y="-293.2" font-family="Helvetica,sans-Serif" font-size="11.00">abbreviation</text>
<polygon fill="none" stroke="black" points="353.5,-267 353.5,-285 547.5,-285 547.5,-267 353.5,-267"/>
<text text-anchor="start" x="356.5" y="-273.2" font-family="Helvetica,sans-Serif" font-size="11.00">...</text>
<polygon fill="#ffffff" stroke="transparent" points="353.5,-249 353.5,-267 547.5,-267 547.5,-249 353.5,-249"/>
<polygon fill="none" stroke="black" points="353.5,-249 353.5,-267 547.5,-267 547.5,-249 353.5,-249"/>
<polygon fill="#ffffff" stroke="transparent" points="354.5,-250 354.5,-266 400.5,-266 400.5,-250 354.5,-250"/>
<text text-anchor="start" x="356.5" y="-255.2" font-family="Helvetica,sans-Serif" font-size="11.00"> &#160;</text>
<polygon fill="#ffffff" stroke="transparent" points="400.5,-250 400.5,-266 489.5,-266 489.5,-250 400.5,-250"/>
<text text-anchor="start" x="419.5" y="-255.2" font-family="Helvetica,sans-Serif" font-size="11.00">125 rows</text>
<polygon fill="#ffffff" stroke="transparent" points="489.5,-250 489.5,-266 546.5,-266 546.5,-250 489.5,-250"/>
<text text-anchor="start" x="524.5" y="-255.2" font-family="Helvetica,sans-Serif" font-size="11.00">3 &gt;</text>
<polygon fill="black" stroke="black" points="400.5,-250 400.5,-266 400.5,-266 400.5,-250 400.5,-250"/>
<polygon fill="black" stroke="black" points="489.5,-250 489.5,-266 489.5,-266 489.5,-250 489.5,-250"/>
</a>
</g>
</g>
<!-- regeneration&#45;&gt;lookup_tree_species -->
<g id="edge6" class="edge">
<title>regeneration:w&#45;&gt;lookup_tree_species:e</title>
<path fill="none" stroke="black" d="M591.95,-296C576.98,-296 568.64,-296 548.5,-296"/>
<polygon fill="black" stroke="black" points="598.5,-296 606.5,-299.6 602.5,-296 606.5,-296 606.5,-296 606.5,-296 602.5,-296 606.5,-292.4 598.5,-296 598.5,-296"/>
<ellipse fill="none" stroke="black" cx="595.3" cy="-296" rx="3.2" ry="3.2"/>
</g>
</g>
</svg>
