<?xml version="1.0" encoding="UTF-8" standalone="no"?>
<!DOCTYPE svg PUBLIC "-//W3C//DTD SVG 1.1//EN"
 "http://www.w3.org/Graphics/SVG/1.1/DTD/svg11.dtd">
<!-- Generated by graphviz version 2.43.0 (0)
 -->
<!-- Title: oneDegreeRelationshipsDiagram Pages: 1 -->
<svg width="1095pt" height="698pt"
 viewBox="0.00 0.00 1095.00 697.62" xmlns="http://www.w3.org/2000/svg" xmlns:xlink="http://www.w3.org/1999/xlink">
<g id="graph0" class="graph" transform="scale(1 1) rotate(0) translate(4 693.62)">
<title>oneDegreeRelationshipsDiagram</title>
<polygon fill="#ffffff" stroke="transparent" points="-4,4 -4,-693.62 1091,-693.62 1091,4 -4,4"/>
<text text-anchor="middle" x="79.5" y="-7.2" font-family="Helvetica,sans-Serif" font-size="11.00">Generated by SchemaSpy</text>
<!-- plot_location -->
<g id="node1" class="node">
<title>plot_location</title>
<g id="a_node1"><a xlink:href="../../tables/plot_location.html" xlink:title="plot_location" target="_top">
<polygon fill="#ffffff" stroke="transparent" points="343,-526 343,-650 484,-650 484,-526 343,-526"/>
<polygon fill="#f5f5f5" stroke="transparent" points="343.5,-628 343.5,-650 484.5,-650 484.5,-628 343.5,-628"/>
<polygon fill="none" stroke="black" points="343.5,-628 343.5,-650 484.5,-650 484.5,-628 343.5,-628"/>
<text text-anchor="start" x="348.5" y="-637.2" font-family="Helvetica,sans-Serif" font-weight="bold" font-size="11.00">plot_location</text>
<text text-anchor="start" x="442.5" y="-636.2" font-family="Helvetica,sans-Serif" font-size="11.00">[table]</text>
<polygon fill="none" stroke="black" points="343.5,-606 343.5,-628 484.5,-628 484.5,-606 343.5,-606"/>
<image xlink:href="../../images/primaryKeys.png" width="11px" height="12px" preserveAspectRatio="xMinYMin meet" x="348.5" y="-623"/>
<text text-anchor="start" x="376.5" y="-614.2" font-family="Helvetica,sans-Serif" font-size="11.00">id</text>
<polygon fill="#ffffff" stroke="transparent" points="343.5,-584 343.5,-606 484.5,-606 484.5,-584 343.5,-584"/>
<polygon fill="none" stroke="black" points="343.5,-584 343.5,-606 484.5,-606 484.5,-584 343.5,-584"/>
<image xlink:href="../../images/foreignKeys.png" width="11px" height="12px" preserveAspectRatio="xMinYMin meet" x="348.5" y="-601"/>
<text text-anchor="start" x="376.5" y="-592.2" font-family="Helvetica,sans-Serif" font-size="11.00">plot_id</text>
<polygon fill="#ffffff" stroke="transparent" points="343.5,-562 343.5,-584 484.5,-584 484.5,-562 343.5,-562"/>
<polygon fill="none" stroke="black" points="343.5,-562 343.5,-584 484.5,-584 484.5,-562 343.5,-562"/>
<text text-anchor="start" x="376.5" y="-570.2" font-family="Helvetica,sans-Serif" font-size="11.00">parent_table</text>
<polygon fill="none" stroke="black" points="343.5,-544 343.5,-562 484.5,-562 484.5,-544 343.5,-544"/>
<text text-anchor="start" x="346.5" y="-550.2" font-family="Helvetica,sans-Serif" font-size="11.00">...</text>
<polygon fill="#ffffff" stroke="transparent" points="343.5,-526 343.5,-544 484.5,-544 484.5,-526 343.5,-526"/>
<polygon fill="none" stroke="black" points="343.5,-526 343.5,-544 484.5,-544 484.5,-526 343.5,-526"/>
<polygon fill="#ffffff" stroke="transparent" points="344.5,-527 344.5,-543 380.5,-543 380.5,-527 344.5,-527"/>
<text text-anchor="start" x="346.5" y="-532.2" font-family="Helvetica,sans-Serif" font-size="11.00">&lt; 1</text>
<polygon fill="#ffffff" stroke="transparent" points="380.5,-527 380.5,-543 447.5,-543 447.5,-527 380.5,-527"/>
<text text-anchor="start" x="388.5" y="-532.2" font-family="Helvetica,sans-Serif" font-size="11.00">406 rows</text>
<polygon fill="#ffffff" stroke="transparent" points="447.5,-527 447.5,-543 483.5,-543 483.5,-527 447.5,-527"/>
<text text-anchor="start" x="461.5" y="-532.2" font-family="Helvetica,sans-Serif" font-size="11.00">3 &gt;</text>
<polygon fill="black" stroke="black" points="380.5,-527 380.5,-543 380.5,-543 380.5,-527 380.5,-527"/>
<polygon fill="black" stroke="black" points="447.5,-527 447.5,-543 447.5,-543 447.5,-527 447.5,-527"/>
</a>
</g>
</g>
<!-- plot -->
<g id="node2" class="node">
<title>plot</title>
<g id="a_node2"><a xlink:href="../../tables/plot.html" xlink:title="plot" target="_top">
<polygon fill="#ffffff" stroke="transparent" points="8,-37 8,-667 259,-667 259,-37 8,-37"/>
<polygon fill="#f5f5f5" stroke="transparent" points="8.5,-645 8.5,-667 259.5,-667 259.5,-645 8.5,-645"/>
<polygon fill="none" stroke="black" points="8.5,-645 8.5,-667 259.5,-667 259.5,-645 8.5,-645"/>
<text text-anchor="start" x="13" y="-654.2" font-family="Helvetica,sans-Serif" font-weight="bold" font-size="11.00">plot</text>
<text text-anchor="start" x="217.5" y="-653.2" font-family="Helvetica,sans-Serif" font-size="11.00">[table]</text>
<polygon fill="none" stroke="black" points="8.5,-623 8.5,-645 259.5,-645 259.5,-623 8.5,-623"/>
<image xlink:href="../../images/primaryKeys.png" width="11px" height="12px" preserveAspectRatio="xMinYMin meet" x="13.5" y="-640"/>
<text text-anchor="start" x="28.5" y="-631.2" font-family="Helvetica,sans-Serif" font-size="11.00">id</text>
<polygon fill="#ffffff" stroke="transparent" points="8.5,-601 8.5,-623 259.5,-623 259.5,-601 8.5,-601"/>
<polygon fill="none" stroke="black" points="8.5,-601 8.5,-623 259.5,-623 259.5,-601 8.5,-601"/>
<image xlink:href="../../images/foreignKeys.png" width="11px" height="12px" preserveAspectRatio="xMinYMin meet" x="13.5" y="-618"/>
<text text-anchor="start" x="28.5" y="-609.2" font-family="Helvetica,sans-Serif" font-size="11.00">cluster_id</text>
<polygon fill="#ffffff" stroke="transparent" points="8.5,-579 8.5,-601 259.5,-601 259.5,-579 8.5,-579"/>
<polygon fill="none" stroke="black" points="8.5,-579 8.5,-601 259.5,-601 259.5,-579 8.5,-579"/>
<text text-anchor="start" x="28.5" y="-587.2" font-family="Helvetica,sans-Serif" font-size="11.00">plot_name</text>
<polygon fill="none" stroke="black" points="8.5,-557 8.5,-579 259.5,-579 259.5,-557 8.5,-557"/>
<image xlink:href="../../images/foreignKeys.png" width="11px" height="12px" preserveAspectRatio="xMinYMin meet" x="13.5" y="-574"/>
<text text-anchor="start" x="28.5" y="-565.2" font-family="Helvetica,sans-Serif" font-size="11.00">sampling_strata</text>
<polygon fill="none" stroke="black" points="8.5,-535 8.5,-557 259.5,-557 259.5,-535 8.5,-535"/>
<image xlink:href="../../images/foreignKeys.png" width="11px" height="12px" preserveAspectRatio="xMinYMin meet" x="13.5" y="-552"/>
<text text-anchor="start" x="28.5" y="-543.2" font-family="Helvetica,sans-Serif" font-size="11.00">growth_district</text>
<polygon fill="none" stroke="black" points="8.5,-513 8.5,-535 259.5,-535 259.5,-513 8.5,-513"/>
<image xlink:href="../../images/foreignKeys.png" width="11px" height="12px" preserveAspectRatio="xMinYMin meet" x="13.5" y="-530"/>
<text text-anchor="start" x="28.5" y="-521.2" font-family="Helvetica,sans-Serif" font-size="11.00">forest_decision</text>
<polygon fill="none" stroke="black" points="8.5,-491 8.5,-513 259.5,-513 259.5,-491 8.5,-491"/>
<image xlink:href="../../images/foreignKeys.png" width="11px" height="12px" preserveAspectRatio="xMinYMin meet" x="13.5" y="-508"/>
<text text-anchor="start" x="28.5" y="-499.2" font-family="Helvetica,sans-Serif" font-size="11.00">forestry_department</text>
<polygon fill="none" stroke="black" points="8.5,-469 8.5,-491 259.5,-491 259.5,-469 8.5,-469"/>
<image xlink:href="../../images/foreignKeys.png" width="11px" height="12px" preserveAspectRatio="xMinYMin meet" x="13.5" y="-486"/>
<text text-anchor="start" x="28.5" y="-477.2" font-family="Helvetica,sans-Serif" font-size="11.00">height_layer_class</text>
<polygon fill="none" stroke="black" points="8.5,-447 8.5,-469 259.5,-469 259.5,-447 8.5,-447"/>
<image xlink:href="../../images/foreignKeys.png" width="11px" height="12px" preserveAspectRatio="xMinYMin meet" x="13.5" y="-464"/>
<text text-anchor="start" x="28.5" y="-455.2" font-family="Helvetica,sans-Serif" font-size="11.00">property_type</text>
<polygon fill="none" stroke="black" points="8.5,-425 8.5,-447 259.5,-447 259.5,-425 8.5,-425"/>
<image xlink:href="../../images/foreignKeys.png" width="11px" height="12px" preserveAspectRatio="xMinYMin meet" x="13.5" y="-442"/>
<text text-anchor="start" x="28.5" y="-433.2" font-family="Helvetica,sans-Serif" font-size="11.00">property_size_class</text>
<polygon fill="none" stroke="black" points="8.5,-403 8.5,-425 259.5,-425 259.5,-403 8.5,-403"/>
<image xlink:href="../../images/foreignKeys.png" width="11px" height="12px" preserveAspectRatio="xMinYMin meet" x="13.5" y="-420"/>
<text text-anchor="start" x="28.5" y="-411.2" font-family="Helvetica,sans-Serif" font-size="11.00">forest_type</text>
<polygon fill="none" stroke="black" points="8.5,-381 8.5,-403 259.5,-403 259.5,-381 8.5,-381"/>
<image xlink:href="../../images/foreignKeys.png" width="11px" height="12px" preserveAspectRatio="xMinYMin meet" x="13.5" y="-398"/>
<text text-anchor="start" x="28.5" y="-389.2" font-family="Helvetica,sans-Serif" font-size="11.00">habitat_type</text>
<polygon fill="none" stroke="black" points="8.5,-359 8.5,-381 259.5,-381 259.5,-359 8.5,-359"/>
<image xlink:href="../../images/foreignKeys.png" width="11px" height="12px" preserveAspectRatio="xMinYMin meet" x="13.5" y="-376"/>
<text text-anchor="start" x="28.5" y="-367.2" font-family="Helvetica,sans-Serif" font-size="11.00">habitat_type_source</text>
<polygon fill="none" stroke="black" points="8.5,-337 8.5,-359 259.5,-359 259.5,-337 8.5,-337"/>
<image xlink:href="../../images/foreignKeys.png" width="11px" height="12px" preserveAspectRatio="xMinYMin meet" x="13.5" y="-354"/>
<text text-anchor="start" x="28.5" y="-345.2" font-family="Helvetica,sans-Serif" font-size="11.00">use_restriction</text>
<polygon fill="none" stroke="black" points="8.5,-315 8.5,-337 259.5,-337 259.5,-315 8.5,-315"/>
<image xlink:href="../../images/foreignKeys.png" width="11px" height="12px" preserveAspectRatio="xMinYMin meet" x="13.5" y="-332"/>
<text text-anchor="start" x="28.5" y="-323.2" font-family="Helvetica,sans-Serif" font-size="11.00">land_use</text>
<polygon fill="none" stroke="black" points="8.5,-293 8.5,-315 259.5,-315 259.5,-293 8.5,-293"/>
<image xlink:href="../../images/foreignKeys.png" width="11px" height="12px" preserveAspectRatio="xMinYMin meet" x="13.5" y="-310"/>
<text text-anchor="start" x="28.5" y="-301.2" font-family="Helvetica,sans-Serif" font-size="11.00">marking_state</text>
<polygon fill="none" stroke="black" points="8.5,-271 8.5,-293 259.5,-293 259.5,-271 8.5,-271"/>
<image xlink:href="../../images/foreignKeys.png" width="11px" height="12px" preserveAspectRatio="xMinYMin meet" x="13.5" y="-288"/>
<text text-anchor="start" x="28.5" y="-279.2" font-family="Helvetica,sans-Serif" font-size="11.00">marking_profile</text>
<polygon fill="none" stroke="black" points="8.5,-249 8.5,-271 259.5,-271 259.5,-249 8.5,-249"/>
<image xlink:href="../../images/foreignKeys.png" width="11px" height="12px" preserveAspectRatio="xMinYMin meet" x="13.5" y="-266"/>
<text text-anchor="start" x="28.5" y="-257.2" font-family="Helvetica,sans-Serif" font-size="11.00">terrain_form</text>
<polygon fill="none" stroke="black" points="8.5,-227 8.5,-249 259.5,-249 259.5,-227 8.5,-227"/>
<image xlink:href="../../images/foreignKeys.png" width="11px" height="12px" preserveAspectRatio="xMinYMin meet" x="13.5" y="-244"/>
<text text-anchor="start" x="28.5" y="-235.2" font-family="Helvetica,sans-Serif" font-size="11.00">management_type</text>
<polygon fill="none" stroke="black" points="8.5,-205 8.5,-227 259.5,-227 259.5,-205 8.5,-205"/>
<image xlink:href="../../images/foreignKeys.png" width="11px" height="12px" preserveAspectRatio="xMinYMin meet" x="13.5" y="-222"/>
<text text-anchor="start" x="28.5" y="-213.2" font-family="Helvetica,sans-Serif" font-size="11.00">harvesting_method</text>
<polygon fill="none" stroke="black" points="8.5,-183 8.5,-205 259.5,-205 259.5,-183 8.5,-183"/>
<image xlink:href="../../images/foreignKeys.png" width="11px" height="12px" preserveAspectRatio="xMinYMin meet" x="13.5" y="-200"/>
<text text-anchor="start" x="28.5" y="-191.2" font-family="Helvetica,sans-Serif" font-size="11.00">layer_type</text>
<polygon fill="none" stroke="black" points="8.5,-161 8.5,-183 259.5,-183 259.5,-161 8.5,-161"/>
<image xlink:href="../../images/foreignKeys.png" width="11px" height="12px" preserveAspectRatio="xMinYMin meet" x="13.5" y="-178"/>
<text text-anchor="start" x="28.5" y="-169.2" font-family="Helvetica,sans-Serif" font-size="11.00">stand_phase</text>
<polygon fill="none" stroke="black" points="8.5,-139 8.5,-161 259.5,-161 259.5,-139 8.5,-139"/>
<image xlink:href="../../images/foreignKeys.png" width="11px" height="12px" preserveAspectRatio="xMinYMin meet" x="13.5" y="-156"/>
<text text-anchor="start" x="28.5" y="-147.2" font-family="Helvetica,sans-Serif" font-size="11.00">sablings_layer</text>
<polygon fill="none" stroke="black" points="8.5,-117 8.5,-139 259.5,-139 259.5,-117 8.5,-117"/>
<image xlink:href="../../images/foreignKeys.png" width="11px" height="12px" preserveAspectRatio="xMinYMin meet" x="13.5" y="-134"/>
<text text-anchor="start" x="28.5" y="-125.2" font-family="Helvetica,sans-Serif" font-size="11.00">trees_less_4meter_mirrored</text>
<polygon fill="none" stroke="black" points="8.5,-95 8.5,-117 259.5,-117 259.5,-95 8.5,-95"/>
<image xlink:href="../../images/foreignKeys.png" width="11px" height="12px" preserveAspectRatio="xMinYMin meet" x="13.5" y="-112"/>
<text text-anchor="start" x="28.5" y="-103.2" font-family="Helvetica,sans-Serif" font-size="11.00">trees_less_4meter_count_factor</text>
<polygon fill="none" stroke="black" points="8.5,-73 8.5,-95 259.5,-95 259.5,-73 8.5,-73"/>
<image xlink:href="../../images/foreignKeys.png" width="11px" height="12px" preserveAspectRatio="xMinYMin meet" x="13.5" y="-90"/>
<text text-anchor="start" x="28.5" y="-81.2" font-family="Helvetica,sans-Serif" font-size="11.00">trees_less_4meter_layer</text>
<polygon fill="none" stroke="black" points="8.5,-55 8.5,-73 259.5,-73 259.5,-55 8.5,-55"/>
<text text-anchor="start" x="11.5" y="-61.2" font-family="Helvetica,sans-Serif" font-size="11.00">...</text>
<polygon fill="#ffffff" stroke="transparent" points="8.5,-37 8.5,-55 259.5,-55 259.5,-37 8.5,-37"/>
<polygon fill="none" stroke="black" points="8.5,-37 8.5,-55 259.5,-55 259.5,-37 8.5,-37"/>
<polygon fill="#ffffff" stroke="transparent" points="9.5,-38 9.5,-54 89.5,-54 89.5,-38 9.5,-38"/>
<text text-anchor="start" x="11.5" y="-43.2" font-family="Helvetica,sans-Serif" font-size="11.00">&lt; 24</text>
<polygon fill="#ffffff" stroke="transparent" points="89.5,-38 89.5,-54 186.5,-54 186.5,-38 89.5,-38"/>
<text text-anchor="start" x="116" y="-43.2" font-family="Helvetica,sans-Serif" font-size="11.00">82 rows</text>
<polygon fill="#ffffff" stroke="transparent" points="186.5,-38 186.5,-54 258.5,-54 258.5,-38 186.5,-38"/>
<text text-anchor="start" x="236.5" y="-43.2" font-family="Helvetica,sans-Serif" font-size="11.00">7 &gt;</text>
<polygon fill="black" stroke="black" points="89.5,-38 89.5,-54 89.5,-54 89.5,-38 89.5,-38"/>
<polygon fill="black" stroke="black" points="186.5,-38 186.5,-54 186.5,-54 186.5,-38 186.5,-38"/>
</a>
</g>
</g>
<!-- plot_location&#45;&gt;plot -->
<g id="edge1" class="edge">
<title>plot_location:w&#45;&gt;plot:e</title>
<path fill="none" stroke="black" d="M327.94,-596.99C301.06,-604.94 295.34,-634 260.5,-634"/>
<polygon fill="black" stroke="black" points="334.57,-596.08 342.99,-598.57 338.54,-595.54 342.5,-595 342.5,-595 342.5,-595 338.54,-595.54 342.01,-591.43 334.57,-596.08 334.57,-596.08"/>
<ellipse fill="none" stroke="black" cx="331.4" cy="-596.51" rx="3.2" ry="3.2"/>
</g>
<!-- sapling_2m -->
<g id="node3" class="node">
<title>sapling_2m</title>
<g id="a_node3"><a xlink:href="../../tables/sapling_2m.html" xlink:title="sapling_2m" target="_top">
<polygon fill="#ffffff" stroke="transparent" points="568,-331 568,-661 1079,-661 1079,-331 568,-331"/>
<polygon fill="#f5f5f5" stroke="transparent" points="570.5,-637 570.5,-659 1077.5,-659 1077.5,-637 570.5,-637"/>
<polygon fill="none" stroke="black" points="570.5,-637 570.5,-659 1077.5,-659 1077.5,-637 570.5,-637"/>
<text text-anchor="start" x="575.5" y="-646.2" font-family="Helvetica,sans-Serif" font-weight="bold" font-size="11.00">sapling_2m</text>
<text text-anchor="start" x="1035.5" y="-645.2" font-family="Helvetica,sans-Serif" font-size="11.00">[table]</text>
<polygon fill="none" stroke="black" points="570.5,-615 570.5,-637 745.5,-637 745.5,-615 570.5,-615"/>
<image xlink:href="../../images/primaryKeys.png" width="11px" height="12px" preserveAspectRatio="xMinYMin meet" x="575.5" y="-632"/>
<text text-anchor="start" x="590.5" y="-623.2" font-family="Helvetica,sans-Serif" font-size="11.00">id</text>
<polygon fill="none" stroke="black" points="745.5,-615 745.5,-637 1077.5,-637 1077.5,-615 745.5,-615"/>
<text text-anchor="start" x="748.5" y="-623.2" font-family="Helvetica,sans-Serif" font-size="11.00">serial[10]</text>
<polygon fill="none" stroke="black" points="570.5,-593 570.5,-615 745.5,-615 745.5,-593 570.5,-593"/>
<image xlink:href="../../images/foreignKeys.png" width="11px" height="12px" preserveAspectRatio="xMinYMin meet" x="575.5" y="-610"/>
<text text-anchor="start" x="590.5" y="-601.2" font-family="Helvetica,sans-Serif" font-size="11.00">plot_id</text>
<polygon fill="none" stroke="black" points="745.5,-593 745.5,-615 1077.5,-615 1077.5,-593 745.5,-593"/>
<text text-anchor="start" x="748.5" y="-601.2" font-family="Helvetica,sans-Serif" font-size="11.00">int4[10]</text>
<polygon fill="none" stroke="black" points="570.5,-571 570.5,-593 745.5,-593 745.5,-571 570.5,-571"/>
<image xlink:href="../../images/foreignKeys.png" width="11px" height="12px" preserveAspectRatio="xMinYMin meet" x="575.5" y="-588"/>
<text text-anchor="start" x="590.5" y="-579.2" font-family="Helvetica,sans-Serif" font-size="11.00">plot_location_id</text>
<polygon fill="none" stroke="black" points="745.5,-571 745.5,-593 1077.5,-593 1077.5,-571 745.5,-571"/>
<text text-anchor="start" x="748.5" y="-579.2" font-family="Helvetica,sans-Serif" font-size="11.00">int4[10]</text>
<polygon fill="none" stroke="black" points="570.5,-549 570.5,-571 745.5,-571 745.5,-549 570.5,-549"/>
<text text-anchor="start" x="590.5" y="-557.2" font-family="Helvetica,sans-Serif" font-size="11.00">created_at</text>
<polygon fill="none" stroke="black" points="745.5,-549 745.5,-571 1077.5,-571 1077.5,-549 745.5,-549"/>
<text text-anchor="start" x="748.5" y="-557.2" font-family="Helvetica,sans-Serif" font-size="11.00">timestamp[29,6]</text>
<polygon fill="none" stroke="black" points="570.5,-527 570.5,-549 745.5,-549 745.5,-527 570.5,-527"/>
<text text-anchor="start" x="590.5" y="-535.2" font-family="Helvetica,sans-Serif" font-size="11.00">modified_at</text>
<polygon fill="none" stroke="black" points="745.5,-527 745.5,-549 1077.5,-549 1077.5,-527 745.5,-527"/>
<text text-anchor="start" x="748.5" y="-535.2" font-family="Helvetica,sans-Serif" font-size="11.00">timestamp[29,6]</text>
<polygon fill="none" stroke="black" points="570.5,-505 570.5,-527 745.5,-527 745.5,-505 570.5,-505"/>
<text text-anchor="start" x="590.5" y="-513.2" font-family="Helvetica,sans-Serif" font-size="11.00">modified_by</text>
<polygon fill="none" stroke="black" points="745.5,-505 745.5,-527 1077.5,-527 1077.5,-505 745.5,-505"/>
<text text-anchor="start" x="748.5" y="-513.2" font-family="Helvetica,sans-Serif" font-size="11.00">regrole[2147483647]</text>
<polygon fill="none" stroke="black" points="570.5,-483 570.5,-505 745.5,-505 745.5,-483 570.5,-483"/>
<text text-anchor="start" x="590.5" y="-491.2" font-family="Helvetica,sans-Serif" font-size="11.00">stand_affiliation</text>
<polygon fill="none" stroke="black" points="745.5,-483 745.5,-505 1077.5,-505 1077.5,-483 745.5,-483"/>
<text text-anchor="start" x="748.5" y="-491.2" font-family="Helvetica,sans-Serif" font-size="11.00">bool[1]</text>
<polygon fill="none" stroke="black" points="570.5,-461 570.5,-483 745.5,-483 745.5,-461 570.5,-461"/>
<image xlink:href="../../images/foreignKeys.png" width="11px" height="12px" preserveAspectRatio="xMinYMin meet" x="575.5" y="-478"/>
<text text-anchor="start" x="590.5" y="-469.2" font-family="Helvetica,sans-Serif" font-size="11.00">tree_species</text>
<polygon fill="none" stroke="black" points="745.5,-461 745.5,-483 1077.5,-483 1077.5,-461 745.5,-461"/>
<text text-anchor="start" x="748.5" y="-469.2" font-family="Helvetica,sans-Serif" font-size="11.00">int2[5]</text>
<polygon fill="none" stroke="black" points="570.5,-439 570.5,-461 745.5,-461 745.5,-439 570.5,-439"/>
<image xlink:href="../../images/foreignKeys.png" width="11px" height="12px" preserveAspectRatio="xMinYMin meet" x="575.5" y="-456"/>
<text text-anchor="start" x="590.5" y="-447.2" font-family="Helvetica,sans-Serif" font-size="11.00">bitten</text>
<polygon fill="none" stroke="black" points="745.5,-439 745.5,-461 1077.5,-461 1077.5,-439 745.5,-439"/>
<text text-anchor="start" x="748.5" y="-447.2" font-family="Helvetica,sans-Serif" font-size="11.00">&quot;private_ci2027_001&quot;.&quot;enum_bitten&quot;[2147483647]</text>
<polygon fill="none" stroke="black" points="570.5,-417 570.5,-439 745.5,-439 745.5,-417 570.5,-417"/>
<image xlink:href="../../images/foreignKeys.png" width="11px" height="12px" preserveAspectRatio="xMinYMin meet" x="575.5" y="-434"/>
<text text-anchor="start" x="590.5" y="-425.2" font-family="Helvetica,sans-Serif" font-size="11.00">tree_size_class</text>
<polygon fill="none" stroke="black" points="745.5,-417 745.5,-439 1077.5,-439 1077.5,-417 745.5,-417"/>
<text text-anchor="start" x="748.5" y="-425.2" font-family="Helvetica,sans-Serif" font-size="11.00">&quot;private_ci2027_001&quot;.&quot;enum_tree_size_class&quot;[2147483647]</text>
<polygon fill="none" stroke="black" points="570.5,-395 570.5,-417 745.5,-417 745.5,-395 570.5,-395"/>
<text text-anchor="start" x="590.5" y="-403.2" font-family="Helvetica,sans-Serif" font-size="11.00">damage_peel</text>
<polygon fill="none" stroke="black" points="745.5,-395 745.5,-417 1077.5,-417 1077.5,-395 745.5,-395"/>
<text text-anchor="start" x="748.5" y="-403.2" font-family="Helvetica,sans-Serif" font-size="11.00">int2[5]</text>
<polygon fill="none" stroke="black" points="570.5,-373 570.5,-395 745.5,-395 745.5,-373 570.5,-373"/>
<text text-anchor="start" x="590.5" y="-381.2" font-family="Helvetica,sans-Serif" font-size="11.00">protection_individual</text>
<polygon fill="none" stroke="black" points="745.5,-373 745.5,-395 1077.5,-395 1077.5,-373 745.5,-373"/>
<text text-anchor="start" x="748.5" y="-381.2" font-family="Helvetica,sans-Serif" font-size="11.00">bool[1]</text>
<polygon fill="none" stroke="black" points="570.5,-351 570.5,-373 745.5,-373 745.5,-351 570.5,-351"/>
<text text-anchor="start" x="590.5" y="-359.2" font-family="Helvetica,sans-Serif" font-size="11.00">quantity</text>
<polygon fill="none" stroke="black" points="745.5,-351 745.5,-373 1077.5,-373 1077.5,-351 745.5,-351"/>
<text text-anchor="start" x="748.5" y="-359.2" font-family="Helvetica,sans-Serif" font-size="11.00">int2[5]</text>
<polygon fill="#ffffff" stroke="transparent" points="570.5,-333 570.5,-351 1077.5,-351 1077.5,-333 570.5,-333"/>
<polygon fill="none" stroke="black" points="570.5,-333 570.5,-351 1077.5,-351 1077.5,-333 570.5,-333"/>
<polygon fill="#ffffff" stroke="transparent" points="571.5,-334 571.5,-350 734.5,-350 734.5,-334 571.5,-334"/>
<text text-anchor="start" x="573.5" y="-339.2" font-family="Helvetica,sans-Serif" font-size="11.00">&lt; 5</text>
<polygon fill="#ffffff" stroke="transparent" points="734.5,-334 734.5,-350 914.5,-350 914.5,-334 734.5,-334"/>
<text text-anchor="start" x="806" y="-339.2" font-family="Helvetica,sans-Serif" font-size="11.00">0 rows</text>
<polygon fill="#ffffff" stroke="transparent" points="914.5,-334 914.5,-350 1076.5,-350 1076.5,-334 914.5,-334"/>
<text text-anchor="start" x="1054.5" y="-339.2" font-family="Helvetica,sans-Serif" font-size="11.00">0 &gt;</text>
<polygon fill="black" stroke="black" points="734.5,-334 734.5,-350 734.5,-350 734.5,-334 734.5,-334"/>
<polygon fill="black" stroke="black" points="914.5,-334 914.5,-350 914.5,-350 914.5,-334 914.5,-334"/>
<polygon fill="none" stroke="black" stroke-width="2" points="569,-332 569,-660 1078,-660 1078,-332 569,-332"/>
</a>
</g>
</g>
<!-- sapling_2m&#45;&gt;plot_location -->
<g id="edge4" class="edge">
<title>sapling_2m:w&#45;&gt;plot_location:e</title>
<path fill="none" stroke="black" d="M555.19,-583.69C527.57,-590.68 520.57,-617 485.5,-617"/>
<polygon fill="black" stroke="black" points="561.56,-582.94 569.92,-585.58 565.53,-582.47 569.5,-582 569.5,-582 569.5,-582 565.53,-582.47 569.08,-578.42 561.56,-582.94 561.56,-582.94"/>
<ellipse fill="none" stroke="black" cx="558.38" cy="-583.31" rx="3.2" ry="3.2"/>
</g>
<!-- sapling_2m&#45;&gt;plot -->
<g id="edge3" class="edge">
<title>sapling_2m:w&#45;&gt;plot:e</title>
<path fill="none" stroke="black" d="M555.51,-608.7C543.07,-620.22 549.51,-649.71 527,-661 436.83,-706.25 396.39,-690.8 300,-661 279.68,-654.72 281.76,-634 260.5,-634"/>
<polygon fill="black" stroke="black" points="561.92,-606.55 570.65,-607.41 565.71,-605.27 569.5,-604 569.5,-604 569.5,-604 565.71,-605.27 568.35,-600.59 561.92,-606.55 561.92,-606.55"/>
<ellipse fill="none" stroke="black" cx="558.88" cy="-607.57" rx="3.2" ry="3.2"/>
</g>
<!-- lookup_bitten -->
<g id="node4" class="node">
<title>lookup_bitten</title>
<g id="a_node4"><a xlink:href="../../tables/lookup_bitten.html" xlink:title="lookup_bitten" target="_top">
<polygon fill="#ffffff" stroke="transparent" points="340,-324 340,-404 487,-404 487,-324 340,-324"/>
<polygon fill="#f5f5f5" stroke="transparent" points="340.5,-382 340.5,-404 487.5,-404 487.5,-382 340.5,-382"/>
<polygon fill="none" stroke="black" points="340.5,-382 340.5,-404 487.5,-404 487.5,-382 340.5,-382"/>
<text text-anchor="start" x="345.5" y="-391.2" font-family="Helvetica,sans-Serif" font-weight="bold" font-size="11.00">lookup_bitten</text>
<text text-anchor="start" x="445.5" y="-390.2" font-family="Helvetica,sans-Serif" font-size="11.00">[table]</text>
<polygon fill="#ffffff" stroke="transparent" points="340.5,-360 340.5,-382 487.5,-382 487.5,-360 340.5,-360"/>
<polygon fill="none" stroke="black" points="340.5,-360 340.5,-382 487.5,-382 487.5,-360 340.5,-360"/>
<text text-anchor="start" x="373.5" y="-368.2" font-family="Helvetica,sans-Serif" font-size="11.00">abbreviation</text>
<polygon fill="none" stroke="black" points="340.5,-342 340.5,-360 487.5,-360 487.5,-342 340.5,-342"/>
<text text-anchor="start" x="343.5" y="-348.2" font-family="Helvetica,sans-Serif" font-size="11.00">...</text>
<polygon fill="#ffffff" stroke="transparent" points="340.5,-324 340.5,-342 487.5,-342 487.5,-324 340.5,-324"/>
<polygon fill="none" stroke="black" points="340.5,-324 340.5,-342 487.5,-342 487.5,-324 340.5,-324"/>
<polygon fill="#ffffff" stroke="transparent" points="341.5,-325 341.5,-341 376.5,-341 376.5,-325 341.5,-325"/>
<text text-anchor="start" x="343.5" y="-330.2" font-family="Helvetica,sans-Serif" font-size="11.00"> &#160;</text>
<polygon fill="#ffffff" stroke="transparent" points="376.5,-325 376.5,-341 440.5,-341 440.5,-325 376.5,-325"/>
<text text-anchor="start" x="390" y="-330.2" font-family="Helvetica,sans-Serif" font-size="11.00">0 rows</text>
<polygon fill="#ffffff" stroke="transparent" points="440.5,-325 440.5,-341 486.5,-341 486.5,-325 440.5,-325"/>
<text text-anchor="start" x="464.5" y="-330.2" font-family="Helvetica,sans-Serif" font-size="11.00">2 &gt;</text>
<polygon fill="black" stroke="black" points="376.5,-325 376.5,-341 376.5,-341 376.5,-325 376.5,-325"/>
<polygon fill="black" stroke="black" points="440.5,-325 440.5,-341 440.5,-341 440.5,-325 440.5,-325"/>
</a>
</g>
</g>
<!-- sapling_2m&#45;&gt;lookup_bitten -->
<g id="edge2" class="edge">
<title>sapling_2m:w&#45;&gt;lookup_bitten:e</title>
<path fill="none" stroke="black" d="M555.32,-447.37C522.66,-433.66 533.29,-371 488.5,-371"/>
<polygon fill="black" stroke="black" points="561.63,-448.54 568.84,-453.54 565.57,-449.27 569.5,-450 569.5,-450 569.5,-450 565.57,-449.27 570.16,-446.46 561.63,-448.54 561.63,-448.54"/>
<ellipse fill="none" stroke="black" cx="558.49" cy="-447.96" rx="3.2" ry="3.2"/>
</g>
<!-- lookup_tree_size_class -->
<g id="node5" class="node">
<title>lookup_tree_size_class</title>
<g id="a_node5"><a xlink:href="../../tables/lookup_tree_size_class.html" xlink:title="lookup_tree_size_class" target="_top">
<polygon fill="#ffffff" stroke="transparent" points="308,-223 308,-303 519,-303 519,-223 308,-223"/>
<polygon fill="#f5f5f5" stroke="transparent" points="308.5,-281 308.5,-303 519.5,-303 519.5,-281 308.5,-281"/>
<polygon fill="none" stroke="black" points="308.5,-281 308.5,-303 519.5,-303 519.5,-281 308.5,-281"/>
<text text-anchor="start" x="313.5" y="-290.2" font-family="Helvetica,sans-Serif" font-weight="bold" font-size="11.00">lookup_tree_size_class</text>
<text text-anchor="start" x="477.5" y="-289.2" font-family="Helvetica,sans-Serif" font-size="11.00">[table]</text>
<polygon fill="#ffffff" stroke="transparent" points="308.5,-259 308.5,-281 519.5,-281 519.5,-259 308.5,-259"/>
<polygon fill="none" stroke="black" points="308.5,-259 308.5,-281 519.5,-281 519.5,-259 308.5,-259"/>
<text text-anchor="start" x="341.5" y="-267.2" font-family="Helvetica,sans-Serif" font-size="11.00">abbreviation</text>
<polygon fill="none" stroke="black" points="308.5,-241 308.5,-259 519.5,-259 519.5,-241 308.5,-241"/>
<text text-anchor="start" x="311.5" y="-247.2" font-family="Helvetica,sans-Serif" font-size="11.00">...</text>
<polygon fill="#ffffff" stroke="transparent" points="308.5,-223 308.5,-241 519.5,-241 519.5,-223 308.5,-223"/>
<polygon fill="none" stroke="black" points="308.5,-223 308.5,-241 519.5,-241 519.5,-223 308.5,-223"/>
<polygon fill="#ffffff" stroke="transparent" points="309.5,-224 309.5,-240 365.5,-240 365.5,-224 309.5,-224"/>
<text text-anchor="start" x="311.5" y="-229.2" font-family="Helvetica,sans-Serif" font-size="11.00"> &#160;</text>
<polygon fill="#ffffff" stroke="transparent" points="365.5,-224 365.5,-240 450.5,-240 450.5,-224 365.5,-224"/>
<text text-anchor="start" x="389.5" y="-229.2" font-family="Helvetica,sans-Serif" font-size="11.00">0 rows</text>
<polygon fill="#ffffff" stroke="transparent" points="450.5,-224 450.5,-240 518.5,-240 518.5,-224 450.5,-224"/>
<text text-anchor="start" x="496.5" y="-229.2" font-family="Helvetica,sans-Serif" font-size="11.00">1 &gt;</text>
<polygon fill="black" stroke="black" points="365.5,-224 365.5,-240 365.5,-240 365.5,-224 365.5,-224"/>
<polygon fill="black" stroke="black" points="450.5,-224 450.5,-240 450.5,-240 450.5,-224 450.5,-224"/>
</a>
</g>
</g>
<!-- sapling_2m&#45;&gt;lookup_tree_size_class -->
<g id="edge5" class="edge">
<title>sapling_2m:w&#45;&gt;lookup_tree_size_class:e</title>
<path fill="none" stroke="black" d="M555.25,-425.26C510.25,-404.28 588.28,-270 520.5,-270"/>
<polygon fill="black" stroke="black" points="561.64,-426.49 568.82,-431.54 565.57,-427.24 569.5,-428 569.5,-428 569.5,-428 565.57,-427.24 570.18,-424.46 561.64,-426.49 561.64,-426.49"/>
<ellipse fill="none" stroke="black" cx="558.5" cy="-425.88" rx="3.2" ry="3.2"/>
</g>
<!-- lookup_tree_species -->
<g id="node6" class="node">
<title>lookup_tree_species</title>
<g id="a_node6"><a xlink:href="../../tables/lookup_tree_species.html" xlink:title="lookup_tree_species" target="_top">
<polygon fill="#ffffff" stroke="transparent" points="316.5,-425 316.5,-505 510.5,-505 510.5,-425 316.5,-425"/>
<polygon fill="#f5f5f5" stroke="transparent" points="316.5,-483 316.5,-505 510.5,-505 510.5,-483 316.5,-483"/>
<polygon fill="none" stroke="black" points="316.5,-483 316.5,-505 510.5,-505 510.5,-483 316.5,-483"/>
<text text-anchor="start" x="321.5" y="-492.2" font-family="Helvetica,sans-Serif" font-weight="bold" font-size="11.00">lookup_tree_species</text>
<text text-anchor="start" x="468.5" y="-491.2" font-family="Helvetica,sans-Serif" font-size="11.00">[table]</text>
<polygon fill="#ffffff" stroke="transparent" points="316.5,-461 316.5,-483 510.5,-483 510.5,-461 316.5,-461"/>
<polygon fill="none" stroke="black" points="316.5,-461 316.5,-483 510.5,-483 510.5,-461 316.5,-461"/>
<text text-anchor="start" x="349.5" y="-469.2" font-family="Helvetica,sans-Serif" font-size="11.00">abbreviation</text>
<polygon fill="none" stroke="black" points="316.5,-443 316.5,-461 510.5,-461 510.5,-443 316.5,-443"/>
<text text-anchor="start" x="319.5" y="-449.2" font-family="Helvetica,sans-Serif" font-size="11.00">...</text>
<polygon fill="#ffffff" stroke="transparent" points="316.5,-425 316.5,-443 510.5,-443 510.5,-425 316.5,-425"/>
<polygon fill="none" stroke="black" points="316.5,-425 316.5,-443 510.5,-443 510.5,-425 316.5,-425"/>
<polygon fill="#ffffff" stroke="transparent" points="317.5,-426 317.5,-442 363.5,-442 363.5,-426 317.5,-426"/>
<text text-anchor="start" x="319.5" y="-431.2" font-family="Helvetica,sans-Serif" font-size="11.00"> &#160;</text>
<polygon fill="#ffffff" stroke="transparent" points="363.5,-426 363.5,-442 452.5,-442 452.5,-426 363.5,-426"/>
<text text-anchor="start" x="382.5" y="-431.2" font-family="Helvetica,sans-Serif" font-size="11.00">125 rows</text>
<polygon fill="#ffffff" stroke="transparent" points="452.5,-426 452.5,-442 509.5,-442 509.5,-426 452.5,-426"/>
<text text-anchor="start" x="487.5" y="-431.2" font-family="Helvetica,sans-Serif" font-size="11.00">3 &gt;</text>
<polygon fill="black" stroke="black" points="363.5,-426 363.5,-442 363.5,-442 363.5,-426 363.5,-426"/>
<polygon fill="black" stroke="black" points="452.5,-426 452.5,-442 452.5,-442 452.5,-426 452.5,-426"/>
</a>
</g>
</g>
<!-- sapling_2m&#45;&gt;lookup_tree_species -->
<g id="edge6" class="edge">
<title>sapling_2m:w&#45;&gt;lookup_tree_species:e</title>
<path fill="none" stroke="black" d="M554.95,-472C539.98,-472 531.64,-472 511.5,-472"/>
<polygon fill="black" stroke="black" points="561.5,-472 569.5,-475.6 565.5,-472 569.5,-472 569.5,-472 569.5,-472 565.5,-472 569.5,-468.4 561.5,-472 561.5,-472"/>
<ellipse fill="none" stroke="black" cx="558.3" cy="-472" rx="3.2" ry="3.2"/>
</g>
</g>
</svg>
