<?xml version="1.0" encoding="UTF-8" standalone="no"?>
<!DOCTYPE svg PUBLIC "-//W3C//DTD SVG 1.1//EN"
 "http://www.w3.org/Graphics/SVG/1.1/DTD/svg11.dtd">
<!-- Generated by graphviz version 2.43.0 (0)
 -->
<!-- Title: oneDegreeRelationshipsDiagram Pages: 1 -->
<svg width="1028pt" height="692pt"
 viewBox="0.00 0.00 1028.00 692.45" xmlns="http://www.w3.org/2000/svg" xmlns:xlink="http://www.w3.org/1999/xlink">
<g id="graph0" class="graph" transform="scale(1 1) rotate(0) translate(4 688.45)">
<title>oneDegreeRelationshipsDiagram</title>
<polygon fill="#ffffff" stroke="transparent" points="-4,4 -4,-688.45 1024,-688.45 1024,4 -4,4"/>
<text text-anchor="middle" x="79.5" y="-7.2" font-family="Helvetica,sans-Serif" font-size="11.00">Generated by SchemaSpy</text>
<!-- plot_location -->
<g id="node1" class="node">
<title>plot_location</title>
<g id="a_node1"><a xlink:href="../../tables/plot_location.html" xlink:title="plot_location" target="_top">
<polygon fill="#ffffff" stroke="transparent" points="334.5,-526 334.5,-650 475.5,-650 475.5,-526 334.5,-526"/>
<polygon fill="#f5f5f5" stroke="transparent" points="335,-628 335,-650 476,-650 476,-628 335,-628"/>
<polygon fill="none" stroke="black" points="335,-628 335,-650 476,-650 476,-628 335,-628"/>
<text text-anchor="start" x="340" y="-637.2" font-family="Helvetica,sans-Serif" font-weight="bold" font-size="11.00">plot_location</text>
<text text-anchor="start" x="434" y="-636.2" font-family="Helvetica,sans-Serif" font-size="11.00">[table]</text>
<polygon fill="none" stroke="black" points="335,-606 335,-628 476,-628 476,-606 335,-606"/>
<image xlink:href="../../images/primaryKeys.png" width="11px" height="12px" preserveAspectRatio="xMinYMin meet" x="340" y="-623"/>
<text text-anchor="start" x="368" y="-614.2" font-family="Helvetica,sans-Serif" font-size="11.00">id</text>
<polygon fill="#ffffff" stroke="transparent" points="335,-584 335,-606 476,-606 476,-584 335,-584"/>
<polygon fill="none" stroke="black" points="335,-584 335,-606 476,-606 476,-584 335,-584"/>
<image xlink:href="../../images/foreignKeys.png" width="11px" height="12px" preserveAspectRatio="xMinYMin meet" x="340" y="-601"/>
<text text-anchor="start" x="368" y="-592.2" font-family="Helvetica,sans-Serif" font-size="11.00">plot_id</text>
<polygon fill="#ffffff" stroke="transparent" points="335,-562 335,-584 476,-584 476,-562 335,-562"/>
<polygon fill="none" stroke="black" points="335,-562 335,-584 476,-584 476,-562 335,-562"/>
<text text-anchor="start" x="368" y="-570.2" font-family="Helvetica,sans-Serif" font-size="11.00">parent_table</text>
<polygon fill="none" stroke="black" points="335,-544 335,-562 476,-562 476,-544 335,-544"/>
<text text-anchor="start" x="338" y="-550.2" font-family="Helvetica,sans-Serif" font-size="11.00">...</text>
<polygon fill="#ffffff" stroke="transparent" points="335,-526 335,-544 476,-544 476,-526 335,-526"/>
<polygon fill="none" stroke="black" points="335,-526 335,-544 476,-544 476,-526 335,-526"/>
<polygon fill="#ffffff" stroke="transparent" points="336,-527 336,-543 372,-543 372,-527 336,-527"/>
<text text-anchor="start" x="338" y="-532.2" font-family="Helvetica,sans-Serif" font-size="11.00">&lt; 1</text>
<polygon fill="#ffffff" stroke="transparent" points="372,-527 372,-543 439,-543 439,-527 372,-527"/>
<text text-anchor="start" x="380" y="-532.2" font-family="Helvetica,sans-Serif" font-size="11.00">406 rows</text>
<polygon fill="#ffffff" stroke="transparent" points="439,-527 439,-543 475,-543 475,-527 439,-527"/>
<text text-anchor="start" x="453" y="-532.2" font-family="Helvetica,sans-Serif" font-size="11.00">3 &gt;</text>
<polygon fill="black" stroke="black" points="372,-527 372,-543 372,-543 372,-527 372,-527"/>
<polygon fill="black" stroke="black" points="439,-527 439,-543 439,-543 439,-527 439,-527"/>
</a>
</g>
</g>
<!-- plot -->
<g id="node2" class="node">
<title>plot</title>
<g id="a_node2"><a xlink:href="../../tables/plot.html" xlink:title="plot" target="_top">
<polygon fill="#ffffff" stroke="transparent" points="8,-37 8,-667 259,-667 259,-37 8,-37"/>
<polygon fill="#f5f5f5" stroke="transparent" points="8.5,-645 8.5,-667 259.5,-667 259.5,-645 8.5,-645"/>
<polygon fill="none" stroke="black" points="8.5,-645 8.5,-667 259.5,-667 259.5,-645 8.5,-645"/>
<text text-anchor="start" x="13" y="-654.2" font-family="Helvetica,sans-Serif" font-weight="bold" font-size="11.00">plot</text>
<text text-anchor="start" x="217.5" y="-653.2" font-family="Helvetica,sans-Serif" font-size="11.00">[table]</text>
<polygon fill="none" stroke="black" points="8.5,-623 8.5,-645 259.5,-645 259.5,-623 8.5,-623"/>
<image xlink:href="../../images/primaryKeys.png" width="11px" height="12px" preserveAspectRatio="xMinYMin meet" x="13.5" y="-640"/>
<text text-anchor="start" x="28.5" y="-631.2" font-family="Helvetica,sans-Serif" font-size="11.00">id</text>
<polygon fill="#ffffff" stroke="transparent" points="8.5,-601 8.5,-623 259.5,-623 259.5,-601 8.5,-601"/>
<polygon fill="none" stroke="black" points="8.5,-601 8.5,-623 259.5,-623 259.5,-601 8.5,-601"/>
<image xlink:href="../../images/foreignKeys.png" width="11px" height="12px" preserveAspectRatio="xMinYMin meet" x="13.5" y="-618"/>
<text text-anchor="start" x="28.5" y="-609.2" font-family="Helvetica,sans-Serif" font-size="11.00">cluster_id</text>
<polygon fill="#ffffff" stroke="transparent" points="8.5,-579 8.5,-601 259.5,-601 259.5,-579 8.5,-579"/>
<polygon fill="none" stroke="black" points="8.5,-579 8.5,-601 259.5,-601 259.5,-579 8.5,-579"/>
<text text-anchor="start" x="28.5" y="-587.2" font-family="Helvetica,sans-Serif" font-size="11.00">plot_name</text>
<polygon fill="none" stroke="black" points="8.5,-557 8.5,-579 259.5,-579 259.5,-557 8.5,-557"/>
<image xlink:href="../../images/foreignKeys.png" width="11px" height="12px" preserveAspectRatio="xMinYMin meet" x="13.5" y="-574"/>
<text text-anchor="start" x="28.5" y="-565.2" font-family="Helvetica,sans-Serif" font-size="11.00">sampling_strata</text>
<polygon fill="none" stroke="black" points="8.5,-535 8.5,-557 259.5,-557 259.5,-535 8.5,-535"/>
<image xlink:href="../../images/foreignKeys.png" width="11px" height="12px" preserveAspectRatio="xMinYMin meet" x="13.5" y="-552"/>
<text text-anchor="start" x="28.5" y="-543.2" font-family="Helvetica,sans-Serif" font-size="11.00">growth_district</text>
<polygon fill="none" stroke="black" points="8.5,-513 8.5,-535 259.5,-535 259.5,-513 8.5,-513"/>
<image xlink:href="../../images/foreignKeys.png" width="11px" height="12px" preserveAspectRatio="xMinYMin meet" x="13.5" y="-530"/>
<text text-anchor="start" x="28.5" y="-521.2" font-family="Helvetica,sans-Serif" font-size="11.00">forest_decision</text>
<polygon fill="none" stroke="black" points="8.5,-491 8.5,-513 259.5,-513 259.5,-491 8.5,-491"/>
<image xlink:href="../../images/foreignKeys.png" width="11px" height="12px" preserveAspectRatio="xMinYMin meet" x="13.5" y="-508"/>
<text text-anchor="start" x="28.5" y="-499.2" font-family="Helvetica,sans-Serif" font-size="11.00">forestry_department</text>
<polygon fill="none" stroke="black" points="8.5,-469 8.5,-491 259.5,-491 259.5,-469 8.5,-469"/>
<image xlink:href="../../images/foreignKeys.png" width="11px" height="12px" preserveAspectRatio="xMinYMin meet" x="13.5" y="-486"/>
<text text-anchor="start" x="28.5" y="-477.2" font-family="Helvetica,sans-Serif" font-size="11.00">height_layer_class</text>
<polygon fill="none" stroke="black" points="8.5,-447 8.5,-469 259.5,-469 259.5,-447 8.5,-447"/>
<image xlink:href="../../images/foreignKeys.png" width="11px" height="12px" preserveAspectRatio="xMinYMin meet" x="13.5" y="-464"/>
<text text-anchor="start" x="28.5" y="-455.2" font-family="Helvetica,sans-Serif" font-size="11.00">property_type</text>
<polygon fill="none" stroke="black" points="8.5,-425 8.5,-447 259.5,-447 259.5,-425 8.5,-425"/>
<image xlink:href="../../images/foreignKeys.png" width="11px" height="12px" preserveAspectRatio="xMinYMin meet" x="13.5" y="-442"/>
<text text-anchor="start" x="28.5" y="-433.2" font-family="Helvetica,sans-Serif" font-size="11.00">property_size_class</text>
<polygon fill="none" stroke="black" points="8.5,-403 8.5,-425 259.5,-425 259.5,-403 8.5,-403"/>
<image xlink:href="../../images/foreignKeys.png" width="11px" height="12px" preserveAspectRatio="xMinYMin meet" x="13.5" y="-420"/>
<text text-anchor="start" x="28.5" y="-411.2" font-family="Helvetica,sans-Serif" font-size="11.00">forest_type</text>
<polygon fill="none" stroke="black" points="8.5,-381 8.5,-403 259.5,-403 259.5,-381 8.5,-381"/>
<image xlink:href="../../images/foreignKeys.png" width="11px" height="12px" preserveAspectRatio="xMinYMin meet" x="13.5" y="-398"/>
<text text-anchor="start" x="28.5" y="-389.2" font-family="Helvetica,sans-Serif" font-size="11.00">habitat_type</text>
<polygon fill="none" stroke="black" points="8.5,-359 8.5,-381 259.5,-381 259.5,-359 8.5,-359"/>
<image xlink:href="../../images/foreignKeys.png" width="11px" height="12px" preserveAspectRatio="xMinYMin meet" x="13.5" y="-376"/>
<text text-anchor="start" x="28.5" y="-367.2" font-family="Helvetica,sans-Serif" font-size="11.00">habitat_type_source</text>
<polygon fill="none" stroke="black" points="8.5,-337 8.5,-359 259.5,-359 259.5,-337 8.5,-337"/>
<image xlink:href="../../images/foreignKeys.png" width="11px" height="12px" preserveAspectRatio="xMinYMin meet" x="13.5" y="-354"/>
<text text-anchor="start" x="28.5" y="-345.2" font-family="Helvetica,sans-Serif" font-size="11.00">use_restriction</text>
<polygon fill="none" stroke="black" points="8.5,-315 8.5,-337 259.5,-337 259.5,-315 8.5,-315"/>
<image xlink:href="../../images/foreignKeys.png" width="11px" height="12px" preserveAspectRatio="xMinYMin meet" x="13.5" y="-332"/>
<text text-anchor="start" x="28.5" y="-323.2" font-family="Helvetica,sans-Serif" font-size="11.00">land_use</text>
<polygon fill="none" stroke="black" points="8.5,-293 8.5,-315 259.5,-315 259.5,-293 8.5,-293"/>
<image xlink:href="../../images/foreignKeys.png" width="11px" height="12px" preserveAspectRatio="xMinYMin meet" x="13.5" y="-310"/>
<text text-anchor="start" x="28.5" y="-301.2" font-family="Helvetica,sans-Serif" font-size="11.00">marking_state</text>
<polygon fill="none" stroke="black" points="8.5,-271 8.5,-293 259.5,-293 259.5,-271 8.5,-271"/>
<image xlink:href="../../images/foreignKeys.png" width="11px" height="12px" preserveAspectRatio="xMinYMin meet" x="13.5" y="-288"/>
<text text-anchor="start" x="28.5" y="-279.2" font-family="Helvetica,sans-Serif" font-size="11.00">marking_profile</text>
<polygon fill="none" stroke="black" points="8.5,-249 8.5,-271 259.5,-271 259.5,-249 8.5,-249"/>
<image xlink:href="../../images/foreignKeys.png" width="11px" height="12px" preserveAspectRatio="xMinYMin meet" x="13.5" y="-266"/>
<text text-anchor="start" x="28.5" y="-257.2" font-family="Helvetica,sans-Serif" font-size="11.00">terrain_form</text>
<polygon fill="none" stroke="black" points="8.5,-227 8.5,-249 259.5,-249 259.5,-227 8.5,-227"/>
<image xlink:href="../../images/foreignKeys.png" width="11px" height="12px" preserveAspectRatio="xMinYMin meet" x="13.5" y="-244"/>
<text text-anchor="start" x="28.5" y="-235.2" font-family="Helvetica,sans-Serif" font-size="11.00">management_type</text>
<polygon fill="none" stroke="black" points="8.5,-205 8.5,-227 259.5,-227 259.5,-205 8.5,-205"/>
<image xlink:href="../../images/foreignKeys.png" width="11px" height="12px" preserveAspectRatio="xMinYMin meet" x="13.5" y="-222"/>
<text text-anchor="start" x="28.5" y="-213.2" font-family="Helvetica,sans-Serif" font-size="11.00">harvesting_method</text>
<polygon fill="none" stroke="black" points="8.5,-183 8.5,-205 259.5,-205 259.5,-183 8.5,-183"/>
<image xlink:href="../../images/foreignKeys.png" width="11px" height="12px" preserveAspectRatio="xMinYMin meet" x="13.5" y="-200"/>
<text text-anchor="start" x="28.5" y="-191.2" font-family="Helvetica,sans-Serif" font-size="11.00">layer_type</text>
<polygon fill="none" stroke="black" points="8.5,-161 8.5,-183 259.5,-183 259.5,-161 8.5,-161"/>
<image xlink:href="../../images/foreignKeys.png" width="11px" height="12px" preserveAspectRatio="xMinYMin meet" x="13.5" y="-178"/>
<text text-anchor="start" x="28.5" y="-169.2" font-family="Helvetica,sans-Serif" font-size="11.00">stand_phase</text>
<polygon fill="none" stroke="black" points="8.5,-139 8.5,-161 259.5,-161 259.5,-139 8.5,-139"/>
<image xlink:href="../../images/foreignKeys.png" width="11px" height="12px" preserveAspectRatio="xMinYMin meet" x="13.5" y="-156"/>
<text text-anchor="start" x="28.5" y="-147.2" font-family="Helvetica,sans-Serif" font-size="11.00">sablings_layer</text>
<polygon fill="none" stroke="black" points="8.5,-117 8.5,-139 259.5,-139 259.5,-117 8.5,-117"/>
<image xlink:href="../../images/foreignKeys.png" width="11px" height="12px" preserveAspectRatio="xMinYMin meet" x="13.5" y="-134"/>
<text text-anchor="start" x="28.5" y="-125.2" font-family="Helvetica,sans-Serif" font-size="11.00">trees_less_4meter_mirrored</text>
<polygon fill="none" stroke="black" points="8.5,-95 8.5,-117 259.5,-117 259.5,-95 8.5,-95"/>
<image xlink:href="../../images/foreignKeys.png" width="11px" height="12px" preserveAspectRatio="xMinYMin meet" x="13.5" y="-112"/>
<text text-anchor="start" x="28.5" y="-103.2" font-family="Helvetica,sans-Serif" font-size="11.00">trees_less_4meter_count_factor</text>
<polygon fill="none" stroke="black" points="8.5,-73 8.5,-95 259.5,-95 259.5,-73 8.5,-73"/>
<image xlink:href="../../images/foreignKeys.png" width="11px" height="12px" preserveAspectRatio="xMinYMin meet" x="13.5" y="-90"/>
<text text-anchor="start" x="28.5" y="-81.2" font-family="Helvetica,sans-Serif" font-size="11.00">trees_less_4meter_layer</text>
<polygon fill="none" stroke="black" points="8.5,-55 8.5,-73 259.5,-73 259.5,-55 8.5,-55"/>
<text text-anchor="start" x="11.5" y="-61.2" font-family="Helvetica,sans-Serif" font-size="11.00">...</text>
<polygon fill="#ffffff" stroke="transparent" points="8.5,-37 8.5,-55 259.5,-55 259.5,-37 8.5,-37"/>
<polygon fill="none" stroke="black" points="8.5,-37 8.5,-55 259.5,-55 259.5,-37 8.5,-37"/>
<polygon fill="#ffffff" stroke="transparent" points="9.5,-38 9.5,-54 89.5,-54 89.5,-38 9.5,-38"/>
<text text-anchor="start" x="11.5" y="-43.2" font-family="Helvetica,sans-Serif" font-size="11.00">&lt; 24</text>
<polygon fill="#ffffff" stroke="transparent" points="89.5,-38 89.5,-54 186.5,-54 186.5,-38 89.5,-38"/>
<text text-anchor="start" x="116" y="-43.2" font-family="Helvetica,sans-Serif" font-size="11.00">82 rows</text>
<polygon fill="#ffffff" stroke="transparent" points="186.5,-38 186.5,-54 258.5,-54 258.5,-38 186.5,-38"/>
<text text-anchor="start" x="236.5" y="-43.2" font-family="Helvetica,sans-Serif" font-size="11.00">7 &gt;</text>
<polygon fill="black" stroke="black" points="89.5,-38 89.5,-54 89.5,-54 89.5,-38 89.5,-38"/>
<polygon fill="black" stroke="black" points="186.5,-38 186.5,-54 186.5,-54 186.5,-38 186.5,-38"/>
</a>
</g>
</g>
<!-- plot_location&#45;&gt;plot -->
<g id="edge1" class="edge">
<title>plot_location:w&#45;&gt;plot:e</title>
<path fill="none" stroke="black" d="M319.76,-597.32C296.33,-605.72 291.99,-634 260.5,-634"/>
<polygon fill="black" stroke="black" points="326.1,-596.29 334.58,-598.55 330.05,-595.64 334,-595 334,-595 334,-595 330.05,-595.64 333.42,-591.45 326.1,-596.29 326.1,-596.29"/>
<ellipse fill="none" stroke="black" cx="322.95" cy="-596.8" rx="3.2" ry="3.2"/>
</g>
<!-- sapling_1m -->
<g id="node3" class="node">
<title>sapling_1m</title>
<g id="a_node3"><a xlink:href="../../tables/sapling_1m.html" xlink:title="sapling_1m" target="_top">
<polygon fill="#ffffff" stroke="transparent" points="551,-392 551,-678 1012,-678 1012,-392 551,-392"/>
<polygon fill="#f5f5f5" stroke="transparent" points="553.5,-654 553.5,-676 1010.5,-676 1010.5,-654 553.5,-654"/>
<polygon fill="none" stroke="black" points="553.5,-654 553.5,-676 1010.5,-676 1010.5,-654 553.5,-654"/>
<text text-anchor="start" x="558.5" y="-663.2" font-family="Helvetica,sans-Serif" font-weight="bold" font-size="11.00">sapling_1m</text>
<text text-anchor="start" x="968.5" y="-662.2" font-family="Helvetica,sans-Serif" font-size="11.00">[table]</text>
<polygon fill="none" stroke="black" points="553.5,-632 553.5,-654 728.5,-654 728.5,-632 553.5,-632"/>
<image xlink:href="../../images/primaryKeys.png" width="11px" height="12px" preserveAspectRatio="xMinYMin meet" x="558.5" y="-649"/>
<text text-anchor="start" x="573.5" y="-640.2" font-family="Helvetica,sans-Serif" font-size="11.00">id</text>
<polygon fill="none" stroke="black" points="728.5,-632 728.5,-654 1010.5,-654 1010.5,-632 728.5,-632"/>
<text text-anchor="start" x="731.5" y="-640.2" font-family="Helvetica,sans-Serif" font-size="11.00">serial[10]</text>
<polygon fill="none" stroke="black" points="553.5,-610 553.5,-632 728.5,-632 728.5,-610 553.5,-610"/>
<image xlink:href="../../images/foreignKeys.png" width="11px" height="12px" preserveAspectRatio="xMinYMin meet" x="558.5" y="-627"/>
<text text-anchor="start" x="573.5" y="-618.2" font-family="Helvetica,sans-Serif" font-size="11.00">plot_id</text>
<polygon fill="none" stroke="black" points="728.5,-610 728.5,-632 1010.5,-632 1010.5,-610 728.5,-610"/>
<text text-anchor="start" x="731.5" y="-618.2" font-family="Helvetica,sans-Serif" font-size="11.00">int4[10]</text>
<polygon fill="none" stroke="black" points="553.5,-588 553.5,-610 728.5,-610 728.5,-588 553.5,-588"/>
<image xlink:href="../../images/foreignKeys.png" width="11px" height="12px" preserveAspectRatio="xMinYMin meet" x="558.5" y="-605"/>
<text text-anchor="start" x="573.5" y="-596.2" font-family="Helvetica,sans-Serif" font-size="11.00">plot_location_id</text>
<polygon fill="none" stroke="black" points="728.5,-588 728.5,-610 1010.5,-610 1010.5,-588 728.5,-588"/>
<text text-anchor="start" x="731.5" y="-596.2" font-family="Helvetica,sans-Serif" font-size="11.00">int4[10]</text>
<polygon fill="none" stroke="black" points="553.5,-566 553.5,-588 728.5,-588 728.5,-566 553.5,-566"/>
<text text-anchor="start" x="573.5" y="-574.2" font-family="Helvetica,sans-Serif" font-size="11.00">created_at</text>
<polygon fill="none" stroke="black" points="728.5,-566 728.5,-588 1010.5,-588 1010.5,-566 728.5,-566"/>
<text text-anchor="start" x="731.5" y="-574.2" font-family="Helvetica,sans-Serif" font-size="11.00">timestamp[29,6]</text>
<polygon fill="none" stroke="black" points="553.5,-544 553.5,-566 728.5,-566 728.5,-544 553.5,-544"/>
<text text-anchor="start" x="573.5" y="-552.2" font-family="Helvetica,sans-Serif" font-size="11.00">modified_at</text>
<polygon fill="none" stroke="black" points="728.5,-544 728.5,-566 1010.5,-566 1010.5,-544 728.5,-544"/>
<text text-anchor="start" x="731.5" y="-552.2" font-family="Helvetica,sans-Serif" font-size="11.00">timestamp[29,6]</text>
<polygon fill="none" stroke="black" points="553.5,-522 553.5,-544 728.5,-544 728.5,-522 553.5,-522"/>
<text text-anchor="start" x="573.5" y="-530.2" font-family="Helvetica,sans-Serif" font-size="11.00">modified_by</text>
<polygon fill="none" stroke="black" points="728.5,-522 728.5,-544 1010.5,-544 1010.5,-522 728.5,-522"/>
<text text-anchor="start" x="731.5" y="-530.2" font-family="Helvetica,sans-Serif" font-size="11.00">regrole[2147483647]</text>
<polygon fill="none" stroke="black" points="553.5,-500 553.5,-522 728.5,-522 728.5,-500 553.5,-500"/>
<text text-anchor="start" x="573.5" y="-508.2" font-family="Helvetica,sans-Serif" font-size="11.00">stand_affiliation</text>
<polygon fill="none" stroke="black" points="728.5,-500 728.5,-522 1010.5,-522 1010.5,-500 728.5,-500"/>
<text text-anchor="start" x="731.5" y="-508.2" font-family="Helvetica,sans-Serif" font-size="11.00">bool[1]</text>
<polygon fill="none" stroke="black" points="553.5,-478 553.5,-500 728.5,-500 728.5,-478 553.5,-478"/>
<image xlink:href="../../images/foreignKeys.png" width="11px" height="12px" preserveAspectRatio="xMinYMin meet" x="558.5" y="-495"/>
<text text-anchor="start" x="573.5" y="-486.2" font-family="Helvetica,sans-Serif" font-size="11.00">tree_species</text>
<polygon fill="none" stroke="black" points="728.5,-478 728.5,-500 1010.5,-500 1010.5,-478 728.5,-478"/>
<text text-anchor="start" x="731.5" y="-486.2" font-family="Helvetica,sans-Serif" font-size="11.00">int2[5]</text>
<polygon fill="none" stroke="black" points="553.5,-456 553.5,-478 728.5,-478 728.5,-456 553.5,-456"/>
<image xlink:href="../../images/foreignKeys.png" width="11px" height="12px" preserveAspectRatio="xMinYMin meet" x="558.5" y="-473"/>
<text text-anchor="start" x="573.5" y="-464.2" font-family="Helvetica,sans-Serif" font-size="11.00">bitten</text>
<polygon fill="none" stroke="black" points="728.5,-456 728.5,-478 1010.5,-478 1010.5,-456 728.5,-456"/>
<text text-anchor="start" x="731.5" y="-464.2" font-family="Helvetica,sans-Serif" font-size="11.00">&quot;private_ci2027_001&quot;.&quot;enum_bitten&quot;[2147483647]</text>
<polygon fill="none" stroke="black" points="553.5,-434 553.5,-456 728.5,-456 728.5,-434 553.5,-434"/>
<text text-anchor="start" x="573.5" y="-442.2" font-family="Helvetica,sans-Serif" font-size="11.00">protection_individual</text>
<polygon fill="none" stroke="black" points="728.5,-434 728.5,-456 1010.5,-456 1010.5,-434 728.5,-434"/>
<text text-anchor="start" x="731.5" y="-442.2" font-family="Helvetica,sans-Serif" font-size="11.00">bool[1]</text>
<polygon fill="none" stroke="black" points="553.5,-412 553.5,-434 728.5,-434 728.5,-412 553.5,-412"/>
<text text-anchor="start" x="573.5" y="-420.2" font-family="Helvetica,sans-Serif" font-size="11.00">quantity</text>
<polygon fill="none" stroke="black" points="728.5,-412 728.5,-434 1010.5,-434 1010.5,-412 728.5,-412"/>
<text text-anchor="start" x="731.5" y="-420.2" font-family="Helvetica,sans-Serif" font-size="11.00">int2[5]</text>
<polygon fill="#ffffff" stroke="transparent" points="553.5,-394 553.5,-412 1010.5,-412 1010.5,-394 553.5,-394"/>
<polygon fill="none" stroke="black" points="553.5,-394 553.5,-412 1010.5,-412 1010.5,-394 553.5,-394"/>
<polygon fill="#ffffff" stroke="transparent" points="554.5,-395 554.5,-411 700.5,-411 700.5,-395 554.5,-395"/>
<text text-anchor="start" x="556.5" y="-400.2" font-family="Helvetica,sans-Serif" font-size="11.00">&lt; 4</text>
<polygon fill="#ffffff" stroke="transparent" points="700.5,-395 700.5,-411 863.5,-411 863.5,-395 700.5,-395"/>
<text text-anchor="start" x="763.5" y="-400.2" font-family="Helvetica,sans-Serif" font-size="11.00">0 rows</text>
<polygon fill="#ffffff" stroke="transparent" points="863.5,-395 863.5,-411 1009.5,-411 1009.5,-395 863.5,-395"/>
<text text-anchor="start" x="987.5" y="-400.2" font-family="Helvetica,sans-Serif" font-size="11.00">0 &gt;</text>
<polygon fill="black" stroke="black" points="700.5,-395 700.5,-411 700.5,-411 700.5,-395 700.5,-395"/>
<polygon fill="black" stroke="black" points="863.5,-395 863.5,-411 863.5,-411 863.5,-395 863.5,-395"/>
<polygon fill="none" stroke="black" stroke-width="2" points="552,-393 552,-677 1011,-677 1011,-393 552,-393"/>
</a>
</g>
</g>
<!-- sapling_1m&#45;&gt;plot_location -->
<g id="edge4" class="edge">
<title>sapling_1m:w&#45;&gt;plot_location:e</title>
<path fill="none" stroke="black" d="M537.85,-600.24C515.2,-604.3 505.97,-617 477,-617"/>
<polygon fill="black" stroke="black" points="544.53,-599.67 552.8,-602.59 548.51,-599.34 552.5,-599 552.5,-599 552.5,-599 548.51,-599.34 552.2,-595.41 544.53,-599.67 544.53,-599.67"/>
<ellipse fill="none" stroke="black" cx="541.34" cy="-599.94" rx="3.2" ry="3.2"/>
</g>
<!-- sapling_1m&#45;&gt;plot -->
<g id="edge3" class="edge">
<title>sapling_1m:w&#45;&gt;plot:e</title>
<path fill="none" stroke="black" d="M538.62,-625.63C528.36,-634.52 528.27,-653.75 510,-661 423.24,-695.41 389.17,-688.56 300,-661 279.68,-654.72 281.76,-634 260.5,-634"/>
<polygon fill="black" stroke="black" points="544.91,-623.53 553.64,-624.42 548.71,-622.27 552.5,-621 552.5,-621 552.5,-621 548.71,-622.27 551.36,-617.58 544.91,-623.53 544.91,-623.53"/>
<ellipse fill="none" stroke="black" cx="541.87" cy="-624.54" rx="3.2" ry="3.2"/>
</g>
<!-- lookup_bitten -->
<g id="node4" class="node">
<title>lookup_bitten</title>
<g id="a_node4"><a xlink:href="../../tables/lookup_bitten.html" xlink:title="lookup_bitten" target="_top">
<polygon fill="#ffffff" stroke="transparent" points="331.5,-324 331.5,-404 478.5,-404 478.5,-324 331.5,-324"/>
<polygon fill="#f5f5f5" stroke="transparent" points="332,-382 332,-404 479,-404 479,-382 332,-382"/>
<polygon fill="none" stroke="black" points="332,-382 332,-404 479,-404 479,-382 332,-382"/>
<text text-anchor="start" x="337" y="-391.2" font-family="Helvetica,sans-Serif" font-weight="bold" font-size="11.00">lookup_bitten</text>
<text text-anchor="start" x="437" y="-390.2" font-family="Helvetica,sans-Serif" font-size="11.00">[table]</text>
<polygon fill="#ffffff" stroke="transparent" points="332,-360 332,-382 479,-382 479,-360 332,-360"/>
<polygon fill="none" stroke="black" points="332,-360 332,-382 479,-382 479,-360 332,-360"/>
<text text-anchor="start" x="365" y="-368.2" font-family="Helvetica,sans-Serif" font-size="11.00">abbreviation</text>
<polygon fill="none" stroke="black" points="332,-342 332,-360 479,-360 479,-342 332,-342"/>
<text text-anchor="start" x="335" y="-348.2" font-family="Helvetica,sans-Serif" font-size="11.00">...</text>
<polygon fill="#ffffff" stroke="transparent" points="332,-324 332,-342 479,-342 479,-324 332,-324"/>
<polygon fill="none" stroke="black" points="332,-324 332,-342 479,-342 479,-324 332,-324"/>
<polygon fill="#ffffff" stroke="transparent" points="333,-325 333,-341 368,-341 368,-325 333,-325"/>
<text text-anchor="start" x="335" y="-330.2" font-family="Helvetica,sans-Serif" font-size="11.00"> &#160;</text>
<polygon fill="#ffffff" stroke="transparent" points="368,-325 368,-341 432,-341 432,-325 368,-325"/>
<text text-anchor="start" x="381.5" y="-330.2" font-family="Helvetica,sans-Serif" font-size="11.00">0 rows</text>
<polygon fill="#ffffff" stroke="transparent" points="432,-325 432,-341 478,-341 478,-325 432,-325"/>
<text text-anchor="start" x="456" y="-330.2" font-family="Helvetica,sans-Serif" font-size="11.00">2 &gt;</text>
<polygon fill="black" stroke="black" points="368,-325 368,-341 368,-341 368,-325 368,-325"/>
<polygon fill="black" stroke="black" points="432,-325 432,-341 432,-341 432,-325 432,-325"/>
</a>
</g>
</g>
<!-- sapling_1m&#45;&gt;lookup_bitten -->
<g id="edge2" class="edge">
<title>sapling_1m:w&#45;&gt;lookup_bitten:e</title>
<path fill="none" stroke="black" d="M538.31,-464.02C505.32,-447.82 527.83,-371 480,-371"/>
<polygon fill="black" stroke="black" points="544.67,-465.36 551.76,-470.52 548.59,-466.18 552.5,-467 552.5,-467 552.5,-467 548.59,-466.18 553.24,-463.48 544.67,-465.36 544.67,-465.36"/>
<ellipse fill="none" stroke="black" cx="541.54" cy="-464.7" rx="3.2" ry="3.2"/>
</g>
<!-- lookup_tree_species -->
<g id="node5" class="node">
<title>lookup_tree_species</title>
<g id="a_node5"><a xlink:href="../../tables/lookup_tree_species.html" xlink:title="lookup_tree_species" target="_top">
<polygon fill="#ffffff" stroke="transparent" points="308,-425 308,-505 502,-505 502,-425 308,-425"/>
<polygon fill="#f5f5f5" stroke="transparent" points="308,-483 308,-505 502,-505 502,-483 308,-483"/>
<polygon fill="none" stroke="black" points="308,-483 308,-505 502,-505 502,-483 308,-483"/>
<text text-anchor="start" x="313" y="-492.2" font-family="Helvetica,sans-Serif" font-weight="bold" font-size="11.00">lookup_tree_species</text>
<text text-anchor="start" x="460" y="-491.2" font-family="Helvetica,sans-Serif" font-size="11.00">[table]</text>
<polygon fill="#ffffff" stroke="transparent" points="308,-461 308,-483 502,-483 502,-461 308,-461"/>
<polygon fill="none" stroke="black" points="308,-461 308,-483 502,-483 502,-461 308,-461"/>
<text text-anchor="start" x="341" y="-469.2" font-family="Helvetica,sans-Serif" font-size="11.00">abbreviation</text>
<polygon fill="none" stroke="black" points="308,-443 308,-461 502,-461 502,-443 308,-443"/>
<text text-anchor="start" x="311" y="-449.2" font-family="Helvetica,sans-Serif" font-size="11.00">...</text>
<polygon fill="#ffffff" stroke="transparent" points="308,-425 308,-443 502,-443 502,-425 308,-425"/>
<polygon fill="none" stroke="black" points="308,-425 308,-443 502,-443 502,-425 308,-425"/>
<polygon fill="#ffffff" stroke="transparent" points="309,-426 309,-442 355,-442 355,-426 309,-426"/>
<text text-anchor="start" x="311" y="-431.2" font-family="Helvetica,sans-Serif" font-size="11.00"> &#160;</text>
<polygon fill="#ffffff" stroke="transparent" points="355,-426 355,-442 444,-442 444,-426 355,-426"/>
<text text-anchor="start" x="374" y="-431.2" font-family="Helvetica,sans-Serif" font-size="11.00">125 rows</text>
<polygon fill="#ffffff" stroke="transparent" points="444,-426 444,-442 501,-442 501,-426 444,-426"/>
<text text-anchor="start" x="479" y="-431.2" font-family="Helvetica,sans-Serif" font-size="11.00">3 &gt;</text>
<polygon fill="black" stroke="black" points="355,-426 355,-442 355,-442 355,-426 355,-426"/>
<polygon fill="black" stroke="black" points="444,-426 444,-442 444,-442 444,-426 444,-426"/>
</a>
</g>
</g>
<!-- sapling_1m&#45;&gt;lookup_tree_species -->
<g id="edge5" class="edge">
<title>sapling_1m:w&#45;&gt;lookup_tree_species:e</title>
<path fill="none" stroke="black" d="M538.22,-486.34C526.48,-481.56 520.45,-472 503,-472"/>
<polygon fill="black" stroke="black" points="544.63,-487.54 551.84,-492.54 548.57,-488.27 552.5,-489 552.5,-489 552.5,-489 548.57,-488.27 553.16,-485.46 544.63,-487.54 544.63,-487.54"/>
<ellipse fill="none" stroke="black" cx="541.49" cy="-486.95" rx="3.2" ry="3.2"/>
</g>
</g>
</svg>
