<?xml version="1.0" encoding="UTF-8" standalone="no"?>
<!DOCTYPE svg PUBLIC "-//W3C//DTD SVG 1.1//EN"
 "http://www.w3.org/Graphics/SVG/1.1/DTD/svg11.dtd">
<!-- Generated by graphviz version 2.43.0 (0)
 -->
<!-- Title: oneDegreeRelationshipsDiagram Pages: 1 -->
<svg width="885pt" height="531pt"
 viewBox="0.00 0.00 885.00 531.00" xmlns="http://www.w3.org/2000/svg" xmlns:xlink="http://www.w3.org/1999/xlink">
<g id="graph0" class="graph" transform="scale(1 1) rotate(0) translate(4 527)">
<title>oneDegreeRelationshipsDiagram</title>
<polygon fill="#ffffff" stroke="transparent" points="-4,4 -4,-527 881,-527 881,4 -4,4"/>
<text text-anchor="middle" x="79.5" y="-7.2" font-family="Helvetica,sans-Serif" font-size="11.00">Generated by SchemaSpy</text>
<!-- plot_location -->
<g id="node1" class="node">
<title>plot_location</title>
<g id="a_node1"><a xlink:href="../../tables/plot_location.html" xlink:title="plot_location" target="_top">
<polygon fill="#ffffff" stroke="transparent" points="371.5,-349 371.5,-473 512.5,-473 512.5,-349 371.5,-349"/>
<polygon fill="#f5f5f5" stroke="transparent" points="372,-451 372,-473 513,-473 513,-451 372,-451"/>
<polygon fill="none" stroke="black" points="372,-451 372,-473 513,-473 513,-451 372,-451"/>
<text text-anchor="start" x="377" y="-460.2" font-family="Helvetica,sans-Serif" font-weight="bold" font-size="11.00">plot_location</text>
<text text-anchor="start" x="471" y="-459.2" font-family="Helvetica,sans-Serif" font-size="11.00">[table]</text>
<polygon fill="none" stroke="black" points="372,-429 372,-451 513,-451 513,-429 372,-429"/>
<image xlink:href="../../images/primaryKeys.png" width="11px" height="12px" preserveAspectRatio="xMinYMin meet" x="377" y="-446"/>
<text text-anchor="start" x="405" y="-437.2" font-family="Helvetica,sans-Serif" font-size="11.00">id</text>
<polygon fill="#ffffff" stroke="transparent" points="372,-407 372,-429 513,-429 513,-407 372,-407"/>
<polygon fill="none" stroke="black" points="372,-407 372,-429 513,-429 513,-407 372,-407"/>
<image xlink:href="../../images/foreignKeys.png" width="11px" height="12px" preserveAspectRatio="xMinYMin meet" x="377" y="-424"/>
<text text-anchor="start" x="405" y="-415.2" font-family="Helvetica,sans-Serif" font-size="11.00">plot_id</text>
<polygon fill="#ffffff" stroke="transparent" points="372,-385 372,-407 513,-407 513,-385 372,-385"/>
<polygon fill="none" stroke="black" points="372,-385 372,-407 513,-407 513,-385 372,-385"/>
<text text-anchor="start" x="405" y="-393.2" font-family="Helvetica,sans-Serif" font-size="11.00">parent_table</text>
<polygon fill="none" stroke="black" points="372,-367 372,-385 513,-385 513,-367 372,-367"/>
<text text-anchor="start" x="375" y="-373.2" font-family="Helvetica,sans-Serif" font-size="11.00">...</text>
<polygon fill="#ffffff" stroke="transparent" points="372,-349 372,-367 513,-367 513,-349 372,-349"/>
<polygon fill="none" stroke="black" points="372,-349 372,-367 513,-367 513,-349 372,-349"/>
<polygon fill="#ffffff" stroke="transparent" points="373,-350 373,-366 414,-366 414,-350 373,-350"/>
<text text-anchor="start" x="375" y="-355.2" font-family="Helvetica,sans-Serif" font-size="11.00">&lt; 1</text>
<polygon fill="#ffffff" stroke="transparent" points="414,-350 414,-366 472,-366 472,-350 414,-350"/>
<text text-anchor="start" x="424.5" y="-355.2" font-family="Helvetica,sans-Serif" font-size="11.00">0 rows</text>
<polygon fill="#ffffff" stroke="transparent" points="472,-350 472,-366 512,-366 512,-350 472,-350"/>
<text text-anchor="start" x="490" y="-355.2" font-family="Helvetica,sans-Serif" font-size="11.00">3 &gt;</text>
<polygon fill="black" stroke="black" points="414,-350 414,-366 414,-366 414,-350 414,-350"/>
<polygon fill="black" stroke="black" points="472,-350 472,-366 472,-366 472,-350 472,-350"/>
</a>
</g>
</g>
<!-- plot -->
<g id="node2" class="node">
<title>plot</title>
<g id="a_node2"><a xlink:href="../../tables/plot.html" xlink:title="plot" target="_top">
<polygon fill="#ffffff" stroke="transparent" points="8,-37 8,-491 296,-491 296,-37 8,-37"/>
<polygon fill="#f5f5f5" stroke="transparent" points="8,-469 8,-491 296,-491 296,-469 8,-469"/>
<polygon fill="none" stroke="black" points="8,-469 8,-491 296,-491 296,-469 8,-469"/>
<text text-anchor="start" x="12.5" y="-478.2" font-family="Helvetica,sans-Serif" font-weight="bold" font-size="11.00">plot</text>
<text text-anchor="start" x="254" y="-477.2" font-family="Helvetica,sans-Serif" font-size="11.00">[table]</text>
<polygon fill="none" stroke="black" points="8,-447 8,-469 296,-469 296,-447 8,-447"/>
<image xlink:href="../../images/primaryKeys.png" width="11px" height="12px" preserveAspectRatio="xMinYMin meet" x="13" y="-464"/>
<text text-anchor="start" x="28" y="-455.2" font-family="Helvetica,sans-Serif" font-size="11.00">id</text>
<polygon fill="#ffffff" stroke="transparent" points="8,-425 8,-447 296,-447 296,-425 8,-425"/>
<polygon fill="none" stroke="black" points="8,-425 8,-447 296,-447 296,-425 8,-425"/>
<image xlink:href="../../images/foreignKeys.png" width="11px" height="12px" preserveAspectRatio="xMinYMin meet" x="13" y="-442"/>
<text text-anchor="start" x="28" y="-433.2" font-family="Helvetica,sans-Serif" font-size="11.00">cluster_id</text>
<polygon fill="#ffffff" stroke="transparent" points="8,-403 8,-425 296,-425 296,-403 8,-403"/>
<polygon fill="none" stroke="black" points="8,-403 8,-425 296,-425 296,-403 8,-403"/>
<text text-anchor="start" x="28" y="-411.2" font-family="Helvetica,sans-Serif" font-size="11.00">plot_name</text>
<polygon fill="none" stroke="black" points="8,-381 8,-403 296,-403 296,-381 8,-381"/>
<image xlink:href="../../images/foreignKeys.png" width="11px" height="12px" preserveAspectRatio="xMinYMin meet" x="13" y="-398"/>
<text text-anchor="start" x="28" y="-389.2" font-family="Helvetica,sans-Serif" font-size="11.00">growth_district</text>
<polygon fill="none" stroke="black" points="8,-359 8,-381 296,-381 296,-359 8,-359"/>
<image xlink:href="../../images/foreignKeys.png" width="11px" height="12px" preserveAspectRatio="xMinYMin meet" x="13" y="-376"/>
<text text-anchor="start" x="28" y="-367.2" font-family="Helvetica,sans-Serif" font-size="11.00">forest_status</text>
<polygon fill="none" stroke="black" points="8,-337 8,-359 296,-359 296,-337 8,-337"/>
<image xlink:href="../../images/foreignKeys.png" width="11px" height="12px" preserveAspectRatio="xMinYMin meet" x="13" y="-354"/>
<text text-anchor="start" x="28" y="-345.2" font-family="Helvetica,sans-Serif" font-size="11.00">elevation_level</text>
<polygon fill="none" stroke="black" points="8,-315 8,-337 296,-337 296,-315 8,-315"/>
<image xlink:href="../../images/foreignKeys.png" width="11px" height="12px" preserveAspectRatio="xMinYMin meet" x="13" y="-332"/>
<text text-anchor="start" x="28" y="-323.2" font-family="Helvetica,sans-Serif" font-size="11.00">property_type</text>
<polygon fill="none" stroke="black" points="8,-293 8,-315 296,-315 296,-293 8,-293"/>
<image xlink:href="../../images/foreignKeys.png" width="11px" height="12px" preserveAspectRatio="xMinYMin meet" x="13" y="-310"/>
<text text-anchor="start" x="28" y="-301.2" font-family="Helvetica,sans-Serif" font-size="11.00">property_size_class</text>
<polygon fill="none" stroke="black" points="8,-271 8,-293 296,-293 296,-271 8,-271"/>
<image xlink:href="../../images/foreignKeys.png" width="11px" height="12px" preserveAspectRatio="xMinYMin meet" x="13" y="-288"/>
<text text-anchor="start" x="28" y="-279.2" font-family="Helvetica,sans-Serif" font-size="11.00">land_use_after</text>
<polygon fill="none" stroke="black" points="8,-249 8,-271 296,-271 296,-249 8,-249"/>
<image xlink:href="../../images/foreignKeys.png" width="11px" height="12px" preserveAspectRatio="xMinYMin meet" x="13" y="-266"/>
<text text-anchor="start" x="28" y="-257.2" font-family="Helvetica,sans-Serif" font-size="11.00">marker_status</text>
<polygon fill="none" stroke="black" points="8,-227 8,-249 296,-249 296,-227 8,-227"/>
<image xlink:href="../../images/foreignKeys.png" width="11px" height="12px" preserveAspectRatio="xMinYMin meet" x="13" y="-244"/>
<text text-anchor="start" x="28" y="-235.2" font-family="Helvetica,sans-Serif" font-size="11.00">marker_profile</text>
<polygon fill="none" stroke="black" points="8,-205 8,-227 296,-227 296,-205 8,-205"/>
<image xlink:href="../../images/foreignKeys.png" width="11px" height="12px" preserveAspectRatio="xMinYMin meet" x="13" y="-222"/>
<text text-anchor="start" x="28" y="-213.2" font-family="Helvetica,sans-Serif" font-size="11.00">terrain_form</text>
<polygon fill="none" stroke="black" points="8,-183 8,-205 296,-205 296,-183 8,-183"/>
<image xlink:href="../../images/foreignKeys.png" width="11px" height="12px" preserveAspectRatio="xMinYMin meet" x="13" y="-200"/>
<text text-anchor="start" x="28" y="-191.2" font-family="Helvetica,sans-Serif" font-size="11.00">management_type</text>
<polygon fill="none" stroke="black" points="8,-161 8,-183 296,-183 296,-161 8,-161"/>
<image xlink:href="../../images/foreignKeys.png" width="11px" height="12px" preserveAspectRatio="xMinYMin meet" x="13" y="-178"/>
<text text-anchor="start" x="28" y="-169.2" font-family="Helvetica,sans-Serif" font-size="11.00">harvesting_method</text>
<polygon fill="none" stroke="black" points="8,-139 8,-161 296,-161 296,-139 8,-139"/>
<image xlink:href="../../images/foreignKeys.png" width="11px" height="12px" preserveAspectRatio="xMinYMin meet" x="13" y="-156"/>
<text text-anchor="start" x="28" y="-147.2" font-family="Helvetica,sans-Serif" font-size="11.00">stand_structure</text>
<polygon fill="none" stroke="black" points="8,-117 8,-139 296,-139 296,-117 8,-117"/>
<image xlink:href="../../images/foreignKeys.png" width="11px" height="12px" preserveAspectRatio="xMinYMin meet" x="13" y="-134"/>
<text text-anchor="start" x="28" y="-125.2" font-family="Helvetica,sans-Serif" font-size="11.00">stand_dev_phase</text>
<polygon fill="none" stroke="black" points="8,-95 8,-117 296,-117 296,-95 8,-95"/>
<image xlink:href="../../images/foreignKeys.png" width="11px" height="12px" preserveAspectRatio="xMinYMin meet" x="13" y="-112"/>
<text text-anchor="start" x="28" y="-103.2" font-family="Helvetica,sans-Serif" font-size="11.00">stand_layer_reg</text>
<polygon fill="none" stroke="black" points="8,-73 8,-95 296,-95 296,-73 8,-73"/>
<image xlink:href="../../images/foreignKeys.png" width="11px" height="12px" preserveAspectRatio="xMinYMin meet" x="13" y="-90"/>
<text text-anchor="start" x="28" y="-81.2" font-family="Helvetica,sans-Serif" font-size="11.00">trees_less_4meter_mirrored</text>
<polygon fill="none" stroke="black" points="8,-55 8,-73 296,-73 296,-55 8,-55"/>
<text text-anchor="start" x="11" y="-61.2" font-family="Helvetica,sans-Serif" font-size="11.00">...</text>
<polygon fill="#ffffff" stroke="transparent" points="8,-37 8,-55 296,-55 296,-37 8,-37"/>
<polygon fill="none" stroke="black" points="8,-37 8,-55 296,-55 296,-37 8,-37"/>
<polygon fill="#ffffff" stroke="transparent" points="9,-38 9,-54 104,-54 104,-38 9,-38"/>
<text text-anchor="start" x="11" y="-43.2" font-family="Helvetica,sans-Serif" font-size="11.00">&lt; 16</text>
<polygon fill="#ffffff" stroke="transparent" points="104,-38 104,-54 208,-54 208,-38 104,-38"/>
<text text-anchor="start" x="137.5" y="-43.2" font-family="Helvetica,sans-Serif" font-size="11.00">0 rows</text>
<polygon fill="#ffffff" stroke="transparent" points="208,-38 208,-54 295,-54 295,-38 208,-38"/>
<text text-anchor="start" x="273" y="-43.2" font-family="Helvetica,sans-Serif" font-size="11.00">7 &gt;</text>
<polygon fill="black" stroke="black" points="104,-38 104,-54 104,-54 104,-38 104,-38"/>
<polygon fill="black" stroke="black" points="208,-38 208,-54 208,-54 208,-38 208,-38"/>
</a>
</g>
</g>
<!-- plot_location&#45;&gt;plot -->
<g id="edge1" class="edge">
<title>plot_location:w&#45;&gt;plot:e</title>
<path fill="none" stroke="black" d="M356.62,-420.38C333,-428.99 328.84,-458 297,-458"/>
<polygon fill="black" stroke="black" points="363.11,-419.31 371.59,-421.55 367.05,-418.65 371,-418 371,-418 371,-418 367.05,-418.65 370.41,-414.45 363.11,-419.31 363.11,-419.31"/>
<ellipse fill="none" stroke="black" cx="359.95" cy="-419.83" rx="3.2" ry="3.2"/>
</g>
<!-- structure_lt4m -->
<g id="node3" class="node">
<title>structure_lt4m</title>
<g id="a_node3"><a xlink:href="../../tables/structure_lt4m.html" xlink:title="structure_lt4m" target="_top">
<polygon fill="#ffffff" stroke="transparent" points="588,-277 588,-519 869,-519 869,-277 588,-277"/>
<polygon fill="#f5f5f5" stroke="transparent" points="590.5,-495 590.5,-517 867.5,-517 867.5,-495 590.5,-495"/>
<polygon fill="none" stroke="black" points="590.5,-495 590.5,-517 867.5,-517 867.5,-495 590.5,-495"/>
<text text-anchor="start" x="595.5" y="-504.2" font-family="Helvetica,sans-Serif" font-weight="bold" font-size="11.00">structure_lt4m</text>
<text text-anchor="start" x="825.5" y="-503.2" font-family="Helvetica,sans-Serif" font-size="11.00">[table]</text>
<polygon fill="none" stroke="black" points="590.5,-473 590.5,-495 745.5,-495 745.5,-473 590.5,-473"/>
<image xlink:href="../../images/primaryKeys.png" width="11px" height="12px" preserveAspectRatio="xMinYMin meet" x="595.5" y="-490"/>
<text text-anchor="start" x="610.5" y="-481.2" font-family="Helvetica,sans-Serif" font-size="11.00">id</text>
<polygon fill="none" stroke="black" points="745.5,-473 745.5,-495 867.5,-495 867.5,-473 745.5,-473"/>
<text text-anchor="start" x="748.5" y="-481.2" font-family="Helvetica,sans-Serif" font-size="11.00">serial[10]</text>
<polygon fill="none" stroke="black" points="590.5,-451 590.5,-473 745.5,-473 745.5,-451 590.5,-451"/>
<image xlink:href="../../images/foreignKeys.png" width="11px" height="12px" preserveAspectRatio="xMinYMin meet" x="595.5" y="-468"/>
<text text-anchor="start" x="610.5" y="-459.2" font-family="Helvetica,sans-Serif" font-size="11.00">plot_id</text>
<polygon fill="none" stroke="black" points="745.5,-451 745.5,-473 867.5,-473 867.5,-451 745.5,-451"/>
<text text-anchor="start" x="748.5" y="-459.2" font-family="Helvetica,sans-Serif" font-size="11.00">int4[10]</text>
<polygon fill="none" stroke="black" points="590.5,-429 590.5,-451 745.5,-451 745.5,-429 590.5,-429"/>
<image xlink:href="../../images/foreignKeys.png" width="11px" height="12px" preserveAspectRatio="xMinYMin meet" x="595.5" y="-446"/>
<text text-anchor="start" x="610.5" y="-437.2" font-family="Helvetica,sans-Serif" font-size="11.00">plot_location_id</text>
<polygon fill="none" stroke="black" points="745.5,-429 745.5,-451 867.5,-451 867.5,-429 745.5,-429"/>
<text text-anchor="start" x="748.5" y="-437.2" font-family="Helvetica,sans-Serif" font-size="11.00">int4[10]</text>
<polygon fill="none" stroke="black" points="590.5,-407 590.5,-429 745.5,-429 745.5,-407 590.5,-407"/>
<text text-anchor="start" x="610.5" y="-415.2" font-family="Helvetica,sans-Serif" font-size="11.00">created_at</text>
<polygon fill="none" stroke="black" points="745.5,-407 745.5,-429 867.5,-429 867.5,-407 745.5,-407"/>
<text text-anchor="start" x="748.5" y="-415.2" font-family="Helvetica,sans-Serif" font-size="11.00">timestamp[29,6]</text>
<polygon fill="none" stroke="black" points="590.5,-385 590.5,-407 745.5,-407 745.5,-385 590.5,-385"/>
<text text-anchor="start" x="610.5" y="-393.2" font-family="Helvetica,sans-Serif" font-size="11.00">modified_at</text>
<polygon fill="none" stroke="black" points="745.5,-385 745.5,-407 867.5,-407 867.5,-385 745.5,-385"/>
<text text-anchor="start" x="748.5" y="-393.2" font-family="Helvetica,sans-Serif" font-size="11.00">timestamp[29,6]</text>
<polygon fill="none" stroke="black" points="590.5,-363 590.5,-385 745.5,-385 745.5,-363 590.5,-363"/>
<text text-anchor="start" x="610.5" y="-371.2" font-family="Helvetica,sans-Serif" font-size="11.00">modified_by</text>
<polygon fill="none" stroke="black" points="745.5,-363 745.5,-385 867.5,-385 867.5,-363 745.5,-363"/>
<text text-anchor="start" x="748.5" y="-371.2" font-family="Helvetica,sans-Serif" font-size="11.00">regrole[2147483647]</text>
<polygon fill="none" stroke="black" points="590.5,-341 590.5,-363 745.5,-363 745.5,-341 590.5,-341"/>
<image xlink:href="../../images/foreignKeys.png" width="11px" height="12px" preserveAspectRatio="xMinYMin meet" x="595.5" y="-358"/>
<text text-anchor="start" x="610.5" y="-349.2" font-family="Helvetica,sans-Serif" font-size="11.00">tree_species</text>
<polygon fill="none" stroke="black" points="745.5,-341 745.5,-363 867.5,-363 867.5,-341 745.5,-341"/>
<text text-anchor="start" x="748.5" y="-349.2" font-family="Helvetica,sans-Serif" font-size="11.00">int2[5]</text>
<polygon fill="none" stroke="black" points="590.5,-319 590.5,-341 745.5,-341 745.5,-319 590.5,-319"/>
<text text-anchor="start" x="610.5" y="-327.2" font-family="Helvetica,sans-Serif" font-size="11.00">coverage</text>
<polygon fill="none" stroke="black" points="745.5,-319 745.5,-341 867.5,-341 867.5,-319 745.5,-319"/>
<text text-anchor="start" x="748.5" y="-327.2" font-family="Helvetica,sans-Serif" font-size="11.00">int4[10]</text>
<polygon fill="none" stroke="black" points="590.5,-297 590.5,-319 745.5,-319 745.5,-297 590.5,-297"/>
<text text-anchor="start" x="610.5" y="-305.2" font-family="Helvetica,sans-Serif" font-size="11.00">regeneration_type</text>
<polygon fill="none" stroke="black" points="745.5,-297 745.5,-319 867.5,-319 867.5,-297 745.5,-297"/>
<text text-anchor="start" x="748.5" y="-305.2" font-family="Helvetica,sans-Serif" font-size="11.00">int4[10]</text>
<polygon fill="#ffffff" stroke="transparent" points="590.5,-279 590.5,-297 867.5,-297 867.5,-279 590.5,-279"/>
<polygon fill="none" stroke="black" points="590.5,-279 590.5,-297 867.5,-297 867.5,-279 590.5,-279"/>
<polygon fill="#ffffff" stroke="transparent" points="591.5,-280 591.5,-296 677.5,-296 677.5,-280 591.5,-280"/>
<text text-anchor="start" x="593.5" y="-285.2" font-family="Helvetica,sans-Serif" font-size="11.00">&lt; 3</text>
<polygon fill="#ffffff" stroke="transparent" points="677.5,-280 677.5,-296 780.5,-296 780.5,-280 677.5,-280"/>
<text text-anchor="start" x="710.5" y="-285.2" font-family="Helvetica,sans-Serif" font-size="11.00">0 rows</text>
<polygon fill="#ffffff" stroke="transparent" points="780.5,-280 780.5,-296 866.5,-296 866.5,-280 780.5,-280"/>
<text text-anchor="start" x="844.5" y="-285.2" font-family="Helvetica,sans-Serif" font-size="11.00">0 &gt;</text>
<polygon fill="black" stroke="black" points="677.5,-280 677.5,-296 677.5,-296 677.5,-280 677.5,-280"/>
<polygon fill="black" stroke="black" points="780.5,-280 780.5,-296 780.5,-296 780.5,-280 780.5,-280"/>
<polygon fill="none" stroke="black" stroke-width="2" points="589,-278 589,-518 868,-518 868,-278 589,-278"/>
</a>
</g>
</g>
<!-- structure_lt4m&#45;&gt;plot_location -->
<g id="edge3" class="edge">
<title>structure_lt4m:w&#45;&gt;plot_location:e</title>
<path fill="none" stroke="black" d="M574.79,-440C552.51,-440 542.05,-440 514,-440"/>
<polygon fill="black" stroke="black" points="581.5,-440 589.5,-443.6 585.5,-440 589.5,-440 589.5,-440 589.5,-440 585.5,-440 589.5,-436.4 581.5,-440 581.5,-440"/>
<ellipse fill="none" stroke="black" cx="578.3" cy="-440" rx="3.2" ry="3.2"/>
</g>
<!-- structure_lt4m&#45;&gt;plot -->
<g id="edge2" class="edge">
<title>structure_lt4m:w&#45;&gt;plot:e</title>
<path fill="none" stroke="black" d="M575.26,-465.56C566.22,-470.81 561.69,-480.42 547,-484 456.32,-506.08 426.48,-510.53 337,-484 316.67,-477.97 318.2,-458 297,-458"/>
<polygon fill="black" stroke="black" points="581.74,-463.94 590.37,-465.49 585.62,-462.97 589.5,-462 589.5,-462 589.5,-462 585.62,-462.97 588.63,-458.51 581.74,-463.94 581.74,-463.94"/>
<ellipse fill="none" stroke="black" cx="578.63" cy="-464.71" rx="3.2" ry="3.2"/>
</g>
<!-- lookup_tree_species -->
<g id="node4" class="node">
<title>lookup_tree_species</title>
<g id="a_node4"><a xlink:href="../../tables/lookup_tree_species.html" xlink:title="lookup_tree_species" target="_top">
<polygon fill="#ffffff" stroke="transparent" points="345,-248 345,-328 539,-328 539,-248 345,-248"/>
<polygon fill="#f5f5f5" stroke="transparent" points="345,-306 345,-328 539,-328 539,-306 345,-306"/>
<polygon fill="none" stroke="black" points="345,-306 345,-328 539,-328 539,-306 345,-306"/>
<text text-anchor="start" x="350" y="-315.2" font-family="Helvetica,sans-Serif" font-weight="bold" font-size="11.00">lookup_tree_species</text>
<text text-anchor="start" x="497" y="-314.2" font-family="Helvetica,sans-Serif" font-size="11.00">[table]</text>
<polygon fill="#ffffff" stroke="transparent" points="345,-284 345,-306 539,-306 539,-284 345,-284"/>
<polygon fill="none" stroke="black" points="345,-284 345,-306 539,-306 539,-284 345,-284"/>
<text text-anchor="start" x="378" y="-292.2" font-family="Helvetica,sans-Serif" font-size="11.00">abbreviation</text>
<polygon fill="none" stroke="black" points="345,-266 345,-284 539,-284 539,-266 345,-266"/>
<text text-anchor="start" x="348" y="-272.2" font-family="Helvetica,sans-Serif" font-size="11.00">...</text>
<polygon fill="#ffffff" stroke="transparent" points="345,-248 345,-266 539,-266 539,-248 345,-248"/>
<polygon fill="none" stroke="black" points="345,-248 345,-266 539,-266 539,-248 345,-248"/>
<polygon fill="#ffffff" stroke="transparent" points="346,-249 346,-265 392,-265 392,-249 346,-249"/>
<text text-anchor="start" x="348" y="-254.2" font-family="Helvetica,sans-Serif" font-size="11.00"> &#160;</text>
<polygon fill="#ffffff" stroke="transparent" points="392,-249 392,-265 481,-265 481,-249 392,-249"/>
<text text-anchor="start" x="411" y="-254.2" font-family="Helvetica,sans-Serif" font-size="11.00">125 rows</text>
<polygon fill="#ffffff" stroke="transparent" points="481,-249 481,-265 538,-265 538,-249 481,-249"/>
<text text-anchor="start" x="516" y="-254.2" font-family="Helvetica,sans-Serif" font-size="11.00">3 &gt;</text>
<polygon fill="black" stroke="black" points="392,-249 392,-265 392,-265 392,-249 392,-249"/>
<polygon fill="black" stroke="black" points="481,-249 481,-265 481,-265 481,-249 481,-249"/>
</a>
</g>
</g>
<!-- structure_lt4m&#45;&gt;lookup_tree_species -->
<g id="edge4" class="edge">
<title>structure_lt4m:w&#45;&gt;lookup_tree_species:e</title>
<path fill="none" stroke="black" d="M575.77,-347.14C560.62,-333.36 567.52,-295 540,-295"/>
<polygon fill="black" stroke="black" points="581.96,-349.33 588.3,-355.39 585.73,-350.66 589.5,-352 589.5,-352 589.5,-352 585.73,-350.66 590.7,-348.61 581.96,-349.33 581.96,-349.33"/>
<ellipse fill="none" stroke="black" cx="578.94" cy="-348.26" rx="3.2" ry="3.2"/>
</g>
</g>
</svg>
