<?xml version="1.0" encoding="UTF-8" standalone="no"?>
<!DOCTYPE svg PUBLIC "-//W3C//DTD SVG 1.1//EN"
 "http://www.w3.org/Graphics/SVG/1.1/DTD/svg11.dtd">
<!-- Generated by graphviz version 2.43.0 (0)
 -->
<!-- Title: oneDegreeRelationshipsDiagram Pages: 1 -->
<svg width="1108pt" height="1283pt"
 viewBox="0.00 0.00 1108.00 1283.00" xmlns="http://www.w3.org/2000/svg" xmlns:xlink="http://www.w3.org/1999/xlink">
<g id="graph0" class="graph" transform="scale(1 1) rotate(0) translate(4 1279)">
<title>oneDegreeRelationshipsDiagram</title>
<polygon fill="#ffffff" stroke="transparent" points="-4,4 -4,-1279 1104,-1279 1104,4 -4,4"/>
<text text-anchor="middle" x="79.5" y="-7.2" font-family="Helvetica,sans-Serif" font-size="11.00">Generated by SchemaSpy</text>
<!-- plot -->
<g id="node1" class="node">
<title>plot</title>
<g id="a_node1"><a xlink:href="../../tables/plot.html" xlink:title="plot" target="_top">
<polygon fill="#ffffff" stroke="transparent" points="244,-817 244,-1271 532,-1271 532,-817 244,-817"/>
<polygon fill="#f5f5f5" stroke="transparent" points="244,-1249 244,-1271 532,-1271 532,-1249 244,-1249"/>
<polygon fill="none" stroke="black" points="244,-1249 244,-1271 532,-1271 532,-1249 244,-1249"/>
<text text-anchor="start" x="248.5" y="-1258.2" font-family="Helvetica,sans-Serif" font-weight="bold" font-size="11.00">plot</text>
<text text-anchor="start" x="490" y="-1257.2" font-family="Helvetica,sans-Serif" font-size="11.00">[table]</text>
<polygon fill="none" stroke="black" points="244,-1227 244,-1249 532,-1249 532,-1227 244,-1227"/>
<image xlink:href="../../images/primaryKeys.png" width="11px" height="12px" preserveAspectRatio="xMinYMin meet" x="249" y="-1244"/>
<text text-anchor="start" x="264" y="-1235.2" font-family="Helvetica,sans-Serif" font-size="11.00">id</text>
<polygon fill="#ffffff" stroke="transparent" points="244,-1205 244,-1227 532,-1227 532,-1205 244,-1205"/>
<polygon fill="none" stroke="black" points="244,-1205 244,-1227 532,-1227 532,-1205 244,-1205"/>
<image xlink:href="../../images/foreignKeys.png" width="11px" height="12px" preserveAspectRatio="xMinYMin meet" x="249" y="-1222"/>
<text text-anchor="start" x="264" y="-1213.2" font-family="Helvetica,sans-Serif" font-size="11.00">cluster_id</text>
<polygon fill="#ffffff" stroke="transparent" points="244,-1183 244,-1205 532,-1205 532,-1183 244,-1183"/>
<polygon fill="none" stroke="black" points="244,-1183 244,-1205 532,-1205 532,-1183 244,-1183"/>
<text text-anchor="start" x="264" y="-1191.2" font-family="Helvetica,sans-Serif" font-size="11.00">plot_name</text>
<polygon fill="none" stroke="black" points="244,-1161 244,-1183 532,-1183 532,-1161 244,-1161"/>
<image xlink:href="../../images/foreignKeys.png" width="11px" height="12px" preserveAspectRatio="xMinYMin meet" x="249" y="-1178"/>
<text text-anchor="start" x="264" y="-1169.2" font-family="Helvetica,sans-Serif" font-size="11.00">growth_district</text>
<polygon fill="none" stroke="black" points="244,-1139 244,-1161 532,-1161 532,-1139 244,-1139"/>
<image xlink:href="../../images/foreignKeys.png" width="11px" height="12px" preserveAspectRatio="xMinYMin meet" x="249" y="-1156"/>
<text text-anchor="start" x="264" y="-1147.2" font-family="Helvetica,sans-Serif" font-size="11.00">forest_status</text>
<polygon fill="none" stroke="black" points="244,-1117 244,-1139 532,-1139 532,-1117 244,-1117"/>
<image xlink:href="../../images/foreignKeys.png" width="11px" height="12px" preserveAspectRatio="xMinYMin meet" x="249" y="-1134"/>
<text text-anchor="start" x="264" y="-1125.2" font-family="Helvetica,sans-Serif" font-size="11.00">elevation_level</text>
<polygon fill="none" stroke="black" points="244,-1095 244,-1117 532,-1117 532,-1095 244,-1095"/>
<image xlink:href="../../images/foreignKeys.png" width="11px" height="12px" preserveAspectRatio="xMinYMin meet" x="249" y="-1112"/>
<text text-anchor="start" x="264" y="-1103.2" font-family="Helvetica,sans-Serif" font-size="11.00">property_type</text>
<polygon fill="none" stroke="black" points="244,-1073 244,-1095 532,-1095 532,-1073 244,-1073"/>
<image xlink:href="../../images/foreignKeys.png" width="11px" height="12px" preserveAspectRatio="xMinYMin meet" x="249" y="-1090"/>
<text text-anchor="start" x="264" y="-1081.2" font-family="Helvetica,sans-Serif" font-size="11.00">property_size_class</text>
<polygon fill="none" stroke="black" points="244,-1051 244,-1073 532,-1073 532,-1051 244,-1051"/>
<image xlink:href="../../images/foreignKeys.png" width="11px" height="12px" preserveAspectRatio="xMinYMin meet" x="249" y="-1068"/>
<text text-anchor="start" x="264" y="-1059.2" font-family="Helvetica,sans-Serif" font-size="11.00">land_use_after</text>
<polygon fill="none" stroke="black" points="244,-1029 244,-1051 532,-1051 532,-1029 244,-1029"/>
<image xlink:href="../../images/foreignKeys.png" width="11px" height="12px" preserveAspectRatio="xMinYMin meet" x="249" y="-1046"/>
<text text-anchor="start" x="264" y="-1037.2" font-family="Helvetica,sans-Serif" font-size="11.00">marker_status</text>
<polygon fill="none" stroke="black" points="244,-1007 244,-1029 532,-1029 532,-1007 244,-1007"/>
<image xlink:href="../../images/foreignKeys.png" width="11px" height="12px" preserveAspectRatio="xMinYMin meet" x="249" y="-1024"/>
<text text-anchor="start" x="264" y="-1015.2" font-family="Helvetica,sans-Serif" font-size="11.00">marker_profile</text>
<polygon fill="none" stroke="black" points="244,-985 244,-1007 532,-1007 532,-985 244,-985"/>
<image xlink:href="../../images/foreignKeys.png" width="11px" height="12px" preserveAspectRatio="xMinYMin meet" x="249" y="-1002"/>
<text text-anchor="start" x="264" y="-993.2" font-family="Helvetica,sans-Serif" font-size="11.00">terrain_form</text>
<polygon fill="none" stroke="black" points="244,-963 244,-985 532,-985 532,-963 244,-963"/>
<image xlink:href="../../images/foreignKeys.png" width="11px" height="12px" preserveAspectRatio="xMinYMin meet" x="249" y="-980"/>
<text text-anchor="start" x="264" y="-971.2" font-family="Helvetica,sans-Serif" font-size="11.00">management_type</text>
<polygon fill="none" stroke="black" points="244,-941 244,-963 532,-963 532,-941 244,-941"/>
<image xlink:href="../../images/foreignKeys.png" width="11px" height="12px" preserveAspectRatio="xMinYMin meet" x="249" y="-958"/>
<text text-anchor="start" x="264" y="-949.2" font-family="Helvetica,sans-Serif" font-size="11.00">harvesting_method</text>
<polygon fill="none" stroke="black" points="244,-919 244,-941 532,-941 532,-919 244,-919"/>
<image xlink:href="../../images/foreignKeys.png" width="11px" height="12px" preserveAspectRatio="xMinYMin meet" x="249" y="-936"/>
<text text-anchor="start" x="264" y="-927.2" font-family="Helvetica,sans-Serif" font-size="11.00">stand_structure</text>
<polygon fill="none" stroke="black" points="244,-897 244,-919 532,-919 532,-897 244,-897"/>
<image xlink:href="../../images/foreignKeys.png" width="11px" height="12px" preserveAspectRatio="xMinYMin meet" x="249" y="-914"/>
<text text-anchor="start" x="264" y="-905.2" font-family="Helvetica,sans-Serif" font-size="11.00">stand_dev_phase</text>
<polygon fill="none" stroke="black" points="244,-875 244,-897 532,-897 532,-875 244,-875"/>
<image xlink:href="../../images/foreignKeys.png" width="11px" height="12px" preserveAspectRatio="xMinYMin meet" x="249" y="-892"/>
<text text-anchor="start" x="264" y="-883.2" font-family="Helvetica,sans-Serif" font-size="11.00">stand_layer_reg</text>
<polygon fill="none" stroke="black" points="244,-853 244,-875 532,-875 532,-853 244,-853"/>
<image xlink:href="../../images/foreignKeys.png" width="11px" height="12px" preserveAspectRatio="xMinYMin meet" x="249" y="-870"/>
<text text-anchor="start" x="264" y="-861.2" font-family="Helvetica,sans-Serif" font-size="11.00">trees_less_4meter_mirrored</text>
<polygon fill="none" stroke="black" points="244,-835 244,-853 532,-853 532,-835 244,-835"/>
<text text-anchor="start" x="247" y="-841.2" font-family="Helvetica,sans-Serif" font-size="11.00">...</text>
<polygon fill="#ffffff" stroke="transparent" points="244,-817 244,-835 532,-835 532,-817 244,-817"/>
<polygon fill="none" stroke="black" points="244,-817 244,-835 532,-835 532,-817 244,-817"/>
<polygon fill="#ffffff" stroke="transparent" points="245,-818 245,-834 340,-834 340,-818 245,-818"/>
<text text-anchor="start" x="247" y="-823.2" font-family="Helvetica,sans-Serif" font-size="11.00">&lt; 16</text>
<polygon fill="#ffffff" stroke="transparent" points="340,-818 340,-834 444,-834 444,-818 340,-818"/>
<text text-anchor="start" x="373.5" y="-823.2" font-family="Helvetica,sans-Serif" font-size="11.00">0 rows</text>
<polygon fill="#ffffff" stroke="transparent" points="444,-818 444,-834 531,-834 531,-818 444,-818"/>
<text text-anchor="start" x="509" y="-823.2" font-family="Helvetica,sans-Serif" font-size="11.00">7 &gt;</text>
<polygon fill="black" stroke="black" points="340,-818 340,-834 340,-834 340,-818 340,-818"/>
<polygon fill="black" stroke="black" points="444,-818 444,-834 444,-834 444,-818 444,-818"/>
</a>
</g>
</g>
<!-- lookup_stand_layer -->
<g id="node2" class="node">
<title>lookup_stand_layer</title>
<g id="a_node2"><a xlink:href="../../tables/lookup_stand_layer.html" xlink:title="lookup_stand_layer" target="_top">
<polygon fill="#ffffff" stroke="transparent" points="8,-540 8,-620 195,-620 195,-540 8,-540"/>
<polygon fill="#f5f5f5" stroke="transparent" points="8.5,-598 8.5,-620 195.5,-620 195.5,-598 8.5,-598"/>
<polygon fill="none" stroke="black" points="8.5,-598 8.5,-620 195.5,-620 195.5,-598 8.5,-598"/>
<text text-anchor="start" x="13.5" y="-607.2" font-family="Helvetica,sans-Serif" font-weight="bold" font-size="11.00">lookup_stand_layer</text>
<text text-anchor="start" x="153.5" y="-606.2" font-family="Helvetica,sans-Serif" font-size="11.00">[table]</text>
<polygon fill="#ffffff" stroke="transparent" points="8.5,-576 8.5,-598 195.5,-598 195.5,-576 8.5,-576"/>
<polygon fill="none" stroke="black" points="8.5,-576 8.5,-598 195.5,-598 195.5,-576 8.5,-576"/>
<text text-anchor="start" x="41.5" y="-584.2" font-family="Helvetica,sans-Serif" font-size="11.00">abbreviation</text>
<polygon fill="none" stroke="black" points="8.5,-558 8.5,-576 195.5,-576 195.5,-558 8.5,-558"/>
<text text-anchor="start" x="11.5" y="-564.2" font-family="Helvetica,sans-Serif" font-size="11.00">...</text>
<polygon fill="#ffffff" stroke="transparent" points="8.5,-540 8.5,-558 195.5,-558 195.5,-540 8.5,-540"/>
<polygon fill="none" stroke="black" points="8.5,-540 8.5,-558 195.5,-558 195.5,-540 8.5,-540"/>
<polygon fill="#ffffff" stroke="transparent" points="9.5,-541 9.5,-557 57.5,-557 57.5,-541 9.5,-541"/>
<text text-anchor="start" x="11.5" y="-546.2" font-family="Helvetica,sans-Serif" font-size="11.00"> &#160;</text>
<polygon fill="#ffffff" stroke="transparent" points="57.5,-541 57.5,-557 134.5,-557 134.5,-541 57.5,-541"/>
<text text-anchor="start" x="77.5" y="-546.2" font-family="Helvetica,sans-Serif" font-size="11.00">0 rows</text>
<polygon fill="#ffffff" stroke="transparent" points="134.5,-541 134.5,-557 194.5,-557 194.5,-541 134.5,-541"/>
<text text-anchor="start" x="172.5" y="-546.2" font-family="Helvetica,sans-Serif" font-size="11.00">2 &gt;</text>
<polygon fill="black" stroke="black" points="57.5,-541 57.5,-557 57.5,-557 57.5,-541 57.5,-541"/>
<polygon fill="black" stroke="black" points="134.5,-541 134.5,-557 134.5,-557 134.5,-541 134.5,-541"/>
</a>
</g>
</g>
<!-- plot&#45;&gt;lookup_stand_layer -->
<g id="edge1" class="edge">
<title>plot:w&#45;&gt;lookup_stand_layer:e</title>
<path fill="none" stroke="black" d="M229.41,-880.29C189.15,-838.96 258.23,-587 196.5,-587"/>
<polygon fill="black" stroke="black" points="235.62,-882.9 241.61,-889.32 239.31,-884.45 243,-886 243,-886 243,-886 239.31,-884.45 244.39,-882.68 235.62,-882.9 235.62,-882.9"/>
<ellipse fill="none" stroke="black" cx="232.67" cy="-881.66" rx="3.2" ry="3.2"/>
</g>
<!-- wzp_tree -->
<g id="node3" class="node">
<title>wzp_tree</title>
<g id="a_node3"><a xlink:href="../../tables/wzp_tree.html" xlink:title="wzp_tree" target="_top">
<polygon fill="#ffffff" stroke="transparent" points="581,-37 581,-939 1092,-939 1092,-37 581,-37"/>
<polygon fill="#f5f5f5" stroke="transparent" points="583.5,-915 583.5,-937 1090.5,-937 1090.5,-915 583.5,-915"/>
<polygon fill="none" stroke="black" points="583.5,-915 583.5,-937 1090.5,-937 1090.5,-915 583.5,-915"/>
<text text-anchor="start" x="588.5" y="-924.2" font-family="Helvetica,sans-Serif" font-weight="bold" font-size="11.00">wzp_tree</text>
<text text-anchor="start" x="1048.5" y="-923.2" font-family="Helvetica,sans-Serif" font-size="11.00">[table]</text>
<polygon fill="none" stroke="black" points="583.5,-893 583.5,-915 756.5,-915 756.5,-893 583.5,-893"/>
<image xlink:href="../../images/primaryKeys.png" width="11px" height="12px" preserveAspectRatio="xMinYMin meet" x="588.5" y="-910"/>
<text text-anchor="start" x="603.5" y="-901.2" font-family="Helvetica,sans-Serif" font-size="11.00">id</text>
<polygon fill="none" stroke="black" points="756.5,-893 756.5,-915 1090.5,-915 1090.5,-893 756.5,-893"/>
<text text-anchor="start" x="759.5" y="-901.2" font-family="Helvetica,sans-Serif" font-size="11.00">serial[10]</text>
<polygon fill="none" stroke="black" points="583.5,-871 583.5,-893 756.5,-893 756.5,-871 583.5,-871"/>
<image xlink:href="../../images/foreignKeys.png" width="11px" height="12px" preserveAspectRatio="xMinYMin meet" x="588.5" y="-888"/>
<text text-anchor="start" x="603.5" y="-879.2" font-family="Helvetica,sans-Serif" font-size="11.00">plot_id</text>
<polygon fill="none" stroke="black" points="756.5,-871 756.5,-893 1090.5,-893 1090.5,-871 756.5,-871"/>
<text text-anchor="start" x="759.5" y="-879.2" font-family="Helvetica,sans-Serif" font-size="11.00">int4[10]</text>
<polygon fill="none" stroke="black" points="583.5,-849 583.5,-871 756.5,-871 756.5,-849 583.5,-849"/>
<text text-anchor="start" x="603.5" y="-857.2" font-family="Helvetica,sans-Serif" font-size="11.00">created_at</text>
<polygon fill="none" stroke="black" points="756.5,-849 756.5,-871 1090.5,-871 1090.5,-849 756.5,-849"/>
<text text-anchor="start" x="759.5" y="-857.2" font-family="Helvetica,sans-Serif" font-size="11.00">timestamp[29,6]</text>
<polygon fill="none" stroke="black" points="583.5,-827 583.5,-849 756.5,-849 756.5,-827 583.5,-827"/>
<text text-anchor="start" x="603.5" y="-835.2" font-family="Helvetica,sans-Serif" font-size="11.00">modified_at</text>
<polygon fill="none" stroke="black" points="756.5,-827 756.5,-849 1090.5,-849 1090.5,-827 756.5,-827"/>
<text text-anchor="start" x="759.5" y="-835.2" font-family="Helvetica,sans-Serif" font-size="11.00">timestamp[29,6]</text>
<polygon fill="none" stroke="black" points="583.5,-805 583.5,-827 756.5,-827 756.5,-805 583.5,-805"/>
<text text-anchor="start" x="603.5" y="-813.2" font-family="Helvetica,sans-Serif" font-size="11.00">modified_by</text>
<polygon fill="none" stroke="black" points="756.5,-805 756.5,-827 1090.5,-827 1090.5,-805 756.5,-805"/>
<text text-anchor="start" x="759.5" y="-813.2" font-family="Helvetica,sans-Serif" font-size="11.00">regrole[2147483647]</text>
<polygon fill="none" stroke="black" points="583.5,-783 583.5,-805 756.5,-805 756.5,-783 583.5,-783"/>
<text text-anchor="start" x="603.5" y="-791.2" font-family="Helvetica,sans-Serif" font-size="11.00">tree_number</text>
<polygon fill="none" stroke="black" points="756.5,-783 756.5,-805 1090.5,-805 1090.5,-783 756.5,-783"/>
<text text-anchor="start" x="759.5" y="-791.2" font-family="Helvetica,sans-Serif" font-size="11.00">int2[5]</text>
<polygon fill="none" stroke="black" points="583.5,-761 583.5,-783 756.5,-783 756.5,-761 583.5,-761"/>
<text text-anchor="start" x="603.5" y="-769.2" font-family="Helvetica,sans-Serif" font-size="11.00">tree_marked</text>
<polygon fill="none" stroke="black" points="756.5,-761 756.5,-783 1090.5,-783 1090.5,-761 756.5,-761"/>
<text text-anchor="start" x="759.5" y="-769.2" font-family="Helvetica,sans-Serif" font-size="11.00">bool[1]</text>
<polygon fill="none" stroke="black" points="583.5,-739 583.5,-761 756.5,-761 756.5,-739 583.5,-739"/>
<image xlink:href="../../images/foreignKeys.png" width="11px" height="12px" preserveAspectRatio="xMinYMin meet" x="588.5" y="-756"/>
<text text-anchor="start" x="603.5" y="-747.2" font-family="Helvetica,sans-Serif" font-size="11.00">tree_status</text>
<polygon fill="none" stroke="black" points="756.5,-739 756.5,-761 1090.5,-761 1090.5,-739 756.5,-739"/>
<text text-anchor="start" x="759.5" y="-747.2" font-family="Helvetica,sans-Serif" font-size="11.00">&quot;private_ci2027_001&quot;.&quot;enum_tree_status&quot;[2147483647]</text>
<polygon fill="none" stroke="black" points="583.5,-717 583.5,-739 756.5,-739 756.5,-717 583.5,-717"/>
<text text-anchor="start" x="603.5" y="-725.2" font-family="Helvetica,sans-Serif" font-size="11.00">azimuth</text>
<polygon fill="none" stroke="black" points="756.5,-717 756.5,-739 1090.5,-739 1090.5,-717 756.5,-717"/>
<text text-anchor="start" x="759.5" y="-725.2" font-family="Helvetica,sans-Serif" font-size="11.00">&quot;private_ci2027_001&quot;.&quot;ck_gon&quot;[5]</text>
<polygon fill="none" stroke="black" points="583.5,-695 583.5,-717 756.5,-717 756.5,-695 583.5,-695"/>
<text text-anchor="start" x="603.5" y="-703.2" font-family="Helvetica,sans-Serif" font-size="11.00">distance</text>
<polygon fill="none" stroke="black" points="756.5,-695 756.5,-717 1090.5,-717 1090.5,-695 756.5,-695"/>
<text text-anchor="start" x="759.5" y="-703.2" font-family="Helvetica,sans-Serif" font-size="11.00">int2[5]</text>
<polygon fill="none" stroke="black" points="583.5,-673 583.5,-695 756.5,-695 756.5,-673 583.5,-673"/>
<text text-anchor="start" x="603.5" y="-681.2" font-family="Helvetica,sans-Serif" font-size="11.00">geometry</text>
<polygon fill="none" stroke="black" points="756.5,-673 756.5,-695 1090.5,-695 1090.5,-673 756.5,-673"/>
<text text-anchor="start" x="759.5" y="-681.2" font-family="Helvetica,sans-Serif" font-size="11.00">geometry[2147483647]</text>
<polygon fill="none" stroke="black" points="583.5,-651 583.5,-673 756.5,-673 756.5,-651 583.5,-651"/>
<image xlink:href="../../images/foreignKeys.png" width="11px" height="12px" preserveAspectRatio="xMinYMin meet" x="588.5" y="-668"/>
<text text-anchor="start" x="603.5" y="-659.2" font-family="Helvetica,sans-Serif" font-size="11.00">tree_species</text>
<polygon fill="none" stroke="black" points="756.5,-651 756.5,-673 1090.5,-673 1090.5,-651 756.5,-651"/>
<text text-anchor="start" x="759.5" y="-659.2" font-family="Helvetica,sans-Serif" font-size="11.00">int2[5]</text>
<polygon fill="none" stroke="black" points="583.5,-629 583.5,-651 756.5,-651 756.5,-629 583.5,-629"/>
<text text-anchor="start" x="603.5" y="-637.2" font-family="Helvetica,sans-Serif" font-size="11.00">bhd</text>
<polygon fill="none" stroke="black" points="756.5,-629 756.5,-651 1090.5,-651 1090.5,-629 756.5,-629"/>
<text text-anchor="start" x="759.5" y="-637.2" font-family="Helvetica,sans-Serif" font-size="11.00">&quot;private_ci2027_001&quot;.&quot;ck_bhd&quot;[10]</text>
<polygon fill="none" stroke="black" points="583.5,-607 583.5,-629 756.5,-629 756.5,-607 583.5,-607"/>
<text text-anchor="start" x="603.5" y="-615.2" font-family="Helvetica,sans-Serif" font-size="11.00">bhd_height</text>
<polygon fill="none" stroke="black" points="756.5,-607 756.5,-629 1090.5,-629 1090.5,-607 756.5,-607"/>
<text text-anchor="start" x="759.5" y="-615.2" font-family="Helvetica,sans-Serif" font-size="11.00">int2[5]</text>
<polygon fill="none" stroke="black" points="583.5,-585 583.5,-607 756.5,-607 756.5,-585 583.5,-585"/>
<text text-anchor="start" x="603.5" y="-593.2" font-family="Helvetica,sans-Serif" font-size="11.00">tree_height</text>
<polygon fill="none" stroke="black" points="756.5,-585 756.5,-607 1090.5,-607 1090.5,-585 756.5,-585"/>
<text text-anchor="start" x="759.5" y="-593.2" font-family="Helvetica,sans-Serif" font-size="11.00">int2[5]</text>
<polygon fill="none" stroke="black" points="583.5,-563 583.5,-585 756.5,-585 756.5,-563 583.5,-563"/>
<text text-anchor="start" x="603.5" y="-571.2" font-family="Helvetica,sans-Serif" font-size="11.00">stem_height</text>
<polygon fill="none" stroke="black" points="756.5,-563 756.5,-585 1090.5,-585 1090.5,-563 756.5,-563"/>
<text text-anchor="start" x="759.5" y="-571.2" font-family="Helvetica,sans-Serif" font-size="11.00">int2[5]</text>
<polygon fill="none" stroke="black" points="583.5,-541 583.5,-563 756.5,-563 756.5,-541 583.5,-541"/>
<text text-anchor="start" x="603.5" y="-549.2" font-family="Helvetica,sans-Serif" font-size="11.00">tree_height_azimuth</text>
<polygon fill="none" stroke="black" points="756.5,-541 756.5,-563 1090.5,-563 1090.5,-541 756.5,-541"/>
<text text-anchor="start" x="759.5" y="-549.2" font-family="Helvetica,sans-Serif" font-size="11.00">int2[5]</text>
<polygon fill="none" stroke="black" points="583.5,-519 583.5,-541 756.5,-541 756.5,-519 583.5,-519"/>
<text text-anchor="start" x="603.5" y="-527.2" font-family="Helvetica,sans-Serif" font-size="11.00">tree_height_distance</text>
<polygon fill="none" stroke="black" points="756.5,-519 756.5,-541 1090.5,-541 1090.5,-519 756.5,-519"/>
<text text-anchor="start" x="759.5" y="-527.2" font-family="Helvetica,sans-Serif" font-size="11.00">int2[5]</text>
<polygon fill="none" stroke="black" points="583.5,-497 583.5,-519 756.5,-519 756.5,-497 583.5,-497"/>
<text text-anchor="start" x="603.5" y="-505.2" font-family="Helvetica,sans-Serif" font-size="11.00">tree_age</text>
<polygon fill="none" stroke="black" points="756.5,-497 756.5,-519 1090.5,-519 1090.5,-497 756.5,-497"/>
<text text-anchor="start" x="759.5" y="-505.2" font-family="Helvetica,sans-Serif" font-size="11.00">int2[5]</text>
<polygon fill="none" stroke="black" points="583.5,-475 583.5,-497 756.5,-497 756.5,-475 583.5,-475"/>
<image xlink:href="../../images/foreignKeys.png" width="11px" height="12px" preserveAspectRatio="xMinYMin meet" x="588.5" y="-492"/>
<text text-anchor="start" x="603.5" y="-483.2" font-family="Helvetica,sans-Serif" font-size="11.00">stem_breakage</text>
<polygon fill="none" stroke="black" points="756.5,-475 756.5,-497 1090.5,-497 1090.5,-475 756.5,-475"/>
<text text-anchor="start" x="759.5" y="-483.2" font-family="Helvetica,sans-Serif" font-size="11.00">&quot;private_ci2027_001&quot;.&quot;enum_stem_breakage&quot;[2147483647]</text>
<polygon fill="none" stroke="black" points="583.5,-453 583.5,-475 756.5,-475 756.5,-453 583.5,-453"/>
<image xlink:href="../../images/foreignKeys.png" width="11px" height="12px" preserveAspectRatio="xMinYMin meet" x="588.5" y="-470"/>
<text text-anchor="start" x="603.5" y="-461.2" font-family="Helvetica,sans-Serif" font-size="11.00">stem_form</text>
<polygon fill="none" stroke="black" points="756.5,-453 756.5,-475 1090.5,-475 1090.5,-453 756.5,-453"/>
<text text-anchor="start" x="759.5" y="-461.2" font-family="Helvetica,sans-Serif" font-size="11.00">&quot;private_ci2027_001&quot;.&quot;enum_stem_form&quot;[2147483647]</text>
<polygon fill="none" stroke="black" points="583.5,-431 583.5,-453 756.5,-453 756.5,-431 583.5,-431"/>
<image xlink:href="../../images/foreignKeys.png" width="11px" height="12px" preserveAspectRatio="xMinYMin meet" x="588.5" y="-448"/>
<text text-anchor="start" x="603.5" y="-439.2" font-family="Helvetica,sans-Serif" font-size="11.00">pruning</text>
<polygon fill="none" stroke="black" points="756.5,-431 756.5,-453 1090.5,-453 1090.5,-431 756.5,-431"/>
<text text-anchor="start" x="759.5" y="-439.2" font-family="Helvetica,sans-Serif" font-size="11.00">&quot;private_ci2027_001&quot;.&quot;enum_pruning&quot;[2147483647]</text>
<polygon fill="none" stroke="black" points="583.5,-409 583.5,-431 756.5,-431 756.5,-409 583.5,-409"/>
<text text-anchor="start" x="603.5" y="-417.2" font-family="Helvetica,sans-Serif" font-size="11.00">pruning_height</text>
<polygon fill="none" stroke="black" points="756.5,-409 756.5,-431 1090.5,-431 1090.5,-409 756.5,-409"/>
<text text-anchor="start" x="759.5" y="-417.2" font-family="Helvetica,sans-Serif" font-size="11.00">int2[5]</text>
<polygon fill="none" stroke="black" points="583.5,-387 583.5,-409 756.5,-409 756.5,-387 583.5,-387"/>
<text text-anchor="start" x="603.5" y="-395.2" font-family="Helvetica,sans-Serif" font-size="11.00">within_stand</text>
<polygon fill="none" stroke="black" points="756.5,-387 756.5,-409 1090.5,-409 1090.5,-387 756.5,-387"/>
<text text-anchor="start" x="759.5" y="-395.2" font-family="Helvetica,sans-Serif" font-size="11.00">bool[1]</text>
<polygon fill="none" stroke="black" points="583.5,-365 583.5,-387 756.5,-387 756.5,-365 583.5,-365"/>
<image xlink:href="../../images/foreignKeys.png" width="11px" height="12px" preserveAspectRatio="xMinYMin meet" x="588.5" y="-382"/>
<text text-anchor="start" x="603.5" y="-373.2" font-family="Helvetica,sans-Serif" font-size="11.00">stand_layer</text>
<polygon fill="none" stroke="black" points="756.5,-365 756.5,-387 1090.5,-387 1090.5,-365 756.5,-365"/>
<text text-anchor="start" x="759.5" y="-373.2" font-family="Helvetica,sans-Serif" font-size="11.00">&quot;private_ci2027_001&quot;.&quot;enum_stand_layer&quot;[2147483647]</text>
<polygon fill="none" stroke="black" points="583.5,-343 583.5,-365 756.5,-365 756.5,-343 583.5,-343"/>
<text text-anchor="start" x="603.5" y="-351.2" font-family="Helvetica,sans-Serif" font-size="11.00">damage_dead</text>
<polygon fill="none" stroke="black" points="756.5,-343 756.5,-365 1090.5,-365 1090.5,-343 756.5,-343"/>
<text text-anchor="start" x="759.5" y="-351.2" font-family="Helvetica,sans-Serif" font-size="11.00">bool[1]</text>
<polygon fill="none" stroke="black" points="583.5,-321 583.5,-343 756.5,-343 756.5,-321 583.5,-321"/>
<text text-anchor="start" x="603.5" y="-329.2" font-family="Helvetica,sans-Serif" font-size="11.00">damage_peel_new</text>
<polygon fill="none" stroke="black" points="756.5,-321 756.5,-343 1090.5,-343 1090.5,-321 756.5,-321"/>
<text text-anchor="start" x="759.5" y="-329.2" font-family="Helvetica,sans-Serif" font-size="11.00">bool[1]</text>
<polygon fill="none" stroke="black" points="583.5,-299 583.5,-321 756.5,-321 756.5,-299 583.5,-299"/>
<text text-anchor="start" x="603.5" y="-307.2" font-family="Helvetica,sans-Serif" font-size="11.00">damage_peel_old</text>
<polygon fill="none" stroke="black" points="756.5,-299 756.5,-321 1090.5,-321 1090.5,-299 756.5,-299"/>
<text text-anchor="start" x="759.5" y="-307.2" font-family="Helvetica,sans-Serif" font-size="11.00">bool[1]</text>
<polygon fill="none" stroke="black" points="583.5,-277 583.5,-299 756.5,-299 756.5,-277 583.5,-277"/>
<text text-anchor="start" x="603.5" y="-285.2" font-family="Helvetica,sans-Serif" font-size="11.00">damage_logging</text>
<polygon fill="none" stroke="black" points="756.5,-277 756.5,-299 1090.5,-299 1090.5,-277 756.5,-277"/>
<text text-anchor="start" x="759.5" y="-285.2" font-family="Helvetica,sans-Serif" font-size="11.00">bool[1]</text>
<polygon fill="none" stroke="black" points="583.5,-255 583.5,-277 756.5,-277 756.5,-255 583.5,-255"/>
<text text-anchor="start" x="603.5" y="-263.2" font-family="Helvetica,sans-Serif" font-size="11.00">damage_fungus</text>
<polygon fill="none" stroke="black" points="756.5,-255 756.5,-277 1090.5,-277 1090.5,-255 756.5,-255"/>
<text text-anchor="start" x="759.5" y="-263.2" font-family="Helvetica,sans-Serif" font-size="11.00">bool[1]</text>
<polygon fill="none" stroke="black" points="583.5,-233 583.5,-255 756.5,-255 756.5,-233 583.5,-233"/>
<text text-anchor="start" x="603.5" y="-241.2" font-family="Helvetica,sans-Serif" font-size="11.00">damage_resin</text>
<polygon fill="none" stroke="black" points="756.5,-233 756.5,-255 1090.5,-255 1090.5,-233 756.5,-233"/>
<text text-anchor="start" x="759.5" y="-241.2" font-family="Helvetica,sans-Serif" font-size="11.00">bool[1]</text>
<polygon fill="none" stroke="black" points="583.5,-211 583.5,-233 756.5,-233 756.5,-211 583.5,-211"/>
<text text-anchor="start" x="603.5" y="-219.2" font-family="Helvetica,sans-Serif" font-size="11.00">damage_beetle</text>
<polygon fill="none" stroke="black" points="756.5,-211 756.5,-233 1090.5,-233 1090.5,-211 756.5,-211"/>
<text text-anchor="start" x="759.5" y="-219.2" font-family="Helvetica,sans-Serif" font-size="11.00">bool[1]</text>
<polygon fill="none" stroke="black" points="583.5,-189 583.5,-211 756.5,-211 756.5,-189 583.5,-189"/>
<text text-anchor="start" x="603.5" y="-197.2" font-family="Helvetica,sans-Serif" font-size="11.00">damage_other</text>
<polygon fill="none" stroke="black" points="756.5,-189 756.5,-211 1090.5,-211 1090.5,-189 756.5,-189"/>
<text text-anchor="start" x="759.5" y="-197.2" font-family="Helvetica,sans-Serif" font-size="11.00">bool[1]</text>
<polygon fill="none" stroke="black" points="583.5,-167 583.5,-189 756.5,-189 756.5,-167 583.5,-167"/>
<text text-anchor="start" x="603.5" y="-175.2" font-family="Helvetica,sans-Serif" font-size="11.00">cave_tree</text>
<polygon fill="none" stroke="black" points="756.5,-167 756.5,-189 1090.5,-189 1090.5,-167 756.5,-167"/>
<text text-anchor="start" x="759.5" y="-175.2" font-family="Helvetica,sans-Serif" font-size="11.00">bool[1]</text>
<polygon fill="none" stroke="black" points="583.5,-145 583.5,-167 756.5,-167 756.5,-145 583.5,-145"/>
<text text-anchor="start" x="603.5" y="-153.2" font-family="Helvetica,sans-Serif" font-size="11.00">crown_dead_wood</text>
<polygon fill="none" stroke="black" points="756.5,-145 756.5,-167 1090.5,-167 1090.5,-145 756.5,-145"/>
<text text-anchor="start" x="759.5" y="-153.2" font-family="Helvetica,sans-Serif" font-size="11.00">bool[1]</text>
<polygon fill="none" stroke="black" points="583.5,-123 583.5,-145 756.5,-145 756.5,-123 583.5,-123"/>
<text text-anchor="start" x="603.5" y="-131.2" font-family="Helvetica,sans-Serif" font-size="11.00">tree_top_drought</text>
<polygon fill="none" stroke="black" points="756.5,-123 756.5,-145 1090.5,-145 1090.5,-123 756.5,-123"/>
<text text-anchor="start" x="759.5" y="-131.2" font-family="Helvetica,sans-Serif" font-size="11.00">bool[1]</text>
<polygon fill="none" stroke="black" points="583.5,-101 583.5,-123 756.5,-123 756.5,-101 583.5,-101"/>
<text text-anchor="start" x="603.5" y="-109.2" font-family="Helvetica,sans-Serif" font-size="11.00">bark_pocket</text>
<polygon fill="none" stroke="black" points="756.5,-101 756.5,-123 1090.5,-123 1090.5,-101 756.5,-101"/>
<text text-anchor="start" x="759.5" y="-109.2" font-family="Helvetica,sans-Serif" font-size="11.00">bool[1]</text>
<polygon fill="none" stroke="black" points="583.5,-79 583.5,-101 756.5,-101 756.5,-79 583.5,-79"/>
<text text-anchor="start" x="603.5" y="-87.2" font-family="Helvetica,sans-Serif" font-size="11.00">biotope_marked</text>
<polygon fill="none" stroke="black" points="756.5,-79 756.5,-101 1090.5,-101 1090.5,-79 756.5,-79"/>
<text text-anchor="start" x="759.5" y="-87.2" font-family="Helvetica,sans-Serif" font-size="11.00">bool[1]</text>
<polygon fill="none" stroke="black" points="583.5,-57 583.5,-79 756.5,-79 756.5,-57 583.5,-57"/>
<text text-anchor="start" x="603.5" y="-65.2" font-family="Helvetica,sans-Serif" font-size="11.00">bark_condition</text>
<polygon fill="none" stroke="black" points="756.5,-57 756.5,-79 1090.5,-79 1090.5,-57 756.5,-57"/>
<text text-anchor="start" x="759.5" y="-65.2" font-family="Helvetica,sans-Serif" font-size="11.00">int2[5]</text>
<polygon fill="#ffffff" stroke="transparent" points="583.5,-39 583.5,-57 1090.5,-57 1090.5,-39 583.5,-39"/>
<polygon fill="none" stroke="black" points="583.5,-39 583.5,-57 1090.5,-57 1090.5,-39 583.5,-39"/>
<polygon fill="#ffffff" stroke="transparent" points="584.5,-40 584.5,-56 747.5,-56 747.5,-40 584.5,-40"/>
<text text-anchor="start" x="586.5" y="-45.2" font-family="Helvetica,sans-Serif" font-size="11.00">&lt; 7</text>
<polygon fill="#ffffff" stroke="transparent" points="747.5,-40 747.5,-56 927.5,-56 927.5,-40 747.5,-40"/>
<text text-anchor="start" x="819" y="-45.2" font-family="Helvetica,sans-Serif" font-size="11.00">0 rows</text>
<polygon fill="#ffffff" stroke="transparent" points="927.5,-40 927.5,-56 1089.5,-56 1089.5,-40 927.5,-40"/>
<text text-anchor="start" x="1067.5" y="-45.2" font-family="Helvetica,sans-Serif" font-size="11.00">0 &gt;</text>
<polygon fill="black" stroke="black" points="747.5,-40 747.5,-56 747.5,-56 747.5,-40 747.5,-40"/>
<polygon fill="black" stroke="black" points="927.5,-40 927.5,-56 927.5,-56 927.5,-40 927.5,-40"/>
<polygon fill="none" stroke="black" stroke-width="2" points="582,-38 582,-938 1091,-938 1091,-38 582,-38"/>
</a>
</g>
</g>
<!-- wzp_tree&#45;&gt;plot -->
<g id="edge2" class="edge">
<title>wzp_tree:w&#45;&gt;plot:e</title>
<path fill="none" stroke="black" d="M567.98,-883.15C440.21,-905.25 687.44,-1238 533,-1238"/>
<polygon fill="black" stroke="black" points="574.53,-882.63 582.78,-885.59 578.51,-882.32 582.5,-882 582.5,-882 582.5,-882 578.51,-882.32 582.22,-878.41 574.53,-882.63 574.53,-882.63"/>
<ellipse fill="none" stroke="black" cx="571.34" cy="-882.89" rx="3.2" ry="3.2"/>
</g>
<!-- wzp_tree&#45;&gt;lookup_stand_layer -->
<g id="edge4" class="edge">
<title>wzp_tree:w&#45;&gt;lookup_stand_layer:e</title>
<path fill="none" stroke="black" d="M568.5,-371.91C552.01,-358.7 567.67,-317.13 540,-301 423.26,-232.97 337.86,-212.24 236,-301 187.63,-343.15 260.66,-587 196.5,-587"/>
<polygon fill="black" stroke="black" points="574.82,-373.76 581.49,-379.46 578.66,-374.88 582.5,-376 582.5,-376 582.5,-376 578.66,-374.88 583.51,-372.54 574.82,-373.76 574.82,-373.76"/>
<ellipse fill="none" stroke="black" cx="571.75" cy="-372.86" rx="3.2" ry="3.2"/>
</g>
<!-- lookup_pruning -->
<g id="node4" class="node">
<title>lookup_pruning</title>
<g id="a_node4"><a xlink:href="../../tables/lookup_pruning.html" xlink:title="lookup_pruning" target="_top">
<polygon fill="#ffffff" stroke="transparent" points="308,-312 308,-392 468,-392 468,-312 308,-312"/>
<polygon fill="#f5f5f5" stroke="transparent" points="308,-370 308,-392 468,-392 468,-370 308,-370"/>
<polygon fill="none" stroke="black" points="308,-370 308,-392 468,-392 468,-370 308,-370"/>
<text text-anchor="start" x="313" y="-379.2" font-family="Helvetica,sans-Serif" font-weight="bold" font-size="11.00">lookup_pruning</text>
<text text-anchor="start" x="426" y="-378.2" font-family="Helvetica,sans-Serif" font-size="11.00">[table]</text>
<polygon fill="#ffffff" stroke="transparent" points="308,-348 308,-370 468,-370 468,-348 308,-348"/>
<polygon fill="none" stroke="black" points="308,-348 308,-370 468,-370 468,-348 308,-348"/>
<text text-anchor="start" x="341" y="-356.2" font-family="Helvetica,sans-Serif" font-size="11.00">abbreviation</text>
<polygon fill="none" stroke="black" points="308,-330 308,-348 468,-348 468,-330 308,-330"/>
<text text-anchor="start" x="311" y="-336.2" font-family="Helvetica,sans-Serif" font-size="11.00">...</text>
<polygon fill="#ffffff" stroke="transparent" points="308,-312 308,-330 468,-330 468,-312 308,-312"/>
<polygon fill="none" stroke="black" points="308,-312 308,-330 468,-330 468,-312 308,-312"/>
<polygon fill="#ffffff" stroke="transparent" points="309,-313 309,-329 348,-329 348,-313 309,-313"/>
<text text-anchor="start" x="311" y="-318.2" font-family="Helvetica,sans-Serif" font-size="11.00"> &#160;</text>
<polygon fill="#ffffff" stroke="transparent" points="348,-313 348,-329 416,-329 416,-313 348,-313"/>
<text text-anchor="start" x="363.5" y="-318.2" font-family="Helvetica,sans-Serif" font-size="11.00">0 rows</text>
<polygon fill="#ffffff" stroke="transparent" points="416,-313 416,-329 467,-329 467,-313 416,-313"/>
<text text-anchor="start" x="445" y="-318.2" font-family="Helvetica,sans-Serif" font-size="11.00">1 &gt;</text>
<polygon fill="black" stroke="black" points="348,-313 348,-329 348,-329 348,-313 348,-313"/>
<polygon fill="black" stroke="black" points="416,-313 416,-329 416,-329 416,-313 416,-313"/>
</a>
</g>
</g>
<!-- wzp_tree&#45;&gt;lookup_pruning -->
<g id="edge3" class="edge">
<title>wzp_tree:w&#45;&gt;lookup_pruning:e</title>
<path fill="none" stroke="black" d="M568.51,-438.42C557.12,-431.08 555.81,-414.02 540,-402 510.63,-379.68 505.89,-359 469,-359"/>
<polygon fill="black" stroke="black" points="574.75,-440.02 581.61,-445.49 578.62,-441.01 582.5,-442 582.5,-442 582.5,-442 578.62,-441.01 583.39,-438.51 574.75,-440.02 574.75,-440.02"/>
<ellipse fill="none" stroke="black" cx="571.65" cy="-439.22" rx="3.2" ry="3.2"/>
</g>
<!-- lookup_stem_breakage -->
<g id="node5" class="node">
<title>lookup_stem_breakage</title>
<g id="a_node5"><a xlink:href="../../tables/lookup_stem_breakage.html" xlink:title="lookup_stem_breakage" target="_top">
<polygon fill="#ffffff" stroke="transparent" points="281,-514 281,-594 495,-594 495,-514 281,-514"/>
<polygon fill="#f5f5f5" stroke="transparent" points="281,-572 281,-594 495,-594 495,-572 281,-572"/>
<polygon fill="none" stroke="black" points="281,-572 281,-594 495,-594 495,-572 281,-572"/>
<text text-anchor="start" x="286" y="-581.2" font-family="Helvetica,sans-Serif" font-weight="bold" font-size="11.00">lookup_stem_breakage</text>
<text text-anchor="start" x="453" y="-580.2" font-family="Helvetica,sans-Serif" font-size="11.00">[table]</text>
<polygon fill="#ffffff" stroke="transparent" points="281,-550 281,-572 495,-572 495,-550 281,-550"/>
<polygon fill="none" stroke="black" points="281,-550 281,-572 495,-572 495,-550 281,-550"/>
<text text-anchor="start" x="314" y="-558.2" font-family="Helvetica,sans-Serif" font-size="11.00">abbreviation</text>
<polygon fill="none" stroke="black" points="281,-532 281,-550 495,-550 495,-532 281,-532"/>
<text text-anchor="start" x="284" y="-538.2" font-family="Helvetica,sans-Serif" font-size="11.00">...</text>
<polygon fill="#ffffff" stroke="transparent" points="281,-514 281,-532 495,-532 495,-514 281,-514"/>
<polygon fill="none" stroke="black" points="281,-514 281,-532 495,-532 495,-514 281,-514"/>
<polygon fill="#ffffff" stroke="transparent" points="282,-515 282,-531 339,-531 339,-515 282,-515"/>
<text text-anchor="start" x="284" y="-520.2" font-family="Helvetica,sans-Serif" font-size="11.00"> &#160;</text>
<polygon fill="#ffffff" stroke="transparent" points="339,-515 339,-531 425,-531 425,-515 339,-515"/>
<text text-anchor="start" x="363.5" y="-520.2" font-family="Helvetica,sans-Serif" font-size="11.00">0 rows</text>
<polygon fill="#ffffff" stroke="transparent" points="425,-515 425,-531 494,-531 494,-515 425,-515"/>
<text text-anchor="start" x="472" y="-520.2" font-family="Helvetica,sans-Serif" font-size="11.00">1 &gt;</text>
<polygon fill="black" stroke="black" points="339,-515 339,-531 339,-531 339,-515 339,-515"/>
<polygon fill="black" stroke="black" points="425,-515 425,-531 425,-531 425,-515 425,-515"/>
</a>
</g>
</g>
<!-- wzp_tree&#45;&gt;lookup_stem_breakage -->
<g id="edge5" class="edge">
<title>wzp_tree:w&#45;&gt;lookup_stem_breakage:e</title>
<path fill="none" stroke="black" d="M568,-488.5C534.17,-501.51 541.32,-561 496,-561"/>
<polygon fill="black" stroke="black" points="574.62,-487.36 583.11,-489.55 578.56,-486.68 582.5,-486 582.5,-486 582.5,-486 578.56,-486.68 581.89,-482.45 574.62,-487.36 574.62,-487.36"/>
<ellipse fill="none" stroke="black" cx="571.46" cy="-487.9" rx="3.2" ry="3.2"/>
</g>
<!-- lookup_stem_form -->
<g id="node6" class="node">
<title>lookup_stem_form</title>
<g id="a_node6"><a xlink:href="../../tables/lookup_stem_form.html" xlink:title="lookup_stem_form" target="_top">
<polygon fill="#ffffff" stroke="transparent" points="298,-413 298,-493 478,-493 478,-413 298,-413"/>
<polygon fill="#f5f5f5" stroke="transparent" points="298,-471 298,-493 478,-493 478,-471 298,-471"/>
<polygon fill="none" stroke="black" points="298,-471 298,-493 478,-493 478,-471 298,-471"/>
<text text-anchor="start" x="303" y="-480.2" font-family="Helvetica,sans-Serif" font-weight="bold" font-size="11.00">lookup_stem_form</text>
<text text-anchor="start" x="436" y="-479.2" font-family="Helvetica,sans-Serif" font-size="11.00">[table]</text>
<polygon fill="#ffffff" stroke="transparent" points="298,-449 298,-471 478,-471 478,-449 298,-449"/>
<polygon fill="none" stroke="black" points="298,-449 298,-471 478,-471 478,-449 298,-449"/>
<text text-anchor="start" x="331" y="-457.2" font-family="Helvetica,sans-Serif" font-size="11.00">abbreviation</text>
<polygon fill="none" stroke="black" points="298,-431 298,-449 478,-449 478,-431 298,-431"/>
<text text-anchor="start" x="301" y="-437.2" font-family="Helvetica,sans-Serif" font-size="11.00">...</text>
<polygon fill="#ffffff" stroke="transparent" points="298,-413 298,-431 478,-431 478,-413 298,-413"/>
<polygon fill="none" stroke="black" points="298,-413 298,-431 478,-431 478,-413 298,-413"/>
<polygon fill="#ffffff" stroke="transparent" points="299,-414 299,-430 345,-430 345,-414 299,-414"/>
<text text-anchor="start" x="301" y="-419.2" font-family="Helvetica,sans-Serif" font-size="11.00"> &#160;</text>
<polygon fill="#ffffff" stroke="transparent" points="345,-414 345,-430 420,-430 420,-414 345,-414"/>
<text text-anchor="start" x="364" y="-419.2" font-family="Helvetica,sans-Serif" font-size="11.00">0 rows</text>
<polygon fill="#ffffff" stroke="transparent" points="420,-414 420,-430 477,-430 477,-414 420,-414"/>
<text text-anchor="start" x="455" y="-419.2" font-family="Helvetica,sans-Serif" font-size="11.00">1 &gt;</text>
<polygon fill="black" stroke="black" points="345,-414 345,-430 345,-430 345,-414 345,-414"/>
<polygon fill="black" stroke="black" points="420,-414 420,-430 420,-430 420,-414 420,-414"/>
</a>
</g>
</g>
<!-- wzp_tree&#45;&gt;lookup_stem_form -->
<g id="edge6" class="edge">
<title>wzp_tree:w&#45;&gt;lookup_stem_form:e</title>
<path fill="none" stroke="black" d="M568.09,-463.86C533.43,-463.15 519.82,-460 479,-460"/>
<polygon fill="black" stroke="black" points="574.5,-463.92 582.46,-467.6 578.5,-463.96 582.5,-464 582.5,-464 582.5,-464 578.5,-463.96 582.54,-460.4 574.5,-463.92 574.5,-463.92"/>
<ellipse fill="none" stroke="black" cx="571.3" cy="-463.89" rx="3.2" ry="3.2"/>
</g>
<!-- lookup_tree_species -->
<g id="node7" class="node">
<title>lookup_tree_species</title>
<g id="a_node7"><a xlink:href="../../tables/lookup_tree_species.html" xlink:title="lookup_tree_species" target="_top">
<polygon fill="#ffffff" stroke="transparent" points="291,-615 291,-695 485,-695 485,-615 291,-615"/>
<polygon fill="#f5f5f5" stroke="transparent" points="291,-673 291,-695 485,-695 485,-673 291,-673"/>
<polygon fill="none" stroke="black" points="291,-673 291,-695 485,-695 485,-673 291,-673"/>
<text text-anchor="start" x="296" y="-682.2" font-family="Helvetica,sans-Serif" font-weight="bold" font-size="11.00">lookup_tree_species</text>
<text text-anchor="start" x="443" y="-681.2" font-family="Helvetica,sans-Serif" font-size="11.00">[table]</text>
<polygon fill="#ffffff" stroke="transparent" points="291,-651 291,-673 485,-673 485,-651 291,-651"/>
<polygon fill="none" stroke="black" points="291,-651 291,-673 485,-673 485,-651 291,-651"/>
<text text-anchor="start" x="324" y="-659.2" font-family="Helvetica,sans-Serif" font-size="11.00">abbreviation</text>
<polygon fill="none" stroke="black" points="291,-633 291,-651 485,-651 485,-633 291,-633"/>
<text text-anchor="start" x="294" y="-639.2" font-family="Helvetica,sans-Serif" font-size="11.00">...</text>
<polygon fill="#ffffff" stroke="transparent" points="291,-615 291,-633 485,-633 485,-615 291,-615"/>
<polygon fill="none" stroke="black" points="291,-615 291,-633 485,-633 485,-615 291,-615"/>
<polygon fill="#ffffff" stroke="transparent" points="292,-616 292,-632 338,-632 338,-616 292,-616"/>
<text text-anchor="start" x="294" y="-621.2" font-family="Helvetica,sans-Serif" font-size="11.00"> &#160;</text>
<polygon fill="#ffffff" stroke="transparent" points="338,-616 338,-632 427,-632 427,-616 338,-616"/>
<text text-anchor="start" x="357" y="-621.2" font-family="Helvetica,sans-Serif" font-size="11.00">125 rows</text>
<polygon fill="#ffffff" stroke="transparent" points="427,-616 427,-632 484,-632 484,-616 427,-616"/>
<text text-anchor="start" x="462" y="-621.2" font-family="Helvetica,sans-Serif" font-size="11.00">3 &gt;</text>
<polygon fill="black" stroke="black" points="338,-616 338,-632 338,-632 338,-616 338,-616"/>
<polygon fill="black" stroke="black" points="427,-616 427,-632 427,-632 427,-616 427,-616"/>
</a>
</g>
</g>
<!-- wzp_tree&#45;&gt;lookup_tree_species -->
<g id="edge7" class="edge">
<title>wzp_tree:w&#45;&gt;lookup_tree_species:e</title>
<path fill="none" stroke="black" d="M567.8,-662C536.43,-662 523.53,-662 486,-662"/>
<polygon fill="black" stroke="black" points="574.5,-662 582.5,-665.6 578.5,-662 582.5,-662 582.5,-662 582.5,-662 578.5,-662 582.5,-658.4 574.5,-662 574.5,-662"/>
<ellipse fill="none" stroke="black" cx="571.3" cy="-662" rx="3.2" ry="3.2"/>
</g>
<!-- lookup_tree_status -->
<g id="node8" class="node">
<title>lookup_tree_status</title>
<g id="a_node8"><a xlink:href="../../tables/lookup_tree_status.html" xlink:title="lookup_tree_status" target="_top">
<polygon fill="#ffffff" stroke="transparent" points="295.5,-716 295.5,-796 480.5,-796 480.5,-716 295.5,-716"/>
<polygon fill="#f5f5f5" stroke="transparent" points="296,-774 296,-796 481,-796 481,-774 296,-774"/>
<polygon fill="none" stroke="black" points="296,-774 296,-796 481,-796 481,-774 296,-774"/>
<text text-anchor="start" x="301" y="-783.2" font-family="Helvetica,sans-Serif" font-weight="bold" font-size="11.00">lookup_tree_status</text>
<text text-anchor="start" x="439" y="-782.2" font-family="Helvetica,sans-Serif" font-size="11.00">[table]</text>
<polygon fill="#ffffff" stroke="transparent" points="296,-752 296,-774 481,-774 481,-752 296,-752"/>
<polygon fill="none" stroke="black" points="296,-752 296,-774 481,-774 481,-752 296,-752"/>
<text text-anchor="start" x="329" y="-760.2" font-family="Helvetica,sans-Serif" font-size="11.00">abbreviation</text>
<polygon fill="none" stroke="black" points="296,-734 296,-752 481,-752 481,-734 296,-734"/>
<text text-anchor="start" x="299" y="-740.2" font-family="Helvetica,sans-Serif" font-size="11.00">...</text>
<polygon fill="#ffffff" stroke="transparent" points="296,-716 296,-734 481,-734 481,-716 296,-716"/>
<polygon fill="none" stroke="black" points="296,-716 296,-734 481,-734 481,-716 296,-716"/>
<polygon fill="#ffffff" stroke="transparent" points="297,-717 297,-733 345,-733 345,-717 297,-717"/>
<text text-anchor="start" x="299" y="-722.2" font-family="Helvetica,sans-Serif" font-size="11.00"> &#160;</text>
<polygon fill="#ffffff" stroke="transparent" points="345,-717 345,-733 421,-733 421,-717 345,-717"/>
<text text-anchor="start" x="364.5" y="-722.2" font-family="Helvetica,sans-Serif" font-size="11.00">0 rows</text>
<polygon fill="#ffffff" stroke="transparent" points="421,-717 421,-733 480,-733 480,-717 421,-717"/>
<text text-anchor="start" x="458" y="-722.2" font-family="Helvetica,sans-Serif" font-size="11.00">1 &gt;</text>
<polygon fill="black" stroke="black" points="345,-717 345,-733 345,-733 345,-717 345,-717"/>
<polygon fill="black" stroke="black" points="421,-717 421,-733 421,-733 421,-717 421,-717"/>
</a>
</g>
</g>
<!-- wzp_tree&#45;&gt;lookup_tree_status -->
<g id="edge8" class="edge">
<title>wzp_tree:w&#45;&gt;lookup_tree_status:e</title>
<path fill="none" stroke="black" d="M567.98,-750.49C534.54,-752.87 521.76,-763 482,-763"/>
<polygon fill="black" stroke="black" points="574.5,-750.27 582.62,-753.6 578.5,-750.14 582.5,-750 582.5,-750 582.5,-750 578.5,-750.14 582.38,-746.4 574.5,-750.27 574.5,-750.27"/>
<ellipse fill="none" stroke="black" cx="571.31" cy="-750.38" rx="3.2" ry="3.2"/>
</g>
</g>
</svg>
